<?xml version="1.0" encoding="utf-8"?>
<!-- Generator: Adobe Illustrator 27.3.1, SVG Export Plug-In . SVG Version: 6.00 Build 0)  -->
<svg version="1.1" id="Capa_1" xmlns="http://www.w3.org/2000/svg" xmlns:xlink="http://www.w3.org/1999/xlink" x="0px" y="0px"
	 viewBox="0 0 500 540" style="enable-background:new 0 0 500 540;" xml:space="preserve">
<style type="text/css">
	.st0{fill:none;stroke:#ECECEC;stroke-width:7.3943;stroke-miterlimit:10;}
	.st1{fill:none;}
	.st2{enable-background:new    ;}
	.st3{fill:#CD1719;}
	.st4{fill:none;stroke:#000000;stroke-width:0.7472;stroke-miterlimit:10;}
	.st5{fill:#F2C5C1;}
	.st6{fill:#5D5C5B;}
	.st7{fill:none;stroke:#CD1719;stroke-width:1.8485;stroke-miterlimit:10;}
</style>
<g id="agua">
	<g>
		<g>
			<path class="st0" d="M712.1,49.3c-42,0-42-7.4-84-7.4s-42,7.4-84,7.4s-42-7.4-84-7.4s-42,7.4-84,7.4s-42-7.4-84-7.4
				s-42,7.4-84,7.4s-42-7.4-84-7.4s-42,7.4-84,7.4s-42-7.4-84-7.4s-42,7.4-84,7.4s-42-7.4-84-7.4"/>
		</g>
		<g>
			<path class="st0" d="M712.1,64.4c-42,0-42-7.4-84-7.4s-42,7.4-84,7.4s-42-7.4-84-7.4s-42,7.4-84,7.4s-42-7.4-84-7.4
				s-42,7.4-84,7.4s-42-7.4-84-7.4s-42,7.4-84,7.4s-42-7.4-84-7.4s-42,7.4-84,7.4s-42-7.4-84-7.4"/>
		</g>
		<g>
			<path class="st0" d="M712.1,79.5c-42,0-42-7.4-84-7.4s-42,7.4-84,7.4s-42-7.4-84-7.4s-42,7.4-84,7.4s-42-7.4-84-7.4
				s-42,7.4-84,7.4s-42-7.4-84-7.4s-42,7.4-84,7.4s-42-7.4-84-7.4s-42,7.4-84,7.4s-42-7.4-84-7.4"/>
		</g>
		<g>
			<path class="st0" d="M712.1,94.7c-42,0-42-7.4-84-7.4s-42,7.4-84,7.4s-42-7.4-84-7.4s-42,7.4-84,7.4s-42-7.4-84-7.4
				s-42,7.4-84,7.4s-42-7.4-84-7.4s-42,7.4-84,7.4s-42-7.4-84-7.4s-42,7.4-84,7.4s-42-7.4-84-7.4"/>
		</g>
		<g>
			<path class="st0" d="M712.1,109.8c-42,0-42-7.4-84-7.4s-42,7.4-84,7.4s-42-7.4-84-7.4s-42,7.4-84,7.4s-42-7.4-84-7.4
				s-42,7.4-84,7.4s-42-7.4-84-7.4s-42,7.4-84,7.4s-42-7.4-84-7.4s-42,7.4-84,7.4s-42-7.4-84-7.4"/>
		</g>
	</g>
</g>
<g id="agua_00000021100680276302078550000012812856652892117934_">
	<g>
		<g>
			<path class="st0" d="M712.1,182.3c-42,0-42-7.4-84-7.4s-42,7.4-84,7.4s-42-7.4-84-7.4s-42,7.4-84,7.4s-42-7.4-84-7.4
				s-42,7.4-84,7.4s-42-7.4-84-7.4s-42,7.4-84,7.4s-42-7.4-84-7.4s-42,7.4-84,7.4s-42-7.4-84-7.4"/>
		</g>
		<g>
			<path class="st0" d="M712.1,197.4c-42,0-42-7.4-84-7.4s-42,7.4-84,7.4s-42-7.4-84-7.4s-42,7.4-84,7.4s-42-7.4-84-7.4
				s-42,7.4-84,7.4s-42-7.4-84-7.4s-42,7.4-84,7.4s-42-7.4-84-7.4s-42,7.4-84,7.4s-42-7.4-84-7.4"/>
		</g>
		<g>
			<path class="st0" d="M712.1,212.5c-42,0-42-7.4-84-7.4s-42,7.4-84,7.4s-42-7.4-84-7.4s-42,7.4-84,7.4s-42-7.4-84-7.4
				s-42,7.4-84,7.4s-42-7.4-84-7.4s-42,7.4-84,7.4s-42-7.4-84-7.4s-42,7.4-84,7.4s-42-7.4-84-7.4"/>
		</g>
		<g>
			<path class="st0" d="M712.1,227.7c-42,0-42-7.4-84-7.4s-42,7.4-84,7.4s-42-7.4-84-7.4s-42,7.4-84,7.4s-42-7.4-84-7.4
				s-42,7.4-84,7.4s-42-7.4-84-7.4s-42,7.4-84,7.4s-42-7.4-84-7.4s-42,7.4-84,7.4s-42-7.4-84-7.4"/>
		</g>
		<g>
			<path class="st0" d="M712.1,242.8c-42,0-42-7.4-84-7.4s-42,7.4-84,7.4s-42-7.4-84-7.4s-42,7.4-84,7.4s-42-7.4-84-7.4
				s-42,7.4-84,7.4s-42-7.4-84-7.4s-42,7.4-84,7.4s-42-7.4-84-7.4s-42,7.4-84,7.4s-42-7.4-84-7.4"/>
		</g>
	</g>
</g>
<g id="agua_00000170962564589192699840000003779727756496242070_">
	<g>
		<g>
			<path class="st0" d="M712.1,315.3c-42,0-42-7.4-84-7.4s-42,7.4-84,7.4s-42-7.4-84-7.4s-42,7.4-84,7.4s-42-7.4-84-7.4
				s-42,7.4-84,7.4s-42-7.4-84-7.4s-42,7.4-84,7.4s-42-7.4-84-7.4s-42,7.4-84,7.4s-42-7.4-84-7.4"/>
		</g>
		<g>
			<path class="st0" d="M712.1,330.4c-42,0-42-7.4-84-7.4s-42,7.4-84,7.4s-42-7.4-84-7.4s-42,7.4-84,7.4s-42-7.4-84-7.4
				s-42,7.4-84,7.4s-42-7.4-84-7.4s-42,7.4-84,7.4s-42-7.4-84-7.4s-42,7.4-84,7.4s-42-7.4-84-7.4"/>
		</g>
		<g>
			<path class="st0" d="M712.1,345.5c-42,0-42-7.4-84-7.4s-42,7.4-84,7.4s-42-7.4-84-7.4s-42,7.4-84,7.4s-42-7.4-84-7.4
				s-42,7.4-84,7.4s-42-7.4-84-7.4s-42,7.4-84,7.4s-42-7.4-84-7.4s-42,7.4-84,7.4s-42-7.4-84-7.4"/>
		</g>
		<g>
			<path class="st0" d="M712.1,360.7c-42,0-42-7.4-84-7.4s-42,7.4-84,7.4s-42-7.4-84-7.4s-42,7.4-84,7.4s-42-7.4-84-7.4
				s-42,7.4-84,7.4s-42-7.4-84-7.4s-42,7.4-84,7.4s-42-7.4-84-7.4s-42,7.4-84,7.4s-42-7.4-84-7.4"/>
		</g>
		<g>
			<path class="st0" d="M712.1,375.8c-42,0-42-7.4-84-7.4s-42,7.4-84,7.4s-42-7.4-84-7.4s-42,7.4-84,7.4s-42-7.4-84-7.4
				s-42,7.4-84,7.4s-42-7.4-84-7.4s-42,7.4-84,7.4s-42-7.4-84-7.4s-42,7.4-84,7.4s-42-7.4-84-7.4"/>
		</g>
	</g>
</g>
<g id="agua_00000162321352446162168990000012949264204339966876_">
	<g>
		<g>
			<path class="st0" d="M712.1,448.3c-42,0-42-7.4-84-7.4s-42,7.4-84,7.4s-42-7.4-84-7.4s-42,7.4-84,7.4s-42-7.4-84-7.4
				s-42,7.4-84,7.4s-42-7.4-84-7.4s-42,7.4-84,7.4s-42-7.4-84-7.4s-42,7.4-84,7.4s-42-7.4-84-7.4"/>
		</g>
		<g>
			<path class="st0" d="M712.1,463.4c-42,0-42-7.4-84-7.4s-42,7.4-84,7.4s-42-7.4-84-7.4s-42,7.4-84,7.4s-42-7.4-84-7.4
				s-42,7.4-84,7.4s-42-7.4-84-7.4s-42,7.4-84,7.4s-42-7.4-84-7.4s-42,7.4-84,7.4s-42-7.4-84-7.4"/>
		</g>
		<g>
			<path class="st0" d="M712.1,478.6c-42,0-42-7.4-84-7.4s-42,7.4-84,7.4s-42-7.4-84-7.4s-42,7.4-84,7.4s-42-7.4-84-7.4
				s-42,7.4-84,7.4s-42-7.4-84-7.4s-42,7.4-84,7.4s-42-7.4-84-7.4s-42,7.4-84,7.4s-42-7.4-84-7.4"/>
		</g>
		<g>
			<path class="st0" d="M712.1,493.7c-42,0-42-7.4-84-7.4s-42,7.4-84,7.4s-42-7.4-84-7.4s-42,7.4-84,7.4s-42-7.4-84-7.4
				s-42,7.4-84,7.4s-42-7.4-84-7.4s-42,7.4-84,7.4s-42-7.4-84-7.4s-42,7.4-84,7.4s-42-7.4-84-7.4"/>
		</g>
		<g>
			<path class="st0" d="M712.1,508.8c-42,0-42-7.4-84-7.4s-42,7.4-84,7.4s-42-7.4-84-7.4s-42,7.4-84,7.4s-42-7.4-84-7.4
				s-42,7.4-84,7.4s-42-7.4-84-7.4s-42,7.4-84,7.4s-42-7.4-84-7.4s-42,7.4-84,7.4s-42-7.4-84-7.4"/>
		</g>
	</g>
</g>
<rect x="37.3" y="64.6" class="st1" width="47.9" height="22.6"/>
<rect x="37.3" y="197.6" class="st1" width="47.9" height="22.6"/>
<rect x="37.3" y="330.6" class="st1" width="47.9" height="22.6"/>
<rect x="37.3" y="463.6" class="st1" width="47.9" height="22.6"/>
<g class="st2">
	<path class="st3" d="M51.3,64.6c5.5,0,9.4,4.2,9.4,9.4c0,5.2-4,9.4-9.4,9.4s-9.4-4.2-9.4-9.4C41.9,68.7,45.8,64.6,51.3,64.6z
		 M54.5,76.5h-1.9v-7.1H51l-2.5,1.1l0.2,1.6l2.1-0.9v5.3h-2.4v1.7h6.4L54.5,76.5z"/>
</g>
<g class="st2">
	<path class="st3" d="M51.3,197.6c5.5,0,9.4,4.2,9.4,9.4s-4,9.4-9.4,9.4s-9.4-4.2-9.4-9.4C41.9,201.7,45.8,197.6,51.3,197.6z
		 M54.4,209.6h-4l2.3-1.7c1.2-0.9,1.9-1.8,1.9-3c0-1.5-1.4-2.6-3.2-2.6c-1.3,0-2.3,0.4-3.1,1l0.2,1.6c0.8-0.5,1.7-0.9,2.5-0.9
		s1.5,0.5,1.5,1.2c0,0.6-0.4,1.1-1.2,1.8l-3.3,2.8v1.5h6.6L54.4,209.6z"/>
</g>
<g class="st2">
	<path class="st3" d="M51.3,330.6c5.5,0,9.4,4.2,9.4,9.4c0,5.2-4,9.4-9.4,9.4s-9.4-4.2-9.4-9.4C41.9,334.7,45.8,330.6,51.3,330.6z
		 M52.8,339.7L52.8,339.7c1.1-0.4,1.8-1,1.8-2c0-1.4-1.2-2.3-3.3-2.3c-1.1,0-2.2,0.4-2.9,0.8l0.2,1.5c0.7-0.5,1.6-0.8,2.5-0.8
		c1,0,1.6,0.4,1.6,1S52,339,50.6,339h-1l0.2,1.4h0.7c1.6,0,2.4,0.4,2.4,1.2c0,0.7-0.7,1.2-1.8,1.2c-0.9,0-1.8-0.2-2.5-0.7l-0.3,1.5
		c0.8,0.4,1.9,0.7,3,0.7c2.1,0,3.6-0.9,3.6-2.6C54.7,340.7,54,339.9,52.8,339.7z"/>
</g>
<g class="st2">
	<path class="st3" d="M51.3,463.6c5.5,0,9.4,4.2,9.4,9.4c0,5.2-4,9.4-9.4,9.4s-9.4-4.2-9.4-9.4C41.9,467.7,45.8,463.6,51.3,463.6z
		 M54.8,474h-1.4v-5.5h-2.2l-4,5.5v1.3h4.5v1.8h1.8v-1.8h1.4L54.8,474L54.8,474z M50.1,474l-1.3,0.1l1-1.4l0.9-1.2l1.1-1.6l-0.1,1.8
		v2.3L50.1,474L50.1,474z"/>
</g>
<line class="st4" x1="191.1" y1="-60" x2="191.1" y2="-165"/>
<line class="st4" x1="250.4" y1="-60" x2="250.4" y2="-165"/>
<line class="st4" x1="309.7" y1="-60" x2="309.7" y2="-165"/>
<line class="st4" x1="369" y1="-60" x2="369" y2="-165"/>
<g id="nadadora-cuatro">
	<path class="st5" d="M402.5,446.3c0,0,4.2-2.3,13.2-2.5s-5.1-11.8-5.1-11.8l-8,0.3v14H402.5z"/>
	<g>
		<path class="st6" d="M420.4,433.6c9.8-2.6,12.6,6,12.7,6c0.9-1.1,1.6-2.2,2-3.3c2.1-6-2.5-13-8.8-15.2s-14.4,1.6-16.4,7.6
			c-0.4,1.2-0.4,2.3-0.2,3.5C410.5,433.4,413,435.5,420.4,433.6z"/>
		<path class="st5" d="M433,439.6c0-0.1-2.9-8.7-12.7-6c-7.4,2-9.9-0.1-10.7-1.3c0.4,2.3,1.7,4.6,2.8,7.2c1.4,3.1,1.5,7.6,4.1,9.9
			c1.9,1.7,5.9-2.4,10.2-1.5c1.5,0.3-0.1-2.3,1.2-3.4C429.8,443,431.6,441.3,433,439.6z"/>
	</g>
	<g>
		<path class="st5" d="M478,437.1c-9.9-7.3-20-2.8-20-2.8c-8.7,0.4-15.9,0.7-21.9,0.8c-0.1,0.5-0.2,1-0.4,1.5
			c-0.4,1.1-1.1,2.2-2.1,3.5c-1,1.2-2.2,2.3-3.4,3.5c14-1.4,26.8-4.8,26.8-4.8l10,3.1c0.8,0.3,1.8-0.8,1.2-1.4
			c-0.5-0.4-2.4-1.1-1-2.3C469.1,436.5,480.4,438.9,478,437.1z"/>
	</g>
	<path class="st6" d="M337.6,439.1c-0.8-3.8,1.3-9.4,9.4-12.4c8.2-3,26.8,8.5,35.2,5.4c8.3-3.1,22.3-6.7,24.4-1.1
		c2.1,5.7,5.8,17.2-6.4,21.7c-20.2,7.5-25.3-10-39.5-4.8C346.6,453.2,338.9,445.2,337.6,439.1z"/>
	<path class="st5" d="M287.2,437.4c0,4.8,3.6,2.9,11.8,2.5c8.2-0.4,13,6.5,17.5,4.1c3.4-1.8,16.5-12.6,28-12.7
		c9.7-0.1,15.3,15.4-0.4,20.4c0,0-18,2.4-27.4,2.9s-27.3-4-34.8-9.6c-2.2-1.7-7.7-1.1-11.3-2.4c-5.3-2-8.2-0.4-10.6-4.9
		c-2.6-5,10.7,0.4,15.4-2.1C280.1,433.1,287.2,431.8,287.2,437.4z"/>
	<path class="st5" d="M290.6,450.2c-2.4,1.7-4.2,2.8-4.6,1.2c-1.5-5.6-8.6-4.1-11.5,0.4s-17.2,6.1-12.5,9.2
		c4.3,2.8,6.2-2.3,11.7-0.8c3.4,0.9,9.8-1.2,12.6-1.3c8.6-0.3,14-2.2,22.4-4.1C302.9,454.1,296.3,452.4,290.6,450.2z"/>
	<path class="st5" d="M363.6,436.4c0,0-12.6-2.4-14.2-14.5c-0.4-3,5.7,6.8,8.3,7c1.8,0.2,1-1.7,0.9-2.3c0-0.9,1.4-0.9,1.8-0.1
		l5.3,2.5c0,0,22-25.1,37.1,4c5.6,10.8-4,14.9-7.2,10.5c-4.7-6.4-6-8.9-7.6-14.9C386.2,421.1,370.7,435.7,363.6,436.4z"/>
	<g>
		<g>
			<line class="st7" x1="381.7" y1="464.1" x2="459.9" y2="464.1"/>
			<g>
				<polygon class="st3" points="455,470.2 454,469.1 459.4,464.1 454,459.2 455,458.1 461.5,464.1 				"/>
			</g>
		</g>
	</g>
</g>
<g id="nadadora-tres">
	<g>
		<g>
			<path class="st5" d="M355,319.7c0,0,1.9-4.3,8.9-10s-11.3-6.3-11.3-6.3l-2.3,8.9L355,319.7z"/>
			<g>
				<path class="st6" d="M361.5,298.7c6.2-8.1,13.7-3,13.7-2.9c0.1-1.4,0-2.7-0.4-3.8c-2-6-9.9-8.8-16.2-6.7
					c-6.3,2.1-10.4,10-8.4,16c0.4,1.2,1.1,2.1,2,2.9C353.6,304.6,356.9,304.7,361.5,298.7z"/>
				<path class="st5" d="M375.2,295.7c-0.1,0-7.6-5.1-13.7,2.9c-4.6,6.1-7.9,5.9-9.3,5.5c1.7,1.5,4.1,2.6,6.7,4
					c3,1.6,5.8,5.1,9.3,5.4c2.5,0.2,3.2-5.5,7.2-7.4c1.4-0.6-1.5-1.8-1.1-3.4C374.7,300.4,375.1,297.9,375.2,295.7z"/>
			</g>
			<path class="st5" d="M427.4,306.2c-8.7-8.7-19.1-8.1-19.1-8.1c-7.9,0.4-20.9,1.5-32.8,1c-0.2,1.3-0.4,2.5-0.7,3.7
				c-0.1,0.4,0.4,0.9,0.8,1.4s0.9,1,0.8,1.6c-0.1,0.4-0.3,0.6-0.8,0.9c-1.3,0.6-2.1,1.6-2.9,2.7c17.7,0.1,33.6-4.7,33.6-4.7l9.5,4.5
				c0.8,0.4,1.9-0.5,1.4-1.2c-0.4-0.5-2.2-1.4-0.7-2.4C418.7,304.3,429.5,308.3,427.4,306.2z"/>
			<path class="st6" d="M287.1,329c-1.7-3.5-0.9-9.4,6.4-14.2c7.3-4.8,28,2.1,35.5-2.8c7.4-4.9,20.2-11.7,23.5-6.6
				c3.3,5,9.6,15.4-1.2,22.6c-17.9,11.9-26.9-3.9-39.5,4.4C299.1,340.6,289.8,334.6,287.1,329z"/>
			<path class="st5" d="M364.8,371.3c0,0,3.5,10.5-4.6,19.7c-2,2.2,1.5-8.8,0-10.9c-1.1-1.5-1.9,0.4-2.4,0.8
				c-0.7,0.6-1.6-0.5-1.3-1.3l4-9.7c0,0-18.4-22.6-17.3-46c0.6-12.1,12.9-9.7,11.8-4.3C352,335.4,357.3,340.9,364.8,371.3z"/>
			<path class="st5" d="M218.5,317.1c-0.1,4.8,16.7,6.4,24.6,8.3c8.6,2.1,13.3,10.3,17.9,7.8c3.4-1.8,21.1-17.1,32.7-17.2
				c9.7-0.1,15.3,15.4-0.4,20.4c0,0-25.5,9.1-35,9.6c-9.5,0.5-32.8-18.8-41.9-20.9c-2.7-0.6-8.9-0.3-12.2-1.5
				c-5.3-2-7.7,2.9-11.7-0.2c-4.4-3.5,10-3.9,13.3-8C209.2,311.1,218.7,306.8,218.5,317.1z"/>
			<path class="st5" d="M205.6,314.6c2.2-2.6,7-5.5,10.4-4.3c1.6,0.6,3.4,2.2,3.3,6.8c-0.1,3.1,10.4,5,17.4,6.3
				c2.5,0.4,4.9,0.9,6.8,1.3c1.8,0.4,3.5,1.1,5,1.9c-1.6-2-3.2-4-4.2-5.3c-5.1-6.4-23.3-3.8-22-8.4c3-9.9-7.4-8.4-11.7-5.2
				c-4.3,3.1-18.3-0.5-15,4.1C198.2,315.6,201.5,312.5,205.6,314.6z"/>
		</g>
		<g>
			<g>
				<path class="st7" d="M337.9,355.4c-26.1-3.1-44.8-26.4-42.6-52.3"/>
				<g>
					<polygon class="st3" points="301.2,308.3 300,309.2 295.4,303.6 290.1,308.6 289.1,307.5 295.5,301.4 					"/>
				</g>
			</g>
		</g>
		<g>
			<g>
				<path class="st7" d="M404.9,310c-3.1,26.1-26.4,44.8-52.3,42.6"/>
				<g>
					<polygon class="st3" points="357.8,346.8 358.7,348 353.1,352.6 358.1,357.9 357,358.9 350.9,352.5 					"/>
				</g>
			</g>
		</g>
	</g>
</g>
<g id="nadadora-dos">
	<g>
		<g>
			<path class="st7" d="M274.2,126.8c19.9-17.1,49.7-15.2,67.4,4"/>
			<g>
				<polygon class="st3" points="333.8,131.5 333.9,130 341.1,130.4 341,123.1 342.5,123.1 342.6,132 				"/>
			</g>
		</g>
	</g>
	<g>
		<g>
			<path class="st7" d="M312,203.5c-19.9,17.1-49.7,15.2-67.4-4"/>
			<g>
				<polygon class="st3" points="252.5,198.8 252.4,200.3 245.1,199.9 245.3,207.2 243.8,207.2 243.6,198.3 				"/>
			</g>
		</g>
	</g>
	<path class="st5" d="M294.3,177.5c0,0,0.8-5.7,9.4-8.3s-8.1-10.1-8.1-10.1l-5.5,7.4L294.3,177.5z"/>
	<g>
		<path class="st6" d="M305.7,158c8.8-5.1,13.8,2.4,13.8,2.5c0.6-1.3,1-2.6,1.1-3.7c0.4-6.4-5.8-11.9-12.5-12.4
			c-6.7-0.4-13.4,5.3-13.8,11.6c-0.1,1.2,0.2,2.3,0.7,3.4C296.1,160.5,299.1,161.9,305.7,158z"/>
		<path class="st5" d="M319.5,160.5c0-0.1-5-7.6-13.8-2.5c-6.6,3.8-9.6,2.5-10.7,1.5c1,2.1,2.8,4,4.6,6.2c2.1,2.7,3.4,6.9,6.5,8.5
			c2.3,1.2,5-3.9,9.5-4.1c1.5-0.1-0.7-2.2,0.2-3.6C317.2,164.6,318.6,162.5,319.5,160.5z"/>
	</g>
	<path class="st6" d="M228,172c-1-3.8,0.8-9.4,8.8-12.8c8-3.4,27.2,7.2,35.4,3.7s22-7.8,24.3-2.3c2.4,5.6,6.6,16.9-5.3,22
		c-19.8,8.4-25.7-8.8-39.7-2.8C237.7,185.7,229.6,178,228,172z"/>
	<path class="st5" d="M253.3,160c14.9-14.8,11.9-10.4,18.8,2.1c2.4-1,7.2-2.9,12-4c-17.1-23-18.3-24.9-39.1,0
		C247.6,158.6,250.4,159.3,253.3,160z"/>
	<path class="st5" d="M339.1,191c0,0,9.6,4.1,13.5,15.7c1,2.8-7-5.6-9.5-5.3c-1.8,0.2-0.6,1.8-0.5,2.5c0.2,0.9-1.2,1.2-1.8,0.5
		l-6.5-8.3c0,0-28.1-6.1-46-18.3c-10-6.9-0.8-15.2,3.7-11.1C303,176.3,328.4,186.3,339.1,191z"/>
	<path class="st5" d="M165.5,189.2c3.1,3.8,11.9-8,20.1-8.7c8.2-0.7,14.3,0.6,18.7-1.9c3.3-1.9,18.1-15.2,29.6-15.7
		c9.7-0.4,15.7,14.9,0.2,20.4c0,0-19.8,6.8-29.2,7.7c-9.4,0.8-27.5,1.5-35.8,5.7c-2.5,1.3-7,5.5-10.3,6.7c-5.3,1.9-4,7.2-9.1,7.4
		c-5.6,0.2,5.1-9.4,5-14.7C154.5,190.6,159,181.1,165.5,189.2z"/>
	<path class="st5" d="M158.2,161.7c2.2,2.8,7.7,5.6,9.7,7.6c4.6,4.5,9.8,7.4,13.8,11.6c1.3-0.5,2.5-0.9,3.8-1
		c2.8-0.2,5.4-0.2,7.7-0.2c1.7,0,3.3,0,4.7-0.1c-1.6-1.2-3.1-3-4.6-6.5c-3.3-7.5-22.2-5.4-19.6-9.5c5.5-8.8-5-10-9.9-8.1
		c-5,1.9-17.5-5.2-15.5,0.1C150.1,160.2,154.7,157.2,158.2,161.7z"/>
</g>
<g id="nadadora-uno_00000125569699898736461680000016913725007934623117_">
	<g>
		<g>
			<path class="st7" d="M265.5,63.7c-3.9,26-27.7,44.1-53.6,41.1"/>
			<g>
				<polygon class="st3" points="217.3,99.1 218.2,100.3 212.5,104.8 217.4,110.2 216.3,111.2 210.3,104.6 				"/>
			</g>
		</g>
	</g>
	<g>
		<path class="st5" d="M227.4,42.3c6.1,2.6,12.4,3.6,23,3.7c-1.4-1.6-3.6-2.8-7-3.3c-3.4-0.4-5.6-1.2-7-2.1
			c-0.8-1.8-1.6-3.1-1.6-3.1l-0.8,0.2c0-0.1-0.1-0.2-0.1-0.2c0,0.1,0,0.2,0,0.3l-7.9,2.3l-0.4,1.6C226.1,41.9,226.7,42,227.4,42.3z"
			/>
		<path class="st5" d="M241.8,56.4c-2.8,0-5.4-0.1-8-0.5c0,0.1,0.1,0.2,0.1,0.2c1.1,2.3,6.4-0.1,10,2.4c1.1,0.7,0.9-1.2,1.7-2.3
			C244.4,56.4,243.1,56.4,241.8,56.4z"/>
	</g>
	<path class="st6" d="M243.3,42.8c3.4,0.4,5.6,1.7,7,3.3c2.4,0,4.9,0,7.8,0c0.7-4.4-1.1-9.5-4.8-12.6c-5.1-4.3-13.9-3.8-18.1,1
		c-0.8,0.9-1.2,2-1.5,3.2C234.2,39,235.8,42,243.3,42.8z"/>
	<path class="st6" d="M159.7,50.7c-0.8-3.8,1.3-9.4,9.4-12.4c8.2-3,26.8,8.5,35.2,5.4c8.3-3.1,22.3-6.7,24.4-1.1
		c2.1,5.7,5.8,17.2-6.4,21.7c-20.2,7.5-25.3-10-39.5-4.8S161,56.8,159.7,50.7z"/>
	<path class="st5" d="M186.7,40.3c2.1,0.7,4.3,1.3,6.4,1.9c6-1.4,9.4-0.9,12.1,0.4c4.6-1.6,15.1-4.9,20.8-3.1l0.7-0.2
		c-0.9-0.6-2-1.1-3.3-1.6c-25.3-9.9-36.7-2.7-40.7,1.4C184.1,39.5,185.4,39.9,186.7,40.3z"/>
	<path class="st5" d="M280.1,45.9c0,0,10.2-4.5,20,2.8c2.4,1.8-8.9-0.6-10.8,1.1c-1.4,1.2,0.6,1.9,1,2.3c0.6,0.6-0.3,1.7-1.2,1.4
		l-10-3.1c0,0-32.3,8.6-50.5,3.9c-10.6-2.7-8.9-14.5-1.5-11.3C237.7,47.5,248.8,47.3,280.1,45.9z"/>
	<path class="st5" d="M109.3,49.1c0,4.8,3.6,2.9,11.8,2.5s13,6.5,17.5,4.1c3.4-1.8,16.5-12.6,28-12.7c9.7-0.1,15.3,15.4-0.4,20.4
		c0,0-18,2.4-27.4,2.9c-9.5,0.5-27.3-4-34.8-9.6c-2.2-1.7-7.7-1.1-11.3-2.4c-5.3-2-8.2-0.4-10.6-4.9c-2.6-5,10.7,0.4,15.4-2.1
		C102.2,44.7,109.3,43.5,109.3,49.1z"/>
	<path class="st5" d="M112.8,61.9c-2.4,1.7-4.2,2.8-4.6,1.2c-1.5-5.6-8.6-4.1-11.5,0.4s-17.2,6.1-12.5,9.2c4.3,2.8,6.2-2.3,11.7-0.8
		c3.4,0.9,9.8-1.2,12.6-1.3c8.6-0.3,14-2.2,22.4-4.1C125,65.7,118.4,64,112.8,61.9z"/>
</g>
</svg>
