<?xml version="1.0" encoding="utf-8"?>
<!-- Generator: Adobe Illustrator 27.3.1, SVG Export Plug-In . SVG Version: 6.00 Build 0)  -->
<svg version="1.1" id="Capa_1" xmlns="http://www.w3.org/2000/svg" xmlns:xlink="http://www.w3.org/1999/xlink" x="0px" y="0px"
	 viewBox="0 0 500 540" style="enable-background:new 0 0 500 540;" xml:space="preserve">
<style type="text/css">
	.st0{fill:none;stroke:#ECECEC;stroke-width:7.3943;stroke-miterlimit:10;}
	.st1{fill:none;}
	.st2{enable-background:new    ;}
	.st3{fill:#CD1719;}
	.st4{fill:#F2C5C1;}
	.st5{fill:#5D5C5B;}
	.st6{fill:none;stroke:#CD1719;stroke-width:1.8485;stroke-miterlimit:10;}
</style>
<g id="agua">
	<g>
		<g>
			<path class="st0" d="M712.1,49.3c-42,0-42-7.4-84-7.4s-42,7.4-84,7.4s-42-7.4-84-7.4s-42,7.4-84,7.4s-42-7.4-84-7.4
				s-42,7.4-84,7.4s-42-7.4-84-7.4s-42,7.4-84,7.4s-42-7.4-84-7.4s-42,7.4-84,7.4s-42-7.4-84-7.4"/>
		</g>
		<g>
			<path class="st0" d="M712.1,64.4c-42,0-42-7.4-84-7.4s-42,7.4-84,7.4s-42-7.4-84-7.4s-42,7.4-84,7.4s-42-7.4-84-7.4
				s-42,7.4-84,7.4s-42-7.4-84-7.4s-42,7.4-84,7.4s-42-7.4-84-7.4s-42,7.4-84,7.4s-42-7.4-84-7.4"/>
		</g>
		<g>
			<path class="st0" d="M712.1,79.5c-42,0-42-7.4-84-7.4s-42,7.4-84,7.4s-42-7.4-84-7.4s-42,7.4-84,7.4s-42-7.4-84-7.4
				s-42,7.4-84,7.4s-42-7.4-84-7.4s-42,7.4-84,7.4s-42-7.4-84-7.4s-42,7.4-84,7.4s-42-7.4-84-7.4"/>
		</g>
		<g>
			<path class="st0" d="M712.1,94.7c-42,0-42-7.4-84-7.4s-42,7.4-84,7.4s-42-7.4-84-7.4s-42,7.4-84,7.4s-42-7.4-84-7.4
				s-42,7.4-84,7.4s-42-7.4-84-7.4s-42,7.4-84,7.4s-42-7.4-84-7.4s-42,7.4-84,7.4s-42-7.4-84-7.4"/>
		</g>
		<g>
			<path class="st0" d="M712.1,109.8c-42,0-42-7.4-84-7.4s-42,7.4-84,7.4s-42-7.4-84-7.4s-42,7.4-84,7.4s-42-7.4-84-7.4
				s-42,7.4-84,7.4s-42-7.4-84-7.4s-42,7.4-84,7.4s-42-7.4-84-7.4s-42,7.4-84,7.4s-42-7.4-84-7.4"/>
		</g>
	</g>
</g>
<g id="agua_00000021100680276302078550000012812856652892117934_">
	<g>
		<g>
			<path class="st0" d="M712.1,182.3c-42,0-42-7.4-84-7.4s-42,7.4-84,7.4s-42-7.4-84-7.4s-42,7.4-84,7.4s-42-7.4-84-7.4
				s-42,7.4-84,7.4s-42-7.4-84-7.4s-42,7.4-84,7.4s-42-7.4-84-7.4s-42,7.4-84,7.4s-42-7.4-84-7.4"/>
		</g>
		<g>
			<path class="st0" d="M712.1,197.4c-42,0-42-7.4-84-7.4s-42,7.4-84,7.4s-42-7.4-84-7.4s-42,7.4-84,7.4s-42-7.4-84-7.4
				s-42,7.4-84,7.4s-42-7.4-84-7.4s-42,7.4-84,7.4s-42-7.4-84-7.4s-42,7.4-84,7.4s-42-7.4-84-7.4"/>
		</g>
		<g>
			<path class="st0" d="M712.1,212.5c-42,0-42-7.4-84-7.4s-42,7.4-84,7.4s-42-7.4-84-7.4s-42,7.4-84,7.4s-42-7.4-84-7.4
				s-42,7.4-84,7.4s-42-7.4-84-7.4s-42,7.4-84,7.4s-42-7.4-84-7.4s-42,7.4-84,7.4s-42-7.4-84-7.4"/>
		</g>
		<g>
			<path class="st0" d="M712.1,227.7c-42,0-42-7.4-84-7.4s-42,7.4-84,7.4s-42-7.4-84-7.4s-42,7.4-84,7.4s-42-7.4-84-7.4
				s-42,7.4-84,7.4s-42-7.4-84-7.4s-42,7.4-84,7.4s-42-7.4-84-7.4s-42,7.4-84,7.4s-42-7.4-84-7.4"/>
		</g>
		<g>
			<path class="st0" d="M712.1,242.8c-42,0-42-7.4-84-7.4s-42,7.4-84,7.4s-42-7.4-84-7.4s-42,7.4-84,7.4s-42-7.4-84-7.4
				s-42,7.4-84,7.4s-42-7.4-84-7.4s-42,7.4-84,7.4s-42-7.4-84-7.4s-42,7.4-84,7.4s-42-7.4-84-7.4"/>
		</g>
	</g>
</g>
<g id="agua_00000170962564589192699840000003779727756496242070_">
	<g>
		<g>
			<path class="st0" d="M712.1,315.3c-42,0-42-7.4-84-7.4s-42,7.4-84,7.4s-42-7.4-84-7.4s-42,7.4-84,7.4s-42-7.4-84-7.4
				s-42,7.4-84,7.4s-42-7.4-84-7.4s-42,7.4-84,7.4s-42-7.4-84-7.4s-42,7.4-84,7.4s-42-7.4-84-7.4"/>
		</g>
		<g>
			<path class="st0" d="M712.1,330.4c-42,0-42-7.4-84-7.4s-42,7.4-84,7.4s-42-7.4-84-7.4s-42,7.4-84,7.4s-42-7.4-84-7.4
				s-42,7.4-84,7.4s-42-7.4-84-7.4s-42,7.4-84,7.4s-42-7.4-84-7.4s-42,7.4-84,7.4s-42-7.4-84-7.4"/>
		</g>
		<g>
			<path class="st0" d="M712.1,345.5c-42,0-42-7.4-84-7.4s-42,7.4-84,7.4s-42-7.4-84-7.4s-42,7.4-84,7.4s-42-7.4-84-7.4
				s-42,7.4-84,7.4s-42-7.4-84-7.4s-42,7.4-84,7.4s-42-7.4-84-7.4s-42,7.4-84,7.4s-42-7.4-84-7.4"/>
		</g>
		<g>
			<path class="st0" d="M712.1,360.7c-42,0-42-7.4-84-7.4s-42,7.4-84,7.4s-42-7.4-84-7.4s-42,7.4-84,7.4s-42-7.4-84-7.4
				s-42,7.4-84,7.4s-42-7.4-84-7.4s-42,7.4-84,7.4s-42-7.4-84-7.4s-42,7.4-84,7.4s-42-7.4-84-7.4"/>
		</g>
		<g>
			<path class="st0" d="M712.1,375.8c-42,0-42-7.4-84-7.4s-42,7.4-84,7.4s-42-7.4-84-7.4s-42,7.4-84,7.4s-42-7.4-84-7.4
				s-42,7.4-84,7.4s-42-7.4-84-7.4s-42,7.4-84,7.4s-42-7.4-84-7.4s-42,7.4-84,7.4s-42-7.4-84-7.4"/>
		</g>
	</g>
</g>
<g id="agua_00000162321352446162168990000012949264204339966876_">
	<g>
		<g>
			<path class="st0" d="M712.1,448.3c-42,0-42-7.4-84-7.4s-42,7.4-84,7.4s-42-7.4-84-7.4s-42,7.4-84,7.4s-42-7.4-84-7.4
				s-42,7.4-84,7.4s-42-7.4-84-7.4s-42,7.4-84,7.4s-42-7.4-84-7.4s-42,7.4-84,7.4s-42-7.4-84-7.4"/>
		</g>
		<g>
			<path class="st0" d="M712.1,463.4c-42,0-42-7.4-84-7.4s-42,7.4-84,7.4s-42-7.4-84-7.4s-42,7.4-84,7.4s-42-7.4-84-7.4
				s-42,7.4-84,7.4s-42-7.4-84-7.4s-42,7.4-84,7.4s-42-7.4-84-7.4s-42,7.4-84,7.4s-42-7.4-84-7.4"/>
		</g>
		<g>
			<path class="st0" d="M712.1,478.6c-42,0-42-7.4-84-7.4s-42,7.4-84,7.4s-42-7.4-84-7.4s-42,7.4-84,7.4s-42-7.4-84-7.4
				s-42,7.4-84,7.4s-42-7.4-84-7.4s-42,7.4-84,7.4s-42-7.4-84-7.4s-42,7.4-84,7.4s-42-7.4-84-7.4"/>
		</g>
		<g>
			<path class="st0" d="M712.1,493.7c-42,0-42-7.4-84-7.4s-42,7.4-84,7.4s-42-7.4-84-7.4s-42,7.4-84,7.4s-42-7.4-84-7.4
				s-42,7.4-84,7.4s-42-7.4-84-7.4s-42,7.4-84,7.4s-42-7.4-84-7.4s-42,7.4-84,7.4s-42-7.4-84-7.4"/>
		</g>
		<g>
			<path class="st0" d="M712.1,508.8c-42,0-42-7.4-84-7.4s-42,7.4-84,7.4s-42-7.4-84-7.4s-42,7.4-84,7.4s-42-7.4-84-7.4
				s-42,7.4-84,7.4s-42-7.4-84-7.4s-42,7.4-84,7.4s-42-7.4-84-7.4s-42,7.4-84,7.4s-42-7.4-84-7.4"/>
		</g>
	</g>
</g>
<rect x="37.3" y="64.6" class="st1" width="47.9" height="22.6"/>
<g class="st2">
	<path class="st3" d="M61.3,64.5c5.5,0,9.4,4.2,9.4,9.4c0,5.2-4,9.4-9.4,9.4c-5.4,0-9.4-4.2-9.4-9.4C51.9,68.7,55.8,64.5,61.3,64.5z
		 M64.5,76.5h-1.9v-7.1h-1.6l-2.5,1.1l0.2,1.6l2.1-0.9v5.3h-2.4v1.7h6.4L64.5,76.5z"/>
</g>
<rect x="37.3" y="197.6" class="st1" width="47.9" height="22.6"/>
<g class="st2">
	<path class="st3" d="M61.3,197.6c5.5,0,9.4,4.2,9.4,9.4c0,5.2-4,9.4-9.4,9.4c-5.4,0-9.4-4.2-9.4-9.4
		C51.9,201.7,55.8,197.6,61.3,197.6z M64.4,209.6h-4l2.3-1.7c1.2-0.9,1.9-1.8,1.9-3c0-1.5-1.4-2.6-3.2-2.6c-1.3,0-2.3,0.4-3.1,1
		l0.2,1.6c0.8-0.5,1.7-0.9,2.5-0.9c0.8,0,1.5,0.5,1.5,1.2c0,0.6-0.4,1.1-1.2,1.8l-3.3,2.8v1.5h6.6L64.4,209.6z"/>
</g>
<rect x="37.3" y="330.6" class="st1" width="47.9" height="22.6"/>
<g class="st2">
	<path class="st3" d="M61.3,330.6c5.5,0,9.4,4.2,9.4,9.4c0,5.2-4,9.4-9.4,9.4c-5.4,0-9.4-4.2-9.4-9.4
		C51.9,334.7,55.8,330.6,61.3,330.6z M62.8,339.6L62.8,339.6c1.1-0.4,1.8-1,1.8-2c0-1.4-1.2-2.3-3.3-2.3c-1.1,0-2.2,0.4-2.9,0.8
		l0.2,1.5c0.7-0.5,1.6-0.8,2.5-0.8c1,0,1.6,0.4,1.6,1c0,0.6-0.7,1.1-2.1,1.1h-1l0.2,1.4h0.7c1.6,0,2.4,0.4,2.4,1.2
		c0,0.7-0.7,1.2-1.8,1.2c-0.9,0-1.8-0.2-2.5-0.7l-0.3,1.5c0.8,0.4,1.9,0.7,3,0.7c2.1,0,3.6-0.9,3.6-2.6
		C64.7,340.6,64,339.9,62.8,339.6z"/>
</g>
<rect x="37.3" y="463.6" class="st1" width="47.9" height="22.6"/>
<g class="st2">
	<path class="st3" d="M61.3,463.6c5.5,0,9.4,4.2,9.4,9.4s-4,9.4-9.4,9.4c-5.4,0-9.4-4.2-9.4-9.4S55.8,463.6,61.3,463.6z M64.8,474
		h-1.4v-5.5h-2.2l-4,5.5v1.3h4.5v1.8h1.8v-1.8h1.4V474z M60.1,474l-1.3,0.1l1-1.4l0.9-1.2l1.1-1.6l-0.1,1.8v2.3H60.1z"/>
</g>
<g>
	<g id="nadadora-cuatro">
		<path class="st4" d="M283.5,446.3c0,0,4.2-2.3,13.2-2.5s-5.1-11.8-5.1-11.8l-8,0.3v14H283.5z"/>
		<g>
			<path class="st5" d="M301.4,433.6c9.8-2.6,12.6,6,12.7,6c0.9-1.1,1.6-2.2,2-3.3c2.1-6-2.5-13-8.8-15.2s-14.4,1.6-16.4,7.6
				c-0.4,1.2-0.4,2.3-0.2,3.5C291.5,433.4,294,435.5,301.4,433.6z"/>
			<path class="st4" d="M314,439.6c0-0.1-2.9-8.7-12.7-6c-7.4,2-9.9-0.1-10.7-1.3c0.4,2.3,1.7,4.6,2.8,7.2c1.4,3.1,1.5,7.6,4.1,9.9
				c1.9,1.7,5.9-2.4,10.2-1.5c1.5,0.3-0.1-2.3,1.2-3.4C310.8,443,312.6,441.3,314,439.6z"/>
		</g>
		<g>
			<path class="st4" d="M359,437.1c-9.9-7.3-20-2.8-20-2.8c-8.7,0.4-15.9,0.7-21.9,0.8c-0.1,0.5-0.2,1-0.4,1.5
				c-0.4,1.1-1.1,2.2-2.1,3.5c-1,1.2-2.2,2.3-3.4,3.5c14-1.4,26.8-4.8,26.8-4.8l10,3.1c0.8,0.3,1.8-0.8,1.2-1.4
				c-0.5-0.4-2.4-1.1-1-2.3C350.1,436.5,361.4,438.9,359,437.1z"/>
		</g>
		<path class="st5" d="M218.6,439.1c-0.8-3.8,1.3-9.4,9.4-12.4c8.2-3,26.8,8.5,35.2,5.4c8.3-3.1,22.3-6.7,24.4-1.1
			c2.1,5.7,5.8,17.2-6.4,21.7c-20.2,7.5-25.3-10-39.5-4.8C227.6,453.2,219.9,445.2,218.6,439.1z"/>
		<path class="st4" d="M168.2,437.4c0,4.8,3.6,2.9,11.8,2.5s13,6.5,17.5,4.1c3.4-1.8,16.5-12.6,28-12.7c9.7-0.1,15.3,15.4-0.4,20.4
			c0,0-18,2.4-27.4,2.9s-27.3-4-34.8-9.6c-2.2-1.7-7.7-1.1-11.3-2.4c-5.3-2-8.2-0.4-10.6-4.9c-2.6-5,10.7,0.4,15.4-2.1
			C161.1,433.1,168.2,431.8,168.2,437.4z"/>
		<path class="st4" d="M171.6,450.2c-2.4,1.7-4.2,2.8-4.6,1.2c-1.5-5.6-8.6-4.1-11.5,0.4s-17.2,6.1-12.5,9.2
			c4.3,2.8,6.2-2.3,11.7-0.8c3.4,0.9,9.8-1.2,12.6-1.3c8.6-0.3,14-2.2,22.4-4.1C183.9,454.1,177.3,452.4,171.6,450.2z"/>
		<path class="st4" d="M244.6,436.4c0,0-12.6-2.4-14.2-14.5c-0.4-3,5.7,6.8,8.3,7c1.8,0.2,1-1.7,0.9-2.3c0-0.9,1.4-0.9,1.8-0.1
			l5.3,2.5c0,0,22-25.1,37.1,4c5.6,10.8-4,14.9-7.2,10.5c-4.7-6.4-6-8.9-7.6-14.9C267.2,421.1,251.7,435.7,244.6,436.4z"/>
		<g>
			<g>
				<line class="st6" x1="262.7" y1="464.1" x2="340.9" y2="464.1"/>
				<g>
					<polygon class="st3" points="336,470.2 335,469.1 340.4,464.1 335,459.2 336,458.1 342.5,464.1 					"/>
				</g>
			</g>
		</g>
	</g>
	<g id="nadadora-tres">
		<g>
			<g>
				<path class="st4" d="M295.3,319.7c0,0,1.9-4.3,8.9-10s-11.3-6.3-11.3-6.3l-2.3,8.9L295.3,319.7z"/>
				<g>
					<path class="st5" d="M301.8,298.7c6.2-8.1,13.7-3,13.7-2.9c0.1-1.4,0-2.7-0.4-3.8c-2-6-9.9-8.8-16.2-6.7
						c-6.3,2.1-10.4,10-8.4,16c0.4,1.2,1.1,2.1,2,2.9C293.9,304.6,297.2,304.7,301.8,298.7z"/>
					<path class="st4" d="M315.5,295.7c-0.1,0-7.6-5.1-13.7,2.9c-4.6,6.1-7.9,5.9-9.3,5.5c1.7,1.5,4.1,2.6,6.7,4
						c3,1.6,5.8,5.1,9.3,5.4c2.5,0.2,3.2-5.5,7.2-7.4c1.4-0.6-1.5-1.8-1.1-3.4C315,300.4,315.4,297.9,315.5,295.7z"/>
				</g>
				<path class="st4" d="M367.7,306.2c-8.7-8.7-19.1-8.1-19.1-8.1c-7.9,0.4-20.9,1.5-32.8,1c-0.2,1.3-0.4,2.5-0.7,3.7
					c-0.1,0.4,0.4,0.9,0.8,1.4s0.9,1,0.8,1.6c-0.1,0.4-0.3,0.6-0.8,0.9c-1.3,0.6-2.1,1.6-2.9,2.7c17.7,0.1,33.6-4.7,33.6-4.7
					l9.5,4.5c0.8,0.4,1.9-0.5,1.4-1.2c-0.4-0.5-2.2-1.4-0.7-2.4C359,304.3,369.8,308.3,367.7,306.2z"/>
				<path class="st5" d="M227.4,329c-1.7-3.5-0.9-9.4,6.4-14.2c7.3-4.8,28,2.1,35.5-2.8c7.4-4.9,20.2-11.7,23.5-6.6
					c3.3,5,9.6,15.4-1.2,22.6c-17.9,11.9-26.9-3.9-39.5,4.4C239.4,340.6,230.1,334.6,227.4,329z"/>
				<path class="st4" d="M305.1,371.3c0,0,3.5,10.5-4.6,19.7c-2,2.2,1.5-8.8,0-10.9c-1.1-1.5-1.9,0.4-2.4,0.8
					c-0.7,0.6-1.6-0.5-1.3-1.3l4-9.7c0,0-18.4-22.6-17.3-46c0.6-12.1,12.9-9.7,11.8-4.3C292.3,335.4,297.6,340.9,305.1,371.3z"/>
				<path class="st4" d="M158.8,317.1c-0.1,4.8,16.7,6.4,24.6,8.3c8.6,2.1,13.3,10.3,17.9,7.8c3.4-1.8,21.1-17.1,32.7-17.2
					c9.7-0.1,15.3,15.4-0.4,20.4c0,0-25.5,9.1-35,9.6s-32.8-18.8-41.9-20.9c-2.7-0.6-8.9-0.3-12.2-1.5c-5.3-2-7.7,2.9-11.7-0.2
					c-4.4-3.5,10-3.9,13.3-8C149.5,311.1,159,306.8,158.8,317.1z"/>
				<path class="st4" d="M145.9,314.6c2.2-2.6,7-5.5,10.4-4.3c1.6,0.6,3.4,2.2,3.3,6.8c-0.1,3.1,10.4,5,17.4,6.3
					c2.5,0.4,4.9,0.9,6.8,1.3c1.8,0.4,3.5,1.1,5,1.9c-1.6-2-3.2-4-4.2-5.3c-5.1-6.4-23.3-3.8-22-8.4c3-9.9-7.4-8.4-11.7-5.2
					c-4.3,3.1-18.3-0.5-15,4.1C138.5,315.6,141.8,312.5,145.9,314.6z"/>
			</g>
			<g>
				<g>
					<path class="st6" d="M278.2,355.4c-26.1-3.1-44.8-26.4-42.6-52.3"/>
					<g>
						<polygon class="st3" points="241.5,308.3 240.3,309.2 235.7,303.6 230.4,308.6 229.4,307.5 235.8,301.4 						"/>
					</g>
				</g>
			</g>
			<g>
				<g>
					<path class="st6" d="M345.2,310c-3.1,26.1-26.4,44.8-52.3,42.6"/>
					<g>
						<polygon class="st3" points="298.1,346.8 299,348 293.4,352.6 298.4,357.9 297.3,358.9 291.2,352.5 						"/>
					</g>
				</g>
			</g>
		</g>
	</g>
	<g id="nadadora-dos">
		<g>
			<g>
				<path class="st6" d="M273.8,126.8c19.9-17.1,49.7-15.2,67.4,4"/>
				<g>
					<polygon class="st3" points="333.4,131.5 333.5,130 340.7,130.4 340.6,123.1 342.1,123.1 342.2,132 					"/>
				</g>
			</g>
		</g>
		<g>
			<g>
				<path class="st6" d="M311.6,203.5c-19.9,17.1-49.7,15.2-67.4-4"/>
				<g>
					<polygon class="st3" points="252.1,198.8 252,200.3 244.7,199.9 244.9,207.2 243.4,207.2 243.2,198.3 					"/>
				</g>
			</g>
		</g>
		<path class="st4" d="M293.9,177.5c0,0,0.8-5.7,9.4-8.3s-8.1-10.1-8.1-10.1l-5.5,7.4L293.9,177.5z"/>
		<g>
			<path class="st5" d="M305.3,158c8.8-5.1,13.8,2.4,13.8,2.5c0.6-1.3,1-2.6,1.1-3.7c0.4-6.4-5.8-11.9-12.5-12.4
				c-6.7-0.4-13.4,5.3-13.8,11.6c-0.1,1.2,0.2,2.3,0.7,3.4C295.7,160.5,298.7,161.9,305.3,158z"/>
			<path class="st4" d="M319.1,160.5c0-0.1-5-7.6-13.8-2.5c-6.6,3.8-9.6,2.5-10.7,1.5c1,2.1,2.8,4,4.6,6.2c2.1,2.7,3.4,6.9,6.5,8.5
				c2.3,1.2,5-3.9,9.5-4.1c1.5-0.1-0.7-2.2,0.2-3.6C316.8,164.6,318.2,162.5,319.1,160.5z"/>
		</g>
		<path class="st5" d="M227.6,172c-1-3.8,0.8-9.4,8.8-12.8c8-3.4,27.2,7.2,35.4,3.7s22-7.8,24.3-2.3c2.4,5.6,6.6,16.9-5.3,22
			c-19.8,8.4-25.7-8.8-39.7-2.8C237.3,185.7,229.2,178,227.6,172z"/>
		<path class="st4" d="M252.9,160c14.9-14.8,11.9-10.4,18.8,2.1c2.4-1,7.2-2.9,12-4c-17.1-23-18.3-24.9-39.1,0
			C247.2,158.6,250,159.3,252.9,160z"/>
		<path class="st4" d="M338.7,191c0,0,9.6,4.1,13.5,15.7c1,2.8-7-5.6-9.5-5.3c-1.8,0.2-0.6,1.8-0.5,2.5c0.2,0.9-1.2,1.2-1.8,0.5
			l-6.5-8.3c0,0-28.1-6.1-46-18.3c-10-6.9-0.8-15.2,3.7-11.1C302.6,176.3,328,186.3,338.7,191z"/>
		<path class="st4" d="M165.1,189.2c3.1,3.8,11.9-8,20.1-8.7c8.2-0.7,14.3,0.6,18.7-1.9c3.3-1.9,18.1-15.2,29.6-15.7
			c9.7-0.4,15.7,14.9,0.2,20.4c0,0-19.8,6.8-29.2,7.7c-9.4,0.8-27.5,1.5-35.8,5.7c-2.5,1.3-7,5.5-10.3,6.7c-5.3,1.9-4,7.2-9.1,7.4
			c-5.6,0.2,5.1-9.4,5-14.7C154.1,190.6,158.6,181.1,165.1,189.2z"/>
		<path class="st4" d="M157.8,161.7c2.2,2.8,7.7,5.6,9.7,7.6c4.6,4.5,9.8,7.4,13.8,11.6c1.3-0.5,2.5-0.9,3.8-1
			c2.8-0.2,5.4-0.2,7.7-0.2c1.7,0,3.3,0,4.7-0.1c-1.6-1.2-3.1-3-4.6-6.5c-3.3-7.5-22.2-5.4-19.6-9.5c5.5-8.8-5-10-9.9-8.1
			c-5,1.9-17.5-5.2-15.5,0.1C149.7,160.2,154.3,157.2,157.8,161.7z"/>
	</g>
	<g id="nadadora-uno_00000125569699898736461680000016913725007934623117_">
		<g>
			<g>
				<path class="st6" d="M324.4,63.7c-3.9,26-27.7,44.1-53.6,41.1"/>
				<g>
					<polygon class="st3" points="276.2,99.1 277.1,100.3 271.4,104.8 276.3,110.2 275.2,111.2 269.2,104.6 					"/>
				</g>
			</g>
		</g>
		<g>
			<path class="st4" d="M286.3,42.3c6.1,2.6,12.4,3.6,23,3.7c-1.4-1.6-3.6-2.8-7-3.3c-3.4-0.4-5.6-1.2-7-2.1
				c-0.8-1.8-1.6-3.1-1.6-3.1l-0.8,0.2c0-0.1-0.1-0.2-0.1-0.2c0,0.1,0,0.2,0,0.3l-7.9,2.3l-0.4,1.6C285,41.9,285.6,42,286.3,42.3z"
				/>
			<path class="st4" d="M300.7,56.4c-2.8,0-5.4-0.1-8-0.5c0,0.1,0.1,0.2,0.1,0.2c1.1,2.3,6.4-0.1,10,2.4c1.1,0.7,0.9-1.2,1.7-2.3
				C303.3,56.4,302,56.4,300.7,56.4z"/>
		</g>
		<path class="st5" d="M302.2,42.8c3.4,0.4,5.6,1.7,7,3.3c2.4,0,4.9,0,7.8,0c0.7-4.4-1.1-9.5-4.8-12.6c-5.1-4.3-13.9-3.8-18.1,1
			c-0.8,0.9-1.2,2-1.5,3.2C293.1,39,294.7,42,302.2,42.8z"/>
		<path class="st5" d="M218.6,50.7c-0.8-3.8,1.3-9.4,9.4-12.4c8.2-3,26.8,8.5,35.2,5.4c8.3-3.1,22.3-6.7,24.4-1.1
			c2.1,5.7,5.8,17.2-6.4,21.7c-20.2,7.5-25.3-10-39.5-4.8S219.9,56.8,218.6,50.7z"/>
		<path class="st4" d="M245.6,40.3c2.1,0.7,4.3,1.3,6.4,1.9c6-1.4,9.4-0.9,12.1,0.4c4.6-1.6,15.1-4.9,20.8-3.1l0.7-0.2
			c-0.9-0.6-2-1.1-3.3-1.6c-25.3-9.9-36.7-2.7-40.7,1.4C243,39.5,244.3,39.9,245.6,40.3z"/>
		<path class="st4" d="M339,45.9c0,0,10.2-4.5,20,2.8c2.4,1.8-8.9-0.6-10.8,1.1c-1.4,1.2,0.6,1.9,1,2.3c0.6,0.6-0.3,1.7-1.2,1.4
			l-10-3.1c0,0-32.3,8.6-50.5,3.9c-10.6-2.7-8.9-14.5-1.5-11.3C296.6,47.5,307.7,47.3,339,45.9z"/>
		<path class="st4" d="M168.2,49.1c0,4.8,3.6,2.9,11.8,2.5s13,6.5,17.5,4.1c3.4-1.8,16.5-12.6,28-12.7c9.7-0.1,15.3,15.4-0.4,20.4
			c0,0-18,2.4-27.4,2.9c-9.5,0.5-27.3-4-34.8-9.6c-2.2-1.7-7.7-1.1-11.3-2.4c-5.3-2-8.2-0.4-10.6-4.9c-2.6-5,10.7,0.4,15.4-2.1
			C161.1,44.7,168.2,43.5,168.2,49.1z"/>
		<path class="st4" d="M171.7,61.9c-2.4,1.7-4.2,2.8-4.6,1.2c-1.5-5.6-8.6-4.1-11.5,0.4s-17.2,6.1-12.5,9.2
			c4.3,2.8,6.2-2.3,11.7-0.8c3.4,0.9,9.8-1.2,12.6-1.3c8.6-0.3,14-2.2,22.4-4.1C183.9,65.7,177.3,64,171.7,61.9z"/>
	</g>
</g>
</svg>
