<?xml version="1.0" encoding="utf-8"?>
<!-- Generator: Adobe Illustrator 27.3.1, SVG Export Plug-In . SVG Version: 6.00 Build 0)  -->
<svg version="1.1" id="Capa_1" xmlns="http://www.w3.org/2000/svg" xmlns:xlink="http://www.w3.org/1999/xlink" x="0px" y="0px"
	 viewBox="0 0 500 560" style="enable-background:new 0 0 500 560;" xml:space="preserve">
<style type="text/css">
	.st0{fill:none;stroke:#ECECEC;stroke-width:7.3943;stroke-miterlimit:10;}
	.st1{fill:none;}
	.st2{enable-background:new    ;}
	.st3{fill:#CD1719;}
	.st4{fill:#F2C5C1;}
	.st5{fill:#5D5C5B;}
	.st6{fill:none;stroke:#CD1719;stroke-width:1.8486;stroke-miterlimit:10;}
</style>
<g id="agua">
	<g>
		<g>
			<path class="st0" d="M712.1,90.3c-42,0-42-7.4-84-7.4s-42,7.4-84,7.4s-42-7.4-84-7.4s-42,7.4-84,7.4s-42-7.4-84-7.4
				s-42,7.4-84,7.4s-42-7.4-84-7.4s-42,7.4-84,7.4s-42-7.4-84-7.4s-42,7.4-84,7.4s-42-7.4-84-7.4"/>
		</g>
		<g>
			<path class="st0" d="M712.1,105.4c-42,0-42-7.4-84-7.4s-42,7.4-84,7.4s-42-7.4-84-7.4s-42,7.4-84,7.4s-42-7.4-84-7.4
				s-42,7.4-84,7.4s-42-7.4-84-7.4s-42,7.4-84,7.4s-42-7.4-84-7.4s-42,7.4-84,7.4s-42-7.4-84-7.4"/>
		</g>
		<g>
			<path class="st0" d="M712.1,120.6c-42,0-42-7.4-84-7.4s-42,7.4-84,7.4s-42-7.4-84-7.4s-42,7.4-84,7.4s-42-7.4-84-7.4
				s-42,7.4-84,7.4s-42-7.4-84-7.4s-42,7.4-84,7.4s-42-7.4-84-7.4s-42,7.4-84,7.4s-42-7.4-84-7.4"/>
		</g>
		<g>
			<path class="st0" d="M712.1,135.7c-42,0-42-7.4-84-7.4s-42,7.4-84,7.4s-42-7.4-84-7.4s-42,7.4-84,7.4s-42-7.4-84-7.4
				s-42,7.4-84,7.4s-42-7.4-84-7.4s-42,7.4-84,7.4s-42-7.4-84-7.4s-42,7.4-84,7.4s-42-7.4-84-7.4"/>
		</g>
		<g>
			<path class="st0" d="M712.1,150.8c-42,0-42-7.4-84-7.4s-42,7.4-84,7.4s-42-7.4-84-7.4s-42,7.4-84,7.4s-42-7.4-84-7.4
				s-42,7.4-84,7.4s-42-7.4-84-7.4s-42,7.4-84,7.4s-42-7.4-84-7.4s-42,7.4-84,7.4s-42-7.4-84-7.4"/>
		</g>
	</g>
</g>
<g id="agua_00000021100680276302078550000012812856652892117934_">
	<g>
		<g>
			<path class="st0" d="M712.1,223.3c-42,0-42-7.4-84-7.4s-42,7.4-84,7.4s-42-7.4-84-7.4s-42,7.4-84,7.4s-42-7.4-84-7.4
				s-42,7.4-84,7.4s-42-7.4-84-7.4s-42,7.4-84,7.4s-42-7.4-84-7.4s-42,7.4-84,7.4s-42-7.4-84-7.4"/>
		</g>
		<g>
			<path class="st0" d="M712.1,238.4c-42,0-42-7.4-84-7.4s-42,7.4-84,7.4s-42-7.4-84-7.4s-42,7.4-84,7.4s-42-7.4-84-7.4
				s-42,7.4-84,7.4s-42-7.4-84-7.4s-42,7.4-84,7.4s-42-7.4-84-7.4s-42,7.4-84,7.4s-42-7.4-84-7.4"/>
		</g>
		<g>
			<path class="st0" d="M712.1,253.6c-42,0-42-7.4-84-7.4s-42,7.4-84,7.4s-42-7.4-84-7.4s-42,7.4-84,7.4s-42-7.4-84-7.4
				s-42,7.4-84,7.4s-42-7.4-84-7.4s-42,7.4-84,7.4s-42-7.4-84-7.4s-42,7.4-84,7.4s-42-7.4-84-7.4"/>
		</g>
		<g>
			<path class="st0" d="M712.1,268.7c-42,0-42-7.4-84-7.4s-42,7.4-84,7.4s-42-7.4-84-7.4s-42,7.4-84,7.4s-42-7.4-84-7.4
				s-42,7.4-84,7.4s-42-7.4-84-7.4s-42,7.4-84,7.4s-42-7.4-84-7.4s-42,7.4-84,7.4s-42-7.4-84-7.4"/>
		</g>
		<g>
			<path class="st0" d="M712.1,283.8c-42,0-42-7.4-84-7.4s-42,7.4-84,7.4s-42-7.4-84-7.4s-42,7.4-84,7.4s-42-7.4-84-7.4
				s-42,7.4-84,7.4s-42-7.4-84-7.4s-42,7.4-84,7.4s-42-7.4-84-7.4s-42,7.4-84,7.4s-42-7.4-84-7.4"/>
		</g>
	</g>
</g>
<g id="agua_00000170962564589192699840000003779727756496242070_">
	<g>
		<g>
			<path class="st0" d="M712.1,356.3c-42,0-42-7.4-84-7.4s-42,7.4-84,7.4s-42-7.4-84-7.4s-42,7.4-84,7.4s-42-7.4-84-7.4
				s-42,7.4-84,7.4s-42-7.4-84-7.4s-42,7.4-84,7.4s-42-7.4-84-7.4s-42,7.4-84,7.4s-42-7.4-84-7.4"/>
		</g>
		<g>
			<path class="st0" d="M712.1,371.4c-42,0-42-7.4-84-7.4s-42,7.4-84,7.4s-42-7.4-84-7.4s-42,7.4-84,7.4s-42-7.4-84-7.4
				s-42,7.4-84,7.4s-42-7.4-84-7.4s-42,7.4-84,7.4s-42-7.4-84-7.4s-42,7.4-84,7.4s-42-7.4-84-7.4"/>
		</g>
		<g>
			<path class="st0" d="M712.1,386.6c-42,0-42-7.4-84-7.4s-42,7.4-84,7.4s-42-7.4-84-7.4s-42,7.4-84,7.4s-42-7.4-84-7.4
				s-42,7.4-84,7.4s-42-7.4-84-7.4s-42,7.4-84,7.4s-42-7.4-84-7.4s-42,7.4-84,7.4s-42-7.4-84-7.4"/>
		</g>
		<g>
			<path class="st0" d="M712.1,401.7c-42,0-42-7.4-84-7.4s-42,7.4-84,7.4s-42-7.4-84-7.4s-42,7.4-84,7.4s-42-7.4-84-7.4
				s-42,7.4-84,7.4s-42-7.4-84-7.4s-42,7.4-84,7.4s-42-7.4-84-7.4s-42,7.4-84,7.4s-42-7.4-84-7.4"/>
		</g>
		<g>
			<path class="st0" d="M712.1,416.9c-42,0-42-7.4-84-7.4s-42,7.4-84,7.4s-42-7.4-84-7.4s-42,7.4-84,7.4s-42-7.4-84-7.4
				s-42,7.4-84,7.4s-42-7.4-84-7.4s-42,7.4-84,7.4s-42-7.4-84-7.4s-42,7.4-84,7.4s-42-7.4-84-7.4"/>
		</g>
	</g>
</g>
<g id="agua_00000162321352446162168990000012949264204339966876_">
	<g>
		<g>
			<path class="st0" d="M712.1,489.3c-42,0-42-7.4-84-7.4s-42,7.4-84,7.4s-42-7.4-84-7.4s-42,7.4-84,7.4s-42-7.4-84-7.4
				s-42,7.4-84,7.4s-42-7.4-84-7.4s-42,7.4-84,7.4s-42-7.4-84-7.4s-42,7.4-84,7.4s-42-7.4-84-7.4"/>
		</g>
		<g>
			<path class="st0" d="M712.1,504.4c-42,0-42-7.4-84-7.4s-42,7.4-84,7.4s-42-7.4-84-7.4s-42,7.4-84,7.4s-42-7.4-84-7.4
				s-42,7.4-84,7.4s-42-7.4-84-7.4s-42,7.4-84,7.4s-42-7.4-84-7.4s-42,7.4-84,7.4s-42-7.4-84-7.4"/>
		</g>
		<g>
			<path class="st0" d="M712.1,519.6c-42,0-42-7.4-84-7.4s-42,7.4-84,7.4s-42-7.4-84-7.4s-42,7.4-84,7.4s-42-7.4-84-7.4
				s-42,7.4-84,7.4s-42-7.4-84-7.4s-42,7.4-84,7.4s-42-7.4-84-7.4s-42,7.4-84,7.4s-42-7.4-84-7.4"/>
		</g>
		<g>
			<path class="st0" d="M712.1,534.7c-42,0-42-7.4-84-7.4s-42,7.4-84,7.4s-42-7.4-84-7.4s-42,7.4-84,7.4s-42-7.4-84-7.4
				s-42,7.4-84,7.4s-42-7.4-84-7.4s-42,7.4-84,7.4s-42-7.4-84-7.4s-42,7.4-84,7.4s-42-7.4-84-7.4"/>
		</g>
		<g>
			<path class="st0" d="M712.1,549.9c-42,0-42-7.4-84-7.4s-42,7.4-84,7.4s-42-7.4-84-7.4s-42,7.4-84,7.4s-42-7.4-84-7.4
				s-42,7.4-84,7.4s-42-7.4-84-7.4s-42,7.4-84,7.4s-42-7.4-84-7.4s-42,7.4-84,7.4s-42-7.4-84-7.4"/>
		</g>
	</g>
</g>
<rect x="37.3" y="105.6" class="st1" width="47.9" height="22.6"/>
<g class="st2">
	<path class="st3" d="M61.3,105.6c5.5,0,9.4,4.2,9.4,9.4c0,5.2-4,9.4-9.4,9.4c-5.4,0-9.4-4.2-9.4-9.4
		C51.9,109.7,55.8,105.6,61.3,105.6z M64.5,117.5h-1.9v-7.1h-1.6l-2.5,1.1l0.2,1.6l2.1-0.9v5.3h-2.4v1.7h6.4L64.5,117.5z"/>
</g>
<rect x="37.3" y="238.6" class="st1" width="47.9" height="22.6"/>
<g class="st2">
	<path class="st3" d="M61.3,238.6c5.5,0,9.4,4.2,9.4,9.4c0,5.2-4,9.4-9.4,9.4c-5.4,0-9.4-4.2-9.4-9.4
		C51.9,242.7,55.8,238.6,61.3,238.6z M64.4,250.6h-4l2.3-1.7c1.2-0.9,1.9-1.8,1.9-3c0-1.5-1.4-2.6-3.2-2.6c-1.3,0-2.3,0.4-3.1,1
		l0.2,1.6c0.8-0.5,1.7-0.9,2.5-0.9c0.8,0,1.5,0.5,1.5,1.2c0,0.6-0.4,1.1-1.2,1.8l-3.3,2.8v1.5h6.6L64.4,250.6z"/>
</g>
<rect x="37.3" y="371.6" class="st1" width="47.9" height="22.6"/>
<g class="st2">
	<path class="st3" d="M61.3,371.6c5.5,0,9.4,4.2,9.4,9.4c0,5.2-4,9.4-9.4,9.4c-5.4,0-9.4-4.2-9.4-9.4
		C51.9,375.7,55.8,371.6,61.3,371.6z M62.8,380.7L62.8,380.7c1.1-0.4,1.8-1,1.8-2c0-1.4-1.2-2.3-3.3-2.3c-1.1,0-2.2,0.4-2.9,0.8
		l0.2,1.5c0.7-0.5,1.6-0.8,2.5-0.8c1,0,1.6,0.4,1.6,1c0,0.6-0.7,1.1-2.1,1.1h-1l0.2,1.4h0.7c1.6,0,2.4,0.4,2.4,1.2
		c0,0.7-0.7,1.2-1.8,1.2c-0.9,0-1.8-0.2-2.5-0.7l-0.3,1.5c0.8,0.4,1.9,0.7,3,0.7c2.1,0,3.6-0.9,3.6-2.6
		C64.7,381.7,64,380.9,62.8,380.7z"/>
</g>
<rect x="37.3" y="504.6" class="st1" width="47.9" height="22.6"/>
<g class="st2">
	<path class="st3" d="M61.3,504.6c5.5,0,9.4,4.2,9.4,9.4c0,5.2-4,9.4-9.4,9.4c-5.4,0-9.4-4.2-9.4-9.4
		C51.9,508.7,55.8,504.6,61.3,504.6z M64.8,515h-1.4v-5.5h-2.2l-4,5.5v1.3h4.5v1.8h1.8v-1.8h1.4V515z M60.1,515l-1.3,0.1l1-1.4
		l0.9-1.2l1.1-1.6l-0.1,1.8v2.3H60.1z"/>
</g>
<g>
	<g id="nadadora-cuatro">
		<path class="st4" d="M288.6,486.5c0,0,5.4,2,11.9-4.3s5,11.9,5,11.9l-17.6,2.5L288.6,486.5z"/>
		<g>
			<path class="st5" d="M311.1,486c8.7-5.2,4.5-13.3,4.5-13.3c1.4,0.1,2.7,0.4,3.7,0.8c5.8,2.7,7.7,10.9,4.8,16.9
				c-2.8,6-11.1,9.2-16.9,6.5c-1.1-0.5-1.9-1.3-2.6-2.3C304.3,493.2,304.6,489.9,311.1,486z"/>
			<path class="st4" d="M315.6,472.6c0,0.1,4.3,8.1-4.5,13.3c-6.5,3.9-6.8,7.2-6.5,8.6c-1.3-1.9-2.1-4.4-3.2-7.1
				c-1.3-3.1-4.4-6.3-4.3-9.9c0.1-2.6,5.9-2.6,8.2-6.3c0.8-1.3,1.6,1.6,3.2,1.5C310.9,472.6,313.4,472.5,315.6,472.6z"/>
		</g>
		<path class="st5" d="M229.4,496.5c-0.6,3.8,1.7,9.3,10,11.9s26.4-9.8,34.9-7.1s22.6,5.7,24.5-0.1c1.8-5.8,5-17.5-7.4-21.4
			c-20.5-6.5-24.8,11.2-39.2,6.7C237.7,482,230.5,490.4,229.4,496.5z"/>
		<g>
			<path class="st4" d="M298.2,483.2c-1-1.7-1.8-3.5-1.8-5.5c0.1-1.7,1.8-2.4,3.5-3.3c0.6-0.3,1.3-0.6,1.9-0.9
				c-1.4,0.6-2.7,1.2-4.1,1.8c0,0-3.5,2.5-5.9,4.1C294.5,480.2,296.6,481.5,298.2,483.2z"/>
			<path class="st4" d="M351.8,454.6c-1.8-0.2-0.6-1.8-0.5-2.5c0.2-0.9-1.2-1.2-1.8-0.5l-6.5,8.3c0,0-17,3.6-36,11.3l0,0
				c0.4,0.4,0.9,0.9,1.3,0.9c2.3-0.2,4.9-0.4,7.2-0.2c1.7,0.1,3,0.4,4,0.9c0.4,0.2,0.8,0.4,1.1,0.6c6.8-2.7,16.5-5,25.7-10.5
				c0,0,10.9-2.1,14.8-13.8C362.2,446.4,354.4,454.9,351.8,454.6z"/>
		</g>
		<path class="st4" d="M164.7,493.6c0.5-4.8,16.1,3.2,24.2,1.7c8.1-1.5,9.7,0.5,14.7,1.8c3.7,1,21.4,10,32.6,7.5
			c9.5-2.1,11.3-18.5-5-19.7c0,0-23.3-3-32.6-1.4s-25.7,0.8-35,1.9c-2.8,0.3-8.9-0.8-12.3,0.1c-5.5,1.3-7.3-3.8-11.6-1.1
			c-4.8,3,9.5,5,12.3,9.6C154.7,498.5,163.6,504,164.7,493.6z"/>
		<path class="st4" d="M207.4,499.4c-1.8-0.7-3.3-1.3-4-1.5c-1.2-0.3-2.2-0.7-3.2-1c-2.9-1-5.3-1.8-11.2-0.8
			c-1.7,0.3-3.6,0.2-5.7-0.1c-6.4,1.4-12.9,2.8-16.4,3.9c-2.6,0.8-8.9,0.9-12.1,2.4c-5.2,2.4-7.9-2.3-11.6,1.1
			c-4.1,3.8,10.2,3.1,13.9,7c3.6,3.9,13.5,7.6,12.5-2.8c-0.4-4.8,16.4,0.1,24-2.9c3.3-1.3,11.6-3.1,17.1-4
			C209.5,500.2,208.4,499.8,207.4,499.4z"/>
		<path class="st4" d="M246.4,526c0,0-11.1-0.1-17.2,10.6c-1.5,2.6,7.9-4.1,10.4-3.4c1.7,0.6,0.2,1.9,0,2.5c-0.4,0.8,1,1.4,1.6,0.8
			l8-6.9c0,0,10.6,3.3,40.3-19.9c9.9-7.8,14.8-12.9,9.2-17C289.3,485.9,282.3,513.5,246.4,526z"/>
		<g>
			<g>
				<path class="st6" d="M255.6,516.5c-10.1-24.3,1-52.1,24.8-62.9"/>
				<g>
					<polygon class="st3" points="278.7,461.3 277.3,460.7 280,453.9 273,451.8 273.4,450.4 281.9,453 					"/>
				</g>
			</g>
		</g>
		<g>
			<g>
				<path class="st6" d="M345.5,473.4c10.1,24.3-1,52.1-24.8,62.9"/>
				<g>
					<polygon class="st3" points="322.4,528.6 323.8,529.2 321.2,536 328.2,538.1 327.7,539.5 319.2,536.9 					"/>
				</g>
			</g>
		</g>
	</g>
	<g id="nadadora-tres">
		<path class="st4" d="M305.2,361.4c0,0,5.4,2,11.9-4.3s5,11.9,5,11.9l-17.6,2.5L305.2,361.4z"/>
		<g>
			<path class="st5" d="M327.7,360.8c8.7-5.2,4.5-13.3,4.5-13.3c1.4,0.1,2.7,0.4,3.7,0.8c5.8,2.7,7.7,10.9,4.8,16.9
				c-2.8,6-11.1,9.2-16.9,6.5c-1.1-0.5-1.9-1.3-2.6-2.3C320.9,368,321.1,364.7,327.7,360.8z"/>
			<path class="st4" d="M332.2,347.5c0,0.1,4.3,8.1-4.5,13.3c-6.5,3.9-6.8,7.2-6.5,8.6c-1.3-1.9-2.1-4.4-3.2-7.1
				c-1.3-3.1-4.4-6.3-4.3-9.9c0.1-2.6,5.9-2.6,8.2-6.3c0.8-1.3,1.6,1.6,3.2,1.5C327.5,347.5,330,347.3,332.2,347.5z"/>
		</g>
		<path class="st5" d="M237.8,367.5c-0.6,3.8,1.7,9.3,10,11.9s26.4-9.8,34.9-7.1c8.5,2.7,22.6,5.7,24.5-0.1c1.8-5.8,5-17.5-7.4-21.4
			c-20.5-6.5-24.8,11.2-39.2,6.7C246.1,353,238.9,361.4,237.8,367.5z"/>
		<path class="st4" d="M309.5,360.7c1.8-0.4,3.6-1.3,5.3-2.6c-1-1.8-1.9-3.6-1.9-5.7c0.1-1.7,1.8-2.4,3.5-3.3
			c0.2-0.1,0.5-0.2,0.7-0.3c0.4-2.1,1.6-5.4,4.9-11.3c3.6-6.6,12.7-14.5,18.8-26.1c0,0,8.2-7.6,5.4-19.5c-0.7-2.9-2.9,8.4-5.3,9.5
			c-1.6,0.8-1.5-1.2-1.7-1.8c-0.3-0.8-1.7-0.4-1.8,0.5l-1.1,10.5c0,0-16.9,16.2-30.5,36.9c0,0-1.3,2.5-2.2,4.4
			C307.1,353.9,309,356.8,309.5,360.7z"/>
		<path class="st4" d="M173.1,364.6c0.5-4.8,16.1,3.2,24.2,1.7c8.1-1.5,9.7,0.5,14.7,1.8c3.7,1,21.4,10,32.6,7.5
			c9.5-2.1,11.3-18.5-5-19.7c0,0-23.3-3-32.6-1.4s-25.7,0.8-35,1.9c-2.8,0.3-8.9-0.8-12.3,0.1c-5.5,1.3-7.3-3.8-11.6-1.1
			c-4.8,3,9.5,5,12.3,9.6C163.1,369.5,172,375,173.1,364.6z"/>
		<path class="st4" d="M215.8,370.4c-1.8-0.7-3.3-1.3-4-1.5c-1.2-0.3-2.2-0.7-3.2-1c-2.9-1-5.3-1.8-11.2-0.8
			c-1.7,0.3-3.6,0.2-5.7-0.1c-6.4,1.4-12.9,2.8-16.4,3.9c-2.6,0.8-8.9,0.9-12.1,2.4c-5.2,2.4-7.9-2.3-11.6,1.1
			c-4.1,3.8,10.2,3.1,13.9,7c3.6,3.9,13.5,7.6,12.5-2.8c-0.4-4.8,16.4,0.1,24-2.9c3.3-1.3,11.6-3.1,17.1-4
			C217.9,371.2,216.8,370.8,215.8,370.4z"/>
		<path class="st4" d="M265.5,386.4c0,0-11,1.6-18.6-8c-1.8-2.3,8.4,3,10.7,1.8c1.6-0.8,0-1.9-0.4-2.5c-0.5-0.8,0.8-1.5,1.5-1.1
			c0,0,7.5,4.2,8.9,5.7c17.1,1.1,19.5,3,34-16.1c7.3-9.7,19.9-2.7,11.7,6.6C305.6,381.4,288.7,397.7,265.5,386.4z"/>
		<g>
			<g>
				<path class="st6" d="M284.5,320.8c21.1-15.7,50.8-11.6,67,8.8"/>
				<g>
					<polygon class="st3" points="343.7,329.8 343.9,328.3 351.1,329.2 351.5,322 353,322 352.5,330.9 					"/>
				</g>
			</g>
		</g>
	</g>
	<g id="nadadora-dos">
		<g>
			<g>
				<path class="st6" d="M284.9,151.8c25.3-7.4,51.7,6.6,59.9,31.4"/>
				<g>
					<polygon class="st3" points="337.4,180.7 338,179.4 344.5,182.8 347.4,176.1 348.7,176.7 345.2,184.8 					"/>
				</g>
			</g>
		</g>
		<g>
			<g>
				<path class="st6" d="M302.2,261.4c-19.1,18.2-49,17.8-67.6-0.5"/>
				<g>
					<polygon class="st3" points="242.4,259.7 242.4,261.2 235.1,261.2 235.6,268.5 234.1,268.5 233.5,259.7 					"/>
				</g>
			</g>
		</g>
		<path class="st4" d="M302.1,217.1c0,0,5.4,2,11.9-4.3s5,11.9,5,11.9l-9.2,1.3L302.1,217.1z"/>
		<g>
			<path class="st5" d="M324.6,216.6c8.7-5.2,4.5-13.3,4.5-13.3c1.4,0.1,2.7,0.4,3.7,0.8c5.8,2.7,7.7,10.9,4.8,16.9
				c-2.8,6-11.1,9.2-16.9,6.5c-1.1-0.5-1.9-1.3-2.6-2.3C317.8,223.8,318,220.5,324.6,216.6z"/>
			<path class="st4" d="M329.1,203.3c0,0.1,4.3,8.1-4.5,13.3c-6.5,3.9-6.8,7.2-6.5,8.6c-1.3-1.9-2.1-4.4-3.2-7.1
				c-1.3-3.1-4.4-6.3-4.3-9.9c0.1-2.6,5.9-2.6,8.2-6.3c0.8-1.3,1.6,1.6,3.2,1.5C324.4,203.3,326.9,203.1,329.1,203.3z"/>
		</g>
		<path class="st5" d="M240.7,229.1c-0.6,3.8,1.7,9.3,10,11.9c8.3,2.6,26.4-9.8,34.9-7.1s22.6,5.7,24.5-0.1c1.8-5.8,5-17.5-7.4-21.4
			c-20.5-6.5-24.8,11.2-39.2,6.7C249,214.6,241.8,223,240.7,229.1z"/>
		<path class="st4" d="M178.1,238.6c0.3-3.5,15.2,1,24.4-5.5c6.7-4.7,11.6-4,16.6-2.7c3.7,1,21.4,10,32.6,7.5
			c9.5-2.1,11.3-18.5-5-19.7c0,0-23.3-3-32.6-1.4s-31.1,10.6-38.5,16.4c-2.2,1.7-10.7,3.1-13.1,5.6c-4,4.1-8.2,0.6-10.5,5.2
			c-2.5,5,10.7-0.8,15.5,1.6C172.2,248,177.2,247.8,178.1,238.6z"/>
		<g>
			<path class="st4" d="M296.9,210C282,190.4,276,165.4,276,165.4l-9.5-4.5c-0.8-0.4-0.8-1.8,0.1-1.8c0.6,0,2.5,0.8,2.3-1
				c-0.3-2.6-10.2-8.5-7.2-8.1c12.2,1.3,16.6,11.6,16.6,11.6c8.9,9.5,11.8,21.9,16.9,27.6c7.6,8.5,10.2,13,15.7,16.6
				c0,0,0.3,0.2,0.4,0.3c-1.3,1-2.8,3-0.7,6.3l1.3,1.7l-2.5,1.6c-3.3-3.3-8.3-4.9-12.2-5.2C297.1,210.2,296.9,210,296.9,210z"/>
		</g>
		<path class="st4" d="M165.7,226.2c3.5,4,7.7,4.1,9.5-0.4c1-2.5,5.6-1.5,11.4-0.1c9-4.2,19.9-8.2,25.8-9.2c0.8-0.1,1.8-0.3,2.8-0.3
			c-0.1-0.1-0.3-0.1-0.5-0.1c-0.1,0-33-1.9-38.9-0.2c-2.7,0.8-10.1,0.6-13.3,2c-5.2,2.3-6.7-2.4-10.5,1
			C147.8,222.5,162.2,222.1,165.7,226.2z"/>
		<g>
			<path class="st4" d="M318.9,237.1C318.8,237.1,318.8,237,318.9,237.1c0-0.1-0.1,0-0.2,0.1s-0.1,0.2-0.1,0.3v0.1
				c0.1-0.1,0.2-0.3,0.3-0.4C318.8,237.2,318.8,237.1,318.9,237.1z"/>
			<path class="st4" d="M322.4,246.4c0-0.1-0.1-0.1-0.1-0.2l-8.4,2.3l-3.2,4.6c-0.1,0.2-0.4,0.3-0.6,0.3c-0.1,0-0.3,0-0.4-0.1
				c-0.3-0.2-0.4-0.6-0.2-1l5-7.2c0.5-1.5,1.4-3.4,2.8-5.7l-0.3-1.7c-0.1-0.9,0.5-1.6,1.1-1.9c0.5-0.2,0.9-0.1,1.3,0.1
				c5-9.5-5.9-17.7-11.2-7.1c-5.2,10.3-5.4,29.8,2.2,32.5c3.3,1.2,10.5-11.7,12.1-14.7C322.6,246.6,322.5,246.5,322.4,246.4z"/>
		</g>
		<path class="st4" d="M323,246c0,0,7.1-4.9,1.3-15.7c-1.4-2.6-0.9,6-2.8,7.6c-1.4,1.2-1.8-0.8-2.1-1.3c-0.5-0.7-1.7,0.1-1.6,1
			l0.5,3.4l-9.8,14h1.6L323,246z"/>
	</g>
	<g id="nadadora-uno_00000009566343847840895840000001853881731567307696_">
		<g>
			<g>
				<g>
					<path class="st6" d="M328.8,95.5c-3.9,26-27.7,44.1-53.6,41.1"/>
					<g>
						<polygon class="st3" points="280.5,131 281.5,132.1 275.7,136.6 280.6,142 279.5,143 273.5,136.4 						"/>
					</g>
				</g>
			</g>
			<g>
				<g>
					<path class="st6" d="M245.9,60c3.9-26,27.7-44.1,53.6-41.1"/>
					<g>
						<polygon class="st3" points="294.1,24.5 293.2,23.3 299,18.9 294.1,13.4 295.2,12.4 301.2,19.1 						"/>
					</g>
				</g>
			</g>
			<g>
				<path class="st4" d="M225.6,63.6c0,0-10-4.8-20.1,2.2c-2.5,1.7,8.9-0.4,10.8,1.4c1.3,1.2-0.6,1.8-1.1,2.3
					c-0.7,0.6,0.3,1.7,1.1,1.4l10.1-2.8c0,0,38.4,4.9,54.2,21.8c8.3,8.9,11.6-3.7,1.8-11.3C273.3,71.5,263.4,67.7,225.6,63.6z"/>
				<path class="st4" d="M281.8,81.1c0,0,5.4,2,11.9-4.3s5,11.9,5,11.9l-9.2,1.3L281.8,81.1z"/>
				<g>
					<path class="st5" d="M304.3,80.6c8.7-5.2,4.5-13.3,4.5-13.3c1.4,0.1,2.7,0.4,3.7,0.8c5.8,2.7,7.7,10.9,4.8,16.9
						c-2.8,6-11.1,9.2-16.9,6.5c-1.1-0.5-1.9-1.3-2.6-2.3C297.5,87.8,297.8,84.5,304.3,80.6z"/>
					<path class="st4" d="M308.8,67.2c0,0.1,4.3,8.1-4.5,13.3c-6.5,3.9-6.8,7.2-6.5,8.6c-1.3-1.9-2.1-4.4-3.2-7.1
						c-1.3-3.1-4.4-6.3-4.3-9.9c0.1-2.6,5.9-2.6,8.2-6.3c0.8-1.3,1.6,1.6,3.2,1.5C304.1,67.3,306.6,67.1,308.8,67.2z"/>
				</g>
				<path class="st5" d="M220.4,93.1c-0.6,3.8,1.7,9.3,10,11.9s26.4-9.8,34.9-7.1c8.5,2.7,22.6,5.7,24.5-0.1
					c1.8-5.8,5-17.5-7.4-21.4c-20.5-6.5-24.8,11.2-39.2,6.7C228.8,78.6,221.5,87,220.4,93.1z"/>
				<path class="st4" d="M346.3,82.7c0,0,10.6-3.3,19.6,5.1c2.2,2.1-8.7-1.7-10.9-0.2c-1.5,1,0.3,1.9,0.7,2.4
					c0.6,0.7-0.5,1.6-1.3,1.3l-9.6-4.3c0,0-30.6,0.1-50.7,11.8c-10.5,6.1-19.7-4-8.9-10.1C295.2,83.1,308.3,81.1,346.3,82.7z"/>
				<path class="st4" d="M159.9,90.9c0.5-4.8,16.1,3.2,24.2,1.7c8.1-1.5,9.7,0.5,14.7,1.8c3.7,1,21.4,10,32.6,7.5
					c9.5-2.1,11.3-18.5-5-19.7c0,0-23.3-3-32.6-1.4c-9.4,1.6-25.7,0.8-35,1.9c-2.8,0.3-8.9-0.8-12.3,0.1c-5.5,1.3-7.3-3.8-11.6-1.1
					c-4.8,3,9.5,5,12.3,9.6C149.9,95.7,158.8,101.2,159.9,90.9z"/>
				<path class="st4" d="M198.8,95.3c-5-1.3-6.6-3.3-14.7-1.8c-0.1,0-0.3,0-0.4,0.1c-6.4,5.1-13.9,10.5-18.4,14.7
					c-2,1.9-7.6,4.7-9.9,7.3c-3.6,4.4-8.2,1.3-10.1,6c-2.1,5.2,10.6-1.6,15.5,0.4c5,2,15.4,1.1,10.1-7.9c-2.5-4.2,14.8-7,20.5-12.9
					c3.4-3.6,5.7-4.8,7.9-5.6C199.2,95.4,199,95.3,198.8,95.3z"/>
			</g>
		</g>
	</g>
</g>
</svg>
