<?xml version="1.0" encoding="utf-8"?>
<!-- Generator: Adobe Illustrator 27.3.1, SVG Export Plug-In . SVG Version: 6.00 Build 0)  -->
<svg version="1.1" id="Capa_1" xmlns="http://www.w3.org/2000/svg" xmlns:xlink="http://www.w3.org/1999/xlink" x="0px" y="0px"
	 viewBox="0 0 500 1000" style="enable-background:new 0 0 500 1000;" xml:space="preserve">
<style type="text/css">
	.st0{fill:#1E1E1C;}
	.st1{font-family:'Roboto-Light';}
	.st2{font-size:16px;}
	.st3{fill:none;}
	.st4{font-family:'Roboto-Regular';}
	.st5{fill:#DDDBDC;}
	.st6{fill:#F2C5C1;}
	.st7{fill:#DD6F53;}
	.st8{fill:#FFFFFF;}
	.st9{fill:#C62119;}
	.st10{fill:#716C68;}
	.st11{fill:none;stroke:#1D1E1C;stroke-width:0.7016;stroke-miterlimit:10;stroke-dasharray:2.3385,2.3385;}
</style>
<g>
	<g>
		<g>
			<text transform="matrix(0.7071 -0.7071 0.7071 0.7071 131.4251 89.9293)" class="st0 st1 st2">Mariposa</text>
		</g>
		<g>
			<text transform="matrix(0.7071 -0.7071 0.7071 0.7071 188.8921 89.9286)" class="st0 st1 st2">Espalda</text>
		</g>
		<g>
			<text transform="matrix(0.7071 -0.7071 0.7071 0.7071 246.3583 89.9286)" class="st0 st1 st2">Pecho</text>
		</g>
		<g>
			<text transform="matrix(0.7071 -0.7071 0.7071 0.7071 303.8259 89.9286)" class="st0 st1 st2">Libre (crol)</text>
		</g>
		<g>
			<text transform="matrix(0.7071 -0.7071 0.7071 0.7071 361.2942 89.9293)" class="st0 st1 st2">Medley</text>
		</g>
	</g>
</g>
<g>
	<rect x="406.2" y="124.8" class="st3" width="70.2" height="21.4"/>
	<text transform="matrix(1 0 0 1 406.2499 136.8145)" class="st0 st4 st2">50 m</text>
</g>
<g>
	<rect x="406.2" y="154.4" class="st3" width="94.7" height="21.4"/>
	<text transform="matrix(1 0 0 1 406.2489 166.4107)" class="st0 st4 st2">100 m</text>
</g>
<g>
	<rect x="406.2" y="211.3" class="st3" width="80.7" height="21.4"/>
	<text transform="matrix(1 0 0 1 406.2489 223.2725)" class="st0 st4 st2">200 m</text>
</g>
<g>
	<rect x="406.2" y="326.6" class="st3" width="72.3" height="21.4"/>
	<text transform="matrix(1 0 0 1 406.2489 338.5504)" class="st0 st4 st2">400 m</text>
</g>
<g>
	<rect x="406.2" y="557.1" class="st3" width="54.5" height="21.4"/>
	<text transform="matrix(1 0 0 1 406.2499 569.105)" class="st0 st4 st2">800 m</text>
</g>
<g>
	<rect x="406.2" y="961" class="st3" width="58.9" height="27.6"/>
	<text transform="matrix(1 0 0 1 406.2489 972.9957)" class="st0 st4 st2">1.500 m</text>
</g>
<g>
	<rect x="290.2" y="103" class="st5" width="34.5" height="28.8"/>
	<g>
		<polygon class="st6" points="117.8,131.8 117.8,103 152.3,103 152.3,131.8 152.3,160.6 117.8,160.6 		"/>
		<polygon class="st6" points="175.3,131.8 175.3,103 209.8,103 209.8,131.8 209.8,160.6 175.3,160.6 		"/>
		<polygon class="st6" points="232.8,131.8 232.8,103 267.2,103 267.2,131.8 267.2,160.6 232.8,160.6 		"/>
		<rect x="290.2" y="131.8" class="st6" width="34.5" height="28.8"/>
	</g>
	<g>
		<polygon class="st7" points="117.8,189.5 117.8,160.6 152.3,160.6 152.3,189.5 152.3,218.3 117.8,218.3 		"/>
		<polygon class="st7" points="175.3,189.5 175.3,160.6 209.8,160.6 209.8,189.5 209.8,218.3 175.3,218.3 		"/>
		<polygon class="st7" points="232.8,189.5 232.8,160.6 267.2,160.6 267.2,189.5 267.2,218.3 232.8,218.3 		"/>
		<polygon class="st7" points="290.2,189.5 290.2,160.6 324.7,160.6 324.7,189.5 324.7,218.3 290.2,218.3 		"/>
		<polygon class="st7" points="347.7,189.5 347.7,160.6 347.7,131.8 347.7,103 382.2,103 382.2,131.8 382.2,160.6 382.2,189.5 
			382.2,218.3 347.7,218.3 		"/>
	</g>
	<g>
		<rect x="117.8" y="218.3" class="st8" width="34.5" height="28.8"/>
		<rect x="175.3" y="218.3" class="st8" width="34.5" height="28.8"/>
		<rect x="232.8" y="218.3" class="st8" width="34.5" height="28.8"/>
	</g>
	<g>
		<rect x="117.8" y="247.1" class="st8" width="34.5" height="28.8"/>
		<rect x="175.3" y="247.1" class="st8" width="34.5" height="28.8"/>
		<rect x="232.8" y="247.1" class="st8" width="34.5" height="28.8"/>
	</g>
	<g>
		<rect x="117.8" y="275.9" class="st8" width="34.5" height="28.8"/>
		<rect x="175.3" y="275.9" class="st8" width="34.5" height="28.8"/>
		<rect x="232.8" y="275.9" class="st8" width="34.5" height="28.8"/>
	</g>
	<g>
		<rect x="117.8" y="304.7" class="st8" width="34.5" height="28.8"/>
		<rect x="175.3" y="304.7" class="st8" width="34.5" height="28.8"/>
		<rect x="232.8" y="304.7" class="st8" width="34.5" height="28.8"/>
		<polygon class="st9" points="290.2,304.7 290.2,275.9 290.2,247.1 290.2,218.3 324.7,218.3 324.7,247.1 324.7,275.9 324.7,304.7 
			324.7,333.6 290.2,333.6 		"/>
		<polygon class="st9" points="347.7,304.7 347.7,275.9 347.7,247.1 347.7,218.3 382.2,218.3 382.2,247.1 382.2,275.9 382.2,304.7 
			382.2,333.6 347.7,333.6 		"/>
	</g>
	<g>
		<rect x="117.8" y="333.6" class="st8" width="34.5" height="28.8"/>
		<rect x="175.3" y="333.6" class="st8" width="34.5" height="28.8"/>
		<rect x="232.8" y="333.6" class="st8" width="34.5" height="28.8"/>
		<rect x="347.7" y="333.6" class="st3" width="34.5" height="28.8"/>
	</g>
	<g>
		<rect x="117.8" y="362.4" class="st3" width="34.5" height="28.8"/>
		<rect x="175.3" y="362.4" class="st3" width="34.5" height="28.8"/>
		<rect x="232.8" y="362.4" class="st3" width="34.5" height="28.8"/>
		<rect x="347.7" y="362.4" class="st3" width="34.5" height="28.8"/>
	</g>
	<g>
		<rect x="117.8" y="391.2" class="st3" width="34.5" height="28.8"/>
		<rect x="175.3" y="391.2" class="st3" width="34.5" height="28.8"/>
		<rect x="232.8" y="391.2" class="st3" width="34.5" height="28.8"/>
		<rect x="347.7" y="391.2" class="st3" width="34.5" height="28.8"/>
	</g>
	<g>
		<rect x="117.8" y="420" class="st3" width="34.5" height="28.8"/>
		<rect x="175.3" y="420" class="st3" width="34.5" height="28.8"/>
		<rect x="232.8" y="420" class="st3" width="34.5" height="28.8"/>
		<rect x="347.7" y="420" class="st3" width="34.5" height="28.8"/>
	</g>
	<g>
		<rect x="117.8" y="448.8" class="st3" width="34.5" height="28.8"/>
		<rect x="175.3" y="448.8" class="st3" width="34.5" height="28.8"/>
		<rect x="232.8" y="448.8" class="st3" width="34.5" height="28.8"/>
		<rect x="347.7" y="448.8" class="st3" width="34.5" height="28.8"/>
	</g>
	<g>
		<rect x="117.8" y="477.7" class="st3" width="34.5" height="28.8"/>
		<rect x="175.3" y="477.7" class="st3" width="34.5" height="28.8"/>
		<rect x="232.8" y="477.7" class="st3" width="34.5" height="28.8"/>
		<rect x="347.7" y="477.7" class="st3" width="34.5" height="28.8"/>
	</g>
	<g>
		<rect x="117.8" y="506.5" class="st3" width="34.5" height="28.8"/>
		<rect x="175.3" y="506.5" class="st3" width="34.5" height="28.8"/>
		<rect x="232.8" y="506.5" class="st3" width="34.5" height="28.8"/>
		<rect x="347.7" y="506.5" class="st3" width="34.5" height="28.8"/>
	</g>
	<g>
		<rect x="117.8" y="535.3" class="st3" width="34.5" height="28.8"/>
		<rect x="175.3" y="535.3" class="st3" width="34.5" height="28.8"/>
		<rect x="232.8" y="535.3" class="st3" width="34.5" height="28.8"/>
		<polygon class="st10" points="290.2,535.3 290.2,506.5 290.2,477.7 290.2,448.8 290.2,420 290.2,391.2 290.2,362.4 290.2,333.6 
			324.7,333.6 324.7,362.4 324.7,391.2 324.7,420 324.7,448.8 324.7,477.7 324.7,506.5 324.7,535.3 324.7,564.1 290.2,564.1 		"/>
		<rect x="347.7" y="535.3" class="st3" width="34.5" height="28.8"/>
	</g>
	<g>
		<rect x="117.8" y="564.1" class="st3" width="34.5" height="28.8"/>
		<rect x="175.3" y="564.1" class="st8" width="34.5" height="28.8"/>
		<rect x="232.8" y="564.1" class="st3" width="34.5" height="28.8"/>
		<rect x="347.7" y="564.1" class="st3" width="34.5" height="28.8"/>
	</g>
	<g>
		<rect x="117.8" y="592.9" class="st3" width="34.5" height="28.8"/>
		<rect x="175.3" y="592.9" class="st3" width="34.5" height="28.8"/>
		<rect x="232.8" y="592.9" class="st3" width="34.5" height="28.8"/>
		<rect x="347.7" y="592.9" class="st3" width="34.5" height="28.8"/>
	</g>
	<g>
		<rect x="117.8" y="621.8" class="st3" width="34.5" height="28.8"/>
		<rect x="175.3" y="621.8" class="st3" width="34.5" height="28.8"/>
		<rect x="232.8" y="621.8" class="st3" width="34.5" height="28.8"/>
		<rect x="347.7" y="621.8" class="st3" width="34.5" height="28.8"/>
	</g>
	<g>
		<rect x="117.8" y="650.6" class="st3" width="34.5" height="28.8"/>
		<rect x="175.3" y="650.6" class="st3" width="34.5" height="28.8"/>
		<rect x="232.8" y="650.6" class="st3" width="34.5" height="28.8"/>
		<rect x="347.7" y="650.6" class="st3" width="34.5" height="28.8"/>
	</g>
	<g>
		<rect x="117.8" y="679.4" class="st3" width="34.5" height="28.8"/>
		<rect x="175.3" y="679.4" class="st3" width="34.5" height="28.8"/>
		<rect x="232.8" y="679.4" class="st3" width="34.5" height="28.8"/>
		<rect x="347.7" y="679.4" class="st3" width="34.5" height="28.8"/>
	</g>
	<g>
		<rect x="117.8" y="708.2" class="st3" width="34.5" height="28.8"/>
		<rect x="175.3" y="708.2" class="st3" width="34.5" height="28.8"/>
		<rect x="232.8" y="708.2" class="st3" width="34.5" height="28.8"/>
		<rect x="347.7" y="708.2" class="st3" width="34.5" height="28.8"/>
	</g>
	<g>
		<rect x="117.8" y="737" class="st3" width="34.5" height="28.8"/>
		<rect x="175.3" y="737" class="st3" width="34.5" height="28.8"/>
		<rect x="232.8" y="737" class="st3" width="34.5" height="28.8"/>
		<rect x="347.7" y="737" class="st3" width="34.5" height="28.8"/>
	</g>
	<g>
		<rect x="117.8" y="765.9" class="st3" width="34.5" height="28.8"/>
		<rect x="175.3" y="765.9" class="st3" width="34.5" height="28.8"/>
		<rect x="232.8" y="765.9" class="st3" width="34.5" height="28.8"/>
		<rect x="347.7" y="765.9" class="st3" width="34.5" height="28.8"/>
	</g>
	<g>
		<rect x="117.8" y="794.7" class="st3" width="34.5" height="28.8"/>
		<rect x="175.3" y="794.7" class="st3" width="34.5" height="28.8"/>
		<rect x="232.8" y="794.7" class="st3" width="34.5" height="28.8"/>
		<rect x="347.7" y="794.7" class="st3" width="34.5" height="28.8"/>
	</g>
	<g>
		<rect x="117.8" y="823.5" class="st3" width="34.5" height="28.8"/>
		<rect x="175.3" y="823.5" class="st3" width="34.5" height="28.8"/>
		<rect x="232.8" y="823.5" class="st3" width="34.5" height="28.8"/>
		<rect x="347.7" y="823.5" class="st3" width="34.5" height="28.8"/>
	</g>
	<g>
		<rect x="117.8" y="852.3" class="st3" width="34.5" height="28.8"/>
		<rect x="175.3" y="852.3" class="st3" width="34.5" height="28.8"/>
		<rect x="232.8" y="852.3" class="st3" width="34.5" height="28.8"/>
		<rect x="347.7" y="852.3" class="st3" width="34.5" height="28.8"/>
	</g>
	<g>
		<rect x="117.8" y="881.1" class="st3" width="34.5" height="28.8"/>
		<rect x="175.3" y="881.1" class="st3" width="34.5" height="28.8"/>
		<rect x="232.8" y="881.1" class="st3" width="34.5" height="28.8"/>
		<rect x="347.7" y="881.1" class="st3" width="34.5" height="28.8"/>
	</g>
	<g>
		<rect x="117.8" y="910" class="st3" width="34.5" height="28.8"/>
		<rect x="175.3" y="910" class="st3" width="34.5" height="28.8"/>
		<rect x="232.8" y="910" class="st3" width="34.5" height="28.8"/>
		<rect x="347.7" y="910" class="st3" width="34.5" height="28.8"/>
	</g>
	<g>
		<rect x="117.8" y="938.8" class="st3" width="34.5" height="28.8"/>
		<rect x="175.3" y="938.8" class="st3" width="34.5" height="28.8"/>
		<rect x="232.8" y="938.8" class="st3" width="34.5" height="28.8"/>
		<polygon class="st0" points="290.2,938.8 290.2,910 290.2,881.1 290.2,852.3 290.2,823.5 290.2,794.7 290.2,765.9 290.2,737 
			290.2,708.2 290.2,679.4 290.2,650.6 290.2,621.8 290.2,592.9 290.2,564.1 324.7,564.1 324.7,592.9 324.7,621.8 324.7,650.6 
			324.7,679.4 324.7,708.2 324.7,737 324.7,765.9 324.7,794.7 324.7,823.5 324.7,852.3 324.7,881.1 324.7,910 324.7,938.8 
			324.7,967.6 290.2,967.6 		"/>
		<rect x="347.7" y="938.8" class="st3" width="34.5" height="28.8"/>
	</g>
	<g>
		<line class="st11" x1="100.7" y1="131.8" x2="399.3" y2="131.8"/>
		<g>
			<line class="st11" x1="100.7" y1="160.6" x2="399.3" y2="160.6"/>
		</g>
		<g>
			<line class="st11" x1="100.7" y1="218.3" x2="399.3" y2="218.3"/>
		</g>
		<g>
			<line class="st11" x1="100.7" y1="333.6" x2="399.3" y2="333.6"/>
		</g>
		<g>
			<line class="st11" x1="100.7" y1="564.1" x2="399.3" y2="564.1"/>
		</g>
		<g>
			<line class="st11" x1="100.7" y1="967.6" x2="399.3" y2="967.6"/>
		</g>
	</g>
</g>
</svg>
