<?xml version="1.0" encoding="utf-8"?>
<!-- Generator: Adobe Illustrator 27.3.1, SVG Export Plug-In . SVG Version: 6.00 Build 0)  -->
<svg version="1.1" id="Capa_1" xmlns="http://www.w3.org/2000/svg" xmlns:xlink="http://www.w3.org/1999/xlink" x="0px" y="0px"
	 viewBox="0 0 400 800" style="enable-background:new 0 0 400 800;" xml:space="preserve">
<style type="text/css">
	.st0{fill:#1E1E1C;}
	.st1{font-family:'Roboto-Regular';}
	.st2{font-size:12px;}
	.st3{fill:none;}
	.st4{fill:#DDDBDC;}
	.st5{fill:#F2C5C1;}
	.st6{fill:#DD6F53;}
	.st7{fill:#FFFFFF;}
	.st8{fill:#C62119;}
	.st9{fill:#716C68;}
	.st10{fill:none;stroke:#1D1E1C;stroke-width:0.7016;stroke-miterlimit:10;stroke-dasharray:2.3385,2.3385;}
</style>
<g>
	<g>
		<g>
			<text transform="matrix(0.7071 -0.7071 0.7071 0.7071 113.7608 73.9275)" class="st0 st1 st2">Mariposa</text>
		</g>
		<g>
			<text transform="matrix(0.7071 -0.7071 0.7071 0.7071 156.8805 73.9274)" class="st0 st1 st2">Espalda</text>
		</g>
		<g>
			<text transform="matrix(0.7071 -0.7071 0.7071 0.7071 199.9996 73.9276)" class="st0 st1 st2">Pecho</text>
		</g>
		<g>
			<text transform="matrix(0.7071 -0.7071 0.7071 0.7071 243.1194 73.9276)" class="st0 st1 st2">Libre (crol)</text>
		</g>
		<g>
			<text transform="matrix(0.7071 -0.7071 0.7071 0.7071 286.2397 73.9275)" class="st0 st1 st2">Medley</text>
		</g>
	</g>
</g>
<g>
	<rect x="322.97" y="100.11" class="st3" width="52.67" height="16.07"/>
	<text transform="matrix(1 0 0 1 322.9746 109.1077)" class="st0 st1 st2">50 m</text>
</g>
<g>
	<rect x="322.97" y="122.31" class="st3" width="71.08" height="16.07"/>
	<text transform="matrix(1 0 0 1 322.9743 131.3148)" class="st0 st1 st2">100 m</text>
</g>
<g>
	<rect x="322.97" y="164.98" class="st3" width="60.52" height="16.07"/>
	<text transform="matrix(1 0 0 1 322.974 173.9802)" class="st0 st1 st2">200 m</text>
</g>
<g>
	<rect x="322.97" y="251.48" class="st3" width="54.27" height="16.07"/>
	<text transform="matrix(1 0 0 1 322.9745 260.4769)" class="st0 st1 st2">400 m</text>
</g>
<g>
	<rect x="322.97" y="424.47" class="st3" width="40.89" height="16.07"/>
	<text transform="matrix(1 0 0 1 322.9747 433.4709)" class="st0 st1 st2">800 m</text>
</g>
<g>
	<rect x="230.18" y="83.74" class="st4" width="25.87" height="21.62"/>
	<g>
		<polygon class="st5" points="100.82,105.37 100.82,83.74 126.7,83.74 126.7,105.37 126.7,126.99 100.82,126.99 		"/>
		<polygon class="st5" points="143.94,105.37 143.94,83.74 169.82,83.74 169.82,105.37 169.82,126.99 143.94,126.99 		"/>
		<polygon class="st5" points="187.06,105.37 187.06,83.74 212.94,83.74 212.94,105.37 212.94,126.99 187.06,126.99 		"/>
		<rect x="230.18" y="105.37" class="st5" width="25.87" height="21.62"/>
	</g>
	<g>
		<polygon class="st6" points="100.82,148.62 100.82,126.99 126.7,126.99 126.7,148.62 126.7,170.24 100.82,170.24 		"/>
		<polygon class="st6" points="143.94,148.62 143.94,126.99 169.82,126.99 169.82,148.62 169.82,170.24 143.94,170.24 		"/>
		<polygon class="st6" points="187.06,148.62 187.06,126.99 212.94,126.99 212.94,148.62 212.94,170.24 187.06,170.24 		"/>
		<polygon class="st6" points="230.18,148.62 230.18,126.99 256.06,126.99 256.06,148.62 256.06,170.24 230.18,170.24 		"/>
		<polygon class="st6" points="273.3,148.62 273.3,126.99 273.3,105.37 273.3,83.74 299.17,83.74 299.17,105.37 299.17,126.99 
			299.17,148.62 299.17,170.24 273.3,170.24 		"/>
	</g>
	<g>
		<rect x="100.83" y="170.24" class="st7" width="25.87" height="21.62"/>
		<rect x="143.94" y="170.24" class="st7" width="25.87" height="21.62"/>
		<rect x="187.06" y="170.24" class="st7" width="25.87" height="21.62"/>
	</g>
	<g>
		<rect x="100.83" y="191.87" class="st7" width="25.87" height="21.62"/>
		<rect x="143.94" y="191.87" class="st7" width="25.87" height="21.62"/>
		<rect x="187.06" y="191.87" class="st7" width="25.87" height="21.62"/>
	</g>
	<g>
		<rect x="100.83" y="213.49" class="st7" width="25.87" height="21.62"/>
		<rect x="143.94" y="213.49" class="st7" width="25.87" height="21.62"/>
		<rect x="187.06" y="213.49" class="st7" width="25.87" height="21.62"/>
	</g>
	<g>
		<rect x="100.83" y="235.11" class="st7" width="25.87" height="21.62"/>
		<rect x="143.94" y="235.11" class="st7" width="25.87" height="21.62"/>
		<rect x="187.06" y="235.11" class="st7" width="25.87" height="21.62"/>
		<polygon class="st8" points="230.18,235.11 230.18,213.49 230.18,191.87 230.18,170.24 256.06,170.24 256.06,191.87 
			256.06,213.49 256.06,235.11 256.06,256.74 230.18,256.74 		"/>
		<polygon class="st8" points="273.3,235.11 273.3,213.49 273.3,191.87 273.3,170.24 299.17,170.24 299.17,191.87 299.17,213.49 
			299.17,235.11 299.17,256.74 273.3,256.74 		"/>
	</g>
	<g>
		<rect x="100.83" y="256.74" class="st7" width="25.87" height="21.62"/>
		<rect x="143.94" y="256.74" class="st7" width="25.87" height="21.62"/>
		<rect x="187.06" y="256.74" class="st7" width="25.87" height="21.62"/>
		<rect x="273.3" y="256.74" class="st3" width="25.87" height="21.62"/>
	</g>
	<g>
		<rect x="100.83" y="278.36" class="st3" width="25.87" height="21.62"/>
		<rect x="143.94" y="278.36" class="st3" width="25.87" height="21.62"/>
		<rect x="187.06" y="278.36" class="st3" width="25.87" height="21.62"/>
		<rect x="273.3" y="278.36" class="st3" width="25.87" height="21.62"/>
	</g>
	<g>
		<rect x="100.83" y="299.99" class="st3" width="25.87" height="21.62"/>
		<rect x="143.94" y="299.99" class="st3" width="25.87" height="21.62"/>
		<rect x="187.06" y="299.99" class="st3" width="25.87" height="21.62"/>
		<rect x="273.3" y="299.99" class="st3" width="25.87" height="21.62"/>
	</g>
	<g>
		<rect x="100.83" y="321.61" class="st3" width="25.87" height="21.62"/>
		<rect x="143.94" y="321.61" class="st3" width="25.87" height="21.62"/>
		<rect x="187.06" y="321.61" class="st3" width="25.87" height="21.62"/>
		<rect x="273.3" y="321.61" class="st3" width="25.87" height="21.62"/>
	</g>
	<g>
		<rect x="100.83" y="343.23" class="st3" width="25.87" height="21.62"/>
		<rect x="143.94" y="343.23" class="st3" width="25.87" height="21.62"/>
		<rect x="187.06" y="343.23" class="st3" width="25.87" height="21.62"/>
		<rect x="273.3" y="343.23" class="st3" width="25.87" height="21.62"/>
	</g>
	<g>
		<rect x="100.83" y="364.86" class="st3" width="25.87" height="21.62"/>
		<rect x="143.94" y="364.86" class="st3" width="25.87" height="21.62"/>
		<rect x="187.06" y="364.86" class="st3" width="25.87" height="21.62"/>
		<rect x="273.3" y="364.86" class="st3" width="25.87" height="21.62"/>
	</g>
	<g>
		<rect x="100.83" y="386.48" class="st3" width="25.87" height="21.62"/>
		<rect x="143.94" y="386.48" class="st3" width="25.87" height="21.62"/>
		<rect x="187.06" y="386.48" class="st3" width="25.87" height="21.62"/>
		<rect x="273.3" y="386.48" class="st3" width="25.87" height="21.62"/>
	</g>
	<g>
		<rect x="100.83" y="408.11" class="st3" width="25.87" height="21.62"/>
		<rect x="143.94" y="408.11" class="st3" width="25.87" height="21.62"/>
		<rect x="187.06" y="408.11" class="st3" width="25.87" height="21.62"/>
		<polygon class="st9" points="230.18,408.11 230.18,386.48 230.18,364.86 230.18,343.23 230.18,321.61 230.18,299.99 
			230.18,278.36 230.18,256.74 256.06,256.74 256.06,278.36 256.06,299.99 256.06,321.61 256.06,343.23 256.06,364.86 
			256.06,386.48 256.06,408.11 256.06,429.73 230.18,429.73 		"/>
		<rect x="273.3" y="408.11" class="st3" width="25.87" height="21.62"/>
	</g>
	<g>
		<rect x="100.83" y="429.73" class="st3" width="25.87" height="21.62"/>
		<rect x="143.94" y="429.73" class="st7" width="25.87" height="21.62"/>
		<rect x="187.06" y="429.73" class="st3" width="25.87" height="21.62"/>
		<rect x="273.3" y="429.73" class="st3" width="25.87" height="21.62"/>
	</g>
	<g>
		<rect x="100.83" y="451.36" class="st3" width="25.87" height="21.62"/>
		<rect x="143.94" y="451.36" class="st3" width="25.87" height="21.62"/>
		<rect x="187.06" y="451.36" class="st3" width="25.87" height="21.62"/>
		<rect x="273.3" y="451.36" class="st3" width="25.87" height="21.62"/>
	</g>
	<g>
		<rect x="100.83" y="472.98" class="st3" width="25.87" height="21.62"/>
		<rect x="143.94" y="472.98" class="st3" width="25.87" height="21.62"/>
		<rect x="187.06" y="472.98" class="st3" width="25.87" height="21.62"/>
		<rect x="273.3" y="472.98" class="st3" width="25.87" height="21.62"/>
	</g>
	<g>
		<rect x="100.83" y="494.6" class="st3" width="25.87" height="21.62"/>
		<rect x="143.94" y="494.6" class="st3" width="25.87" height="21.62"/>
		<rect x="187.06" y="494.6" class="st3" width="25.87" height="21.62"/>
		<rect x="273.3" y="494.6" class="st3" width="25.87" height="21.62"/>
	</g>
	<g>
		<rect x="100.83" y="516.23" class="st3" width="25.87" height="21.62"/>
		<rect x="143.94" y="516.23" class="st3" width="25.87" height="21.62"/>
		<rect x="187.06" y="516.23" class="st3" width="25.87" height="21.62"/>
		<rect x="273.3" y="516.23" class="st3" width="25.87" height="21.62"/>
	</g>
	<g>
		<rect x="100.83" y="537.85" class="st3" width="25.87" height="21.62"/>
		<rect x="143.94" y="537.85" class="st3" width="25.87" height="21.62"/>
		<rect x="187.06" y="537.85" class="st3" width="25.87" height="21.62"/>
		<rect x="273.3" y="537.85" class="st3" width="25.87" height="21.62"/>
	</g>
	<g>
		<rect x="100.83" y="559.48" class="st3" width="25.87" height="21.62"/>
		<rect x="143.94" y="559.48" class="st3" width="25.87" height="21.62"/>
		<rect x="187.06" y="559.48" class="st3" width="25.87" height="21.62"/>
		<rect x="273.3" y="559.48" class="st3" width="25.87" height="21.62"/>
	</g>
	<g>
		<rect x="100.83" y="581.1" class="st3" width="25.87" height="21.62"/>
		<rect x="143.94" y="581.1" class="st3" width="25.87" height="21.62"/>
		<rect x="187.06" y="581.1" class="st3" width="25.87" height="21.62"/>
		<rect x="273.3" y="581.1" class="st3" width="25.87" height="21.62"/>
	</g>
	<g>
		<rect x="100.83" y="602.72" class="st3" width="25.87" height="21.62"/>
		<rect x="143.94" y="602.72" class="st3" width="25.87" height="21.62"/>
		<rect x="187.06" y="602.72" class="st3" width="25.87" height="21.62"/>
		<rect x="273.3" y="602.72" class="st3" width="25.87" height="21.62"/>
	</g>
	<g>
		<rect x="100.83" y="624.35" class="st3" width="25.87" height="21.62"/>
		<rect x="143.94" y="624.35" class="st3" width="25.87" height="21.62"/>
		<rect x="187.06" y="624.35" class="st3" width="25.87" height="21.62"/>
		<rect x="273.3" y="624.35" class="st3" width="25.87" height="21.62"/>
	</g>
	<g>
		<rect x="100.83" y="645.97" class="st3" width="25.87" height="21.62"/>
		<rect x="143.94" y="645.97" class="st3" width="25.87" height="21.62"/>
		<rect x="187.06" y="645.97" class="st3" width="25.87" height="21.62"/>
		<rect x="273.3" y="645.97" class="st3" width="25.87" height="21.62"/>
	</g>
	<g>
		<rect x="100.83" y="667.6" class="st3" width="25.87" height="21.62"/>
		<rect x="143.94" y="667.6" class="st3" width="25.87" height="21.62"/>
		<rect x="187.06" y="667.6" class="st3" width="25.87" height="21.62"/>
		<rect x="273.3" y="667.6" class="st3" width="25.87" height="21.62"/>
	</g>
	<g>
		<rect x="100.83" y="689.22" class="st3" width="25.87" height="21.62"/>
		<rect x="143.94" y="689.22" class="st3" width="25.87" height="21.62"/>
		<rect x="187.06" y="689.22" class="st3" width="25.87" height="21.62"/>
		<rect x="273.3" y="689.22" class="st3" width="25.87" height="21.62"/>
	</g>
	<g>
		<rect x="100.83" y="710.85" class="st3" width="25.87" height="21.62"/>
		<rect x="143.94" y="710.85" class="st3" width="25.87" height="21.62"/>
		<rect x="187.06" y="710.85" class="st3" width="25.87" height="21.62"/>
		<polygon class="st0" points="230.18,710.85 230.18,689.22 230.18,667.6 230.18,645.97 230.18,624.35 230.18,602.72 230.18,581.1 
			230.18,559.48 230.18,537.85 230.18,516.23 230.18,494.6 230.18,472.98 230.18,451.36 230.18,429.73 256.06,429.73 256.06,451.36 
			256.06,472.98 256.06,494.6 256.06,516.23 256.06,537.85 256.06,559.48 256.06,581.1 256.06,602.72 256.06,624.35 256.06,645.97 
			256.06,667.6 256.06,689.22 256.06,710.85 256.06,732.47 230.18,732.47 		"/>
		<rect x="273.3" y="710.85" class="st3" width="25.87" height="21.62"/>
	</g>
	<g>
		<line class="st10" x1="87.98" y1="105.37" x2="312.02" y2="105.37"/>
		<g>
			<line class="st10" x1="87.98" y1="126.99" x2="312.02" y2="126.99"/>
		</g>
		<g>
			<line class="st10" x1="87.98" y1="170.24" x2="312.02" y2="170.24"/>
		</g>
		<g>
			<line class="st10" x1="87.98" y1="256.74" x2="312.02" y2="256.74"/>
		</g>
		<g>
			<line class="st10" x1="87.98" y1="429.73" x2="312.02" y2="429.73"/>
		</g>
		<g>
			<line class="st10" x1="87.98" y1="732.47" x2="312.02" y2="732.47"/>
		</g>
	</g>
</g>
<g>
	<rect x="322.97" y="727.52" class="st3" width="44.22" height="20.72"/>
	<text transform="matrix(1 0 0 1 322.9744 736.5239)" class="st0 st1 st2">1.500 m</text>
</g>
</svg>
