<?xml version="1.0" encoding="utf-8"?>
<!-- Generator: Adobe Illustrator 27.3.1, SVG Export Plug-In . SVG Version: 6.00 Build 0)  -->
<svg version="1.1" id="Capa_1" xmlns="http://www.w3.org/2000/svg" xmlns:xlink="http://www.w3.org/1999/xlink" x="0px" y="0px"
	 viewBox="0 0 800 120" style="enable-background:new 0 0 800 120;" xml:space="preserve">
<style type="text/css">
	.st0{fill:#1E1E1C;}
	.st1{font-family:'Roboto-Regular';}
	.st2{font-size:6px;}
	.st3{fill:#DDDBDC;}
	.st4{fill:#F2C5C1;}
	.st5{fill:#DD6F53;}
	.st6{fill:#FFFFFF;}
	.st7{fill:#C62119;}
	.st8{fill:none;}
	.st9{fill:#716C68;}
	.st10{fill:none;stroke:#1D1E1C;stroke-width:0.3805;stroke-miterlimit:10;stroke-dasharray:1.2683,1.2683;}
	.st11{font-size:7px;}
</style>
<g>
	<g>
		<g>
			<g>
				<text transform="matrix(1 0 0 1 42.9354 46.7422)" class="st0 st1 st2">Mariposa</text>
			</g>
			<g>
				<text transform="matrix(1 0 0 1 46.8319 59.6089)" class="st0 st1 st2">Espalda</text>
			</g>
			<g>
				<text transform="matrix(1 0 0 1 51.2381 71.9815)" class="st0 st1 st2">Pecho</text>
			</g>
			<g>
				<text transform="matrix(1 0 0 1 39.1385 85.1582)" class="st0 st1 st2">Libre (crol)</text>
			</g>
			<g>
				<text transform="matrix(1 0 0 1 48.7948 98.3619)" class="st0 st1 st2">Medley</text>
			</g>
		</g>
	</g>
	<rect x="75.2" y="79.7" class="st3" width="21.6" height="7.6"/>
	<g>
		<polygon class="st4" points="96.8,41.6 75.2,41.6 75.2,49.2 96.8,49.2 118.4,49.2 118.4,41.6 		"/>
		<polygon class="st4" points="96.8,54.3 75.2,54.3 75.2,61.9 96.8,61.9 118.4,61.9 118.4,54.3 		"/>
		<polygon class="st4" points="96.8,67 75.2,67 75.2,74.6 96.8,74.6 118.4,74.6 118.4,67 		"/>
		<rect x="96.8" y="79.7" class="st4" width="21.6" height="7.6"/>
	</g>
	<g>
		<polygon class="st5" points="140.1,41.6 118.4,41.6 118.4,49.2 140.1,49.2 161.7,49.2 161.7,41.6 		"/>
		<polygon class="st5" points="140.1,54.3 118.4,54.3 118.4,61.9 140.1,61.9 161.7,61.9 161.7,54.3 		"/>
		<polygon class="st5" points="140.1,67 118.4,67 118.4,74.6 140.1,74.6 161.7,74.6 161.7,67 		"/>
		<polygon class="st5" points="140.1,79.7 118.4,79.7 118.4,87.3 140.1,87.3 161.7,87.3 161.7,79.7 		"/>
		<polygon class="st5" points="140.1,92.3 118.4,92.3 96.8,92.3 75.2,92.3 75.2,99.9 96.8,99.9 118.4,99.9 140.1,99.9 161.7,99.9 
			161.7,92.3 		"/>
	</g>
	<g>
		<rect x="161.7" y="41.6" class="st6" width="21.6" height="7.6"/>
		<rect x="161.7" y="54.3" class="st6" width="21.6" height="7.6"/>
		<rect x="161.7" y="67" class="st6" width="21.6" height="7.6"/>
	</g>
	<g>
		<rect x="183.3" y="41.6" class="st6" width="21.6" height="7.6"/>
		<rect x="183.3" y="54.3" class="st6" width="21.6" height="7.6"/>
		<rect x="183.3" y="67" class="st6" width="21.6" height="7.6"/>
	</g>
	<g>
		<rect x="204.9" y="41.6" class="st6" width="21.6" height="7.6"/>
		<rect x="204.9" y="54.3" class="st6" width="21.6" height="7.6"/>
		<rect x="204.9" y="67" class="st6" width="21.6" height="7.6"/>
	</g>
	<g>
		<rect x="226.6" y="41.6" class="st6" width="21.6" height="7.6"/>
		<rect x="226.6" y="54.3" class="st6" width="21.6" height="7.6"/>
		<rect x="226.6" y="67" class="st6" width="21.6" height="7.6"/>
		<polygon class="st7" points="226.6,79.7 204.9,79.7 183.3,79.7 161.7,79.7 161.7,87.3 183.3,87.3 204.9,87.3 226.6,87.3 
			248.2,87.3 248.2,79.7 		"/>
		<polygon class="st7" points="226.6,92.3 204.9,92.3 183.3,92.3 161.7,92.3 161.7,99.9 183.3,99.9 204.9,99.9 226.6,99.9 
			248.2,99.9 248.2,92.3 		"/>
	</g>
	<g>
		<rect x="248.2" y="41.6" class="st6" width="21.6" height="7.6"/>
		<rect x="248.2" y="54.3" class="st6" width="21.6" height="7.6"/>
		<rect x="248.2" y="67" class="st6" width="21.6" height="7.6"/>
		<rect x="248.2" y="92.3" class="st8" width="21.6" height="7.6"/>
	</g>
	<g>
		<rect x="269.8" y="41.6" class="st8" width="21.6" height="7.6"/>
		<rect x="269.8" y="54.3" class="st8" width="21.6" height="7.6"/>
		<rect x="269.8" y="67" class="st8" width="21.6" height="7.6"/>
		<rect x="269.8" y="92.3" class="st8" width="21.6" height="7.6"/>
	</g>
	<g>
		<rect x="291.4" y="41.6" class="st8" width="21.6" height="7.6"/>
		<rect x="291.4" y="54.3" class="st8" width="21.6" height="7.6"/>
		<rect x="291.4" y="67" class="st8" width="21.6" height="7.6"/>
		<rect x="291.4" y="92.3" class="st8" width="21.6" height="7.6"/>
	</g>
	<g>
		<rect x="313.1" y="41.6" class="st8" width="21.6" height="7.6"/>
		<rect x="313.1" y="54.3" class="st8" width="21.6" height="7.6"/>
		<rect x="313.1" y="67" class="st8" width="21.6" height="7.6"/>
		<rect x="313.1" y="92.3" class="st8" width="21.6" height="7.6"/>
	</g>
	<g>
		<rect x="334.7" y="41.6" class="st8" width="21.6" height="7.6"/>
		<rect x="334.7" y="54.3" class="st8" width="21.6" height="7.6"/>
		<rect x="334.7" y="67" class="st8" width="21.6" height="7.6"/>
		<rect x="334.7" y="92.3" class="st8" width="21.6" height="7.6"/>
	</g>
	<g>
		<rect x="356.3" y="41.6" class="st8" width="21.6" height="7.6"/>
		<rect x="356.3" y="54.3" class="st8" width="21.6" height="7.6"/>
		<rect x="356.3" y="67" class="st8" width="21.6" height="7.6"/>
		<rect x="356.3" y="92.3" class="st8" width="21.6" height="7.6"/>
	</g>
	<g>
		<rect x="377.9" y="41.6" class="st8" width="21.6" height="7.6"/>
		<rect x="377.9" y="54.3" class="st8" width="21.6" height="7.6"/>
		<rect x="377.9" y="67" class="st8" width="21.6" height="7.6"/>
		<rect x="377.9" y="92.3" class="st8" width="21.6" height="7.6"/>
	</g>
	<g>
		<rect x="399.6" y="41.6" class="st8" width="21.6" height="7.6"/>
		<rect x="399.6" y="54.3" class="st8" width="21.6" height="7.6"/>
		<rect x="399.6" y="67" class="st8" width="21.6" height="7.6"/>
		<polygon class="st9" points="399.6,79.7 377.9,79.7 356.3,79.7 334.7,79.7 313.1,79.7 291.4,79.7 269.8,79.7 248.2,79.7 
			248.2,87.3 269.8,87.3 291.4,87.3 313.1,87.3 334.7,87.3 356.3,87.3 377.9,87.3 399.6,87.3 421.2,87.3 421.2,79.7 		"/>
		<rect x="399.6" y="92.3" class="st8" width="21.6" height="7.6"/>
	</g>
	<g>
		<rect x="421.2" y="41.6" class="st8" width="21.6" height="7.6"/>
		<rect x="421.2" y="54.3" class="st6" width="21.6" height="7.6"/>
		<rect x="421.2" y="67" class="st8" width="21.6" height="7.6"/>
		<rect x="421.2" y="92.3" class="st8" width="21.6" height="7.6"/>
	</g>
	<g>
		<rect x="442.8" y="41.6" class="st8" width="21.6" height="7.6"/>
		<rect x="442.8" y="54.3" class="st8" width="21.6" height="7.6"/>
		<rect x="442.8" y="67" class="st8" width="21.6" height="7.6"/>
		<rect x="442.8" y="92.3" class="st8" width="21.6" height="7.6"/>
	</g>
	<g>
		<rect x="464.4" y="41.6" class="st8" width="21.6" height="7.6"/>
		<rect x="464.4" y="54.3" class="st8" width="21.6" height="7.6"/>
		<rect x="464.4" y="67" class="st8" width="21.6" height="7.6"/>
		<rect x="464.4" y="92.3" class="st8" width="21.6" height="7.6"/>
	</g>
	<g>
		<rect x="486.1" y="41.6" class="st8" width="21.6" height="7.6"/>
		<rect x="486.1" y="54.3" class="st8" width="21.6" height="7.6"/>
		<rect x="486.1" y="67" class="st8" width="21.6" height="7.6"/>
		<rect x="486.1" y="92.3" class="st8" width="21.6" height="7.6"/>
	</g>
	<g>
		<rect x="507.7" y="41.6" class="st8" width="21.6" height="7.6"/>
		<rect x="507.7" y="54.3" class="st8" width="21.6" height="7.6"/>
		<rect x="507.7" y="67" class="st8" width="21.6" height="7.6"/>
		<rect x="507.7" y="92.3" class="st8" width="21.6" height="7.6"/>
	</g>
	<g>
		<rect x="529.3" y="41.6" class="st8" width="21.6" height="7.6"/>
		<rect x="529.3" y="54.3" class="st8" width="21.6" height="7.6"/>
		<rect x="529.3" y="67" class="st8" width="21.6" height="7.6"/>
		<rect x="529.3" y="92.3" class="st8" width="21.6" height="7.6"/>
	</g>
	<g>
		<rect x="550.9" y="41.6" class="st8" width="21.6" height="7.6"/>
		<rect x="550.9" y="54.3" class="st8" width="21.6" height="7.6"/>
		<rect x="550.9" y="67" class="st8" width="21.6" height="7.6"/>
		<rect x="550.9" y="92.3" class="st8" width="21.6" height="7.6"/>
	</g>
	<g>
		<rect x="572.6" y="41.6" class="st8" width="21.6" height="7.6"/>
		<rect x="572.6" y="54.3" class="st8" width="21.6" height="7.6"/>
		<rect x="572.6" y="67" class="st8" width="21.6" height="7.6"/>
		<rect x="572.6" y="92.3" class="st8" width="21.6" height="7.6"/>
	</g>
	<g>
		<rect x="594.2" y="41.6" class="st8" width="21.6" height="7.6"/>
		<rect x="594.2" y="54.3" class="st8" width="21.6" height="7.6"/>
		<rect x="594.2" y="67" class="st8" width="21.6" height="7.6"/>
		<rect x="594.2" y="92.3" class="st8" width="21.6" height="7.6"/>
	</g>
	<g>
		<rect x="615.8" y="41.6" class="st8" width="21.6" height="7.6"/>
		<rect x="615.8" y="54.3" class="st8" width="21.6" height="7.6"/>
		<rect x="615.8" y="67" class="st8" width="21.6" height="7.6"/>
		<rect x="615.8" y="92.3" class="st8" width="21.6" height="7.6"/>
	</g>
	<g>
		<rect x="637.4" y="41.6" class="st8" width="21.6" height="7.6"/>
		<rect x="637.4" y="54.3" class="st8" width="21.6" height="7.6"/>
		<rect x="637.4" y="67" class="st8" width="21.6" height="7.6"/>
		<rect x="637.4" y="92.3" class="st8" width="21.6" height="7.6"/>
	</g>
	<g>
		<rect x="659" y="41.6" class="st8" width="21.6" height="7.6"/>
		<rect x="659" y="54.3" class="st8" width="21.6" height="7.6"/>
		<rect x="659" y="67" class="st8" width="21.6" height="7.6"/>
		<rect x="659" y="92.3" class="st8" width="21.6" height="7.6"/>
	</g>
	<g>
		<rect x="680.7" y="41.6" class="st8" width="21.6" height="7.6"/>
		<rect x="680.7" y="54.3" class="st8" width="21.6" height="7.6"/>
		<rect x="680.7" y="67" class="st8" width="21.6" height="7.6"/>
		<rect x="680.7" y="92.3" class="st8" width="21.6" height="7.6"/>
	</g>
	<g>
		<rect x="702.3" y="41.6" class="st8" width="21.6" height="7.6"/>
		<rect x="702.3" y="54.3" class="st8" width="21.6" height="7.6"/>
		<rect x="702.3" y="67" class="st8" width="21.6" height="7.6"/>
		<polygon class="st0" points="702.3,79.7 680.7,79.7 659,79.7 637.4,79.7 615.8,79.7 594.2,79.7 572.6,79.7 550.9,79.7 529.3,79.7 
			507.7,79.7 486.1,79.7 464.4,79.7 442.8,79.7 421.2,79.7 421.2,87.3 442.8,87.3 464.4,87.3 486.1,87.3 507.7,87.3 529.3,87.3 
			550.9,87.3 572.6,87.3 594.2,87.3 615.8,87.3 637.4,87.3 659,87.3 680.7,87.3 702.3,87.3 723.9,87.3 723.9,79.7 		"/>
		<rect x="702.3" y="92.3" class="st8" width="21.6" height="7.6"/>
	</g>
	<line class="st10" x1="96.8" y1="29.5" x2="96.8" y2="104.3"/>
	<g>
		<rect x="84.1" y="20.3" class="st8" width="20.1" height="16.1"/>
		<text transform="matrix(1 0 0 1 81.3967 26.5132)" class="st0 st1 st11">50 m</text>
	</g>
	<g>
		<line class="st10" x1="118.4" y1="29.5" x2="118.4" y2="104.3"/>
	</g>
	<g>
		<rect x="118.4" y="20.3" class="st8" width="31.6" height="16.1"/>
		<text transform="matrix(1 0 0 1 118.4497 26.5132)" class="st0 st1 st11">100 m</text>
	</g>
	<g>
		<line class="st10" x1="161.7" y1="29.5" x2="161.7" y2="104.3"/>
	</g>
	<g>
		<rect x="161.7" y="20.3" class="st8" width="35.8" height="16.1"/>
		<text transform="matrix(1 0 0 1 161.6982 26.5132)" class="st0 st1 st11">200 m</text>
	</g>
	<g>
		<line class="st10" x1="248.2" y1="29.5" x2="248.2" y2="104.3"/>
	</g>
	<g>
		<rect x="248.2" y="20.3" class="st8" width="43.2" height="16.1"/>
		<text transform="matrix(1 0 0 1 248.1948 26.5132)" class="st0 st1 st11">400 m</text>
	</g>
	<g>
		<line class="st10" x1="421.2" y1="29.5" x2="421.2" y2="104.3"/>
	</g>
	<g>
		<rect x="421.2" y="20.3" class="st8" width="40.9" height="16.1"/>
		<text transform="matrix(1 0 0 1 421.1885 26.5132)" class="st0 st1 st11">800 m</text>
	</g>
	<g>
		<line class="st10" x1="723.9" y1="29.5" x2="723.9" y2="104.3"/>
	</g>
	<g>
		<rect x="723.9" y="20.3" class="st8" width="44.2" height="8"/>
		<text transform="matrix(1 0 0 1 723.9268 26.5132)" class="st0 st1 st11">1.500 m</text>
	</g>
</g>
</svg>
