<?xml version="1.0" encoding="utf-8"?>
<!-- Generator: Adobe Illustrator 27.3.1, SVG Export Plug-In . SVG Version: 6.00 Build 0)  -->
<svg version="1.1" id="Capa_1" xmlns="http://www.w3.org/2000/svg" xmlns:xlink="http://www.w3.org/1999/xlink" x="0px" y="0px"
	 viewBox="0 0 800 120" style="enable-background:new 0 0 800 120;" xml:space="preserve">
<style type="text/css">
	.st0{fill:#1E1E1C;}
	.st1{font-family:'Roboto-Regular';}
	.st2{font-size:8.2395px;}
	.st3{fill:#DDDBDC;}
	.st4{fill:#F2C5C1;}
	.st5{fill:#DD6F53;}
	.st6{fill:#FFFFFF;}
	.st7{fill:#C62119;}
	.st8{fill:none;}
	.st9{fill:#716C68;}
	.st10{fill:none;stroke:#1D1E1C;stroke-width:0.3805;stroke-miterlimit:10;stroke-dasharray:1.2683,1.2683;}
</style>
<g>
	<g>
		<g>
			<g>
				<text transform="matrix(1 0 0 1 33.5762 46.7422)" class="st0 st1 st2">Mariposa</text>
			</g>
			<g>
				<text transform="matrix(1 0 0 1 38.9268 59.6089)" class="st0 st1 st2">Espalda</text>
			</g>
			<g>
				<text transform="matrix(1 0 0 1 44.9775 71.9815)" class="st0 st1 st2">Pecho</text>
			</g>
			<g>
				<text transform="matrix(1 0 0 1 28.1475 85.1582)"><tspan x="0" y="0" class="st0 st1 st2">Libre (c</tspan><tspan x="27.38" y="0" class="st0 st1 st2">r</tspan><tspan x="30.09" y="0" class="st0 st1 st2">ol)</tspan></text>
			</g>
			<g>
				<text transform="matrix(1 0 0 1 41.6221 98.3619)" class="st0 st1 st2">Medley</text>
			</g>
		</g>
	</g>
	<rect x="75.2" y="79.65" class="st3" width="21.62" height="7.61"/>
	<g>
		<polygon class="st4" points="96.83,41.61 75.2,41.61 75.2,49.22 96.83,49.22 118.45,49.22 118.45,41.61 		"/>
		<polygon class="st4" points="96.83,54.29 75.2,54.29 75.2,61.9 96.83,61.9 118.45,61.9 118.45,54.29 		"/>
		<polygon class="st4" points="96.83,66.97 75.2,66.97 75.2,74.58 96.83,74.58 118.45,74.58 118.45,66.97 		"/>
		<rect x="96.83" y="79.65" class="st4" width="21.62" height="7.61"/>
	</g>
	<g>
		<polygon class="st5" points="140.07,41.61 118.45,41.61 118.45,49.22 140.07,49.22 161.7,49.22 161.7,41.61 		"/>
		<polygon class="st5" points="140.07,54.29 118.45,54.29 118.45,61.9 140.07,61.9 161.7,61.9 161.7,54.29 		"/>
		<polygon class="st5" points="140.07,66.97 118.45,66.97 118.45,74.58 140.07,74.58 161.7,74.58 161.7,66.97 		"/>
		<polygon class="st5" points="140.07,79.65 118.45,79.65 118.45,87.26 140.07,87.26 161.7,87.26 161.7,79.65 		"/>
		<polygon class="st5" points="140.07,92.34 118.45,92.34 96.83,92.34 75.2,92.34 75.2,99.95 96.83,99.95 118.45,99.95 
			140.07,99.95 161.7,99.95 161.7,92.34 		"/>
	</g>
	<g>
		<rect x="161.7" y="41.61" class="st6" width="21.62" height="7.61"/>
		<rect x="161.7" y="54.29" class="st6" width="21.62" height="7.61"/>
		<rect x="161.7" y="66.97" class="st6" width="21.62" height="7.61"/>
	</g>
	<g>
		<rect x="183.32" y="41.61" class="st6" width="21.62" height="7.61"/>
		<rect x="183.32" y="54.29" class="st6" width="21.62" height="7.61"/>
		<rect x="183.32" y="66.97" class="st6" width="21.62" height="7.61"/>
	</g>
	<g>
		<rect x="204.95" y="41.61" class="st6" width="21.62" height="7.61"/>
		<rect x="204.95" y="54.29" class="st6" width="21.62" height="7.61"/>
		<rect x="204.95" y="66.97" class="st6" width="21.62" height="7.61"/>
	</g>
	<g>
		<rect x="226.57" y="41.61" class="st6" width="21.62" height="7.61"/>
		<rect x="226.57" y="54.29" class="st6" width="21.62" height="7.61"/>
		<rect x="226.57" y="66.97" class="st6" width="21.62" height="7.61"/>
		<polygon class="st7" points="226.57,79.65 204.95,79.65 183.32,79.65 161.7,79.65 161.7,87.26 183.32,87.26 204.95,87.26 
			226.57,87.26 248.19,87.26 248.19,79.65 		"/>
		<polygon class="st7" points="226.57,92.34 204.95,92.34 183.32,92.34 161.7,92.34 161.7,99.95 183.32,99.95 204.95,99.95 
			226.57,99.95 248.19,99.95 248.19,92.34 		"/>
	</g>
	<g>
		<rect x="248.19" y="41.61" class="st6" width="21.62" height="7.61"/>
		<rect x="248.19" y="54.29" class="st6" width="21.62" height="7.61"/>
		<rect x="248.19" y="66.97" class="st6" width="21.62" height="7.61"/>
		<rect x="248.19" y="92.34" class="st8" width="21.62" height="7.61"/>
	</g>
	<g>
		<rect x="269.82" y="41.61" class="st8" width="21.62" height="7.61"/>
		<rect x="269.82" y="54.29" class="st8" width="21.62" height="7.61"/>
		<rect x="269.82" y="66.97" class="st8" width="21.62" height="7.61"/>
		<rect x="269.82" y="92.34" class="st8" width="21.62" height="7.61"/>
	</g>
	<g>
		<rect x="291.44" y="41.61" class="st8" width="21.62" height="7.61"/>
		<rect x="291.44" y="54.29" class="st8" width="21.62" height="7.61"/>
		<rect x="291.44" y="66.97" class="st8" width="21.62" height="7.61"/>
		<rect x="291.44" y="92.34" class="st8" width="21.62" height="7.61"/>
	</g>
	<g>
		<rect x="313.07" y="41.61" class="st8" width="21.62" height="7.61"/>
		<rect x="313.07" y="54.29" class="st8" width="21.62" height="7.61"/>
		<rect x="313.07" y="66.97" class="st8" width="21.62" height="7.61"/>
		<rect x="313.07" y="92.34" class="st8" width="21.62" height="7.61"/>
	</g>
	<g>
		<rect x="334.69" y="41.61" class="st8" width="21.62" height="7.61"/>
		<rect x="334.69" y="54.29" class="st8" width="21.62" height="7.61"/>
		<rect x="334.69" y="66.97" class="st8" width="21.62" height="7.61"/>
		<rect x="334.69" y="92.34" class="st8" width="21.62" height="7.61"/>
	</g>
	<g>
		<rect x="356.32" y="41.61" class="st8" width="21.62" height="7.61"/>
		<rect x="356.32" y="54.29" class="st8" width="21.62" height="7.61"/>
		<rect x="356.32" y="66.97" class="st8" width="21.62" height="7.61"/>
		<rect x="356.32" y="92.34" class="st8" width="21.62" height="7.61"/>
	</g>
	<g>
		<rect x="377.94" y="41.61" class="st8" width="21.62" height="7.61"/>
		<rect x="377.94" y="54.29" class="st8" width="21.62" height="7.61"/>
		<rect x="377.94" y="66.97" class="st8" width="21.62" height="7.61"/>
		<rect x="377.94" y="92.34" class="st8" width="21.62" height="7.61"/>
	</g>
	<g>
		<rect x="399.56" y="41.61" class="st8" width="21.62" height="7.61"/>
		<rect x="399.56" y="54.29" class="st8" width="21.62" height="7.61"/>
		<rect x="399.56" y="66.97" class="st8" width="21.62" height="7.61"/>
		<polygon class="st9" points="399.56,79.65 377.94,79.65 356.32,79.65 334.69,79.65 313.07,79.65 291.44,79.65 269.82,79.65 
			248.19,79.65 248.19,87.26 269.82,87.26 291.44,87.26 313.07,87.26 334.69,87.26 356.32,87.26 377.94,87.26 399.56,87.26 
			421.19,87.26 421.19,79.65 		"/>
		<rect x="399.56" y="92.34" class="st8" width="21.62" height="7.61"/>
	</g>
	<g>
		<rect x="421.19" y="41.61" class="st8" width="21.62" height="7.61"/>
		<rect x="421.19" y="54.29" class="st6" width="21.62" height="7.61"/>
		<rect x="421.19" y="66.97" class="st8" width="21.62" height="7.61"/>
		<rect x="421.19" y="92.34" class="st8" width="21.62" height="7.61"/>
	</g>
	<g>
		<rect x="442.81" y="41.61" class="st8" width="21.62" height="7.61"/>
		<rect x="442.81" y="54.29" class="st8" width="21.62" height="7.61"/>
		<rect x="442.81" y="66.97" class="st8" width="21.62" height="7.61"/>
		<rect x="442.81" y="92.34" class="st8" width="21.62" height="7.61"/>
	</g>
	<g>
		<rect x="464.44" y="41.61" class="st8" width="21.62" height="7.61"/>
		<rect x="464.44" y="54.29" class="st8" width="21.62" height="7.61"/>
		<rect x="464.44" y="66.97" class="st8" width="21.62" height="7.61"/>
		<rect x="464.44" y="92.34" class="st8" width="21.62" height="7.61"/>
	</g>
	<g>
		<rect x="486.06" y="41.61" class="st8" width="21.62" height="7.61"/>
		<rect x="486.06" y="54.29" class="st8" width="21.62" height="7.61"/>
		<rect x="486.06" y="66.97" class="st8" width="21.62" height="7.61"/>
		<rect x="486.06" y="92.34" class="st8" width="21.62" height="7.61"/>
	</g>
	<g>
		<rect x="507.69" y="41.61" class="st8" width="21.62" height="7.61"/>
		<rect x="507.69" y="54.29" class="st8" width="21.62" height="7.61"/>
		<rect x="507.69" y="66.97" class="st8" width="21.62" height="7.61"/>
		<rect x="507.69" y="92.34" class="st8" width="21.62" height="7.61"/>
	</g>
	<g>
		<rect x="529.31" y="41.61" class="st8" width="21.62" height="7.61"/>
		<rect x="529.31" y="54.29" class="st8" width="21.62" height="7.61"/>
		<rect x="529.31" y="66.97" class="st8" width="21.62" height="7.61"/>
		<rect x="529.31" y="92.34" class="st8" width="21.62" height="7.61"/>
	</g>
	<g>
		<rect x="550.93" y="41.61" class="st8" width="21.62" height="7.61"/>
		<rect x="550.93" y="54.29" class="st8" width="21.62" height="7.61"/>
		<rect x="550.93" y="66.97" class="st8" width="21.62" height="7.61"/>
		<rect x="550.93" y="92.34" class="st8" width="21.62" height="7.61"/>
	</g>
	<g>
		<rect x="572.56" y="41.61" class="st8" width="21.62" height="7.61"/>
		<rect x="572.56" y="54.29" class="st8" width="21.62" height="7.61"/>
		<rect x="572.56" y="66.97" class="st8" width="21.62" height="7.61"/>
		<rect x="572.56" y="92.34" class="st8" width="21.62" height="7.61"/>
	</g>
	<g>
		<rect x="594.18" y="41.61" class="st8" width="21.62" height="7.61"/>
		<rect x="594.18" y="54.29" class="st8" width="21.62" height="7.61"/>
		<rect x="594.18" y="66.97" class="st8" width="21.62" height="7.61"/>
		<rect x="594.18" y="92.34" class="st8" width="21.62" height="7.61"/>
	</g>
	<g>
		<rect x="615.81" y="41.61" class="st8" width="21.62" height="7.61"/>
		<rect x="615.81" y="54.29" class="st8" width="21.62" height="7.61"/>
		<rect x="615.81" y="66.97" class="st8" width="21.62" height="7.61"/>
		<rect x="615.81" y="92.34" class="st8" width="21.62" height="7.61"/>
	</g>
	<g>
		<rect x="637.43" y="41.61" class="st8" width="21.62" height="7.61"/>
		<rect x="637.43" y="54.29" class="st8" width="21.62" height="7.61"/>
		<rect x="637.43" y="66.97" class="st8" width="21.62" height="7.61"/>
		<rect x="637.43" y="92.34" class="st8" width="21.62" height="7.61"/>
	</g>
	<g>
		<rect x="659.05" y="41.61" class="st8" width="21.62" height="7.61"/>
		<rect x="659.05" y="54.29" class="st8" width="21.62" height="7.61"/>
		<rect x="659.05" y="66.97" class="st8" width="21.62" height="7.61"/>
		<rect x="659.05" y="92.34" class="st8" width="21.62" height="7.61"/>
	</g>
	<g>
		<rect x="680.68" y="41.61" class="st8" width="21.62" height="7.61"/>
		<rect x="680.68" y="54.29" class="st8" width="21.62" height="7.61"/>
		<rect x="680.68" y="66.97" class="st8" width="21.62" height="7.61"/>
		<rect x="680.68" y="92.34" class="st8" width="21.62" height="7.61"/>
	</g>
	<g>
		<rect x="702.3" y="41.61" class="st8" width="21.62" height="7.61"/>
		<rect x="702.3" y="54.29" class="st8" width="21.62" height="7.61"/>
		<rect x="702.3" y="66.97" class="st8" width="21.62" height="7.61"/>
		<polygon class="st0" points="702.3,79.65 680.68,79.65 659.05,79.65 637.43,79.65 615.81,79.65 594.18,79.65 572.56,79.65 
			550.93,79.65 529.31,79.65 507.69,79.65 486.06,79.65 464.44,79.65 442.81,79.65 421.19,79.65 421.19,87.26 442.81,87.26 
			464.44,87.26 486.06,87.26 507.69,87.26 529.31,87.26 550.93,87.26 572.56,87.26 594.18,87.26 615.81,87.26 637.43,87.26 
			659.05,87.26 680.68,87.26 702.3,87.26 723.93,87.26 723.93,79.65 		"/>
		<rect x="702.3" y="92.34" class="st8" width="21.62" height="7.61"/>
	</g>
	<line class="st10" x1="96.83" y1="29.55" x2="96.83" y2="104.29"/>
	<g>
		<rect x="84.14" y="20.33" class="st8" width="20.09" height="16.07"/>
		<text transform="matrix(1 0 0 1 84.9312 26.5132)" class="st0 st1 st2">50 m</text>
	</g>
	<g>
		<line class="st10" x1="118.45" y1="29.55" x2="118.45" y2="104.29"/>
	</g>
	<g>
		<rect x="118.45" y="20.33" class="st8" width="31.64" height="16.07"/>
		<text transform="matrix(1 0 0 1 118.4497 26.5132)" class="st0 st1 st2">100 m</text>
	</g>
	<g>
		<line class="st10" x1="161.7" y1="29.55" x2="161.7" y2="104.29"/>
	</g>
	<g>
		<rect x="161.7" y="20.33" class="st8" width="35.79" height="16.07"/>
		<text transform="matrix(1 0 0 1 161.6982 26.5132)" class="st0 st1 st2">200 m</text>
	</g>
	<g>
		<line class="st10" x1="248.19" y1="29.55" x2="248.19" y2="104.29"/>
	</g>
	<g>
		<rect x="248.19" y="20.33" class="st8" width="43.25" height="16.07"/>
		<text transform="matrix(1 0 0 1 248.1948 26.5132)" class="st0 st1 st2">400 m</text>
	</g>
	<g>
		<line class="st10" x1="421.19" y1="29.55" x2="421.19" y2="104.29"/>
	</g>
	<g>
		<rect x="421.19" y="20.33" class="st8" width="40.89" height="16.07"/>
		<text transform="matrix(1 0 0 1 421.1885 26.5132)" class="st0 st1 st2">800 m</text>
	</g>
	<g>
		<line class="st10" x1="723.93" y1="29.55" x2="723.93" y2="104.29"/>
	</g>
	<g>
		<rect x="723.93" y="20.33" class="st8" width="44.22" height="8.04"/>
		<text transform="matrix(1 0 0 1 723.9268 26.5132)" class="st0 st1 st2">1.500 m</text>
	</g>
</g>
</svg>
