<?xml version="1.0" encoding="utf-8"?>
<!-- Generator: Adobe Illustrator 27.3.1, SVG Export Plug-In . SVG Version: 6.00 Build 0)  -->
<svg version="1.1" id="Capa_1" xmlns="http://www.w3.org/2000/svg" xmlns:xlink="http://www.w3.org/1999/xlink" x="0px" y="0px"
	 viewBox="0 0 500 1122.5" style="enable-background:new 0 0 500 1122.5;" xml:space="preserve">
<style type="text/css">
	.st0{fill:none;stroke:#D9D9D9;stroke-width:12;stroke-linejoin:round;}
	.st1{fill:#D9D9D9;}
	.st2{fill:none;}
	.st3{fill:#1E1E1C;}
	.st4{font-family:'Roboto-Bold';}
	.st5{font-size:24px;}
	.st6{fill:#1D1D1B;}
	.st7{font-family:'Roboto-Regular';}
</style>
<g>
	<g>
		<g>
			<g>
				<line class="st0" x1="433.3" y1="107.9" x2="58.3" y2="107.9"/>
				<g>
					<polygon class="st1" points="430.3,97.9 447.6,107.9 430.3,117.8 					"/>
				</g>
			</g>
		</g>
		<g>
			<rect x="58.3" y="44.3" class="st2" width="84.5" height="33.9"/>
			<text transform="matrix(1 0 0 1 58.2532 55.2961)" class="st3 st4 st5">50 m</text>
		</g>
		<g>
			<rect x="209.8" y="129.1" class="st2" width="231.9" height="37.4"/>
			<text transform="matrix(1 0 0 1 358.5257 144.1278)" class="st6 st7 st5">llegada </text>
		</g>
		<rect x="58.3" y="70.4" class="st2" width="231.9" height="37.4"/>
		<text transform="matrix(1 0 0 1 58.2552 85.4247)" class="st6 st7 st5">salida</text>
	</g>
	<g>
		<g>
			<g>
				<path class="st0" d="M63.7,1011.9h363c6.6,0,12-5.4,12-12l0,0c0-6.6-5.4-12-12-12h-351c-6.6,0-12-5.4-12-12s5.4-12,12-12h350.9
					c6.6,0,12-5.4,12-12l0,0c0-6.6-5.4-12-12-12H75.7c-6.6,0-12-5.4-12-12s5.4-12,12-12h350.9c6.6,0,12-5.4,12-12l0,0
					c0-6.6-5.4-12-12-12H75.7c-6.6,0-12-5.4-12-12s5.4-12,12-12h350.9c6.6,0,12-5.4,12-12l0,0c0-6.6-5.4-12-12-12H75.7
					c-6.6,0-12-5.4-12-12s5.4-12,12-12h350.9c6.6,0,12-5.4,12-12s-5.4-12-12-12H75.7c-6.6,0-12-5.4-12-12s5.4-12,12-12h350.9
					c6.6,0,12-5.4,12-12s-5.4-12-12-12H75.7c-6.6,0-12-5.4-12-12s5.4-12,12-12h350.9c6.6,0,12-5.4,12-12s-5.4-12-12-12H75.7
					c-6.6,0-12-5.4-12-12l0,0c0-6.6,5.4-12,12-12h350.9c6.6,0,12-5.4,12-12s-5.4-12-12-12H75.7c-6.6,0-12-5.4-12-12l0,0
					c0-6.6,5.4-12,12-12h350.9c6.6,0,12-5.4,12-12s-5.4-12-12-12H75.7c-6.6,0-12-5.4-12-12l0,0c0-6.6,5.4-12,12-12h350.9
					c6.6,0,12-5.4,12-12s-5.4-12-12-12H75.7c-6.6,0-12-5.4-12-12l0,0c0-6.6,5.4-12,12-12h350.9c6.6,0,12-5.4,12-12s-5.4-12-12-12
					H75.7c-6.6,0-12-5.4-12-12l0,0c0-6.6,5.4-12,12-12h350.9c6.6,0,12-5.4,12-12l0,0c0-6.6-5.4-12-12-12H75.7c-6.6,0-12-5.4-12-12
					l0,0c0-6.6,5.4-12,12-12h350.9c6.6,0,12-5.4,12-12l0,0c0-6.6-5.4-12-12-12H75.7c-6.6,0-12-5.4-12-12l0,0c0-6.6,5.4-12,12-12
					h350.9c6.6,0,12-5.4,12-12l0,0c0-6.6-5.4-12-12-12H75.7c-6.6,0-12-5.4-12-12l0,0c0-6.6,5.4-12,12-12h350.9c6.6,0,12-5.4,12-12
					l0,0c0-6.6-5.4-12-12-12H60"/>
				<g>
					<polygon class="st1" points="66.6,1021.9 49.3,1011.9 66.6,1001.9 					"/>
				</g>
			</g>
		</g>
		<g>
			<rect x="57.8" y="248" class="st2" width="158.8" height="42.8"/>
			<g>
				<text transform="matrix(1 0 0 1 57.7659 259.009)" class="st3 st4 st5">1.500 m</text>
			</g>
		</g>
		<g>
			<rect x="58.7" y="274.1" class="st2" width="231.9" height="37.4"/>
			<g>
				<text transform="matrix(1 0 0 1 58.7405 289.1269)" class="st6 st7 st5">salida</text>
			</g>
		</g>
		<g>
			<rect x="58.7" y="1033.8" class="st2" width="190.6" height="31"/>
			<g>
				<text transform="matrix(1 0 0 1 58.7415 1048.7523)" class="st6 st7 st5">llegada</text>
			</g>
		</g>
		<g>
			<rect x="251.6" y="1047.1" class="st2" width="190.6" height="31"/>
			<text transform="matrix(1 0 0 1 336.7639 1062.1195)" class="st3 st4 st5">29 virajes</text>
		</g>
	</g>
</g>
</svg>
