<?xml version="1.0" encoding="utf-8"?>
<!-- Generator: Adobe Illustrator 27.3.1, SVG Export Plug-In . SVG Version: 6.00 Build 0)  -->
<svg version="1.1" id="Capa_1" xmlns="http://www.w3.org/2000/svg" xmlns:xlink="http://www.w3.org/1999/xlink" x="0px" y="0px"
	 viewBox="0 0 500 489.4" style="enable-background:new 0 0 500 489.4;" xml:space="preserve">
<style type="text/css">
	.st0{fill:#E6E6E6;}
	.st1{fill:#FFFFFF;}
	.st2{fill:#FFFFFF;stroke:#E6E6E6;stroke-width:0.8855;stroke-miterlimit:10;}
	.st3{fill:#CC1719;}
	.st4{fill:none;stroke:#FFFFFF;stroke-width:2.0755;stroke-miterlimit:10;}
	.st5{fill:none;stroke:#CC1719;stroke-width:1.3836;stroke-miterlimit:10;}
	.st6{fill:none;stroke:#CC1719;stroke-width:2.7673;stroke-miterlimit:10;}
	.st7{fill:none;stroke:#1D1D1B;stroke-width:1.489;stroke-miterlimit:10;}
	.st8{fill:#7E7A7A;}
	.st9{fill:none;stroke:#D9D9D9;stroke-width:6;stroke-linejoin:round;}
	.st10{fill:#D9D9D9;}
	.st11{fill:none;}
	.st12{fill:#1E1E1C;}
	.st13{font-family:'Roboto-Bold';}
	.st14{font-size:18px;}
	.st15{fill:#1D1D1B;}
	.st16{font-family:'Roboto-Regular';}
	.st17{font-size:14px;}
</style>
<g>
	<g>
		<g>
			<g>
				<line class="st9" x1="221.9" y1="66.2" x2="34.4" y2="66.2"/>
				<g>
					<polygon class="st10" points="220.2,60.2 230.5,66.2 220.2,72.2 					"/>
				</g>
			</g>
		</g>
		<g>
			<rect x="34.4" y="24.4" class="st11" width="42.2" height="17"/>
			<text transform="matrix(1 0 0 1 34.4114 37.9121)" class="st12 st13 st14">50 m</text>
		</g>
		<g>
			<rect x="110.2" y="76.8" class="st11" width="116" height="18.7"/>
			<text transform="matrix(1 0 0 1 174.5042 87.333)" class="st15 st16 st17">llegada </text>
		</g>
		<rect x="34.4" y="47.5" class="st11" width="116" height="18.7"/>
		<text transform="matrix(1 0 0 1 34.4124 57.9814)" class="st15 st16 st17">salida</text>
	</g>
	<g>
		<g>
			<g>
				<path class="st9" d="M276.3,416.4h181.5c3.3,0,6-2.7,6-6v0c0-3.3-2.7-6-6-6H282.3c-3.3,0-6-2.7-6-6s2.7-6,6-6h175.5
					c3.3,0,6-2.7,6-6v0c0-3.3-2.7-6-6-6H282.3c-3.3,0-6-2.7-6-6s2.7-6,6-6h175.5c3.3,0,6-2.7,6-6v0c0-3.3-2.7-6-6-6H282.3
					c-3.3,0-6-2.7-6-6s2.7-6,6-6h175.5c3.3,0,6-2.7,6-6v0c0-3.3-2.7-6-6-6H282.3c-3.3,0-6-2.7-6-6s2.7-6,6-6h175.5c3.3,0,6-2.7,6-6
					v0c0-3.3-2.7-6-6-6H282.3c-3.3,0-6-2.7-6-6s2.7-6,6-6h175.5c3.3,0,6-2.7,6-6v0c0-3.3-2.7-6-6-6H282.3c-3.3,0-6-2.7-6-6
					s2.7-6,6-6h175.5c3.3,0,6-2.7,6-6s-2.7-6-6-6H282.3c-3.3,0-6-2.7-6-6v0c0-3.3,2.7-6,6-6h175.5c3.3,0,6-2.7,6-6v0
					c0-3.3-2.7-6-6-6H282.3c-3.3,0-6-2.7-6-6v0c0-3.3,2.7-6,6-6h175.5c3.3,0,6-2.7,6-6v0c0-3.3-2.7-6-6-6H282.3c-3.3,0-6-2.7-6-6v0
					c0-3.3,2.7-6,6-6h175.5c3.3,0,6-2.7,6-6v0c0-3.3-2.7-6-6-6H282.3c-3.3,0-6-2.7-6-6v0c0-3.3,2.7-6,6-6h175.5c3.3,0,6-2.7,6-6
					s-2.7-6-6-6H282.3c-3.3,0-6-2.7-6-6s2.7-6,6-6h175.5c3.3,0,6-2.7,6-6s-2.7-6-6-6H282.3c-3.3,0-6-2.7-6-6s2.7-6,6-6h175.5
					c3.3,0,6-2.7,6-6v0c0-3.3-2.7-6-6-6H282.3c-3.3,0-6-2.7-6-6v0c0-3.3,2.7-6,6-6h175.5c3.3,0,6-2.7,6-6v0c0-3.3-2.7-6-6-6H282.3
					c-3.3,0-6-2.7-6-6v0c0-3.3,2.7-6,6-6h175.5c3.3,0,6-2.7,6-6v0c0-3.3-2.7-6-6-6H274.5"/>
				<g>
					<polygon class="st10" points="278.1,422.3 267.7,416.4 278.1,410.4 					"/>
				</g>
			</g>
		</g>
		<g>
			<rect x="273.4" y="24.4" class="st11" width="79.4" height="21.4"/>
			<text transform="matrix(1 0 0 1 273.3544 37.9116)" class="st12 st13 st14">1.500 m</text>
		</g>
		<g>
			<rect x="273.8" y="47.5" class="st11" width="116" height="18.7"/>
			<text transform="matrix(1 0 0 1 273.8417 57.9756)" class="st15 st16 st17">salida</text>
		</g>
		<g>
			<rect x="273.8" y="427.3" class="st11" width="95.3" height="31"/>
			<text transform="matrix(1 0 0 1 273.8417 437.7871)" class="st15 st16 st17">llegada</text>
		</g>
		<g>
			<rect x="370.3" y="434" class="st11" width="95.3" height="31"/>
			<text transform="matrix(1 0 0 1 386.705 447.4707)" class="st12 st13 st14">29 virajes</text>
		</g>
	</g>
</g>
</svg>
