<?xml version="1.0" encoding="utf-8"?>
<!-- Generator: Adobe Illustrator 27.3.1, SVG Export Plug-In . SVG Version: 6.00 Build 0)  -->
<svg version="1.1" id="Capa_1" xmlns="http://www.w3.org/2000/svg" xmlns:xlink="http://www.w3.org/1999/xlink" x="0px" y="0px"
	 viewBox="0 0 500 500" style="enable-background:new 0 0 500 500;" xml:space="preserve">
<style type="text/css">
	.st0{fill:none;stroke:#ECECEC;stroke-width:7.3943;stroke-miterlimit:10;}
	.st1{fill:#F2C5C1;}
	.st2{fill:#5D5C5B;}
	.st3{fill:none;stroke:#CD1719;stroke-width:1.8486;stroke-miterlimit:10;}
	.st4{fill:#CD1719;}
	.st5{fill:none;}
	.st6{enable-background:new    ;}
</style>
<g id="agua">
	<g>
		<g>
			<path class="st0" d="M712.1,30.3c-42,0-42-7.4-84-7.4s-42,7.4-84,7.4s-42-7.4-84-7.4s-42,7.4-84,7.4s-42-7.4-84-7.4
				s-42,7.4-84,7.4s-42-7.4-84-7.4s-42,7.4-84,7.4s-42-7.4-84-7.4s-42,7.4-84,7.4s-42-7.4-84-7.4"/>
		</g>
		<g>
			<path class="st0" d="M712.1,45.4c-42,0-42-7.4-84-7.4s-42,7.4-84,7.4s-42-7.4-84-7.4s-42,7.4-84,7.4s-42-7.4-84-7.4
				s-42,7.4-84,7.4s-42-7.4-84-7.4s-42,7.4-84,7.4s-42-7.4-84-7.4s-42,7.4-84,7.4s-42-7.4-84-7.4"/>
		</g>
		<g>
			<path class="st0" d="M712.1,60.6c-42,0-42-7.4-84-7.4s-42,7.4-84,7.4s-42-7.4-84-7.4s-42,7.4-84,7.4s-42-7.4-84-7.4
				s-42,7.4-84,7.4s-42-7.4-84-7.4s-42,7.4-84,7.4s-42-7.4-84-7.4s-42,7.4-84,7.4s-42-7.4-84-7.4"/>
		</g>
		<g>
			<path class="st0" d="M712.1,75.7c-42,0-42-7.4-84-7.4s-42,7.4-84,7.4s-42-7.4-84-7.4s-42,7.4-84,7.4s-42-7.4-84-7.4
				s-42,7.4-84,7.4s-42-7.4-84-7.4s-42,7.4-84,7.4s-42-7.4-84-7.4s-42,7.4-84,7.4s-42-7.4-84-7.4"/>
		</g>
		<g>
			<path class="st0" d="M712.1,90.8c-42,0-42-7.4-84-7.4s-42,7.4-84,7.4s-42-7.4-84-7.4s-42,7.4-84,7.4s-42-7.4-84-7.4
				s-42,7.4-84,7.4s-42-7.4-84-7.4s-42,7.4-84,7.4s-42-7.4-84-7.4s-42,7.4-84,7.4s-42-7.4-84-7.4"/>
		</g>
	</g>
</g>
<g id="nadadora-uno">
	<path class="st1" d="M278.2,53.6c0,0,4.1-4.1,12.6-1s-0.4-12.9-0.4-12.9l-8.9,2.6L278.2,53.6z"/>
	<g>
		<path class="st2" d="M298.9,44.9c10.1,1.2,9.6,10.2,9.6,10.3c1.3-0.7,2.3-1.4,3.1-2.3c4.1-4.8,2.5-13.1-2.6-17.4s-14-3.8-18.1,1
			c-0.8,0.9-1.2,2-1.5,3.2C289.8,41.1,291.3,44,298.9,44.9z"/>
		<path class="st1" d="M308.5,55.1c0-0.1,0.5-9.1-9.6-10.3c-7.6-0.9-9.2-3.8-9.5-5.2c-0.4,2.3-0.1,4.9,0,7.8
			c0.1,3.4-1.4,7.6,0.1,10.8c1.1,2.3,6.4-0.1,10.1,2.4c1.3,0.9,0.8-2.2,2.3-2.7C304.2,57.1,306.6,56.2,308.5,55.1z"/>
	</g>
	<path class="st2" d="M218.6,21.4c0.5-3.9,4.5-8.4,13.2-8.4s22.3,17.3,31.1,17.3c8.9,0,23.3,1.4,23.3,7.5S285.7,56,272.7,56
		c-21.5,0-20.3-18.2-35.4-18.2C222.2,37.7,217.8,27.5,218.6,21.4z"/>
	<path class="st1" d="M344,43.8c0,0,11.1,0,17.2,10.7c1.5,2.6-7.9-4.2-10.3-3.4c-1.8,0.5-0.3,1.9,0,2.5c0.3,0.8-1,1.4-1.6,0.8
		l-7.9-6.9c0,0-36.7-12.3-58.3-4c-11.3,4.4-8.9-8.4,3.3-11C297.5,30.1,308.2,31,344,43.8z"/>
	<path class="st1" d="M156.7,42c3,3.8,12.1-7.7,20.3-8.1s14.3,1.1,18.8-1.3c3.4-1.8,18.5-14.7,30.1-14.8c9.8-0.1,15.3,15.4-0.4,20.4
		c0,0-20,6.2-29.5,6.8c-9.5,0.5-27.5,0.6-36,4.6c-2.5,1.2-7.2,5.3-10.5,6.4c-5.4,1.8-4.2,7.1-9.3,7.1c-5.6,0,5.4-9.3,5.4-14.6
		C145.6,43.1,150.4,33.7,156.7,42z"/>
	<g>
		<g>
			<path class="st3" d="M331.2,58.6c-11.5,23.7-39.7,33.8-63.6,23.1"/>
			<g>
				<polygon class="st4" points="274.5,78 275,79.3 268.2,81.9 271.2,88.5 269.8,89.1 266.2,81 				"/>
			</g>
		</g>
	</g>
</g>
<g id="agua_00000021100680276302078550000012812856652892117934_">
	<g>
		<g>
			<path class="st0" d="M712.1,163.3c-42,0-42-7.4-84-7.4s-42,7.4-84,7.4s-42-7.4-84-7.4s-42,7.4-84,7.4s-42-7.4-84-7.4
				s-42,7.4-84,7.4s-42-7.4-84-7.4s-42,7.4-84,7.4s-42-7.4-84-7.4s-42,7.4-84,7.4s-42-7.4-84-7.4"/>
		</g>
		<g>
			<path class="st0" d="M712.1,178.4c-42,0-42-7.4-84-7.4s-42,7.4-84,7.4s-42-7.4-84-7.4s-42,7.4-84,7.4s-42-7.4-84-7.4
				s-42,7.4-84,7.4s-42-7.4-84-7.4s-42,7.4-84,7.4s-42-7.4-84-7.4s-42,7.4-84,7.4s-42-7.4-84-7.4"/>
		</g>
		<g>
			<path class="st0" d="M712.1,193.6c-42,0-42-7.4-84-7.4s-42,7.4-84,7.4s-42-7.4-84-7.4s-42,7.4-84,7.4s-42-7.4-84-7.4
				s-42,7.4-84,7.4s-42-7.4-84-7.4s-42,7.4-84,7.4s-42-7.4-84-7.4s-42,7.4-84,7.4s-42-7.4-84-7.4"/>
		</g>
		<g>
			<path class="st0" d="M712.1,208.7c-42,0-42-7.4-84-7.4s-42,7.4-84,7.4s-42-7.4-84-7.4s-42,7.4-84,7.4s-42-7.4-84-7.4
				s-42,7.4-84,7.4s-42-7.4-84-7.4s-42,7.4-84,7.4s-42-7.4-84-7.4s-42,7.4-84,7.4s-42-7.4-84-7.4"/>
		</g>
		<g>
			<path class="st0" d="M712.1,223.8c-42,0-42-7.4-84-7.4s-42,7.4-84,7.4s-42-7.4-84-7.4s-42,7.4-84,7.4s-42-7.4-84-7.4
				s-42,7.4-84,7.4s-42-7.4-84-7.4s-42,7.4-84,7.4s-42-7.4-84-7.4s-42,7.4-84,7.4s-42-7.4-84-7.4"/>
		</g>
	</g>
</g>
<g id="nadadora-dos_00000060752731244850674050000014983588345352823472_">
	<path class="st1" d="M316.3,168.5c0,0,7.1-5.1,15-9.3c8-4.2-9.8-8.4-9.8-8.4l-16.1,12.1L316.3,168.5z"/>
	<g>
		<path class="st2" d="M331.2,147.9c7.7-6.7,14-0.1,14-0.1c0.4-1.4,0.5-2.7,0.4-3.8c-0.8-6.3-7.9-10.7-14.6-9.9
			c-6.6,0.8-12.3,7.7-11.5,14c0.1,1.2,0.6,2.3,1.4,3.2C322.2,152.1,325.4,152.9,331.2,147.9z"/>
		<path class="st1" d="M345.2,147.8c-0.1-0.1-6.4-6.6-14,0.1c-5.8,5-9,4.2-10.2,3.5c1.4,1.9,3.5,3.4,5.7,5.3c2.6,2.2,4.7,6.2,8,7.2
			c2.4,0.7,4.3-4.8,8.5-5.8c1.5-0.4-1.1-2.1-0.4-3.5C343.8,152.3,344.7,149.9,345.2,147.8z"/>
	</g>
	<path class="st2" d="M245,174.2c-1.6-3.6-0.6-9.5,6.8-14.1s28,2.9,35.6-1.8s26.7-9.5,29.9-4.3s3.1,14.1-8,20.9
		c-18.3,11.4-26.8-4.7-39.7,3.3C256.7,186.2,247.5,179.9,245,174.2z"/>
	<path class="st1" d="M284.7,212.2c0,0-1.6,11.4-13.9,11.9c-3,0.1,4.1-6,4.5-8.6c0.3-1.8-2.5,0.4-3.1,0.4c-0.9-0.1-0.5-1.9,0.4-2.2
		l8.6-6.3c0,0,11.7-32.1,21.2-46.7c10.4-15.9,24.3-7,9.6,9.2C301.3,181.7,301.1,187.4,284.7,212.2z"/>
	<path class="st1" d="M181.3,162.1c-0.2,4.9,19.2,0.5,26.8,3.5s8.2,5.3,13.3,4.9c3.9-0.2,26.1-11.6,36.7-7
		c8.9,3.9,8.8,18.2-7.6,19.1c-8.5,0.4-25,5.6-33.8,2.1c-8.9-3.4-26.7-14.1-37.7-14.7c-2.8-0.2-8.9-0.5-12.2-1.9
		c-5.3-2.1-7.8,2.7-11.7-0.6c-4.3-3.6,10.1-3.6,13.6-7.7C172.1,155.8,181.8,151.7,181.3,162.1z"/>
	<g>
		<g>
			<path class="st3" d="M271.6,197c-23.6-11.5-33.7-39.7-23.1-63.6"/>
			<g>
				<polygon class="st4" points="252.3,140.3 251,140.8 248.4,133.9 241.8,137 241.2,135.6 249.3,131.9 				"/>
			</g>
		</g>
	</g>
</g>
<g id="agua_00000170962564589192699840000003779727756496242070_">
	<g>
		<g>
			<path class="st0" d="M712.1,296.3c-42,0-42-7.4-84-7.4s-42,7.4-84,7.4s-42-7.4-84-7.4s-42,7.4-84,7.4s-42-7.4-84-7.4
				s-42,7.4-84,7.4s-42-7.4-84-7.4s-42,7.4-84,7.4s-42-7.4-84-7.4s-42,7.4-84,7.4s-42-7.4-84-7.4"/>
		</g>
		<g>
			<path class="st0" d="M712.1,311.4c-42,0-42-7.4-84-7.4s-42,7.4-84,7.4s-42-7.4-84-7.4s-42,7.4-84,7.4s-42-7.4-84-7.4
				s-42,7.4-84,7.4s-42-7.4-84-7.4s-42,7.4-84,7.4s-42-7.4-84-7.4s-42,7.4-84,7.4s-42-7.4-84-7.4"/>
		</g>
		<g>
			<path class="st0" d="M712.1,326.6c-42,0-42-7.4-84-7.4s-42,7.4-84,7.4s-42-7.4-84-7.4s-42,7.4-84,7.4s-42-7.4-84-7.4
				s-42,7.4-84,7.4s-42-7.4-84-7.4s-42,7.4-84,7.4s-42-7.4-84-7.4s-42,7.4-84,7.4s-42-7.4-84-7.4"/>
		</g>
		<g>
			<path class="st0" d="M712.1,341.7c-42,0-42-7.4-84-7.4s-42,7.4-84,7.4s-42-7.4-84-7.4s-42,7.4-84,7.4s-42-7.4-84-7.4
				s-42,7.4-84,7.4s-42-7.4-84-7.4s-42,7.4-84,7.4s-42-7.4-84-7.4s-42,7.4-84,7.4s-42-7.4-84-7.4"/>
		</g>
		<g>
			<path class="st0" d="M712.1,356.9c-42,0-42-7.4-84-7.4s-42,7.4-84,7.4s-42-7.4-84-7.4s-42,7.4-84,7.4s-42-7.4-84-7.4
				s-42,7.4-84,7.4s-42-7.4-84-7.4s-42,7.4-84,7.4s-42-7.4-84-7.4s-42,7.4-84,7.4s-42-7.4-84-7.4"/>
		</g>
	</g>
</g>
<g id="nadadora-tres_00000129901018100316495090000004606238814546146444_">
	<path class="st1" d="M312.1,295.4c0,0,7.1-5.1,15-9.3c8-4.2-9.8-8.4-9.8-8.4l-6.3,5.8L312.1,295.4z"/>
	<g>
		<path class="st2" d="M324.5,274.7c5.7-8.4,13.5-3.8,13.5-3.7c0-1.4-0.2-2.7-0.6-3.8c-2.4-5.9-10.4-8.3-16.6-5.8
			s-9.9,10.6-7.5,16.5c0.5,1.1,1.2,2,2.1,2.8C316.9,281.1,320.3,281.1,324.5,274.7z"/>
		<path class="st1" d="M338.1,271c-0.1,0-7.9-4.7-13.5,3.7c-4.3,6.3-7.6,6.4-9,6c1.8,1.4,4.3,2.4,6.9,3.6c3.1,1.5,6.1,4.8,9.6,4.9
			c2.6,0.1,2.9-5.7,6.8-7.8c1.3-0.7-1.6-1.7-1.3-3.3C337.8,275.7,338.1,273.2,338.1,271z"/>
	</g>
	<path class="st2" d="M247.4,318.4c-2-3.3-1.8-9.3,4.9-14.8c6.8-5.5,28.2-0.7,35.1-6.3c6.9-5.6,25.5-18.3,29.4-13.6
		c3.8,4.7,4.5,19.1-5.6,27.3c-16.7,13.6-27.2-1.3-38.9,8.3C260.5,328.9,250.6,323.7,247.4,318.4z"/>
	<path class="st1" d="M259.6,290.6c0,0-9.4,6.7-18.2-1.9c-2.1-2.1,7.2-1.1,9.3-2.6c1.5-1-2-1.6-2.4-2c-0.6-0.7,1.1-1.6,1.8-1.3
		l10.5,1.9c0,0,15.8-19.7,50.2-6.8c17.7,6.7-1.4,15.9-15.9,8.3C280.7,278.9,277,285,259.6,290.6z"/>
	<path class="st1" d="M182.9,312.1c0.2,4.9,19.1-1.3,27,1.1c7.9,2.3,8.6,4.5,13.7,3.7c3.8-0.6,25-13.9,35.9-10.2
		c9.2,3.1,10.4,17.4-5.9,19.7c-8.4,1.2-24.4,7.8-33.5,5.2c-9.1-2.6-27.9-11.6-38.9-11.3c-2.8,0.1-8.9,0.3-12.3-0.8
		c-5.4-1.7-7.5,3.4-11.7,0.5c-4.6-3.2,9.7-4.5,12.8-8.8C173.2,306.7,182.5,301.7,182.9,312.1z"/>
	<g>
		<g>
			<path class="st3" d="M278.5,268.6c11.5-23.6,39.7-33.7,63.6-23.1"/>
			<g>
				<polygon class="st4" points="335.2,249.3 334.7,247.9 341.5,245.4 338.5,238.7 339.9,238.1 343.6,246.2 				"/>
			</g>
		</g>
	</g>
</g>
<g id="agua_00000162321352446162168990000012949264204339966876_">
	<g>
		<g>
			<path class="st0" d="M712.1,429.3c-42,0-42-7.4-84-7.4s-42,7.4-84,7.4s-42-7.4-84-7.4s-42,7.4-84,7.4s-42-7.4-84-7.4
				s-42,7.4-84,7.4s-42-7.4-84-7.4s-42,7.4-84,7.4s-42-7.4-84-7.4s-42,7.4-84,7.4s-42-7.4-84-7.4"/>
		</g>
		<g>
			<path class="st0" d="M712.1,444.4c-42,0-42-7.4-84-7.4s-42,7.4-84,7.4s-42-7.4-84-7.4s-42,7.4-84,7.4s-42-7.4-84-7.4
				s-42,7.4-84,7.4s-42-7.4-84-7.4s-42,7.4-84,7.4s-42-7.4-84-7.4s-42,7.4-84,7.4s-42-7.4-84-7.4"/>
		</g>
		<g>
			<path class="st0" d="M712.1,459.6c-42,0-42-7.4-84-7.4s-42,7.4-84,7.4s-42-7.4-84-7.4s-42,7.4-84,7.4s-42-7.4-84-7.4
				s-42,7.4-84,7.4s-42-7.4-84-7.4s-42,7.4-84,7.4s-42-7.4-84-7.4s-42,7.4-84,7.4s-42-7.4-84-7.4"/>
		</g>
		<g>
			<path class="st0" d="M712.1,474.7c-42,0-42-7.4-84-7.4s-42,7.4-84,7.4s-42-7.4-84-7.4s-42,7.4-84,7.4s-42-7.4-84-7.4
				s-42,7.4-84,7.4s-42-7.4-84-7.4s-42,7.4-84,7.4s-42-7.4-84-7.4s-42,7.4-84,7.4s-42-7.4-84-7.4"/>
		</g>
		<g>
			<path class="st0" d="M712.1,489.9c-42,0-42-7.4-84-7.4s-42,7.4-84,7.4s-42-7.4-84-7.4s-42,7.4-84,7.4s-42-7.4-84-7.4
				s-42,7.4-84,7.4s-42-7.4-84-7.4s-42,7.4-84,7.4s-42-7.4-84-7.4s-42,7.4-84,7.4s-42-7.4-84-7.4"/>
		</g>
	</g>
</g>
<g id="nadadora-cuatro_00000171688641318623287210000014515162489731761808_">
	<g>
		<path class="st1" d="M282.6,416.3c0,0,4.1-4.1,12.6-1s-0.4-12.9-0.4-12.9l-8.9,2.6L282.6,416.3z"/>
		<g>
			<path class="st2" d="M303.4,407.5c10.1,1.2,9.6,10.2,9.6,10.3c1.3-0.7,2.3-1.4,3.1-2.3c4.1-4.8,2.5-13.1-2.6-17.4s-14-3.8-18.1,1
				c-0.8,0.9-1.2,2-1.5,3.2C294.2,403.7,295.8,406.6,303.4,407.5z"/>
			<path class="st1" d="M312.9,417.8c0-0.1,0.5-9.1-9.6-10.3c-7.6-0.9-9.2-3.8-9.5-5.2c-0.4,2.3-0.1,4.9,0,7.8
				c0.1,3.4-1.4,7.6,0.1,10.8c1.1,2.3,6.4-0.1,10.1,2.4c1.3,0.9,0.8-2.2,2.3-2.7C308.6,419.7,311,418.9,312.9,417.8z"/>
		</g>
		<path class="st2" d="M223.5,431.1c-2.1-3.3-2.1-9.2,4.5-15c6.6-5.7,28.1-1.6,34.8-7.4s18.5-14.2,22.5-9.7
			c4,4.6,11.5,14.1,1.7,22.6c-16.2,14.1-27.2-0.4-38.7,9.5S226.9,436.3,223.5,431.1z"/>
		<path class="st1" d="M345.7,397.8c0,0,11-2,18.8,7.4c1.9,2.3-8.5-2.7-10.8-1.5c-1.6,0.9,0.1,1.9,0.4,2.5c0.5,0.7-0.7,1.6-1.5,1.1
			l-9-5.4c0,0-38.4-5.5-58,6.7c-10.4,6.4-14.8-5.1-3.3-9.9C293,394.2,308.1,391.7,345.7,397.8z"/>
		<path class="st1" d="M162.5,421.7c-0.9,4.8,6.6,4.4,15.1,6.5c8,2,17.1,11.2,21.6,8.7c3.4-1.8,19.6-20.1,31.1-20.2
			c9.8-0.1,16.2,18.3,0.5,23.3c0,0-22.2,11.4-31.6,12c-9.5,0.5-31.6-19.1-40.2-22.8c-2.6-1.1-8.7-1.8-11.8-3.6
			c-4.9-2.9-8.1,1.5-11.5-2.3c-3.7-4.2,10.5-2.1,14.5-5.6C154.4,414.1,164.5,411.5,162.5,421.7z"/>
		<g>
			<g>
				<path class="st3" d="M340.5,413.3c-3.8,26-27.6,44.2-53.6,41.2"/>
				<g>
					<polygon class="st4" points="292.3,448.9 293.2,450.1 287.5,454.5 292.4,460 291.3,460.9 285.3,454.3 					"/>
				</g>
			</g>
		</g>
	</g>
</g>
<rect x="37.3" y="45.6" class="st5" width="47.9" height="22.6"/>
<g class="st6">
	<path class="st4" d="M61.3,45.6c5.5,0,9.4,4.2,9.4,9.4c0,5.2-4,9.4-9.4,9.4c-5.4,0-9.4-4.2-9.4-9.4C51.9,49.7,55.8,45.6,61.3,45.6z
		 M64.5,57.5h-1.9v-7.1h-1.6l-2.5,1.1l0.2,1.6l2.1-0.9v5.3h-2.4v1.7h6.4L64.5,57.5z"/>
</g>
<rect x="37.3" y="178.6" class="st5" width="47.9" height="22.6"/>
<g class="st6">
	<path class="st4" d="M61.3,178.6c5.5,0,9.4,4.2,9.4,9.4c0,5.2-4,9.4-9.4,9.4c-5.4,0-9.4-4.2-9.4-9.4
		C51.9,182.7,55.8,178.6,61.3,178.6z M64.4,190.6h-4l2.3-1.7c1.2-0.9,1.9-1.8,1.9-3c0-1.5-1.4-2.6-3.2-2.6c-1.3,0-2.3,0.4-3.1,1
		l0.2,1.6c0.8-0.5,1.7-0.9,2.5-0.9c0.8,0,1.5,0.5,1.5,1.2c0,0.6-0.4,1.1-1.2,1.8l-3.3,2.8v1.5h6.6L64.4,190.6z"/>
</g>
<rect x="37.3" y="311.6" class="st5" width="47.9" height="22.6"/>
<g class="st6">
	<path class="st4" d="M61.3,311.6c5.5,0,9.4,4.2,9.4,9.4c0,5.2-4,9.4-9.4,9.4c-5.4,0-9.4-4.2-9.4-9.4
		C51.9,315.7,55.8,311.6,61.3,311.6z M62.8,320.7L62.8,320.7c1.1-0.4,1.8-1,1.8-2c0-1.4-1.2-2.3-3.3-2.3c-1.1,0-2.2,0.4-2.9,0.8
		l0.2,1.5c0.7-0.5,1.6-0.8,2.5-0.8c1,0,1.6,0.4,1.6,1c0,0.6-0.7,1.1-2.1,1.1h-1l0.2,1.4h0.7c1.6,0,2.4,0.4,2.4,1.2
		c0,0.7-0.7,1.2-1.8,1.2c-0.9,0-1.8-0.2-2.5-0.7l-0.3,1.5c0.8,0.4,1.9,0.7,3,0.7c2.1,0,3.6-0.9,3.6-2.6
		C64.7,321.7,64,320.9,62.8,320.7z"/>
</g>
<rect x="37.3" y="444.6" class="st5" width="47.9" height="22.6"/>
<g class="st6">
	<path class="st4" d="M61.3,444.6c5.5,0,9.4,4.2,9.4,9.4c0,5.2-4,9.4-9.4,9.4c-5.4,0-9.4-4.2-9.4-9.4
		C51.9,448.7,55.8,444.6,61.3,444.6z M64.8,455h-1.4v-5.5h-2.2l-4,5.5v1.3h4.5v1.8h1.8v-1.8h1.4V455z M60.1,455l-1.3,0.1l1-1.4
		l0.9-1.2l1.1-1.6l-0.1,1.8v2.3H60.1z"/>
</g>
</svg>
