<?xml version="1.0" encoding="utf-8"?>
<!-- Generator: Adobe Illustrator 27.3.1, SVG Export Plug-In . SVG Version: 6.00 Build 0)  -->
<svg version="1.1" id="Capa_1" xmlns="http://www.w3.org/2000/svg" xmlns:xlink="http://www.w3.org/1999/xlink" x="0px" y="0px"
	 viewBox="0 0 500 500" style="enable-background:new 0 0 500 500;" xml:space="preserve">
<style type="text/css">
	.st0{fill:none;}
	.st1{fill:#1D1D1B;}
	.st2{font-family:'Roboto-Light';}
	.st3{font-size:16px;}
	.st4{font-family:'Roboto-Regular';}
	.st5{fill:none;stroke:#1D1D1B;stroke-miterlimit:10;}
	.st6{fill:none;stroke:#D0D0D0;stroke-miterlimit:10;stroke-dasharray:2,2;}
	.st7{fill:#F96A33;}
	.st8{fill:#F9AE33;}
	.st9{fill:#B4B4B3;}
</style>
<g>
	<g>
		<rect x="62.6" y="31.4" transform="matrix(0.7071 -0.7071 0.7071 0.7071 -0.5035 92.6059)" class="st0" width="98" height="31"/>
		<text transform="matrix(0.7071 -0.7071 0.7071 0.7071 74.429 79.076)" class="st1 st2 st3">1.500 m</text>
		
			<rect x="123.2" y="37.5" transform="matrix(0.7071 -0.7071 0.7071 0.7071 10.4309 131.1938)" class="st0" width="80.7" height="31"/>
		<text transform="matrix(0.7071 -0.7071 0.7071 0.7071 132.5703 79.0749)" class="st1 st2 st3">800 m</text>
		
			<rect x="184.2" y="37.5" transform="matrix(0.7071 -0.7071 0.7071 0.7071 28.2815 174.2889)" class="st0" width="80.7" height="31"/>
		<text transform="matrix(0.7071 -0.7071 0.7071 0.7071 193.5163 79.0753)" class="st1 st2 st3">400 m</text>
		<rect x="259.3" y="127.3" class="st0" width="149.6" height="256.6"/>
		<text transform="matrix(1 0 0 1 259.3085 139.3251)"><tspan x="0" y="0" class="st1 st4 st3">Lima 2019</tspan><tspan x="0" y="51.2" class="st1 st4 st3">Toronto 2015 </tspan><tspan x="0" y="102.4" class="st1 st4 st3">Guadalajara 2011</tspan><tspan x="0" y="153.6" class="st1 st4 st3">Río de Janeiro 2007</tspan><tspan x="0" y="204.7" class="st1 st4 st3">Santo Domingo 2003 </tspan></text>
		<line class="st5" x1="227" y1="383.9" x2="227" y2="95.5"/>
		<g>
			<line class="st5" x1="227" y1="136.6" x2="242.9" y2="136.6"/>
			<line class="st5" x1="227" y1="188.1" x2="242.9" y2="188.1"/>
			<line class="st5" x1="227" y1="239.7" x2="242.9" y2="239.7"/>
			<line class="st5" x1="227" y1="291.2" x2="242.9" y2="291.2"/>
			<line class="st5" x1="227" y1="342.8" x2="242.9" y2="342.8"/>
		</g>
		<g>
			<line class="st6" x1="75.6" y1="384.6" x2="75.6" y2="95.5"/>
			<line class="st6" x1="135.1" y1="384.6" x2="135.1" y2="95.5"/>
			<line class="st6" x1="194.7" y1="384.6" x2="194.7" y2="95.5"/>
		</g>
		<g>
			<circle class="st7" cx="135.1" cy="342.8" r="16.5"/>
		</g>
		<g>
			<circle class="st8" cx="135.1" cy="291.2" r="16.5"/>
		</g>
		<g>
			<circle class="st9" cx="135.1" cy="188.1" r="16.5"/>
		</g>
		<g>
			<circle class="st9" cx="75.6" cy="136.6" r="16.5"/>
		</g>
		<g>
			<circle class="st7" cx="194.7" cy="239.7" r="16.5"/>
		</g>
	</g>
	<g>
		<g>
			<g>
				<g>
					<text transform="matrix(1 0 0 1 356.5747 471.4065)" class="st1 st2 st3">Bronce</text>
				</g>
			</g>
			<g>
				<g>
					<text transform="matrix(1 0 0 1 245.4559 471.4065)" class="st1 st2 st3">Plata</text>
				</g>
			</g>
			<g>
				<g>
					<text transform="matrix(1 0 0 1 134.3371 471.2727)" class="st1 st2 st3">Oro</text>
				</g>
			</g>
			<circle class="st7" cx="331.9" cy="462.9" r="15.5"/>
			<circle class="st9" cx="220.8" cy="462.9" r="15.5"/>
			<circle class="st8" cx="109.7" cy="462.9" r="15.5"/>
		</g>
	</g>
</g>
</svg>
