<?xml version="1.0" encoding="utf-8"?>
<!-- Generator: Adobe Illustrator 27.3.1, SVG Export Plug-In . SVG Version: 6.00 Build 0)  -->
<svg version="1.1" id="Capa_1" xmlns="http://www.w3.org/2000/svg" xmlns:xlink="http://www.w3.org/1999/xlink" x="0px" y="0px"
	 viewBox="0 0 500 1600" style="enable-background:new 0 0 500 1600;" xml:space="preserve">
<style type="text/css">
	.st0{fill:none;stroke:#000000;stroke-linecap:round;stroke-miterlimit:10;}
	.st1{fill:none;stroke:#000000;stroke-linecap:round;stroke-miterlimit:10;stroke-dasharray:3.0051,4.0068;}
	.st2{fill:none;stroke:#000000;stroke-linecap:round;stroke-miterlimit:10;stroke-dasharray:3.0421,4.0561;}
	.st3{fill:none;stroke:#000000;stroke-linecap:round;stroke-miterlimit:10;stroke-dasharray:3.1037,4.1383;}
	.st4{fill:none;stroke:#000000;stroke-linecap:round;stroke-miterlimit:10;stroke-dasharray:3.0883,4.1177;}
	.st5{fill:#1D1D1B;}
	.st6{font-family:'Roboto-Light';}
	.st7{font-size:12.5px;}
	.st8{fill:#F96A33;}
	.st9{fill:#B4B4B3;}
	.st10{fill:#F9AE33;}
	.st11{fill:#DD6F53;}
	.st12{fill:#F2C5C1;}
	.st13{font-family:'Roboto-Regular';}
	.st14{font-size:16px;}
	.st15{fill:#FFFFFF;}
	.st16{fill:#4B4B4B;}
	.st17{fill:#757575;}
	.st18{fill:#CACACA;}
	.st19{fill:#474747;}
	.st20{fill:#767676;}
	.st21{fill:#191919;}
	.st22{fill:none;stroke:#000000;stroke-width:2;stroke-miterlimit:10;}
	.st23{font-family:'Roboto-Bold';}
	.st24{font-size:20px;}
	.st25{font-size:13.5px;}
	.st26{font-size:15px;}
	.st27{fill:none;stroke:#000000;stroke-width:0.75;stroke-linecap:round;stroke-miterlimit:10;}
</style>
<g>
	<g>
		<line class="st0" x1="150.71" y1="373.49" x2="151.46" y2="372.19"/>
		<line class="st1" x1="153.46" y1="368.72" x2="187.5" y2="309.72"/>
		<line class="st0" x1="188.5" y1="307.98" x2="189.25" y2="306.68"/>
	</g>
</g>
<g>
	<g>
		<line class="st0" x1="150.71" y1="722.34" x2="151.46" y2="721.04"/>
		<line class="st2" x1="153.49" y1="717.53" x2="195.04" y2="645.5"/>
		<line class="st0" x1="196.05" y1="643.75" x2="196.8" y2="642.45"/>
	</g>
</g>
<g>
	<g>
		<line class="st0" x1="150.71" y1="1068.65" x2="151.46" y2="1067.35"/>
		<line class="st3" x1="153.53" y1="1063.77" x2="199.54" y2="984.01"/>
		<line class="st0" x1="200.57" y1="982.22" x2="201.32" y2="980.92"/>
	</g>
</g>
<g>
	<g>
		<line class="st0" x1="249.82" y1="1454.26" x2="249.82" y2="1452.76"/>
		<line class="st4" x1="249.84" y1="1448.65" x2="249.99" y2="1407.47"/>
		<line class="st0" x1="249.99" y1="1405.41" x2="250" y2="1403.91"/>
	</g>
</g>
<g>
	<g>
		<g>
			<g>
				<text transform="matrix(1 0 0 1 210.0206 25.7218)" class="st5 st6 st7">Bronce</text>
			</g>
		</g>
		<g>
			<g>
				<text transform="matrix(1 0 0 1 134.9733 25.7218)" class="st5 st6 st7">Plata</text>
			</g>
		</g>
		<g>
			<g>
				<text transform="matrix(1 0 0 1 59.9264 25.6505)" class="st5 st6 st7">Oro</text>
			</g>
		</g>
		<circle class="st8" cx="191.59" cy="21.21" r="8.26"/>
		<circle class="st9" cx="116.54" cy="21.21" r="8.26"/>
		<circle class="st10" cx="41.49" cy="21.21" r="8.26"/>
	</g>
	<g>
		<g>
			<g>
				<text transform="matrix(1 0 0 1 415.9278 25.7218)" class="st5 st6 st7">Hombres</text>
			</g>
		</g>
		<g>
			<g>
				<text transform="matrix(1 0 0 1 328.3731 25.6505)" class="st5 st6 st7">Mujeres</text>
			</g>
		</g>
		<circle class="st11" cx="397.49" cy="21.21" r="8.26"/>
		<circle class="st12" cx="309.93" cy="21.21" r="8.26"/>
	</g>
</g>
<g>
	<g>
		<text transform="matrix(1 0 0 1 62.0367 633.5731)" class="st5 st13 st14">Canadá</text>
	</g>
	<g>
		<rect x="71.41" y="572.09" class="st15" width="29.98" height="38.02"/>
		<polyline class="st16" points="89.85,588.67 93.23,585.19 94.33,587.17 97.55,586.29 96.57,590.43 97.87,591.43 92.09,596.43 
			92.77,598.75 86.77,598.03 86.87,604.21 85.89,604.25 85.99,598.03 80.11,598.69 80.53,596.37 75.01,591.25 76.09,590.43 
			75.15,586.35 78.55,587.07 79.49,585.37 82.91,588.67 81.67,581.07 83.95,582.49 86.29,577.63 88.69,582.45 91.05,581.07 
			89.85,588.67 		"/>
		<rect x="56.41" y="572.05" class="st16" width="15" height="38.08"/>
		<rect x="101.41" y="572.11" class="st16" width="15" height="38.08"/>
	</g>
</g>
<g>
	<g>
		<text transform="matrix(1 0 0 1 47.8752 1323.4484)" class="st5 st13 st14">19 países</text>
		<text transform="matrix(1 0 0 1 49.5549 1339.4484)" class="st5 st13 st14">restantes</text>
	</g>
</g>
<g>
	<g>
		<text transform="matrix(1 0 0 1 76.4649 969.7839)" class="st5 st13 st14">Brasil</text>
	</g>
	<g>
		<g>
			<g>
				<rect x="56.41" y="905.15" class="st17" width="60" height="40.42"/>
			</g>
			<g>
				<polygon class="st18" points="61.51,925.39 86.39,910.09 111.35,925.39 86.39,940.65 				"/>
			</g>
			<g>
				<path class="st19" d="M86.41,935.47c5.8,0,10.5-4.52,10.5-10.1c0-5.58-4.7-10.1-10.5-10.1s-10.5,4.52-10.5,10.1
					S80.61,935.47,86.41,935.47z"/>
			</g>
			<g>
				<path class="st15" d="M76.21,922.95c1.3-0.2,2.58-0.28,3.92-0.28c6.18,0,11.88,2.08,16.34,5.56l0.02,0.02
					c0.16-0.56,0.3-1.16,0.36-1.74l-0.02-0.02c-4.46-3.48-10.16-5.58-16.36-5.58c-1.2,0-2.38,0.08-3.54,0.24h-0.04
					C76.59,921.71,76.37,922.31,76.21,922.95L76.21,922.95z"/>
			</g>
			<g>
				<g>
					<path class="st20" d="M78.19,921.85c-0.02-0.22-0.16-0.28-0.26-0.26c-0.1,0-0.22,0.08-0.2,0.3c0.02,0.22,0.16,0.28,0.24,0.26
						C78.07,922.13,78.21,922.07,78.19,921.85l0.18-0.02c0.02,0.38-0.26,0.44-0.38,0.46c-0.12,0.02-0.42-0.02-0.44-0.4
						c-0.02-0.38,0.26-0.44,0.38-0.46c0.12,0,0.42,0.02,0.44,0.4L78.19,921.85z"/>
				</g>
				<g>
					<path class="st20" d="M79.31,921.53c0.1,0,0.12,0.06,0.12,0.1c0,0.08-0.04,0.12-0.14,0.12h-0.2v-0.22H79.31l0.02-0.14
						l-0.42,0.02l0.02,0.82h0.18v-0.32h0.18c0.12,0,0.14,0.04,0.14,0.14c0,0.08,0.02,0.12,0.02,0.16h0.2v-0.02
						c-0.04-0.02-0.04-0.04-0.04-0.16c0-0.16-0.04-0.18-0.12-0.2c0.08-0.02,0.12-0.1,0.12-0.2c0-0.06-0.06-0.22-0.28-0.22
						L79.31,921.53z"/>
				</g>
				<g>
					<path class="st20" d="M80.53,921.49c0.08,0,0.2,0.02,0.2,0.26c0,0.12-0.06,0.26-0.2,0.26h-0.18v-0.54L80.53,921.49l0.04-0.16
						h-0.38v0.82h0.36c0.28,0,0.36-0.26,0.36-0.42s-0.06-0.38-0.34-0.38L80.53,921.49z"/>
				</g>
				<g>
					<polygon class="st20" points="82.07,921.57 81.63,921.55 81.63,921.71 82.03,921.73 82.03,921.87 81.61,921.85 81.61,922.07 
						82.07,922.09 82.07,922.23 81.43,922.21 81.47,921.39 82.09,921.43 					"/>
				</g>
				<g>
					<polygon class="st20" points="83.41,922.35 83.25,922.33 83.31,921.65 83.31,921.65 83.11,922.13 82.93,922.13 82.83,921.61 
						82.83,921.61 82.77,922.29 82.59,922.27 82.67,921.47 82.93,921.49 83.05,921.97 83.05,921.97 83.25,921.51 83.49,921.53 					
						"/>
				</g>
				<g>
					<polygon class="st20" points="84.97,922.15 84.67,922.11 84.65,922.21 84.93,922.25 84.91,922.35 84.65,922.31 84.61,922.45 
						84.91,922.49 84.91,922.57 84.49,922.51 84.57,921.99 84.97,922.05 					"/>
				</g>
				<g>
					<path class="st20" d="M86.51,922.49l0.16,0.04v0.14l-0.2-0.04l-0.08,0.28l-0.18-0.04l0.2-0.78l0.38,0.08
						c0.16,0.04,0.24,0.16,0.2,0.32c-0.02,0.08-0.1,0.24-0.32,0.2v-0.14c0.12,0.02,0.14-0.06,0.16-0.1
						c0.02-0.08-0.02-0.12-0.12-0.14l-0.14-0.02L86.51,922.49"/>
				</g>
				<g>
					<path class="st20" d="M87.87,922.83l-0.2-0.06l0.06-0.2l0.22,0.06c0.1,0.02,0.1,0.1,0.08,0.14
						C88.01,922.83,87.97,922.85,87.87,922.83l-0.06,0.12c0.12,0.04,0.12,0.08,0.08,0.18c-0.02,0.08-0.04,0.12-0.04,0.16l0.18,0.06
						v-0.02c-0.02-0.02-0.02-0.06,0.02-0.16c0.04-0.14,0.02-0.18-0.04-0.22c0.08,0,0.16-0.06,0.18-0.16
						c0.02-0.06,0.02-0.24-0.18-0.28l-0.42-0.12l-0.24,0.78l0.16,0.04l0.1-0.3l0.18,0.06L87.87,922.83z"/>
				</g>
				<g>
					<path class="st20" d="M88.85,923.17c-0.06,0.2,0.02,0.32,0.1,0.34c0.1,0.02,0.24,0.02,0.32-0.2c0.08-0.22-0.02-0.3-0.12-0.34
						C89.07,922.95,88.93,922.95,88.85,923.17l-0.18-0.06c0.14-0.36,0.42-0.3,0.54-0.26c0.1,0.04,0.36,0.18,0.24,0.54
						c-0.14,0.36-0.42,0.3-0.54,0.28c-0.1-0.04-0.36-0.18-0.24-0.54L88.85,923.17z"/>
				</g>
				<g>
					<path class="st20" d="M90.33,923.69l0.32,0.14l-0.18,0.4l-0.1-0.04l0.02-0.1c-0.06,0.02-0.16,0.08-0.3,0.02
						c-0.18-0.08-0.3-0.28-0.18-0.54c0.08-0.2,0.3-0.34,0.56-0.24c0.24,0.1,0.28,0.28,0.24,0.4l-0.16-0.06
						c0.02-0.02,0-0.14-0.12-0.2c-0.12-0.04-0.26-0.02-0.34,0.18c-0.08,0.2,0,0.3,0.12,0.34c0.04,0.02,0.16,0.06,0.26-0.08
						l-0.18-0.08L90.33,923.69z"/>
				</g>
				<g>
					<path class="st20" d="M91.53,924.17c0.08,0.04,0.14,0.04,0.18-0.04c0.02-0.04,0.02-0.1-0.06-0.14l-0.2-0.1l-0.1,0.2
						L91.53,924.17l-0.08,0.12l-0.16-0.08l-0.14,0.28l-0.16-0.08l0.36-0.74l0.38,0.18c0.2,0.1,0.16,0.26,0.14,0.32
						c-0.04,0.08-0.12,0.12-0.2,0.12c0.04,0.06,0.08,0.1,0,0.22c-0.06,0.1-0.06,0.14-0.04,0.16v0.02l-0.18-0.08
						c0-0.04,0.02-0.08,0.06-0.16c0.06-0.1,0.06-0.14-0.06-0.2L91.53,924.17z"/>
				</g>
				<g>
					<polygon class="st20" points="92.99,924.65 92.59,924.45 92.51,924.59 92.87,924.79 92.79,924.91 92.43,924.73 92.33,924.91 
						92.73,925.13 92.67,925.25 92.11,924.95 92.51,924.25 93.05,924.53 					"/>
				</g>
				<g>
					<path class="st20" d="M93.37,925.35c-0.02,0.04-0.06,0.12,0.08,0.2c0.06,0.04,0.16,0.08,0.2,0c0.04-0.06-0.02-0.1-0.08-0.16
						l-0.06-0.06c-0.1-0.1-0.2-0.18-0.1-0.34c0.06-0.08,0.18-0.18,0.42-0.06c0.22,0.12,0.2,0.3,0.14,0.38l-0.14-0.08
						c0.02-0.04,0.04-0.12-0.08-0.18c-0.06-0.04-0.14-0.06-0.18,0s0,0.1,0.04,0.12l0.14,0.14c0.08,0.08,0.16,0.18,0.08,0.3
						c-0.14,0.2-0.36,0.1-0.42,0.06c-0.26-0.16-0.22-0.32-0.16-0.42L93.37,925.35z"/>
				</g>
				<g>
					<path class="st20" d="M94.37,925.97c-0.02,0.04-0.06,0.12,0.08,0.2c0.06,0.04,0.16,0.08,0.2,0c0.04-0.06,0-0.1-0.06-0.16
						l-0.06-0.06c-0.1-0.1-0.2-0.2-0.08-0.34c0.06-0.08,0.18-0.18,0.42-0.04c0.22,0.14,0.18,0.32,0.12,0.4l-0.14-0.1
						c0.02-0.04,0.06-0.12-0.08-0.2c-0.06-0.04-0.14-0.06-0.18,0s0,0.1,0.02,0.12l0.14,0.14c0.08,0.08,0.14,0.18,0.06,0.3
						c-0.14,0.2-0.38,0.08-0.44,0.04c-0.26-0.16-0.2-0.34-0.14-0.42L94.37,925.97z"/>
				</g>
				<g>
					<path class="st20" d="M95.45,926.49c-0.14,0.18-0.06,0.3,0,0.36c0.08,0.06,0.22,0.08,0.36-0.1s0.06-0.3,0-0.36
						C95.75,926.35,95.61,926.31,95.45,926.49l-0.14-0.1c0.24-0.3,0.5-0.18,0.6-0.12c0.08,0.06,0.3,0.28,0.06,0.58
						c-0.24,0.3-0.5,0.18-0.6,0.1c-0.1-0.06-0.3-0.26-0.06-0.58L95.45,926.49z"/>
				</g>
			</g>
			<g>
				<g>
					<polygon class="st15" points="82.53,930.21 82.41,930.55 82.05,930.55 82.35,930.77 82.23,931.09 82.53,930.89 82.83,931.09 
						82.71,930.77 83.01,930.55 82.63,930.55 					"/>
				</g>
				<g>
					<polygon class="st15" points="86.51,929.51 86.41,929.77 86.13,929.77 86.35,929.95 86.27,930.21 86.51,930.05 86.75,930.21 
						86.65,929.95 86.89,929.77 86.59,929.77 					"/>
				</g>
				<g>
					<polygon class="st15" points="92.59,930.71 92.51,930.93 92.27,930.93 92.47,931.07 92.39,931.29 92.59,931.15 92.79,931.29 
						92.71,931.07 92.91,930.93 92.67,930.93 					"/>
				</g>
				<g>
					<polygon class="st15" points="79.11,927.17 78.99,927.51 78.63,927.51 78.93,927.71 78.81,928.05 79.11,927.83 79.41,928.05 
						79.29,927.71 79.59,927.51 79.21,927.51 					"/>
				</g>
				<g>
					<polygon class="st15" points="77.93,923.07 77.83,923.41 77.45,923.41 77.75,923.61 77.63,923.95 77.93,923.73 78.23,923.95 
						78.11,923.61 78.41,923.41 78.05,923.41 					"/>
				</g>
				<g>
					<polygon class="st15" points="89.27,924.49 89.17,924.75 88.87,924.75 89.11,924.93 89.03,925.19 89.27,925.03 89.51,925.19 
						89.41,924.93 89.65,924.75 89.35,924.75 					"/>
				</g>
				<g>
					<polygon class="st15" points="89.77,921.51 89.67,921.79 89.37,921.79 89.61,921.95 89.53,922.23 89.77,922.05 90.01,922.23 
						89.91,921.95 90.15,921.79 89.85,921.79 					"/>
				</g>
				<g>
					<polygon class="st15" points="95.39,928.51 95.31,928.77 95.01,928.77 95.25,928.95 95.15,929.21 95.39,929.05 95.63,929.21 
						95.55,928.95 95.79,928.77 95.49,928.77 					"/>
				</g>
				<g>
					<polygon class="st15" points="94.01,928.41 93.89,928.75 93.53,928.75 93.83,928.95 93.71,929.29 94.01,929.07 94.31,929.29 
						94.19,928.95 94.49,928.75 94.11,928.75 					"/>
				</g>
				<g>
					<polygon class="st15" points="93.51,930.17 93.39,930.51 93.03,930.51 93.31,930.73 93.21,931.05 93.51,930.85 93.79,931.05 
						93.69,930.73 93.99,930.51 93.61,930.51 					"/>
				</g>
				<g>
					<polygon class="st15" points="94.21,929.45 94.11,929.79 93.73,929.79 94.03,929.99 93.91,930.33 94.21,930.13 94.51,930.33 
						94.39,929.99 94.69,929.79 94.33,929.79 					"/>
				</g>
				<g>
					<polygon class="st15" points="86.71,926.49 86.63,926.77 86.33,926.77 86.57,926.93 86.47,927.21 86.71,927.03 86.95,927.21 
						86.87,926.93 87.11,926.77 86.81,926.77 					"/>
				</g>
				<g>
					<polygon class="st15" points="87.87,927.65 87.79,927.93 87.49,927.93 87.73,928.09 87.63,928.37 87.87,928.19 88.11,928.37 
						88.03,928.09 88.27,927.93 87.97,927.93 					"/>
				</g>
				<g>
					<polygon class="st15" points="91.97,932.39 91.87,932.67 91.57,932.67 91.81,932.83 91.73,933.11 91.97,932.93 92.21,933.11 
						92.11,932.83 92.35,932.67 92.05,932.67 					"/>
				</g>
				<g>
					<polygon class="st15" points="91.75,930.79 91.69,931.01 91.45,931.01 91.63,931.15 91.57,931.37 91.75,931.23 91.95,931.37 
						91.87,931.15 92.07,931.01 91.83,931.01 					"/>
				</g>
				<g>
					<polygon class="st15" points="85.33,927.71 85.25,927.91 85.01,927.91 85.21,928.05 85.13,928.27 85.33,928.13 85.53,928.27 
						85.45,928.05 85.65,927.91 85.41,927.91 					"/>
				</g>
				<g>
					<polygon class="st15" points="82.83,925.53 82.75,925.75 82.51,925.75 82.71,925.89 82.63,926.11 82.83,925.97 83.01,926.11 
						82.95,925.89 83.13,925.75 82.89,925.75 					"/>
				</g>
				<g>
					<polygon class="st15" points="90.47,930.75 90.37,931.03 90.09,931.03 90.33,931.19 90.23,931.47 90.47,931.29 90.71,931.47 
						90.63,931.19 90.85,931.03 90.57,931.03 					"/>
				</g>
				<g>
					<polygon class="st15" points="88.85,930.75 88.75,931.03 88.45,931.03 88.69,931.19 88.61,931.47 88.85,931.29 89.09,931.47 
						88.99,931.19 89.23,931.03 88.93,931.03 					"/>
				</g>
				<g>
					<polygon class="st15" points="89.63,931.83 89.55,932.11 89.25,932.11 89.49,932.27 89.39,932.55 89.63,932.37 89.87,932.55 
						89.79,932.27 90.03,932.11 89.73,932.11 					"/>
				</g>
				<g>
					<polygon class="st15" points="91.93,931.51 91.83,931.79 91.55,931.79 91.79,931.95 91.69,932.23 91.93,932.05 92.17,932.23 
						92.09,931.95 92.33,931.79 92.03,931.79 					"/>
				</g>
				<g>
					<polygon class="st15" points="86.41,933.05 86.33,933.27 86.09,933.27 86.29,933.39 86.23,933.61 86.41,933.49 86.61,933.61 
						86.53,933.39 86.73,933.27 86.49,933.27 					"/>
				</g>
				<g>
					<polygon class="st15" points="86.05,928.39 86.01,928.55 85.83,928.55 85.97,928.65 85.91,928.81 86.05,928.71 86.21,928.81 
						86.15,928.65 86.29,928.55 86.11,928.55 					"/>
				</g>
				<g>
					<polygon class="st15" points="80.11,926.59 80.05,926.75 79.89,926.75 80.03,926.85 79.97,927.01 80.11,926.91 80.25,927.01 
						80.19,926.85 80.33,926.75 80.17,926.75 					"/>
				</g>
				<g>
					<polygon class="st15" points="80.45,928.21 80.37,928.49 80.07,928.49 80.31,928.65 80.21,928.93 80.45,928.75 80.69,928.93 
						80.61,928.65 80.85,928.49 80.55,928.49 					"/>
				</g>
				<g>
					<polygon class="st15" points="78.33,928.53 78.23,928.79 77.93,928.79 78.17,928.97 78.09,929.23 78.33,929.07 78.57,929.23 
						78.47,928.97 78.71,928.79 78.41,928.79 					"/>
				</g>
				<g>
					<polygon class="st15" points="79.89,929.51 79.85,929.67 79.67,929.67 79.81,929.77 79.75,929.93 79.89,929.83 80.03,929.93 
						79.99,929.77 80.13,929.67 79.95,929.67 					"/>
				</g>
			</g>
		</g>
	</g>
</g>
<g>
	<g>
		<g>
			<g>
				<rect x="56.41" y="159.08" class="st15" width="60" height="38.32"/>
			</g>
			<g>
				<g>
					<rect x="80.41" y="159.06" class="st16" width="36" height="2.96"/>
				</g>
				<g>
					<rect x="80.41" y="164.96" class="st16" width="36" height="2.96"/>
				</g>
				<g>
					<rect x="80.41" y="170.86" class="st16" width="36" height="2.96"/>
				</g>
				<g>
					<rect x="80.41" y="176.76" class="st16" width="36" height="2.96"/>
				</g>
				<g>
					<rect x="56.41" y="182.66" class="st16" width="60" height="2.96"/>
				</g>
				<g>
					<rect x="56.41" y="188.56" class="st16" width="60" height="2.96"/>
				</g>
				<g>
					<rect x="56.41" y="194.46" class="st16" width="60" height="2.96"/>
				</g>
			</g>
			<g>
				<rect x="56.41" y="159.08" class="st21" width="24" height="20.64"/>
			</g>
			<g>
				<g>
					<polygon class="st15" points="58.35,159.86 58.13,160.68 57.43,160.68 58.01,161.18 57.79,161.98 58.35,161.48 58.91,161.98 
						58.71,161.18 59.27,160.68 58.57,160.68 					"/>
				</g>
				<g>
					<polygon class="st15" points="62.37,159.86 62.15,160.68 61.45,160.68 62.03,161.18 61.81,161.98 62.37,161.48 62.95,161.98 
						62.73,161.18 63.29,160.68 62.59,160.68 					"/>
				</g>
				<g>
					<polygon class="st15" points="66.39,159.86 66.19,160.68 65.49,160.68 66.05,161.18 65.83,161.98 66.39,161.48 66.97,161.98 
						66.75,161.18 67.31,160.68 66.61,160.68 					"/>
				</g>
				<g>
					<polygon class="st15" points="70.43,159.86 70.21,160.68 69.51,160.68 70.07,161.18 69.85,161.98 70.43,161.48 70.99,161.98 
						70.77,161.18 71.35,160.68 70.65,160.68 					"/>
				</g>
				<g>
					<polygon class="st15" points="74.45,159.86 74.23,160.68 73.53,160.68 74.09,161.18 73.89,161.98 74.45,161.48 75.01,161.98 
						74.79,161.18 75.37,160.68 74.67,160.68 					"/>
				</g>
				<g>
					<polygon class="st15" points="78.47,159.86 78.25,160.68 77.55,160.68 78.13,161.18 77.91,161.98 78.47,161.48 79.03,161.98 
						78.83,161.18 79.39,160.68 78.69,160.68 					"/>
				</g>
				<g>
					<polygon class="st15" points="60.37,161.98 60.15,162.8 59.45,162.8 60.01,163.3 59.79,164.1 60.37,163.6 60.93,164.1 
						60.71,163.3 61.29,162.8 60.57,162.8 					"/>
				</g>
				<g>
					<polygon class="st15" points="64.39,161.98 64.17,162.8 63.47,162.8 64.03,163.3 63.83,164.1 64.39,163.6 64.95,164.1 
						64.73,163.3 65.31,162.8 64.61,162.8 					"/>
				</g>
				<g>
					<polygon class="st15" points="68.41,161.98 68.19,162.8 67.49,162.8 68.07,163.3 67.85,164.1 68.41,163.6 68.97,164.1 
						68.77,163.3 69.33,162.8 68.63,162.8 					"/>
				</g>
				<g>
					<polygon class="st15" points="72.43,161.98 72.21,162.8 71.51,162.8 72.09,163.3 71.87,164.1 72.43,163.6 73.01,164.1 
						72.79,163.3 73.35,162.8 72.65,162.8 					"/>
				</g>
				<g>
					<polygon class="st15" points="76.47,161.98 76.25,162.8 75.55,162.8 76.11,163.3 75.89,164.1 76.45,163.6 77.03,164.1 
						76.81,163.3 77.37,162.8 76.67,162.8 					"/>
				</g>
				<g>
					<polygon class="st15" points="58.35,164.1 58.13,164.9 57.43,164.9 58.01,165.4 57.79,166.22 58.35,165.72 58.91,166.22 
						58.71,165.4 59.27,164.9 58.57,164.9 					"/>
				</g>
				<g>
					<polygon class="st15" points="66.39,164.1 66.19,164.9 65.49,164.9 66.05,165.4 65.83,166.22 66.39,165.72 66.97,166.22 
						66.75,165.4 67.31,164.9 66.61,164.9 					"/>
				</g>
				<g>
					<polygon class="st15" points="70.43,164.1 70.21,164.9 69.51,164.9 70.07,165.4 69.85,166.22 70.43,165.72 70.99,166.22 
						70.77,165.4 71.35,164.9 70.65,164.9 					"/>
				</g>
				<g>
					<polygon class="st15" points="74.45,164.1 74.23,164.9 73.53,164.9 74.09,165.4 73.89,166.22 74.45,165.72 75.01,166.22 
						74.79,165.4 75.37,164.9 74.67,164.9 					"/>
				</g>
				<g>
					<polygon class="st15" points="78.47,164.1 78.25,164.9 77.55,164.9 78.13,165.4 77.91,166.22 78.47,165.72 79.03,166.22 
						78.83,165.4 79.39,164.9 78.69,164.9 					"/>
				</g>
				<g>
					<polygon class="st15" points="60.37,166.22 60.15,167.02 59.45,167.02 60.01,167.52 59.79,168.34 60.37,167.84 60.93,168.34 
						60.71,167.52 61.29,167.02 60.57,167.02 					"/>
				</g>
				<g>
					<polygon class="st15" points="64.39,166.22 64.17,167.02 63.47,167.02 64.03,167.52 63.83,168.34 64.39,167.84 64.95,168.34 
						64.73,167.52 65.31,167.02 64.61,167.02 					"/>
				</g>
				<g>
					<polygon class="st15" points="68.41,166.22 68.19,167.02 67.49,167.02 68.07,167.52 67.85,168.34 68.41,167.84 68.97,168.34 
						68.77,167.52 69.33,167.02 68.63,167.02 					"/>
				</g>
				<g>
					<polygon class="st15" points="72.43,166.22 72.21,167.02 71.51,167.02 72.09,167.52 71.87,168.34 72.43,167.84 73.01,168.34 
						72.79,167.52 73.35,167.02 72.65,167.02 					"/>
				</g>
				<g>
					<polygon class="st15" points="76.47,166.22 76.25,167.02 75.55,167.02 76.11,167.52 75.89,168.34 76.45,167.84 77.03,168.34 
						76.81,167.52 77.37,167.02 76.67,167.02 					"/>
				</g>
				<g>
					<polygon class="st15" points="58.35,168.32 58.13,169.14 57.43,169.14 58.01,169.64 57.79,170.44 58.35,169.94 58.91,170.44 
						58.71,169.64 59.27,169.14 58.57,169.14 					"/>
				</g>
				<g>
					<polygon class="st15" points="62.37,168.32 62.15,169.14 61.45,169.14 62.03,169.64 61.81,170.44 62.37,169.94 62.95,170.44 
						62.73,169.64 63.29,169.14 62.59,169.14 					"/>
				</g>
				<g>
					<polygon class="st15" points="66.39,168.32 66.19,169.14 65.49,169.14 66.05,169.64 65.83,170.44 66.39,169.94 66.97,170.44 
						66.75,169.64 67.31,169.14 66.61,169.14 					"/>
				</g>
				<g>
					<polygon class="st15" points="70.43,168.32 70.21,169.14 69.51,169.14 70.07,169.64 69.85,170.44 70.43,169.94 70.99,170.44 
						70.77,169.64 71.35,169.14 70.65,169.14 					"/>
				</g>
				<g>
					<polygon class="st15" points="74.45,168.32 74.23,169.14 73.53,169.14 74.09,169.64 73.89,170.44 74.45,169.94 75.01,170.44 
						74.79,169.64 75.37,169.14 74.67,169.14 					"/>
				</g>
				<g>
					<polygon class="st15" points="78.47,168.32 78.25,169.14 77.55,169.14 78.13,169.64 77.91,170.44 78.47,169.94 79.03,170.44 
						78.83,169.64 79.39,169.14 78.69,169.14 					"/>
				</g>
				<g>
					<polygon class="st15" points="60.37,170.44 60.15,171.26 59.45,171.26 60.01,171.74 59.79,172.56 60.37,172.06 60.93,172.56 
						60.71,171.74 61.29,171.26 60.57,171.26 					"/>
				</g>
				<g>
					<polygon class="st15" points="64.39,170.44 64.17,171.26 63.47,171.26 64.03,171.74 63.83,172.56 64.39,172.06 64.95,172.56 
						64.73,171.74 65.31,171.26 64.61,171.26 					"/>
				</g>
				<g>
					<polygon class="st15" points="68.41,170.44 68.19,171.26 67.49,171.26 68.07,171.74 67.85,172.56 68.41,172.06 68.97,172.56 
						68.77,171.74 69.33,171.26 68.63,171.26 					"/>
				</g>
				<g>
					<polygon class="st15" points="72.43,170.44 72.21,171.26 71.51,171.26 72.09,171.74 71.87,172.56 72.43,172.06 73.01,172.56 
						72.79,171.74 73.35,171.26 72.65,171.26 					"/>
				</g>
				<g>
					<polygon class="st15" points="58.35,172.56 58.13,173.36 57.43,173.36 58.01,173.86 57.79,174.68 58.35,174.18 58.91,174.68 
						58.71,173.86 59.27,173.36 58.57,173.36 					"/>
				</g>
				<g>
					<polygon class="st15" points="62.37,172.56 62.15,173.36 61.45,173.36 62.03,173.86 61.81,174.68 62.37,174.18 62.95,174.68 
						62.73,173.86 63.29,173.36 62.59,173.36 					"/>
				</g>
				<g>
					<polygon class="st15" points="66.39,172.56 66.19,173.36 65.49,173.36 66.05,173.86 65.83,174.68 66.39,174.18 66.97,174.68 
						66.75,173.86 67.31,173.36 66.61,173.36 					"/>
				</g>
				<g>
					<polygon class="st15" points="70.43,172.56 70.21,173.36 69.51,173.36 70.07,173.86 69.85,174.68 70.43,174.18 70.99,174.68 
						70.77,173.86 71.35,173.36 70.65,173.36 					"/>
				</g>
				<g>
					<polygon class="st15" points="74.45,172.56 74.23,173.36 73.53,173.36 74.09,173.86 73.89,174.68 74.45,174.18 75.01,174.68 
						74.79,173.86 75.37,173.36 74.67,173.36 					"/>
				</g>
				<g>
					<polygon class="st15" points="78.47,172.56 78.25,173.36 77.55,173.36 78.13,173.86 77.91,174.68 78.47,174.18 79.03,174.68 
						78.83,173.86 79.39,173.36 78.69,173.36 					"/>
				</g>
				<g>
					<polygon class="st15" points="60.37,174.68 60.15,175.48 59.45,175.48 60.01,175.98 59.79,176.78 60.37,176.3 60.93,176.78 
						60.71,175.98 61.29,175.48 60.57,175.48 					"/>
				</g>
				<g>
					<polygon class="st15" points="64.39,174.68 64.17,175.48 63.47,175.48 64.03,175.98 63.83,176.78 64.39,176.3 64.95,176.78 
						64.73,175.98 65.31,175.48 64.61,175.48 					"/>
				</g>
				<g>
					<polygon class="st15" points="68.41,174.68 68.19,175.48 67.49,175.48 68.07,175.98 67.85,176.78 68.41,176.3 68.97,176.78 
						68.77,175.98 69.33,175.48 68.63,175.48 					"/>
				</g>
				<g>
					<polygon class="st15" points="72.43,174.68 72.21,175.48 71.51,175.48 72.09,175.98 71.87,176.78 72.43,176.3 73.01,176.78 
						72.79,175.98 73.35,175.48 72.65,175.48 					"/>
				</g>
				<g>
					<polygon class="st15" points="76.47,174.68 76.25,175.48 75.55,175.48 76.11,175.98 75.89,176.78 76.45,176.3 77.03,176.78 
						76.81,175.98 77.37,175.48 76.67,175.48 					"/>
				</g>
				<g>
					<polygon class="st15" points="58.35,176.78 58.13,177.6 57.43,177.6 58.01,178.1 57.79,178.9 58.35,178.4 58.91,178.9 
						58.71,178.1 59.27,177.6 58.57,177.6 					"/>
				</g>
				<g>
					<polygon class="st15" points="62.37,176.78 62.15,177.6 61.45,177.6 62.03,178.1 61.81,178.9 62.37,178.4 62.95,178.9 
						62.73,178.1 63.29,177.6 62.59,177.6 					"/>
				</g>
				<g>
					<polygon class="st15" points="66.39,176.78 66.19,177.6 65.49,177.6 66.05,178.1 65.83,178.9 66.39,178.4 66.97,178.9 
						66.75,178.1 67.31,177.6 66.61,177.6 					"/>
				</g>
				<g>
					<polygon class="st15" points="70.43,176.78 70.21,177.6 69.51,177.6 70.07,178.1 69.85,178.9 70.43,178.4 70.99,178.9 
						70.77,178.1 71.35,177.6 70.65,177.6 					"/>
				</g>
				<g>
					<polygon class="st15" points="74.45,176.78 74.23,177.6 73.53,177.6 74.09,178.1 73.89,178.9 74.45,178.4 75.01,178.9 
						74.79,178.1 75.37,177.6 74.67,177.6 					"/>
				</g>
				<g>
					<polygon class="st15" points="78.47,176.78 78.25,177.6 77.55,177.6 78.13,178.1 77.91,178.9 78.47,178.4 79.03,178.9 
						78.83,178.1 79.39,177.6 78.69,177.6 					"/>
				</g>
				<g>
					<polygon class="st15" points="62.37,164.08 62.15,164.9 61.45,164.9 62.03,165.38 61.81,166.2 62.37,165.7 62.95,166.2 
						62.73,165.38 63.29,164.9 62.59,164.9 					"/>
				</g>
				<g>
					<polygon class="st15" points="76.45,170.44 76.25,171.26 75.53,171.26 76.11,171.74 75.89,172.56 76.45,172.06 77.03,172.56 
						76.81,171.74 77.37,171.26 76.67,171.26 					"/>
				</g>
			</g>
		</g>
	</g>
	<g>
		<text transform="matrix(1 0 0 1 58.7423 219.8143)" class="st5 st13 st14">Estados</text>
		<text transform="matrix(1 0 0 1 66.9323 239.0142)" class="st5 st13 st14">Unidos</text>
	</g>
</g>
<g>
	<path class="st22" d="M250,79.5c67.22,0,121.7,54.48,121.7,121.7S317.22,322.9,250,322.9s-121.7-54.48-121.7-121.7
		S182.78,79.5,250,79.5L250,79.5"/>
	<text transform="matrix(1 0 0 1 232.7881 207.05)" class="st5 st23 st24">742</text>
</g>
<text transform="matrix(1 0 0 1 196.3529 385.1678)" class="st5 st6 st25">47%</text>
<text transform="matrix(1 0 0 1 409.3148 441.4617)" class="st5 st6 st26">53%</text>
<text transform="matrix(1 0 0 1 378.9657 842.2)" class="st5 st6 st26">80%</text>
<text transform="matrix(1 0 0 1 353.9806 1064.8069)" class="st5 st6 st26">5%</text>
<text transform="matrix(1 0 0 1 318.0929 1197.8009)" class="st5 st6 st26">95%</text>
<text transform="matrix(1 0 0 1 260.7874 429.3953)" class="st5 st6 st26">47%</text>
<text transform="matrix(1 0 0 1 315.7118 719.8258)" class="st5 st6 st26">10%</text>
<text transform="matrix(1 0 0 1 86.2982 488.8094)" class="st5 st6 st26">34%</text>
<text transform="matrix(1 0 0 1 93.1459 377.6414)" class="st5 st6 st26">19%</text>
<text transform="matrix(1 0 0 1 286.664 1463.0608)" class="st5 st6 st26">19%</text>
<text transform="matrix(1 0 0 1 290.9873 1565.8977)" class="st5 st6 st26">36%</text>
<text transform="matrix(1 0 0 1 164.374 1489.5881)" class="st5 st6 st26">46%</text>
<g>
	<text transform="matrix(1 0 0 1 196.9003 731.4752)" class="st5 st6 st25">24%</text>
</g>
<text transform="matrix(1 0 0 1 205.787 815.1422)" class="st5 st6 st26">13%</text>
<text transform="matrix(1 0 0 1 74.454 824.8327)" class="st5 st6 st26">63%</text>
<g>
	<text transform="matrix(1 0 0 1 199.9308 1079.1691)" class="st5 st6 st25">30%</text>
</g>
<text transform="matrix(1 0 0 1 172.5079 1193.5236)" class="st5 st6 st26">29%</text>
<text transform="matrix(1 0 0 1 65.5636 1109.7198)" class="st5 st6 st26">41%</text>
<g>
	<path class="st22" d="M250,539.92c35.92,0,65.06,29.12,65.06,65.06s-29.12,65.06-65.06,65.06s-65.06-29.12-65.06-65.06
		S214.08,539.92,250,539.92L250,539.92"/>
	<text transform="matrix(1 0 0 1 232.7883 610.8269)" class="st5 st23 st24">212</text>
</g>
<g>
	<path class="st22" d="M250,1249.63c42.6,0,77.14,34.54,77.14,77.14s-34.54,77.14-77.14,77.14s-77.14-34.54-77.14-77.14
		C172.86,1284.17,207.4,1249.63,250,1249.63L250,1249.63"/>
	<text transform="matrix(1 0 0 1 232.7883 1332.6172)" class="st5 st23 st24">230</text>
</g>
<g>
	<path class="st22" d="M250,875.81c35.24,0,63.82,28.56,63.82,63.82c0,35.24-28.56,63.82-63.82,63.82s-63.82-28.56-63.82-63.82
		S214.76,875.81,250,875.81L250,875.81"/>
	<text transform="matrix(1 0 0 1 232.7883 945.4794)" class="st5 st23 st24">204</text>
</g>
<g>
	<path class="st8" d="M150.85,373.46c-1.11,0-2.27,0.04-3.53,0.12l0,0h-0.12h-0.11l0,0c-1.06,0.08-2.19,0.18-3.4,0.33l0,0
		l-0.11,0.01h-0.02l-0.11,0.01l0,0c-1.2,0.15-2.31,0.32-3.39,0.53l0,0l-0.11,0.01c-1.29,0.24-2.46,0.49-3.57,0.78l-0.11,0.03l0,0
		c-1.04,0.27-2.14,0.58-3.38,0.99l-0.11,0.03v0.01c-0.96,0.32-1.99,0.69-3.22,1.15l0,0l-0.11,0.05c0,0-0.02,0-0.02,0.01l-0.07,0.03
		l0,0c-1.15,0.46-2.25,0.93-3.24,1.39l-0.11,0.05V379c-1.21,0.59-2.22,1.1-3.13,1.61l-0.11,0.06v0.02
		c-0.88,0.49-1.81,1.05-2.93,1.75v-0.01l-0.09,0.06c-0.93,0.58-1.89,1.24-2.91,1.98l0,0l-0.09,0.06c-0.02,0.01-0.03,0.03-0.04,0.03
		l-0.04,0.03l0,0c-0.84,0.61-1.79,1.33-2.71,2.08l0,0l-0.07,0.06l-0.02,0.02l-0.09,0.07l0,0c-0.79,0.68-1.63,1.41-2.55,2.27l0,0
		l-0.07,0.07l-0.09,0.08l0,0c-0.84,0.78-1.65,1.59-2.41,2.42l-0.02-0.02l-0.07,0.09c-0.95,1.02-1.71,1.88-2.41,2.71l-0.07,0.09
		l0.02,0.01c-0.69,0.84-1.37,1.73-2.08,2.7l0,0l-0.06,0.09l-0.06,0.09l0,0c-0.74,1.02-1.39,1.98-1.98,2.91l-0.06,0.09h0.01
		c-0.71,1.11-1.26,2.05-1.75,2.94l-0.01-0.02l-0.06,0.11c-0.53,0.96-1.05,1.98-1.65,3.24l-0.04,0.11h0.01
		c-0.51,1.11-0.97,2.17-1.39,3.24l-0.04,0.11l16.38,6.49l0.11,0.05l0.04-0.11c0.35-0.86,0.66-1.62,1.01-2.34l0.04-0.11h-0.02
		c0.33-0.66,0.68-1.36,1.05-2.04h0.02l0.06-0.11c0.36-0.67,0.78-1.38,1.29-2.16l0.06-0.09l0,0c0.45-0.71,0.9-1.38,1.37-1.99
		l0.02-0.02c0.48-0.66,0.97-1.32,1.53-1.99l0.07-0.09l0,0c0.45-0.52,0.96-1.1,1.54-1.71h0.02l0.07-0.09
		c0.57-0.62,1.17-1.21,1.79-1.79l0.09-0.08l0,0c0.63-0.6,1.21-1.12,1.8-1.62c0.59-0.48,1.21-0.98,2.01-1.55l0.03-0.02
		c0.63-0.45,1.29-0.91,1.98-1.35l0,0l0.09-0.06c0.78-0.49,1.5-0.91,2.18-1.29l0.11-0.06l0,0c0.81-0.44,1.5-0.8,2.14-1.1l0.11-0.05
		l0,0c0.68-0.32,1.41-0.61,2.22-0.95c0.77-0.32,1.57-0.6,2.37-0.85l0.11-0.03v-0.02c0.69-0.21,1.48-0.46,2.32-0.67l0.09-0.03
		c0.77-0.2,1.54-0.35,2.28-0.5l0,0l0.11-0.01c0.87-0.17,1.71-0.29,2.47-0.39h0.02c0.96-0.12,1.71-0.2,2.4-0.23l0,0l0.12-0.02
		c0.84-0.06,1.68-0.09,2.52-0.09h0.12V373.4h-0.24V373.46z"/>
	<path class="st10" d="M208.82,431.3h-0.02c0-1.08-0.04-2.19-0.11-3.39h0.02v-0.1c-0.07-1.11-0.18-2.27-0.33-3.52l0,0l-0.02-0.11
		c0-0.03-0.02-0.06-0.02-0.09v-0.02l0,0c-0.15-1.2-0.31-2.31-0.53-3.39l0,0l-0.02-0.11l0,0l-0.02-0.1l0,0
		c-0.22-1.2-0.46-2.31-0.73-3.35l0,0l-0.03-0.1l-0.03-0.11l0,0c-0.27-1.07-0.6-2.17-0.99-3.39l-0.03-0.11h-0.02
		c-0.31-0.96-0.69-1.99-1.15-3.23l0,0l-0.03-0.08c0-0.01-0.02-0.03-0.02-0.03l-0.04-0.1l0,0c-0.46-1.14-0.93-2.24-1.39-3.24
		l-0.04-0.1h-0.02c-0.59-1.2-1.1-2.21-1.59-3.14l-0.06-0.1h-0.02c-0.49-0.9-1.06-1.86-1.8-3.02l-0.06-0.09l-0.02,0.02
		c-0.57-0.9-1.21-1.83-1.92-2.84l0.02-0.01l-0.06-0.09c-0.64-0.87-1.41-1.89-2.22-2.88l-0.07-0.09l-0.02,0.01
		c-0.66-0.78-1.39-1.6-2.27-2.55l0.02-0.02l-0.07-0.07c-0.79-0.86-1.63-1.68-2.49-2.49l0,0l-0.09-0.07l-0.1-0.11l0,0
		c-0.95-0.88-1.81-1.65-2.64-2.34l-0.09-0.08l-0.02,0.02c-0.84-0.69-1.72-1.36-2.71-2.08v-0.02l-0.09-0.06
		c-1.06-0.76-2.04-1.44-3-2.04l-0.09-0.06v0.02c-1.11-0.71-2.05-1.26-2.94-1.76l0,0l-0.11-0.06l-0.11-0.06l0,0
		c-0.9-0.5-1.88-0.99-3.04-1.55l0,0l-0.07-0.03c-0.02,0-0.02-0.01-0.03-0.01l-0.11-0.05l0,0c-1.04-0.48-2.09-0.93-3.13-1.35v-0.01
		l-0.11-0.05c-1.05-0.42-2.13-0.81-3.31-1.2l0,0l-0.11-0.03l-0.11-0.03l0,0c-1.19-0.39-2.27-0.71-3.29-0.96v-0.01l-0.11-0.03
		c-1.06-0.27-2.21-0.52-3.44-0.75l0,0l-0.11-0.02c-1.11-0.21-2.28-0.39-3.59-0.55l-0.12-0.01l0,0c-1.21-0.15-2.34-0.26-3.42-0.33
		l0,0h-0.11h-0.12l0,0c-1.26-0.07-2.41-0.12-3.53-0.12h-0.12v17.73h0.12c0.86,0,1.68,0.03,2.54,0.09h0.03
		c0.73,0.04,1.5,0.12,2.49,0.24l0.12,0.02l0,0c0.69,0.09,1.44,0.21,2.27,0.36l0,0l0.11,0.02c0.81,0.15,1.59,0.32,2.38,0.51v0.02
		l0.11,0.03c0.75,0.18,1.5,0.4,2.31,0.67l0,0l0.11,0.03c0.77,0.24,1.53,0.51,2.27,0.81l0,0l0.11,0.05c0.78,0.3,1.54,0.63,2.32,1.01
		c0.77,0.36,1.53,0.75,2.23,1.14l0.02,0.02c0.64,0.36,1.34,0.76,2.18,1.29l0.09,0.06l0,0c0.57,0.36,1.17,0.76,1.89,1.29l0,0
		l0.09,0.06c0.77,0.55,1.43,1.05,2.01,1.54l0.09,0.08l0,0c0.55,0.46,1.12,0.98,1.72,1.54l0,0l0.09,0.08c0.59,0.54,1.15,1.11,1.7,1.7
		l0,0l0.07,0.07c0.54,0.56,1.08,1.15,1.7,1.89l0.07,0.09l0,0c0.51,0.63,0.96,1.23,1.41,1.83l-0.02,0.01l0.07,0.09
		c0.55,0.72,1.05,1.49,1.43,2.07l0.06,0.09h0.02c0.48,0.75,0.88,1.42,1.23,2.08l0.06,0.11l0,0c0.44,0.81,0.79,1.5,1.1,2.14
		l0.04,0.11l0,0c0.31,0.67,0.62,1.41,0.95,2.2l0,0c0.3,0.81,0.59,1.62,0.86,2.39l0.03,0.1h0.02l0.03,0.12
		c0.21,0.73,0.44,1.47,0.63,2.2l0,0c0.21,0.86,0.38,1.67,0.53,2.46v0.03c0.16,0.9,0.29,1.65,0.38,2.39l0,0l0.02,0.1
		c0.09,0.72,0.16,1.52,0.22,2.39h-0.02v0.12c0.06,0.84,0.09,1.7,0.09,2.52v0.12h0.02c-0.02,0.79-0.04,1.57-0.09,2.41l0,0
		c-0.06,0.93-0.15,1.76-0.24,2.52l-0.02,0.1l0,0c-0.09,0.69-0.21,1.44-0.36,2.28l0.02,0.05c-0.15,0.79-0.33,1.58-0.51,2.37h-0.02
		l-0.03,0.11c-0.2,0.75-0.42,1.54-0.71,2.41v0.02c-0.26,0.78-0.55,1.59-0.86,2.39l-0.02,0.03c-0.31,0.8-0.63,1.52-0.95,2.19l0,0
		l-0.04,0.11c-0.31,0.67-0.68,1.39-1.1,2.16h-0.02l-0.06,0.11c-0.39,0.73-0.82,1.47-1.29,2.16l-0.06,0.09l0.02,0.01
		c-0.36,0.54-0.81,1.21-1.3,1.9h-0.02l-0.06,0.09c-0.59,0.8-1.06,1.44-1.54,2.01l-0.07,0.09l0,0c-0.44,0.51-1.01,1.15-1.61,1.79
		l-0.03,0.03c-0.54,0.59-1.11,1.14-1.68,1.68l0,0l-0.07,0.08c-0.63,0.61-1.26,1.18-1.88,1.69l-0.09,0.08l0,0
		c-0.72,0.57-1.29,1.01-1.83,1.41l0,0l-0.09,0.06c-0.62,0.45-1.28,0.9-2.09,1.42l0,0c-0.82,0.51-1.52,0.93-2.16,1.29l-0.02,0.02
		c-0.72,0.4-1.48,0.78-2.23,1.14l-0.11,0.05l0,0c-0.75,0.35-1.47,0.66-2.22,0.96c-0.75,0.29-1.56,0.6-2.37,0.86l-0.11,0.03v0.01
		c-0.82,0.27-1.59,0.48-2.32,0.67l-0.11,0.03l0,0c-0.77,0.2-1.53,0.35-2.36,0.51l-0.11,0.01l3.31,17.31l0.02,0.1l0.11-0.01
		c1.28-0.24,2.45-0.5,3.57-0.78l0.11-0.03l0,0c1.05-0.27,2.14-0.58,3.38-0.99l0.11-0.03v-0.01c0.96-0.32,1.98-0.69,3.22-1.15l0,0
		l0.11-0.05c0.02,0,0.02,0,0.02-0.01l0.07-0.03l0,0c1.15-0.46,2.25-0.93,3.24-1.39l0.11-0.05v-0.02c1.17-0.57,2.14-1.06,3.03-1.54
		l0,0l0.11-0.06l0.11-0.06l0,0c0.88-0.48,1.81-1.05,2.94-1.76l0,0l0.09-0.06l0.09-0.06l0,0c0.9-0.57,1.83-1.2,2.84-1.92v0.02
		l0.09-0.06c0.87-0.65,1.9-1.41,2.88-2.22l0.09-0.08l-0.02-0.02c0.79-0.67,1.63-1.41,2.55-2.26l0.02,0.01l0.07-0.08
		c0.86-0.79,1.7-1.63,2.49-2.49l0,0l0.07-0.08l0.07-0.08l0,0c0.88-0.96,1.66-1.83,2.34-2.64l0.07-0.09l-0.02-0.02
		c0.68-0.83,1.37-1.71,2.09-2.7l0.02,0.02l0.06-0.09c0.78-1.08,1.44-2.05,2.04-3l0.06-0.09l-0.02-0.02
		c0.71-1.12,1.28-2.07,1.76-2.94l0.02,0.01l0.06-0.1c0.51-0.93,1.02-1.92,1.59-3.14h0.02l0.04-0.11c0.51-1.11,0.97-2.17,1.39-3.25
		l0,0l0.04-0.11c0,0,0,0,0-0.02l0.04-0.09l0,0c0.4-1.02,0.78-2.07,1.15-3.21l0,0l0.03-0.1l0.03-0.11l0,0
		c0.38-1.18,0.69-2.27,0.96-3.29h0.02l0.03-0.11c0.27-1.07,0.53-2.19,0.75-3.43l0,0l0.02-0.1c0-0.03,0.02-0.08,0.02-0.11v-0.01l0,0
		c0.2-1.05,0.36-2.14,0.53-3.38l0,0v-0.01c0-0.03,0.02-0.05,0.02-0.08l0.02-0.11l0,0c0.15-1.23,0.26-2.34,0.33-3.42l0,0v-0.11
		c0,0,0,0,0-0.01v-0.08l0,0c0.07-1.26,0.12-2.42,0.12-3.52v-0.21L208.82,431.3L208.82,431.3z"/>
	<path class="st9" d="M161.81,488.34l-3.31-17.31l-0.02-0.1l-0.11,0.01c-0.86,0.17-1.7,0.29-2.49,0.39
		c-0.75,0.09-1.54,0.17-2.51,0.24l0,0c-0.81,0.04-1.66,0.09-2.52,0.09c-0.87,0-1.71-0.05-2.52-0.09l0,0
		c-0.96-0.08-1.76-0.15-2.51-0.24l-0.12-0.02l0,0c-0.71-0.09-1.47-0.21-2.27-0.36l-0.11-0.02c-0.84-0.16-1.61-0.31-2.38-0.51v-0.02
		l-0.11-0.03c-0.72-0.16-1.47-0.39-2.36-0.67l-0.06-0.01c-0.78-0.24-1.53-0.53-2.27-0.81l0,0l-0.11-0.04
		c-0.82-0.33-1.54-0.64-2.22-0.95l0,0l-0.11-0.04c-0.69-0.32-1.44-0.69-2.25-1.15l-0.11-0.06l0,0c-0.63-0.35-1.29-0.75-2.09-1.24
		h-0.02c-0.63-0.42-1.35-0.89-2.01-1.38l-0.04-0.03c-0.63-0.45-1.29-0.96-2.01-1.55l-0.02-0.01c-0.6-0.51-1.21-1.05-1.88-1.68
		l-0.07-0.07l0,0c-0.54-0.52-1.1-1.07-1.62-1.62l0,0l-0.07-0.07c-0.63-0.66-1.19-1.27-1.7-1.89l-0.02-0.03
		c-0.44-0.54-0.91-1.15-1.46-1.9l0,0l-0.06-0.09c-0.55-0.75-1.01-1.42-1.43-2.07l-0.06-0.09h-0.02c-0.39-0.63-0.78-1.29-1.17-1.96
		l0,0l-0.06-0.11c-0.38-0.66-0.73-1.36-1.12-2.2l-0.03-0.05c-0.33-0.72-0.66-1.48-1.01-2.34l-0.04-0.11h-0.02
		c-0.29-0.73-0.55-1.48-0.81-2.28v-0.02c-0.27-0.86-0.51-1.65-0.71-2.4l-0.02-0.09c-0.2-0.78-0.36-1.53-0.49-2.3l0,0l-0.03-0.11
		c-0.13-0.69-0.26-1.42-0.38-2.37l0,0l-0.02-0.12c-0.09-0.68-0.2-1.58-0.24-2.51v-0.02c-0.06-0.85-0.09-1.68-0.09-2.52
		s0.03-1.7,0.09-2.52v-0.09c0.04-0.89,0.15-1.77,0.24-2.43c0.12-0.94,0.24-1.68,0.38-2.37l0,0l0.02-0.11
		c0.15-0.82,0.31-1.63,0.54-2.48l0,0c0.18-0.72,0.4-1.47,0.68-2.32h0.02l0.03-0.11c0.26-0.79,0.54-1.59,0.86-2.37l0.04-0.11
		l-16.3-6.47l-0.11-0.05l-0.04,0.11c-0.42,1.04-0.81,2.13-1.2,3.33h-0.01l-0.03,0.1c-0.41,1.23-0.72,2.34-0.99,3.39l0,0l-0.03,0.1
		l-0.03,0.11l0,0c-0.27,1.04-0.51,2.14-0.74,3.35l0,0l-0.01,0.11c0,0,0,0,0,0.01l-0.01,0.11l0,0c-0.2,1.04-0.36,2.14-0.53,3.38l0,0
		l-0.01,0.11l-0.01,0.1l0,0c-0.15,1.21-0.25,2.34-0.33,3.42l0,0v0.06c0,0.02,0,0.03,0,0.04v0.11l0,0c-0.08,1.18-0.11,2.34-0.12,3.4
		l0,0v0.12c0,0,0,0,0,0.02c0,0.01,0,0,0,0.01v0.12l0,0c0,1.08,0.04,2.22,0.12,3.39l0,0v0.11l0,0v0.11l0,0
		c0.08,1.06,0.18,2.19,0.33,3.4l0,0l0.01,0.11l0.01,0.11l0,0c0.15,1.2,0.33,2.31,0.53,3.39l0,0l0.01,0.11
		c0.24,1.29,0.5,2.46,0.78,3.57l0.03,0.1l0,0c0.25,1.02,0.57,2.08,0.96,3.27l0,0l0.03,0.1l0.03,0.11l0,0
		c0.32,0.99,0.71,2.04,1.2,3.32l0.04,0.1h0.01c0.45,1.11,0.9,2.18,1.35,3.15l0,0l0.03,0.08c0,0.02,0.01,0.02,0.01,0.03l0.04,0.11
		l0,0c0.55,1.15,1.05,2.13,1.54,3.03l0,0l0.06,0.1c0.51,0.93,1.11,1.92,1.86,3.12l0.06,0.09l0.01-0.01c0.57,0.9,1.21,1.86,1.93,2.83
		h-0.01l0.06,0.09c0.63,0.86,1.37,1.85,2.16,2.79l0,0l0.07,0.09l0.02,0.01l0.06,0.08l0,0c0.66,0.78,1.41,1.62,2.27,2.55l-0.02,0.02
		l0.07,0.08c0.81,0.87,1.68,1.74,2.56,2.57l0.07,0.07l0.02-0.01c0.91,0.85,1.76,1.6,2.56,2.28l0,0l0.09,0.07l0.02,0.02l0.07,0.06
		l0,0c0.84,0.69,1.72,1.37,2.71,2.08l0,0l0.09,0.06l0.09,0.06l0,0c0.99,0.72,1.92,1.35,2.82,1.92l0,0l0.09,0.06l0.09,0.06l0,0
		c1.15,0.74,2.13,1.31,3.03,1.8l0.11,0.06v-0.02c0.9,0.49,1.88,0.99,3.04,1.55v0.01l0.11,0.05c1.1,0.51,2.14,0.96,3.24,1.39v0.02
		l0.11,0.04c1.04,0.42,2.13,0.81,3.31,1.2l0,0l0.11,0.03l0.11,0.03l0,0c1.2,0.39,2.28,0.7,3.29,0.96v0.02l0.11,0.03
		c1.08,0.27,2.21,0.52,3.44,0.75l0,0l0.11,0.01c1.11,0.21,2.28,0.39,3.59,0.56l0.12,0.01l0,0c1.21,0.15,2.34,0.26,3.42,0.33l0,0
		h0.11h0.12l0,0c1.21,0.07,2.32,0.1,3.4,0.12l0,0h0.12h0.12l0,0c1.08,0,2.21-0.05,3.4-0.12l0,0h0.12h0.11l0,0
		c1.06-0.08,2.19-0.18,3.4-0.33l0,0l0.11-0.01l0.12-0.02l0,0c1.23-0.15,2.37-0.33,3.48-0.54L161.81,488.34z"/>
</g>
<g>
	<path class="st12" d="M406.63,431.3h-0.02c0-1.08-0.05-2.19-0.11-3.39h0.02v-0.1c-0.07-1.11-0.18-2.27-0.33-3.52l0,0l-0.02-0.11
		c0-0.03-0.02-0.06-0.02-0.09v-0.02l0,0c-0.15-1.2-0.31-2.31-0.52-3.39l0,0l-0.02-0.11l0,0l-0.02-0.1l0,0
		c-0.24-1.25-0.48-2.39-0.77-3.45l-0.03-0.11h-0.02c-0.26-1.02-0.57-2.1-0.96-3.29l0,0l-0.03-0.1l-0.03-0.11l0,0
		c-0.31-0.99-0.7-2.04-1.2-3.32l-0.04-0.11h-0.02c-0.45-1.11-0.9-2.16-1.35-3.13h0.02l-0.04-0.11c-0.6-1.26-1.12-2.29-1.65-3.24
		l-0.06-0.11h-0.02c-0.49-0.9-1.07-1.86-1.8-3.01l-0.06-0.09l-0.02,0.01c-0.59-0.92-1.21-1.85-1.93-2.83h0.02l-0.06-0.09
		c-0.63-0.84-1.36-1.83-2.16-2.79l0,0l-0.07-0.09l-0.02-0.01l-0.06-0.08l0,0c-0.66-0.8-1.39-1.61-2.27-2.55l0.02-0.02l-0.07-0.07
		c-0.8-0.86-1.64-1.68-2.49-2.49l0,0l-0.09-0.07l-0.07-0.08l0,0c-0.97-0.9-1.81-1.65-2.64-2.34l-0.09-0.08l-0.02,0.02
		c-0.82-0.68-1.71-1.37-2.7-2.08v-0.02l-0.09-0.06c-1.06-0.77-2.04-1.44-3-2.04l-0.09-0.06v0.01c-1.11-0.7-2.05-1.26-2.94-1.76l0,0
		l-0.11-0.06l-0.11-0.06l0,0c-0.89-0.48-1.86-0.98-3.05-1.54l0,0l-0.11-0.05l0,0l-0.11-0.04l0,0c-1.05-0.5-2.09-0.93-3.13-1.35
		v-0.02l-0.11-0.04c-1.04-0.42-2.13-0.81-3.32-1.2l0,0l-0.11-0.03l-0.11-0.03l0,0c-1.2-0.39-2.27-0.7-3.29-0.96v-0.02l-0.11-0.03
		c-1.06-0.27-2.2-0.52-3.43-0.75l0,0l-0.11-0.01c-1.11-0.21-2.28-0.39-3.59-0.55l-0.12-0.02l0,0c-1.21-0.15-2.34-0.26-3.42-0.33l0,0
		h-0.11h-0.12l0,0c-1.26-0.08-2.41-0.12-3.52-0.12h-0.12v17.73h0.12c0.84,0,1.7,0.03,2.52,0.09l0.12,0.02l0,0
		c0.69,0.04,1.44,0.1,2.4,0.23l0.12,0.01l0,0c0.69,0.09,1.44,0.21,2.27,0.36l0,0l0.11,0.01c0.81,0.15,1.59,0.32,2.39,0.51v0.01
		l0.11,0.03c0.75,0.18,1.5,0.4,2.31,0.68l0,0l0.11,0.03c0.77,0.24,1.53,0.51,2.27,0.81l0,0l0.11,0.04c0.78,0.3,1.55,0.63,2.32,1.01
		c0.68,0.32,1.39,0.67,2.27,1.15l0,0c0.64,0.36,1.34,0.77,2.18,1.29l0.09,0.06l0,0c0.66,0.43,1.29,0.87,1.89,1.29l0,0l0.09,0.06
		c0.78,0.57,1.43,1.05,2.01,1.54l0.09,0.08l0,0c0.63,0.54,1.26,1.11,1.81,1.62c0.63,0.57,1.2,1.17,1.7,1.7h-0.02l0.07,0.08
		c0.54,0.55,1.08,1.15,1.7,1.89l0.02,0.03c0.54,0.66,1.01,1.27,1.46,1.89l0,0l0.06,0.09c0.48,0.64,0.96,1.35,1.43,2.07l0.06,0.09
		h0.02c0.48,0.75,0.88,1.44,1.23,2.09l0.06,0.1l0,0c0.38,0.71,0.72,1.38,1.04,2.02l0,0l0.05,0.11c0.36,0.73,0.69,1.5,1.01,2.33
		l0.05,0.1h0.02c0.29,0.74,0.55,1.5,0.81,2.28v0.02c0.27,0.87,0.51,1.67,0.71,2.4l0.03,0.11h0.02c0.2,0.81,0.36,1.57,0.51,2.35v0.03
		c0.16,0.9,0.29,1.67,0.38,2.39l0,0l0.02,0.1c0.09,0.71,0.16,1.49,0.22,2.39h-0.02v0.12c0.06,0.84,0.09,1.7,0.09,2.52v0.12h0.02
		c-0.02,0.79-0.04,1.57-0.09,2.41l0,0c-0.06,0.98-0.15,1.77-0.24,2.52l-0.02,0.1l0,0c-0.09,0.69-0.21,1.41-0.36,2.27h-0.02
		l-0.01,0.05c-0.15,0.84-0.32,1.65-0.54,2.48c-0.2,0.75-0.42,1.5-0.68,2.33h-0.02l-0.03,0.1c-0.26,0.81-0.54,1.61-0.86,2.37
		l-0.04,0.1h0.02c-0.3,0.77-0.6,1.46-0.9,2.12l0,0l-0.04,0.1c-0.42,0.87-0.77,1.55-1.11,2.16h-0.02l-0.06,0.11
		c-0.39,0.73-0.82,1.47-1.29,2.16l-0.06,0.09l0,0c-0.46,0.72-0.96,1.42-1.34,1.96l-0.03,0.03c-0.57,0.78-1.06,1.42-1.54,2.01
		l-0.07,0.09l0,0c-0.44,0.51-1.01,1.15-1.61,1.79c-0.49,0.53-1.08,1.12-1.71,1.71l0,0l-0.07,0.07c-0.57,0.56-1.2,1.14-1.89,1.7
		l-0.09,0.08l0,0c-0.69,0.55-1.28,1.01-1.83,1.41l0,0l-0.09,0.06c-0.69,0.49-1.43,0.99-2.07,1.41h-0.02
		c-0.82,0.51-1.52,0.93-2.18,1.29l0,0c-0.88,0.48-1.59,0.84-2.27,1.15l-0.11,0.04l0,0c-0.75,0.35-1.48,0.66-2.22,0.95
		c-0.75,0.29-1.56,0.6-2.37,0.85l-0.11,0.03v0.02c-0.82,0.27-1.59,0.48-2.32,0.67l-0.11,0.03l0,0c-0.73,0.18-1.47,0.33-2.27,0.49
		l0,0l-0.11,0.02c-0.86,0.17-1.7,0.29-2.49,0.39c-0.77,0.09-1.56,0.17-2.51,0.24l0,0c-0.81,0.04-1.66,0.09-2.52,0.09
		c-0.87,0-1.71-0.05-2.52-0.09l0,0c-0.96-0.08-1.76-0.15-2.51-0.24l-0.12-0.01l0,0c-0.73-0.09-1.54-0.23-2.38-0.38l-0.11-0.02
		l-3.3,17.31l-0.02,0.11l0.11,0.02c1.11,0.21,2.28,0.39,3.59,0.55l0.12,0.02l0,0c1.21,0.15,2.34,0.25,3.42,0.33l0,0h0.11h0.12l0,0
		c1.21,0.08,2.32,0.11,3.42,0.12l0,0h0.12h0.12l0,0c1.08,0,2.2-0.04,3.4-0.12l0,0h0.12h0.11l0,0c1.06-0.08,2.19-0.18,3.39-0.33l0,0
		l0.11-0.02l0.12-0.02l0,0c1.2-0.15,2.31-0.32,3.39-0.52l0,0l0.11-0.01c1.28-0.24,2.45-0.5,3.57-0.78l0.11-0.03l0,0
		c1.05-0.27,2.14-0.58,3.38-0.99l0.11-0.03v-0.01c0.96-0.32,1.98-0.69,3.23-1.15l0,0l0.11-0.05c0.02,0,0.02,0,0.02-0.01l0.07-0.03
		l0,0c1.15-0.46,2.25-0.93,3.24-1.39l0.11-0.05v-0.02c1.17-0.57,2.14-1.06,3.03-1.54l0,0l0.11-0.06l0.11-0.06l0,0
		c0.88-0.48,1.81-1.05,2.94-1.76l0,0l0.09-0.06l0.09-0.06l0,0c0.9-0.57,1.83-1.2,2.84-1.92v0.02l0.09-0.06
		c0.89-0.65,1.9-1.43,2.88-2.22l0.09-0.08l-0.02-0.02c0.79-0.67,1.63-1.41,2.55-2.26l0.02,0.01l0.07-0.08
		c0.86-0.79,1.7-1.63,2.49-2.49l0,0l0.07-0.08l0.07-0.08l0,0c0.89-0.96,1.66-1.83,2.34-2.64l0.07-0.09l-0.02-0.02
		c0.69-0.84,1.37-1.73,2.09-2.7l0,0l0.06-0.09l0.06-0.09l0,0c0.73-1.02,1.39-1.98,1.98-2.91l0.06-0.09h-0.02
		c0.7-1.12,1.27-2.07,1.76-2.95l0.02,0.02l0.06-0.11c0.51-0.93,1.02-1.92,1.59-3.14h0.02l0.04-0.1c0.53-1.14,1.01-2.24,1.44-3.35
		l0.04-0.11h-0.02c0.4-1.02,0.78-2.07,1.15-3.21h0.02l0.03-0.11c0.4-1.23,0.72-2.34,0.99-3.39l0,0l0.03-0.11l0.03-0.11l0,0
		c0.27-1.04,0.51-2.13,0.73-3.33h0.02l0.02-0.11c0.21-1.08,0.38-2.23,0.54-3.49l0,0v-0.01c0-0.03,0.02-0.04,0.02-0.08l0.02-0.1l0,0
		c0.15-1.23,0.26-2.34,0.33-3.42l0,0v-0.1c0,0,0,0,0-0.02v-0.11l0,0c0.07-1.26,0.12-2.41,0.12-3.52v-0.15h0V431.3z"/>
	<path class="st11" d="M348.67,373.46c-1.11,0-2.27,0.04-3.52,0.12l0,0h-0.12h-0.11l0,0c-1.06,0.08-2.19,0.18-3.39,0.33l0,0
		l-0.11,0.01h-0.02l-0.11,0.01l0,0c-1.2,0.15-2.31,0.32-3.39,0.53l0,0l-0.11,0.01c-1.29,0.24-2.46,0.49-3.57,0.78l-0.11,0.03l0,0
		c-1.04,0.27-2.14,0.58-3.38,0.99l-0.11,0.03v0.01c-0.96,0.32-1.99,0.69-3.22,1.15l0,0l-0.11,0.05c0,0-0.02,0-0.02,0.01l-0.07,0.03
		l0,0c-1.15,0.46-2.25,0.93-3.24,1.39l-0.11,0.05V379c-1.17,0.57-2.14,1.07-3.03,1.55l0,0l-0.11,0.06l-0.11,0.06l0,0
		c-0.89,0.49-1.83,1.05-2.94,1.76l0,0l-0.09,0.06l-0.09,0.06l0,0c-0.9,0.57-1.83,1.2-2.82,1.92l0,0l-0.09,0.06
		c-0.02,0.01-0.03,0.03-0.04,0.03l-0.05,0.03l0,0c-0.84,0.61-1.8,1.33-2.7,2.08l0,0l-0.07,0.06l-0.02,0.02l-0.09,0.07l0,0
		c-0.79,0.66-1.63,1.41-2.55,2.27l0,0l-0.07,0.07l-0.09,0.08l0,0c-0.84,0.78-1.65,1.59-2.41,2.42l-0.02-0.02l-0.07,0.09
		c-0.95,1.02-1.71,1.88-2.41,2.71l-0.07,0.09l0.02,0.01c-0.69,0.84-1.36,1.73-2.09,2.7l0,0l-0.06,0.09l-0.06,0.09l0,0
		c-0.73,1.02-1.39,1.98-1.98,2.91l-0.06,0.09h0.02c-0.71,1.12-1.28,2.07-1.76,2.95l-0.02-0.01l-0.06,0.1
		c-0.53,0.96-1.05,1.99-1.65,3.24l-0.04,0.1h0.02c-0.49,1.07-0.93,2.09-1.34,3.12l0,0l-0.05,0.1c-0.42,1.05-0.81,2.15-1.2,3.33
		h-0.02l-0.03,0.1c-0.4,1.23-0.72,2.34-0.99,3.39l0,0l-0.03,0.11l-0.03,0.1l0,0c-0.27,1.04-0.51,2.13-0.73,3.35l0,0l-0.02,0.11l0,0
		l-0.02,0.11l0,0c-0.2,1.05-0.38,2.16-0.52,3.38l0,0l-0.02,0.1l-0.02,0.11l0,0c-0.15,1.21-0.26,2.33-0.33,3.4l0,0v0.1
		c0,0,0,0,0,0.02v0.11l0,0c-0.07,1.21-0.11,2.34-0.12,3.4l0,0v0.12v0.12l0,0c0,1.08,0.04,2.2,0.12,3.42l0,0v0.13
		c0,0.02,0,0.05,0,0.08v0.03l0,0c0.07,1.08,0.18,2.19,0.33,3.4l0,0v0.03c0,0.03,0,0.06,0.02,0.09l0.02,0.11l0,0
		c0.15,1.18,0.31,2.3,0.52,3.38l0,0l0.02,0.11c0.24,1.29,0.49,2.46,0.78,3.57l0.03,0.11l0,0c0.26,1.02,0.57,2.1,0.96,3.27l0,0
		l0.03,0.11l0.03,0.11l0,0c0.32,0.99,0.71,2.04,1.2,3.31l0.05,0.11h0.02c0.45,1.11,0.9,2.17,1.35,3.15l0,0l0.03,0.08
		c0,0.02,0.02,0.02,0.02,0.03l0.04,0.1l0,0c0.57,1.19,1.07,2.16,1.55,3.03l0,0l0.06,0.11c0.51,0.93,1.11,1.92,1.86,3.12l0.06,0.09
		l0.02-0.01c0.57,0.9,1.21,1.86,1.93,2.83h-0.02l0.06,0.09c0.63,0.85,1.36,1.85,2.16,2.79l0,0l0.07,0.09l0.02,0.01l0.06,0.08l0,0
		c0.66,0.78,1.41,1.62,2.27,2.55l-0.02,0.02l0.07,0.08c0.81,0.87,1.68,1.74,2.57,2.56l0.07,0.08l0.02-0.01
		c0.93,0.85,1.76,1.6,2.56,2.28l0,0l0.09,0.08l0.02,0.02l0.07,0.06l0,0c0.82,0.67,1.73,1.36,2.71,2.08l0,0l0.09,0.06l0.09,0.06l0,0
		c0.99,0.72,1.92,1.35,2.82,1.92l0,0l0.09,0.06l0.09,0.06l0,0c1.11,0.71,2.05,1.26,2.94,1.76l0,0l0.11,0.06l0.11,0.06l0,0
		c0.88,0.48,1.86,0.98,3.04,1.55l0,0l0.11,0.04l0,0l0.11,0.05l0,0c1.05,0.49,2.09,0.93,3.14,1.35v0.01l0.11,0.05
		c1.04,0.42,2.13,0.81,3.31,1.2l0,0l0.11,0.03l0.11,0.03l0,0c1.2,0.39,2.28,0.71,3.29,0.96v0.02l0.11,0.03
		c1.12,0.29,2.28,0.54,3.57,0.78l0.11,0.01l3.3-17.31l0.02-0.1l-0.11-0.02c-0.78-0.15-1.61-0.32-2.38-0.51v-0.02l-0.11-0.03
		c-0.78-0.18-1.56-0.42-2.4-0.69h-0.02c-0.78-0.24-1.53-0.52-2.27-0.81l0,0l-0.11-0.04c-0.87-0.35-1.63-0.68-2.32-1.01
		c-0.68-0.32-1.36-0.67-2.27-1.15l0,0c-0.66-0.36-1.35-0.77-2.18-1.29h-0.02c-0.63-0.42-1.35-0.88-2.01-1.38l-0.05-0.03
		c-0.63-0.45-1.29-0.96-2.01-1.55c-0.68-0.55-1.3-1.14-1.89-1.7l-0.07-0.07l0,0c-0.54-0.52-1.1-1.07-1.62-1.62l0,0l-0.07-0.07
		c-0.63-0.66-1.18-1.27-1.7-1.89l-0.02-0.03c-0.46-0.57-0.93-1.17-1.45-1.9l0,0l-0.06-0.09c-0.55-0.75-1.02-1.44-1.43-2.07
		l-0.06-0.09h-0.02c-0.39-0.63-0.78-1.29-1.17-1.96l0,0l-0.06-0.11c-0.38-0.69-0.75-1.39-1.15-2.27l-0.03-0.06
		c-0.32-0.69-0.64-1.42-0.98-2.28l-0.04-0.1h-0.02c-0.29-0.74-0.55-1.5-0.81-2.28v-0.02c-0.29-0.87-0.51-1.66-0.7-2.41l-0.02-0.09
		c-0.2-0.78-0.36-1.53-0.49-2.3l0,0l-0.03-0.11c-0.15-0.7-0.27-1.47-0.39-2.47l-0.02-0.11l0,0c-0.09-0.71-0.18-1.53-0.23-2.39v-0.01
		c-0.06-0.86-0.09-1.68-0.09-2.52s0.03-1.68,0.09-2.5v-0.11c0.05-0.87,0.15-1.71,0.23-2.43c0.12-0.95,0.24-1.68,0.38-2.37l0,0
		l0.02-0.1c0.15-0.83,0.31-1.64,0.54-2.48l0,0c0.18-0.69,0.4-1.46,0.68-2.33h0.02l0.03-0.1c0.24-0.77,0.53-1.52,0.81-2.27l0,0
		l0.04-0.11c0.35-0.87,0.68-1.63,1.01-2.34l0.04-0.1l0,0c0.39-0.81,0.72-1.46,1.05-2.04h0.02l0.06-0.11
		c0.36-0.67,0.78-1.38,1.29-2.16l0.06-0.09l0,0c0.45-0.69,0.9-1.36,1.37-1.99l0.06-0.09l0,0c0.45-0.61,0.93-1.24,1.47-1.92
		l0.07-0.09l0,0c0.45-0.53,0.96-1.1,1.54-1.71h0.02l0.07-0.09c0.57-0.61,1.17-1.21,1.79-1.79l0,0c0.57-0.54,1.2-1.12,1.88-1.68
		l0.03-0.02c0.57-0.48,1.2-0.96,1.98-1.51l0.03-0.02c0.64-0.48,1.35-0.95,2.05-1.41c0.84-0.52,1.53-0.93,2.18-1.29l0,0
		c0.87-0.46,1.59-0.84,2.27-1.15l0.11-0.04l0,0c0.68-0.32,1.41-0.62,2.22-0.95c0.77-0.32,1.57-0.6,2.37-0.86l0.11-0.03v-0.01
		c0.84-0.27,1.61-0.49,2.32-0.68l0.09-0.03c0.73-0.18,1.48-0.35,2.22-0.48l0.06-0.02l0,0l0.11-0.01c0.87-0.17,1.71-0.29,2.48-0.39
		h0.02c0.96-0.12,1.71-0.19,2.4-0.23l0,0l0.12-0.01c0.84-0.06,1.66-0.09,2.54-0.09h0.12v-17.7L348.67,373.46L348.67,373.46z"/>
</g>
<g>
	<path class="st11" d="M349.32,722.29c-1.12,0-2.28,0.04-3.52,0.12l0,0h-0.12h-0.11l0,0c-1.06,0.08-2.19,0.18-3.39,0.33l0,0
		l-0.11,0.01h-0.02l-0.11,0.02l0,0c-1.2,0.15-2.31,0.33-3.39,0.53l0,0l-0.11,0.01c-1.29,0.24-2.45,0.49-3.57,0.78l-0.11,0.03l0,0
		c-1.02,0.25-2.09,0.57-3.27,0.96l0,0l-0.11,0.03l-0.11,0.03l0,0c-0.97,0.32-2.04,0.71-3.31,1.2l-0.11,0.05v0.01
		c-1.14,0.47-2.23,0.93-3.26,1.4l-0.11,0.04v0.02c-1.17,0.57-2.14,1.07-3.03,1.54v-0.02l-0.11,0.06c-0.93,0.51-1.94,1.11-3.12,1.86
		l-0.09,0.06l0.02,0.02c-0.9,0.57-1.85,1.21-2.82,1.92l0,0l-0.09,0.06c-0.02,0.02-0.03,0.03-0.04,0.03l-0.05,0.03l0,0
		c-0.84,0.62-1.8,1.34-2.7,2.09l0,0l-0.07,0.06l-0.02,0.01l-0.09,0.08l0,0c-0.79,0.66-1.62,1.41-2.55,2.27l-0.02-0.02l-0.07,0.08
		c-0.87,0.81-1.71,1.65-2.51,2.51l0,0l-0.07,0.08c-0.02,0.02-0.05,0.04-0.06,0.06l0,0l0,0c-0.9,0.96-1.66,1.83-2.36,2.65l-0.07,0.09
		l0.02,0.02c-0.69,0.84-1.38,1.72-2.09,2.7l0,0l-0.06,0.09l-0.06,0.09l0,0c-0.72,0.99-1.35,1.92-1.92,2.82l0,0l-0.06,0.09
		l-0.06,0.09l0,0c-0.71,1.12-1.28,2.07-1.76,2.96h-0.02l-0.06,0.11c-0.53,0.96-1.05,1.98-1.65,3.24l-0.04,0.1h0.02
		c-0.49,1.07-0.93,2.09-1.34,3.12l0,0l-0.05,0.1c-0.43,1.08-0.84,2.21-1.23,3.43l-0.03,0.1l16.86,5.49l0.03-0.11
		c0.24-0.78,0.53-1.53,0.81-2.26l0,0l0.04-0.11c0.35-0.87,0.68-1.64,1.01-2.34l0.04-0.11l0,0c0.39-0.81,0.72-1.47,1.05-2.05l0,0
		l0.06-0.1c0.35-0.63,0.75-1.29,1.26-2.13l0.02-0.03c0.46-0.72,0.95-1.42,1.43-2.09l0.06-0.09l0,0c0.51-0.72,1.01-1.35,1.47-1.92
		l0.07-0.09l0,0c0.46-0.54,0.99-1.12,1.59-1.77l0.03-0.05c0.54-0.57,1.11-1.14,1.7-1.7l0,0l0.07-0.07c0.59-0.55,1.21-1.14,1.89-1.7
		l0.03-0.02c0.57-0.48,1.2-0.96,1.98-1.52l0.03-0.01c0.64-0.48,1.34-0.95,2.05-1.41l0.09-0.06v-0.01c0.72-0.43,1.34-0.81,1.98-1.17
		v0.02l0.11-0.06c0.68-0.38,1.39-0.75,2.27-1.15l0.11-0.05l0,0c0.68-0.3,1.39-0.61,2.22-0.95l0.11-0.04v-0.02
		c0.73-0.28,1.5-0.55,2.28-0.81h0.02c0.87-0.29,1.66-0.51,2.41-0.71l0.07-0.02c0.73-0.18,1.52-0.36,2.29-0.49l0,0l0.11-0.03
		c0.68-0.13,1.41-0.25,2.37-0.38l0,0l0.12-0.01c0.96-0.12,1.71-0.2,2.4-0.22l0,0l0.12-0.02c0.84-0.06,1.66-0.09,2.54-0.09h0.12
		v-17.73h-0.21L349.32,722.29L349.32,722.29z"/>
	<path class="st12" d="M407.28,780.13h-0.02c0-1.08-0.05-2.19-0.12-3.4h0.02v-0.11c-0.07-1.09-0.18-2.25-0.33-3.51l0,0l-0.02-0.1
		l-0.02-0.11l0,0c-0.15-1.2-0.32-2.31-0.53-3.39l0,0l-0.02-0.11c-0.24-1.29-0.49-2.46-0.78-3.57l-0.03-0.1h-0.02
		c-0.26-1.02-0.57-2.1-0.96-3.27l0,0l-0.03-0.1l-0.03-0.11l0,0c-0.31-0.99-0.7-2.04-1.2-3.32l-0.04-0.1h-0.02
		c-0.45-1.11-0.9-2.16-1.35-3.14h0.02l-0.04-0.11c-0.6-1.26-1.12-2.29-1.65-3.24l-0.06-0.1h-0.02c-0.49-0.9-1.07-1.86-1.8-3.02
		l-0.06-0.09l0,0c-0.59-0.92-1.21-1.85-1.93-2.84l0,0l-0.06-0.09l-0.02-0.01l-0.04-0.08l0,0c-0.62-0.83-1.32-1.77-2.09-2.7l0,0
		l-0.07-0.09l-0.02-0.02l-0.06-0.08l0,0c-0.66-0.78-1.41-1.62-2.27-2.55l0.02-0.02l-0.07-0.08c-0.79-0.85-1.63-1.7-2.51-2.49
		l0.02-0.01l-0.09-0.08c-1.01-0.95-1.88-1.71-2.71-2.42l-0.09-0.08l-0.02,0.02c-0.82-0.67-1.71-1.36-2.7-2.09v-0.01l-0.09-0.06
		c-1.07-0.77-2.04-1.44-3-2.04l-0.09-0.06v0.01c-1.12-0.7-2.07-1.27-2.96-1.76v-0.01l-0.11-0.06c-0.96-0.53-1.98-1.05-3.24-1.65
		l-0.11-0.04v0.02c-1.07-0.5-2.09-0.93-3.12-1.35l0,0l-0.11-0.04c-1.04-0.42-2.13-0.81-3.33-1.2v-0.01l-0.11-0.03
		c-1.23-0.41-2.34-0.72-3.39-0.99l0,0l-0.11-0.03l-0.11-0.03l0,0c-1.04-0.27-2.13-0.51-3.33-0.73l0,0l-0.11-0.02
		c-1.1-0.21-2.28-0.39-3.59-0.55l-0.12-0.01l0,0c-1.21-0.15-2.34-0.26-3.42-0.33l0,0h-0.11h-0.12l0,0
		c-1.23-0.08-2.41-0.12-3.53-0.12h-0.12v17.73h0.12c0.84,0,1.7,0.03,2.52,0.09l0.12,0.02l0,0c0.69,0.04,1.44,0.1,2.4,0.22l0.12,0.01
		l0,0c0.64,0.08,1.44,0.2,2.27,0.36l0,0l0.12,0.01c0.84,0.15,1.65,0.33,2.48,0.54c0.72,0.18,1.48,0.4,2.32,0.67v0.02l0.11,0.03
		c0.77,0.24,1.53,0.51,2.27,0.81l0,0l0.11,0.04c0.79,0.32,1.56,0.63,2.32,1.01l0.11,0.04v-0.01c0.63,0.3,1.34,0.66,2.05,1.05v0.02
		l0.11,0.06c0.64,0.36,1.34,0.77,2.18,1.29l0.09,0.06l0,0c0.66,0.43,1.29,0.87,1.89,1.29l0,0l0.09,0.06
		c0.78,0.57,1.43,1.05,2.01,1.54l0.09,0.08l0.02-0.02c0.45,0.39,0.9,0.8,1.34,1.2l0.39,0.36l0,0l0.09,0.08
		c0.63,0.58,1.2,1.17,1.7,1.7l-0.02,0.01l0.07,0.08c0.54,0.55,1.08,1.16,1.7,1.89l0.02,0.01c0.48,0.57,0.98,1.22,1.52,1.97
		l0.02,0.03c0.48,0.66,0.96,1.37,1.43,2.09l0.06,0.09l0,0c0.48,0.76,0.88,1.44,1.23,2.08l0.06,0.11l0,0
		c0.38,0.7,0.72,1.38,1.04,2.02l0,0l0.05,0.11c0.36,0.73,0.69,1.5,1.01,2.33l0.05,0.1h0.02c0.29,0.74,0.55,1.5,0.81,2.28v0.02
		c0.3,0.96,0.51,1.7,0.71,2.4l0.03,0.11h0.02c0.18,0.79,0.35,1.54,0.49,2.26l0,0l0.02,0.11c0.16,0.87,0.29,1.7,0.39,2.49
		c0.09,0.72,0.16,1.5,0.22,2.4h-0.02v0.12c0.06,0.86,0.09,1.68,0.09,2.52v0.12h0.02c-0.02,0.79-0.04,1.58-0.09,2.41l0,0
		c-0.06,0.97-0.15,1.77-0.24,2.52l-0.02,0.1l0,0c-0.09,0.71-0.21,1.46-0.36,2.27h-0.02l-0.02,0.12c-0.15,0.84-0.32,1.65-0.54,2.47
		c-0.2,0.75-0.42,1.52-0.68,2.33h-0.02l-0.03,0.1c-0.26,0.81-0.54,1.61-0.86,2.37l-0.04,0.1l0,0c-0.32,0.79-0.62,1.52-0.95,2.19
		l-0.02,0.02c-0.35,0.72-0.72,1.46-1.11,2.16h-0.02l-0.06,0.11c-0.39,0.75-0.82,1.47-1.29,2.16l-0.06,0.09l0,0
		c-0.36,0.55-0.77,1.15-1.29,1.89l0,0l-0.06,0.09c-0.55,0.77-1.05,1.42-1.54,2.01l-0.07,0.09l0.02,0.02
		c-0.45,0.51-1.01,1.15-1.62,1.8c-0.49,0.51-1.08,1.11-1.7,1.71l-0.02-0.02l-0.07,0.08c-0.63,0.61-1.24,1.17-1.88,1.7l-0.09,0.08
		l0.02,0.01c-0.6,0.48-1.23,0.95-1.83,1.41l0,0l-0.09,0.06c-0.69,0.49-1.43,0.99-2.07,1.41h-0.02c-0.84,0.53-1.53,0.93-2.18,1.29
		l0,0c-0.89,0.48-1.59,0.84-2.27,1.15l-0.11,0.04l0,0c-0.75,0.35-1.48,0.66-2.22,0.95c-0.7,0.27-1.54,0.59-2.37,0.86l-0.11,0.03
		v0.01l-0.3,0.09c-0.66,0.2-1.34,0.4-2.01,0.58l-0.09,0.02c-0.79,0.18-1.54,0.34-2.29,0.49l-0.09,0.02
		c-0.87,0.16-1.7,0.28-2.48,0.39h-0.02c-0.75,0.09-1.56,0.17-2.51,0.24l0,0c-0.81,0.04-1.66,0.09-2.52,0.09
		c-0.87,0-1.71-0.04-2.52-0.09l0,0c-0.96-0.08-1.76-0.15-2.51-0.24l-0.12-0.01l0,0c-0.71-0.09-1.47-0.21-2.28-0.36l-0.09-0.01
		c-0.84-0.17-1.63-0.35-2.38-0.51v-0.02l-0.11-0.03c-0.78-0.18-1.55-0.42-2.31-0.67l0,0l-0.11-0.03c-0.79-0.26-1.57-0.54-2.27-0.81
		l0,0l-0.11-0.04c-0.87-0.35-1.63-0.67-2.32-1.01c-0.68-0.32-1.36-0.67-2.27-1.16l0,0c-0.64-0.36-1.34-0.76-2.18-1.29h-0.02
		c-0.63-0.41-1.32-0.87-1.98-1.35v-0.02l-0.09-0.06c-0.79-0.57-1.43-1.05-2.01-1.54l-0.09-0.08v0.02c-0.59-0.51-1.19-1.04-1.79-1.61
		l-0.07-0.08l0,0c-0.55-0.52-1.1-1.08-1.64-1.63l0.02-0.02l-0.07-0.08c-0.61-0.63-1.18-1.26-1.7-1.89l-0.07-0.09l0,0
		c-0.43-0.54-0.88-1.12-1.39-1.83l0,0l-0.06-0.09c-0.55-0.75-1.02-1.44-1.43-2.09l-0.06-0.09h-0.02c-0.39-0.63-0.78-1.29-1.17-1.98
		h0.02l-0.06-0.1c-0.45-0.8-0.86-1.62-1.15-2.25l-0.05-0.11l0,0c-0.31-0.67-0.63-1.39-0.95-2.22l-0.04-0.11h-0.02
		c-0.29-0.73-0.55-1.5-0.81-2.28v-0.02c-0.29-0.87-0.51-1.66-0.7-2.41l-0.02-0.08c-0.2-0.78-0.36-1.53-0.49-2.3l0,0l-0.03-0.1
		c-0.18-0.89-0.3-1.79-0.39-2.47c-0.09-0.67-0.2-1.58-0.24-2.51v-0.02c-0.06-0.85-0.09-1.68-0.09-2.52s0.03-1.68,0.09-2.52v-0.01
		c0.05-0.9,0.15-1.77,0.24-2.51l0.02-0.11l0,0c0.09-0.64,0.2-1.46,0.36-2.26l0,0l0.02-0.11c0.15-0.83,0.31-1.64,0.54-2.47
		c0.22-0.87,0.48-1.71,0.7-2.43l0.03-0.11l-16.76-5.45l-0.11-0.03l-0.03,0.1c-0.4,1.23-0.72,2.34-0.99,3.39l0,0l-0.03,0.1
		l-0.03,0.11l0,0c-0.27,1.03-0.51,2.13-0.73,3.33l0,0l-0.02,0.1c0,0.03-0.02,0.08-0.02,0.11v0.01l0,0c-0.2,1.05-0.38,2.16-0.52,3.38
		l0,0v0.02c0,0.03-0.02,0.06-0.02,0.09l-0.02,0.11l0,0c-0.15,1.21-0.26,2.34-0.33,3.42l0,0v0.11c0,0,0,0,0,0.01v0.11l0,0
		c-0.07,1.21-0.11,2.34-0.12,3.4l0,0v0.12v0.12l0,0c0,1.08,0.04,2.2,0.12,3.4l0,0v0.11c0,0,0,0,0,0.01v0.11l0,0
		c0.07,1.08,0.18,2.19,0.33,3.4l0,0l0.02,0.11l0.02,0.1l0,0c0.15,1.18,0.31,2.3,0.52,3.39l0,0l0.02,0.11
		c0.24,1.29,0.49,2.46,0.78,3.57l0.03,0.1l0,0c0.26,1.02,0.57,2.1,0.96,3.27l0,0l0.03,0.1l0.03,0.11l0,0
		c0.32,0.99,0.71,2.04,1.2,3.32l0.05,0.1h0.02c0.46,1.16,0.93,2.25,1.39,3.26l0.04,0.11h0.02c0.59,1.2,1.07,2.14,1.55,3.03h-0.02
		l0.06,0.11c0.51,0.93,1.11,1.92,1.86,3.12l0.06,0.09l0.02-0.01c0.59,0.91,1.21,1.84,1.93,2.83h-0.02l0.06,0.09
		c0.64,0.87,1.41,1.89,2.22,2.88l0.07,0.09l0.02-0.01c0.66,0.79,1.41,1.62,2.27,2.55l-0.02,0.01l0.07,0.08
		c0.82,0.89,1.68,1.76,2.57,2.57l0.07,0.08l0.02-0.01c0.96,0.88,1.83,1.66,2.64,2.35l0.09,0.08l0.02-0.02
		c0.82,0.67,1.72,1.37,2.7,2.09l-0.02,0.02l0.09,0.06c1.01,0.74,1.99,1.4,2.91,1.98l0,0l0.09,0.06l0.09,0.06l0,0
		c1.11,0.7,2.05,1.26,2.94,1.76l0,0l0.11,0.06l0.11,0.06l0,0c0.89,0.48,1.86,0.98,3.05,1.55l0,0l0.11,0.04l0,0l0.11,0.04l0,0
		c1.06,0.49,2.1,0.93,3.13,1.35l0,0l0.11,0.05c1.04,0.42,2.13,0.81,3.32,1.2l0,0l0.11,0.03l0.11,0.03l0,0
		c1.2,0.39,2.28,0.7,3.29,0.96v0.02l0.11,0.03c1.08,0.27,2.2,0.52,3.43,0.75l0,0l0.11,0.01c1.1,0.21,2.28,0.39,3.59,0.55l0.12,0.02
		l0,0c1.21,0.15,2.34,0.26,3.42,0.33l0,0h0.11h0.12l0,0c1.2,0.07,2.32,0.1,3.42,0.12l0,0h0.12h0.12l0,0c1.08,0,2.22-0.05,3.4-0.12
		l0,0H353h0.11l0,0c1.07-0.08,2.19-0.18,3.39-0.33l0,0l0.11-0.02h0.02l0.11-0.01l0,0c1.2-0.15,2.31-0.33,3.39-0.53l0,0l0.11-0.02
		c1.29-0.24,2.45-0.49,3.57-0.78l0.11-0.03l0,0c1.05-0.27,2.14-0.59,3.38-0.99l0.11-0.03v-0.02c0.96-0.32,1.99-0.69,3.23-1.15l0,0
		l0.11-0.04c0,0,0.02,0,0.02-0.02l0.07-0.03l0,0c1.14-0.46,2.23-0.93,3.24-1.39l0.11-0.04v-0.02c1.17-0.57,2.14-1.07,3.03-1.54l0,0
		l0.11-0.06l0.11-0.06l0,0c0.88-0.48,1.81-1.05,2.94-1.76l0,0l0.09-0.06l0.09-0.06l0,0c0.9-0.57,1.85-1.21,2.84-1.92v0.02l0.09-0.06
		c0.93-0.69,1.92-1.44,2.88-2.22l0.09-0.07l-0.02-0.02c0.79-0.66,1.63-1.41,2.55-2.27l0.02,0.02l0.07-0.08
		c0.86-0.79,1.7-1.64,2.49-2.49l0,0l0.07-0.08l0.07-0.08l0,0c0.89-0.96,1.66-1.83,2.34-2.64l0.07-0.09l-0.02-0.02
		c0.69-0.84,1.37-1.72,2.09-2.7h0.02l0.06-0.09c0.77-1.07,1.44-2.04,2.04-3l0.06-0.09h-0.02c0.71-1.12,1.28-2.07,1.76-2.95
		l0.02,0.01l0.06-0.1c0.51-0.93,1.02-1.93,1.61-3.15l0,0l0.05-0.1c0-0.02,0.02-0.02,0.02-0.03l0.03-0.08l0,0
		c0.51-1.11,0.98-2.17,1.39-3.26l0.05-0.1h-0.02c0.4-1.01,0.78-2.05,1.15-3.2h0.02l0.03-0.11c0.4-1.23,0.72-2.34,0.99-3.39l0,0
		l0.03-0.11l0.03-0.1l0,0c0.27-1.04,0.51-2.13,0.73-3.33h0.02l0.02-0.11c0.21-1.08,0.38-2.23,0.54-3.49l0,0v-0.01
		c0-0.03,0.02-0.05,0.02-0.08l0.02-0.11l0,0c0.15-1.23,0.26-2.34,0.33-3.42l0,0v-0.11c0,0,0,0,0-0.01v-0.11l0,0
		c0.07-1.26,0.12-2.41,0.12-3.52v-0.14L407.28,780.13L407.28,780.13z"/>
</g>
<g>
	<path class="st12" d="M366.74,1071.21c-1.23-0.41-2.34-0.72-3.39-0.99l0,0l-0.11-0.03l-0.11-0.03l0,0
		c-1.05-0.27-2.14-0.51-3.33-0.73l0,0l-0.11-0.02c-1.11-0.21-2.28-0.39-3.59-0.55l-0.12-0.02l0,0c-1.21-0.15-2.34-0.26-3.42-0.33
		l0,0h-0.11h-0.12l0,0c-1.24-0.07-2.4-0.12-3.53-0.12h-0.12v17.73h0.12c0.87,0,1.7,0.03,2.52,0.09h0.02
		c0.73,0.05,1.5,0.12,2.51,0.24l0.12,0.02l0,0c0.64,0.09,1.46,0.2,2.27,0.36l0,0l0.12,0.02c0.84,0.15,1.65,0.33,2.47,0.54
		c0.75,0.19,1.55,0.42,2.43,0.7l0.11,0.03l5.45-16.76l0.03-0.1L366.74,1071.21z"/>
	<path class="st11" d="M406.79,1126.22h-0.02c0-1.08-0.04-2.19-0.12-3.41h0.02v-0.12c-0.07-1.09-0.18-2.25-0.33-3.51l0,0l-0.02-0.1
		l-0.02-0.12l0,0c-0.15-1.2-0.31-2.31-0.52-3.39l0,0l-0.02-0.1c-0.24-1.29-0.49-2.46-0.78-3.57l-0.03-0.1h-0.02
		c-0.26-1.02-0.57-2.1-0.96-3.27l0,0l-0.03-0.1l-0.03-0.1l0,0c-0.33-0.99-0.71-2.04-1.2-3.32l-0.05-0.1h-0.02
		c-0.45-1.11-0.9-2.16-1.35-3.14h0.02l-0.05-0.1c-0.59-1.23-1.1-2.22-1.61-3.15l0,0l-0.06-0.1l-0.06-0.1l0,0
		c-0.49-0.9-1.06-1.85-1.81-3.03l-0.06-0.09l-0.02,0.02c-0.57-0.9-1.2-1.83-1.92-2.82l0,0l-0.06-0.09
		c-0.02-0.02-0.03-0.03-0.03-0.05l-0.03-0.04l0,0c-0.61-0.82-1.34-1.79-2.09-2.7l0,0l-0.07-0.09l-0.07-0.09l0,0
		c-0.66-0.8-1.39-1.6-2.27-2.55l0.02-0.02l-0.07-0.07c-0.79-0.85-1.63-1.69-2.51-2.51l0.02-0.02l-0.09-0.07
		c-0.99-0.92-1.88-1.71-2.71-2.42l-0.09-0.07l-0.02,0.02c-0.82-0.68-1.71-1.36-2.7-2.09v-0.02l-0.09-0.06
		c-1.07-0.77-2.05-1.44-3-2.04l-0.09-0.06v0.02c-1.12-0.71-2.07-1.28-2.96-1.76v-0.02l-0.11-0.06c-0.95-0.51-1.96-1.04-3.24-1.65
		l-0.11-0.04l-0.02,0.02c-1.05-0.49-2.09-0.93-3.12-1.35v-0.02l-0.11-0.05c-1.06-0.43-2.19-0.82-3.42-1.23l-0.11-0.03l-5.45,16.76
		l-0.03,0.1l0.11,0.03c0.77,0.24,1.53,0.51,2.27,0.81l0,0l0.11,0.05c0.82,0.3,1.61,0.66,2.32,1.01l0.11,0.05v-0.02
		c0.63,0.3,1.34,0.66,2.05,1.05v0.02l0.11,0.06c0.73,0.39,1.47,0.84,2.16,1.29l0.09,0.06l0,0c0.66,0.44,1.3,0.87,1.89,1.29l0,0
		l0.09,0.06c0.8,0.57,1.43,1.05,2.01,1.55l0.09,0.07l0.02-0.02c0.45,0.39,0.91,0.81,1.35,1.2l0.38,0.34l0,0l0.09,0.07
		c0.62,0.57,1.2,1.17,1.7,1.7l-0.02,0.02l0.07,0.07c0.62,0.63,1.17,1.24,1.7,1.88c0.49,0.58,0.99,1.24,1.55,2.01
		c0.48,0.66,0.96,1.36,1.43,2.08l0.06,0.09h0.02c0.49,0.81,0.89,1.44,1.21,2.04l0.02,0.03c0.4,0.73,0.77,1.45,1.1,2.14l0,0
		l0.04,0.11c0.36,0.75,0.69,1.5,1.01,2.34l0.04,0.1h0.02c0.29,0.73,0.55,1.5,0.81,2.28c0.27,0.85,0.51,1.65,0.7,2.43l0.03,0.11h0.02
		c0.16,0.7,0.33,1.47,0.49,2.27l0,0l0.02,0.1c0.16,0.85,0.29,1.69,0.39,2.49c0.09,0.72,0.16,1.5,0.23,2.4h-0.02v0.12
		c0.06,0.85,0.09,1.68,0.09,2.52v0.12h0.02c-0.02,0.78-0.05,1.58-0.09,2.42l0,0c-0.06,0.97-0.15,1.77-0.24,2.51l-0.02,0.12l0,0
		c-0.09,0.7-0.21,1.45-0.36,2.27h-0.02l-0.02,0.12c-0.15,0.84-0.31,1.65-0.54,2.47c-0.2,0.75-0.42,1.5-0.68,2.32h-0.02l-0.03,0.1
		c-0.26,0.81-0.54,1.61-0.86,2.37l-0.05,0.1l0,0c-0.29,0.73-0.6,1.46-0.95,2.21v0.02c-0.33,0.68-0.7,1.41-1.1,2.15h-0.02l-0.06,0.1
		c-0.36,0.68-0.78,1.38-1.29,2.16l-0.06,0.09l0,0c-0.42,0.65-0.86,1.29-1.29,1.89l0,0l-0.06,0.09c-0.55,0.77-1.05,1.43-1.54,2.01
		l-0.07,0.09l0.02,0.02c-0.49,0.57-0.99,1.12-1.59,1.77l-0.03,0.03c-0.54,0.57-1.11,1.12-1.7,1.69l-0.02-0.02l-0.07,0.07
		c-0.63,0.61-1.24,1.17-1.88,1.7l-0.09,0.07l0,0c-0.52,0.42-1.1,0.87-1.83,1.4l0,0l-0.09,0.06c-0.66,0.49-1.37,0.96-2.09,1.43
		l-0.09,0.06v0.02c-0.78,0.49-1.44,0.89-2.05,1.21l-0.02,0.02c-0.75,0.41-1.5,0.78-2.14,1.09l0,0l-0.11,0.05
		c-0.69,0.31-1.5,0.69-2.34,1.01l-0.11,0.05v0.02c-0.75,0.29-1.52,0.57-2.28,0.82h-0.02c-0.87,0.29-1.66,0.51-2.4,0.69l-0.11,0.03
		v0.02c-0.8,0.18-1.55,0.34-2.28,0.49l-0.09,0.02c-0.86,0.16-1.7,0.29-2.49,0.39h-0.02c-0.72,0.09-1.5,0.16-2.39,0.22v-0.02h-0.12
		c-0.86,0.06-1.68,0.09-2.52,0.09h-0.12v0.02c-0.79-0.02-1.59-0.04-2.41-0.09l0,0c-0.95-0.06-1.77-0.15-2.52-0.24l-0.11-0.02l0,0
		c-0.7-0.09-1.47-0.21-2.27-0.36v-0.02l-0.12-0.02c-0.87-0.15-1.7-0.33-2.48-0.54c-0.72-0.18-1.48-0.4-2.32-0.67v-0.02l-0.11-0.03
		c-0.79-0.26-1.61-0.54-2.37-0.85l-0.11-0.05l0,0c-0.81-0.33-1.53-0.63-2.19-0.94l-0.02-0.02c-0.64-0.32-1.39-0.69-2.18-1.11v-0.02
		l-0.11-0.06c-0.68-0.36-1.38-0.78-2.16-1.29l-0.03-0.02c-0.71-0.45-1.39-0.92-2.05-1.41l-0.09-0.06l0,0
		c-0.73-0.54-1.35-1.01-1.92-1.47l-0.09-0.07l0,0c-0.6-0.51-1.18-1.04-1.79-1.61l-0.07-0.07l0,0c-0.54-0.53-1.1-1.06-1.63-1.64
		l0.02-0.02l-0.07-0.07c-0.55-0.59-1.14-1.21-1.7-1.89l-0.07-0.09l0,0c-0.44-0.54-0.89-1.12-1.41-1.83l0,0l-0.06-0.09
		c-0.48-0.65-0.96-1.35-1.43-2.08l-0.06-0.09h-0.02c-0.39-0.64-0.8-1.3-1.17-1.98h0.02l-0.06-0.1c-0.38-0.68-0.75-1.4-1.15-2.25
		l-0.04-0.1l0,0c-0.35-0.75-0.66-1.48-0.96-2.22l-0.05-0.1h-0.02c-0.29-0.73-0.55-1.5-0.81-2.28v-0.02
		c-0.29-0.87-0.51-1.65-0.71-2.4l-0.02-0.07c-0.2-0.78-0.36-1.53-0.49-2.29l0,0l-0.03-0.11c-0.18-0.89-0.3-1.78-0.39-2.49v-0.03
		c-0.09-0.69-0.18-1.59-0.24-2.48v-0.02c-0.06-0.85-0.09-1.68-0.09-2.53c0-0.86,0.03-1.68,0.09-2.52v-0.01
		c0.04-0.9,0.15-1.77,0.24-2.51l0.02-0.11l0,0c0.09-0.67,0.2-1.47,0.36-2.27l0,0l0.02-0.12c0.15-0.86,0.33-1.7,0.54-2.48
		c0.18-0.72,0.4-1.48,0.68-2.32h0.02l0.03-0.1c0.24-0.78,0.52-1.53,0.81-2.27l0,0l0.05-0.1c0.35-0.87,0.68-1.64,1.01-2.34l0.05-0.1
		h-0.02c0.31-0.66,0.68-1.35,1.05-2.05l0,0l0.06-0.11c0.36-0.64,0.75-1.3,1.29-2.17c0.46-0.72,0.93-1.41,1.43-2.09l0.06-0.09l0,0
		c0.52-0.72,1.01-1.35,1.47-1.92l0.07-0.09l0,0c0.54-0.63,1.1-1.24,1.61-1.79l0.03-0.03c0.54-0.57,1.11-1.14,1.7-1.7l0,0l0.07-0.07
		c0.59-0.56,1.21-1.14,1.89-1.7c0.55-0.46,1.17-0.94,1.92-1.47l0,0l0.09-0.06c0.64-0.48,1.35-0.96,2.09-1.42l0.09-0.06v-0.02
		l0.35-0.21c0.52-0.32,1.08-0.65,1.62-0.96v0.02l0.11-0.06c0.68-0.38,1.39-0.75,2.27-1.15l0.11-0.05l0,0
		c0.66-0.3,1.43-0.65,2.22-0.94l0.11-0.05v-0.02c0.72-0.27,1.48-0.55,2.28-0.82h0.02c0.87-0.29,1.66-0.51,2.4-0.69l0.09-0.02
		c0.73-0.18,1.5-0.34,2.28-0.49l0,0l0.11-0.03c0.89-0.18,1.79-0.3,2.49-0.39c0.99-0.12,1.79-0.2,2.51-0.24h0.02
		c0.84-0.06,1.66-0.09,2.54-0.09h0.12v-17.73h-0.12c-1.12,0-2.28,0.04-3.52,0.12l0,0h-0.12h-0.11l0,0
		c-1.06,0.08-2.19,0.18-3.39,0.33l0,0l-0.11,0.02l-0.12,0.02l0,0c-1.2,0.15-2.31,0.32-3.39,0.53l0,0l-0.11,0.02
		c-1.28,0.24-2.45,0.49-3.57,0.78l-0.11,0.03l0,0c-1.02,0.26-2.09,0.57-3.27,0.96l0,0l-0.11,0.03l-0.11,0.03l0,0
		c-0.99,0.33-2.04,0.71-3.32,1.2l-0.11,0.05v0.02c-1.15,0.46-2.25,0.93-3.26,1.39l-0.11,0.04v0.02c-1.17,0.57-2.14,1.07-3.03,1.54
		v-0.02l-0.11,0.06c-0.93,0.51-1.93,1.11-3.12,1.86l-0.09,0.06l0.02,0.02c-0.9,0.57-1.83,1.2-2.82,1.92l0,0l-0.09,0.06
		c-0.02,0.02-0.03,0.03-0.05,0.03l-0.04,0.03l0,0c-0.82,0.61-1.79,1.34-2.7,2.09l0,0l-0.07,0.06l-0.02,0.02l-0.09,0.07l0,0
		c-0.78,0.66-1.62,1.41-2.55,2.27l-0.02-0.02l-0.07,0.08c-0.87,0.81-1.71,1.65-2.51,2.51l0,0l-0.07,0.09
		c-0.02,0.03-0.04,0.05-0.06,0.06l0,0l0,0c-0.91,0.97-1.66,1.83-2.36,2.65l-0.07,0.09l0.02,0.02c-0.68,0.84-1.37,1.72-2.09,2.7l0,0
		l-0.06,0.09l-0.06,0.09l0,0c-0.72,0.99-1.35,1.92-1.92,2.82l0,0l-0.06,0.09l-0.06,0.09l0,0c-0.72,1.14-1.26,2.06-1.76,2.94h-0.02
		l-0.06,0.1c-0.52,0.94-1.05,1.98-1.65,3.24l-0.05,0.1h0.02c-0.49,1.07-0.93,2.1-1.35,3.12h-0.02l-0.05,0.1
		c-0.42,1.05-0.81,2.13-1.2,3.33h-0.02l-0.03,0.1c-0.4,1.23-0.72,2.34-0.99,3.39l0,0l-0.03,0.1l-0.03,0.11l0,0
		c-0.27,1.03-0.51,2.13-0.73,3.33l0,0l-0.02,0.1c0,0.03-0.02,0.07-0.02,0.1v0.02l0,0c-0.2,1.05-0.38,2.16-0.52,3.38l0,0v0.02
		c0,0.03,0,0.05-0.02,0.08l-0.02,0.1l0,0c-0.15,1.21-0.26,2.34-0.33,3.42l0,0v0.1v0.12l0,0c-0.07,1.21-0.11,2.34-0.12,3.4l0,0v0.12
		v0.12l0,0c0,1.08,0.04,2.2,0.12,3.41l0,0v0.12v0.1l0,0c0.07,1.08,0.18,2.19,0.33,3.4l0,0l0.02,0.11c0,0,0,0,0,0.02l0.02,0.1l0,0
		c0.15,1.19,0.31,2.3,0.52,3.39l0,0l0.02,0.1c0.24,1.29,0.49,2.46,0.78,3.57l0.03,0.1l0,0c0.26,1.02,0.57,2.1,0.96,3.27l0,0
		l0.03,0.1l0.03,0.1l0,0c0.32,0.99,0.71,2.04,1.2,3.32l0.05,0.1h0.02c0.46,1.14,0.93,2.23,1.39,3.26l0.04,0.1h0.02
		c0.57,1.19,1.07,2.15,1.55,3.03h-0.02l0.06,0.1c0.51,0.93,1.11,1.94,1.86,3.12l0.06,0.09l0.02-0.02c0.57,0.9,1.21,1.85,1.93,2.84
		h-0.02l0.06,0.09c0.64,0.87,1.41,1.91,2.22,2.88l0.07,0.09l0.02-0.02c0.66,0.78,1.38,1.61,2.27,2.55l-0.02,0.02l0.07,0.07
		c0.82,0.89,1.68,1.76,2.57,2.57l0.07,0.07v-0.02c0.96,0.89,1.83,1.66,2.64,2.35l0.09,0.07l0.02-0.02c0.81,0.68,1.7,1.35,2.7,2.09
		l0,0l0.09,0.06l0.09,0.06l0,0c0.99,0.72,1.92,1.35,2.82,1.92l0,0l0.09,0.06l0.09,0.06l0,0c1.11,0.7,2.05,1.26,2.94,1.76v0.02
		l0.11,0.06c0.91,0.51,1.89,1.01,3.15,1.6l0,0l0.11,0.05c0,0,0.02,0,0.02,0.02l0.07,0.04l0,0c1.11,0.51,2.18,0.97,3.26,1.4
		l0.11,0.05v-0.02c1.01,0.39,2.05,0.78,3.2,1.15v0.02l0.11,0.03c1.23,0.41,2.34,0.72,3.39,0.99l0,0l0.11,0.03l0.11,0.03l0,0
		c1.05,0.27,2.14,0.51,3.33,0.73v0.02l0.11,0.02c1.1,0.21,2.23,0.39,3.49,0.54l0,0h0.02c0.03,0,0.06,0.02,0.09,0.02l0.11,0.02l0,0
		c1.21,0.15,2.34,0.26,3.42,0.33l0,0h0.11h0.12l0,0c1.26,0.07,2.41,0.12,3.53,0.12h0.12v-0.02c1.08,0,2.19-0.05,3.4-0.12v0.02h0.12
		c1.11-0.07,2.27-0.18,3.51-0.33l0,0l0.11-0.02c0,0,0,0,0.02,0l0.11-0.02l0,0c1.18-0.15,2.29-0.32,3.39-0.53l0,0l0.11-0.02
		c1.29-0.24,2.46-0.49,3.57-0.78l0.11-0.03v-0.02c1.02-0.26,2.1-0.57,3.27-0.96l0,0l0.11-0.03l0.11-0.03l0,0
		c0.99-0.31,2.04-0.7,3.31-1.2l0.11-0.05v-0.02c1.14-0.46,2.16-0.9,3.14-1.35v0.02l0.11-0.05c1.26-0.6,2.23-1.09,3.15-1.6l0,0
		l0.11-0.06l0.11-0.06l0,0c0.9-0.49,1.86-1.08,3.03-1.8l0.09-0.06l-0.02-0.02c0.9-0.57,1.83-1.2,2.84-1.93v0.02l0.09-0.06
		c0.95-0.69,1.93-1.44,2.88-2.22l0.09-0.07l-0.02-0.02c0.8-0.66,1.62-1.41,2.55-2.27l0.02,0.02l0.07-0.08
		c0.86-0.79,1.7-1.64,2.49-2.49l0,0l0.07-0.09l0.07-0.07l0,0c0.88-0.96,1.66-1.82,2.34-2.64l0.07-0.09l-0.02-0.02
		c0.69-0.84,1.38-1.72,2.09-2.7h0.02l0.06-0.09c0.75-1.05,1.44-2.06,2.04-3l0.06-0.09h-0.02c0.7-1.12,1.27-2.07,1.76-2.96l0.02,0.02
		l0.06-0.1c0.51-0.93,1.02-1.94,1.61-3.15l0,0l0.04-0.1c0,0,0-0.02,0.02-0.02l0.05-0.07l0,0c0.51-1.1,0.97-2.16,1.39-3.26l0.04-0.11
		h-0.02c0.4-1.01,0.78-2.07,1.15-3.19h0.02l0.03-0.1c0.39-1.22,0.72-2.33,0.99-3.39l0,0l0.03-0.11l0.03-0.1l0,0
		c0.27-1.04,0.51-2.13,0.73-3.33h0.02l0.02-0.11c0.21-1.08,0.38-2.23,0.54-3.49l0,0v-0.02c0-0.03,0.02-0.06,0.02-0.09l0.02-0.12l0,0
		c0.15-1.23,0.26-2.34,0.33-3.42l0,0v-0.1v-0.12l0,0c0.07-1.26,0.12-2.42,0.12-3.53L406.79,1126.22L406.79,1126.22z"/>
</g>
<g>
	<path class="st10" d="M209.35,776.62c-0.07-1.1-0.18-2.25-0.33-3.51l0,0L209,773l-0.02-0.1l0,0c-0.15-1.2-0.31-2.31-0.53-3.39l0,0
		l-0.02-0.1c-0.24-1.29-0.49-2.46-0.78-3.57l-0.03-0.11l0,0c-0.27-1.05-0.59-2.16-0.99-3.38l-0.03-0.1h-0.02
		c-0.31-0.96-0.69-1.99-1.15-3.23l0,0l-0.03-0.07c0-0.02-0.02-0.03-0.02-0.03l-0.04-0.11l0,0c-0.46-1.14-0.93-2.23-1.39-3.24
		l-0.04-0.1h-0.02c-0.59-1.2-1.1-2.21-1.59-3.14l-0.06-0.11h-0.02c-0.49-0.9-1.06-1.86-1.8-3.01l-0.06-0.09l0,0
		c-0.57-0.9-1.21-1.83-1.92-2.83l0.02-0.02l-0.06-0.09c-0.64-0.87-1.41-1.89-2.22-2.88l-0.07-0.09l-0.02,0.02
		c-0.66-0.78-1.41-1.62-2.27-2.55l0.02-0.02l-0.07-0.08c-0.79-0.85-1.63-1.7-2.51-2.49l0.02-0.02l-0.09-0.08
		c-0.99-0.91-1.88-1.71-2.71-2.41l-0.09-0.08l-0.02,0.02c-0.84-0.69-1.72-1.36-2.7-2.09v-0.01l-0.09-0.06
		c-1.05-0.75-2.05-1.44-3-2.04l-0.09-0.06v0.02c-1.12-0.71-2.07-1.28-2.96-1.76v-0.01l-0.11-0.06c-0.96-0.53-1.99-1.05-3.24-1.65
		l-0.11-0.04v0.01c-1.06-0.49-2.09-0.93-3.12-1.35l0,0l-0.11-0.04c-1.05-0.42-2.13-0.81-3.33-1.2v-0.02l-0.11-0.03
		c-1.23-0.41-2.34-0.72-3.39-0.99l0,0l-0.11-0.03l-0.11-0.03l0,0c-1.04-0.27-2.13-0.51-3.33-0.73l0,0l-0.11-0.02
		c-1.1-0.21-2.28-0.39-3.59-0.55l-0.12-0.01l0,0c-1.21-0.15-2.34-0.26-3.42-0.33l0,0h-0.11h-0.12l0,0
		c-1.23-0.08-2.41-0.12-3.53-0.12h-0.12v17.73h0.12c0.86,0,1.68,0.03,2.54,0.09h0.03c0.73,0.04,1.52,0.12,2.49,0.24l0.12,0.02l0,0
		c0.64,0.07,1.44,0.2,2.27,0.36l0,0l0.12,0.02c0.84,0.15,1.65,0.33,2.47,0.54c0.72,0.18,1.48,0.41,2.32,0.67v0.02l0.11,0.03
		c0.77,0.24,1.53,0.51,2.27,0.81l0,0l0.11,0.04c0.79,0.32,1.56,0.63,2.32,1.01l0.11,0.05v-0.02c0.69,0.33,1.39,0.69,2.05,1.05V745
		l0.11,0.06c0.64,0.36,1.34,0.76,2.18,1.29l0.09,0.06l0,0c0.57,0.36,1.17,0.76,1.89,1.29l0,0l0.09,0.06
		c0.77,0.55,1.43,1.05,2.01,1.54l0.09,0.08l0.02-0.01c0.53,0.45,1.08,0.95,1.72,1.54v0.01l0.09,0.08c0.59,0.54,1.15,1.11,1.7,1.7
		l0,0l0.07,0.08c0.54,0.55,1.08,1.16,1.7,1.89l0.07,0.09l0,0c0.51,0.63,0.99,1.26,1.41,1.83l-0.02,0.02l0.07,0.09
		c0.53,0.69,0.99,1.41,1.43,2.09l0.06,0.09l0,0c0.48,0.75,0.88,1.44,1.24,2.09l0.06,0.1l0,0c0.44,0.81,0.79,1.5,1.1,2.15l0.04,0.1
		l0,0c0.31,0.68,0.62,1.4,0.95,2.21v0.02c0.3,0.79,0.59,1.59,0.86,2.39l0.03,0.1h0.02l0.12,0.39c0.18,0.63,0.38,1.27,0.55,1.93
		l0.02,0.06c0.2,0.83,0.36,1.59,0.49,2.31l0,0l0.02,0.11c0.16,0.85,0.29,1.7,0.39,2.49c0.09,0.77,0.18,1.59,0.24,2.52l0.02,0.1
		l17.58-1.09h0.11L209.35,776.62z"/>
	<path class="st9" d="M209.47,780.13h-0.02c0-1.11-0.04-2.26-0.12-3.52v-0.11l-17.6,1.09h-0.12v0.12c0.06,0.85,0.09,1.68,0.09,2.52
		v0.12h0.02c-0.02,0.79-0.04,1.58-0.09,2.42l0,0c-0.06,0.93-0.15,1.75-0.24,2.52l-0.02,0.11l0,0c-0.09,0.72-0.21,1.48-0.36,2.28
		l-0.02,0.09c-0.15,0.79-0.33,1.58-0.51,2.37h-0.02l-0.03,0.1c-0.2,0.75-0.42,1.55-0.71,2.42v0.01c-0.26,0.75-0.53,1.5-0.81,2.27
		l0,0l-0.04,0.1c-0.33,0.86-0.66,1.62-1.01,2.34l-0.02,0.02c-0.35,0.73-0.72,1.45-1.1,2.14h-0.02l-0.06,0.11
		c-0.39,0.75-0.82,1.47-1.29,2.16l-0.06,0.09l0.02,0.01c-0.38,0.57-0.81,1.22-1.29,1.89l-0.02-0.02l-0.06,0.09
		c-0.57,0.78-1.05,1.42-1.54,2.01l-0.07,0.09l0.02,0.02c-0.45,0.51-1.01,1.15-1.62,1.8l-0.07,0.08l12.84,12.06l0.09,0.08l0.07-0.08
		c0.93-0.99,1.71-1.88,2.41-2.71l0.07-0.09l-0.02-0.01c0.68-0.83,1.37-1.71,2.09-2.7l0.02,0.02l0.06-0.09
		c0.78-1.08,1.44-2.05,2.04-3l0.06-0.09l-0.02-0.02c0.71-1.12,1.28-2.07,1.76-2.94l0.02,0.01l0.06-0.1
		c0.51-0.93,1.02-1.93,1.61-3.15l0,0l0.04-0.1c0-0.02,0.02-0.02,0.02-0.03l0.03-0.08l0,0c0.49-1.07,0.93-2.08,1.35-3.14l0,0
		l0.04-0.1c0.42-1.05,0.81-2.13,1.2-3.32l0,0l0.03-0.11l0.03-0.1l0,0c0.38-1.18,0.69-2.27,0.96-3.29h0.02l0.03-0.1
		c0.27-1.07,0.53-2.19,0.75-3.43l0,0l0.02-0.11c0-0.03,0.02-0.07,0.02-0.12v-0.01l0,0c0.2-1.05,0.36-2.15,0.53-3.38l0,0v-0.02
		c0-0.03,0.02-0.04,0.02-0.08l0.02-0.1l0,0c0.15-1.23,0.26-2.34,0.33-3.42l0,0v-0.1c0,0,0,0,0-0.02v-0.1l0,0
		c0.07-1.26,0.12-2.42,0.12-3.53v-0.14L209.47,780.13L209.47,780.13z"/>
	<path class="st8" d="M180.97,807.79l-0.09-0.08l-0.07,0.09c-0.54,0.59-1.11,1.16-1.7,1.7l-0.02-0.01l-0.07,0.08
		c-0.55,0.55-1.17,1.09-1.88,1.68l-0.09,0.08l0.02,0.01c-0.63,0.49-1.29,0.99-1.83,1.41l0,0l-0.09,0.06
		c-0.62,0.45-1.28,0.9-2.09,1.42l0,0c-0.84,0.52-1.52,0.93-2.16,1.29l-0.02,0.02c-0.72,0.4-1.48,0.78-2.23,1.14l-0.11,0.05l0,0
		c-0.75,0.34-1.48,0.66-2.22,0.95c-0.71,0.27-1.54,0.58-2.37,0.85l-0.11,0.03v0.01l-0.3,0.09c-0.66,0.2-1.34,0.4-2.01,0.58
		l-0.09,0.02c-0.79,0.18-1.54,0.34-2.29,0.49l-0.09,0.02c-0.87,0.16-1.7,0.28-2.47,0.39h-0.02c-0.75,0.09-1.54,0.17-2.51,0.24l0,0
		c-0.81,0.04-1.66,0.09-2.52,0.09c-0.87,0-1.71-0.04-2.52-0.09l0,0c-0.96-0.08-1.76-0.15-2.51-0.24l-0.12-0.01l0,0
		c-0.71-0.09-1.47-0.21-2.27-0.36l-0.11-0.01c-0.78-0.15-1.56-0.32-2.38-0.51v-0.02l-0.11-0.03c-0.77-0.18-1.5-0.41-2.27-0.66
		l-0.04-0.01l0,0l-0.04-0.02l-0.06-0.02c-0.79-0.25-1.57-0.54-2.25-0.81l0,0l-0.11-0.05c-0.82-0.33-1.54-0.64-2.22-0.95l0,0
		l-0.11-0.04c-0.69-0.32-1.44-0.69-2.25-1.16l-0.11-0.06l0,0c-0.62-0.35-1.29-0.74-2.09-1.25H130c-0.63-0.4-1.32-0.87-1.98-1.35
		v-0.01l-0.09-0.06c-0.79-0.57-1.43-1.05-2.01-1.55l-0.09-0.07l0,0c-0.51-0.45-1.15-1.01-1.79-1.61l-0.07-0.08l0,0
		c-0.55-0.53-1.1-1.08-1.63-1.64l0.02-0.01l-0.07-0.08c-0.62-0.63-1.19-1.26-1.7-1.89l-0.07-0.09l0,0c-0.42-0.53-0.87-1.1-1.41-1.83
		l0,0l-0.06-0.09c-0.54-0.75-1.01-1.43-1.43-2.09l-0.06-0.09h-0.02c-0.39-0.63-0.78-1.29-1.17-1.98h0.02l-0.06-0.11
		c-0.45-0.78-0.82-1.57-1.15-2.25l-0.04-0.1l0,0c-0.31-0.69-0.63-1.41-0.95-2.22l-0.04-0.11h-0.02c-0.29-0.73-0.55-1.48-0.81-2.28
		v-0.01c-0.27-0.86-0.49-1.64-0.71-2.4l-0.02-0.08c-0.2-0.78-0.36-1.53-0.49-2.29l0,0l-0.03-0.11c-0.18-0.88-0.3-1.78-0.39-2.47
		l-0.02-0.1l0,0c-0.11-0.9-0.18-1.62-0.22-2.3l0,0v-0.12c-0.06-0.85-0.09-1.68-0.09-2.52s0.03-1.67,0.09-2.52v-0.01
		c0.04-0.9,0.15-1.82,0.24-2.51l0.02-0.11l0,0c0.09-0.64,0.2-1.45,0.36-2.26l0,0l0.02-0.11c0.15-0.83,0.31-1.64,0.54-2.47
		c0.22-0.86,0.46-1.65,0.68-2.33h0.02l0.03-0.1c0.24-0.77,0.51-1.53,0.81-2.27l0,0l0.04-0.11c0.35-0.85,0.66-1.62,1.01-2.34
		l0.04-0.11l0,0c0.39-0.81,0.72-1.47,1.05-2.05l0,0l0.06-0.1c0.35-0.65,0.77-1.32,1.28-2.15l0.02-0.01
		c0.46-0.74,0.95-1.42,1.43-2.09l0.06-0.09c0.53-0.74,1.01-1.37,1.47-1.91l0.07-0.09l0,0c0.46-0.54,0.99-1.12,1.59-1.77l0.03-0.04
		c0.54-0.57,1.11-1.14,1.7-1.7l0,0l0.07-0.08c0.68-0.63,1.29-1.18,1.89-1.7c0.59-0.48,1.21-0.97,2.01-1.54l0.03-0.02
		c0.64-0.48,1.34-0.95,2.05-1.41l0.09-0.06l0,0c0.54-0.33,1.23-0.75,1.98-1.17l0,0l0.11-0.06c0.68-0.38,1.39-0.75,2.27-1.16
		l0.11-0.04l0,0c0.68-0.3,1.39-0.62,2.22-0.95l0.11-0.05v-0.01c0.73-0.29,1.5-0.55,2.27-0.81l0,0c0.71-0.22,1.56-0.48,2.43-0.71
		l0.07-0.01c0.79-0.2,1.54-0.36,2.29-0.5l0,0l0.11-0.03c0.68-0.14,1.41-0.26,2.37-0.38l0.12-0.02c0.96-0.12,1.71-0.2,2.4-0.22l0,0
		l0.12-0.02c0.84-0.06,1.68-0.09,2.52-0.09h0.12v-17.73h-0.12c-1.11,0-2.29,0.04-3.53,0.12l0,0H148h-0.11l0,0
		c-1.06,0.08-2.19,0.18-3.4,0.33l0,0l-0.11,0.02h-0.02l-0.11,0.02l0,0c-1.2,0.15-2.31,0.33-3.39,0.52l0,0l-0.11,0.02
		c-1.29,0.24-2.45,0.49-3.57,0.78l-0.11,0.03l0,0c-1.02,0.26-2.09,0.57-3.27,0.96l0,0l-0.11,0.03l-0.11,0.03l0,0
		c-0.97,0.32-2.04,0.71-3.31,1.2l-0.11,0.04v0.02c-1.14,0.46-2.23,0.93-3.26,1.39l-0.11,0.05v0.01c-1.17,0.55-2.13,1.05-3.02,1.53
		l0,0l-0.11,0.06c-0.93,0.51-1.94,1.11-3.12,1.86l-0.09,0.06l0,0c-0.9,0.57-1.86,1.22-2.84,1.93l0,0l-0.09,0.06
		c-0.02,0.01-0.03,0.03-0.04,0.03l-0.04,0.03l0,0c-0.84,0.61-1.79,1.34-2.71,2.09l0,0l-0.07,0.06l-0.02,0.01l-0.09,0.08l0,0
		c-0.79,0.67-1.62,1.41-2.55,2.27l-0.02-0.02l-0.07,0.08c-0.87,0.81-1.71,1.65-2.51,2.51l0,0l-0.07,0.08
		c-0.02,0.01-0.04,0.04-0.06,0.06l0,0c-0.9,0.96-1.66,1.83-2.36,2.65l-0.07,0.09l0.02,0.01c-0.69,0.84-1.38,1.73-2.08,2.7l0,0
		l-0.06,0.09l-0.06,0.09l0,0c-0.72,0.99-1.35,1.92-1.92,2.82l0,0l-0.06,0.09l-0.06,0.09l0,0c-0.71,1.12-1.28,2.07-1.75,2.96l0,0
		l-0.06,0.1c-0.53,0.96-1.05,1.98-1.65,3.24L99,755.7h0.01c-0.5,1.07-0.93,2.08-1.33,3.12l0,0l-0.04,0.1
		c-0.42,1.04-0.81,2.13-1.2,3.33h-0.01l-0.03,0.11c-0.41,1.23-0.72,2.34-0.99,3.39l0,0l-0.03,0.11l-0.03,0.1l0,0
		c-0.27,1.04-0.51,2.13-0.74,3.33l0,0l-0.01,0.1c-0.21,1.1-0.39,2.28-0.55,3.59l-0.01,0.11l0,0c-0.15,1.21-0.25,2.34-0.33,3.42l0,0
		v0.1l0,0v0.11l0,0c-0.08,1.18-0.11,2.34-0.12,3.4l0,0v0.12v0.12l0,0c0,1.08,0.04,2.22,0.12,3.4l0,0v0.11l0,0v0.1l0,0
		c0.08,1.07,0.18,2.19,0.33,3.41l0,0l0.01,0.1l0.01,0.11l0,0c0.15,1.2,0.33,2.31,0.53,3.39l0,0l0.01,0.1
		c0.24,1.29,0.5,2.46,0.78,3.57l0.03,0.11l0,0c0.25,1.02,0.57,2.08,0.96,3.27l0,0l0.03,0.11l0.03,0.1l0,0
		c0.32,0.99,0.71,2.04,1.2,3.32l0.04,0.11h0.01c0.46,1.15,0.93,2.25,1.39,3.26l0.04,0.1h0.01c0.55,1.17,1.05,2.13,1.54,3.03h-0.01
		l0.06,0.1c0.51,0.93,1.11,1.92,1.86,3.12l0.06,0.09l0.01-0.02c0.58,0.92,1.21,1.85,1.93,2.84h-0.01l0.06,0.09
		c0.64,0.87,1.41,1.89,2.22,2.88l0.07,0.09l0.02-0.02c0.66,0.79,1.41,1.62,2.27,2.55l-0.02,0.02l0.07,0.08
		c0.82,0.88,1.68,1.76,2.56,2.57l0.07,0.08l0.02-0.02c0.96,0.89,1.81,1.66,2.64,2.36l0.09,0.07l0.02-0.01
		c0.84,0.69,1.72,1.36,2.71,2.08l-0.02,0.02l0.09,0.06c1.01,0.73,1.99,1.39,2.91,1.98l0,0l0.09,0.06l0.09,0.06l0,0
		c1.15,0.74,2.13,1.3,3.03,1.8l0.11,0.06v-0.01c0.9,0.49,1.88,0.99,3.04,1.54v0.01l0.11,0.05c1.1,0.51,2.16,0.97,3.24,1.39l0,0
		l0.11,0.04c1.04,0.42,2.13,0.81,3.31,1.2l0,0l0.11,0.03l0.11,0.03l0,0c1.2,0.39,2.28,0.7,3.29,0.96v0.02l0.11,0.03
		c1.08,0.27,2.21,0.53,3.44,0.75l0,0l0.11,0.02c1.1,0.21,2.28,0.39,3.59,0.55l0.12,0.02l0,0c1.21,0.15,2.34,0.26,3.42,0.33l0,0h0.11
		H148l0,0c1.19,0.08,2.34,0.11,3.4,0.12l0,0h0.12h0.12l0,0c1.08,0,2.22-0.05,3.4-0.12l0,0h0.12h0.11l0,0
		c1.06-0.07,2.19-0.18,3.4-0.33l0,0l0.11-0.02h0.02l0.11-0.02l0,0c1.2-0.15,2.31-0.33,3.39-0.52l0,0l0.11-0.02
		c1.29-0.24,2.45-0.49,3.57-0.78l0.11-0.03l0,0c1.05-0.27,2.14-0.59,3.38-0.99l0.11-0.03v-0.02c0.96-0.32,1.99-0.69,3.22-1.15l0,0
		l0.11-0.05c0,0,0.02,0,0.02-0.01l0.07-0.03l0,0c1.14-0.46,2.23-0.93,3.24-1.39l0.11-0.05v-0.01c1.17-0.57,2.14-1.07,3.03-1.54l0,0
		l0.11-0.06l0.11-0.06l0,0c0.88-0.48,1.81-1.05,2.94-1.76l0,0l0.09-0.06l0.09-0.06l0,0c0.9-0.57,1.85-1.21,2.84-1.92v0.02l0.09-0.06
		c0.88-0.65,1.9-1.42,2.88-2.22l0.09-0.08l-0.02-0.01c0.79-0.66,1.63-1.41,2.55-2.27l0.02,0.02l0.07-0.08
		c0.88-0.83,1.76-1.68,2.56-2.57l0.07-0.08L180.97,807.79z"/>
</g>
<g>
	<path class="st10" d="M208.98,1126.47h-0.02c0-1.08-0.04-2.19-0.12-3.41h0.02v-0.12c-0.07-1.09-0.18-2.25-0.33-3.51l0,0l-0.02-0.1
		l-0.02-0.12l0,0c-0.15-1.2-0.31-2.31-0.53-3.39l0,0l-0.02-0.1c-0.24-1.29-0.49-2.46-0.78-3.57l-0.03-0.1l0,0
		c-0.27-1.05-0.59-2.16-0.99-3.38l-0.03-0.1h-0.02c-0.31-0.96-0.69-1.98-1.15-3.22l0,0l-0.03-0.06c0-0.02-0.02-0.03-0.02-0.04
		l-0.04-0.11l0,0c-0.46-1.14-0.93-2.23-1.39-3.24l-0.04-0.1h-0.02c-0.59-1.21-1.1-2.22-1.61-3.14l-0.06-0.1h-0.02
		c-0.49-0.9-1.06-1.86-1.8-3.02l-0.06-0.09l-0.02,0.02c-0.57-0.9-1.21-1.85-1.92-2.84l0.02-0.02l-0.06-0.09
		c-0.64-0.87-1.43-1.91-2.22-2.88l-0.07-0.09l-0.02,0.02c-0.66-0.79-1.41-1.63-2.27-2.55l0.02-0.02l-0.07-0.08
		c-0.79-0.85-1.63-1.69-2.51-2.51l0.02-0.02l-0.09-0.07c-0.97-0.91-1.86-1.69-2.71-2.41l-0.09-0.08l-0.02,0.02
		c-0.84-0.69-1.72-1.36-2.7-2.08v-0.02l-0.09-0.06c-1.05-0.75-2.05-1.44-3-2.04l-0.09-0.06v0.02c-1.12-0.7-2.07-1.28-2.94-1.76l0,0
		l-0.11-0.06l-0.11-0.06l0,0c-0.9-0.49-1.88-0.99-3.04-1.55l0,0l-0.07-0.03c-0.02,0-0.02-0.02-0.03-0.02l-0.11-0.04l0,0
		c-1.06-0.49-2.09-0.93-3.13-1.35l0,0l-0.11-0.04c-1.04-0.42-2.13-0.81-3.31-1.2l0,0l-0.11-0.03l-0.11-0.03l0,0
		c-1.19-0.39-2.27-0.71-3.29-0.96v-0.02l-0.11-0.03c-1.06-0.27-2.21-0.53-3.44-0.75l0,0l-0.11-0.02c-1.11-0.21-2.29-0.39-3.59-0.55
		l-0.11-0.02l0,0c-1.21-0.15-2.34-0.26-3.42-0.33l0,0h-0.11h-0.12l0,0c-1.23-0.07-2.41-0.12-3.53-0.12h-0.12v17.73h0.12
		c0.87,0,1.7,0.03,2.54,0.09h0.02c0.93,0.05,1.83,0.15,2.51,0.24l0.12,0.02l0,0c0.64,0.09,1.46,0.2,2.27,0.36l0,0l0.12,0.02
		c0.81,0.14,1.59,0.32,2.37,0.51v0.02l0.11,0.03c0.78,0.18,1.57,0.42,2.41,0.7l0.04,0.02c0.75,0.24,1.5,0.51,2.21,0.8l0,0l0.11,0.04
		c0.78,0.3,1.54,0.63,2.32,1.01l0.04,0.03c0.68,0.32,1.46,0.71,2.21,1.12l0.11,0.06l0,0c0.63,0.34,1.28,0.73,2.07,1.23l0.09,0.06
		l0,0c0.57,0.36,1.17,0.78,1.89,1.29l0,0l0.09,0.06c0.77,0.55,1.43,1.05,2.01,1.54l0.09,0.08l0.02-0.02
		c0.53,0.45,1.1,0.96,1.72,1.54v0.02l0.09,0.08c0.59,0.54,1.15,1.11,1.7,1.69h-0.02l0.07,0.07c0.54,0.56,1.08,1.16,1.7,1.88
		l0.07,0.09l0,0c0.51,0.63,0.99,1.27,1.41,1.83l-0.02,0.02l0.07,0.09c0.44,0.57,0.87,1.21,1.43,2.07l0.06,0.09h0.02
		c0.48,0.75,0.88,1.43,1.23,2.08l0.06,0.11l0,0c0.44,0.81,0.79,1.5,1.1,2.14l0.04,0.11l0,0c0.31,0.69,0.63,1.41,0.95,2.2l0,0
		c0.26,0.69,0.55,1.5,0.86,2.39l0.03,0.1h0.02l0.03,0.12c0.21,0.73,0.44,1.47,0.64,2.2l0.02,0.06c0.2,0.82,0.36,1.57,0.49,2.31l0,0
		l0.02,0.1c0.16,0.85,0.29,1.69,0.39,2.49v0.02c0.09,0.73,0.16,1.52,0.22,2.39h-0.02v0.12c0.06,0.84,0.09,1.69,0.09,2.52v0.09h0.02
		c-0.02,0.78-0.04,1.57-0.09,2.41l0,0c-0.06,0.93-0.15,1.76-0.24,2.51l-0.02,0.12l0,0c-0.09,0.72-0.21,1.48-0.36,2.3l-0.02,0.07
		c-0.15,0.8-0.33,1.57-0.51,2.37h-0.02l-0.03,0.1c-0.2,0.75-0.42,1.55-0.71,2.43l-0.03,0.1l16.76,5.45l0.11,0.03l0.03-0.1
		c0.39-1.23,0.72-2.34,0.99-3.41h0.02l0.03-0.1c0.27-1.06,0.53-2.19,0.75-3.44l0,0l0.02-0.1c0-0.03,0.02-0.07,0.02-0.1v-0.02l0,0
		c0.2-1.05,0.36-2.16,0.53-3.38l0,0v-0.02c0-0.03,0.02-0.06,0.02-0.09l0.02-0.12l0,0c0.15-1.23,0.26-2.34,0.33-3.42l0,0v-0.1v-0.12
		l0,0c0.07-1.26,0.12-2.41,0.12-3.53v-0.07L208.98,1126.47L208.98,1126.47z"/>
	<path class="st8" d="M151.01,1068.63c-1.11,0-2.29,0.04-3.53,0.12l0,0h-0.12h-0.11l0,0c-1.06,0.07-2.19,0.18-3.4,0.33l0,0
		l-0.11,0.02h-0.02l-0.11,0.02l0,0c-1.2,0.15-2.31,0.32-3.39,0.53l0,0l-0.11,0.02c-1.29,0.24-2.46,0.49-3.57,0.78l-0.11,0.03l0,0
		c-1.05,0.27-2.14,0.59-3.38,0.99l-0.11,0.03v0.02c-0.96,0.32-1.98,0.69-3.22,1.15l0,0l-0.11,0.05c0,0-0.02,0-0.02,0.02l-0.07,0.03
		l0,0c-1.14,0.46-2.23,0.93-3.24,1.39l-0.11,0.05v0.02c-1.21,0.58-2.22,1.09-3.13,1.6l-0.11,0.06v0.02
		c-0.87,0.48-1.81,1.03-2.93,1.76v-0.02l-0.09,0.06c-0.91,0.59-1.9,1.24-2.91,1.98l0,0l-0.09,0.06c-0.02,0.02-0.03,0.03-0.04,0.03
		l-0.04,0.03l0,0c-0.84,0.61-1.79,1.33-2.71,2.08l0,0l-0.07,0.06l-0.02,0.02l-0.09,0.07l0,0c-0.79,0.68-1.62,1.41-2.55,2.27
		l-0.02-0.02l-0.07,0.07c-0.86,0.8-1.7,1.65-2.51,2.51l0,0l-0.07,0.09c-0.02,0.03-0.04,0.04-0.06,0.06l0,0l0,0
		c-0.88,0.96-1.66,1.83-2.36,2.66l-0.07,0.09l0.02,0.02c-0.68,0.84-1.37,1.72-2.08,2.7l0,0l-0.06,0.09l-0.06,0.09l0,0
		c-0.74,1.02-1.39,1.98-1.98,2.91l-0.06,0.09h0.01c-0.71,1.12-1.28,2.07-1.75,2.95h-0.01l-0.06,0.1c-0.53,0.96-1.05,1.98-1.65,3.24
		l-0.04,0.1h0.01c-0.5,1.06-0.93,2.08-1.33,3.12l0,0l-0.04,0.1c-0.42,1.04-0.81,2.13-1.2,3.33h-0.01l-0.03,0.11
		c-0.41,1.24-0.72,2.35-0.99,3.39l0,0l-0.03,0.1l-0.03,0.1l0,0c-0.27,1.04-0.51,2.13-0.74,3.33l0,0l-0.01,0.11
		c-0.21,1.09-0.39,2.28-0.55,3.58l-0.01,0.12l0,0c-0.15,1.21-0.25,2.34-0.33,3.42l0,0v0.1v0.12l0,0c-0.08,1.18-0.11,2.34-0.12,3.4
		l0,0v0.12v0.09l0,0c0,1.08,0.04,2.22,0.12,3.4l0,0v0.12v0.11l0,0c0.08,1.06,0.18,2.19,0.33,3.4l0,0l0.01,0.1v0.02l0.01,0.11l0,0
		c0.15,1.2,0.33,2.31,0.53,3.39l0,0l0.01,0.1c0.24,1.29,0.5,2.46,0.78,3.57l0.03,0.11l0,0c0.25,1.02,0.57,2.08,0.96,3.27l0,0
		l0.03,0.11l0.03,0.1l0,0c0.32,0.99,0.71,2.04,1.2,3.31l0.04,0.11h0.01c0.46,1.14,0.93,2.23,1.39,3.26l0.04,0.1h0.01
		c0.55,1.16,1.05,2.13,1.54,3.03h-0.01l0.06,0.1c0.51,0.93,1.11,1.93,1.86,3.12l0.06,0.09l0.01-0.02c0.58,0.91,1.23,1.86,1.93,2.83
		h-0.01l0.06,0.09c0.63,0.84,1.36,1.83,2.16,2.79l0,0l0.07,0.09l0.07,0.09l0,0c0.66,0.79,1.41,1.62,2.27,2.55l-0.02,0.02l0.07,0.08
		c0.82,0.89,1.68,1.76,2.56,2.56l0.07,0.07v-0.02c0.96,0.89,1.81,1.67,2.64,2.36l0.09,0.07l0.02-0.02c0.82,0.68,1.71,1.35,2.71,2.08
		l-0.02,0.02l0.09,0.06c1.05,0.75,2.05,1.44,3,2.04l0.09,0.06l9.44-14.86l0.06-0.09l-0.09-0.06c-0.72-0.48-1.37-0.9-1.99-1.36v-0.02
		l-0.09-0.06c-0.78-0.57-1.43-1.05-2.01-1.54l-0.09-0.08l0,0c-0.51-0.45-1.15-1.01-1.79-1.6l-0.07-0.07l0,0
		c-0.54-0.53-1.1-1.06-1.62-1.62l0,0l-0.07-0.07c-0.63-0.66-1.19-1.28-1.7-1.89c-0.45-0.56-0.93-1.17-1.48-1.92l0,0l-0.06-0.09
		c-0.55-0.75-1.02-1.43-1.43-2.09l-0.01-0.08h-0.02c-0.39-0.63-0.78-1.29-1.17-1.98h0.02l-0.06-0.1c-0.39-0.68-0.75-1.4-1.15-2.25
		l-0.04-0.11l0,0c-0.31-0.69-0.63-1.41-0.95-2.22l-0.04-0.1h-0.02c-0.29-0.73-0.55-1.5-0.81-2.28v-0.02
		c-0.27-0.85-0.49-1.64-0.69-2.4l-0.02-0.07c-0.2-0.78-0.36-1.53-0.49-2.3l0,0l-0.03-0.1c-0.18-0.89-0.3-1.79-0.39-2.49
		c-0.09-0.68-0.2-1.57-0.24-2.51v-0.02c-0.06-0.85-0.09-1.68-0.09-2.54c0-0.82,0.03-1.68,0.09-2.52V1124
		c0.04-0.9,0.15-1.77,0.24-2.51l0.02-0.1l0,0c0.09-0.65,0.2-1.45,0.36-2.27l0,0l0.02-0.12c0.15-0.82,0.31-1.64,0.54-2.47
		c0.18-0.7,0.4-1.47,0.68-2.32h0.02l0.03-0.1c0.22-0.72,0.49-1.46,0.81-2.27l0,0l0.04-0.11c0.33-0.85,0.66-1.62,1.01-2.32l0.04-0.1
		l0,0c0.39-0.81,0.72-1.46,1.05-2.04h0.02l0.06-0.1c0.36-0.68,0.78-1.38,1.29-2.18l0.06-0.09l0,0c0.45-0.69,0.9-1.36,1.37-1.99
		l0.06-0.09l0,0c0.54-0.75,1.01-1.35,1.47-1.92l0.07-0.09l0,0c0.46-0.54,0.99-1.12,1.61-1.79l0.03-0.03c0.54-0.57,1.11-1.14,1.7-1.7
		l0,0l0.07-0.07c0.66-0.63,1.28-1.19,1.89-1.7c0.55-0.46,1.17-0.94,1.92-1.47l0,0l0.09-0.06c0.63-0.46,1.3-0.91,1.99-1.36l0,0
		l0.09-0.06c0.78-0.49,1.48-0.92,2.18-1.29l0.11-0.06l0,0c0.64-0.36,1.34-0.71,2.14-1.1l0.11-0.04l0,0
		c0.69-0.32,1.41-0.63,2.22-0.95c0.77-0.31,1.56-0.6,2.37-0.85l0.11-0.03v-0.02c0.69-0.21,1.48-0.46,2.32-0.68l0.04-0.02
		c0.79-0.19,1.56-0.36,2.32-0.51l0,0l0.11-0.03c0.88-0.18,1.79-0.3,2.49-0.39h0.03c0.69-0.09,1.57-0.18,2.47-0.24h0.02
		c0.84-0.06,1.66-0.09,2.52-0.09h0.12v-17.73h-0.2L151.01,1068.63L151.01,1068.63z"/>
	<path class="st9" d="M189.41,1138.95l-0.11-0.03l-0.03,0.11c-0.24,0.73-0.53,1.5-0.81,2.27l0,0l-0.04,0.1
		c-0.33,0.84-0.64,1.59-0.97,2.29l-0.02,0.05c-0.31,0.68-0.68,1.4-1.1,2.16h-0.02l-0.06,0.1c-0.39,0.75-0.82,1.47-1.29,2.16
		l-0.06,0.09l0.02,0.02c-0.49,0.75-0.9,1.35-1.3,1.91h-0.02l-0.06,0.09c-0.59,0.8-1.06,1.43-1.54,2.01l-0.07,0.09l0,0
		c-0.45,0.51-1.01,1.16-1.61,1.79l-0.03,0.03c-0.54,0.57-1.1,1.14-1.68,1.68l-0.02-0.02l-0.07,0.07c-0.54,0.54-1.15,1.1-1.88,1.7
		l-0.09,0.07l0.02,0.02c-0.6,0.48-1.23,0.94-1.83,1.41l0,0l-0.09,0.06c-0.62,0.45-1.3,0.92-2.09,1.43l-0.02,0.02
		c-0.82,0.51-1.5,0.92-2.14,1.28c-0.73,0.41-1.5,0.8-2.27,1.16l-0.11,0.04l0,0c-0.75,0.35-1.48,0.66-2.19,0.95h-0.02
		c-0.77,0.28-1.57,0.6-2.38,0.85l-0.11,0.03v0.02l-0.31,0.09c-0.66,0.19-1.34,0.4-2.01,0.58l-0.07,0.02
		c-0.77,0.2-1.53,0.35-2.31,0.49l-0.09,0.02c-0.86,0.17-1.7,0.29-2.49,0.39c-0.77,0.09-1.59,0.18-2.51,0.24l0,0
		c-0.82,0.05-1.68,0.09-2.52,0.09c-0.86,0-1.7-0.05-2.52-0.09l0,0c-0.91-0.06-1.72-0.14-2.52-0.24l-0.11-0.02l0,0
		c-0.71-0.09-1.47-0.21-2.28-0.36l-0.09-0.02c-0.79-0.15-1.59-0.31-2.38-0.51v-0.02l-0.11-0.03c-0.77-0.18-1.5-0.41-2.27-0.66
		l-0.16-0.05c-0.77-0.24-1.53-0.53-2.25-0.81l0,0l-0.11-0.05c-0.81-0.31-1.53-0.63-2.22-0.94l0,0l-0.11-0.05
		c-0.69-0.31-1.41-0.69-2.25-1.16l-0.11-0.06l0,0c-0.63-0.35-1.29-0.73-2.09-1.24l-0.09-0.06l-9.44,14.86l-0.06,0.09l0.09,0.06
		c1.2,0.77,2.19,1.35,3.12,1.86l0.11,0.06v-0.02c0.9,0.49,1.88,0.99,3.04,1.54v0.02l0.11,0.05c1.1,0.51,2.16,0.97,3.24,1.4l0,0
		l0.11,0.04c1.05,0.42,2.13,0.81,3.31,1.2l0,0l0.11,0.03l0.11,0.03l0,0c1.19,0.38,2.27,0.69,3.29,0.96v0.02l0.11,0.03
		c1.06,0.27,2.19,0.53,3.44,0.75l0,0l0.11,0.02c0.03,0,0.07,0.02,0.11,0.02h0.02l0,0c1.05,0.2,2.14,0.36,3.38,0.53l0,0h0.02
		c0.03,0,0.06,0.02,0.09,0.02l0.12,0.02l0,0c1.23,0.15,2.34,0.26,3.42,0.33l0,0h0.11h0.12l0,0c1.21,0.08,2.34,0.11,3.4,0.12l0,0
		h0.12h0.12l0,0c1.08,0,2.21-0.04,3.4-0.12l0,0h0.12h0.11l0,0c1.06-0.07,2.18-0.18,3.4-0.33l0,0l0.11-0.02l0.12-0.02l0,0
		c1.2-0.15,2.31-0.31,3.39-0.53l0,0l0.11-0.02c1.29-0.24,2.46-0.49,3.57-0.78l0.11-0.03l0,0c1.05-0.27,2.16-0.59,3.38-0.99
		l0.11-0.03v-0.02c0.96-0.31,1.98-0.69,3.22-1.16l0,0l0.06-0.03c0.02,0,0.03-0.02,0.04-0.02l0.11-0.05l0,0
		c1.14-0.46,2.23-0.93,3.24-1.4l0.11-0.04v-0.02c1.15-0.56,2.13-1.05,3.03-1.55l0,0l0.11-0.06l0.11-0.06l0,0
		c0.88-0.48,1.81-1.05,2.94-1.76l0,0l0.09-0.06l0.09-0.06l0,0c0.9-0.57,1.85-1.22,2.84-1.92v0.02l0.09-0.06
		c0.87-0.64,1.89-1.41,2.88-2.22l0.09-0.07l-0.02-0.02c0.79-0.66,1.63-1.41,2.55-2.27l0.02,0.02l0.07-0.08
		c0.86-0.79,1.7-1.63,2.49-2.49l0,0l0.07-0.09l0.07-0.07l0,0c0.88-0.96,1.66-1.82,2.34-2.64l0.07-0.09l-0.02-0.02
		c0.68-0.81,1.35-1.71,2.09-2.7l0.02,0.02l0.06-0.09c0.78-1.08,1.44-2.05,2.04-3l0.06-0.09l-0.02-0.02
		c0.71-1.12,1.26-2.07,1.76-2.94l0.02,0.02l0.06-0.1c0.51-0.93,1.02-1.93,1.61-3.15l0,0l0.04-0.1c0,0,0-0.02,0.02-0.02l0.04-0.07
		l0,0c0.49-1.07,0.93-2.09,1.35-3.14l0,0l0.04-0.1c0.44-1.08,0.84-2.21,1.23-3.44l0.03-0.1L189.41,1138.95z"/>
</g>
<g>
	<path class="st10" d="M303.68,1490.78c-0.47-1.18-0.96-2.31-1.44-3.35l-0.03-0.07h-0.01c-0.59-1.23-1.11-2.24-1.61-3.17l-0.04-0.07
		h-0.01c-0.5-0.91-1.08-1.88-1.82-3.05l-0.04-0.06l-0.01,0.01c-0.58-0.92-1.23-1.87-1.97-2.89l0.02-0.01l-0.04-0.06
		c-0.69-0.93-1.43-1.92-2.22-2.88l-0.05-0.06l-0.01,0.01c-0.68-0.81-1.44-1.67-2.32-2.61l0.01-0.01l-0.05-0.05
		c-0.8-0.86-1.65-1.71-2.51-2.52l0,0l-0.06-0.05l-0.05-0.05l0,0c-0.97-0.9-1.84-1.68-2.66-2.37l-0.06-0.05l-0.01,0.01
		c-0.84-0.69-1.75-1.39-2.76-2.13l0.01-0.01l-0.06-0.04c-1.04-0.75-2.05-1.44-3-2.04l-0.06-0.04v0.01c-1.15-0.73-2.11-1.3-3.01-1.79
		l0,0l-0.07-0.04l-0.07-0.04l0,0c-0.91-0.5-1.9-1-3.11-1.58l0,0l-0.07-0.03c0,0-0.01,0-0.01-0.01l-0.05-0.03l0,0
		c-1.09-0.51-2.14-0.96-3.2-1.38v-0.01l-0.07-0.03c-1.05-0.42-2.15-0.81-3.35-1.21l0,0l-0.07-0.02l-0.07-0.02l0,0
		c-1.22-0.39-2.32-0.71-3.36-0.98v-0.02l-0.07-0.02c-1.08-0.28-2.22-0.53-3.47-0.76v-0.01l-0.07-0.01
		c-1.11-0.21-2.28-0.39-3.59-0.56l-0.08-0.01l0,0c-1.25-0.15-2.39-0.26-3.48-0.33l0,0h-0.07h-0.08l0,0
		c-1.26-0.08-2.43-0.12-3.56-0.12h-0.08v17.66h0.08c0.85,0,1.68,0.03,2.53,0.09h0.08l0,0c0.71,0.04,1.47,0.11,2.44,0.23l0.08,0.01
		l0,0c0.72,0.09,1.51,0.22,2.34,0.37l0,0l0.07,0.01c0.78,0.15,1.61,0.32,2.42,0.52v0.02l0.07,0.02c0.78,0.18,1.57,0.41,2.42,0.7
		l0.03,0.01c0.76,0.24,1.52,0.51,2.26,0.81l0,0l0.07,0.03c0.79,0.31,1.55,0.63,2.34,1l0.02,0.01c0.76,0.36,1.52,0.74,2.24,1.14
		c0.64,0.36,1.33,0.76,2.17,1.29l0.06,0.04v-0.01c0.58,0.37,1.21,0.8,1.96,1.34v0.01l0.06,0.04c0.77,0.55,1.43,1.06,2.01,1.54
		l0.06,0.05l0.01-0.01c0.59,0.49,1.19,1.03,1.84,1.65l0.02,0.02c0.59,0.55,1.16,1.12,1.7,1.7l-0.01,0.01l0.05,0.05
		c0.54,0.55,1.08,1.15,1.69,1.88l0.05,0.06l0.01-0.01c0.54,0.68,1.02,1.3,1.46,1.9l-0.02,0.01l0.05,0.06
		c0.44,0.57,0.88,1.21,1.42,2.08l0.04,0.06l0.01-0.01c0.49,0.76,0.9,1.46,1.25,2.11l0.04,0.07h0.01c0.45,0.83,0.81,1.53,1.11,2.18
		l0.03,0.07l0,0c0.31,0.68,0.63,1.41,0.97,2.26l0.03,0.07l16.34-6.48l0.07-0.03L303.68,1490.78z"/>
	<path class="st9" d="M307.75,1512.03h-0.02c0-1.1-0.04-2.24-0.11-3.47h0.01v-0.08c-0.07-1.12-0.18-2.28-0.34-3.56l0,0l-0.01-0.07
		c-0.15-1.26-0.33-2.4-0.54-3.52l0,0l-0.01-0.07l-0.01-0.07l0,0c-0.23-1.23-0.48-2.34-0.75-3.41l0,0l-0.02-0.07l-0.02-0.07l0,0
		c-0.27-1.06-0.59-2.15-1-3.43l-0.02-0.07h-0.01c-0.33-1-0.71-2.07-1.21-3.36l-0.03-0.07l-16.34,6.48l-0.07,0.03l0.03,0.07
		c0.3,0.8,0.59,1.6,0.85,2.38l0.02,0.07h0.01l0.01,0.04c0.22,0.76,0.46,1.54,0.67,2.31l0,0c0.2,0.86,0.38,1.67,0.54,2.46v0.02
		c0.17,0.92,0.29,1.69,0.38,2.43l0,0l0.01,0.08c0.09,0.72,0.17,1.52,0.23,2.42h-0.01v0.08c0.06,0.82,0.09,1.68,0.09,2.53v0.08h0.01
		c-0.02,0.84-0.04,1.65-0.09,2.45l0,0c-0.07,0.95-0.15,1.77-0.24,2.51l-0.01,0.08l0,0c-0.09,0.71-0.21,1.46-0.37,2.34l0,0
		l-0.01,0.07c-0.15,0.8-0.33,1.59-0.52,2.42h-0.01l-0.02,0.07c-0.19,0.75-0.42,1.54-0.7,2.41v0.01c-0.26,0.8-0.55,1.6-0.85,2.38
		l-0.01,0.03c-0.33,0.82-0.64,1.55-0.96,2.22l0,0l-0.03,0.07c-0.32,0.68-0.68,1.41-1.12,2.2l-0.01-0.01l-0.04,0.07
		c-0.36,0.7-0.78,1.41-1.29,2.17l-0.04,0.06l0.02,0.01c-0.36,0.55-0.84,1.26-1.35,1.97l-0.01-0.01l-0.04,0.06
		c-0.57,0.78-1.06,1.42-1.54,2.01l-0.05,0.06l0.01,0.01c-0.48,0.55-1.03,1.19-1.64,1.82l-0.02,0.02c-0.55,0.59-1.13,1.17-1.72,1.72
		l-0.01-0.01l-0.05,0.05c-0.63,0.61-1.26,1.18-1.89,1.69l-0.06,0.05l0.01,0.01c-0.73,0.58-1.33,1.04-1.89,1.45l-0.01-0.01
		l-0.06,0.04c-0.62,0.45-1.28,0.9-2.08,1.42l-0.01,0.01c-0.83,0.52-1.52,0.93-2.16,1.28c-0.75,0.41-1.51,0.8-2.26,1.15l-0.07,0.03
		l0,0c-0.76,0.35-1.49,0.66-2.23,0.96l-0.03,0.01c-0.75,0.29-1.56,0.59-2.38,0.85l-0.07,0.02v0.01c-0.84,0.27-1.61,0.49-2.36,0.68
		l-0.07,0.02l0,0c-0.76,0.19-1.51,0.34-2.34,0.51l0,0l-0.07,0.01c-0.86,0.16-1.7,0.29-2.49,0.39c-0.75,0.09-1.57,0.17-2.52,0.24
		h-0.01h-0.04c-0.81,0.04-1.64,0.09-2.48,0.09c-0.83,0-1.67-0.04-2.48-0.09h-0.05h-0.01c-0.93-0.07-1.76-0.14-2.52-0.24l-0.07-0.01
		l0,0c-0.73-0.09-1.51-0.22-2.34-0.37l0,0l-0.07-0.01c-0.86-0.17-1.63-0.33-2.42-0.52v-0.01l-0.07-0.02
		c-0.75-0.18-1.52-0.4-2.42-0.7l-0.07-0.02l-5.44,16.72l-0.02,0.07l0.07,0.02c1.24,0.4,2.37,0.73,3.43,1v0.01l0.07,0.02
		c1.08,0.28,2.22,0.53,3.47,0.76l0,0l0.07,0.01c1.1,0.21,2.28,0.39,3.59,0.56l0.07,0.01l0,0c1.25,0.15,2.39,0.26,3.49,0.33l0,0h0.07
		c0,0,0,0,0.01,0h0.07l0,0c1.22,0.07,2.39,0.11,3.48,0.12l0,0h0.08h0.08l0,0c1.11,0,2.25-0.04,3.48-0.12l0,0h0.08h0.07l0,0
		c1.1-0.07,2.23-0.18,3.47-0.33l0,0l0.07-0.01c0.01,0,0.03,0,0.04-0.01h0.03l0,0c1.23-0.15,2.37-0.33,3.46-0.54l0,0l0.07-0.01
		c1.28-0.24,2.45-0.5,3.56-0.78l0.07-0.02v-0.01c1.06-0.27,2.18-0.59,3.41-1l0.07-0.02v-0.01c0.99-0.32,2.04-0.7,3.29-1.18l0,0
		l0.04-0.02c0.01,0,0.02-0.01,0.03-0.01l0.07-0.03l0,0c1.17-0.47,2.27-0.94,3.28-1.41l0.07-0.03v-0.01c1.21-0.58,2.2-1.08,3.1-1.58
		l0,0l0.07-0.04l0.07-0.04l0,0c0.9-0.5,1.86-1.07,3-1.79l0,0l0.06-0.04l0.06-0.04l0,0c0.92-0.58,1.87-1.23,2.89-1.97l0.01,0.01
		l0.06-0.04c0.87-0.64,1.9-1.41,2.88-2.22l0.06-0.05l-0.01-0.01c0.8-0.68,1.66-1.44,2.61-2.32l0.01,0.01l0.05-0.05
		c0.87-0.81,1.72-1.66,2.52-2.51l0,0l0.05-0.06l0.05-0.05l0,0c0.93-1,1.68-1.85,2.37-2.66l0.05-0.06l-0.01-0.01
		c0.7-0.86,1.4-1.76,2.13-2.77l0.01,0.01l0.04-0.06c0.75-1.04,1.44-2.05,2.04-3l0.04-0.06l-0.02-0.01c0.73-1.15,1.3-2.11,1.79-3
		l0.01,0.01l0.04-0.07c0.51-0.92,1.02-1.93,1.61-3.16h0.01l0.03-0.07c0.52-1.12,0.98-2.2,1.41-3.28l0,0l0.03-0.07
		c0,0,0-0.01,0.01-0.01l0.02-0.06l0,0c0.41-1.03,0.8-2.11,1.18-3.28l0,0l0.02-0.07l0.02-0.07l0,0c0.39-1.21,0.71-2.32,0.98-3.36
		h0.02l0.02-0.07c0.28-1.09,0.53-2.22,0.76-3.47l0,0l0.01-0.07c0.21-1.1,0.39-2.28,0.56-3.59l0.01-0.08l0,0
		c0.15-1.25,0.26-2.39,0.33-3.48l0,0v-0.07v-0.08l0,0c0.08-1.24,0.12-2.44,0.12-3.56v-0.05H307.75z"/>
	<path class="st8" d="M249.82,1454.19c-1.12,0-2.31,0.04-3.56,0.12l0,0h-0.07c0,0,0,0-0.01,0h-0.07l0,0
		c-1.09,0.07-2.23,0.18-3.47,0.33l0,0l-0.07,0.01l-0.07,0.01l0,0c-1.23,0.15-2.36,0.33-3.46,0.54v-0.01l-0.07,0.01
		c-1.29,0.24-2.45,0.5-3.56,0.78l-0.07,0.02l0,0c-1.05,0.27-2.17,0.59-3.41,1l-0.07,0.02v0.01c-0.98,0.32-2.03,0.7-3.29,1.18l0,0
		l-0.05,0.02c-0.01,0-0.02,0.01-0.02,0.01l-0.07,0.03l0,0c-1.15,0.46-2.26,0.94-3.28,1.41l-0.07,0.03v0.01
		c-1.23,0.59-2.24,1.11-3.16,1.61l-0.07,0.04v0.01c-0.89,0.49-1.85,1.06-2.99,1.79v-0.01l-0.06,0.04c-0.93,0.59-1.92,1.26-2.94,2
		l0,0l-0.06,0.04l-0.01,0.01l-0.05,0.04l0,0c-0.9,0.66-1.84,1.38-2.76,2.13l0,0l-0.06,0.05l-0.01,0.01l-0.04,0.04l0,0
		c-0.81,0.68-1.64,1.42-2.61,2.32l0,0l-0.05,0.05l-0.05,0.05l0,0c-0.84,0.79-1.67,1.62-2.47,2.47l-0.01-0.01l-0.05,0.06
		c-0.92,0.99-1.71,1.88-2.42,2.72l-0.05,0.06l0.01,0.01c-0.7,0.85-1.39,1.75-2.13,2.76l0,0l-0.04,0.06c0,0.01-0.01,0.01-0.01,0.02
		l-0.03,0.05l0,0c-0.75,1.04-1.41,2-2,2.94l-0.04,0.06h0.01c-0.73,1.15-1.3,2.11-1.8,3.01l-0.01-0.01l-0.04,0.07
		c-0.52,0.94-1.04,1.97-1.65,3.24l-0.03,0.07h0.01c-0.49,1.06-0.95,2.13-1.37,3.18h-0.01l-0.03,0.07c-0.42,1.05-0.82,2.15-1.21,3.36
		h-0.01l-0.02,0.07c-0.41,1.25-0.73,2.37-1,3.43l0,0l-0.02,0.07l-0.02,0.07l0,0c-0.27,1.07-0.52,2.19-0.75,3.41l0,0l-0.01,0.07
		l-0.01,0.07l0,0c-0.2,1.07-0.38,2.2-0.53,3.44l0,0l-0.01,0.07l-0.01,0.08l0,0c-0.15,1.25-0.26,2.39-0.33,3.49l0,0v0.02
		c0,0.01,0,0.03,0,0.04v0.08l0,0c-0.08,1.24-0.11,2.38-0.12,3.48l0,0v0.08v0.01v0.01v0.08l0,0c0,1.1,0.04,2.24,0.11,3.47l0,0v0.08
		v0.07l0,0c0.07,1.09,0.18,2.23,0.33,3.47l0,0l0.01,0.07v0.01l0.01,0.07l0,0c0.15,1.22,0.33,2.36,0.54,3.46l0,0l0.01,0.07
		c0.24,1.28,0.5,2.45,0.78,3.56l0.02,0.07h0.01c0.26,1.03,0.58,2.13,0.98,3.34l0,0l0.02,0.07l0.02,0.07l0,0
		c0.33,1,0.71,2.06,1.21,3.35l0.03,0.07l0.01-0.01c0.46,1.14,0.92,2.22,1.38,3.22l0,0l0.03,0.07c0,0.01,0.01,0.01,0.01,0.02
		l0.02,0.05l0,0c0.58,1.2,1.08,2.19,1.57,3.09h-0.01l0.04,0.07c0.51,0.93,1.09,1.9,1.86,3.12l0.04,0.06l0.01-0.01
		c0.58,0.92,1.25,1.9,1.97,2.9l-0.01,0.01l0.04,0.06c0.63,0.86,1.39,1.86,2.18,2.82l0,0l0.04,0.04l0.01,0.01l0.05,0.06l0,0
		c0.68,0.8,1.41,1.63,2.31,2.6l-0.01,0.01l0.05,0.05c0.82,0.88,1.68,1.74,2.57,2.57l0.05,0.05l0.01-0.01
		c0.94,0.88,1.8,1.64,2.61,2.33l0,0l0.05,0.04l0.01,0.01l0.06,0.05l0,0c0.86,0.7,1.76,1.4,2.76,2.13l0,0l0.06,0.04l0.06,0.04l0,0
		c1.02,0.74,1.96,1.38,2.88,1.96l0,0l0.06,0.04l0.06,0.04l0,0c1.17,0.74,2.14,1.32,3.06,1.82l0.07,0.04v-0.01
		c0.91,0.5,1.9,1,3.11,1.58v0.01l0.07,0.03c1.1,0.51,2.17,0.97,3.27,1.41v0.01l0.07,0.03c1.07,0.43,2.19,0.83,3.42,1.23l0.07,0.02
		l5.44-16.72l0.02-0.07l-0.07-0.02c-0.79-0.25-1.57-0.54-2.3-0.82l0,0l-0.07-0.03c-0.84-0.33-1.57-0.65-2.26-0.97v-0.01l-0.07-0.03
		c-0.7-0.32-1.42-0.69-2.26-1.15l-0.07-0.04v0.01c-0.62-0.35-1.3-0.74-2.11-1.25h-0.01c-0.69-0.45-1.4-0.92-2.08-1.42l-0.02-0.01
		c-0.63-0.45-1.28-0.95-1.99-1.53l0,0c-0.61-0.51-1.22-1.06-1.88-1.69l-0.05-0.05l-0.01,0.01c-0.57-0.54-1.13-1.11-1.68-1.68
		l0.01-0.01l-0.05-0.05c-0.63-0.66-1.18-1.27-1.68-1.88l-0.01-0.01c-0.46-0.56-0.94-1.18-1.5-1.96h0.01l-0.04-0.06
		c-0.55-0.75-1.02-1.43-1.42-2.08l-0.04-0.06l-0.01,0.01c-0.36-0.59-0.79-1.29-1.2-2.03l0,0l-0.04-0.07
		c-0.38-0.68-0.75-1.39-1.15-2.26c-0.33-0.71-0.66-1.47-1-2.33l-0.03-0.07h-0.01c-0.29-0.76-0.57-1.54-0.83-2.32v-0.01
		c-0.28-0.88-0.51-1.67-0.7-2.41l-0.02-0.07l0,0c-0.2-0.79-0.37-1.55-0.51-2.34l0,0l-0.02-0.07c-0.15-0.71-0.27-1.48-0.39-2.48
		l-0.01-0.08l0,0c-0.12-0.93-0.19-1.66-0.23-2.37l0,0l-0.01-0.08c-0.06-0.84-0.09-1.67-0.09-2.52c0-0.86,0.03-1.71,0.09-2.52
		l0.01-0.08l0,0c0.05-0.9,0.15-1.79,0.24-2.46c0.12-0.96,0.24-1.71,0.38-2.41l0,0l0.01-0.06c0-0.01,0-0.01,0-0.02v-0.01
		c0.15-0.83,0.32-1.64,0.54-2.48c0.18-0.71,0.41-1.48,0.68-2.36h0.01l0.02-0.07c0.24-0.76,0.52-1.53,0.82-2.3l0,0l0.03-0.07
		c0.34-0.87,0.67-1.63,1-2.33l0.03-0.07h-0.01c0.41-0.85,0.75-1.51,1.08-2.12l0.01,0.01l0.04-0.07c0.37-0.68,0.77-1.37,1.29-2.17
		l0.04-0.06h-0.01c0.44-0.68,0.89-1.34,1.35-1.97l0,0l0.04-0.06c0.48-0.67,0.98-1.32,1.54-2.01l0.05-0.06l-0.01-0.01
		c0.47-0.55,0.99-1.13,1.59-1.78l0.01,0.01l0.05-0.06c0.56-0.6,1.15-1.2,1.76-1.76l0.02-0.02c0.67-0.63,1.28-1.19,1.89-1.69
		c0.56-0.47,1.2-0.96,1.94-1.5l0,0l0.06-0.04c0.64-0.47,1.32-0.93,2.03-1.39v0.01l0.06-0.04c0.79-0.5,1.5-0.92,2.17-1.29l0.07-0.04
		v-0.01c0.83-0.45,1.53-0.81,2.18-1.11l0.07-0.03l0,0c0.68-0.31,1.41-0.63,2.26-0.97l0,0c0.78-0.31,1.58-0.6,2.37-0.85l0.07-0.02
		v-0.01c0.7-0.22,1.51-0.47,2.36-0.68l0.07-0.02l0,0c0.79-0.2,1.58-0.35,2.34-0.51l0,0l0.07-0.01c0.87-0.16,1.7-0.29,2.49-0.39
		l0.07-0.01l0,0c0.67-0.08,1.54-0.18,2.41-0.23h0.03c0.85-0.06,1.68-0.09,2.53-0.09h0.08v-17.66h-0.06V1454.19z"/>
</g>
<circle class="st27" cx="208.82" cy="381.21" r="14.38"/>
<circle class="st27" cx="209.37" cy="727.11" r="14.38"/>
<circle class="st27" cx="212.4" cy="1075.22" r="14.38"/>
<g>
	<g>
		<path class="st27" d="M221.03,373.58c9.48-11.13,23.58-18.18,39.35-18.18c19.64,0,36.72,10.96,45.46,27.1"/>
		<g>
			<polygon points="301.91,381.84 302.14,381.12 305.66,382.25 306.53,378.65 307.25,378.83 306.2,383.21 			"/>
		</g>
	</g>
</g>
<g>
	<g>
		<path class="st27" d="M221.68,719.62c9.48-11.13,23.58-18.18,39.35-18.18c19.64,0,36.72,10.96,45.46,27.1"/>
		<g>
			<polygon points="302.56,727.89 302.79,727.18 306.31,728.29 307.18,724.71 307.9,724.87 306.85,729.25 			"/>
		</g>
	</g>
</g>
<g>
	<g>
		<path class="st27" d="M221.19,1062.93c9.48-11.13,23.58-18.18,39.35-18.18c19.63,0,36.72,10.96,45.46,27.1"/>
		<g>
			<polygon points="302.07,1071.2 302.3,1070.48 305.82,1071.6 306.69,1068 307.41,1068.18 306.36,1072.56 			"/>
		</g>
	</g>
</g>
</svg>
