<?xml version="1.0" encoding="utf-8"?>
<!-- Generator: Adobe Illustrator 27.3.1, SVG Export Plug-In . SVG Version: 6.00 Build 0)  -->
<svg version="1.1" id="Capa_1" xmlns="http://www.w3.org/2000/svg" xmlns:xlink="http://www.w3.org/1999/xlink" x="0px" y="0px"
	 viewBox="0 0 500 570" style="enable-background:new 0 0 500 570;" xml:space="preserve">
<style type="text/css">
	.st0{fill:#1D1D1B;}
	.st1{font-family:'Roboto-Light';}
	.st2{font-size:10px;}
	.st3{fill:#F96A33;}
	.st4{fill:#B4B4B3;}
	.st5{fill:#F9AE33;}
	.st6{fill:#DD6F53;}
	.st7{fill:#F2C5C1;}
	.st8{font-family:'Roboto-Regular';}
	.st9{font-size:8px;}
	.st10{fill:#FFFFFF;}
	.st11{fill:#4B4B4B;}
	.st12{fill:#757575;}
	.st13{fill:#CACACA;}
	.st14{fill:#474747;}
	.st15{fill:#767676;}
	.st16{fill:#191919;}
	.st17{fill:none;stroke:#000000;stroke-miterlimit:10;}
	.st18{font-family:'Roboto-Bold';}
	.st19{font-size:9px;}
	.st20{fill:none;stroke:#000000;stroke-linecap:round;stroke-miterlimit:10;}
	.st21{fill:none;stroke:#000000;stroke-linecap:round;stroke-miterlimit:10;stroke-dasharray:3.1585,4.2113;}
	.st22{fill:none;stroke:#000000;stroke-linecap:round;stroke-miterlimit:10;stroke-dasharray:2.821,3.7613;}
	.st23{fill:none;stroke:#000000;stroke-linecap:round;stroke-miterlimit:10;stroke-dasharray:2.8165,3.7554;}
	.st24{fill:none;stroke:#000000;stroke-linecap:round;stroke-miterlimit:10;stroke-dasharray:3.297,4.3961;}
	.st25{fill:none;stroke:#000000;stroke-width:0.5;stroke-linecap:round;stroke-miterlimit:10;}
</style>
<g>
	<g>
		<g>
			<g>
				<text transform="matrix(1 0 0 1 354.8074 551.1871)" class="st0 st1 st2">Bronce</text>
			</g>
		</g>
		<g>
			<g>
				<text transform="matrix(1 0 0 1 354.8074 530.6165)" class="st0 st1 st2">Plata</text>
			</g>
		</g>
		<g>
			<g>
				<text transform="matrix(1 0 0 1 354.8076 510.3396)" class="st0 st1 st2">Oro</text>
			</g>
		</g>
		<circle class="st3" cx="340.06" cy="547.58" r="6.61"/>
		<circle class="st4" cx="340.06" cy="527.01" r="6.61"/>
		<circle class="st5" cx="340.06" cy="506.79" r="6.61"/>
	</g>
	<g>
		<g>
			<g>
				<text transform="matrix(1 0 0 1 416.3733 530.6165)" class="st0 st1 st2">Hombres</text>
			</g>
		</g>
		<g>
			<g>
				<text transform="matrix(1 0 0 1 416.3735 510.3396)" class="st0 st1 st2">Mujeres</text>
			</g>
		</g>
		<circle class="st6" cx="401.62" cy="527.01" r="6.61"/>
		<circle class="st7" cx="401.62" cy="506.79" r="6.61"/>
	</g>
</g>
<g>
	<g>
		<text transform="matrix(1 0 0 1 46.1512 215.669)" class="st0 st8 st9">Canadá</text>
	</g>
	<g>
		<rect x="50.84" y="184.93" class="st10" width="14.99" height="19.01"/>
		<polygon class="st11" points="58.13,197.9 55.19,198.23 55.4,197.07 52.64,194.51 53.18,194.1 52.71,192.06 54.41,192.42 
			54.88,191.57 56.59,193.22 55.97,189.42 57.11,190.13 58.28,187.7 59.48,190.11 60.66,189.42 60.06,193.22 61.75,191.48 
			62.3,192.47 63.91,192.03 63.42,194.1 64.07,194.6 61.18,197.1 61.52,198.26 58.52,197.9 58.57,200.99 58.08,201.01 		"/>
		<rect x="43.34" y="184.91" class="st11" width="7.5" height="19.04"/>
		<rect x="65.84" y="184.94" class="st11" width="7.5" height="19.04"/>
	</g>
</g>
<g>
	<g>
		<text transform="matrix(1 0 0 1 39.0694 426.8318)" class="st0 st8 st9">19 países</text>
		<text transform="matrix(1 0 0 1 39.9094 434.8318)" class="st0 st8 st9">restantes</text>
	</g>
</g>
<g>
	<g>
		<text transform="matrix(1 0 0 1 53.3655 330.0073)" class="st0 st8 st9">Brasil</text>
	</g>
	<g>
		<g>
			<g>
				<rect x="43.34" y="297.69" class="st12" width="30" height="20.21"/>
			</g>
			<g>
				<polygon class="st13" points="45.89,307.81 58.33,300.16 70.81,307.81 58.33,315.44 				"/>
			</g>
			<g>
				<path class="st14" d="M58.34,312.85c2.9,0,5.25-2.26,5.25-5.05c0-2.79-2.35-5.05-5.25-5.05s-5.25,2.26-5.25,5.05
					S55.44,312.85,58.34,312.85z"/>
			</g>
			<g>
				<path class="st10" d="M53.24,306.59c0.65-0.1,1.29-0.14,1.96-0.14c3.09,0,5.94,1.04,8.17,2.78l0.01,0.01
					c0.08-0.28,0.15-0.58,0.18-0.87l-0.01-0.01c-2.23-1.74-5.08-2.79-8.18-2.79c-0.6,0-1.19,0.04-1.77,0.12h-0.02
					C53.43,305.97,53.32,306.27,53.24,306.59L53.24,306.59z"/>
			</g>
			<g>
				<g>
					<path class="st15" d="M54.23,306.04c-0.01-0.11-0.08-0.14-0.13-0.13c-0.05,0-0.11,0.04-0.1,0.15c0.01,0.11,0.08,0.14,0.12,0.13
						C54.17,306.18,54.24,306.15,54.23,306.04l0.09-0.01c0.01,0.19-0.13,0.22-0.19,0.23c-0.06,0.01-0.21-0.01-0.22-0.2
						c-0.01-0.19,0.13-0.22,0.19-0.23c0.06,0,0.21,0.01,0.22,0.2L54.23,306.04z"/>
				</g>
				<g>
					<path class="st15" d="M54.79,305.88c0.05,0,0.06,0.03,0.06,0.05c0,0.04-0.02,0.06-0.07,0.06h-0.1v-0.11H54.79l0.01-0.07
						l-0.21,0.01l0.01,0.41h0.09v-0.16h0.09c0.06,0,0.07,0.02,0.07,0.07c0,0.04,0.01,0.06,0.01,0.08h0.1v-0.01
						c-0.02-0.01-0.02-0.02-0.02-0.08c0-0.08-0.02-0.09-0.06-0.1c0.04-0.01,0.06-0.05,0.06-0.1c0-0.03-0.03-0.11-0.14-0.11
						L54.79,305.88z"/>
				</g>
				<g>
					<path class="st15" d="M55.4,305.86c0.04,0,0.1,0.01,0.1,0.13c0,0.06-0.03,0.13-0.1,0.13h-0.09v-0.27L55.4,305.86l0.02-0.08
						h-0.19v0.41h0.18c0.14,0,0.18-0.13,0.18-0.21s-0.03-0.19-0.17-0.19L55.4,305.86z"/>
				</g>
				<g>
					<polygon class="st15" points="56.17,305.9 55.95,305.89 55.95,305.97 56.15,305.98 56.15,306.05 55.94,306.04 55.94,306.15 
						56.17,306.16 56.17,306.23 55.85,306.22 55.87,305.81 56.18,305.83 					"/>
				</g>
				<g>
					<polygon class="st15" points="56.84,306.29 56.76,306.28 56.79,305.94 56.79,305.94 56.69,306.18 56.6,306.18 56.55,305.92 
						56.55,305.92 56.52,306.26 56.43,306.25 56.47,305.85 56.6,305.86 56.66,306.1 56.66,306.1 56.76,305.87 56.88,305.88 					"/>
				</g>
				<g>
					<polygon class="st15" points="57.62,306.19 57.47,306.17 57.46,306.22 57.6,306.24 57.59,306.29 57.46,306.27 57.44,306.34 
						57.59,306.36 57.59,306.4 57.38,306.37 57.42,306.11 57.62,306.14 					"/>
				</g>
				<g>
					<path class="st15" d="M58.39,306.36l0.08,0.02v0.07l-0.1-0.02l-0.04,0.14l-0.09-0.02l0.1-0.39l0.19,0.04
						c0.08,0.02,0.12,0.08,0.1,0.16c-0.01,0.04-0.05,0.12-0.16,0.1v-0.07c0.06,0.01,0.07-0.03,0.08-0.05
						c0.01-0.04-0.01-0.06-0.06-0.07l-0.07-0.01L58.39,306.36"/>
				</g>
				<g>
					<path class="st15" d="M59.07,306.53l-0.1-0.03l0.03-0.1l0.11,0.03c0.05,0.01,0.05,0.05,0.04,0.07
						C59.14,306.53,59.12,306.54,59.07,306.53l-0.03,0.06c0.06,0.02,0.06,0.04,0.04,0.09c-0.01,0.04-0.02,0.06-0.02,0.08l0.09,0.03
						v-0.01c-0.01-0.01-0.01-0.03,0.01-0.08c0.02-0.07,0.01-0.09-0.02-0.11c0.04,0,0.08-0.03,0.09-0.08
						c0.01-0.03,0.01-0.12-0.09-0.14l-0.21-0.06l-0.12,0.39l0.08,0.02l0.05-0.15l0.09,0.03L59.07,306.53z"/>
				</g>
				<g>
					<path class="st15" d="M59.56,306.7c-0.03,0.1,0.01,0.16,0.05,0.17c0.05,0.01,0.12,0.01,0.16-0.1c0.04-0.11-0.01-0.15-0.06-0.17
						C59.67,306.59,59.6,306.59,59.56,306.7l-0.09-0.03c0.07-0.18,0.21-0.15,0.27-0.13c0.05,0.02,0.18,0.09,0.12,0.27
						c-0.07,0.18-0.21,0.15-0.27,0.14c-0.05-0.02-0.18-0.09-0.12-0.27L59.56,306.7z"/>
				</g>
				<g>
					<path class="st15" d="M60.3,306.96l0.16,0.07l-0.09,0.2l-0.05-0.02l0.01-0.05c-0.03,0.01-0.08,0.04-0.15,0.01
						c-0.09-0.04-0.15-0.14-0.09-0.27c0.04-0.1,0.15-0.17,0.28-0.12c0.12,0.05,0.14,0.14,0.12,0.2l-0.08-0.03
						c0.01-0.01,0-0.07-0.06-0.1c-0.06-0.02-0.13-0.01-0.17,0.09c-0.04,0.1,0,0.15,0.06,0.17c0.02,0.01,0.08,0.03,0.13-0.04
						l-0.09-0.04L60.3,306.96z"/>
				</g>
				<g>
					<path class="st15" d="M60.9,307.2c0.04,0.02,0.07,0.02,0.09-0.02c0.01-0.02,0.01-0.05-0.03-0.07l-0.1-0.05l-0.05,0.1
						L60.9,307.2l-0.04,0.06l-0.08-0.04l-0.07,0.14l-0.08-0.04l0.18-0.37l0.19,0.09c0.1,0.05,0.08,0.13,0.07,0.16
						c-0.02,0.04-0.06,0.06-0.1,0.06c0.02,0.03,0.04,0.05,0,0.11c-0.03,0.05-0.03,0.07-0.02,0.08v0.01l-0.09-0.04
						c0-0.02,0.01-0.04,0.03-0.08c0.03-0.05,0.03-0.07-0.03-0.1L60.9,307.2z"/>
				</g>
				<g>
					<polygon class="st15" points="61.63,307.44 61.43,307.34 61.39,307.41 61.57,307.51 61.53,307.57 61.35,307.48 61.3,307.57 
						61.5,307.68 61.47,307.74 61.19,307.59 61.39,307.24 61.66,307.38 					"/>
				</g>
				<g>
					<path class="st15" d="M61.82,307.79c-0.01,0.02-0.03,0.06,0.04,0.1c0.03,0.02,0.08,0.04,0.1,0c0.02-0.03-0.01-0.05-0.04-0.08
						l-0.03-0.03c-0.05-0.05-0.1-0.09-0.05-0.17c0.03-0.04,0.09-0.09,0.21-0.03c0.11,0.06,0.1,0.15,0.07,0.19l-0.07-0.04
						c0.01-0.02,0.02-0.06-0.04-0.09c-0.03-0.02-0.07-0.03-0.09,0s0,0.05,0.02,0.06l0.07,0.07c0.04,0.04,0.08,0.09,0.04,0.15
						c-0.07,0.1-0.18,0.05-0.21,0.03c-0.13-0.08-0.11-0.16-0.08-0.21L61.82,307.79z"/>
				</g>
				<g>
					<path class="st15" d="M62.32,308.1c-0.01,0.02-0.03,0.06,0.04,0.1c0.03,0.02,0.08,0.04,0.1,0c0.02-0.03,0-0.05-0.03-0.08
						l-0.03-0.03c-0.05-0.05-0.1-0.1-0.04-0.17c0.03-0.04,0.09-0.09,0.21-0.02c0.11,0.07,0.09,0.16,0.06,0.2l-0.07-0.05
						c0.01-0.02,0.03-0.06-0.04-0.1c-0.03-0.02-0.07-0.03-0.09,0s0,0.05,0.01,0.06l0.07,0.07c0.04,0.04,0.07,0.09,0.03,0.15
						c-0.07,0.1-0.19,0.04-0.22,0.02c-0.13-0.08-0.1-0.17-0.07-0.21L62.32,308.1z"/>
				</g>
				<g>
					<path class="st15" d="M62.86,308.36c-0.07,0.09-0.03,0.15,0,0.18c0.04,0.03,0.11,0.04,0.18-0.05s0.03-0.15,0-0.18
						C63.01,308.29,62.94,308.27,62.86,308.36l-0.07-0.05c0.12-0.15,0.25-0.09,0.3-0.06c0.04,0.03,0.15,0.14,0.03,0.29
						c-0.12,0.15-0.25,0.09-0.3,0.05c-0.05-0.03-0.15-0.13-0.03-0.29L62.86,308.36z"/>
				</g>
			</g>
			<g>
				<g>
					<polygon class="st10" points="56.4,310.22 56.34,310.39 56.16,310.39 56.31,310.5 56.25,310.66 56.4,310.56 56.55,310.66 
						56.49,310.5 56.64,310.39 56.45,310.39 					"/>
				</g>
				<g>
					<polygon class="st10" points="58.39,309.87 58.34,310 58.2,310 58.31,310.09 58.27,310.22 58.39,310.14 58.51,310.22 
						58.46,310.09 58.58,310 58.43,310 					"/>
				</g>
				<g>
					<polygon class="st10" points="61.43,310.47 61.39,310.58 61.27,310.58 61.37,310.65 61.33,310.76 61.43,310.69 61.53,310.76 
						61.49,310.65 61.59,310.58 61.47,310.58 					"/>
				</g>
				<g>
					<polygon class="st10" points="54.69,308.7 54.63,308.87 54.45,308.87 54.6,308.97 54.54,309.14 54.69,309.03 54.84,309.14 
						54.78,308.97 54.93,308.87 54.74,308.87 					"/>
				</g>
				<g>
					<polygon class="st10" points="54.1,306.65 54.05,306.82 53.86,306.82 54.01,306.92 53.95,307.09 54.1,306.98 54.25,307.09 
						54.19,306.92 54.34,306.82 54.16,306.82 					"/>
				</g>
				<g>
					<polygon class="st10" points="59.77,307.36 59.72,307.49 59.57,307.49 59.69,307.58 59.65,307.71 59.77,307.63 59.89,307.71 
						59.84,307.58 59.96,307.49 59.81,307.49 					"/>
				</g>
				<g>
					<polygon class="st10" points="60.02,305.87 59.97,306.01 59.82,306.01 59.94,306.09 59.9,306.23 60.02,306.14 60.14,306.23 
						60.09,306.09 60.21,306.01 60.06,306.01 					"/>
				</g>
				<g>
					<polygon class="st10" points="62.83,309.37 62.79,309.5 62.64,309.5 62.76,309.59 62.71,309.72 62.83,309.64 62.95,309.72 
						62.91,309.59 63.03,309.5 62.88,309.5 					"/>
				</g>
				<g>
					<polygon class="st10" points="62.14,309.32 62.08,309.49 61.9,309.49 62.05,309.59 61.99,309.76 62.14,309.65 62.29,309.76 
						62.23,309.59 62.38,309.49 62.19,309.49 					"/>
				</g>
				<g>
					<polygon class="st10" points="61.89,310.2 61.83,310.37 61.65,310.37 61.79,310.48 61.74,310.64 61.89,310.54 62.03,310.64 
						61.98,310.48 62.13,310.37 61.94,310.37 					"/>
				</g>
				<g>
					<polygon class="st10" points="62.24,309.84 62.19,310.01 62,310.01 62.15,310.11 62.09,310.28 62.24,310.18 62.39,310.28 
						62.33,310.11 62.48,310.01 62.3,310.01 					"/>
				</g>
				<g>
					<polygon class="st10" points="58.49,308.36 58.45,308.5 58.3,308.5 58.42,308.58 58.37,308.72 58.49,308.63 58.61,308.72 
						58.57,308.58 58.69,308.5 58.54,308.5 					"/>
				</g>
				<g>
					<polygon class="st10" points="59.07,308.94 59.03,309.08 58.88,309.08 59,309.16 58.95,309.3 59.07,309.21 59.19,309.3 
						59.15,309.16 59.27,309.08 59.12,309.08 					"/>
				</g>
				<g>
					<polygon class="st10" points="61.12,311.31 61.07,311.45 60.92,311.45 61.04,311.53 61,311.67 61.12,311.58 61.24,311.67 
						61.19,311.53 61.31,311.45 61.16,311.45 					"/>
				</g>
				<g>
					<polygon class="st10" points="61.01,310.51 60.98,310.62 60.86,310.62 60.95,310.69 60.92,310.8 61.01,310.73 61.11,310.8 
						61.07,310.69 61.17,310.62 61.05,310.62 					"/>
				</g>
				<g>
					<polygon class="st10" points="57.8,308.97 57.76,309.07 57.64,309.07 57.74,309.14 57.7,309.25 57.8,309.18 57.9,309.25 
						57.86,309.14 57.96,309.07 57.84,309.07 					"/>
				</g>
				<g>
					<polygon class="st10" points="56.55,307.88 56.51,307.99 56.39,307.99 56.49,308.06 56.45,308.17 56.55,308.1 56.64,308.17 
						56.61,308.06 56.7,307.99 56.58,307.99 					"/>
				</g>
				<g>
					<polygon class="st10" points="60.37,310.49 60.32,310.63 60.18,310.63 60.3,310.71 60.25,310.85 60.37,310.76 60.49,310.85 
						60.45,310.71 60.56,310.63 60.42,310.63 					"/>
				</g>
				<g>
					<polygon class="st10" points="59.56,310.49 59.51,310.63 59.36,310.63 59.48,310.71 59.44,310.85 59.56,310.76 59.68,310.85 
						59.63,310.71 59.75,310.63 59.6,310.63 					"/>
				</g>
				<g>
					<polygon class="st10" points="59.95,311.03 59.91,311.17 59.76,311.17 59.88,311.25 59.83,311.39 59.95,311.3 60.07,311.39 
						60.03,311.25 60.15,311.17 60,311.17 					"/>
				</g>
				<g>
					<polygon class="st10" points="61.1,310.87 61.05,311.01 60.91,311.01 61.03,311.09 60.98,311.23 61.1,311.14 61.22,311.23 
						61.18,311.09 61.3,311.01 61.15,311.01 					"/>
				</g>
				<g>
					<polygon class="st10" points="58.34,311.64 58.3,311.75 58.18,311.75 58.28,311.81 58.25,311.92 58.34,311.86 58.44,311.92 
						58.4,311.81 58.5,311.75 58.38,311.75 					"/>
				</g>
				<g>
					<polygon class="st10" points="58.16,309.31 58.14,309.39 58.05,309.39 58.12,309.44 58.09,309.52 58.16,309.47 58.24,309.52 
						58.21,309.44 58.28,309.39 58.19,309.39 					"/>
				</g>
				<g>
					<polygon class="st10" points="55.19,308.41 55.16,308.49 55.08,308.49 55.15,308.54 55.12,308.62 55.19,308.57 55.26,308.62 
						55.23,308.54 55.3,308.49 55.22,308.49 					"/>
				</g>
				<g>
					<polygon class="st10" points="55.36,309.22 55.32,309.36 55.17,309.36 55.29,309.44 55.24,309.58 55.36,309.49 55.48,309.58 
						55.44,309.44 55.56,309.36 55.41,309.36 					"/>
				</g>
				<g>
					<polygon class="st10" points="54.3,309.38 54.25,309.51 54.1,309.51 54.22,309.6 54.18,309.73 54.3,309.65 54.42,309.73 
						54.37,309.6 54.49,309.51 54.34,309.51 					"/>
				</g>
				<g>
					<polygon class="st10" points="55.08,309.87 55.06,309.95 54.97,309.95 55.04,310 55.01,310.08 55.08,310.03 55.15,310.08 
						55.13,310 55.2,309.95 55.11,309.95 					"/>
				</g>
			</g>
		</g>
	</g>
</g>
<g>
	<g>
		<g>
			<g>
				<rect x="43.34" y="71.72" class="st10" width="30" height="19.16"/>
			</g>
			<g>
				<g>
					<rect x="55.34" y="71.71" class="st11" width="18" height="1.48"/>
				</g>
				<g>
					<rect x="55.34" y="74.66" class="st11" width="18" height="1.48"/>
				</g>
				<g>
					<rect x="55.34" y="77.61" class="st11" width="18" height="1.48"/>
				</g>
				<g>
					<rect x="55.34" y="80.56" class="st11" width="18" height="1.48"/>
				</g>
				<g>
					<rect x="43.34" y="83.51" class="st11" width="30" height="1.48"/>
				</g>
				<g>
					<rect x="43.34" y="86.46" class="st11" width="30" height="1.48"/>
				</g>
				<g>
					<rect x="43.34" y="89.41" class="st11" width="30" height="1.48"/>
				</g>
			</g>
			<g>
				<rect x="43.34" y="71.72" class="st16" width="12" height="10.32"/>
			</g>
			<g>
				<g>
					<polygon class="st10" points="44.31,72.11 44.2,72.52 43.85,72.52 44.14,72.77 44.03,73.17 44.31,72.92 44.59,73.17 
						44.49,72.77 44.77,72.52 44.42,72.52 					"/>
				</g>
				<g>
					<polygon class="st10" points="46.32,72.11 46.21,72.52 45.86,72.52 46.15,72.77 46.04,73.17 46.32,72.92 46.61,73.17 
						46.5,72.77 46.78,72.52 46.43,72.52 					"/>
				</g>
				<g>
					<polygon class="st10" points="48.33,72.11 48.23,72.52 47.88,72.52 48.16,72.77 48.05,73.17 48.33,72.92 48.62,73.17 
						48.51,72.77 48.79,72.52 48.44,72.52 					"/>
				</g>
				<g>
					<polygon class="st10" points="50.35,72.11 50.24,72.52 49.89,72.52 50.17,72.77 50.06,73.17 50.35,72.92 50.63,73.17 
						50.52,72.77 50.81,72.52 50.46,72.52 					"/>
				</g>
				<g>
					<polygon class="st10" points="52.36,72.11 52.25,72.52 51.9,72.52 52.18,72.77 52.08,73.17 52.36,72.92 52.64,73.17 
						52.53,72.77 52.82,72.52 52.47,72.52 					"/>
				</g>
				<g>
					<polygon class="st10" points="54.37,72.11 54.26,72.52 53.91,72.52 54.2,72.77 54.09,73.17 54.37,72.92 54.65,73.17 
						54.55,72.77 54.83,72.52 54.48,72.52 					"/>
				</g>
				<g>
					<polygon class="st10" points="45.32,73.17 45.21,73.58 44.86,73.58 45.14,73.83 45.03,74.23 45.32,73.98 45.6,74.23 
						45.49,73.83 45.78,73.58 45.42,73.58 					"/>
				</g>
				<g>
					<polygon class="st10" points="47.33,73.17 47.22,73.58 46.87,73.58 47.15,73.83 47.05,74.23 47.33,73.98 47.61,74.23 
						47.5,73.83 47.79,73.58 47.44,73.58 					"/>
				</g>
				<g>
					<polygon class="st10" points="49.34,73.17 49.23,73.58 48.88,73.58 49.17,73.83 49.06,74.23 49.34,73.98 49.62,74.23 
						49.52,73.83 49.8,73.58 49.45,73.58 					"/>
				</g>
				<g>
					<polygon class="st10" points="51.35,73.17 51.24,73.58 50.89,73.58 51.18,73.83 51.07,74.23 51.35,73.98 51.64,74.23 
						51.53,73.83 51.81,73.58 51.46,73.58 					"/>
				</g>
				<g>
					<polygon class="st10" points="53.37,73.17 53.26,73.58 52.91,73.58 53.19,73.83 53.08,74.23 53.36,73.98 53.65,74.23 
						53.54,73.83 53.82,73.58 53.47,73.58 					"/>
				</g>
				<g>
					<polygon class="st10" points="44.31,74.23 44.2,74.63 43.85,74.63 44.14,74.88 44.03,75.29 44.31,75.04 44.59,75.29 
						44.49,74.88 44.77,74.63 44.42,74.63 					"/>
				</g>
				<g>
					<polygon class="st10" points="48.33,74.23 48.23,74.63 47.88,74.63 48.16,74.88 48.05,75.29 48.33,75.04 48.62,75.29 
						48.51,74.88 48.79,74.63 48.44,74.63 					"/>
				</g>
				<g>
					<polygon class="st10" points="50.35,74.23 50.24,74.63 49.89,74.63 50.17,74.88 50.06,75.29 50.35,75.04 50.63,75.29 
						50.52,74.88 50.81,74.63 50.46,74.63 					"/>
				</g>
				<g>
					<polygon class="st10" points="52.36,74.23 52.25,74.63 51.9,74.63 52.18,74.88 52.08,75.29 52.36,75.04 52.64,75.29 
						52.53,74.88 52.82,74.63 52.47,74.63 					"/>
				</g>
				<g>
					<polygon class="st10" points="54.37,74.23 54.26,74.63 53.91,74.63 54.2,74.88 54.09,75.29 54.37,75.04 54.65,75.29 
						54.55,74.88 54.83,74.63 54.48,74.63 					"/>
				</g>
				<g>
					<polygon class="st10" points="45.32,75.29 45.21,75.69 44.86,75.69 45.14,75.94 45.03,76.35 45.32,76.1 45.6,76.35 
						45.49,75.94 45.78,75.69 45.42,75.69 					"/>
				</g>
				<g>
					<polygon class="st10" points="47.33,75.29 47.22,75.69 46.87,75.69 47.15,75.94 47.05,76.35 47.33,76.1 47.61,76.35 
						47.5,75.94 47.79,75.69 47.44,75.69 					"/>
				</g>
				<g>
					<polygon class="st10" points="49.34,75.29 49.23,75.69 48.88,75.69 49.17,75.94 49.06,76.35 49.34,76.1 49.62,76.35 
						49.52,75.94 49.8,75.69 49.45,75.69 					"/>
				</g>
				<g>
					<polygon class="st10" points="51.35,75.29 51.24,75.69 50.89,75.69 51.18,75.94 51.07,76.35 51.35,76.1 51.64,76.35 
						51.53,75.94 51.81,75.69 51.46,75.69 					"/>
				</g>
				<g>
					<polygon class="st10" points="53.37,75.29 53.26,75.69 52.91,75.69 53.19,75.94 53.08,76.35 53.36,76.1 53.65,76.35 
						53.54,75.94 53.82,75.69 53.47,75.69 					"/>
				</g>
				<g>
					<polygon class="st10" points="44.31,76.34 44.2,76.75 43.85,76.75 44.14,77 44.03,77.4 44.31,77.15 44.59,77.4 44.49,77 
						44.77,76.75 44.42,76.75 					"/>
				</g>
				<g>
					<polygon class="st10" points="46.32,76.34 46.21,76.75 45.86,76.75 46.15,77 46.04,77.4 46.32,77.15 46.61,77.4 46.5,77 
						46.78,76.75 46.43,76.75 					"/>
				</g>
				<g>
					<polygon class="st10" points="48.33,76.34 48.23,76.75 47.88,76.75 48.16,77 48.05,77.4 48.33,77.15 48.62,77.4 48.51,77 
						48.79,76.75 48.44,76.75 					"/>
				</g>
				<g>
					<polygon class="st10" points="50.35,76.34 50.24,76.75 49.89,76.75 50.17,77 50.06,77.4 50.35,77.15 50.63,77.4 50.52,77 
						50.81,76.75 50.46,76.75 					"/>
				</g>
				<g>
					<polygon class="st10" points="52.36,76.34 52.25,76.75 51.9,76.75 52.18,77 52.08,77.4 52.36,77.15 52.64,77.4 52.53,77 
						52.82,76.75 52.47,76.75 					"/>
				</g>
				<g>
					<polygon class="st10" points="54.37,76.34 54.26,76.75 53.91,76.75 54.2,77 54.09,77.4 54.37,77.15 54.65,77.4 54.55,77 
						54.83,76.75 54.48,76.75 					"/>
				</g>
				<g>
					<polygon class="st10" points="45.32,77.4 45.21,77.81 44.86,77.81 45.14,78.05 45.03,78.46 45.32,78.21 45.6,78.46 
						45.49,78.05 45.78,77.81 45.42,77.81 					"/>
				</g>
				<g>
					<polygon class="st10" points="47.33,77.4 47.22,77.81 46.87,77.81 47.15,78.05 47.05,78.46 47.33,78.21 47.61,78.46 
						47.5,78.05 47.79,77.81 47.44,77.81 					"/>
				</g>
				<g>
					<polygon class="st10" points="49.34,77.4 49.23,77.81 48.88,77.81 49.17,78.05 49.06,78.46 49.34,78.21 49.62,78.46 
						49.52,78.05 49.8,77.81 49.45,77.81 					"/>
				</g>
				<g>
					<polygon class="st10" points="51.35,77.4 51.24,77.81 50.89,77.81 51.18,78.05 51.07,78.46 51.35,78.21 51.64,78.46 
						51.53,78.05 51.81,77.81 51.46,77.81 					"/>
				</g>
				<g>
					<polygon class="st10" points="44.31,78.46 44.2,78.86 43.85,78.86 44.14,79.11 44.03,79.52 44.31,79.27 44.59,79.52 
						44.49,79.11 44.77,78.86 44.42,78.86 					"/>
				</g>
				<g>
					<polygon class="st10" points="46.32,78.46 46.21,78.86 45.86,78.86 46.15,79.11 46.04,79.52 46.32,79.27 46.61,79.52 
						46.5,79.11 46.78,78.86 46.43,78.86 					"/>
				</g>
				<g>
					<polygon class="st10" points="48.33,78.46 48.23,78.86 47.88,78.86 48.16,79.11 48.05,79.52 48.33,79.27 48.62,79.52 
						48.51,79.11 48.79,78.86 48.44,78.86 					"/>
				</g>
				<g>
					<polygon class="st10" points="50.35,78.46 50.24,78.86 49.89,78.86 50.17,79.11 50.06,79.52 50.35,79.27 50.63,79.52 
						50.52,79.11 50.81,78.86 50.46,78.86 					"/>
				</g>
				<g>
					<polygon class="st10" points="52.36,78.46 52.25,78.86 51.9,78.86 52.18,79.11 52.08,79.52 52.36,79.27 52.64,79.52 
						52.53,79.11 52.82,78.86 52.47,78.86 					"/>
				</g>
				<g>
					<polygon class="st10" points="54.37,78.46 54.26,78.86 53.91,78.86 54.2,79.11 54.09,79.52 54.37,79.27 54.65,79.52 
						54.55,79.11 54.83,78.86 54.48,78.86 					"/>
				</g>
				<g>
					<polygon class="st10" points="45.32,79.52 45.21,79.92 44.86,79.92 45.14,80.17 45.03,80.57 45.32,80.33 45.6,80.57 
						45.49,80.17 45.78,79.92 45.42,79.92 					"/>
				</g>
				<g>
					<polygon class="st10" points="47.33,79.52 47.22,79.92 46.87,79.92 47.15,80.17 47.05,80.57 47.33,80.33 47.61,80.57 
						47.5,80.17 47.79,79.92 47.44,79.92 					"/>
				</g>
				<g>
					<polygon class="st10" points="49.34,79.52 49.23,79.92 48.88,79.92 49.17,80.17 49.06,80.57 49.34,80.33 49.62,80.57 
						49.52,80.17 49.8,79.92 49.45,79.92 					"/>
				</g>
				<g>
					<polygon class="st10" points="51.35,79.52 51.24,79.92 50.89,79.92 51.18,80.17 51.07,80.57 51.35,80.33 51.64,80.57 
						51.53,80.17 51.81,79.92 51.46,79.92 					"/>
				</g>
				<g>
					<polygon class="st10" points="53.37,79.52 53.26,79.92 52.91,79.92 53.19,80.17 53.08,80.57 53.36,80.33 53.65,80.57 
						53.54,80.17 53.82,79.92 53.47,79.92 					"/>
				</g>
				<g>
					<polygon class="st10" points="44.31,80.57 44.2,80.98 43.85,80.98 44.14,81.23 44.03,81.63 44.31,81.38 44.59,81.63 
						44.49,81.23 44.77,80.98 44.42,80.98 					"/>
				</g>
				<g>
					<polygon class="st10" points="46.32,80.57 46.21,80.98 45.86,80.98 46.15,81.23 46.04,81.63 46.32,81.38 46.61,81.63 
						46.5,81.23 46.78,80.98 46.43,80.98 					"/>
				</g>
				<g>
					<polygon class="st10" points="48.33,80.57 48.23,80.98 47.88,80.98 48.16,81.23 48.05,81.63 48.33,81.38 48.62,81.63 
						48.51,81.23 48.79,80.98 48.44,80.98 					"/>
				</g>
				<g>
					<polygon class="st10" points="50.35,80.57 50.24,80.98 49.89,80.98 50.17,81.23 50.06,81.63 50.35,81.38 50.63,81.63 
						50.52,81.23 50.81,80.98 50.46,80.98 					"/>
				</g>
				<g>
					<polygon class="st10" points="52.36,80.57 52.25,80.98 51.9,80.98 52.18,81.23 52.08,81.63 52.36,81.38 52.64,81.63 
						52.53,81.23 52.82,80.98 52.47,80.98 					"/>
				</g>
				<g>
					<polygon class="st10" points="54.37,80.57 54.26,80.98 53.91,80.98 54.2,81.23 54.09,81.63 54.37,81.38 54.65,81.63 
						54.55,81.23 54.83,80.98 54.48,80.98 					"/>
				</g>
				<g>
					<polygon class="st10" points="46.32,74.22 46.21,74.63 45.86,74.63 46.15,74.87 46.04,75.28 46.32,75.03 46.61,75.28 
						46.5,74.87 46.78,74.63 46.43,74.63 					"/>
				</g>
				<g>
					<polygon class="st10" points="53.36,77.4 53.26,77.81 52.9,77.81 53.19,78.05 53.08,78.46 53.36,78.21 53.65,78.46 
						53.54,78.05 53.82,77.81 53.47,77.81 					"/>
				</g>
			</g>
		</g>
	</g>
	<g>
		<text transform="matrix(1 0 0 1 17.7803 102.0868)" class="st0 st8 st9">Estados Unidos</text>
	</g>
</g>
<path class="st17" d="M156.71,27.13c33.61,0,60.85,27.24,60.85,60.85s-27.24,60.85-60.85,60.85s-60.85-27.24-60.85-60.85
	S123.1,27.13,156.71,27.13L156.71,27.13"/>
<path class="st17" d="M156.71,168.85c17.96,0,32.53,14.56,32.53,32.53s-14.56,32.53-32.53,32.53s-32.53-14.56-32.53-32.53
	S138.75,168.85,156.71,168.85L156.71,168.85"/>
<text transform="matrix(1 0 0 1 148.1043 90.9063)" class="st0 st18 st2">742</text>
<text transform="matrix(1 0 0 1 316.9377 57.1443)" class="st0 st1 st19">47%</text>
<text transform="matrix(1 0 0 1 458.9124 94.6734)" class="st0 st1 st2">53%</text>
<text transform="matrix(1 0 0 1 438.2443 242.6661)" class="st0 st1 st2">80%</text>
<text transform="matrix(1 0 0 1 421.9154 273.737)" class="st0 st1 st2">5%</text>
<text transform="matrix(1 0 0 1 397.9908 362.3994)" class="st0 st1 st2">95%</text>
<text transform="matrix(1 0 0 1 359.8943 86.6298)" class="st0 st1 st2">47%</text>
<text transform="matrix(1 0 0 1 396.0756 161.0838)" class="st0 st1 st2">10%</text>
<text transform="matrix(1 0 0 1 243.5681 126.2384)" class="st0 st1 st2">34%</text>
<text transform="matrix(1 0 0 1 248.1331 52.1271)" class="st0 st1 st2">19%</text>
<text transform="matrix(1 0 0 1 311.1641 395.7936)" class="st0 st1 st2">19%</text>
<text transform="matrix(1 0 0 1 314.0465 464.3512)" class="st0 st1 st2">36%</text>
<text transform="matrix(1 0 0 1 229.6375 413.4783)" class="st0 st1 st2">46%</text>
<g>
	<text transform="matrix(1 0 0 1 316.8675 168.85)" class="st0 st1 st19">24%</text>
</g>
<text transform="matrix(1 0 0 1 322.7923 224.628)" class="st0 st1 st2">13%</text>
<text transform="matrix(1 0 0 1 235.2365 231.088)" class="st0 st1 st2">63%</text>
<g>
	<text transform="matrix(1 0 0 1 319.2156 283.3117)" class="st0 st1 st19">30%</text>
</g>
<text transform="matrix(1 0 0 1 300.9339 359.5486)" class="st0 st1 st2">29%</text>
<text transform="matrix(1 0 0 1 229.6377 303.6792)" class="st0 st1 st2">41%</text>
<text transform="matrix(1 0 0 1 148.1039 204.2943)" class="st0 st18 st2">212</text>
<path class="st17" d="M156.71,389.93c21.3,0,38.57,17.27,38.57,38.57s-17.27,38.57-38.57,38.57s-38.57-17.27-38.57-38.57
	S135.41,389.93,156.71,389.93L156.71,389.93"/>
<text transform="matrix(1 0 0 1 148.1039 431.4161)" class="st0 st18 st2">230</text>
<g>
	<path class="st17" d="M156.71,283.03c17.62,0,31.91,14.28,31.91,31.91c0,17.62-14.28,31.91-31.91,31.91s-31.91-14.28-31.91-31.91
		S139.09,283.03,156.71,283.03L156.71,283.03"/>
	<text transform="matrix(1 0 0 1 148.1045 317.856)" class="st0 st18 st2">204</text>
</g>
<g>
	<g>
		<line class="st20" x1="189.24" y1="201.37" x2="190.74" y2="201.37"/>
		<line class="st21" x1="194.95" y1="201.37" x2="244.43" y2="201.37"/>
		<line class="st20" x1="246.54" y1="201.37" x2="248.04" y2="201.37"/>
	</g>
</g>
<g>
	<g>
		<line class="st20" x1="188.62" y1="314.93" x2="190.12" y2="314.93"/>
		<line class="st22" x1="193.88" y1="314.93" x2="244.65" y2="314.93"/>
		<line class="st20" x1="246.54" y1="314.93" x2="248.04" y2="314.93"/>
	</g>
</g>
<g>
	<g>
		<line class="st20" x1="195.28" y1="428.49" x2="196.78" y2="428.49"/>
		<line class="st23" x1="200.53" y1="428.49" x2="244.66" y2="428.49"/>
		<line class="st20" x1="246.54" y1="428.49" x2="248.04" y2="428.49"/>
	</g>
</g>
<g>
	<g>
		<line class="st20" x1="217.56" y1="87.98" x2="219.06" y2="87.98"/>
		<line class="st24" x1="223.46" y1="87.98" x2="244.34" y2="87.98"/>
		<line class="st20" x1="246.54" y1="87.98" x2="248.04" y2="87.98"/>
	</g>
</g>
<g>
	<path class="st3" d="M286.6,49.34c-0.74,0-1.51,0.03-2.35,0.08l0,0h-0.08h-0.07l0,0c-0.71,0.05-1.46,0.12-2.27,0.22l0,0l-0.07,0.01
		h-0.01l-0.07,0.01l0,0c-0.8,0.1-1.54,0.21-2.26,0.35l0,0l-0.07,0.01c-0.86,0.16-1.64,0.33-2.38,0.52l-0.07,0.02l0,0
		c-0.69,0.18-1.43,0.39-2.25,0.66l-0.07,0.02v0.01c-0.64,0.21-1.33,0.46-2.15,0.77l0,0l-0.07,0.03c0,0-0.01,0-0.01,0.01l-0.05,0.02
		l0,0c-0.77,0.31-1.5,0.62-2.16,0.93l-0.07,0.03v0.01c-0.81,0.39-1.48,0.73-2.09,1.07l-0.07,0.04v0.01
		c-0.59,0.33-1.21,0.7-1.95,1.17v-0.01l-0.06,0.04c-0.62,0.39-1.26,0.83-1.94,1.32l0,0l-0.06,0.04c-0.01,0.01-0.02,0.02-0.03,0.02
		l-0.03,0.02l0,0c-0.56,0.41-1.19,0.89-1.81,1.39l0,0l-0.05,0.04l-0.01,0.01l-0.06,0.05l0,0c-0.53,0.45-1.09,0.94-1.7,1.51l0,0
		l-0.05,0.05l-0.06,0.05l0,0c-0.56,0.52-1.1,1.06-1.61,1.61l-0.01-0.01l-0.05,0.06c-0.63,0.68-1.14,1.25-1.61,1.81l-0.05,0.06
		l0.01,0.01c-0.46,0.56-0.91,1.15-1.39,1.8l0,0l-0.04,0.06l-0.04,0.06l0,0c-0.49,0.68-0.93,1.32-1.32,1.94l-0.04,0.06h0.01
		c-0.47,0.74-0.84,1.37-1.17,1.96l-0.01-0.01l-0.04,0.07c-0.35,0.64-0.7,1.32-1.1,2.16l-0.03,0.07h0.01
		c-0.34,0.74-0.65,1.45-0.93,2.16l-0.03,0.07l10.92,4.33l0.07,0.03l0.03-0.07c0.23-0.57,0.44-1.08,0.67-1.56l0.03-0.07h-0.01
		c0.22-0.44,0.45-0.91,0.7-1.36h0.01l0.04-0.07c0.24-0.45,0.52-0.92,0.86-1.44l0.04-0.06l0,0c0.3-0.47,0.6-0.92,0.91-1.33l0.01-0.01
		c0.32-0.44,0.65-0.88,1.02-1.33l0.05-0.06l0,0c0.3-0.35,0.64-0.73,1.03-1.14h0.01l0.05-0.06c0.38-0.41,0.78-0.81,1.19-1.19
		l0.06-0.05l0,0c0.42-0.4,0.81-0.75,1.2-1.08c0.39-0.32,0.81-0.65,1.34-1.03l0.02-0.01c0.42-0.3,0.86-0.61,1.32-0.9l0,0l0.06-0.04
		c0.52-0.33,1-0.61,1.45-0.86l0.07-0.04l0,0c0.54-0.29,1-0.53,1.43-0.73l0.07-0.03l0,0c0.45-0.21,0.94-0.41,1.48-0.63
		c0.51-0.21,1.05-0.4,1.58-0.57l0.07-0.02v-0.01c0.46-0.14,0.99-0.31,1.55-0.45l0.06-0.02c0.51-0.13,1.03-0.23,1.52-0.33l0,0
		l0.07-0.01c0.58-0.11,1.14-0.19,1.65-0.26h0.01c0.64-0.08,1.14-0.13,1.6-0.15l0,0l0.08-0.01c0.56-0.04,1.12-0.06,1.68-0.06h0.08
		V49.34H286.6z"/>
	<path class="st5" d="M325.25,87.9h-0.01c0-0.72-0.03-1.46-0.07-2.26h0.01v-0.07c-0.05-0.74-0.12-1.51-0.22-2.35l0,0l-0.01-0.07
		c0-0.02-0.01-0.04-0.01-0.06v-0.01l0,0c-0.1-0.8-0.21-1.54-0.35-2.26l0,0l-0.01-0.07l0,0l-0.01-0.07l0,0
		c-0.15-0.8-0.31-1.54-0.49-2.23l0,0l-0.02-0.07l-0.02-0.07l0,0c-0.18-0.71-0.4-1.45-0.66-2.26l-0.02-0.07h-0.01
		c-0.21-0.64-0.46-1.33-0.77-2.15l0,0l-0.02-0.05c0-0.01-0.01-0.02-0.01-0.02l-0.03-0.07l0,0c-0.31-0.76-0.62-1.49-0.93-2.16
		l-0.03-0.07h-0.01c-0.39-0.8-0.73-1.47-1.06-2.09l-0.04-0.07h-0.01c-0.33-0.6-0.71-1.24-1.2-2.01l-0.04-0.06l-0.01,0.01
		c-0.38-0.6-0.81-1.22-1.28-1.89l0.01-0.01l-0.04-0.06c-0.43-0.58-0.94-1.26-1.48-1.92l-0.05-0.06l-0.01,0.01
		c-0.44-0.52-0.93-1.07-1.51-1.7l0.01-0.01l-0.05-0.05c-0.53-0.57-1.09-1.12-1.66-1.66l0,0l-0.06-0.05L313,59.77l0,0
		c-0.63-0.59-1.21-1.1-1.76-1.56l-0.06-0.05l-0.01,0.01c-0.56-0.46-1.15-0.91-1.81-1.39v-0.01l-0.06-0.04
		c-0.71-0.51-1.36-0.96-2-1.36l-0.06-0.04v0.01c-0.74-0.47-1.37-0.84-1.96-1.17l0,0l-0.07-0.04l-0.07-0.04l0,0
		c-0.6-0.33-1.25-0.66-2.03-1.03l0,0l-0.05-0.02c-0.01,0-0.01-0.01-0.02-0.01L302.97,53l0,0c-0.69-0.32-1.39-0.62-2.09-0.9v-0.01
		l-0.07-0.03c-0.7-0.28-1.42-0.54-2.21-0.8l0,0l-0.07-0.02l-0.07-0.02l0,0c-0.79-0.26-1.51-0.47-2.19-0.64v-0.01l-0.07-0.02
		c-0.71-0.18-1.47-0.35-2.29-0.5l0,0l-0.07-0.01c-0.74-0.14-1.52-0.26-2.39-0.37l-0.08-0.01l0,0c-0.81-0.1-1.56-0.17-2.28-0.22l0,0
		h-0.07h-0.08l0,0c-0.84-0.05-1.61-0.08-2.35-0.08h-0.08v11.82h0.08c0.57,0,1.12,0.02,1.69,0.06h0.02c0.49,0.03,1,0.08,1.66,0.16
		l0.08,0.01l0,0c0.46,0.06,0.96,0.14,1.51,0.24l0,0l0.07,0.01c0.54,0.1,1.06,0.21,1.59,0.34v0.01l0.07,0.02
		c0.5,0.12,1,0.27,1.54,0.45l0,0l0.07,0.02c0.51,0.16,1.02,0.34,1.51,0.54l0,0l0.07,0.03c0.52,0.2,1.03,0.42,1.55,0.67
		c0.51,0.24,1.02,0.5,1.49,0.76l0.01,0.01c0.43,0.24,0.89,0.51,1.45,0.86l0.06,0.04l0,0c0.38,0.24,0.78,0.51,1.26,0.86l0,0
		l0.06,0.04c0.51,0.37,0.95,0.7,1.34,1.03l0.06,0.05l0,0c0.37,0.31,0.75,0.65,1.15,1.03l0,0l0.06,0.05
		c0.39,0.36,0.77,0.74,1.13,1.13l0,0l0.05,0.05c0.36,0.37,0.72,0.77,1.13,1.26l0.05,0.06l0,0c0.34,0.42,0.64,0.82,0.94,1.22
		l-0.01,0.01l0.05,0.06c0.37,0.48,0.7,0.99,0.95,1.38l0.04,0.06h0.01c0.32,0.5,0.59,0.95,0.82,1.39l0.04,0.07l0,0
		c0.29,0.54,0.53,1,0.73,1.43l0.03,0.07l0,0c0.21,0.45,0.41,0.94,0.63,1.47l0,0c0.2,0.54,0.39,1.08,0.57,1.59l0.02,0.07h0.01
		l0.02,0.08c0.14,0.49,0.29,0.98,0.42,1.47l0,0c0.14,0.57,0.25,1.11,0.35,1.64V83c0.11,0.6,0.19,1.1,0.25,1.59l0,0l0.01,0.07
		c0.06,0.48,0.11,1.01,0.15,1.59h-0.01v0.08c0.04,0.56,0.06,1.13,0.06,1.68v0.08h0.01c-0.01,0.53-0.03,1.05-0.06,1.61l0,0
		c-0.04,0.62-0.1,1.17-0.16,1.68l-0.01,0.07l0,0c-0.06,0.46-0.14,0.96-0.24,1.52l0.01,0.03c-0.1,0.53-0.22,1.05-0.34,1.58h-0.01
		l-0.02,0.07c-0.13,0.5-0.28,1.03-0.47,1.61v0.01c-0.17,0.52-0.37,1.06-0.57,1.59l-0.01,0.02c-0.21,0.53-0.42,1.01-0.63,1.46l0,0
		l-0.03,0.07c-0.21,0.45-0.45,0.93-0.73,1.44h-0.01l-0.04,0.07c-0.26,0.49-0.55,0.98-0.86,1.44l-0.04,0.06l0.01,0.01
		c-0.24,0.36-0.54,0.81-0.87,1.27h-0.01l-0.04,0.06c-0.39,0.53-0.71,0.96-1.03,1.34l-0.05,0.06l0,0c-0.29,0.34-0.67,0.77-1.07,1.19
		l-0.02,0.02c-0.36,0.39-0.74,0.76-1.12,1.12l0,0l-0.05,0.05c-0.42,0.41-0.84,0.79-1.25,1.13l-0.06,0.05l0,0
		c-0.48,0.38-0.86,0.67-1.22,0.94l0,0l-0.06,0.04c-0.41,0.3-0.85,0.6-1.39,0.95l0,0c-0.55,0.34-1.01,0.62-1.44,0.86l-0.01,0.01
		c-0.48,0.27-0.99,0.52-1.49,0.76l-0.07,0.03l0,0c-0.5,0.23-0.98,0.44-1.48,0.64c-0.5,0.19-1.04,0.4-1.58,0.57l-0.07,0.02v0.01
		c-0.55,0.18-1.06,0.32-1.55,0.45l-0.07,0.02l0,0c-0.51,0.13-1.02,0.23-1.57,0.34l-0.07,0.01l2.21,11.54l0.01,0.07l0.07-0.01
		c0.85-0.16,1.63-0.33,2.38-0.52l0.07-0.02l0,0c0.7-0.18,1.43-0.39,2.25-0.66l0.07-0.02v-0.01c0.64-0.21,1.32-0.46,2.15-0.77l0,0
		l0.07-0.03c0.01,0,0.01,0,0.01-0.01l0.05-0.02l0,0c0.77-0.31,1.5-0.62,2.16-0.93l0.07-0.03v-0.01c0.78-0.38,1.43-0.71,2.02-1.03
		l0,0l0.07-0.04l0.07-0.04l0,0c0.59-0.32,1.21-0.7,1.96-1.17l0,0l0.06-0.04l0.06-0.04l0,0c0.6-0.38,1.22-0.8,1.89-1.28v0.01
		l0.06-0.04c0.58-0.43,1.27-0.94,1.92-1.48l0.06-0.05l-0.01-0.01c0.53-0.45,1.09-0.94,1.7-1.51l0.01,0.01l0.05-0.05
		c0.57-0.53,1.13-1.09,1.66-1.66l0,0l0.05-0.05l0.05-0.05l0,0c0.59-0.64,1.11-1.22,1.56-1.76l0.05-0.06l-0.01-0.01
		c0.45-0.55,0.91-1.14,1.39-1.8l0.01,0.01l0.04-0.06c0.52-0.72,0.96-1.37,1.36-2l0.04-0.06l-0.01-0.01
		c0.47-0.75,0.85-1.38,1.17-1.96l0.01,0.01l0.04-0.07c0.34-0.62,0.68-1.28,1.06-2.09h0.01l0.03-0.07c0.34-0.74,0.65-1.45,0.93-2.17
		l0,0l0.03-0.07c0,0,0,0,0-0.01l0.03-0.06l0,0c0.27-0.68,0.52-1.38,0.77-2.14l0,0l0.02-0.07l0.02-0.07l0,0
		c0.25-0.79,0.46-1.51,0.64-2.19h0.01l0.02-0.07c0.18-0.71,0.35-1.46,0.5-2.29l0,0l0.01-0.07c0-0.02,0.01-0.05,0.01-0.07V95.2l0,0
		c0.13-0.7,0.24-1.43,0.35-2.25l0,0v-0.01c0-0.02,0.01-0.03,0.01-0.05l0.01-0.07l0,0c0.1-0.82,0.17-1.56,0.22-2.28l0,0v-0.07
		c0,0,0,0,0-0.01v-0.07l0,0c0.05-0.84,0.08-1.61,0.08-2.35V87.9H325.25z"/>
	<path class="st4" d="M293.91,125.93l-2.21-11.54l-0.01-0.07l-0.07,0.01c-0.57,0.11-1.13,0.19-1.66,0.26
		c-0.5,0.06-1.03,0.11-1.67,0.16l0,0c-0.54,0.03-1.11,0.06-1.68,0.06c-0.58,0-1.14-0.03-1.68-0.06l0,0
		c-0.64-0.05-1.17-0.1-1.67-0.16l-0.08-0.01l0,0c-0.47-0.06-0.98-0.14-1.51-0.24l-0.07-0.01c-0.56-0.11-1.07-0.21-1.59-0.34v-0.01
		l-0.07-0.02c-0.48-0.11-0.98-0.26-1.57-0.45l-0.04-0.01c-0.52-0.16-1.02-0.35-1.51-0.54l0,0l-0.07-0.03
		c-0.55-0.22-1.03-0.43-1.48-0.63l0,0l-0.07-0.03c-0.46-0.21-0.96-0.46-1.5-0.77l-0.07-0.04l0,0c-0.42-0.23-0.86-0.5-1.39-0.83
		h-0.01c-0.42-0.28-0.9-0.59-1.34-0.92l-0.03-0.02c-0.42-0.3-0.86-0.64-1.34-1.03l-0.01-0.01c-0.4-0.34-0.81-0.7-1.25-1.12
		l-0.05-0.05l0,0c-0.36-0.35-0.73-0.71-1.08-1.08l0,0l-0.05-0.05c-0.42-0.44-0.79-0.85-1.13-1.26l-0.01-0.02
		c-0.29-0.36-0.61-0.77-0.97-1.27l0,0l-0.04-0.06c-0.37-0.5-0.67-0.95-0.95-1.38l-0.04-0.06h-0.01c-0.26-0.42-0.52-0.86-0.78-1.31
		l0,0l-0.04-0.07c-0.25-0.44-0.49-0.91-0.75-1.47l-0.02-0.03c-0.22-0.48-0.44-0.99-0.67-1.56l-0.03-0.07h-0.01
		c-0.19-0.49-0.37-0.99-0.54-1.52v-0.01c-0.18-0.57-0.34-1.1-0.47-1.6l-0.01-0.06c-0.13-0.52-0.24-1.02-0.33-1.53l0,0L260.26,93
		c-0.09-0.46-0.17-0.95-0.25-1.58l0,0L260,91.34c-0.06-0.45-0.13-1.05-0.16-1.67v-0.01c-0.04-0.57-0.06-1.12-0.06-1.68
		s0.02-1.13,0.06-1.68v-0.06c0.03-0.59,0.1-1.18,0.16-1.62c0.08-0.63,0.16-1.12,0.25-1.58l0,0l0.01-0.07
		c0.1-0.55,0.21-1.09,0.36-1.65l0,0c0.12-0.48,0.27-0.98,0.45-1.55h0.01l0.02-0.07c0.17-0.53,0.36-1.06,0.57-1.58l0.03-0.07
		l-10.92-4.33l-0.07-0.03l-0.03,0.07c-0.28,0.69-0.54,1.42-0.8,2.22h-0.01l-0.02,0.07c-0.27,0.82-0.48,1.56-0.66,2.26l0,0
		l-0.02,0.07l-0.02,0.07l0,0c-0.18,0.69-0.34,1.43-0.49,2.23l0,0l-0.01,0.07c0,0,0,0,0,0.01l-0.01,0.07l0,0
		c-0.13,0.69-0.24,1.43-0.35,2.25l0,0l-0.01,0.07l-0.01,0.07l0,0c-0.1,0.81-0.17,1.56-0.22,2.28l0,0v0.04c0,0.01,0,0.02,0,0.03v0.07
		l0,0c-0.05,0.79-0.07,1.56-0.08,2.27l0,0v0.08c0,0,0,0,0,0.01s0,0,0,0.01v0.08l0,0c0,0.72,0.03,1.48,0.08,2.26l0,0v0.07l0,0v0.07
		l0,0c0.05,0.71,0.12,1.46,0.22,2.27l0,0l0.01,0.07l0.01,0.07l0,0c0.1,0.8,0.22,1.54,0.35,2.26l0,0l0.01,0.07
		c0.16,0.86,0.33,1.64,0.52,2.38l0.02,0.07l0,0c0.17,0.68,0.38,1.39,0.64,2.18l0,0l0.02,0.07l0.02,0.07l0,0
		c0.21,0.66,0.47,1.36,0.8,2.21l0.03,0.07h0.01c0.3,0.74,0.6,1.45,0.9,2.1l0,0l0.02,0.05c0,0.01,0.01,0.01,0.01,0.02l0.03,0.07l0,0
		c0.37,0.77,0.7,1.42,1.03,2.02l0,0l0.04,0.07c0.34,0.62,0.74,1.28,1.24,2.08l0.04,0.06l0.01-0.01c0.38,0.6,0.81,1.24,1.29,1.89
		h-0.01l0.04,0.06c0.42,0.57,0.91,1.23,1.44,1.86l0,0l0.05,0.06l0.01,0.01l0.04,0.05l0,0c0.44,0.52,0.94,1.08,1.51,1.7l-0.01,0.01
		l0.05,0.05c0.54,0.58,1.12,1.16,1.71,1.71l0.05,0.05l0.01-0.01c0.61,0.57,1.17,1.07,1.71,1.52l0,0l0.06,0.05l0.01,0.01l0.05,0.04
		l0,0c0.56,0.46,1.15,0.91,1.81,1.39l0,0l0.06,0.04l0.06,0.04l0,0c0.66,0.48,1.28,0.9,1.88,1.28l0,0l0.06,0.04l0.06,0.04l0,0
		c0.77,0.49,1.42,0.87,2.02,1.2l0.07,0.04v-0.01c0.6,0.33,1.25,0.66,2.03,1.03v0.01l0.07,0.03c0.73,0.34,1.43,0.64,2.16,0.93v0.01
		l0.07,0.03c0.69,0.28,1.42,0.54,2.21,0.8l0,0l0.07,0.02l0.07,0.02l0,0c0.8,0.26,1.52,0.47,2.19,0.64v0.01l0.07,0.02
		c0.72,0.18,1.47,0.35,2.29,0.5l0,0l0.07,0.01c0.74,0.14,1.52,0.26,2.39,0.37l0.08,0.01l0,0c0.81,0.1,1.56,0.17,2.28,0.22l0,0h0.07
		h0.08l0,0c0.81,0.05,1.55,0.07,2.27,0.08l0,0h0.08h0.08l0,0c0.72,0,1.47-0.03,2.27-0.08l0,0h0.08h0.07l0,0
		c0.71-0.05,1.46-0.12,2.27-0.22l0,0l0.07-0.01l0.08-0.01l0,0c0.82-0.1,1.58-0.22,2.32-0.36L293.91,125.93z"/>
</g>
<g>
	<path class="st7" d="M457.12,87.9h-0.01c0-0.72-0.03-1.46-0.07-2.26h0.01v-0.07c-0.05-0.74-0.12-1.51-0.22-2.35l0,0l-0.01-0.07
		c0-0.02-0.01-0.04-0.01-0.06v-0.01l0,0c-0.1-0.8-0.21-1.54-0.35-2.26l0,0l-0.01-0.07l0,0l-0.01-0.07l0,0
		c-0.16-0.83-0.32-1.59-0.51-2.3l-0.02-0.07h-0.01c-0.17-0.68-0.38-1.4-0.64-2.19l0,0l-0.02-0.07l-0.02-0.07l0,0
		c-0.21-0.66-0.47-1.36-0.8-2.21l-0.03-0.07h-0.01c-0.3-0.74-0.6-1.44-0.9-2.09h0.01l-0.03-0.07c-0.4-0.84-0.75-1.53-1.1-2.16
		l-0.04-0.07h-0.01c-0.33-0.6-0.71-1.24-1.2-2.01l-0.04-0.06l-0.01,0.01c-0.39-0.61-0.81-1.23-1.29-1.89h0.01l-0.04-0.06
		c-0.42-0.56-0.91-1.22-1.44-1.86l0,0l-0.05-0.06l-0.01-0.01l-0.04-0.05l0,0c-0.44-0.53-0.93-1.07-1.51-1.7l0.01-0.01l-0.05-0.05
		c-0.53-0.57-1.09-1.12-1.66-1.66l0,0l-0.06-0.05l-0.05-0.05l0,0c-0.65-0.6-1.21-1.1-1.76-1.56l-0.06-0.05l-0.01,0.01
		c-0.55-0.45-1.14-0.91-1.8-1.39V56.8l-0.06-0.04c-0.71-0.51-1.36-0.96-2-1.36l-0.06-0.04v0.01c-0.74-0.47-1.37-0.84-1.96-1.17l0,0
		l-0.07-0.04l-0.07-0.04l0,0c-0.59-0.32-1.24-0.65-2.03-1.03l0,0l-0.07-0.03l0,0l-0.07-0.03l0,0c-0.7-0.33-1.39-0.62-2.09-0.9v-0.01
		l-0.07-0.03c-0.69-0.28-1.42-0.54-2.21-0.8l0,0l-0.07-0.02l-0.07-0.02l0,0c-0.8-0.26-1.51-0.47-2.19-0.64V50.6l-0.07-0.02
		c-0.71-0.18-1.47-0.35-2.29-0.5l0,0l-0.07-0.01c-0.74-0.14-1.52-0.26-2.39-0.37l-0.08-0.01l0,0c-0.81-0.1-1.56-0.17-2.28-0.22l0,0
		h-0.07h-0.08l0,0c-0.84-0.05-1.61-0.08-2.35-0.08h-0.08v11.82h0.08c0.56,0,1.13,0.02,1.68,0.06l0.08,0.01l0,0
		c0.46,0.03,0.96,0.07,1.6,0.15l0.08,0.01l0,0c0.46,0.06,0.96,0.14,1.51,0.24l0,0l0.07,0.01c0.54,0.1,1.06,0.21,1.59,0.34v0.01
		l0.07,0.02c0.5,0.12,1,0.27,1.54,0.45l0,0l0.07,0.02c0.51,0.16,1.02,0.34,1.51,0.54l0,0l0.07,0.03c0.52,0.2,1.03,0.42,1.55,0.67
		c0.45,0.21,0.93,0.45,1.51,0.77l0,0c0.43,0.24,0.89,0.51,1.45,0.86l0.06,0.04l0,0c0.44,0.29,0.86,0.58,1.26,0.86l0,0l0.06,0.04
		c0.52,0.38,0.95,0.7,1.34,1.03l0.06,0.05l0,0c0.42,0.36,0.84,0.74,1.21,1.08c0.42,0.38,0.8,0.78,1.13,1.13h-0.01l0.05,0.05
		c0.36,0.37,0.72,0.77,1.13,1.26l0.01,0.02c0.36,0.44,0.67,0.85,0.97,1.26l0,0l0.04,0.06c0.32,0.43,0.64,0.9,0.95,1.38l0.04,0.06
		h0.01c0.32,0.5,0.59,0.96,0.82,1.39l0.04,0.07l0,0c0.25,0.47,0.48,0.92,0.69,1.35l0,0l0.03,0.07c0.24,0.49,0.46,1,0.67,1.55
		l0.03,0.07h0.01c0.19,0.49,0.37,1,0.54,1.52v0.01c0.18,0.58,0.34,1.11,0.47,1.6l0.02,0.07h0.01c0.13,0.54,0.24,1.05,0.34,1.57v0.02
		c0.11,0.6,0.19,1.11,0.25,1.59l0,0l0.01,0.07c0.06,0.47,0.11,0.99,0.15,1.59h-0.01v0.08c0.04,0.56,0.06,1.13,0.06,1.68v0.08h0.01
		c-0.01,0.53-0.03,1.05-0.06,1.61l0,0c-0.04,0.65-0.1,1.18-0.16,1.68l-0.01,0.07l0,0c-0.06,0.46-0.14,0.94-0.24,1.51h-0.01
		L444.82,93c-0.1,0.56-0.21,1.1-0.36,1.65c-0.13,0.5-0.28,1-0.45,1.55H444l-0.02,0.07c-0.17,0.54-0.36,1.07-0.57,1.58l-0.03,0.07
		h0.01c-0.2,0.51-0.4,0.97-0.6,1.41l0,0l-0.03,0.07c-0.28,0.58-0.51,1.03-0.74,1.44h-0.01l-0.04,0.07
		c-0.26,0.49-0.55,0.98-0.86,1.44l-0.04,0.06l0,0c-0.31,0.48-0.64,0.95-0.89,1.31l-0.02,0.02c-0.38,0.52-0.71,0.95-1.03,1.34
		l-0.05,0.06l0,0c-0.29,0.34-0.67,0.77-1.07,1.19c-0.33,0.35-0.72,0.75-1.14,1.14l0,0l-0.05,0.05c-0.38,0.37-0.8,0.76-1.26,1.13
		l-0.06,0.05l0,0c-0.46,0.37-0.85,0.67-1.22,0.94l0,0l-0.06,0.04c-0.46,0.33-0.95,0.66-1.38,0.94h-0.01
		c-0.55,0.34-1.01,0.62-1.45,0.86l0,0c-0.59,0.32-1.06,0.56-1.51,0.77l-0.07,0.03l0,0c-0.5,0.23-0.99,0.44-1.48,0.63
		c-0.5,0.19-1.04,0.4-1.58,0.57l-0.07,0.02v0.01c-0.55,0.18-1.06,0.32-1.55,0.45l-0.07,0.02l0,0c-0.49,0.12-0.98,0.22-1.51,0.33l0,0
		l-0.07,0.01c-0.57,0.11-1.13,0.19-1.66,0.26c-0.51,0.06-1.04,0.11-1.67,0.16l0,0c-0.54,0.03-1.11,0.06-1.68,0.06
		c-0.58,0-1.14-0.03-1.68-0.06l0,0c-0.64-0.05-1.17-0.1-1.67-0.16l-0.08-0.01l0,0c-0.49-0.06-1.03-0.15-1.59-0.25l-0.07-0.01
		l-2.2,11.54l-0.01,0.07l0.07,0.01c0.74,0.14,1.52,0.26,2.39,0.37l0.08,0.01l0,0c0.81,0.1,1.56,0.17,2.28,0.22l0,0h0.07h0.08l0,0
		c0.81,0.05,1.55,0.07,2.28,0.08l0,0h0.08h0.08l0,0c0.72,0,1.47-0.03,2.27-0.08l0,0h0.08h0.07l0,0c0.71-0.05,1.46-0.12,2.26-0.22
		l0,0l0.07-0.01l0.08-0.01l0,0c0.8-0.1,1.54-0.21,2.26-0.35l0,0l0.07-0.01c0.85-0.16,1.63-0.33,2.38-0.52l0.07-0.02l0,0
		c0.7-0.18,1.43-0.39,2.25-0.66l0.07-0.02v-0.01c0.64-0.21,1.32-0.46,2.15-0.77l0,0l0.07-0.03c0.01,0,0.01,0,0.01-0.01l0.05-0.02
		l0,0c0.77-0.31,1.5-0.62,2.16-0.93l0.07-0.03v-0.01c0.78-0.38,1.43-0.71,2.02-1.03l0,0l0.07-0.04l0.07-0.04l0,0
		c0.59-0.32,1.21-0.7,1.96-1.17l0,0l0.06-0.04l0.06-0.04l0,0c0.6-0.38,1.22-0.8,1.89-1.28v0.01l0.06-0.04
		c0.59-0.43,1.27-0.95,1.92-1.48l0.06-0.05l-0.01-0.01c0.53-0.45,1.09-0.94,1.7-1.51l0.01,0.01l0.05-0.05
		c0.57-0.53,1.13-1.09,1.66-1.66l0,0l0.05-0.05l0.05-0.05l0,0c0.59-0.64,1.11-1.22,1.56-1.76l0.05-0.06l-0.01-0.01
		c0.46-0.56,0.91-1.15,1.39-1.8l0,0l0.04-0.06l0.04-0.06l0,0c0.49-0.68,0.93-1.32,1.32-1.94l0.04-0.06h-0.01
		c0.47-0.75,0.85-1.38,1.17-1.97l0.01,0.01l0.04-0.07c0.34-0.62,0.68-1.28,1.06-2.09h0.01l0.03-0.07c0.35-0.76,0.67-1.49,0.96-2.23
		l0.03-0.07h-0.01c0.27-0.68,0.52-1.38,0.77-2.14h0.01l0.02-0.07c0.27-0.82,0.48-1.56,0.66-2.26l0,0l0.02-0.07l0.02-0.07l0,0
		c0.18-0.69,0.34-1.42,0.49-2.22h0.01l0.01-0.07c0.14-0.72,0.25-1.49,0.36-2.33l0,0V92.9c0-0.02,0.01-0.03,0.01-0.05l0.01-0.07l0,0
		c0.1-0.82,0.17-1.56,0.22-2.28l0,0v-0.07c0,0,0,0,0-0.01v-0.07l0,0c0.05-0.84,0.08-1.61,0.08-2.35v-0.1H457.12z"/>
	<path class="st6" d="M418.48,49.34c-0.74,0-1.51,0.03-2.35,0.08l0,0h-0.08h-0.07l0,0c-0.71,0.05-1.46,0.12-2.26,0.22l0,0
		l-0.07,0.01h-0.01l-0.07,0.01l0,0c-0.8,0.1-1.54,0.21-2.26,0.35l0,0l-0.07,0.01c-0.86,0.16-1.64,0.33-2.38,0.52l-0.07,0.02l0,0
		c-0.69,0.18-1.43,0.39-2.25,0.66l-0.07,0.02v0.01c-0.64,0.21-1.33,0.46-2.15,0.77l0,0l-0.07,0.03c0,0-0.01,0-0.01,0.01l-0.05,0.02
		l0,0c-0.77,0.31-1.5,0.62-2.16,0.93l-0.07,0.03v0.01c-0.78,0.38-1.43,0.71-2.02,1.03l0,0l-0.07,0.04l-0.07,0.04l0,0
		c-0.59,0.33-1.22,0.7-1.96,1.17l0,0l-0.06,0.04l-0.06,0.04l0,0c-0.6,0.38-1.22,0.8-1.88,1.28l0,0l-0.06,0.04
		c-0.01,0.01-0.02,0.02-0.03,0.02l-0.03,0.02l0,0c-0.56,0.41-1.2,0.89-1.8,1.39l0,0l-0.05,0.04l-0.01,0.01l-0.06,0.05l0,0
		c-0.53,0.44-1.09,0.94-1.7,1.51l0,0l-0.05,0.05l-0.06,0.05l0,0c-0.56,0.52-1.1,1.06-1.61,1.61l-0.01-0.01l-0.05,0.06
		c-0.63,0.68-1.14,1.25-1.61,1.81l-0.05,0.06l0.01,0.01c-0.46,0.56-0.91,1.15-1.39,1.8l0,0l-0.04,0.06l-0.04,0.06l0,0
		c-0.49,0.68-0.93,1.32-1.32,1.94l-0.04,0.06h0.01c-0.47,0.75-0.85,1.38-1.17,1.97l-0.01-0.01l-0.04,0.07
		c-0.35,0.64-0.7,1.33-1.1,2.16l-0.03,0.07h0.01c-0.33,0.71-0.62,1.39-0.89,2.08l0,0l-0.03,0.07c-0.28,0.7-0.54,1.43-0.8,2.22h-0.01
		l-0.02,0.07c-0.27,0.82-0.48,1.56-0.66,2.26l0,0l-0.02,0.07l-0.02,0.07l0,0c-0.18,0.69-0.34,1.42-0.49,2.23l0,0l-0.01,0.07l0,0
		l-0.01,0.07l0,0c-0.13,0.7-0.25,1.44-0.35,2.25l0,0l-0.01,0.07l-0.01,0.07l0,0c-0.1,0.81-0.17,1.55-0.22,2.27l0,0v0.07
		c0,0,0,0,0,0.01v0.07l0,0c-0.05,0.81-0.07,1.56-0.08,2.27l0,0v0.08v0.08l0,0c0,0.72,0.03,1.47,0.08,2.28l0,0v0.07
		c0,0.01,0,0.03,0,0.05v0.02l0,0c0.05,0.72,0.12,1.46,0.22,2.27l0,0v0.02c0,0.02,0,0.04,0.01,0.06l0.01,0.07l0,0
		c0.1,0.79,0.21,1.53,0.35,2.25l0,0l0.01,0.07c0.16,0.86,0.33,1.64,0.52,2.38l0.02,0.07l0,0c0.17,0.68,0.38,1.4,0.64,2.18l0,0
		l0.02,0.07l0.02,0.07l0,0c0.21,0.66,0.47,1.36,0.8,2.21l0.03,0.07h0.01c0.3,0.74,0.6,1.45,0.9,2.1l0,0l0.02,0.05
		c0,0.01,0.01,0.01,0.01,0.02l0.03,0.07l0,0c0.38,0.79,0.71,1.44,1.03,2.02l0,0l0.04,0.07c0.34,0.62,0.74,1.28,1.24,2.08l0.04,0.06
		l0.01-0.01c0.38,0.6,0.81,1.24,1.29,1.89h-0.01l0.04,0.06c0.42,0.57,0.91,1.23,1.44,1.86l0,0l0.05,0.06l0.01,0.01l0.04,0.05l0,0
		c0.44,0.52,0.94,1.08,1.51,1.7l-0.01,0.01l0.05,0.05c0.54,0.58,1.12,1.16,1.71,1.71l0.05,0.05l0.01-0.01
		c0.62,0.57,1.17,1.07,1.71,1.52l0,0l0.06,0.05l0.01,0.01l0.05,0.04l0,0c0.55,0.45,1.15,0.91,1.81,1.39l0,0l0.06,0.04l0.06,0.04l0,0
		c0.66,0.48,1.28,0.9,1.88,1.28l0,0l0.06,0.04l0.06,0.04l0,0c0.74,0.47,1.37,0.84,1.96,1.17l0,0l0.07,0.04l0.07,0.04l0,0
		c0.59,0.32,1.24,0.65,2.03,1.03l0,0l0.07,0.03l0,0l0.07,0.03l0,0c0.7,0.33,1.39,0.62,2.09,0.9v0.01l0.07,0.03
		c0.69,0.28,1.42,0.54,2.21,0.8l0,0l0.07,0.02l0.07,0.02l0,0c0.8,0.26,1.52,0.47,2.19,0.64v0.01l0.07,0.02
		c0.75,0.19,1.52,0.36,2.38,0.52l0.07,0.01l2.2-11.54l0.01-0.07l-0.07-0.01c-0.52-0.1-1.07-0.21-1.59-0.34v-0.01l-0.07-0.02
		c-0.52-0.12-1.04-0.28-1.6-0.46h-0.01c-0.52-0.16-1.02-0.35-1.51-0.54l0,0l-0.07-0.03c-0.58-0.23-1.09-0.45-1.55-0.67
		c-0.45-0.21-0.91-0.45-1.51-0.77l0,0c-0.44-0.24-0.9-0.51-1.45-0.86h-0.01c-0.42-0.28-0.9-0.59-1.34-0.92l-0.03-0.02
		c-0.42-0.3-0.86-0.64-1.34-1.03c-0.45-0.37-0.87-0.76-1.26-1.13l-0.05-0.05l0,0c-0.36-0.35-0.73-0.71-1.08-1.08l0,0l-0.05-0.05
		c-0.42-0.44-0.79-0.85-1.13-1.26l-0.01-0.02c-0.31-0.38-0.62-0.78-0.97-1.27l0,0l-0.04-0.06c-0.37-0.5-0.68-0.96-0.95-1.38
		l-0.04-0.06h-0.01c-0.26-0.42-0.52-0.86-0.78-1.31l0,0l-0.04-0.07c-0.25-0.46-0.5-0.93-0.77-1.51l-0.02-0.04
		c-0.21-0.46-0.43-0.95-0.65-1.52l-0.03-0.07h-0.01c-0.19-0.49-0.37-1-0.54-1.52v-0.01c-0.19-0.58-0.34-1.11-0.47-1.61l-0.01-0.06
		c-0.13-0.52-0.24-1.02-0.33-1.53l0,0l-0.02-0.07c-0.1-0.47-0.18-0.98-0.26-1.65l-0.01-0.07l0,0c-0.06-0.47-0.12-1.02-0.15-1.59
		v-0.01c-0.04-0.57-0.06-1.12-0.06-1.68s0.02-1.12,0.06-1.67v-0.07c0.03-0.58,0.1-1.14,0.15-1.62c0.08-0.63,0.16-1.12,0.25-1.58l0,0
		l0.01-0.07c0.1-0.55,0.21-1.09,0.36-1.65l0,0c0.12-0.46,0.27-0.97,0.45-1.55h0.01l0.02-0.07c0.16-0.51,0.35-1.01,0.54-1.51l0,0
		l0.03-0.07c0.23-0.58,0.45-1.09,0.67-1.56l0.03-0.07l0,0c0.26-0.54,0.48-0.97,0.7-1.36h0.01l0.04-0.07
		c0.24-0.45,0.52-0.92,0.86-1.44l0.04-0.06l0,0c0.3-0.46,0.6-0.91,0.91-1.33l0.04-0.06l0,0c0.3-0.41,0.62-0.83,0.98-1.28l0.05-0.06
		l0,0c0.3-0.35,0.64-0.73,1.03-1.14h0.01l0.05-0.06c0.38-0.41,0.78-0.81,1.19-1.19l0,0c0.38-0.36,0.8-0.75,1.25-1.12l0.02-0.01
		c0.38-0.32,0.8-0.64,1.32-1.01l0.02-0.01c0.43-0.32,0.9-0.63,1.37-0.94c0.56-0.35,1.02-0.62,1.45-0.86l0,0
		c0.58-0.31,1.06-0.56,1.51-0.77l0.07-0.03l0,0c0.45-0.21,0.94-0.41,1.48-0.63c0.51-0.21,1.05-0.4,1.58-0.57l0.07-0.02v-0.01
		c0.56-0.18,1.07-0.33,1.55-0.45l0.06-0.02c0.49-0.12,0.99-0.23,1.48-0.32l0.04-0.01l0,0l0.07-0.01c0.58-0.11,1.14-0.19,1.65-0.26
		h0.01c0.64-0.08,1.14-0.13,1.6-0.15l0,0l0.08-0.01c0.56-0.04,1.11-0.06,1.69-0.06h0.08v-11.8L418.48,49.34L418.48,49.34z"/>
</g>
<g>
	<path class="st6" d="M418.48,162.73c-0.75,0-1.52,0.03-2.35,0.08l0,0h-0.08h-0.07l0,0c-0.71,0.05-1.46,0.12-2.26,0.22l0,0
		l-0.07,0.01h-0.01l-0.07,0.01l0,0c-0.8,0.1-1.54,0.22-2.26,0.35l0,0l-0.07,0.01c-0.86,0.16-1.63,0.33-2.38,0.52l-0.07,0.02l0,0
		c-0.68,0.17-1.39,0.38-2.18,0.64l0,0l-0.07,0.02l-0.07,0.02l0,0c-0.65,0.21-1.36,0.47-2.21,0.8l-0.07,0.03v0.01
		c-0.76,0.31-1.49,0.62-2.17,0.93l-0.07,0.03v0.01c-0.78,0.38-1.43,0.71-2.02,1.03v-0.01l-0.07,0.04c-0.62,0.34-1.29,0.74-2.08,1.24
		l-0.06,0.04l0.01,0.01c-0.6,0.38-1.23,0.81-1.88,1.28l0,0l-0.06,0.04c-0.01,0.01-0.02,0.02-0.03,0.02l-0.03,0.02l0,0
		c-0.56,0.41-1.2,0.89-1.8,1.39l0,0l-0.05,0.04l-0.01,0.01l-0.06,0.05l0,0c-0.53,0.44-1.08,0.94-1.7,1.51l-0.01-0.01l-0.05,0.05
		c-0.58,0.54-1.14,1.1-1.67,1.67l0,0l-0.05,0.05c-0.01,0.01-0.03,0.03-0.04,0.04l0,0l0,0c-0.6,0.64-1.11,1.22-1.57,1.77l-0.05,0.06
		l0.01,0.01c-0.46,0.56-0.92,1.15-1.39,1.8l0,0l-0.04,0.06l-0.04,0.06l0,0c-0.48,0.66-0.9,1.28-1.28,1.88l0,0l-0.04,0.06l-0.04,0.06
		l0,0c-0.47,0.75-0.85,1.38-1.17,1.97h-0.01l-0.04,0.07c-0.35,0.64-0.7,1.32-1.1,2.16l-0.03,0.07h0.01
		c-0.33,0.71-0.62,1.39-0.89,2.08l0,0l-0.03,0.07c-0.29,0.72-0.56,1.47-0.82,2.29l-0.02,0.07l11.24,3.66l0.02-0.07
		c0.16-0.52,0.35-1.02,0.54-1.51l0,0l0.03-0.07c0.23-0.58,0.45-1.09,0.67-1.56l0.03-0.07l0,0c0.26-0.54,0.48-0.98,0.7-1.37l0,0
		l0.04-0.07c0.23-0.42,0.5-0.86,0.84-1.42l0.01-0.02c0.31-0.48,0.63-0.95,0.95-1.39l0.04-0.06l0,0c0.34-0.48,0.67-0.9,0.98-1.28
		l0.05-0.06l0,0c0.31-0.36,0.66-0.75,1.06-1.18l0.02-0.03c0.36-0.38,0.74-0.76,1.13-1.13l0,0l0.05-0.05
		c0.39-0.37,0.81-0.76,1.26-1.13l0.02-0.01c0.38-0.32,0.8-0.64,1.32-1.01l0.02-0.01c0.43-0.32,0.89-0.63,1.37-0.94l0.06-0.04v-0.01
		c0.48-0.29,0.89-0.54,1.32-0.78v0.01l0.07-0.04c0.45-0.25,0.93-0.5,1.51-0.77l0.07-0.03l0,0c0.45-0.2,0.93-0.41,1.48-0.63
		l0.07-0.03v-0.01c0.49-0.19,1-0.37,1.52-0.54h0.01c0.58-0.19,1.11-0.34,1.61-0.47l0.05-0.01c0.49-0.12,1.01-0.24,1.53-0.33l0,0
		l0.07-0.02c0.45-0.09,0.94-0.17,1.58-0.25l0,0l0.08-0.01c0.64-0.08,1.14-0.13,1.6-0.15l0,0l0.08-0.01
		c0.56-0.04,1.11-0.06,1.69-0.06h0.08v-11.82h-0.14L418.48,162.73L418.48,162.73z"/>
	<path class="st7" d="M457.12,201.29h-0.01c0-0.72-0.03-1.46-0.08-2.27h0.01v-0.07c-0.05-0.73-0.12-1.5-0.22-2.34l0,0l-0.01-0.07
		l-0.01-0.07l0,0c-0.1-0.8-0.21-1.54-0.35-2.26l0,0l-0.01-0.07c-0.16-0.86-0.33-1.64-0.52-2.38l-0.02-0.07h-0.01
		c-0.17-0.68-0.38-1.4-0.64-2.18l0,0l-0.02-0.07l-0.02-0.07l0,0c-0.21-0.66-0.47-1.36-0.8-2.21l-0.03-0.07h-0.01
		c-0.3-0.74-0.6-1.44-0.9-2.09h0.01l-0.03-0.07c-0.4-0.84-0.75-1.53-1.1-2.16l-0.04-0.07h-0.01c-0.33-0.6-0.71-1.24-1.2-2.01
		l-0.04-0.06l0,0c-0.39-0.61-0.81-1.23-1.29-1.89l0,0l-0.04-0.06l-0.01-0.01l-0.03-0.05l0,0c-0.41-0.55-0.88-1.18-1.39-1.8l0,0
		l-0.05-0.06l-0.01-0.01l-0.04-0.05l0,0c-0.44-0.52-0.94-1.08-1.51-1.7l0.01-0.01l-0.05-0.05c-0.53-0.57-1.09-1.13-1.67-1.66
		l0.01-0.01l-0.06-0.05c-0.67-0.63-1.25-1.14-1.81-1.61l-0.06-0.05l-0.01,0.01c-0.55-0.45-1.14-0.91-1.8-1.39v-0.01l-0.06-0.04
		c-0.71-0.51-1.36-0.96-2-1.36l-0.06-0.04v0.01c-0.75-0.47-1.38-0.85-1.97-1.17v-0.01l-0.07-0.04c-0.64-0.35-1.32-0.7-2.16-1.1
		l-0.07-0.03v0.01c-0.71-0.33-1.39-0.62-2.08-0.9l0,0l-0.07-0.03c-0.69-0.28-1.42-0.54-2.22-0.8v-0.01l-0.07-0.02
		c-0.82-0.27-1.56-0.48-2.26-0.66l0,0l-0.07-0.02l-0.07-0.02l0,0c-0.69-0.18-1.42-0.34-2.22-0.49l0,0l-0.07-0.01
		c-0.73-0.14-1.52-0.26-2.39-0.37l-0.08-0.01l0,0c-0.81-0.1-1.56-0.17-2.28-0.22l0,0h-0.07h-0.08l0,0
		c-0.82-0.05-1.61-0.08-2.35-0.08h-0.08v11.82h0.08c0.56,0,1.13,0.02,1.68,0.06l0.08,0.01l0,0c0.46,0.03,0.96,0.07,1.6,0.15
		l0.08,0.01l0,0c0.43,0.05,0.96,0.13,1.51,0.24l0,0l0.08,0.01c0.56,0.1,1.1,0.22,1.65,0.36c0.48,0.12,0.99,0.27,1.55,0.45v0.01
		l0.07,0.02c0.51,0.16,1.02,0.34,1.51,0.54l0,0l0.07,0.03c0.53,0.21,1.04,0.42,1.55,0.67l0.07,0.03v-0.01
		c0.42,0.2,0.89,0.44,1.37,0.7v0.01l0.07,0.04c0.43,0.24,0.89,0.51,1.45,0.86l0.06,0.04l0,0c0.44,0.29,0.86,0.58,1.26,0.86l0,0
		l0.06,0.04c0.52,0.38,0.95,0.7,1.34,1.03l0.06,0.05l0.01-0.01c0.3,0.26,0.6,0.53,0.89,0.8l0.26,0.24l0,0l0.06,0.05
		c0.42,0.39,0.8,0.78,1.13,1.13l-0.01,0.01l0.05,0.05c0.36,0.37,0.72,0.77,1.13,1.26l0.01,0.01c0.32,0.38,0.65,0.81,1.01,1.31
		l0.01,0.02c0.32,0.44,0.64,0.91,0.95,1.39l0.04,0.06l0,0c0.32,0.51,0.59,0.96,0.82,1.39l0.04,0.07l0,0
		c0.25,0.47,0.48,0.92,0.69,1.35l0,0l0.03,0.07c0.24,0.49,0.46,1,0.67,1.55l0.03,0.07h0.01c0.19,0.49,0.37,1,0.54,1.52v0.01
		c0.2,0.64,0.34,1.13,0.47,1.6l0.02,0.07h0.01c0.12,0.53,0.23,1.03,0.33,1.51l0,0l0.01,0.07c0.11,0.58,0.19,1.13,0.26,1.66
		c0.06,0.48,0.11,1,0.15,1.6h-0.01v0.08c0.04,0.57,0.06,1.12,0.06,1.68v0.08h0.01c-0.01,0.53-0.03,1.05-0.06,1.61l0,0
		c-0.04,0.65-0.1,1.18-0.16,1.68l-0.01,0.07l0,0c-0.06,0.47-0.14,0.97-0.24,1.51h-0.01l-0.01,0.08c-0.1,0.56-0.21,1.1-0.36,1.65
		c-0.13,0.5-0.28,1.01-0.45,1.55h-0.01l-0.02,0.07c-0.17,0.54-0.36,1.07-0.57,1.58l-0.03,0.07l0,0c-0.21,0.53-0.41,1.01-0.63,1.46
		l-0.01,0.01c-0.23,0.48-0.48,0.97-0.74,1.44h-0.01l-0.04,0.07c-0.26,0.5-0.55,0.98-0.86,1.44l-0.04,0.06l0,0
		c-0.24,0.37-0.51,0.77-0.86,1.26l0,0l-0.04,0.06c-0.37,0.51-0.7,0.95-1.03,1.34l-0.05,0.06l0.01,0.01c-0.3,0.34-0.67,0.77-1.08,1.2
		c-0.33,0.34-0.72,0.74-1.13,1.14l-0.01-0.01l-0.05,0.05c-0.42,0.41-0.83,0.78-1.25,1.13l-0.06,0.05l0.01,0.01
		c-0.4,0.32-0.82,0.63-1.22,0.94l0,0l-0.06,0.04c-0.46,0.33-0.95,0.66-1.38,0.94h-0.01c-0.56,0.35-1.02,0.62-1.45,0.86l0,0
		c-0.59,0.32-1.06,0.56-1.51,0.77l-0.07,0.03l0,0c-0.5,0.23-0.99,0.44-1.48,0.63c-0.47,0.18-1.03,0.39-1.58,0.57l-0.07,0.02v0.01
		l-0.2,0.06c-0.44,0.13-0.89,0.27-1.34,0.39l-0.06,0.01c-0.53,0.12-1.03,0.23-1.53,0.33l-0.06,0.01c-0.58,0.11-1.13,0.19-1.65,0.26
		h-0.01c-0.5,0.06-1.04,0.11-1.67,0.16l0,0c-0.54,0.03-1.11,0.06-1.68,0.06c-0.58,0-1.14-0.03-1.68-0.06l0,0
		c-0.64-0.05-1.17-0.1-1.67-0.16l-0.08-0.01l0,0c-0.47-0.06-0.98-0.14-1.52-0.24l-0.06-0.01c-0.56-0.11-1.09-0.23-1.59-0.34v-0.01
		l-0.07-0.02c-0.52-0.12-1.03-0.28-1.54-0.45l0,0l-0.07-0.02c-0.53-0.17-1.05-0.36-1.51-0.54l0,0l-0.07-0.03
		c-0.58-0.23-1.09-0.45-1.55-0.67c-0.45-0.21-0.91-0.45-1.51-0.77l0,0c-0.43-0.24-0.89-0.51-1.45-0.86h-0.01
		c-0.42-0.27-0.88-0.58-1.32-0.9v-0.01l-0.06-0.04c-0.53-0.38-0.95-0.7-1.34-1.03l-0.06-0.05v0.01c-0.39-0.34-0.79-0.69-1.19-1.07
		l-0.05-0.05l0,0c-0.37-0.35-0.73-0.72-1.09-1.09l0.01-0.01l-0.05-0.05c-0.41-0.42-0.79-0.84-1.13-1.26l-0.05-0.06l0,0
		c-0.29-0.36-0.59-0.75-0.93-1.22l0,0l-0.04-0.06c-0.37-0.5-0.68-0.96-0.95-1.39l-0.04-0.06h-0.01c-0.26-0.42-0.52-0.86-0.78-1.32
		h0.01l-0.04-0.07c-0.3-0.53-0.57-1.08-0.77-1.5l-0.03-0.07l0,0c-0.21-0.45-0.42-0.93-0.63-1.48l-0.03-0.07h-0.01
		c-0.19-0.49-0.37-1-0.54-1.52v-0.01c-0.19-0.58-0.34-1.11-0.47-1.61l-0.01-0.05c-0.13-0.52-0.24-1.02-0.33-1.53l0,0l-0.02-0.07
		c-0.12-0.59-0.2-1.19-0.26-1.65c-0.06-0.45-0.13-1.05-0.16-1.67v-0.01c-0.04-0.57-0.06-1.12-0.06-1.68s0.02-1.12,0.06-1.68v-0.01
		c0.03-0.6,0.1-1.18,0.16-1.67l0.01-0.07l0,0c0.06-0.43,0.13-0.97,0.24-1.51l0,0l0.01-0.07c0.1-0.55,0.21-1.09,0.36-1.65
		c0.15-0.58,0.32-1.14,0.47-1.62l0.02-0.07l-11.17-3.63l-0.07-0.02l-0.02,0.07c-0.27,0.82-0.48,1.56-0.66,2.26l0,0l-0.02,0.07
		l-0.02,0.07l0,0c-0.18,0.69-0.34,1.42-0.49,2.22l0,0l-0.01,0.07c0,0.02-0.01,0.05-0.01,0.07v0.01l0,0
		c-0.13,0.7-0.25,1.44-0.35,2.25l0,0v0.01c0,0.02-0.01,0.04-0.01,0.06l-0.01,0.07l0,0c-0.1,0.81-0.17,1.56-0.22,2.28l0,0v0.07
		c0,0,0,0,0,0.01v0.07l0,0c-0.05,0.81-0.07,1.56-0.08,2.27l0,0v0.08v0.08l0,0c0,0.72,0.03,1.47,0.08,2.27l0,0v0.07c0,0,0,0,0,0.01
		v0.07l0,0c0.05,0.72,0.12,1.46,0.22,2.27l0,0l0.01,0.07l0.01,0.07l0,0c0.1,0.79,0.21,1.53,0.35,2.26l0,0l0.01,0.07
		c0.16,0.86,0.33,1.64,0.52,2.38l0.02,0.07l0,0c0.17,0.68,0.38,1.4,0.64,2.18l0,0l0.02,0.07l0.02,0.07l0,0
		c0.21,0.66,0.47,1.36,0.8,2.21l0.03,0.07h0.01c0.31,0.77,0.62,1.5,0.93,2.17l0.03,0.07h0.01c0.39,0.8,0.71,1.43,1.03,2.02h-0.01
		l0.04,0.07c0.34,0.62,0.74,1.28,1.24,2.08l0.04,0.06l0.01-0.01c0.39,0.61,0.81,1.23,1.29,1.89h-0.01l0.04,0.06
		c0.43,0.58,0.94,1.26,1.48,1.92l0.05,0.06l0.01-0.01c0.44,0.53,0.94,1.08,1.51,1.7l-0.01,0.01l0.05,0.05
		c0.55,0.59,1.12,1.17,1.71,1.71l0.05,0.05l0.01-0.01c0.64,0.59,1.22,1.11,1.76,1.57l0.06,0.05l0.01-0.01
		c0.55,0.45,1.15,0.91,1.8,1.39l-0.01,0.01l0.06,0.04c0.67,0.49,1.33,0.93,1.94,1.32l0,0l0.06,0.04l0.06,0.04l0,0
		c0.74,0.47,1.37,0.84,1.96,1.17l0,0l0.07,0.04l0.07,0.04l0,0c0.59,0.32,1.24,0.65,2.03,1.03l0,0l0.07,0.03l0,0l0.07,0.03l0,0
		c0.71,0.33,1.4,0.62,2.09,0.9l0,0l0.07,0.03c0.69,0.28,1.42,0.54,2.21,0.8l0,0l0.07,0.02l0.07,0.02l0,0
		c0.8,0.26,1.52,0.47,2.19,0.64v0.01l0.07,0.02c0.72,0.18,1.47,0.35,2.29,0.5l0,0l0.07,0.01c0.73,0.14,1.52,0.26,2.39,0.37
		l0.08,0.01l0,0c0.81,0.1,1.56,0.17,2.28,0.22l0,0h0.07h0.08l0,0c0.8,0.05,1.55,0.07,2.28,0.08l0,0h0.08h0.08l0,0
		c0.72,0,1.48-0.03,2.27-0.08l0,0h0.08h0.07l0,0c0.71-0.05,1.46-0.12,2.26-0.22l0,0l0.07-0.01h0.01l0.07-0.01l0,0
		c0.8-0.1,1.54-0.22,2.26-0.35l0,0l0.07-0.01c0.86-0.16,1.63-0.33,2.38-0.52l0.07-0.02l0,0c0.7-0.18,1.43-0.39,2.25-0.66l0.07-0.02
		v-0.01c0.64-0.21,1.33-0.46,2.15-0.77l0,0l0.07-0.03c0,0,0.01,0,0.01-0.01l0.05-0.02l0,0c0.76-0.31,1.49-0.62,2.16-0.93l0.07-0.03
		v-0.01c0.78-0.38,1.43-0.71,2.02-1.03l0,0l0.07-0.04l0.07-0.04l0,0c0.59-0.32,1.21-0.7,1.96-1.17l0,0l0.06-0.04l0.06-0.04l0,0
		c0.6-0.38,1.23-0.81,1.89-1.28v0.01l0.06-0.04c0.62-0.46,1.28-0.96,1.92-1.48l0.06-0.05l-0.01-0.01c0.53-0.44,1.09-0.94,1.7-1.51
		l0.01,0.01l0.05-0.05c0.57-0.53,1.13-1.09,1.66-1.66l0,0l0.05-0.05l0.05-0.05l0,0c0.59-0.64,1.11-1.22,1.56-1.76l0.05-0.06
		l-0.01-0.01c0.46-0.56,0.91-1.15,1.39-1.8h0.01l0.04-0.06c0.51-0.71,0.96-1.36,1.36-2l0.04-0.06h-0.01
		c0.47-0.75,0.85-1.38,1.17-1.97l0.01,0.01l0.04-0.07c0.34-0.62,0.68-1.29,1.07-2.1l0,0l0.03-0.07c0-0.01,0.01-0.01,0.01-0.02
		l0.02-0.05l0,0c0.34-0.74,0.65-1.45,0.93-2.17l0.03-0.07h-0.01c0.27-0.67,0.52-1.37,0.77-2.13h0.01l0.02-0.07
		c0.27-0.82,0.48-1.56,0.66-2.26l0,0l0.02-0.07l0.02-0.07l0,0c0.18-0.69,0.34-1.42,0.49-2.22h0.01l0.01-0.07
		c0.14-0.72,0.25-1.49,0.36-2.33l0,0v-0.01c0-0.02,0.01-0.03,0.01-0.05l0.01-0.07l0,0c0.1-0.82,0.17-1.56,0.22-2.28l0,0v-0.07
		c0,0,0,0,0-0.01v-0.07l0,0c0.05-0.84,0.08-1.61,0.08-2.35v-0.09L457.12,201.29L457.12,201.29z"/>
</g>
<g>
	<path class="st7" d="M430.42,278.01c-0.82-0.27-1.56-0.48-2.26-0.66l0,0l-0.07-0.02l-0.07-0.02l0,0c-0.7-0.18-1.43-0.34-2.22-0.49
		l0,0l-0.07-0.01c-0.74-0.14-1.52-0.26-2.39-0.37l-0.08-0.01l0,0c-0.81-0.1-1.56-0.17-2.28-0.22l0,0h-0.07h-0.08l0,0
		c-0.83-0.05-1.6-0.08-2.35-0.08h-0.08v11.82h0.08c0.58,0,1.13,0.02,1.68,0.06h0.01c0.49,0.03,1,0.08,1.67,0.16l0.08,0.01l0,0
		c0.43,0.06,0.97,0.13,1.51,0.24l0,0l0.08,0.01c0.56,0.1,1.1,0.22,1.65,0.36c0.5,0.13,1.03,0.28,1.62,0.47l0.07,0.02l3.63-11.17
		l0.02-0.07L430.42,278.01z"/>
	<path class="st6" d="M457.12,314.68h-0.01c0-0.72-0.03-1.46-0.08-2.27h0.01v-0.08c-0.05-0.73-0.12-1.5-0.22-2.34l0,0l-0.01-0.07
		l-0.01-0.08l0,0c-0.1-0.8-0.21-1.54-0.35-2.26l0,0l-0.01-0.07c-0.16-0.86-0.33-1.64-0.52-2.38l-0.02-0.07h-0.01
		c-0.17-0.68-0.38-1.4-0.64-2.18l0,0l-0.02-0.07l-0.02-0.07l0,0c-0.22-0.66-0.47-1.36-0.8-2.21l-0.03-0.07h-0.01
		c-0.3-0.74-0.6-1.44-0.9-2.09h0.01l-0.03-0.07c-0.39-0.82-0.73-1.48-1.07-2.1l0,0l-0.04-0.07l-0.04-0.07l0,0
		c-0.33-0.6-0.71-1.23-1.21-2.02l-0.04-0.06l-0.01,0.01c-0.38-0.6-0.8-1.22-1.28-1.88l0,0l-0.04-0.06
		c-0.01-0.01-0.02-0.02-0.02-0.03l-0.02-0.03l0,0c-0.41-0.55-0.89-1.19-1.39-1.8l0,0l-0.05-0.06l-0.05-0.06l0,0
		c-0.44-0.53-0.93-1.07-1.51-1.7l0.01-0.01l-0.05-0.05c-0.53-0.57-1.09-1.13-1.67-1.67l0.01-0.01l-0.06-0.05
		c-0.66-0.61-1.25-1.14-1.81-1.61l-0.06-0.05l-0.01,0.01c-0.55-0.45-1.14-0.91-1.8-1.39v-0.01l-0.06-0.04
		c-0.71-0.51-1.37-0.96-2-1.36l-0.06-0.04v0.01c-0.75-0.47-1.38-0.85-1.97-1.17v-0.01l-0.07-0.04c-0.63-0.34-1.31-0.69-2.16-1.1
		l-0.07-0.03l-0.01,0.01c-0.7-0.33-1.39-0.62-2.08-0.9v-0.01l-0.07-0.03c-0.71-0.29-1.46-0.55-2.28-0.82l-0.07-0.02l-3.63,11.17
		l-0.02,0.07l0.07,0.02c0.51,0.16,1.02,0.34,1.51,0.54l0,0l0.07,0.03c0.55,0.2,1.07,0.44,1.55,0.67l0.07,0.03v-0.01
		c0.42,0.2,0.89,0.44,1.37,0.7v0.01l0.07,0.04c0.49,0.26,0.98,0.56,1.44,0.86l0.06,0.04l0,0c0.44,0.29,0.87,0.58,1.26,0.86l0,0
		l0.06,0.04c0.53,0.38,0.95,0.7,1.34,1.03l0.06,0.05l0.01-0.01c0.3,0.26,0.61,0.54,0.9,0.8l0.25,0.23l0,0l0.06,0.05
		c0.41,0.38,0.8,0.78,1.13,1.13l-0.01,0.01l0.05,0.05c0.41,0.42,0.78,0.83,1.13,1.25c0.33,0.39,0.66,0.83,1.03,1.34
		c0.32,0.44,0.64,0.91,0.95,1.39l0.04,0.06h0.01c0.33,0.54,0.59,0.96,0.81,1.36l0.01,0.02c0.27,0.49,0.51,0.97,0.73,1.43l0,0
		l0.03,0.07c0.24,0.5,0.46,1,0.67,1.56l0.03,0.07h0.01c0.19,0.49,0.37,1,0.54,1.52c0.18,0.57,0.34,1.1,0.47,1.62l0.02,0.07h0.01
		c0.11,0.47,0.22,0.98,0.33,1.51l0,0l0.01,0.07c0.11,0.57,0.19,1.13,0.26,1.66c0.06,0.48,0.11,1,0.15,1.6h-0.01v0.08
		c0.04,0.57,0.06,1.12,0.06,1.68v0.08h0.01c-0.01,0.52-0.03,1.05-0.06,1.61l0,0c-0.04,0.65-0.1,1.18-0.16,1.67l-0.01,0.08l0,0
		c-0.06,0.47-0.14,0.97-0.24,1.51h-0.01l-0.01,0.08c-0.1,0.56-0.21,1.1-0.36,1.65c-0.13,0.5-0.28,1-0.45,1.55H444l-0.02,0.07
		c-0.17,0.54-0.36,1.07-0.57,1.58l-0.03,0.07l0,0c-0.19,0.49-0.4,0.97-0.63,1.47v0.01c-0.22,0.45-0.47,0.94-0.73,1.43h-0.01
		l-0.04,0.07c-0.24,0.45-0.52,0.92-0.86,1.44l-0.04,0.06l0,0c-0.28,0.43-0.57,0.86-0.86,1.26l0,0l-0.04,0.06
		c-0.37,0.51-0.7,0.95-1.03,1.34l-0.05,0.06l0.01,0.01c-0.33,0.38-0.66,0.75-1.06,1.18l-0.02,0.02c-0.36,0.38-0.74,0.75-1.13,1.13
		l-0.01-0.01l-0.05,0.05c-0.42,0.41-0.83,0.78-1.25,1.13l-0.06,0.05l0,0c-0.35,0.28-0.73,0.58-1.22,0.93l0,0l-0.06,0.04
		c-0.44,0.33-0.91,0.64-1.39,0.95l-0.06,0.04v0.01c-0.52,0.33-0.96,0.59-1.37,0.81l-0.01,0.01c-0.5,0.27-1,0.52-1.43,0.73l0,0
		l-0.07,0.03c-0.46,0.21-1,0.46-1.56,0.67l-0.07,0.03v0.01c-0.5,0.19-1.01,0.38-1.52,0.55h-0.01c-0.58,0.19-1.11,0.34-1.6,0.46
		l-0.07,0.02v0.01c-0.53,0.12-1.03,0.23-1.52,0.33l-0.06,0.01c-0.57,0.11-1.13,0.19-1.66,0.26h-0.01c-0.48,0.06-1,0.11-1.59,0.15
		v-0.01h-0.08c-0.57,0.04-1.12,0.06-1.68,0.06h-0.08v0.01c-0.53-0.01-1.06-0.03-1.61-0.06l0,0c-0.63-0.04-1.18-0.1-1.68-0.16
		l-0.07-0.01l0,0c-0.47-0.06-0.98-0.14-1.51-0.24v-0.01l-0.08-0.01c-0.58-0.1-1.13-0.22-1.65-0.36c-0.48-0.12-0.99-0.27-1.55-0.45
		v-0.01l-0.07-0.02c-0.53-0.17-1.07-0.36-1.58-0.57l-0.07-0.03l0,0c-0.54-0.22-1.02-0.42-1.46-0.63l-0.01-0.01
		c-0.43-0.21-0.93-0.46-1.45-0.74v-0.01l-0.07-0.04c-0.45-0.24-0.92-0.52-1.44-0.86l-0.02-0.01c-0.47-0.3-0.93-0.61-1.37-0.94
		l-0.06-0.04l0,0c-0.49-0.36-0.9-0.67-1.28-0.98l-0.06-0.05l0,0c-0.4-0.34-0.79-0.69-1.19-1.07l-0.05-0.05l0,0
		c-0.36-0.35-0.73-0.71-1.09-1.09l0.01-0.01l-0.05-0.05c-0.37-0.39-0.76-0.81-1.13-1.26l-0.05-0.06l0,0
		c-0.29-0.36-0.59-0.75-0.94-1.22l0,0l-0.04-0.06c-0.32-0.43-0.64-0.9-0.95-1.39l-0.04-0.06h-0.01c-0.26-0.43-0.53-0.87-0.78-1.32
		h0.01l-0.04-0.07c-0.25-0.45-0.5-0.93-0.77-1.5l-0.03-0.07l0,0c-0.23-0.5-0.44-0.99-0.64-1.48l-0.03-0.07h-0.01
		c-0.19-0.49-0.37-1-0.54-1.52v-0.01c-0.19-0.58-0.34-1.1-0.47-1.6l-0.01-0.05c-0.13-0.52-0.24-1.02-0.33-1.53l0,0l-0.02-0.07
		c-0.12-0.59-0.2-1.19-0.26-1.66v-0.02c-0.06-0.46-0.12-1.06-0.16-1.65v-0.01c-0.04-0.57-0.06-1.12-0.06-1.69s0.02-1.12,0.06-1.68
		V313c0.03-0.6,0.1-1.18,0.16-1.67l0.01-0.07l0,0c0.06-0.45,0.13-0.98,0.24-1.51l0,0l0.01-0.08c0.1-0.57,0.22-1.13,0.36-1.65
		c0.12-0.48,0.27-0.99,0.45-1.55h0.01l0.02-0.07c0.16-0.52,0.35-1.02,0.54-1.51l0,0l0.03-0.07c0.23-0.58,0.45-1.09,0.67-1.56
		l0.03-0.07h-0.01c0.21-0.44,0.45-0.9,0.7-1.37l0,0l0.04-0.07c0.24-0.43,0.5-0.87,0.86-1.45c0.31-0.48,0.62-0.94,0.95-1.39
		l0.04-0.06l0,0c0.35-0.48,0.67-0.9,0.98-1.28l0.05-0.06l0,0c0.36-0.42,0.73-0.83,1.07-1.19l0.02-0.02
		c0.36-0.38,0.74-0.76,1.13-1.13l0,0l0.05-0.05c0.39-0.37,0.81-0.76,1.26-1.13c0.37-0.31,0.78-0.63,1.28-0.98l0,0l0.06-0.04
		c0.43-0.32,0.9-0.64,1.39-0.95l0.06-0.04v-0.01l0.23-0.14c0.35-0.21,0.72-0.43,1.08-0.64v0.01l0.07-0.04
		c0.45-0.25,0.93-0.5,1.51-0.77l0.07-0.03l0,0c0.44-0.2,0.95-0.43,1.48-0.63l0.07-0.03v-0.01c0.48-0.18,0.99-0.37,1.52-0.55h0.01
		c0.58-0.19,1.11-0.34,1.6-0.46l0.06-0.01c0.49-0.12,1-0.23,1.52-0.33l0,0l0.07-0.02c0.59-0.12,1.19-0.2,1.66-0.26
		c0.66-0.08,1.19-0.13,1.67-0.16h0.01c0.56-0.04,1.11-0.06,1.69-0.06h0.08v-11.82h-0.08c-0.75,0-1.52,0.03-2.35,0.08l0,0h-0.08
		h-0.07l0,0c-0.71,0.05-1.46,0.12-2.26,0.22l0,0l-0.07,0.01l-0.08,0.01l0,0c-0.8,0.1-1.54,0.21-2.26,0.35l0,0l-0.07,0.01
		c-0.85,0.16-1.63,0.33-2.38,0.52l-0.07,0.02l0,0c-0.68,0.17-1.39,0.38-2.18,0.64l0,0l-0.07,0.02l-0.07,0.02l0,0
		c-0.66,0.22-1.36,0.47-2.21,0.8l-0.07,0.03v0.01c-0.77,0.31-1.5,0.62-2.17,0.93l-0.07,0.03v0.01c-0.78,0.38-1.43,0.71-2.02,1.03
		v-0.01l-0.07,0.04c-0.62,0.34-1.29,0.74-2.08,1.24l-0.06,0.04l0.01,0.01c-0.6,0.38-1.22,0.8-1.88,1.28l0,0l-0.06,0.04
		c-0.01,0.01-0.02,0.02-0.03,0.02l-0.03,0.02l0,0c-0.55,0.41-1.19,0.89-1.8,1.39l0,0l-0.05,0.04l-0.01,0.01l-0.06,0.05l0,0
		c-0.52,0.44-1.08,0.94-1.7,1.51l-0.01-0.01l-0.05,0.05c-0.58,0.54-1.14,1.1-1.67,1.67l0,0l-0.05,0.06
		c-0.01,0.02-0.03,0.03-0.04,0.04l0,0l0,0c-0.61,0.65-1.11,1.22-1.57,1.77l-0.05,0.06l0.01,0.01c-0.45,0.56-0.91,1.15-1.39,1.8l0,0
		l-0.04,0.06l-0.04,0.06l0,0c-0.48,0.66-0.9,1.28-1.28,1.88l0,0l-0.04,0.06l-0.04,0.06l0,0c-0.48,0.76-0.84,1.37-1.17,1.96h-0.01
		l-0.04,0.07c-0.35,0.63-0.7,1.32-1.1,2.16l-0.03,0.07h0.01c-0.33,0.71-0.62,1.4-0.9,2.08h-0.01l-0.03,0.07
		c-0.28,0.7-0.54,1.42-0.8,2.22h-0.01l-0.02,0.07c-0.27,0.82-0.48,1.56-0.66,2.26l0,0l-0.02,0.07l-0.02,0.07l0,0
		c-0.18,0.69-0.34,1.42-0.49,2.22l0,0l-0.01,0.07c0,0.02-0.01,0.05-0.01,0.07v0.01l0,0c-0.13,0.7-0.25,1.44-0.35,2.25l0,0v0.01
		c0,0.02,0,0.03-0.01,0.05l-0.01,0.07l0,0c-0.1,0.81-0.17,1.56-0.22,2.28l0,0v0.07v0.08l0,0c-0.05,0.81-0.07,1.56-0.08,2.27l0,0
		v0.08v0.08l0,0c0,0.72,0.03,1.47,0.08,2.27l0,0v0.08v0.07l0,0c0.05,0.72,0.12,1.46,0.22,2.27l0,0l0.01,0.07c0,0,0,0,0,0.01
		l0.01,0.07l0,0c0.1,0.79,0.21,1.53,0.35,2.26l0,0l0.01,0.07c0.16,0.86,0.33,1.64,0.52,2.38l0.02,0.07l0,0
		c0.17,0.68,0.38,1.4,0.64,2.18l0,0l0.02,0.07l0.02,0.07l0,0c0.21,0.66,0.47,1.36,0.8,2.21l0.03,0.07h0.01
		c0.31,0.76,0.62,1.49,0.93,2.17l0.03,0.07h0.01c0.38,0.79,0.71,1.43,1.03,2.02h-0.01l0.04,0.07c0.34,0.62,0.74,1.29,1.24,2.08
		l0.04,0.06l0.01-0.01c0.38,0.6,0.81,1.23,1.29,1.89h-0.01l0.04,0.06c0.43,0.58,0.94,1.27,1.48,1.92l0.05,0.06l0.01-0.01
		c0.44,0.52,0.92,1.07,1.51,1.7l-0.01,0.01l0.05,0.05c0.55,0.59,1.12,1.17,1.71,1.71l0.05,0.05v-0.01c0.64,0.59,1.22,1.11,1.76,1.57
		l0.06,0.05l0.01-0.01c0.54,0.45,1.13,0.9,1.8,1.39l0,0l0.06,0.04l0.06,0.04l0,0c0.66,0.48,1.28,0.9,1.88,1.28l0,0l0.06,0.04
		l0.06,0.04l0,0c0.74,0.47,1.37,0.84,1.96,1.17v0.01l0.07,0.04c0.61,0.34,1.26,0.67,2.1,1.07l0,0l0.07,0.03c0,0,0.01,0,0.01,0.01
		l0.05,0.03l0,0c0.74,0.34,1.45,0.65,2.17,0.93l0.07,0.03v-0.01c0.67,0.26,1.37,0.52,2.13,0.77v0.01l0.07,0.02
		c0.82,0.27,1.56,0.48,2.26,0.66l0,0l0.07,0.02l0.07,0.02l0,0c0.7,0.18,1.43,0.34,2.22,0.49v0.01l0.07,0.01
		c0.73,0.14,1.49,0.26,2.33,0.36l0,0h0.01c0.02,0,0.04,0.01,0.06,0.01l0.07,0.01l0,0c0.81,0.1,1.56,0.17,2.28,0.22l0,0h0.07h0.08
		l0,0c0.84,0.05,1.61,0.08,2.35,0.08h0.08v-0.01c0.72,0,1.46-0.03,2.27-0.08v0.01h0.08c0.74-0.05,1.51-0.12,2.34-0.22l0,0l0.07-0.01
		c0,0,0,0,0.01,0l0.07-0.01l0,0c0.79-0.1,1.53-0.21,2.26-0.35l0,0l0.07-0.01c0.86-0.16,1.64-0.33,2.38-0.52l0.07-0.02v-0.01
		c0.68-0.17,1.4-0.38,2.18-0.64l0,0l0.07-0.02l0.07-0.02l0,0c0.66-0.21,1.36-0.47,2.21-0.8l0.07-0.03v-0.01
		c0.76-0.31,1.44-0.6,2.09-0.9v0.01l0.07-0.03c0.84-0.4,1.49-0.73,2.1-1.07l0,0l0.07-0.04l0.07-0.04l0,0
		c0.6-0.33,1.24-0.72,2.02-1.2l0.06-0.04l-0.01-0.01c0.6-0.38,1.22-0.8,1.89-1.29v0.01l0.06-0.04c0.63-0.46,1.29-0.96,1.92-1.48
		l0.06-0.05l-0.01-0.01c0.53-0.44,1.08-0.94,1.7-1.51l0.01,0.01l0.05-0.05c0.57-0.53,1.13-1.09,1.66-1.66l0,0l0.05-0.06l0.05-0.05
		l0,0c0.59-0.64,1.11-1.21,1.56-1.76l0.05-0.06l-0.01-0.01c0.46-0.56,0.92-1.15,1.39-1.8h0.01l0.04-0.06c0.5-0.7,0.96-1.37,1.36-2
		l0.04-0.06h-0.01c0.47-0.75,0.85-1.38,1.17-1.97l0.01,0.01l0.04-0.07c0.34-0.62,0.68-1.29,1.07-2.1l0,0l0.03-0.07
		c0,0,0-0.01,0.01-0.01l0.03-0.05l0,0c0.34-0.73,0.65-1.44,0.93-2.17l0.03-0.07h-0.01c0.27-0.67,0.52-1.38,0.77-2.13h0.01l0.02-0.07
		c0.26-0.81,0.48-1.55,0.66-2.26l0,0l0.02-0.07l0.02-0.07l0,0c0.18-0.69,0.34-1.42,0.49-2.22h0.01l0.01-0.07
		c0.14-0.72,0.25-1.49,0.36-2.33l0,0v-0.01c0-0.02,0.01-0.04,0.01-0.06l0.01-0.08l0,0c0.1-0.82,0.17-1.56,0.22-2.28l0,0v-0.07v-0.08
		l0,0c0.05-0.84,0.08-1.61,0.08-2.35L457.12,314.68L457.12,314.68z"/>
</g>
<g>
	<path class="st5" d="M325.17,198.95c-0.05-0.73-0.12-1.5-0.22-2.34l0,0l-0.01-0.07l-0.01-0.07l0,0c-0.1-0.8-0.21-1.54-0.35-2.26
		l0,0l-0.01-0.07c-0.16-0.86-0.33-1.64-0.52-2.38l-0.02-0.07l0,0c-0.18-0.7-0.39-1.44-0.66-2.25l-0.02-0.07h-0.01
		c-0.21-0.64-0.46-1.33-0.77-2.15l0,0l-0.02-0.05c0-0.01-0.01-0.02-0.01-0.02l-0.03-0.07l0,0c-0.31-0.76-0.62-1.49-0.93-2.16
		l-0.03-0.07h-0.01c-0.39-0.8-0.73-1.47-1.06-2.09l-0.04-0.07h-0.01c-0.33-0.6-0.71-1.24-1.2-2.01l-0.04-0.06l0,0
		c-0.38-0.6-0.81-1.22-1.28-1.89l0.01-0.01l-0.04-0.06c-0.43-0.58-0.94-1.26-1.48-1.92l-0.05-0.06l-0.01,0.01
		c-0.44-0.52-0.94-1.08-1.51-1.7l0.01-0.01l-0.05-0.05c-0.53-0.57-1.09-1.13-1.67-1.66l0.01-0.01l-0.06-0.05
		c-0.66-0.61-1.25-1.14-1.81-1.61l-0.06-0.05l-0.01,0.01c-0.56-0.46-1.15-0.91-1.8-1.39v-0.01l-0.06-0.04c-0.7-0.5-1.37-0.96-2-1.36
		l-0.06-0.04v0.01c-0.75-0.47-1.38-0.85-1.97-1.17v-0.01l-0.07-0.04c-0.64-0.35-1.33-0.7-2.16-1.1l-0.07-0.03v0.01
		c-0.71-0.33-1.39-0.62-2.08-0.9l0,0l-0.07-0.03c-0.7-0.28-1.42-0.54-2.22-0.8v-0.01l-0.07-0.02c-0.82-0.27-1.56-0.48-2.26-0.66l0,0
		l-0.07-0.02l-0.07-0.02l0,0c-0.69-0.18-1.42-0.34-2.22-0.49l0,0l-0.07-0.01c-0.73-0.14-1.52-0.26-2.39-0.37l-0.08-0.01l0,0
		c-0.81-0.1-1.56-0.17-2.28-0.22l0,0h-0.07h-0.08l0,0c-0.82-0.05-1.61-0.08-2.35-0.08h-0.08v11.82h0.08c0.57,0,1.12,0.02,1.69,0.06
		h0.02c0.49,0.03,1.01,0.08,1.66,0.16l0.08,0.01l0,0c0.43,0.05,0.96,0.13,1.51,0.24l0,0l0.08,0.01c0.56,0.1,1.1,0.22,1.65,0.36
		c0.48,0.12,0.99,0.27,1.55,0.45v0.01l0.07,0.02c0.51,0.16,1.02,0.34,1.51,0.54l0,0l0.07,0.03c0.53,0.21,1.04,0.42,1.55,0.67
		l0.07,0.03v-0.01c0.46,0.22,0.93,0.46,1.37,0.7v0.01l0.07,0.04c0.43,0.24,0.89,0.51,1.45,0.86l0.06,0.04l0,0
		c0.38,0.24,0.78,0.51,1.26,0.86l0,0l0.06,0.04c0.51,0.37,0.95,0.7,1.34,1.03l0.06,0.05l0.01-0.01c0.35,0.3,0.72,0.63,1.15,1.03
		v0.01l0.06,0.05c0.39,0.36,0.77,0.74,1.13,1.13l0,0l0.05,0.05c0.36,0.37,0.72,0.77,1.13,1.26l0.05,0.06l0,0
		c0.34,0.42,0.66,0.84,0.94,1.22l-0.01,0.01l0.05,0.06c0.35,0.46,0.66,0.94,0.95,1.39l0.04,0.06l0,0c0.32,0.5,0.59,0.96,0.83,1.39
		l0.04,0.07l0,0c0.29,0.54,0.53,1,0.73,1.43l0.03,0.07l0,0c0.21,0.45,0.41,0.93,0.63,1.47v0.01c0.2,0.53,0.39,1.06,0.57,1.59
		l0.02,0.07h0.01l0.08,0.26c0.12,0.42,0.25,0.85,0.37,1.29l0.01,0.04c0.13,0.55,0.24,1.06,0.33,1.54l0,0l0.01,0.07
		c0.11,0.57,0.19,1.13,0.26,1.66c0.06,0.51,0.12,1.06,0.16,1.68l0.01,0.07l11.72-0.73h0.07L325.17,198.95z"/>
	<path class="st4" d="M325.25,201.29h-0.01c0-0.74-0.03-1.51-0.08-2.35v-0.07l-11.73,0.73h-0.08v0.08c0.04,0.57,0.06,1.12,0.06,1.68
		v0.08h0.01c-0.01,0.53-0.03,1.05-0.06,1.61l0,0c-0.04,0.62-0.1,1.17-0.16,1.68l-0.01,0.07l0,0c-0.06,0.48-0.14,0.99-0.24,1.52
		l-0.01,0.06c-0.1,0.53-0.22,1.05-0.34,1.58h-0.01l-0.02,0.07c-0.13,0.5-0.28,1.03-0.47,1.61v0.01c-0.17,0.5-0.35,1-0.54,1.51l0,0
		l-0.03,0.07c-0.22,0.57-0.44,1.08-0.67,1.56l-0.01,0.01c-0.23,0.49-0.48,0.97-0.73,1.43h-0.01l-0.04,0.07
		c-0.26,0.5-0.55,0.98-0.86,1.44l-0.04,0.06l0.01,0.01c-0.25,0.38-0.54,0.81-0.86,1.26l-0.01-0.01l-0.04,0.06
		c-0.38,0.52-0.7,0.95-1.03,1.34l-0.05,0.06l0.01,0.01c-0.3,0.34-0.67,0.77-1.08,1.2l-0.05,0.05l8.56,8.04l0.06,0.05l0.05-0.05
		c0.62-0.66,1.14-1.25,1.61-1.81l0.05-0.06l-0.01-0.01c0.45-0.55,0.91-1.14,1.39-1.8l0.01,0.01l0.04-0.06
		c0.52-0.72,0.96-1.37,1.36-2l0.04-0.06l-0.01-0.01c0.47-0.75,0.85-1.38,1.17-1.96l0.01,0.01l0.04-0.07
		c0.34-0.62,0.68-1.29,1.07-2.1l0,0l0.03-0.07c0-0.01,0.01-0.01,0.01-0.02l0.02-0.05l0,0c0.33-0.71,0.62-1.39,0.9-2.09l0,0
		l0.03-0.07c0.28-0.7,0.54-1.42,0.8-2.21l0,0l0.02-0.07l0.02-0.07l0,0c0.25-0.79,0.46-1.51,0.64-2.19h0.01l0.02-0.07
		c0.18-0.71,0.35-1.46,0.5-2.29l0,0l0.01-0.07c0-0.02,0.01-0.05,0.01-0.08v-0.01l0,0c0.13-0.7,0.24-1.43,0.35-2.25l0,0v-0.01
		c0-0.02,0.01-0.03,0.01-0.05l0.01-0.07l0,0c0.1-0.82,0.17-1.56,0.22-2.28l0,0v-0.07c0,0,0,0,0-0.01v-0.07l0,0
		c0.05-0.84,0.08-1.61,0.08-2.35v-0.09L325.25,201.29L325.25,201.29z"/>
	<path class="st3" d="M306.25,219.73l-0.06-0.05l-0.05,0.06c-0.36,0.39-0.74,0.77-1.13,1.13l-0.01-0.01l-0.05,0.05
		c-0.37,0.37-0.78,0.73-1.25,1.12l-0.06,0.05l0.01,0.01c-0.42,0.33-0.86,0.66-1.22,0.94l0,0l-0.06,0.04
		c-0.41,0.3-0.85,0.6-1.39,0.95l0,0c-0.56,0.35-1.01,0.62-1.44,0.86l-0.01,0.01c-0.48,0.27-0.99,0.52-1.49,0.76l-0.07,0.03l0,0
		c-0.5,0.23-0.99,0.44-1.48,0.63c-0.47,0.18-1.03,0.39-1.58,0.57l-0.07,0.02v0.01l-0.2,0.06c-0.44,0.13-0.89,0.27-1.34,0.39
		l-0.06,0.01c-0.53,0.12-1.03,0.23-1.53,0.33l-0.06,0.01c-0.58,0.11-1.13,0.19-1.65,0.26h-0.01c-0.5,0.06-1.03,0.11-1.67,0.16l0,0
		c-0.54,0.03-1.11,0.06-1.68,0.06c-0.58,0-1.14-0.03-1.68-0.06l0,0c-0.64-0.05-1.17-0.1-1.67-0.16l-0.08-0.01l0,0
		c-0.47-0.06-0.98-0.14-1.51-0.24l-0.07-0.01c-0.52-0.1-1.04-0.21-1.59-0.34v-0.01l-0.07-0.02c-0.51-0.12-1-0.27-1.51-0.44
		l-0.03-0.01l0,0l-0.03-0.01l-0.04-0.01c-0.53-0.17-1.05-0.36-1.5-0.54l0,0l-0.07-0.03c-0.55-0.22-1.03-0.43-1.48-0.63l0,0
		l-0.07-0.03c-0.46-0.21-0.96-0.46-1.5-0.77l-0.07-0.04l0,0c-0.41-0.23-0.86-0.49-1.39-0.83h-0.01c-0.42-0.27-0.88-0.58-1.32-0.9
		v-0.01l-0.06-0.04c-0.53-0.38-0.95-0.7-1.34-1.03l-0.06-0.05l0,0c-0.34-0.3-0.77-0.67-1.19-1.07l-0.05-0.05l0,0
		c-0.37-0.35-0.73-0.72-1.09-1.09l0.01-0.01l-0.05-0.05c-0.41-0.42-0.79-0.84-1.13-1.26l-0.05-0.06l0,0
		c-0.28-0.35-0.58-0.73-0.94-1.22l0,0l-0.04-0.06c-0.36-0.5-0.67-0.95-0.95-1.39l-0.04-0.06h-0.01c-0.26-0.42-0.52-0.86-0.78-1.32
		h0.01l-0.04-0.07c-0.3-0.52-0.55-1.05-0.77-1.5l-0.03-0.07l0,0c-0.21-0.46-0.42-0.94-0.63-1.48l-0.03-0.07h-0.01
		c-0.19-0.49-0.37-0.99-0.54-1.52v-0.01c-0.18-0.57-0.33-1.09-0.47-1.6l-0.01-0.05c-0.13-0.52-0.24-1.02-0.33-1.53l0,0l-0.02-0.07
		c-0.12-0.59-0.2-1.19-0.26-1.65l-0.01-0.07l0,0c-0.07-0.6-0.12-1.08-0.15-1.53l0,0v-0.08c-0.04-0.57-0.06-1.12-0.06-1.68
		s0.02-1.11,0.06-1.68v-0.01c0.03-0.6,0.1-1.21,0.16-1.67l0.01-0.07l0,0c0.06-0.43,0.13-0.97,0.24-1.51l0,0l0.01-0.07
		c0.1-0.55,0.21-1.09,0.36-1.65c0.15-0.57,0.31-1.1,0.45-1.55h0.01l0.02-0.07c0.16-0.51,0.34-1.02,0.54-1.51l0,0l0.03-0.07
		c0.23-0.57,0.44-1.08,0.67-1.56l0.03-0.07l0,0c0.26-0.54,0.48-0.98,0.7-1.37l0,0l0.04-0.07c0.23-0.43,0.51-0.88,0.85-1.43
		l0.01-0.01c0.31-0.49,0.63-0.95,0.95-1.39l0.04-0.06c0.35-0.49,0.67-0.91,0.98-1.27l0.05-0.06l0,0c0.31-0.36,0.66-0.75,1.06-1.18
		l0.02-0.03c0.36-0.38,0.74-0.76,1.13-1.13l0,0l0.05-0.05c0.45-0.42,0.86-0.79,1.26-1.13c0.39-0.32,0.81-0.65,1.34-1.03l0.02-0.01
		c0.43-0.32,0.89-0.63,1.37-0.94l0.06-0.04l0,0c0.36-0.22,0.82-0.5,1.32-0.78l0,0l0.07-0.04c0.45-0.25,0.93-0.5,1.51-0.77l0.07-0.03
		l0,0c0.45-0.2,0.93-0.41,1.48-0.63l0.07-0.03v-0.01c0.49-0.19,1-0.37,1.51-0.54l0,0c0.47-0.15,1.04-0.32,1.62-0.47l0.05-0.01
		c0.53-0.13,1.03-0.24,1.53-0.33l0,0l0.07-0.02c0.45-0.09,0.94-0.17,1.58-0.25l0.08-0.01c0.64-0.08,1.14-0.13,1.6-0.15l0,0
		l0.08-0.01c0.56-0.04,1.12-0.06,1.68-0.06h0.08V162.7h-0.08c-0.74,0-1.53,0.03-2.35,0.08l0,0h-0.08h-0.07l0,0
		c-0.71,0.05-1.46,0.12-2.27,0.22l0,0l-0.07,0.01h-0.01l-0.07,0.01l0,0c-0.8,0.1-1.54,0.22-2.26,0.35l0,0l-0.07,0.01
		c-0.86,0.16-1.63,0.33-2.38,0.52l-0.07,0.02l0,0c-0.68,0.17-1.39,0.38-2.18,0.64l0,0l-0.07,0.02l-0.07,0.02l0,0
		c-0.65,0.21-1.36,0.47-2.21,0.8l-0.07,0.03v0.01c-0.76,0.31-1.49,0.62-2.17,0.93l-0.07,0.03v0.01c-0.78,0.37-1.42,0.7-2.01,1.02
		l0,0l-0.07,0.04c-0.62,0.34-1.29,0.74-2.08,1.24l-0.06,0.04l0,0c-0.6,0.38-1.24,0.81-1.89,1.29l0,0l-0.06,0.04
		c-0.01,0.01-0.02,0.02-0.03,0.02l-0.03,0.02l0,0c-0.56,0.41-1.19,0.89-1.81,1.39l0,0l-0.05,0.04l-0.01,0.01l-0.06,0.05l0,0
		c-0.53,0.45-1.08,0.94-1.7,1.51l-0.01-0.01l-0.05,0.05c-0.58,0.54-1.14,1.1-1.67,1.67l0,0l-0.05,0.05
		c-0.01,0.01-0.03,0.03-0.04,0.04l0,0c-0.6,0.64-1.11,1.22-1.57,1.77l-0.05,0.06l0.01,0.01c-0.46,0.56-0.92,1.15-1.39,1.8l0,0
		l-0.04,0.06l-0.04,0.06l0,0c-0.48,0.66-0.9,1.28-1.28,1.88l0,0l-0.04,0.06l-0.04,0.06l0,0c-0.47,0.75-0.85,1.38-1.17,1.97l0,0
		l-0.04,0.07c-0.35,0.64-0.7,1.32-1.1,2.16l-0.1,0.12h0.01c-0.33,0.71-0.62,1.39-0.89,2.08l0,0l-0.03,0.07
		c-0.28,0.69-0.54,1.42-0.8,2.22h-0.01l-0.02,0.07c-0.27,0.82-0.48,1.56-0.66,2.26l0,0l-0.02,0.07l-0.02,0.07l0,0
		c-0.18,0.69-0.34,1.42-0.49,2.22l0,0l-0.01,0.07c-0.14,0.73-0.26,1.52-0.37,2.39l-0.01,0.07l0,0c-0.1,0.81-0.17,1.56-0.22,2.28l0,0
		v0.07l0,0v0.07l0,0c-0.05,0.79-0.07,1.56-0.08,2.27l0,0v0.08v0.08l0,0c0,0.72,0.03,1.48,0.08,2.27l0,0v0.07l0,0v0.07l0,0
		c0.05,0.71,0.12,1.46,0.22,2.27l0,0l0.01,0.07l0.01,0.07l0,0c0.1,0.8,0.22,1.54,0.35,2.26l0,0l0.01,0.07
		c0.16,0.86,0.33,1.64,0.52,2.38l0.02,0.07l0,0c0.17,0.68,0.38,1.39,0.64,2.18l0,0l0.02,0.07l0.02,0.07l0,0
		c0.21,0.66,0.47,1.36,0.8,2.21l0.03,0.07h0.01c0.31,0.77,0.62,1.5,0.93,2.17l0.03,0.07h0.01c0.37,0.78,0.7,1.42,1.03,2.02h-0.01
		l0.04,0.07c0.34,0.62,0.74,1.28,1.24,2.08l0.04,0.06l0.01-0.01c0.39,0.61,0.81,1.23,1.29,1.89h-0.01l0.04,0.06
		c0.43,0.58,0.94,1.26,1.48,1.92l0.05,0.06l0.01-0.01c0.44,0.53,0.94,1.08,1.51,1.7l-0.01,0.01l0.05,0.05
		c0.55,0.59,1.12,1.17,1.71,1.71l0.05,0.05l0.01-0.01c0.64,0.59,1.21,1.11,1.76,1.57l0.06,0.05l0.01-0.01
		c0.56,0.46,1.15,0.91,1.81,1.39l-0.01,0.01l0.06,0.04c0.67,0.49,1.33,0.93,1.94,1.32l0,0l0.06,0.04l0.06,0.04l0,0
		c0.77,0.49,1.42,0.87,2.02,1.2l0.07,0.04v-0.01c0.6,0.33,1.25,0.66,2.03,1.03v0.01l0.07,0.03c0.73,0.34,1.44,0.65,2.16,0.93l0,0
		l0.07,0.03c0.69,0.28,1.42,0.54,2.21,0.8l0,0l0.07,0.02l0.07,0.02l0,0c0.8,0.26,1.52,0.47,2.19,0.64v0.01l0.07,0.02
		c0.72,0.18,1.47,0.35,2.29,0.5l0,0l0.07,0.01c0.73,0.14,1.52,0.26,2.39,0.37l0.08,0.01l0,0c0.81,0.1,1.56,0.17,2.28,0.22l0,0h0.07
		h0.08l0,0c0.79,0.05,1.56,0.07,2.27,0.08l0,0h0.08h0.08l0,0c0.72,0,1.48-0.03,2.27-0.08l0,0h0.08h0.07l0,0
		c0.71-0.05,1.46-0.12,2.27-0.22l0,0l0.07-0.01h0.01l0.07-0.01l0,0c0.8-0.1,1.54-0.22,2.26-0.35l0,0l0.07-0.01
		c0.86-0.16,1.63-0.33,2.38-0.52l0.07-0.02l0,0c0.7-0.18,1.43-0.39,2.25-0.66l0.07-0.02v-0.01c0.64-0.21,1.33-0.46,2.15-0.77l0,0
		l0.07-0.03c0,0,0.01,0,0.01-0.01l0.05-0.02l0,0c0.76-0.31,1.49-0.62,2.16-0.93l0.07-0.03v-0.01c0.78-0.38,1.43-0.71,2.02-1.03l0,0
		l0.07-0.04l0.07-0.04l0,0c0.59-0.32,1.21-0.7,1.96-1.17l0,0l0.06-0.04l0.06-0.04l0,0c0.6-0.38,1.23-0.81,1.89-1.28v0.01l0.06-0.04
		c0.59-0.43,1.27-0.95,1.92-1.48l0.06-0.05l-0.01-0.01c0.53-0.44,1.09-0.94,1.7-1.51l0.01,0.01l0.05-0.05
		c0.59-0.55,1.17-1.12,1.71-1.71l0.05-0.05L306.25,219.73z"/>
</g>
<g>
	<path class="st5" d="M325.25,314.85h-0.01c0-0.72-0.03-1.46-0.08-2.27h0.01v-0.08c-0.05-0.73-0.12-1.5-0.22-2.34l0,0l-0.01-0.07
		l-0.01-0.08l0,0c-0.1-0.8-0.21-1.54-0.35-2.26l0,0l-0.01-0.07c-0.16-0.86-0.33-1.64-0.52-2.38l-0.02-0.07l0,0
		c-0.18-0.7-0.39-1.44-0.66-2.25l-0.02-0.07h-0.01c-0.21-0.64-0.46-1.32-0.77-2.15l0,0l-0.02-0.04c0-0.01-0.01-0.02-0.01-0.03
		l-0.03-0.07l0,0c-0.31-0.76-0.62-1.49-0.93-2.16l-0.03-0.07h-0.01c-0.39-0.81-0.73-1.48-1.07-2.09l-0.04-0.07h-0.01
		c-0.33-0.6-0.71-1.24-1.2-2.01l-0.04-0.06l-0.01,0.01c-0.38-0.6-0.81-1.23-1.28-1.89l0.01-0.01l-0.04-0.06
		c-0.43-0.58-0.95-1.27-1.48-1.92l-0.05-0.06l-0.01,0.01c-0.44-0.53-0.94-1.09-1.51-1.7l0.01-0.01l-0.05-0.05
		c-0.53-0.57-1.09-1.13-1.67-1.67l0.01-0.01l-0.06-0.05c-0.65-0.61-1.24-1.13-1.81-1.61l-0.06-0.05l-0.01,0.01
		c-0.56-0.46-1.15-0.91-1.8-1.39v-0.01l-0.06-0.04c-0.7-0.5-1.37-0.96-2-1.36l-0.06-0.04v0.01c-0.75-0.47-1.38-0.85-1.96-1.17l0,0
		l-0.07-0.04l-0.07-0.04l0,0c-0.6-0.33-1.25-0.66-2.03-1.03l0,0l-0.05-0.02c-0.01,0-0.01-0.01-0.02-0.01l-0.07-0.03l0,0
		c-0.71-0.33-1.39-0.62-2.09-0.9l0,0l-0.07-0.03c-0.69-0.28-1.42-0.54-2.21-0.8l0,0l-0.07-0.02l-0.07-0.02l0,0
		c-0.79-0.26-1.51-0.47-2.19-0.64v-0.01l-0.07-0.02c-0.71-0.18-1.47-0.35-2.29-0.5l0,0l-0.07-0.01c-0.74-0.14-1.53-0.26-2.39-0.37
		l-0.07-0.01l0,0c-0.81-0.1-1.56-0.17-2.28-0.22l0,0h-0.07h-0.08l0,0c-0.82-0.05-1.61-0.08-2.35-0.08h-0.08v11.82h0.08
		c0.58,0,1.13,0.02,1.69,0.06h0.01c0.62,0.03,1.22,0.1,1.67,0.16l0.08,0.01l0,0c0.43,0.06,0.97,0.13,1.51,0.24l0,0l0.08,0.01
		c0.54,0.09,1.06,0.21,1.58,0.34v0.01l0.07,0.02c0.52,0.12,1.05,0.28,1.61,0.47l0.03,0.01c0.5,0.16,1,0.34,1.47,0.53l0,0l0.07,0.03
		c0.52,0.2,1.03,0.42,1.55,0.67l0.03,0.02c0.45,0.21,0.97,0.47,1.47,0.75l0.07,0.04l0,0c0.42,0.23,0.85,0.49,1.38,0.82l0.06,0.04
		l0,0c0.38,0.24,0.78,0.52,1.26,0.86l0,0l0.06,0.04c0.51,0.37,0.95,0.7,1.34,1.03l0.06,0.05l0.01-0.01c0.35,0.3,0.73,0.64,1.15,1.03
		v0.01l0.06,0.05c0.39,0.36,0.77,0.74,1.13,1.13h-0.01l0.05,0.05c0.36,0.37,0.72,0.77,1.13,1.25l0.05,0.06l0,0
		c0.34,0.42,0.66,0.85,0.94,1.22l-0.01,0.01l0.05,0.06c0.29,0.38,0.58,0.81,0.95,1.38l0.04,0.06h0.01c0.32,0.5,0.59,0.95,0.82,1.39
		l0.04,0.07l0,0c0.29,0.54,0.53,1,0.73,1.43l0.03,0.07l0,0c0.21,0.46,0.42,0.94,0.63,1.47l0,0c0.17,0.46,0.37,1,0.57,1.59l0.02,0.07
		h0.01l0.02,0.08c0.14,0.49,0.29,0.98,0.43,1.47l0.01,0.04c0.13,0.55,0.24,1.05,0.33,1.54l0,0l0.01,0.07
		c0.11,0.57,0.19,1.13,0.26,1.66v0.01c0.06,0.49,0.11,1.01,0.15,1.59h-0.01v0.08c0.04,0.56,0.06,1.13,0.06,1.68V315h0.01
		c-0.01,0.52-0.03,1.05-0.06,1.61l0,0c-0.04,0.62-0.1,1.17-0.16,1.67l-0.01,0.08l0,0c-0.06,0.48-0.14,0.99-0.24,1.53l-0.01,0.05
		c-0.1,0.53-0.22,1.05-0.34,1.58h-0.01l-0.02,0.07c-0.13,0.5-0.28,1.03-0.47,1.62l-0.02,0.07l11.17,3.63l0.07,0.02l0.02-0.07
		c0.26-0.82,0.48-1.56,0.66-2.27h0.01l0.02-0.07c0.18-0.71,0.35-1.46,0.5-2.29l0,0l0.01-0.07c0-0.02,0.01-0.05,0.01-0.07v-0.01l0,0
		c0.13-0.7,0.24-1.44,0.35-2.25l0,0v-0.01c0-0.02,0.01-0.04,0.01-0.06l0.01-0.08l0,0c0.1-0.82,0.17-1.56,0.22-2.28l0,0v-0.07v-0.08
		l0,0c0.05-0.84,0.08-1.61,0.08-2.35v-0.05L325.25,314.85L325.25,314.85z"/>
	<path class="st3" d="M286.6,276.29c-0.74,0-1.53,0.03-2.35,0.08l0,0h-0.08h-0.07l0,0c-0.71,0.05-1.46,0.12-2.27,0.22l0,0
		l-0.07,0.01h-0.01l-0.07,0.01l0,0c-0.8,0.1-1.54,0.21-2.26,0.35l0,0l-0.07,0.01c-0.86,0.16-1.64,0.33-2.38,0.52l-0.07,0.02l0,0
		c-0.7,0.18-1.43,0.39-2.25,0.66l-0.07,0.02v0.01c-0.64,0.21-1.32,0.46-2.15,0.77l0,0l-0.07,0.03c0,0-0.01,0-0.01,0.01l-0.05,0.02
		l0,0c-0.76,0.31-1.49,0.62-2.16,0.93l-0.07,0.03V280c-0.81,0.39-1.48,0.73-2.09,1.07l-0.07,0.04v0.01
		c-0.58,0.32-1.21,0.69-1.95,1.17v-0.01l-0.06,0.04c-0.61,0.39-1.27,0.83-1.94,1.32l0,0l-0.06,0.04c-0.01,0.01-0.02,0.02-0.03,0.02
		l-0.03,0.02l0,0c-0.56,0.41-1.19,0.89-1.81,1.39l0,0l-0.05,0.04l-0.01,0.01l-0.06,0.05l0,0c-0.53,0.45-1.08,0.94-1.7,1.51
		l-0.01-0.01l-0.05,0.05c-0.57,0.53-1.13,1.1-1.67,1.67l0,0l-0.05,0.06c-0.01,0.02-0.03,0.03-0.04,0.04l0,0l0,0
		c-0.59,0.64-1.11,1.22-1.57,1.77l-0.05,0.06l0.01,0.01c-0.45,0.56-0.91,1.15-1.39,1.8l0,0l-0.04,0.06l-0.04,0.06l0,0
		c-0.49,0.68-0.93,1.32-1.32,1.94l-0.04,0.06h0.01c-0.47,0.75-0.85,1.38-1.17,1.97h-0.01l-0.04,0.07c-0.35,0.64-0.7,1.32-1.1,2.16
		l-0.03,0.07h0.01c-0.33,0.71-0.62,1.39-0.89,2.08l0,0l-0.03,0.07c-0.28,0.69-0.54,1.42-0.8,2.22h-0.01l-0.02,0.07
		c-0.27,0.83-0.48,1.57-0.66,2.26l0,0l-0.02,0.07l-0.02,0.07l0,0c-0.18,0.69-0.34,1.42-0.49,2.22l0,0l-0.01,0.07
		c-0.14,0.73-0.26,1.52-0.37,2.39l-0.01,0.08l0,0c-0.1,0.81-0.17,1.56-0.22,2.28l0,0v0.07v0.08l0,0c-0.05,0.79-0.07,1.56-0.08,2.27
		l0,0v0.08V315l0,0c0,0.72,0.03,1.48,0.08,2.27l0,0v0.08v0.07l0,0c0.05,0.71,0.12,1.46,0.22,2.27l0,0l0.01,0.07v0.01l0.01,0.07l0,0
		c0.1,0.8,0.22,1.54,0.35,2.26l0,0l0.01,0.07c0.16,0.86,0.33,1.64,0.52,2.38l0.02,0.07l0,0c0.17,0.68,0.38,1.39,0.64,2.18l0,0
		l0.02,0.07l0.02,0.07l0,0c0.21,0.66,0.47,1.36,0.8,2.21l0.03,0.07h0.01c0.31,0.76,0.62,1.49,0.93,2.17l0.03,0.07h0.01
		c0.37,0.77,0.7,1.42,1.03,2.02h-0.01l0.04,0.07c0.34,0.62,0.74,1.29,1.24,2.08l0.04,0.06l0.01-0.01c0.39,0.61,0.82,1.24,1.29,1.89
		h-0.01l0.04,0.06c0.42,0.56,0.91,1.22,1.44,1.86l0,0l0.05,0.06l0.05,0.06l0,0c0.44,0.53,0.94,1.08,1.51,1.7l-0.01,0.01l0.05,0.05
		c0.55,0.59,1.12,1.17,1.71,1.71l0.05,0.05v-0.01c0.64,0.59,1.21,1.11,1.76,1.57l0.06,0.05l0.01-0.01c0.55,0.45,1.14,0.9,1.81,1.39
		l-0.01,0.01l0.06,0.04c0.7,0.5,1.37,0.96,2,1.36l0.06,0.04l6.29-9.91l0.04-0.06l-0.06-0.04c-0.48-0.32-0.91-0.6-1.33-0.91v-0.01
		l-0.06-0.04c-0.52-0.38-0.95-0.7-1.34-1.03l-0.06-0.05l0,0c-0.34-0.3-0.77-0.67-1.19-1.07l-0.05-0.05l0,0
		c-0.36-0.35-0.73-0.71-1.08-1.08l0,0l-0.05-0.05c-0.42-0.44-0.79-0.85-1.13-1.26c-0.3-0.37-0.62-0.78-0.99-1.28l0,0l-0.04-0.06
		c-0.37-0.5-0.68-0.95-0.95-1.39l-0.04-0.06h-0.01c-0.26-0.42-0.52-0.86-0.78-1.32h0.01l-0.04-0.07c-0.26-0.45-0.5-0.93-0.77-1.5
		l-0.03-0.07l0,0c-0.21-0.46-0.42-0.94-0.63-1.48l-0.03-0.07h-0.01c-0.19-0.49-0.37-1-0.54-1.52v-0.01
		c-0.18-0.57-0.33-1.09-0.46-1.6l-0.01-0.05c-0.13-0.52-0.24-1.02-0.33-1.53l0,0l-0.02-0.07c-0.12-0.59-0.2-1.19-0.26-1.66
		c-0.06-0.45-0.13-1.05-0.16-1.67v-0.01c-0.04-0.57-0.06-1.12-0.06-1.69c0-0.55,0.02-1.12,0.06-1.68v-0.01
		c0.03-0.6,0.1-1.18,0.16-1.67l0.01-0.07l0,0c0.06-0.43,0.13-0.97,0.24-1.51l0,0l0.01-0.08c0.1-0.55,0.21-1.09,0.36-1.65
		c0.12-0.47,0.27-0.98,0.45-1.55h0.01l0.02-0.07c0.15-0.48,0.33-0.97,0.54-1.51l0,0l0.03-0.07c0.22-0.57,0.44-1.08,0.67-1.55
		l0.03-0.07l0,0c0.26-0.54,0.48-0.97,0.7-1.36h0.01l0.04-0.07c0.24-0.45,0.52-0.92,0.86-1.45l0.04-0.06l0,0
		c0.3-0.46,0.6-0.91,0.91-1.33l0.04-0.06l0,0c0.36-0.5,0.67-0.9,0.98-1.28l0.05-0.06l0,0c0.31-0.36,0.66-0.75,1.07-1.19l0.02-0.02
		c0.36-0.38,0.74-0.76,1.13-1.13l0,0l0.05-0.05c0.44-0.42,0.85-0.79,1.26-1.13c0.37-0.31,0.78-0.63,1.28-0.98l0,0l0.06-0.04
		c0.42-0.31,0.87-0.61,1.33-0.91l0,0l0.06-0.04c0.52-0.33,0.99-0.61,1.45-0.86l0.07-0.04l0,0c0.43-0.24,0.89-0.47,1.43-0.73
		l0.07-0.03l0,0c0.46-0.21,0.94-0.42,1.48-0.63c0.51-0.21,1.04-0.4,1.58-0.57l0.07-0.02v-0.01c0.46-0.14,0.99-0.31,1.55-0.45
		l0.03-0.01c0.53-0.13,1.04-0.24,1.55-0.34l0,0l0.07-0.02c0.59-0.12,1.19-0.2,1.66-0.26h0.02c0.46-0.06,1.05-0.12,1.65-0.16h0.01
		c0.56-0.04,1.11-0.06,1.68-0.06h0.08v-11.82h-0.13L286.6,276.29L286.6,276.29z"/>
	<path class="st4" d="M312.2,323.17l-0.07-0.02l-0.02,0.07c-0.16,0.49-0.35,1-0.54,1.51l0,0l-0.03,0.07
		c-0.22,0.56-0.43,1.06-0.65,1.53l-0.01,0.03c-0.21,0.45-0.45,0.93-0.73,1.44h-0.01l-0.04,0.07c-0.26,0.5-0.55,0.98-0.86,1.44
		l-0.04,0.06l0.01,0.01c-0.33,0.5-0.6,0.9-0.87,1.27h-0.01l-0.04,0.06c-0.39,0.53-0.71,0.95-1.03,1.34l-0.05,0.06l0,0
		c-0.3,0.34-0.67,0.77-1.07,1.19l-0.02,0.02c-0.36,0.38-0.73,0.76-1.12,1.12l-0.01-0.01l-0.05,0.05c-0.36,0.36-0.77,0.73-1.25,1.13
		l-0.06,0.05l0.01,0.01c-0.4,0.32-0.82,0.63-1.22,0.94l0,0l-0.06,0.04c-0.41,0.3-0.87,0.61-1.39,0.95l-0.01,0.01
		c-0.55,0.34-1,0.61-1.43,0.85c-0.49,0.27-1,0.53-1.51,0.77l-0.07,0.03l0,0c-0.5,0.23-0.99,0.44-1.46,0.63h-0.01
		c-0.51,0.19-1.05,0.4-1.59,0.57l-0.07,0.02v0.01l-0.21,0.06c-0.44,0.13-0.89,0.27-1.34,0.39l-0.05,0.01
		c-0.51,0.13-1.02,0.23-1.54,0.33l-0.06,0.01c-0.57,0.11-1.13,0.19-1.66,0.26c-0.51,0.06-1.06,0.12-1.67,0.16l0,0
		c-0.55,0.03-1.12,0.06-1.68,0.06c-0.57,0-1.13-0.03-1.68-0.06l0,0c-0.61-0.04-1.15-0.09-1.68-0.16l-0.07-0.01l0,0
		c-0.47-0.06-0.98-0.14-1.52-0.24l-0.06-0.01c-0.53-0.1-1.06-0.21-1.59-0.34v-0.01l-0.07-0.02c-0.51-0.12-1-0.27-1.51-0.44
		l-0.11-0.03c-0.51-0.16-1.02-0.35-1.5-0.54l0,0l-0.07-0.03c-0.54-0.21-1.02-0.42-1.48-0.63l0,0l-0.07-0.03
		c-0.46-0.21-0.94-0.46-1.5-0.77l-0.07-0.04l0,0c-0.42-0.23-0.86-0.49-1.39-0.83l-0.06-0.04l-6.29,9.91l-0.04,0.06l0.06,0.04
		c0.8,0.51,1.46,0.9,2.08,1.24l0.07,0.04v-0.01c0.6,0.33,1.25,0.66,2.03,1.03v0.01l0.07,0.03c0.73,0.34,1.44,0.65,2.16,0.93l0,0
		l0.07,0.03c0.7,0.28,1.42,0.54,2.21,0.8l0,0l0.07,0.02l0.07,0.02l0,0c0.79,0.25,1.51,0.46,2.19,0.64v0.01l0.07,0.02
		c0.71,0.18,1.46,0.35,2.29,0.5l0,0l0.07,0.01c0.02,0,0.05,0.01,0.07,0.01h0.01l0,0c0.7,0.13,1.43,0.24,2.25,0.35l0,0h0.01
		c0.02,0,0.04,0.01,0.06,0.01l0.08,0.01l0,0c0.82,0.1,1.56,0.17,2.28,0.22l0,0h0.07h0.08l0,0c0.81,0.05,1.56,0.07,2.27,0.08l0,0
		h0.08h0.08l0,0c0.72,0,1.47-0.03,2.27-0.08l0,0h0.08h0.07l0,0c0.71-0.05,1.45-0.12,2.27-0.22l0,0l0.07-0.01l0.08-0.01l0,0
		c0.8-0.1,1.54-0.21,2.26-0.35l0,0l0.07-0.01c0.86-0.16,1.64-0.33,2.38-0.52l0.07-0.02l0,0c0.7-0.18,1.44-0.39,2.25-0.66l0.07-0.02
		v-0.01c0.64-0.21,1.32-0.46,2.15-0.77l0,0l0.04-0.02c0.01,0,0.02-0.01,0.03-0.01l0.07-0.03l0,0c0.76-0.31,1.49-0.62,2.16-0.93
		l0.07-0.03v-0.01c0.77-0.37,1.42-0.7,2.02-1.03l0,0l0.07-0.04l0.07-0.04l0,0c0.59-0.32,1.21-0.7,1.96-1.17l0,0l0.06-0.04l0.06-0.04
		l0,0c0.6-0.38,1.23-0.81,1.89-1.28v0.01l0.06-0.04c0.58-0.43,1.26-0.94,1.92-1.48l0.06-0.05l-0.01-0.01
		c0.53-0.44,1.09-0.94,1.7-1.51l0.01,0.01l0.05-0.05c0.57-0.53,1.13-1.09,1.66-1.66l0,0l0.05-0.06l0.05-0.05l0,0
		c0.59-0.64,1.11-1.21,1.56-1.76l0.05-0.06l-0.01-0.01c0.45-0.54,0.9-1.14,1.39-1.8l0.01,0.01l0.04-0.06c0.52-0.72,0.96-1.37,1.36-2
		l0.04-0.06l-0.01-0.01c0.47-0.75,0.84-1.38,1.17-1.96l0.01,0.01l0.04-0.07c0.34-0.62,0.68-1.29,1.07-2.1l0,0l0.03-0.07
		c0,0,0-0.01,0.01-0.01l0.03-0.05l0,0c0.33-0.71,0.62-1.39,0.9-2.09l0,0l0.03-0.07c0.29-0.72,0.56-1.47,0.82-2.29l0.02-0.07
		L312.2,323.17z"/>
</g>
<g>
	<path class="st5" d="M322.53,414.26c-0.32-0.79-0.64-1.54-0.96-2.23l-0.03-0.07l-0.01,0c-0.38-0.8-0.72-1.47-1.06-2.09l-0.04-0.07
		l-0.01,0c-0.33-0.6-0.71-1.24-1.2-2.01l-0.04-0.06l-0.01,0.01c-0.38-0.6-0.8-1.22-1.28-1.89l0.01-0.01l-0.04-0.06
		c-0.4-0.54-0.93-1.25-1.48-1.92l-0.05-0.06l-0.01,0.01c-0.44-0.52-0.93-1.07-1.51-1.7l0.01-0.01l-0.05-0.05
		c-0.52-0.56-1.08-1.12-1.66-1.66l0,0l-0.06-0.05l-0.05-0.05l0,0c-0.64-0.59-1.21-1.11-1.76-1.56l-0.06-0.05l-0.01,0.01
		c-0.55-0.45-1.14-0.91-1.8-1.39l0-0.01l-0.06-0.04c-0.71-0.51-1.36-0.96-2-1.36l-0.06-0.04l0,0.01c-0.74-0.47-1.37-0.84-1.96-1.17
		l0,0l-0.07-0.04l-0.07-0.04l0,0c-0.59-0.32-1.24-0.65-2.03-1.03l0,0l-0.07-0.03c0,0-0.01,0-0.01,0l-0.06-0.03l0,0
		c-0.69-0.32-1.39-0.62-2.09-0.9l0-0.01l-0.07-0.03c-0.69-0.28-1.42-0.54-2.21-0.8l0,0l-0.07-0.02l-0.07-0.02l0,0
		c-0.8-0.26-1.52-0.47-2.19-0.64l0-0.01l-0.07-0.02c-0.72-0.18-1.47-0.35-2.29-0.5l0,0l-0.07-0.01c-0.02,0-0.05-0.01-0.07-0.01
		l-0.01,0l0,0c-0.7-0.13-1.44-0.25-2.25-0.35v0l-0.01,0c-0.02,0-0.04-0.01-0.06-0.01l-0.07-0.01l0,0c-0.81-0.1-1.56-0.17-2.28-0.22
		l0,0l-0.07,0l-0.08,0v0c-0.84-0.05-1.61-0.08-2.35-0.08h-0.08v11.82h0.08c0.57,0,1.12,0.02,1.69,0.06l0.01,0
		c0.49,0.03,1.02,0.08,1.67,0.16l0.08,0.01l0,0c0.46,0.06,0.96,0.14,1.53,0.24l0.05,0.01c0.54,0.1,1.07,0.21,1.59,0.34l0,0.01
		l0.07,0.02c0.52,0.12,1.05,0.28,1.61,0.47l0.03,0.01c0.5,0.16,0.99,0.34,1.47,0.53l0,0l0.07,0.03c0.53,0.21,1.04,0.42,1.55,0.67
		c0.52,0.24,1.02,0.5,1.51,0.77c0.43,0.24,0.89,0.51,1.45,0.86l0.06,0.04l0,0c0.37,0.24,0.77,0.51,1.26,0.86l0,0l0.06,0.04
		c0.51,0.37,0.95,0.7,1.34,1.03l0.06,0.05l0,0c0.39,0.33,0.78,0.68,1.2,1.08l0.02,0.02c0.39,0.36,0.76,0.73,1.11,1.11l-0.01,0
		l0.05,0.05c0.36,0.37,0.72,0.77,1.13,1.25l0.05,0.06l0,0c0.34,0.43,0.65,0.83,0.94,1.22l-0.01,0.01l0.05,0.06
		c0.37,0.48,0.7,0.99,0.95,1.38l0.04,0.06l0.01,0c0.32,0.5,0.59,0.95,0.82,1.39l0.04,0.07l0,0c0.29,0.54,0.53,1,0.73,1.43l0.03,0.07
		l0,0c0.21,0.45,0.41,0.93,0.63,1.48l0.03,0.07l10.92-4.33l0.07-0.03L322.53,414.26z"/>
	<path class="st4" d="M325.25,428.42h-0.01c0-0.72-0.03-1.46-0.07-2.26l0.01,0l0-0.08c-0.05-0.74-0.12-1.51-0.22-2.35l0,0
		l-0.01-0.07c0-0.02,0-0.03-0.01-0.05l0-0.01l0,0c-0.1-0.8-0.21-1.54-0.35-2.26l0,0l-0.01-0.07l-0.01-0.07l0,0
		c-0.15-0.81-0.31-1.54-0.49-2.23l0,0l-0.02-0.07l-0.02-0.07l0,0c-0.18-0.71-0.4-1.45-0.66-2.26l-0.02-0.07l-0.01,0
		c-0.21-0.66-0.47-1.36-0.8-2.22l-0.03-0.07l-10.92,4.33l-0.07,0.03l0.03,0.07c0.2,0.54,0.39,1.08,0.57,1.59l0.02,0.07l0.01,0
		l0.02,0.08c0.14,0.49,0.29,0.98,0.42,1.47l0,0c0.13,0.57,0.25,1.1,0.36,1.64l0,0.02c0.11,0.6,0.19,1.1,0.25,1.59l0,0l0.01,0.08
		c0.06,0.48,0.11,1,0.15,1.59l-0.01,0l0,0.08c0.04,0.56,0.06,1.13,0.06,1.69v0.08h0.01c-0.01,0.53-0.03,1.05-0.06,1.61l0,0
		c-0.04,0.62-0.1,1.17-0.16,1.68l-0.01,0.08l0,0c-0.06,0.46-0.14,0.96-0.24,1.51l-0.01,0.07c-0.1,0.53-0.22,1.05-0.34,1.58l-0.01,0
		l-0.02,0.07c-0.13,0.49-0.28,1.02-0.47,1.6l0,0.01c-0.17,0.53-0.37,1.06-0.57,1.59l-0.01,0.02c-0.21,0.53-0.42,1.01-0.63,1.46l0,0
		l-0.03,0.07c-0.21,0.45-0.45,0.93-0.73,1.44l-0.01,0l-0.04,0.07c-0.24,0.46-0.52,0.93-0.86,1.44l-0.04,0.06l0.01,0.01
		c-0.24,0.36-0.54,0.81-0.87,1.27l-0.01,0l-0.04,0.06c-0.4,0.54-0.71,0.95-1.03,1.34l-0.05,0.06l0,0c-0.29,0.34-0.67,0.77-1.07,1.2
		l-0.02,0.02c-0.36,0.39-0.74,0.76-1.12,1.12l0-0.01l-0.05,0.05c-0.42,0.41-0.84,0.79-1.25,1.13l-0.06,0.05l0,0
		c-0.47,0.37-0.86,0.67-1.22,0.94l0,0l-0.06,0.04c-0.4,0.29-0.84,0.59-1.38,0.94l-0.01,0.01c-0.56,0.35-1.02,0.62-1.45,0.86
		c-0.48,0.26-0.99,0.52-1.51,0.77l-0.07,0.03l0,0c-0.49,0.23-0.97,0.43-1.46,0.63l-0.02,0.01c-0.5,0.19-1.04,0.4-1.58,0.57
		l-0.07,0.02l0,0.01c-0.56,0.18-1.07,0.33-1.55,0.45l-0.07,0.02l0,0c-0.52,0.13-1.04,0.23-1.51,0.33l0,0l-0.07,0.01
		c-0.58,0.11-1.13,0.19-1.66,0.26c-0.5,0.06-1.03,0.11-1.67,0.16l0,0c-0.51,0.03-1.1,0.06-1.68,0.06c-0.59,0-1.17-0.03-1.68-0.06
		l0,0c-0.64-0.04-1.17-0.1-1.67-0.16l-0.08-0.01l0,0c-0.47-0.06-0.98-0.14-1.52-0.24l-0.06-0.01c-0.49-0.1-1.04-0.21-1.59-0.34
		l0-0.01l-0.07-0.02c-0.49-0.12-1-0.26-1.61-0.47l-0.01,0c-0.55-0.17-1.08-0.37-1.57-0.57l-0.07-0.03l-4.33,10.92l-0.03,0.07
		l0.07,0.03c0.69,0.28,1.41,0.54,2.21,0.8l0,0l0.07,0.02l0.07,0.02l0,0c0.81,0.26,1.51,0.47,2.19,0.64l0,0.01l0.07,0.02
		c0.73,0.19,1.48,0.35,2.29,0.5l0,0l0.07,0.01c0.02,0,0.05,0.01,0.07,0.01l0.01,0l0,0c0.7,0.13,1.44,0.25,2.25,0.35l0,0l0.01,0
		c0.02,0,0.03,0,0.05,0.01l0.07,0.01l0,0c0.81,0.1,1.56,0.17,2.28,0.22l0,0l0.07,0l0.08,0v0c0.79,0.05,1.56,0.07,2.27,0.07v0h0.08
		h0.08v0c0.72,0,1.48-0.03,2.27-0.07v0l0.08,0l0.07,0l0,0c0.71-0.05,1.46-0.12,2.27-0.22l0,0l0.07-0.01l0.08-0.01l0,0
		c0.8-0.1,1.54-0.21,2.26-0.35l0,0l0.07-0.01c0.84-0.16,1.62-0.33,2.38-0.52l0.07-0.02l0,0c0.69-0.18,1.43-0.39,2.25-0.66l0.07-0.02
		l0-0.01c0.64-0.21,1.32-0.46,2.15-0.77l0,0l0.04-0.02c0.01,0,0.02-0.01,0.03-0.01l0.07-0.03l0,0c0.78-0.32,1.5-0.62,2.16-0.93
		l0.07-0.03l0-0.01c0.77-0.37,1.42-0.7,2.02-1.03l0,0l0.07-0.04l0.07-0.04l0,0c0.59-0.33,1.22-0.7,1.96-1.17l0,0l0.06-0.04
		l0.06-0.04l0,0c0.6-0.38,1.22-0.8,1.89-1.28l0,0.01l0.06-0.04c0.59-0.43,1.27-0.95,1.92-1.48l0.06-0.05l-0.01-0.01
		c0.53-0.45,1.09-0.94,1.7-1.51l0,0.01l0.05-0.05c0.58-0.54,1.13-1.1,1.66-1.66l0,0l0.05-0.06l0.05-0.05l0,0
		c0.6-0.65,1.1-1.21,1.56-1.76l0.05-0.06l-0.01-0.01c0.45-0.55,0.91-1.14,1.39-1.8l0.01,0.01l0.04-0.06c0.52-0.72,0.96-1.37,1.36-2
		l0.04-0.06l-0.01-0.01c0.48-0.76,0.85-1.38,1.17-1.96l0.01,0l0.04-0.07c0.34-0.61,0.68-1.28,1.07-2.09l0.01,0l0.03-0.07
		c0.34-0.73,0.65-1.44,0.93-2.16l0,0l0.03-0.07c0,0,0-0.01,0.01-0.01l0.02-0.06l0,0c0.27-0.67,0.52-1.38,0.77-2.14l0,0l0.02-0.07
		l0.02-0.07l0,0c0.25-0.79,0.46-1.51,0.64-2.19l0.01,0l0.02-0.07c0.18-0.71,0.35-1.46,0.5-2.29l0,0l0.01-0.07
		c0-0.02,0.01-0.05,0.01-0.07l0-0.01l0,0c0.13-0.7,0.24-1.43,0.35-2.25h0l0-0.01c0-0.02,0.01-0.04,0.01-0.06l0.01-0.08l0,0
		c0.1-0.82,0.17-1.56,0.22-2.28l0,0l0-0.07l0-0.08h0c0.05-0.84,0.08-1.61,0.08-2.35V428.42z"/>
	<path class="st3" d="M286.6,389.85c-0.74,0-1.51,0.03-2.35,0.08v0l-0.08,0l-0.07,0l0,0c-0.71,0.05-1.46,0.12-2.27,0.22l0,0
		l-0.07,0.01c0,0,0,0-0.01,0l-0.07,0.01l0,0c-0.8,0.1-1.54,0.21-2.26,0.35l0,0l-0.07,0.01c-0.86,0.16-1.63,0.33-2.38,0.52
		l-0.07,0.02l0,0c-0.7,0.18-1.44,0.39-2.25,0.66l-0.07,0.02l0,0.01c-0.65,0.21-1.33,0.46-2.15,0.77l0,0l-0.05,0.02
		c-0.01,0-0.01,0-0.02,0.01l-0.07,0.03l0,0c-0.79,0.32-1.5,0.62-2.16,0.93l-0.07,0.03l0,0.01c-0.82,0.39-1.49,0.74-2.09,1.07
		l-0.07,0.04l0,0.01c-0.59,0.33-1.22,0.7-1.95,1.17l0-0.01l-0.06,0.04c-0.62,0.39-1.26,0.82-1.94,1.32l0,0l-0.06,0.04
		c-0.01,0.01-0.02,0.01-0.03,0.02l-0.03,0.02l0,0c-0.59,0.43-1.21,0.9-1.81,1.39l0,0l-0.06,0.05l-0.06,0.05l0,0
		c-0.53,0.45-1.09,0.94-1.7,1.51l0,0l-0.05,0.05l-0.06,0.05l0,0c-0.56,0.52-1.1,1.07-1.61,1.61l-0.01-0.01l-0.05,0.06
		c-0.63,0.68-1.14,1.25-1.61,1.81l-0.05,0.06l0.01,0.01c-0.46,0.56-0.92,1.15-1.39,1.8l0,0l-0.04,0.06l-0.04,0.06l0,0
		c-0.49,0.68-0.93,1.32-1.32,1.94l-0.04,0.06l0.01,0c-0.47,0.75-0.85,1.38-1.17,1.97l-0.01,0l-0.04,0.07
		c-0.35,0.64-0.7,1.33-1.1,2.16l-0.03,0.07l0.01,0c-0.33,0.7-0.62,1.38-0.89,2.08l0,0l-0.03,0.07c-0.28,0.7-0.54,1.42-0.8,2.22
		l-0.01,0l-0.02,0.07c-0.27,0.82-0.48,1.56-0.66,2.26l0,0l-0.02,0.07l-0.02,0.07l0,0c-0.18,0.69-0.34,1.42-0.49,2.23l0,0l-0.01,0.07
		l-0.01,0.07l0,0c-0.13,0.69-0.24,1.43-0.35,2.25l0,0l-0.01,0.07l-0.01,0.08l0,0c-0.1,0.81-0.17,1.56-0.22,2.28l0,0l0,0.03
		c0,0.01,0,0.02,0,0.03l0,0.08l0,0c-0.05,0.79-0.07,1.56-0.08,2.27h0v0.08c0,0,0,0,0,0s0,0,0,0v0.08h0c0,0.72,0.03,1.48,0.08,2.26
		l0,0l0,0.08l0,0.07l0,0c0.05,0.71,0.12,1.46,0.22,2.27l0,0l0.01,0.07c0,0,0,0.01,0,0.01l0.01,0.07l0,0c0.1,0.8,0.22,1.54,0.35,2.26
		l0,0l0.01,0.07c0.16,0.86,0.33,1.64,0.52,2.38l0.02,0.07l0,0c0.17,0.67,0.38,1.39,0.64,2.18l0,0l0.02,0.07l0.02,0.07l0,0
		c0.22,0.66,0.47,1.36,0.8,2.21l0.03,0.07l0.01,0c0.3,0.74,0.6,1.45,0.9,2.1l0,0l0.03,0.05c0,0,0,0.01,0.01,0.01l0.03,0.07l0,0
		c0.37,0.77,0.7,1.42,1.03,2.02l0,0l0.04,0.07c0.34,0.62,0.73,1.27,1.24,2.08l0.04,0.06l0.01-0.01c0.38,0.6,0.81,1.23,1.29,1.89
		l-0.01,0l0.04,0.06c0.42,0.57,0.92,1.23,1.44,1.86l0,0l0.05,0.06l0.05,0.06l0,0c0.44,0.53,0.93,1.07,1.51,1.7l-0.01,0.01l0.05,0.05
		c0.54,0.58,1.12,1.16,1.71,1.71l0.05,0.05l0-0.01c0.61,0.57,1.17,1.07,1.71,1.52l0,0l0.06,0.05l0.06,0.05l0,0
		c0.56,0.46,1.15,0.91,1.81,1.39l0,0l0.06,0.04l0.06,0.04l0,0c0.66,0.48,1.28,0.9,1.88,1.28l0,0l0.06,0.04l0.06,0.04l0,0
		c0.77,0.49,1.41,0.87,2.02,1.2l0.07,0.04l0-0.01c0.6,0.33,1.25,0.66,2.03,1.03l0,0.01l0.07,0.03c0.74,0.34,1.49,0.67,2.23,0.96
		l0.07,0.03l4.33-10.92l0.03-0.07l-0.07-0.03c-0.55-0.22-1.03-0.43-1.48-0.63l0,0l-0.07-0.03c-0.47-0.22-0.96-0.47-1.5-0.77
		l-0.07-0.04l0,0c-0.41-0.23-0.85-0.49-1.38-0.82l-0.02-0.01c-0.46-0.3-0.93-0.61-1.37-0.94c-0.42-0.3-0.87-0.65-1.34-1.03
		l-0.01-0.01c-0.4-0.33-0.81-0.7-1.24-1.11l-0.05-0.05l0,0c-0.36-0.34-0.72-0.71-1.08-1.08l0,0l-0.05-0.05
		c-0.42-0.44-0.79-0.86-1.13-1.26c-0.3-0.37-0.61-0.77-0.99-1.28l0,0l-0.04-0.06c-0.37-0.5-0.68-0.95-0.95-1.39l-0.04-0.06l-0.01,0
		c-0.24-0.39-0.51-0.84-0.78-1.31l0,0l-0.04-0.07c-0.25-0.44-0.49-0.91-0.75-1.47l-0.01-0.03c-0.22-0.48-0.44-0.98-0.67-1.56
		l-0.03-0.07l-0.01,0c-0.18-0.48-0.37-0.99-0.54-1.52l0-0.01c-0.18-0.57-0.33-1.1-0.46-1.6l-0.01-0.06
		c-0.13-0.52-0.24-1.02-0.33-1.52l0,0l-0.02-0.07c-0.09-0.46-0.17-0.95-0.25-1.58h0l-0.01-0.08c-0.06-0.45-0.13-1.05-0.16-1.67
		l0-0.01c-0.04-0.57-0.06-1.12-0.06-1.68c0-0.56,0.02-1.13,0.06-1.68l0-0.06c0.03-0.58,0.1-1.16,0.15-1.6l0-0.02
		c0.08-0.63,0.16-1.12,0.25-1.58l0,0l0.01-0.08c0.1-0.55,0.21-1.09,0.36-1.65c0.12-0.47,0.27-0.98,0.45-1.55l0.01,0l0.02-0.07
		c0.16-0.5,0.34-1.01,0.54-1.51l0,0l0.03-0.07c0.23-0.57,0.45-1.08,0.67-1.55l0.03-0.07l0,0c0.26-0.54,0.48-0.97,0.7-1.36l0.01,0
		l0.04-0.07c0.24-0.45,0.52-0.92,0.86-1.45l0.04-0.06l0,0c0.3-0.47,0.61-0.92,0.91-1.33c0.32-0.45,0.66-0.88,1.03-1.34l0.05-0.06
		l0,0c0.3-0.35,0.64-0.73,1.03-1.15l0.01,0l0.05-0.06c0.37-0.4,0.76-0.79,1.17-1.17l0.02-0.02c0.44-0.42,0.85-0.79,1.26-1.13
		c0.37-0.31,0.78-0.63,1.28-0.98l0,0l0.06-0.04c0.43-0.31,0.87-0.62,1.33-0.91l0,0l0.06-0.04c0.52-0.33,1-0.61,1.45-0.86l0.07-0.04
		l0,0c0.55-0.29,1.01-0.53,1.43-0.73l0.07-0.03l0,0c0.45-0.2,0.93-0.41,1.48-0.63c0.52-0.21,1.05-0.4,1.58-0.57l0.07-0.02l0-0.01
		c0.46-0.14,0.99-0.31,1.55-0.45l0.06-0.02c0.51-0.13,1.03-0.23,1.52-0.33l0,0l0.07-0.01c0.6-0.11,1.13-0.19,1.64-0.26l0.01,0
		c0.67-0.08,1.18-0.13,1.67-0.16l0.01,0c0.57-0.04,1.12-0.06,1.68-0.06h0.08v-11.82H286.6z"/>
</g>
<circle class="st25" cx="325.25" cy="54.51" r="9.59"/>
<circle class="st25" cx="325.18" cy="165.94" r="9.59"/>
<circle class="st25" cx="327.53" cy="280.68" r="9.59"/>
<g>
	<g>
		<path class="st25" d="M333.39,49.42c6.32-7.42,15.72-12.12,26.23-12.12c13.09,0,24.48,7.31,30.31,18.07"/>
		<g>
			<polygon points="387.31,54.93 387.46,54.45 389.81,55.2 390.39,52.8 390.87,52.92 390.17,55.84 			"/>
		</g>
	</g>
</g>
<g>
	<g>
		<path class="st25" d="M333.39,160.95c6.32-7.42,15.72-12.12,26.23-12.12c13.09,0,24.48,7.31,30.31,18.07"/>
		<g>
			<polygon points="387.31,166.46 387.46,165.99 389.81,166.73 390.39,164.34 390.87,164.45 390.17,167.37 			"/>
		</g>
	</g>
</g>
<g>
	<g>
		<path class="st25" d="M333.39,272.49c6.32-7.42,15.72-12.12,26.23-12.12c13.09,0,24.48,7.31,30.31,18.07"/>
		<g>
			<polygon points="387.31,278 387.46,277.52 389.81,278.27 390.39,275.87 390.87,275.99 390.17,278.91 			"/>
		</g>
	</g>
</g>
</svg>
