<?xml version="1.0" encoding="utf-8"?>
<!-- Generator: Adobe Illustrator 27.3.1, SVG Export Plug-In . SVG Version: 6.00 Build 0)  -->
<svg version="1.1" id="Capa_1" xmlns="http://www.w3.org/2000/svg" xmlns:xlink="http://www.w3.org/1999/xlink" x="0px" y="0px"
	 viewBox="0 0 500 1600" style="enable-background:new 0 0 500 1600;" xml:space="preserve">
<style type="text/css">
	.st0{fill:none;stroke:#000000;stroke-linecap:round;stroke-miterlimit:10;}
	.st1{fill:none;stroke:#000000;stroke-linecap:round;stroke-miterlimit:10;stroke-dasharray:3.0051,4.0068;}
	.st2{fill:none;stroke:#000000;stroke-linecap:round;stroke-miterlimit:10;stroke-dasharray:3.0421,4.0561;}
	.st3{fill:none;stroke:#000000;stroke-linecap:round;stroke-miterlimit:10;stroke-dasharray:3.1037,4.1383;}
	.st4{fill:none;stroke:#000000;stroke-linecap:round;stroke-miterlimit:10;stroke-dasharray:3.0883,4.1177;}
	.st5{fill:#1D1D1B;}
	.st6{font-family:'Roboto-Light';}
	.st7{font-size:16px;}
	.st8{fill:#F96A33;}
	.st9{fill:#B4B4B3;}
	.st10{fill:#F9AE33;}
	.st11{fill:#DD6F53;}
	.st12{fill:#F2C5C1;}
	.st13{font-family:'Roboto-Regular';}
	.st14{fill:#FFFFFF;}
	.st15{fill:#4B4B4B;}
	.st16{fill:#757575;}
	.st17{fill:#CACACA;}
	.st18{fill:#474747;}
	.st19{fill:#767676;}
	.st20{fill:#191919;}
	.st21{fill:none;stroke:#000000;stroke-width:2;stroke-miterlimit:10;}
	.st22{font-family:'Roboto-Bold';}
	.st23{font-size:24px;}
	.st24{fill:none;stroke:#000000;stroke-width:0.75;stroke-linecap:round;stroke-miterlimit:10;}
</style>
<g>
	<g>
		<line class="st0" x1="150.7" y1="373.5" x2="151.5" y2="372.2"/>
		<line class="st1" x1="153.5" y1="368.7" x2="187.5" y2="309.7"/>
		<line class="st0" x1="188.5" y1="308" x2="189.2" y2="306.7"/>
	</g>
</g>
<g>
	<g>
		<line class="st0" x1="150.7" y1="722.3" x2="151.5" y2="721"/>
		<line class="st2" x1="153.5" y1="717.5" x2="195" y2="645.5"/>
		<line class="st0" x1="196.1" y1="643.8" x2="196.8" y2="642.5"/>
	</g>
</g>
<g>
	<g>
		<line class="st0" x1="150.7" y1="1068.7" x2="151.5" y2="1067.3"/>
		<line class="st3" x1="153.5" y1="1063.8" x2="199.5" y2="984"/>
		<line class="st0" x1="200.6" y1="982.2" x2="201.3" y2="980.9"/>
	</g>
</g>
<g>
	<g>
		<line class="st0" x1="249.8" y1="1454.3" x2="249.8" y2="1452.8"/>
		<line class="st4" x1="249.8" y1="1448.7" x2="250" y2="1407.5"/>
		<line class="st0" x1="250" y1="1405.4" x2="250" y2="1403.9"/>
	</g>
</g>
<g>
	<g>
		<g>
			<g>
				<text transform="matrix(1 0 0 1 206.0181 25.7218)" class="st5 st6 st7">Bronce</text>
			</g>
		</g>
		<g>
			<g>
				<text transform="matrix(1 0 0 1 130.9708 25.7218)" class="st5 st6 st7">Plata</text>
			</g>
		</g>
		<g>
			<g>
				<text transform="matrix(1 0 0 1 55.9239 25.6505)" class="st5 st6 st7">Oro</text>
			</g>
		</g>
		<circle class="st8" cx="191.6" cy="21.2" r="8.3"/>
		<circle class="st9" cx="116.5" cy="21.2" r="8.3"/>
		<circle class="st10" cx="41.5" cy="21.2" r="8.3"/>
	</g>
	<g>
		<g>
			<g>
				<text transform="matrix(1 0 0 1 411.9252 25.7218)" class="st5 st6 st7">Hombres</text>
			</g>
		</g>
		<g>
			<g>
				<text transform="matrix(1 0 0 1 324.3706 25.6505)" class="st5 st6 st7">Mujeres</text>
			</g>
		</g>
		<circle class="st11" cx="397.5" cy="21.2" r="8.3"/>
		<circle class="st12" cx="309.9" cy="21.2" r="8.3"/>
	</g>
</g>
<g>
	<g>
		<text transform="matrix(1 0 0 1 62.0367 633.5731)" class="st5 st13 st7">Canadá</text>
	</g>
	<g>
		<rect x="71.4" y="572.1" class="st14" width="30" height="38"/>
		<polyline class="st15" points="89.8,588.7 93.2,585.2 94.3,587.2 97.6,586.3 96.6,590.4 97.9,591.4 92.1,596.4 92.8,598.8 
			86.8,598 86.9,604.2 85.9,604.2 86,598 80.1,598.7 80.5,596.4 75,591.2 76.1,590.4 75.2,586.3 78.6,587.1 79.5,585.4 82.9,588.7 
			81.7,581.1 83.9,582.5 86.3,577.6 88.7,582.5 91.1,581.1 89.8,588.7 		"/>
		<rect x="56.4" y="572" class="st15" width="15" height="38.1"/>
		<rect x="101.4" y="572.1" class="st15" width="15" height="38.1"/>
	</g>
</g>
<g>
	<g>
		<text transform="matrix(1 0 0 1 47.8752 1323.4484)" class="st5 st13 st7">19 países</text>
		<text transform="matrix(1 0 0 1 49.5549 1339.4484)" class="st5 st13 st7">restantes</text>
	</g>
</g>
<g>
	<g>
		<text transform="matrix(1 0 0 1 76.4649 969.7839)" class="st5 st13 st7">Brasil</text>
	</g>
	<g>
		<g>
			<g>
				<rect x="56.4" y="905.2" class="st16" width="60" height="40.4"/>
			</g>
			<g>
				<polygon class="st17" points="61.5,925.4 86.4,910.1 111.3,925.4 86.4,940.7 				"/>
			</g>
			<g>
				<path class="st18" d="M86.4,935.5c5.8,0,10.5-4.5,10.5-10.1c0-5.6-4.7-10.1-10.5-10.1s-10.5,4.5-10.5,10.1
					S80.6,935.5,86.4,935.5z"/>
			</g>
			<g>
				<path class="st14" d="M76.2,923c1.3-0.2,2.6-0.3,3.9-0.3c6.2,0,11.9,2.1,16.3,5.6l0,0c0.2-0.6,0.3-1.2,0.4-1.7l0,0
					c-4.5-3.5-10.2-5.6-16.4-5.6c-1.2,0-2.4,0.1-3.5,0.2h0C76.6,921.7,76.4,922.3,76.2,923L76.2,923z"/>
			</g>
			<g>
				<g>
					<path class="st19" d="M78.2,921.8c0-0.2-0.2-0.3-0.3-0.3c-0.1,0-0.2,0.1-0.2,0.3c0,0.2,0.2,0.3,0.2,0.3
						C78.1,922.1,78.2,922.1,78.2,921.8l0.2,0c0,0.4-0.3,0.4-0.4,0.5c-0.1,0-0.4,0-0.4-0.4c0-0.4,0.3-0.4,0.4-0.5
						c0.1,0,0.4,0,0.4,0.4L78.2,921.8z"/>
				</g>
				<g>
					<path class="st19" d="M79.3,921.5c0.1,0,0.1,0.1,0.1,0.1c0,0.1,0,0.1-0.1,0.1h-0.2v-0.2H79.3l0-0.1l-0.4,0l0,0.8h0.2v-0.3h0.2
						c0.1,0,0.1,0,0.1,0.1c0,0.1,0,0.1,0,0.2h0.2v0c0,0,0,0,0-0.2c0-0.2,0-0.2-0.1-0.2c0.1,0,0.1-0.1,0.1-0.2c0-0.1-0.1-0.2-0.3-0.2
						L79.3,921.5z"/>
				</g>
				<g>
					<path class="st19" d="M80.5,921.5c0.1,0,0.2,0,0.2,0.3c0,0.1-0.1,0.3-0.2,0.3h-0.2v-0.5L80.5,921.5l0-0.2h-0.4v0.8h0.4
						c0.3,0,0.4-0.3,0.4-0.4s-0.1-0.4-0.3-0.4L80.5,921.5z"/>
				</g>
				<g>
					<polygon class="st19" points="82.1,921.6 81.6,921.5 81.6,921.7 82,921.7 82,921.9 81.6,921.8 81.6,922.1 82.1,922.1 
						82.1,922.2 81.4,922.2 81.5,921.4 82.1,921.4 					"/>
				</g>
				<g>
					<polygon class="st19" points="83.4,922.3 83.2,922.3 83.3,921.7 83.3,921.7 83.1,922.1 82.9,922.1 82.8,921.6 82.8,921.6 
						82.8,922.3 82.6,922.3 82.7,921.5 82.9,921.5 83.1,922 83.1,922 83.2,921.5 83.5,921.5 					"/>
				</g>
				<g>
					<polygon class="st19" points="85,922.2 84.7,922.1 84.7,922.2 84.9,922.2 84.9,922.3 84.7,922.3 84.6,922.5 84.9,922.5 
						84.9,922.6 84.5,922.5 84.6,922 85,922 					"/>
				</g>
				<g>
					<path class="st19" d="M86.5,922.5l0.2,0v0.1l-0.2,0l-0.1,0.3l-0.2,0l0.2-0.8l0.4,0.1c0.2,0,0.2,0.2,0.2,0.3
						c0,0.1-0.1,0.2-0.3,0.2v-0.1c0.1,0,0.1-0.1,0.2-0.1c0-0.1,0-0.1-0.1-0.1l-0.1,0L86.5,922.5"/>
				</g>
				<g>
					<path class="st19" d="M87.9,922.8l-0.2-0.1l0.1-0.2l0.2,0.1c0.1,0,0.1,0.1,0.1,0.1C88,922.8,88,922.8,87.9,922.8l-0.1,0.1
						c0.1,0,0.1,0.1,0.1,0.2c0,0.1,0,0.1,0,0.2l0.2,0.1v0c0,0,0-0.1,0-0.2c0-0.1,0-0.2,0-0.2c0.1,0,0.2-0.1,0.2-0.2
						c0-0.1,0-0.2-0.2-0.3l-0.4-0.1l-0.2,0.8l0.2,0l0.1-0.3l0.2,0.1L87.9,922.8z"/>
				</g>
				<g>
					<path class="st19" d="M88.8,923.2c-0.1,0.2,0,0.3,0.1,0.3c0.1,0,0.2,0,0.3-0.2c0.1-0.2,0-0.3-0.1-0.3
						C89.1,923,88.9,923,88.8,923.2l-0.2-0.1c0.1-0.4,0.4-0.3,0.5-0.3c0.1,0,0.4,0.2,0.2,0.5c-0.1,0.4-0.4,0.3-0.5,0.3
						c-0.1,0-0.4-0.2-0.2-0.5L88.8,923.2z"/>
				</g>
				<g>
					<path class="st19" d="M90.3,923.7l0.3,0.1l-0.2,0.4l-0.1,0l0-0.1c-0.1,0-0.2,0.1-0.3,0c-0.2-0.1-0.3-0.3-0.2-0.5
						c0.1-0.2,0.3-0.3,0.6-0.2c0.2,0.1,0.3,0.3,0.2,0.4l-0.2-0.1c0,0,0-0.1-0.1-0.2c-0.1,0-0.3,0-0.3,0.2c-0.1,0.2,0,0.3,0.1,0.3
						c0,0,0.2,0.1,0.3-0.1l-0.2-0.1L90.3,923.7z"/>
				</g>
				<g>
					<path class="st19" d="M91.5,924.2c0.1,0,0.1,0,0.2,0c0,0,0-0.1-0.1-0.1l-0.2-0.1l-0.1,0.2L91.5,924.2l-0.1,0.1l-0.2-0.1
						l-0.1,0.3l-0.2-0.1l0.4-0.7l0.4,0.2c0.2,0.1,0.2,0.3,0.1,0.3c0,0.1-0.1,0.1-0.2,0.1c0,0.1,0.1,0.1,0,0.2
						c-0.1,0.1-0.1,0.1,0,0.2v0l-0.2-0.1c0,0,0-0.1,0.1-0.2C91.6,924.3,91.6,924.3,91.5,924.2L91.5,924.2z"/>
				</g>
				<g>
					<polygon class="st19" points="93,924.7 92.6,924.5 92.5,924.6 92.9,924.8 92.8,924.9 92.4,924.7 92.3,924.9 92.7,925.1 
						92.7,925.2 92.1,925 92.5,924.2 93.1,924.5 					"/>
				</g>
				<g>
					<path class="st19" d="M93.4,925.3c0,0-0.1,0.1,0.1,0.2c0.1,0,0.2,0.1,0.2,0c0-0.1,0-0.1-0.1-0.2l-0.1-0.1
						c-0.1-0.1-0.2-0.2-0.1-0.3c0.1-0.1,0.2-0.2,0.4-0.1c0.2,0.1,0.2,0.3,0.1,0.4l-0.1-0.1c0,0,0-0.1-0.1-0.2c-0.1,0-0.1-0.1-0.2,0
						s0,0.1,0,0.1l0.1,0.1c0.1,0.1,0.2,0.2,0.1,0.3c-0.1,0.2-0.4,0.1-0.4,0.1c-0.3-0.2-0.2-0.3-0.2-0.4L93.4,925.3z"/>
				</g>
				<g>
					<path class="st19" d="M94.4,926c0,0-0.1,0.1,0.1,0.2c0.1,0,0.2,0.1,0.2,0c0-0.1,0-0.1-0.1-0.2l-0.1-0.1
						c-0.1-0.1-0.2-0.2-0.1-0.3c0.1-0.1,0.2-0.2,0.4,0c0.2,0.1,0.2,0.3,0.1,0.4l-0.1-0.1c0,0,0.1-0.1-0.1-0.2c-0.1,0-0.1-0.1-0.2,0
						s0,0.1,0,0.1l0.1,0.1c0.1,0.1,0.1,0.2,0.1,0.3c-0.1,0.2-0.4,0.1-0.4,0c-0.3-0.2-0.2-0.3-0.1-0.4L94.4,926z"/>
				</g>
				<g>
					<path class="st19" d="M95.4,926.5c-0.1,0.2-0.1,0.3,0,0.4c0.1,0.1,0.2,0.1,0.4-0.1s0.1-0.3,0-0.4
						C95.8,926.3,95.6,926.3,95.4,926.5l-0.1-0.1c0.2-0.3,0.5-0.2,0.6-0.1c0.1,0.1,0.3,0.3,0.1,0.6c-0.2,0.3-0.5,0.2-0.6,0.1
						c-0.1-0.1-0.3-0.3-0.1-0.6L95.4,926.5z"/>
				</g>
			</g>
			<g>
				<g>
					<polygon class="st14" points="82.5,930.2 82.4,930.5 82.1,930.5 82.3,930.8 82.2,931.1 82.5,930.9 82.8,931.1 82.7,930.8 
						83,930.5 82.6,930.5 					"/>
				</g>
				<g>
					<polygon class="st14" points="86.5,929.5 86.4,929.8 86.1,929.8 86.3,930 86.3,930.2 86.5,930 86.8,930.2 86.7,930 86.9,929.8 
						86.6,929.8 					"/>
				</g>
				<g>
					<polygon class="st14" points="92.6,930.7 92.5,930.9 92.3,930.9 92.5,931.1 92.4,931.3 92.6,931.2 92.8,931.3 92.7,931.1 
						92.9,930.9 92.7,930.9 					"/>
				</g>
				<g>
					<polygon class="st14" points="79.1,927.2 79,927.5 78.6,927.5 78.9,927.7 78.8,928 79.1,927.8 79.4,928 79.3,927.7 79.6,927.5 
						79.2,927.5 					"/>
				</g>
				<g>
					<polygon class="st14" points="77.9,923.1 77.8,923.4 77.4,923.4 77.8,923.6 77.6,924 77.9,923.7 78.2,924 78.1,923.6 
						78.4,923.4 78.1,923.4 					"/>
				</g>
				<g>
					<polygon class="st14" points="89.3,924.5 89.2,924.8 88.9,924.8 89.1,924.9 89,925.2 89.3,925 89.5,925.2 89.4,924.9 
						89.7,924.8 89.3,924.8 					"/>
				</g>
				<g>
					<polygon class="st14" points="89.8,921.5 89.7,921.8 89.4,921.8 89.6,922 89.5,922.2 89.8,922 90,922.2 89.9,922 90.2,921.8 
						89.8,921.8 					"/>
				</g>
				<g>
					<polygon class="st14" points="95.4,928.5 95.3,928.8 95,928.8 95.2,929 95.2,929.2 95.4,929 95.6,929.2 95.6,929 95.8,928.8 
						95.5,928.8 					"/>
				</g>
				<g>
					<polygon class="st14" points="94,928.4 93.9,928.8 93.5,928.8 93.8,929 93.7,929.3 94,929.1 94.3,929.3 94.2,929 94.5,928.8 
						94.1,928.8 					"/>
				</g>
				<g>
					<polygon class="st14" points="93.5,930.2 93.4,930.5 93,930.5 93.3,930.7 93.2,931 93.5,930.8 93.8,931 93.7,930.7 94,930.5 
						93.6,930.5 					"/>
				</g>
				<g>
					<polygon class="st14" points="94.2,929.5 94.1,929.8 93.7,929.8 94,930 93.9,930.3 94.2,930.1 94.5,930.3 94.4,930 94.7,929.8 
						94.3,929.8 					"/>
				</g>
				<g>
					<polygon class="st14" points="86.7,926.5 86.6,926.8 86.3,926.8 86.6,926.9 86.5,927.2 86.7,927 86.9,927.2 86.9,926.9 
						87.1,926.8 86.8,926.8 					"/>
				</g>
				<g>
					<polygon class="st14" points="87.9,927.7 87.8,927.9 87.5,927.9 87.7,928.1 87.6,928.4 87.9,928.2 88.1,928.4 88,928.1 
						88.3,927.9 88,927.9 					"/>
				</g>
				<g>
					<polygon class="st14" points="92,932.4 91.9,932.7 91.6,932.7 91.8,932.8 91.7,933.1 92,932.9 92.2,933.1 92.1,932.8 
						92.3,932.7 92.1,932.7 					"/>
				</g>
				<g>
					<polygon class="st14" points="91.8,930.8 91.7,931 91.4,931 91.6,931.2 91.6,931.4 91.8,931.2 91.9,931.4 91.9,931.2 92.1,931 
						91.8,931 					"/>
				</g>
				<g>
					<polygon class="st14" points="85.3,927.7 85.2,927.9 85,927.9 85.2,928 85.1,928.3 85.3,928.1 85.5,928.3 85.4,928 85.7,927.9 
						85.4,927.9 					"/>
				</g>
				<g>
					<polygon class="st14" points="82.8,925.5 82.8,925.8 82.5,925.8 82.7,925.9 82.6,926.1 82.8,926 83,926.1 82.9,925.9 
						83.1,925.8 82.9,925.8 					"/>
				</g>
				<g>
					<polygon class="st14" points="90.5,930.8 90.4,931 90.1,931 90.3,931.2 90.2,931.5 90.5,931.3 90.7,931.5 90.6,931.2 90.8,931 
						90.6,931 					"/>
				</g>
				<g>
					<polygon class="st14" points="88.8,930.8 88.8,931 88.4,931 88.7,931.2 88.6,931.5 88.8,931.3 89.1,931.5 89,931.2 89.2,931 
						88.9,931 					"/>
				</g>
				<g>
					<polygon class="st14" points="89.6,931.8 89.6,932.1 89.2,932.1 89.5,932.3 89.4,932.5 89.6,932.4 89.9,932.5 89.8,932.3 
						90,932.1 89.7,932.1 					"/>
				</g>
				<g>
					<polygon class="st14" points="91.9,931.5 91.8,931.8 91.6,931.8 91.8,932 91.7,932.2 91.9,932 92.2,932.2 92.1,932 92.3,931.8 
						92,931.8 					"/>
				</g>
				<g>
					<polygon class="st14" points="86.4,933 86.3,933.3 86.1,933.3 86.3,933.4 86.2,933.6 86.4,933.5 86.6,933.6 86.5,933.4 
						86.7,933.3 86.5,933.3 					"/>
				</g>
				<g>
					<polygon class="st14" points="86.1,928.4 86,928.5 85.8,928.5 86,928.7 85.9,928.8 86.1,928.7 86.2,928.8 86.2,928.7 
						86.3,928.5 86.1,928.5 					"/>
				</g>
				<g>
					<polygon class="st14" points="80.1,926.6 80.1,926.8 79.9,926.8 80,926.8 80,927 80.1,926.9 80.2,927 80.2,926.8 80.3,926.8 
						80.2,926.8 					"/>
				</g>
				<g>
					<polygon class="st14" points="80.4,928.2 80.4,928.5 80.1,928.5 80.3,928.7 80.2,928.9 80.4,928.8 80.7,928.9 80.6,928.7 
						80.8,928.5 80.6,928.5 					"/>
				</g>
				<g>
					<polygon class="st14" points="78.3,928.5 78.2,928.8 77.9,928.8 78.2,929 78.1,929.2 78.3,929.1 78.6,929.2 78.5,929 
						78.7,928.8 78.4,928.8 					"/>
				</g>
				<g>
					<polygon class="st14" points="79.9,929.5 79.8,929.7 79.7,929.7 79.8,929.8 79.8,929.9 79.9,929.8 80,929.9 80,929.8 
						80.1,929.7 79.9,929.7 					"/>
				</g>
			</g>
		</g>
	</g>
</g>
<g>
	<g>
		<g>
			<g>
				<rect x="56.4" y="159.1" class="st14" width="60" height="38.3"/>
			</g>
			<g>
				<g>
					<rect x="80.4" y="159.1" class="st15" width="36" height="3"/>
				</g>
				<g>
					<rect x="80.4" y="165" class="st15" width="36" height="3"/>
				</g>
				<g>
					<rect x="80.4" y="170.9" class="st15" width="36" height="3"/>
				</g>
				<g>
					<rect x="80.4" y="176.8" class="st15" width="36" height="3"/>
				</g>
				<g>
					<rect x="56.4" y="182.7" class="st15" width="60" height="3"/>
				</g>
				<g>
					<rect x="56.4" y="188.6" class="st15" width="60" height="3"/>
				</g>
				<g>
					<rect x="56.4" y="194.5" class="st15" width="60" height="3"/>
				</g>
			</g>
			<g>
				<rect x="56.4" y="159.1" class="st20" width="24" height="20.6"/>
			</g>
			<g>
				<g>
					<polygon class="st14" points="58.3,159.9 58.1,160.7 57.4,160.7 58,161.2 57.8,162 58.3,161.5 58.9,162 58.7,161.2 59.3,160.7 
						58.6,160.7 					"/>
				</g>
				<g>
					<polygon class="st14" points="62.4,159.9 62.2,160.7 61.5,160.7 62,161.2 61.8,162 62.4,161.5 63,162 62.7,161.2 63.3,160.7 
						62.6,160.7 					"/>
				</g>
				<g>
					<polygon class="st14" points="66.4,159.9 66.2,160.7 65.5,160.7 66.1,161.2 65.8,162 66.4,161.5 67,162 66.8,161.2 67.3,160.7 
						66.6,160.7 					"/>
				</g>
				<g>
					<polygon class="st14" points="70.4,159.9 70.2,160.7 69.5,160.7 70.1,161.2 69.8,162 70.4,161.5 71,162 70.8,161.2 71.3,160.7 
						70.7,160.7 					"/>
				</g>
				<g>
					<polygon class="st14" points="74.4,159.9 74.2,160.7 73.5,160.7 74.1,161.2 73.9,162 74.4,161.5 75,162 74.8,161.2 75.4,160.7 
						74.7,160.7 					"/>
				</g>
				<g>
					<polygon class="st14" points="78.5,159.9 78.2,160.7 77.6,160.7 78.1,161.2 77.9,162 78.5,161.5 79,162 78.8,161.2 79.4,160.7 
						78.7,160.7 					"/>
				</g>
				<g>
					<polygon class="st14" points="60.4,162 60.2,162.8 59.5,162.8 60,163.3 59.8,164.1 60.4,163.6 60.9,164.1 60.7,163.3 
						61.3,162.8 60.6,162.8 					"/>
				</g>
				<g>
					<polygon class="st14" points="64.4,162 64.2,162.8 63.5,162.8 64,163.3 63.8,164.1 64.4,163.6 64.9,164.1 64.7,163.3 
						65.3,162.8 64.6,162.8 					"/>
				</g>
				<g>
					<polygon class="st14" points="68.4,162 68.2,162.8 67.5,162.8 68.1,163.3 67.8,164.1 68.4,163.6 69,164.1 68.8,163.3 
						69.3,162.8 68.6,162.8 					"/>
				</g>
				<g>
					<polygon class="st14" points="72.4,162 72.2,162.8 71.5,162.8 72.1,163.3 71.9,164.1 72.4,163.6 73,164.1 72.8,163.3 
						73.3,162.8 72.7,162.8 					"/>
				</g>
				<g>
					<polygon class="st14" points="76.5,162 76.2,162.8 75.6,162.8 76.1,163.3 75.9,164.1 76.4,163.6 77,164.1 76.8,163.3 
						77.4,162.8 76.7,162.8 					"/>
				</g>
				<g>
					<polygon class="st14" points="58.3,164.1 58.1,164.9 57.4,164.9 58,165.4 57.8,166.2 58.3,165.7 58.9,166.2 58.7,165.4 
						59.3,164.9 58.6,164.9 					"/>
				</g>
				<g>
					<polygon class="st14" points="66.4,164.1 66.2,164.9 65.5,164.9 66.1,165.4 65.8,166.2 66.4,165.7 67,166.2 66.8,165.4 
						67.3,164.9 66.6,164.9 					"/>
				</g>
				<g>
					<polygon class="st14" points="70.4,164.1 70.2,164.9 69.5,164.9 70.1,165.4 69.8,166.2 70.4,165.7 71,166.2 70.8,165.4 
						71.3,164.9 70.7,164.9 					"/>
				</g>
				<g>
					<polygon class="st14" points="74.4,164.1 74.2,164.9 73.5,164.9 74.1,165.4 73.9,166.2 74.4,165.7 75,166.2 74.8,165.4 
						75.4,164.9 74.7,164.9 					"/>
				</g>
				<g>
					<polygon class="st14" points="78.5,164.1 78.2,164.9 77.6,164.9 78.1,165.4 77.9,166.2 78.5,165.7 79,166.2 78.8,165.4 
						79.4,164.9 78.7,164.9 					"/>
				</g>
				<g>
					<polygon class="st14" points="60.4,166.2 60.2,167 59.5,167 60,167.5 59.8,168.3 60.4,167.8 60.9,168.3 60.7,167.5 61.3,167 
						60.6,167 					"/>
				</g>
				<g>
					<polygon class="st14" points="64.4,166.2 64.2,167 63.5,167 64,167.5 63.8,168.3 64.4,167.8 64.9,168.3 64.7,167.5 65.3,167 
						64.6,167 					"/>
				</g>
				<g>
					<polygon class="st14" points="68.4,166.2 68.2,167 67.5,167 68.1,167.5 67.8,168.3 68.4,167.8 69,168.3 68.8,167.5 69.3,167 
						68.6,167 					"/>
				</g>
				<g>
					<polygon class="st14" points="72.4,166.2 72.2,167 71.5,167 72.1,167.5 71.9,168.3 72.4,167.8 73,168.3 72.8,167.5 73.3,167 
						72.7,167 					"/>
				</g>
				<g>
					<polygon class="st14" points="76.5,166.2 76.2,167 75.6,167 76.1,167.5 75.9,168.3 76.4,167.8 77,168.3 76.8,167.5 77.4,167 
						76.7,167 					"/>
				</g>
				<g>
					<polygon class="st14" points="58.3,168.3 58.1,169.1 57.4,169.1 58,169.6 57.8,170.4 58.3,169.9 58.9,170.4 58.7,169.6 
						59.3,169.1 58.6,169.1 					"/>
				</g>
				<g>
					<polygon class="st14" points="62.4,168.3 62.2,169.1 61.5,169.1 62,169.6 61.8,170.4 62.4,169.9 63,170.4 62.7,169.6 
						63.3,169.1 62.6,169.1 					"/>
				</g>
				<g>
					<polygon class="st14" points="66.4,168.3 66.2,169.1 65.5,169.1 66.1,169.6 65.8,170.4 66.4,169.9 67,170.4 66.8,169.6 
						67.3,169.1 66.6,169.1 					"/>
				</g>
				<g>
					<polygon class="st14" points="70.4,168.3 70.2,169.1 69.5,169.1 70.1,169.6 69.8,170.4 70.4,169.9 71,170.4 70.8,169.6 
						71.3,169.1 70.7,169.1 					"/>
				</g>
				<g>
					<polygon class="st14" points="74.4,168.3 74.2,169.1 73.5,169.1 74.1,169.6 73.9,170.4 74.4,169.9 75,170.4 74.8,169.6 
						75.4,169.1 74.7,169.1 					"/>
				</g>
				<g>
					<polygon class="st14" points="78.5,168.3 78.2,169.1 77.6,169.1 78.1,169.6 77.9,170.4 78.5,169.9 79,170.4 78.8,169.6 
						79.4,169.1 78.7,169.1 					"/>
				</g>
				<g>
					<polygon class="st14" points="60.4,170.4 60.2,171.3 59.5,171.3 60,171.7 59.8,172.6 60.4,172.1 60.9,172.6 60.7,171.7 
						61.3,171.3 60.6,171.3 					"/>
				</g>
				<g>
					<polygon class="st14" points="64.4,170.4 64.2,171.3 63.5,171.3 64,171.7 63.8,172.6 64.4,172.1 64.9,172.6 64.7,171.7 
						65.3,171.3 64.6,171.3 					"/>
				</g>
				<g>
					<polygon class="st14" points="68.4,170.4 68.2,171.3 67.5,171.3 68.1,171.7 67.8,172.6 68.4,172.1 69,172.6 68.8,171.7 
						69.3,171.3 68.6,171.3 					"/>
				</g>
				<g>
					<polygon class="st14" points="72.4,170.4 72.2,171.3 71.5,171.3 72.1,171.7 71.9,172.6 72.4,172.1 73,172.6 72.8,171.7 
						73.3,171.3 72.7,171.3 					"/>
				</g>
				<g>
					<polygon class="st14" points="58.3,172.6 58.1,173.4 57.4,173.4 58,173.9 57.8,174.7 58.3,174.2 58.9,174.7 58.7,173.9 
						59.3,173.4 58.6,173.4 					"/>
				</g>
				<g>
					<polygon class="st14" points="62.4,172.6 62.2,173.4 61.5,173.4 62,173.9 61.8,174.7 62.4,174.2 63,174.7 62.7,173.9 
						63.3,173.4 62.6,173.4 					"/>
				</g>
				<g>
					<polygon class="st14" points="66.4,172.6 66.2,173.4 65.5,173.4 66.1,173.9 65.8,174.7 66.4,174.2 67,174.7 66.8,173.9 
						67.3,173.4 66.6,173.4 					"/>
				</g>
				<g>
					<polygon class="st14" points="70.4,172.6 70.2,173.4 69.5,173.4 70.1,173.9 69.8,174.7 70.4,174.2 71,174.7 70.8,173.9 
						71.3,173.4 70.7,173.4 					"/>
				</g>
				<g>
					<polygon class="st14" points="74.4,172.6 74.2,173.4 73.5,173.4 74.1,173.9 73.9,174.7 74.4,174.2 75,174.7 74.8,173.9 
						75.4,173.4 74.7,173.4 					"/>
				</g>
				<g>
					<polygon class="st14" points="78.5,172.6 78.2,173.4 77.6,173.4 78.1,173.9 77.9,174.7 78.5,174.2 79,174.7 78.8,173.9 
						79.4,173.4 78.7,173.4 					"/>
				</g>
				<g>
					<polygon class="st14" points="60.4,174.7 60.2,175.5 59.5,175.5 60,176 59.8,176.8 60.4,176.3 60.9,176.8 60.7,176 61.3,175.5 
						60.6,175.5 					"/>
				</g>
				<g>
					<polygon class="st14" points="64.4,174.7 64.2,175.5 63.5,175.5 64,176 63.8,176.8 64.4,176.3 64.9,176.8 64.7,176 65.3,175.5 
						64.6,175.5 					"/>
				</g>
				<g>
					<polygon class="st14" points="68.4,174.7 68.2,175.5 67.5,175.5 68.1,176 67.8,176.8 68.4,176.3 69,176.8 68.8,176 69.3,175.5 
						68.6,175.5 					"/>
				</g>
				<g>
					<polygon class="st14" points="72.4,174.7 72.2,175.5 71.5,175.5 72.1,176 71.9,176.8 72.4,176.3 73,176.8 72.8,176 73.3,175.5 
						72.7,175.5 					"/>
				</g>
				<g>
					<polygon class="st14" points="76.5,174.7 76.2,175.5 75.6,175.5 76.1,176 75.9,176.8 76.4,176.3 77,176.8 76.8,176 77.4,175.5 
						76.7,175.5 					"/>
				</g>
				<g>
					<polygon class="st14" points="58.3,176.8 58.1,177.6 57.4,177.6 58,178.1 57.8,178.9 58.3,178.4 58.9,178.9 58.7,178.1 
						59.3,177.6 58.6,177.6 					"/>
				</g>
				<g>
					<polygon class="st14" points="62.4,176.8 62.2,177.6 61.5,177.6 62,178.1 61.8,178.9 62.4,178.4 63,178.9 62.7,178.1 
						63.3,177.6 62.6,177.6 					"/>
				</g>
				<g>
					<polygon class="st14" points="66.4,176.8 66.2,177.6 65.5,177.6 66.1,178.1 65.8,178.9 66.4,178.4 67,178.9 66.8,178.1 
						67.3,177.6 66.6,177.6 					"/>
				</g>
				<g>
					<polygon class="st14" points="70.4,176.8 70.2,177.6 69.5,177.6 70.1,178.1 69.8,178.9 70.4,178.4 71,178.9 70.8,178.1 
						71.3,177.6 70.7,177.6 					"/>
				</g>
				<g>
					<polygon class="st14" points="74.4,176.8 74.2,177.6 73.5,177.6 74.1,178.1 73.9,178.9 74.4,178.4 75,178.9 74.8,178.1 
						75.4,177.6 74.7,177.6 					"/>
				</g>
				<g>
					<polygon class="st14" points="78.5,176.8 78.2,177.6 77.6,177.6 78.1,178.1 77.9,178.9 78.5,178.4 79,178.9 78.8,178.1 
						79.4,177.6 78.7,177.6 					"/>
				</g>
				<g>
					<polygon class="st14" points="62.4,164.1 62.2,164.9 61.5,164.9 62,165.4 61.8,166.2 62.4,165.7 63,166.2 62.7,165.4 
						63.3,164.9 62.6,164.9 					"/>
				</g>
				<g>
					<polygon class="st14" points="76.4,170.4 76.2,171.3 75.5,171.3 76.1,171.7 75.9,172.6 76.4,172.1 77,172.6 76.8,171.7 
						77.4,171.3 76.7,171.3 					"/>
				</g>
			</g>
		</g>
	</g>
	<g>
		<text transform="matrix(1 0 0 1 58.7423 219.8143)" class="st5 st13 st7">Estados</text>
		<text transform="matrix(1 0 0 1 66.9323 239.0142)" class="st5 st13 st7">Unidos</text>
	</g>
</g>
<g>
	<path class="st21" d="M250,79.5c67.2,0,121.7,54.5,121.7,121.7S317.2,322.9,250,322.9s-121.7-54.5-121.7-121.7S182.8,79.5,250,79.5
		L250,79.5"/>
	<text transform="matrix(1 0 0 1 229.3457 208.2138)" class="st5 st22 st23">742</text>
</g>
<text transform="matrix(1 0 0 1 195.3523 387.169)" class="st5 st6 st7">47%</text>
<text transform="matrix(1 0 0 1 408.3141 443.463)" class="st5 st6 st7">53%</text>
<text transform="matrix(1 0 0 1 377.9651 844.2013)" class="st5 st6 st7">80%</text>
<text transform="matrix(1 0 0 1 352.98 1066.8081)" class="st5 st6 st7">5%</text>
<text transform="matrix(1 0 0 1 317.0923 1199.8021)" class="st5 st6 st7">95%</text>
<text transform="matrix(1 0 0 1 259.7868 431.3965)" class="st5 st6 st7">47%</text>
<text transform="matrix(1 0 0 1 314.7112 721.8271)" class="st5 st6 st7">10%</text>
<text transform="matrix(1 0 0 1 85.2976 490.8106)" class="st5 st6 st7">34%</text>
<text transform="matrix(1 0 0 1 92.1453 379.6426)" class="st5 st6 st7">19%</text>
<text transform="matrix(1 0 0 1 285.6634 1465.0621)" class="st5 st6 st7">19%</text>
<text transform="matrix(1 0 0 1 289.9867 1567.899)" class="st5 st6 st7">36%</text>
<text transform="matrix(1 0 0 1 163.3734 1491.5895)" class="st5 st6 st7">46%</text>
<g>
	<text transform="matrix(1 0 0 1 195.8997 733.4765)" class="st5 st6 st7">24%</text>
</g>
<text transform="matrix(1 0 0 1 204.7864 817.1435)" class="st5 st6 st7">13%</text>
<text transform="matrix(1 0 0 1 73.4534 826.834)" class="st5 st6 st7">63%</text>
<g>
	<text transform="matrix(1 0 0 1 198.9302 1081.1703)" class="st5 st6 st7">30%</text>
</g>
<text transform="matrix(1 0 0 1 171.5073 1195.5248)" class="st5 st6 st7">29%</text>
<text transform="matrix(1 0 0 1 64.563 1111.7211)" class="st5 st6 st7">41%</text>
<g>
	<path class="st21" d="M250,539.9c35.9,0,65.1,29.1,65.1,65.1S285.9,670,250,670s-65.1-29.1-65.1-65.1S214.1,539.9,250,539.9
		L250,539.9"/>
	<g>
		<text transform="matrix(1 0 0 1 229.3459 611.9938)" class="st5 st22 st23">212</text>
	</g>
</g>
<g>
	<path class="st21" d="M250,1249.6c42.6,0,77.1,34.5,77.1,77.1s-34.5,77.1-77.1,77.1s-77.1-34.5-77.1-77.1
		C172.9,1284.2,207.4,1249.6,250,1249.6L250,1249.6"/>
	<g>
		<text transform="matrix(1 0 0 1 229.3459 1333.7842)" class="st5 st22 st23">230</text>
	</g>
</g>
<g>
	<path class="st21" d="M250,875.8c35.2,0,63.8,28.6,63.8,63.8c0,35.2-28.6,63.8-63.8,63.8s-63.8-28.6-63.8-63.8
		S214.8,875.8,250,875.8L250,875.8"/>
	<g>
		<text transform="matrix(1 0 0 1 229.3459 946.644)" class="st5 st22 st23">204</text>
	</g>
</g>
<g>
	<path class="st8" d="M150.9,373.5c-1.1,0-2.3,0-3.5,0.1l0,0h-0.1h-0.1l0,0c-1.1,0.1-2.2,0.2-3.4,0.3l0,0l-0.1,0h0l-0.1,0l0,0
		c-1.2,0.1-2.3,0.3-3.4,0.5l0,0l-0.1,0c-1.3,0.2-2.5,0.5-3.6,0.8l-0.1,0l0,0c-1,0.3-2.1,0.6-3.4,1l-0.1,0v0c-1,0.3-2,0.7-3.2,1.1
		l0,0l-0.1,0c0,0,0,0,0,0l-0.1,0l0,0c-1.1,0.5-2.2,0.9-3.2,1.4l-0.1,0v0c-1.2,0.6-2.2,1.1-3.1,1.6l-0.1,0.1v0
		c-0.9,0.5-1.8,1-2.9,1.8v0l-0.1,0.1c-0.9,0.6-1.9,1.2-2.9,2l0,0l-0.1,0.1c0,0,0,0,0,0l0,0l0,0c-0.8,0.6-1.8,1.3-2.7,2.1l0,0
		l-0.1,0.1l0,0l-0.1,0.1l0,0c-0.8,0.7-1.6,1.4-2.6,2.3l0,0l-0.1,0.1l-0.1,0.1l0,0c-0.8,0.8-1.7,1.6-2.4,2.4l0,0l-0.1,0.1
		c-0.9,1-1.7,1.9-2.4,2.7l-0.1,0.1l0,0c-0.7,0.8-1.4,1.7-2.1,2.7l0,0l-0.1,0.1l-0.1,0.1l0,0c-0.7,1-1.4,2-2,2.9l-0.1,0.1h0
		c-0.7,1.1-1.3,2-1.8,2.9l0,0l-0.1,0.1c-0.5,1-1.1,2-1.7,3.2l0,0.1h0c-0.5,1.1-1,2.2-1.4,3.2l0,0.1l16.4,6.5l0.1,0l0-0.1
		c0.3-0.9,0.7-1.6,1-2.3l0-0.1h0c0.3-0.7,0.7-1.4,1.1-2h0l0.1-0.1c0.4-0.7,0.8-1.4,1.3-2.2l0.1-0.1l0,0c0.4-0.7,0.9-1.4,1.4-2l0,0
		c0.5-0.7,1-1.3,1.5-2l0.1-0.1l0,0c0.4-0.5,1-1.1,1.5-1.7h0l0.1-0.1c0.6-0.6,1.2-1.2,1.8-1.8l0.1-0.1l0,0c0.6-0.6,1.2-1.1,1.8-1.6
		c0.6-0.5,1.2-1,2-1.5l0,0c0.6-0.5,1.3-0.9,2-1.4l0,0l0.1-0.1c0.8-0.5,1.5-0.9,2.2-1.3l0.1-0.1l0,0c0.8-0.4,1.5-0.8,2.1-1.1l0.1,0
		l0,0c0.7-0.3,1.4-0.6,2.2-1c0.8-0.3,1.6-0.6,2.4-0.9l0.1,0v0c0.7-0.2,1.5-0.5,2.3-0.7l0.1,0c0.8-0.2,1.5-0.4,2.3-0.5l0,0l0.1,0
		c0.9-0.2,1.7-0.3,2.5-0.4h0c1-0.1,1.7-0.2,2.4-0.2l0,0l0.1,0c0.8-0.1,1.7-0.1,2.5-0.1h0.1v-17.7L150.9,373.5L150.9,373.5
		L150.9,373.5z"/>
	<path class="st10" d="M208.8,431.3L208.8,431.3c0-1.1-0.1-2.2-0.1-3.4h0v-0.1c-0.1-1.1-0.2-2.3-0.3-3.5l0,0l0-0.1c0,0,0-0.1,0-0.1
		v0l0,0c-0.1-1.2-0.3-2.3-0.5-3.4l0,0l0-0.1l0,0l0-0.1l0,0c-0.2-1.2-0.5-2.3-0.7-3.4l0,0l0-0.1l0-0.1l0,0c-0.3-1.1-0.6-2.2-1-3.4
		l0-0.1h0c-0.3-1-0.7-2-1.1-3.2l0,0l0-0.1c0,0,0,0,0,0l0-0.1l0,0c-0.5-1.1-0.9-2.2-1.4-3.2l0-0.1h0c-0.6-1.2-1.1-2.2-1.6-3.1
		l-0.1-0.1h0c-0.5-0.9-1.1-1.9-1.8-3l-0.1-0.1l0,0c-0.6-0.9-1.2-1.8-1.9-2.8l0,0l-0.1-0.1c-0.6-0.9-1.4-1.9-2.2-2.9l-0.1-0.1l0,0
		c-0.7-0.8-1.4-1.6-2.3-2.5l0,0l-0.1-0.1c-0.8-0.9-1.6-1.7-2.5-2.5l0,0l-0.1-0.1l-0.1-0.1l0,0c-0.9-0.9-1.8-1.6-2.6-2.3l-0.1-0.1
		l0,0c-0.8-0.7-1.7-1.4-2.7-2.1v0l-0.1-0.1c-1.1-0.8-2-1.4-3-2l-0.1-0.1v0c-1.1-0.7-2.1-1.3-2.9-1.8l0,0l-0.1-0.1l-0.1-0.1l0,0
		c-0.9-0.5-1.9-1-3-1.5l0,0l-0.1,0c0,0,0,0,0,0l-0.1,0l0,0c-1-0.5-2.1-0.9-3.1-1.4v0l-0.1,0c-1.1-0.4-2.1-0.8-3.3-1.2l0,0l-0.1,0
		l-0.1,0l0,0c-1.2-0.4-2.3-0.7-3.3-1v0l-0.1,0c-1.1-0.3-2.2-0.5-3.4-0.8l0,0l-0.1,0c-1.1-0.2-2.3-0.4-3.6-0.5l-0.1,0l0,0
		c-1.2-0.1-2.3-0.3-3.4-0.3l0,0h-0.1h-0.1l0,0c-1.3-0.1-2.4-0.1-3.5-0.1h-0.1v17.7h0.1c0.9,0,1.7,0,2.5,0.1h0c0.7,0,1.5,0.1,2.5,0.2
		l0.1,0l0,0c0.7,0.1,1.4,0.2,2.3,0.4l0,0l0.1,0c0.8,0.1,1.6,0.3,2.4,0.5v0l0.1,0c0.8,0.2,1.5,0.4,2.3,0.7l0,0l0.1,0
		c0.8,0.2,1.5,0.5,2.3,0.8l0,0l0.1,0c0.8,0.3,1.5,0.6,2.3,1c0.8,0.4,1.5,0.8,2.2,1.1l0,0c0.6,0.4,1.3,0.8,2.2,1.3l0.1,0.1l0,0
		c0.6,0.4,1.2,0.8,1.9,1.3l0,0l0.1,0.1c0.8,0.5,1.4,1,2,1.5l0.1,0.1l0,0c0.6,0.5,1.1,1,1.7,1.5l0,0l0.1,0.1c0.6,0.5,1.1,1.1,1.7,1.7
		l0,0l0.1,0.1c0.5,0.6,1.1,1.1,1.7,1.9l0.1,0.1l0,0c0.5,0.6,1,1.2,1.4,1.8l0,0l0.1,0.1c0.6,0.7,1.1,1.5,1.4,2.1l0.1,0.1h0
		c0.5,0.8,0.9,1.4,1.2,2.1l0.1,0.1l0,0c0.4,0.8,0.8,1.5,1.1,2.1l0,0.1l0,0c0.3,0.7,0.6,1.4,0.9,2.2l0,0c0.3,0.8,0.6,1.6,0.9,2.4
		l0,0.1h0l0,0.1c0.2,0.7,0.4,1.5,0.6,2.2l0,0c0.2,0.9,0.4,1.7,0.5,2.5v0c0.2,0.9,0.3,1.6,0.4,2.4l0,0l0,0.1c0.1,0.7,0.2,1.5,0.2,2.4
		h0v0.1c0.1,0.8,0.1,1.7,0.1,2.5v0.1h0c0,0.8,0,1.6-0.1,2.4l0,0c-0.1,0.9-0.1,1.8-0.2,2.5l0,0.1l0,0c-0.1,0.7-0.2,1.4-0.4,2.3l0,0
		c-0.1,0.8-0.3,1.6-0.5,2.4h0l0,0.1c-0.2,0.8-0.4,1.5-0.7,2.4v0c-0.3,0.8-0.6,1.6-0.9,2.4l0,0c-0.3,0.8-0.6,1.5-0.9,2.2l0,0l0,0.1
		c-0.3,0.7-0.7,1.4-1.1,2.2h0l-0.1,0.1c-0.4,0.7-0.8,1.5-1.3,2.2l-0.1,0.1l0,0c-0.4,0.5-0.8,1.2-1.3,1.9h0l-0.1,0.1
		c-0.6,0.8-1.1,1.4-1.5,2l-0.1,0.1l0,0c-0.4,0.5-1,1.1-1.6,1.8l0,0c-0.5,0.6-1.1,1.1-1.7,1.7l0,0l-0.1,0.1c-0.6,0.6-1.3,1.2-1.9,1.7
		l-0.1,0.1l0,0c-0.7,0.6-1.3,1-1.8,1.4l0,0l-0.1,0.1c-0.6,0.5-1.3,0.9-2.1,1.4l0,0c-0.8,0.5-1.5,0.9-2.2,1.3l0,0
		c-0.7,0.4-1.5,0.8-2.2,1.1l-0.1,0l0,0c-0.8,0.4-1.5,0.7-2.2,1c-0.8,0.3-1.6,0.6-2.4,0.9l-0.1,0v0c-0.8,0.3-1.6,0.5-2.3,0.7l-0.1,0
		l0,0c-0.8,0.2-1.5,0.4-2.4,0.5l-0.1,0l3.3,17.3l0,0.1l0.1,0c1.3-0.2,2.4-0.5,3.6-0.8l0.1,0l0,0c1.1-0.3,2.1-0.6,3.4-1l0.1,0v0
		c1-0.3,2-0.7,3.2-1.1l0,0l0.1,0c0,0,0,0,0,0l0.1,0l0,0c1.1-0.5,2.2-0.9,3.2-1.4l0.1,0v0c1.2-0.6,2.1-1.1,3-1.5l0,0l0.1-0.1l0.1-0.1
		l0,0c0.9-0.5,1.8-1,2.9-1.8l0,0l0.1-0.1l0.1-0.1l0,0c0.9-0.6,1.8-1.2,2.8-1.9v0l0.1-0.1c0.9-0.6,1.9-1.4,2.9-2.2l0.1-0.1l0,0
		c0.8-0.7,1.6-1.4,2.6-2.3l0,0l0.1-0.1c0.9-0.8,1.7-1.6,2.5-2.5l0,0l0.1-0.1l0.1-0.1l0,0c0.9-1,1.7-1.8,2.3-2.6l0.1-0.1l0,0
		c0.7-0.8,1.4-1.7,2.1-2.7l0,0l0.1-0.1c0.8-1.1,1.4-2,2-3l0.1-0.1l0,0c0.7-1.1,1.3-2.1,1.8-2.9l0,0l0.1-0.1c0.5-0.9,1-1.9,1.6-3.1h0
		l0-0.1c0.5-1.1,1-2.2,1.4-3.2l0,0l0-0.1c0,0,0,0,0,0l0-0.1l0,0c0.4-1,0.8-2.1,1.1-3.2l0,0l0-0.1l0-0.1l0,0c0.4-1.2,0.7-2.3,1-3.3h0
		l0-0.1c0.3-1.1,0.5-2.2,0.8-3.4l0,0l0-0.1c0,0,0-0.1,0-0.1v0l0,0c0.2-1,0.4-2.1,0.5-3.4l0,0v0c0,0,0,0,0-0.1l0-0.1l0,0
		c0.1-1.2,0.3-2.3,0.3-3.4l0,0v-0.1c0,0,0,0,0,0V435l0,0c0.1-1.3,0.1-2.4,0.1-3.5L208.8,431.3L208.8,431.3L208.8,431.3z"/>
	<path class="st9" d="M161.8,488.3l-3.3-17.3l0-0.1l-0.1,0c-0.9,0.2-1.7,0.3-2.5,0.4c-0.8,0.1-1.5,0.2-2.5,0.2l0,0
		c-0.8,0-1.7,0.1-2.5,0.1c-0.9,0-1.7,0-2.5-0.1l0,0c-1-0.1-1.8-0.1-2.5-0.2l-0.1,0l0,0c-0.7-0.1-1.5-0.2-2.3-0.4l-0.1,0
		c-0.8-0.2-1.6-0.3-2.4-0.5v0l-0.1,0c-0.7-0.2-1.5-0.4-2.4-0.7l-0.1,0c-0.8-0.2-1.5-0.5-2.3-0.8l0,0l-0.1,0c-0.8-0.3-1.5-0.6-2.2-1
		l0,0l-0.1,0c-0.7-0.3-1.4-0.7-2.2-1.1l-0.1-0.1l0,0c-0.6-0.4-1.3-0.8-2.1-1.2h0c-0.6-0.4-1.3-0.9-2-1.4l0,0c-0.6-0.5-1.3-1-2-1.5
		l0,0c-0.6-0.5-1.2-1-1.9-1.7l-0.1-0.1l0,0c-0.5-0.5-1.1-1.1-1.6-1.6l0,0l-0.1-0.1c-0.6-0.7-1.2-1.3-1.7-1.9l0,0
		c-0.4-0.5-0.9-1.1-1.5-1.9l0,0l-0.1-0.1c-0.6-0.8-1-1.4-1.4-2.1l-0.1-0.1h0c-0.4-0.6-0.8-1.3-1.2-2l0,0l-0.1-0.1
		c-0.4-0.7-0.7-1.4-1.1-2.2l0,0c-0.3-0.7-0.7-1.5-1-2.3l0-0.1h0c-0.3-0.7-0.6-1.5-0.8-2.3v0c-0.3-0.9-0.5-1.6-0.7-2.4l0-0.1
		c-0.2-0.8-0.4-1.5-0.5-2.3l0,0l0-0.1c-0.1-0.7-0.3-1.4-0.4-2.4l0,0l0-0.1c-0.1-0.7-0.2-1.6-0.2-2.5v0c-0.1-0.9-0.1-1.7-0.1-2.5
		s0-1.7,0.1-2.5v-0.1c0-0.9,0.2-1.8,0.2-2.4c0.1-0.9,0.2-1.7,0.4-2.4l0,0l0-0.1c0.2-0.8,0.3-1.6,0.5-2.5l0,0
		c0.2-0.7,0.4-1.5,0.7-2.3h0l0-0.1c0.3-0.8,0.5-1.6,0.9-2.4l0-0.1L97.1,410l-0.1,0l0,0.1c-0.4,1-0.8,2.1-1.2,3.3h0l0,0.1
		c-0.4,1.2-0.7,2.3-1,3.4l0,0l0,0.1l0,0.1l0,0c-0.3,1-0.5,2.1-0.7,3.4l0,0l0,0.1c0,0,0,0,0,0l0,0.1l0,0c-0.2,1-0.4,2.1-0.5,3.4l0,0
		l0,0.1l0,0.1l0,0c-0.2,1.2-0.2,2.3-0.3,3.4l0,0v0.1c0,0,0,0,0,0v0.1l0,0c-0.1,1.2-0.1,2.3-0.1,3.4l0,0v0.1c0,0,0,0,0,0c0,0,0,0,0,0
		v0.1l0,0c0,1.1,0,2.2,0.1,3.4l0,0v0.1l0,0v0.1l0,0c0.1,1.1,0.2,2.2,0.3,3.4l0,0l0,0.1l0,0.1l0,0c0.2,1.2,0.3,2.3,0.5,3.4l0,0l0,0.1
		c0.2,1.3,0.5,2.5,0.8,3.6l0,0.1l0,0c0.2,1,0.6,2.1,1,3.3l0,0l0,0.1l0,0.1l0,0c0.3,1,0.7,2,1.2,3.3l0,0.1h0c0.4,1.1,0.9,2.2,1.3,3.1
		l0,0l0,0.1c0,0,0,0,0,0l0,0.1l0,0c0.6,1.1,1.1,2.1,1.5,3l0,0l0.1,0.1c0.5,0.9,1.1,1.9,1.9,3.1l0.1,0.1l0,0c0.6,0.9,1.2,1.9,1.9,2.8
		h0l0.1,0.1c0.6,0.9,1.4,1.9,2.2,2.8l0,0l0.1,0.1l0,0l0.1,0.1l0,0c0.7,0.8,1.4,1.6,2.3,2.5l0,0l0.1,0.1c0.8,0.9,1.7,1.7,2.6,2.6
		l0.1,0.1l0,0c0.9,0.9,1.8,1.6,2.6,2.3l0,0l0.1,0.1l0,0l0.1,0.1l0,0c0.8,0.7,1.7,1.4,2.7,2.1l0,0l0.1,0.1l0.1,0.1l0,0
		c1,0.7,1.9,1.4,2.8,1.9l0,0l0.1,0.1l0.1,0.1l0,0c1.2,0.7,2.1,1.3,3,1.8l0.1,0.1v0c0.9,0.5,1.9,1,3,1.5v0l0.1,0
		c1.1,0.5,2.1,1,3.2,1.4v0l0.1,0c1,0.4,2.1,0.8,3.3,1.2l0,0l0.1,0l0.1,0l0,0c1.2,0.4,2.3,0.7,3.3,1v0l0.1,0c1.1,0.3,2.2,0.5,3.4,0.8
		l0,0l0.1,0c1.1,0.2,2.3,0.4,3.6,0.6l0.1,0l0,0c1.2,0.1,2.3,0.3,3.4,0.3l0,0h0.1h0.1l0,0c1.2,0.1,2.3,0.1,3.4,0.1l0,0h0.1h0.1l0,0
		c1.1,0,2.2,0,3.4-0.1l0,0h0.1h0.1l0,0c1.1-0.1,2.2-0.2,3.4-0.3l0,0l0.1,0l0.1,0l0,0C159.5,488.8,160.6,488.6,161.8,488.3
		L161.8,488.3z"/>
</g>
<g>
	<path class="st12" d="M406.6,431.3L406.6,431.3c0-1.1-0.1-2.2-0.1-3.4h0v-0.1c-0.1-1.1-0.2-2.3-0.3-3.5l0,0l0-0.1c0,0,0-0.1,0-0.1
		v0l0,0c-0.1-1.2-0.3-2.3-0.5-3.4l0,0l0-0.1l0,0l0-0.1l0,0c-0.2-1.2-0.5-2.4-0.8-3.5l0-0.1h0c-0.3-1-0.6-2.1-1-3.3l0,0l0-0.1l0-0.1
		l0,0c-0.3-1-0.7-2-1.2-3.3l0-0.1h0c-0.5-1.1-0.9-2.2-1.4-3.1h0l0-0.1c-0.6-1.3-1.1-2.3-1.6-3.2l-0.1-0.1h0c-0.5-0.9-1.1-1.9-1.8-3
		l-0.1-0.1l0,0c-0.6-0.9-1.2-1.9-1.9-2.8h0l-0.1-0.1c-0.6-0.8-1.4-1.8-2.2-2.8l0,0l-0.1-0.1l0,0l-0.1-0.1l0,0
		c-0.7-0.8-1.4-1.6-2.3-2.5l0,0l-0.1-0.1c-0.8-0.9-1.6-1.7-2.5-2.5l0,0l-0.1-0.1l-0.1-0.1l0,0c-1-0.9-1.8-1.6-2.6-2.3l-0.1-0.1l0,0
		c-0.8-0.7-1.7-1.4-2.7-2.1v0l-0.1-0.1c-1.1-0.8-2-1.4-3-2l-0.1-0.1v0c-1.1-0.7-2-1.3-2.9-1.8l0,0l-0.1-0.1l-0.1-0.1l0,0
		c-0.9-0.5-1.9-1-3-1.5l0,0l-0.1,0l0,0l-0.1,0l0,0c-1-0.5-2.1-0.9-3.1-1.4v0l-0.1,0c-1-0.4-2.1-0.8-3.3-1.2l0,0l-0.1,0l-0.1,0l0,0
		c-1.2-0.4-2.3-0.7-3.3-1v0l-0.1,0c-1.1-0.3-2.2-0.5-3.4-0.8l0,0l-0.1,0c-1.1-0.2-2.3-0.4-3.6-0.5l-0.1,0l0,0
		c-1.2-0.1-2.3-0.3-3.4-0.3l0,0h-0.1h-0.1l0,0c-1.3-0.1-2.4-0.1-3.5-0.1h-0.1v17.7h0.1c0.8,0,1.7,0,2.5,0.1l0.1,0l0,0
		c0.7,0,1.4,0.1,2.4,0.2l0.1,0l0,0c0.7,0.1,1.4,0.2,2.3,0.4l0,0l0.1,0c0.8,0.1,1.6,0.3,2.4,0.5v0l0.1,0c0.8,0.2,1.5,0.4,2.3,0.7l0,0
		l0.1,0c0.8,0.2,1.5,0.5,2.3,0.8l0,0l0.1,0c0.8,0.3,1.5,0.6,2.3,1c0.7,0.3,1.4,0.7,2.3,1.1l0,0c0.6,0.4,1.3,0.8,2.2,1.3l0.1,0.1l0,0
		c0.7,0.4,1.3,0.9,1.9,1.3l0,0l0.1,0.1c0.8,0.6,1.4,1,2,1.5l0.1,0.1l0,0c0.6,0.5,1.3,1.1,1.8,1.6c0.6,0.6,1.2,1.2,1.7,1.7h0l0.1,0.1
		c0.5,0.5,1.1,1.1,1.7,1.9l0,0c0.5,0.7,1,1.3,1.5,1.9l0,0l0.1,0.1c0.5,0.6,1,1.4,1.4,2.1l0.1,0.1h0c0.5,0.8,0.9,1.4,1.2,2.1l0.1,0.1
		l0,0c0.4,0.7,0.7,1.4,1,2l0,0l0,0.1c0.4,0.7,0.7,1.5,1,2.3l0,0.1h0c0.3,0.7,0.5,1.5,0.8,2.3v0c0.3,0.9,0.5,1.7,0.7,2.4l0,0.1h0
		c0.2,0.8,0.4,1.6,0.5,2.4v0c0.2,0.9,0.3,1.7,0.4,2.4l0,0l0,0.1c0.1,0.7,0.2,1.5,0.2,2.4h0v0.1c0.1,0.8,0.1,1.7,0.1,2.5v0.1h0
		c0,0.8,0,1.6-0.1,2.4l0,0c-0.1,1-0.1,1.8-0.2,2.5l0,0.1l0,0c-0.1,0.7-0.2,1.4-0.4,2.3h0l0,0c-0.1,0.8-0.3,1.6-0.5,2.5
		c-0.2,0.8-0.4,1.5-0.7,2.3h0l0,0.1c-0.3,0.8-0.5,1.6-0.9,2.4l0,0.1h0c-0.3,0.8-0.6,1.5-0.9,2.1l0,0l0,0.1c-0.4,0.9-0.8,1.5-1.1,2.2
		h0l-0.1,0.1c-0.4,0.7-0.8,1.5-1.3,2.2l-0.1,0.1l0,0c-0.5,0.7-1,1.4-1.3,2l0,0c-0.6,0.8-1.1,1.4-1.5,2l-0.1,0.1l0,0
		c-0.4,0.5-1,1.1-1.6,1.8c-0.5,0.5-1.1,1.1-1.7,1.7l0,0l-0.1,0.1c-0.6,0.6-1.2,1.1-1.9,1.7l-0.1,0.1l0,0c-0.7,0.5-1.3,1-1.8,1.4l0,0
		l-0.1,0.1c-0.7,0.5-1.4,1-2.1,1.4h0c-0.8,0.5-1.5,0.9-2.2,1.3l0,0c-0.9,0.5-1.6,0.8-2.3,1.1l-0.1,0l0,0c-0.8,0.4-1.5,0.7-2.2,1
		c-0.8,0.3-1.6,0.6-2.4,0.9l-0.1,0v0c-0.8,0.3-1.6,0.5-2.3,0.7l-0.1,0l0,0c-0.7,0.2-1.5,0.3-2.3,0.5l0,0l-0.1,0
		c-0.9,0.2-1.7,0.3-2.5,0.4c-0.8,0.1-1.6,0.2-2.5,0.2l0,0c-0.8,0-1.7,0.1-2.5,0.1c-0.9,0-1.7,0-2.5-0.1l0,0c-1-0.1-1.8-0.1-2.5-0.2
		l-0.1,0l0,0c-0.7-0.1-1.5-0.2-2.4-0.4l-0.1,0l-3.3,17.3l0,0.1l0.1,0c1.1,0.2,2.3,0.4,3.6,0.5l0.1,0l0,0c1.2,0.1,2.3,0.2,3.4,0.3
		l0,0h0.1h0.1l0,0c1.2,0.1,2.3,0.1,3.4,0.1l0,0h0.1h0.1l0,0c1.1,0,2.2,0,3.4-0.1l0,0h0.1h0.1l0,0c1.1-0.1,2.2-0.2,3.4-0.3l0,0l0.1,0
		l0.1,0l0,0c1.2-0.1,2.3-0.3,3.4-0.5l0,0l0.1,0c1.3-0.2,2.5-0.5,3.6-0.8l0.1,0l0,0c1-0.3,2.1-0.6,3.4-1l0.1,0v0c1-0.3,2-0.7,3.2-1.1
		l0,0l0.1,0c0,0,0,0,0,0l0.1,0l0,0c1.1-0.5,2.2-0.9,3.2-1.4l0.1,0v0c1.2-0.6,2.1-1.1,3-1.5l0,0l0.1-0.1l0.1-0.1l0,0
		c0.9-0.5,1.8-1,2.9-1.8l0,0l0.1-0.1l0.1-0.1l0,0c0.9-0.6,1.8-1.2,2.8-1.9v0l0.1-0.1c0.9-0.6,1.9-1.4,2.9-2.2l0.1-0.1l0,0
		c0.8-0.7,1.6-1.4,2.5-2.3l0,0l0.1-0.1c0.9-0.8,1.7-1.6,2.5-2.5l0,0l0.1-0.1l0.1-0.1l0,0c0.9-1,1.7-1.8,2.3-2.6l0.1-0.1l0,0
		c0.7-0.8,1.4-1.7,2.1-2.7l0,0l0.1-0.1l0.1-0.1l0,0c0.7-1,1.4-2,2-2.9l0.1-0.1h0c0.7-1.1,1.3-2.1,1.8-3l0,0l0.1-0.1
		c0.5-0.9,1-1.9,1.6-3.1h0l0-0.1c0.5-1.1,1-2.2,1.4-3.4l0-0.1h0c0.4-1,0.8-2.1,1.1-3.2h0l0-0.1c0.4-1.2,0.7-2.3,1-3.4l0,0l0-0.1
		l0-0.1l0,0c0.3-1,0.5-2.1,0.7-3.3h0l0-0.1c0.2-1.1,0.4-2.2,0.5-3.5l0,0v0c0,0,0,0,0-0.1l0-0.1l0,0c0.1-1.2,0.3-2.3,0.3-3.4l0,0
		v-0.1c0,0,0,0,0,0v-0.1l0,0c0.1-1.3,0.1-2.4,0.1-3.5L406.6,431.3L406.6,431.3L406.6,431.3L406.6,431.3z"/>
	<path class="st11" d="M348.7,373.5c-1.1,0-2.3,0-3.5,0.1l0,0H345h-0.1l0,0c-1.1,0.1-2.2,0.2-3.4,0.3l0,0l-0.1,0h0l-0.1,0l0,0
		c-1.2,0.1-2.3,0.3-3.4,0.5l0,0l-0.1,0c-1.3,0.2-2.5,0.5-3.6,0.8l-0.1,0l0,0c-1,0.3-2.1,0.6-3.4,1l-0.1,0v0c-1,0.3-2,0.7-3.2,1.1
		l0,0l-0.1,0c0,0,0,0,0,0l-0.1,0l0,0c-1.1,0.5-2.2,0.9-3.2,1.4l-0.1,0v0c-1.2,0.6-2.1,1.1-3,1.5l0,0l-0.1,0.1l-0.1,0.1l0,0
		c-0.9,0.5-1.8,1-2.9,1.8l0,0l-0.1,0.1l-0.1,0.1l0,0c-0.9,0.6-1.8,1.2-2.8,1.9l0,0l-0.1,0.1c0,0,0,0,0,0l0,0l0,0
		c-0.8,0.6-1.8,1.3-2.7,2.1l0,0l-0.1,0.1l0,0l-0.1,0.1l0,0c-0.8,0.7-1.6,1.4-2.5,2.3l0,0l-0.1,0.1l-0.1,0.1l0,0
		c-0.8,0.8-1.6,1.6-2.4,2.4l0,0l-0.1,0.1c-1,1-1.7,1.9-2.4,2.7l-0.1,0.1l0,0c-0.7,0.8-1.4,1.7-2.1,2.7l0,0l-0.1,0.1l-0.1,0.1l0,0
		c-0.7,1-1.4,2-2,2.9l-0.1,0.1h0c-0.7,1.1-1.3,2.1-1.8,3l0,0l-0.1,0.1c-0.5,1-1,2-1.6,3.2l0,0.1h0c-0.5,1.1-0.9,2.1-1.3,3.1l0,0
		l0,0.1c-0.4,1-0.8,2.1-1.2,3.3h0l0,0.1c-0.4,1.2-0.7,2.3-1,3.4l0,0l0,0.1l0,0.1l0,0c-0.3,1-0.5,2.1-0.7,3.4l0,0l0,0.1l0,0l0,0.1
		l0,0c-0.2,1-0.4,2.2-0.5,3.4l0,0l0,0.1l0,0.1l0,0c-0.1,1.2-0.3,2.3-0.3,3.4l0,0v0.1c0,0,0,0,0,0v0.1l0,0c-0.1,1.2-0.1,2.3-0.1,3.4
		l0,0v0.1v0.1l0,0c0,1.1,0,2.2,0.1,3.4l0,0v0.1c0,0,0,0,0,0.1v0l0,0c0.1,1.1,0.2,2.2,0.3,3.4l0,0v0c0,0,0,0.1,0,0.1l0,0.1l0,0
		c0.1,1.2,0.3,2.3,0.5,3.4l0,0l0,0.1c0.2,1.3,0.5,2.5,0.8,3.6l0,0.1l0,0c0.3,1,0.6,2.1,1,3.3l0,0l0,0.1l0,0.1l0,0
		c0.3,1,0.7,2,1.2,3.3l0,0.1h0c0.5,1.1,0.9,2.2,1.4,3.1l0,0l0,0.1c0,0,0,0,0,0l0,0.1l0,0c0.6,1.2,1.1,2.2,1.5,3l0,0l0.1,0.1
		c0.5,0.9,1.1,1.9,1.9,3.1l0.1,0.1l0,0c0.6,0.9,1.2,1.9,1.9,2.8h0l0.1,0.1c0.6,0.9,1.4,1.9,2.2,2.8l0,0l0.1,0.1l0,0l0.1,0.1l0,0
		c0.7,0.8,1.4,1.6,2.3,2.5l0,0l0.1,0.1c0.8,0.9,1.7,1.7,2.6,2.6l0.1,0.1l0,0c0.9,0.9,1.8,1.6,2.6,2.3l0,0l0.1,0.1l0,0l0.1,0.1l0,0
		c0.8,0.7,1.7,1.4,2.7,2.1l0,0l0.1,0.1l0.1,0.1l0,0c1,0.7,1.9,1.4,2.8,1.9l0,0l0.1,0.1l0.1,0.1l0,0c1.1,0.7,2,1.3,2.9,1.8l0,0
		l0.1,0.1l0.1,0.1l0,0c0.9,0.5,1.9,1,3,1.5l0,0l0.1,0l0,0l0.1,0l0,0c1,0.5,2.1,0.9,3.1,1.4v0l0.1,0c1,0.4,2.1,0.8,3.3,1.2l0,0l0.1,0
		l0.1,0l0,0c1.2,0.4,2.3,0.7,3.3,1v0l0.1,0c1.1,0.3,2.3,0.5,3.6,0.8l0.1,0l3.3-17.3l0-0.1l-0.1,0c-0.8-0.1-1.6-0.3-2.4-0.5v0l-0.1,0
		c-0.8-0.2-1.6-0.4-2.4-0.7h0c-0.8-0.2-1.5-0.5-2.3-0.8l0,0l-0.1,0c-0.9-0.4-1.6-0.7-2.3-1c-0.7-0.3-1.4-0.7-2.3-1.1l0,0
		c-0.7-0.4-1.4-0.8-2.2-1.3h0c-0.6-0.4-1.4-0.9-2-1.4l0,0c-0.6-0.5-1.3-1-2-1.5c-0.7-0.5-1.3-1.1-1.9-1.7l-0.1-0.1l0,0
		c-0.5-0.5-1.1-1.1-1.6-1.6l0,0l-0.1-0.1c-0.6-0.7-1.2-1.3-1.7-1.9l0,0c-0.5-0.6-0.9-1.2-1.5-1.9l0,0l-0.1-0.1
		c-0.5-0.8-1-1.4-1.4-2.1l-0.1-0.1h0c-0.4-0.6-0.8-1.3-1.2-2l0,0l-0.1-0.1c-0.4-0.7-0.8-1.4-1.1-2.3l0-0.1c-0.3-0.7-0.6-1.4-1-2.3
		l0-0.1h0c-0.3-0.7-0.5-1.5-0.8-2.3v0c-0.3-0.9-0.5-1.7-0.7-2.4l0-0.1c-0.2-0.8-0.4-1.5-0.5-2.3l0,0l0-0.1c-0.1-0.7-0.3-1.5-0.4-2.5
		l0-0.1l0,0c-0.1-0.7-0.2-1.5-0.2-2.4v0c-0.1-0.9-0.1-1.7-0.1-2.5s0-1.7,0.1-2.5v-0.1c0-0.9,0.1-1.7,0.2-2.4c0.1-1,0.2-1.7,0.4-2.4
		l0,0l0-0.1c0.1-0.8,0.3-1.6,0.5-2.5l0,0c0.2-0.7,0.4-1.5,0.7-2.3h0l0-0.1c0.2-0.8,0.5-1.5,0.8-2.3l0,0l0-0.1c0.4-0.9,0.7-1.6,1-2.3
		l0-0.1l0,0c0.4-0.8,0.7-1.5,1-2h0l0.1-0.1c0.4-0.7,0.8-1.4,1.3-2.2l0.1-0.1l0,0c0.5-0.7,0.9-1.4,1.4-2l0.1-0.1l0,0
		c0.5-0.6,0.9-1.2,1.5-1.9l0.1-0.1l0,0c0.5-0.5,1-1.1,1.5-1.7h0l0.1-0.1c0.6-0.6,1.2-1.2,1.8-1.8l0,0c0.6-0.5,1.2-1.1,1.9-1.7l0,0
		c0.6-0.5,1.2-1,2-1.5l0,0c0.6-0.5,1.4-1,2-1.4c0.8-0.5,1.5-0.9,2.2-1.3l0,0c0.9-0.5,1.6-0.8,2.3-1.1l0.1,0l0,0
		c0.7-0.3,1.4-0.6,2.2-1c0.8-0.3,1.6-0.6,2.4-0.9l0.1,0v0c0.8-0.3,1.6-0.5,2.3-0.7l0.1,0c0.7-0.2,1.5-0.4,2.2-0.5l0.1,0l0,0l0.1,0
		c0.9-0.2,1.7-0.3,2.5-0.4h0c1-0.1,1.7-0.2,2.4-0.2l0,0l0.1,0c0.8-0.1,1.7-0.1,2.5-0.1h0.1v-17.7L348.7,373.5L348.7,373.5z"/>
</g>
<g>
	<path class="st11" d="M349.3,722.3c-1.1,0-2.3,0-3.5,0.1l0,0h-0.1h-0.1l0,0c-1.1,0.1-2.2,0.2-3.4,0.3l0,0l-0.1,0h0l-0.1,0l0,0
		c-1.2,0.2-2.3,0.3-3.4,0.5l0,0l-0.1,0c-1.3,0.2-2.5,0.5-3.6,0.8l-0.1,0l0,0c-1,0.2-2.1,0.6-3.3,1l0,0l-0.1,0l-0.1,0l0,0
		c-1,0.3-2,0.7-3.3,1.2l-0.1,0v0c-1.1,0.5-2.2,0.9-3.3,1.4l-0.1,0v0c-1.2,0.6-2.1,1.1-3,1.5v0l-0.1,0.1c-0.9,0.5-1.9,1.1-3.1,1.9
		l-0.1,0.1l0,0c-0.9,0.6-1.9,1.2-2.8,1.9l0,0l-0.1,0.1c0,0,0,0,0,0l0,0l0,0c-0.8,0.6-1.8,1.3-2.7,2.1l0,0l-0.1,0.1l0,0l-0.1,0.1l0,0
		c-0.8,0.7-1.6,1.4-2.5,2.3l0,0l-0.1,0.1c-0.9,0.8-1.7,1.7-2.5,2.5l0,0l-0.1,0.1c0,0,0,0-0.1,0.1l0,0l0,0c-0.9,1-1.7,1.8-2.4,2.7
		l-0.1,0.1l0,0c-0.7,0.8-1.4,1.7-2.1,2.7l0,0l-0.1,0.1l-0.1,0.1l0,0c-0.7,1-1.4,1.9-1.9,2.8l0,0l-0.1,0.1l-0.1,0.1l0,0
		c-0.7,1.1-1.3,2.1-1.8,3h0l-0.1,0.1c-0.5,1-1,2-1.6,3.2l0,0.1h0c-0.5,1.1-0.9,2.1-1.3,3.1l0,0l0,0.1c-0.4,1.1-0.8,2.2-1.2,3.4
		l0,0.1l16.9,5.5l0-0.1c0.2-0.8,0.5-1.5,0.8-2.3l0,0l0-0.1c0.4-0.9,0.7-1.6,1-2.3l0-0.1l0,0c0.4-0.8,0.7-1.5,1-2l0,0l0.1-0.1
		c0.4-0.6,0.8-1.3,1.3-2.1l0,0c0.5-0.7,1-1.4,1.4-2.1l0.1-0.1l0,0c0.5-0.7,1-1.3,1.5-1.9l0.1-0.1l0,0c0.5-0.5,1-1.1,1.6-1.8l0,0
		c0.5-0.6,1.1-1.1,1.7-1.7l0,0l0.1-0.1c0.6-0.5,1.2-1.1,1.9-1.7l0,0c0.6-0.5,1.2-1,2-1.5l0,0c0.6-0.5,1.3-1,2-1.4l0.1-0.1v0
		c0.7-0.4,1.3-0.8,2-1.2v0l0.1-0.1c0.7-0.4,1.4-0.8,2.3-1.2l0.1,0l0,0c0.7-0.3,1.4-0.6,2.2-1l0.1,0v0c0.7-0.3,1.5-0.5,2.3-0.8h0
		c0.9-0.3,1.7-0.5,2.4-0.7l0.1,0c0.7-0.2,1.5-0.4,2.3-0.5l0,0l0.1,0c0.7-0.1,1.4-0.2,2.4-0.4l0,0l0.1,0c1-0.1,1.7-0.2,2.4-0.2l0,0
		l0.1,0c0.8-0.1,1.7-0.1,2.5-0.1h0.1v-17.7L349.3,722.3L349.3,722.3L349.3,722.3z"/>
	<path class="st12" d="M407.3,780.1L407.3,780.1c0-1.1-0.1-2.2-0.1-3.4h0v-0.1c-0.1-1.1-0.2-2.2-0.3-3.5l0,0l0-0.1l0-0.1l0,0
		c-0.1-1.2-0.3-2.3-0.5-3.4l0,0l0-0.1c-0.2-1.3-0.5-2.5-0.8-3.6l0-0.1h0c-0.3-1-0.6-2.1-1-3.3l0,0l0-0.1l0-0.1l0,0
		c-0.3-1-0.7-2-1.2-3.3l0-0.1h0c-0.5-1.1-0.9-2.2-1.4-3.1h0l0-0.1c-0.6-1.3-1.1-2.3-1.6-3.2l-0.1-0.1h0c-0.5-0.9-1.1-1.9-1.8-3
		l-0.1-0.1l0,0c-0.6-0.9-1.2-1.8-1.9-2.8l0,0l-0.1-0.1l0,0l0-0.1l0,0c-0.6-0.8-1.3-1.8-2.1-2.7l0,0l-0.1-0.1l0,0l-0.1-0.1l0,0
		c-0.7-0.8-1.4-1.6-2.3-2.5l0,0l-0.1-0.1c-0.8-0.8-1.6-1.7-2.5-2.5l0,0L389,738c-1-1-1.9-1.7-2.7-2.4l-0.1-0.1l0,0
		c-0.8-0.7-1.7-1.4-2.7-2.1v0l-0.1-0.1c-1.1-0.8-2-1.4-3-2l-0.1-0.1v0c-1.1-0.7-2.1-1.3-3-1.8v0l-0.1-0.1c-1-0.5-2-1-3.2-1.7l-0.1,0
		v0c-1.1-0.5-2.1-0.9-3.1-1.3l0,0l-0.1,0c-1-0.4-2.1-0.8-3.3-1.2v0l-0.1,0c-1.2-0.4-2.3-0.7-3.4-1l0,0l-0.1,0l-0.1,0l0,0
		c-1-0.3-2.1-0.5-3.3-0.7l0,0l-0.1,0c-1.1-0.2-2.3-0.4-3.6-0.5l-0.1,0l0,0c-1.2-0.2-2.3-0.3-3.4-0.3l0,0h-0.1h-0.1l0,0
		c-1.2-0.1-2.4-0.1-3.5-0.1h-0.1V740h0.1c0.8,0,1.7,0,2.5,0.1l0.1,0l0,0c0.7,0,1.4,0.1,2.4,0.2l0.1,0l0,0c0.6,0.1,1.4,0.2,2.3,0.4
		l0,0l0.1,0c0.8,0.2,1.6,0.3,2.5,0.5c0.7,0.2,1.5,0.4,2.3,0.7v0l0.1,0c0.8,0.2,1.5,0.5,2.3,0.8l0,0l0.1,0c0.8,0.3,1.6,0.6,2.3,1
		l0.1,0v0c0.6,0.3,1.3,0.7,2,1v0l0.1,0.1c0.6,0.4,1.3,0.8,2.2,1.3l0.1,0.1l0,0c0.7,0.4,1.3,0.9,1.9,1.3l0,0l0.1,0.1
		c0.8,0.6,1.4,1,2,1.5l0.1,0.1l0,0c0.5,0.4,0.9,0.8,1.3,1.2l0.4,0.4l0,0l0.1,0.1c0.6,0.6,1.2,1.2,1.7,1.7l0,0l0.1,0.1
		c0.5,0.5,1.1,1.2,1.7,1.9l0,0c0.5,0.6,1,1.2,1.5,2l0,0c0.5,0.7,1,1.4,1.4,2.1l0.1,0.1l0,0c0.5,0.8,0.9,1.4,1.2,2.1l0.1,0.1l0,0
		c0.4,0.7,0.7,1.4,1,2l0,0l0,0.1c0.4,0.7,0.7,1.5,1,2.3l0,0.1h0c0.3,0.7,0.5,1.5,0.8,2.3v0c0.3,1,0.5,1.7,0.7,2.4l0,0.1h0
		c0.2,0.8,0.4,1.5,0.5,2.3l0,0l0,0.1c0.2,0.9,0.3,1.7,0.4,2.5c0.1,0.7,0.2,1.5,0.2,2.4h0v0.1c0.1,0.9,0.1,1.7,0.1,2.5v0.1h0
		c0,0.8,0,1.6-0.1,2.4l0,0c-0.1,1-0.1,1.8-0.2,2.5l0,0.1l0,0c-0.1,0.7-0.2,1.5-0.4,2.3h0l0,0.1c-0.1,0.8-0.3,1.7-0.5,2.5
		c-0.2,0.8-0.4,1.5-0.7,2.3h0l0,0.1c-0.3,0.8-0.5,1.6-0.9,2.4l0,0.1l0,0c-0.3,0.8-0.6,1.5-1,2.2l0,0c-0.4,0.7-0.7,1.5-1.1,2.2h0
		l-0.1,0.1c-0.4,0.8-0.8,1.5-1.3,2.2l-0.1,0.1l0,0c-0.4,0.5-0.8,1.2-1.3,1.9l0,0l-0.1,0.1c-0.5,0.8-1,1.4-1.5,2l-0.1,0.1l0,0
		c-0.5,0.5-1,1.2-1.6,1.8c-0.5,0.5-1.1,1.1-1.7,1.7l0,0l-0.1,0.1c-0.6,0.6-1.2,1.2-1.9,1.7l-0.1,0.1l0,0c-0.6,0.5-1.2,1-1.8,1.4l0,0
		l-0.1,0.1c-0.7,0.5-1.4,1-2.1,1.4h0c-0.8,0.5-1.5,0.9-2.2,1.3l0,0c-0.9,0.5-1.6,0.8-2.3,1.2l-0.1,0l0,0c-0.8,0.3-1.5,0.7-2.2,1
		c-0.7,0.3-1.5,0.6-2.4,0.9l-0.1,0v0l-0.3,0.1c-0.7,0.2-1.3,0.4-2,0.6l-0.1,0c-0.8,0.2-1.5,0.3-2.3,0.5l-0.1,0
		c-0.9,0.2-1.7,0.3-2.5,0.4h0c-0.8,0.1-1.6,0.2-2.5,0.2l0,0c-0.8,0-1.7,0.1-2.5,0.1c-0.9,0-1.7,0-2.5-0.1l0,0
		c-1-0.1-1.8-0.2-2.5-0.2l-0.1,0l0,0c-0.7-0.1-1.5-0.2-2.3-0.4l-0.1,0c-0.8-0.2-1.6-0.3-2.4-0.5v0l-0.1,0c-0.8-0.2-1.5-0.4-2.3-0.7
		l0,0l-0.1,0c-0.8-0.3-1.6-0.5-2.3-0.8l0,0l-0.1,0c-0.9-0.3-1.6-0.7-2.3-1c-0.7-0.3-1.4-0.7-2.3-1.2l0,0c-0.6-0.4-1.3-0.8-2.2-1.3h0
		c-0.6-0.4-1.3-0.9-2-1.3v0l-0.1-0.1c-0.8-0.6-1.4-1-2-1.5l-0.1-0.1v0c-0.6-0.5-1.2-1-1.8-1.6l-0.1-0.1l0,0
		c-0.5-0.5-1.1-1.1-1.6-1.6l0,0l-0.1-0.1c-0.6-0.6-1.2-1.3-1.7-1.9l-0.1-0.1l0,0c-0.4-0.5-0.9-1.1-1.4-1.8l0,0l-0.1-0.1
		c-0.5-0.8-1-1.4-1.4-2.1l-0.1-0.1h0c-0.4-0.6-0.8-1.3-1.2-2h0l-0.1-0.1c-0.5-0.8-0.9-1.6-1.1-2.2l0-0.1l0,0c-0.3-0.7-0.6-1.4-1-2.2
		l0-0.1h0c-0.3-0.7-0.5-1.5-0.8-2.3v0c-0.3-0.9-0.5-1.7-0.7-2.4l0-0.1c-0.2-0.8-0.4-1.5-0.5-2.3l0,0l0-0.1c-0.2-0.9-0.3-1.8-0.4-2.5
		c-0.1-0.7-0.2-1.6-0.2-2.5v0c-0.1-0.8-0.1-1.7-0.1-2.5s0-1.7,0.1-2.5v0c0-0.9,0.1-1.8,0.2-2.5l0-0.1l0,0c0.1-0.6,0.2-1.5,0.4-2.3
		l0,0l0-0.1c0.1-0.8,0.3-1.6,0.5-2.5c0.2-0.9,0.5-1.7,0.7-2.4l0-0.1l-16.8-5.5l-0.1,0l0,0.1c-0.4,1.2-0.7,2.3-1,3.4l0,0l0,0.1l0,0.1
		l0,0c-0.3,1-0.5,2.1-0.7,3.3l0,0l0,0.1c0,0,0,0.1,0,0.1v0l0,0c-0.2,1-0.4,2.2-0.5,3.4l0,0v0c0,0,0,0.1,0,0.1l0,0.1l0,0
		c-0.1,1.2-0.3,2.3-0.3,3.4l0,0v0.1c0,0,0,0,0,0v0.1l0,0c-0.1,1.2-0.1,2.3-0.1,3.4l0,0v0.1v0.1l0,0c0,1.1,0,2.2,0.1,3.4l0,0v0.1
		c0,0,0,0,0,0v0.1l0,0c0.1,1.1,0.2,2.2,0.3,3.4l0,0l0,0.1l0,0.1l0,0c0.1,1.2,0.3,2.3,0.5,3.4l0,0l0,0.1c0.2,1.3,0.5,2.5,0.8,3.6
		l0,0.1l0,0c0.3,1,0.6,2.1,1,3.3l0,0l0,0.1l0,0.1l0,0c0.3,1,0.7,2,1.2,3.3l0,0.1h0c0.5,1.2,0.9,2.2,1.4,3.3l0,0.1h0
		c0.6,1.2,1.1,2.1,1.5,3h0l0.1,0.1c0.5,0.9,1.1,1.9,1.9,3.1l0.1,0.1l0,0c0.6,0.9,1.2,1.8,1.9,2.8h0l0.1,0.1c0.6,0.9,1.4,1.9,2.2,2.9
		l0.1,0.1l0,0c0.7,0.8,1.4,1.6,2.3,2.5l0,0l0.1,0.1c0.8,0.9,1.7,1.8,2.6,2.6l0.1,0.1l0,0c1,0.9,1.8,1.7,2.6,2.3l0.1,0.1l0,0
		c0.8,0.7,1.7,1.4,2.7,2.1l0,0l0.1,0.1c1,0.7,2,1.4,2.9,2l0,0l0.1,0.1l0.1,0.1l0,0c1.1,0.7,2,1.3,2.9,1.8l0,0l0.1,0.1l0.1,0.1l0,0
		c0.9,0.5,1.9,1,3,1.5l0,0l0.1,0l0,0l0.1,0l0,0c1.1,0.5,2.1,0.9,3.1,1.3l0,0l0.1,0c1,0.4,2.1,0.8,3.3,1.2l0,0l0.1,0l0.1,0l0,0
		c1.2,0.4,2.3,0.7,3.3,1v0l0.1,0c1.1,0.3,2.2,0.5,3.4,0.8l0,0l0.1,0c1.1,0.2,2.3,0.4,3.6,0.5l0.1,0l0,0c1.2,0.2,2.3,0.3,3.4,0.3l0,0
		h0.1h0.1l0,0c1.2,0.1,2.3,0.1,3.4,0.1l0,0h0.1h0.1l0,0c1.1,0,2.2,0,3.4-0.1l0,0h0.1h0.1l0,0c1.1-0.1,2.2-0.2,3.4-0.3l0,0l0.1,0h0
		l0.1,0l0,0c1.2-0.2,2.3-0.3,3.4-0.5l0,0l0.1,0c1.3-0.2,2.5-0.5,3.6-0.8l0.1,0l0,0c1-0.3,2.1-0.6,3.4-1l0.1,0v0c1-0.3,2-0.7,3.2-1.2
		l0,0l0.1,0c0,0,0,0,0,0l0.1,0l0,0c1.1-0.5,2.2-0.9,3.2-1.4l0.1,0v0c1.2-0.6,2.1-1.1,3-1.5l0,0l0.1-0.1l0.1-0.1l0,0
		c0.9-0.5,1.8-1,2.9-1.8l0,0l0.1-0.1l0.1-0.1l0,0c0.9-0.6,1.9-1.2,2.8-1.9v0l0.1-0.1c0.9-0.7,1.9-1.4,2.9-2.2l0.1-0.1l0,0
		c0.8-0.7,1.6-1.4,2.5-2.3l0,0l0.1-0.1c0.9-0.8,1.7-1.6,2.5-2.5l0,0l0.1-0.1l0.1-0.1l0,0c0.9-1,1.7-1.8,2.3-2.6l0.1-0.1l0,0
		c0.7-0.8,1.4-1.7,2.1-2.7h0l0.1-0.1c0.8-1.1,1.4-2,2-3l0.1-0.1h0c0.7-1.1,1.3-2.1,1.8-3l0,0l0.1-0.1c0.5-0.9,1-1.9,1.6-3.2l0,0
		l0-0.1c0,0,0,0,0,0l0-0.1l0,0c0.5-1.1,1-2.2,1.4-3.3l0-0.1h0c0.4-1,0.8-2,1.1-3.2h0l0-0.1c0.4-1.2,0.7-2.3,1-3.4l0,0l0-0.1l0-0.1
		l0,0c0.3-1,0.5-2.1,0.7-3.3h0l0-0.1c0.2-1.1,0.4-2.2,0.5-3.5l0,0v0c0,0,0,0,0-0.1l0-0.1l0,0c0.1-1.2,0.3-2.3,0.3-3.4l0,0v-0.1
		c0,0,0,0,0,0v-0.1l0,0c0.1-1.3,0.1-2.4,0.1-3.5L407.3,780.1L407.3,780.1L407.3,780.1z"/>
</g>
<g>
	<path class="st12" d="M366.7,1071.2c-1.2-0.4-2.3-0.7-3.4-1l0,0l-0.1,0l-0.1,0l0,0c-1-0.3-2.1-0.5-3.3-0.7l0,0l-0.1,0
		c-1.1-0.2-2.3-0.4-3.6-0.6l-0.1,0l0,0c-1.2-0.2-2.3-0.3-3.4-0.3l0,0h-0.1h-0.1l0,0c-1.2-0.1-2.4-0.1-3.5-0.1h-0.1v17.7h0.1
		c0.9,0,1.7,0,2.5,0.1h0c0.7,0.1,1.5,0.1,2.5,0.2l0.1,0l0,0c0.6,0.1,1.5,0.2,2.3,0.4l0,0l0.1,0c0.8,0.2,1.6,0.3,2.5,0.5
		c0.8,0.2,1.5,0.4,2.4,0.7l0.1,0l5.5-16.8l0-0.1L366.7,1071.2z"/>
	<path class="st11" d="M406.8,1126.2L406.8,1126.2c0-1.1-0.1-2.2-0.1-3.4h0v-0.1c-0.1-1.1-0.2-2.2-0.3-3.5l0,0l0-0.1l0-0.1l0,0
		c-0.1-1.2-0.3-2.3-0.5-3.4l0,0l0-0.1c-0.2-1.3-0.5-2.5-0.8-3.6l0-0.1h0c-0.3-1-0.6-2.1-1-3.3l0,0l0-0.1l0-0.1l0,0
		c-0.3-1-0.7-2-1.2-3.3l0-0.1h0c-0.5-1.1-0.9-2.2-1.4-3.1h0l0-0.1c-0.6-1.2-1.1-2.2-1.6-3.2l0,0l-0.1-0.1l-0.1-0.1l0,0
		c-0.5-0.9-1.1-1.8-1.8-3l-0.1-0.1l0,0c-0.6-0.9-1.2-1.8-1.9-2.8l0,0l-0.1-0.1c0,0,0,0,0-0.1l0,0l0,0c-0.6-0.8-1.3-1.8-2.1-2.7l0,0
		l-0.1-0.1l-0.1-0.1l0,0c-0.7-0.8-1.4-1.6-2.3-2.6l0,0l-0.1-0.1c-0.8-0.8-1.6-1.7-2.5-2.5l0,0l-0.1-0.1c-1-0.9-1.9-1.7-2.7-2.4
		l-0.1-0.1l0,0c-0.8-0.7-1.7-1.4-2.7-2.1v0l-0.1-0.1c-1.1-0.8-2-1.4-3-2l-0.1-0.1v0c-1.1-0.7-2.1-1.3-3-1.8v0l-0.1-0.1
		c-1-0.5-2-1-3.2-1.7l-0.1,0l0,0c-1-0.5-2.1-0.9-3.1-1.3v0l-0.1-0.1c-1.1-0.4-2.2-0.8-3.4-1.2l-0.1,0l-5.5,16.8l0,0.1l0.1,0
		c0.8,0.2,1.5,0.5,2.3,0.8l0,0l0.1,0.1c0.8,0.3,1.6,0.7,2.3,1l0.1,0.1v0c0.6,0.3,1.3,0.7,2,1.1v0l0.1,0.1c0.7,0.4,1.5,0.8,2.2,1.3
		l0.1,0.1l0,0c0.7,0.4,1.3,0.9,1.9,1.3l0,0l0.1,0.1c0.8,0.6,1.4,1.1,2,1.6l0.1,0.1l0,0c0.5,0.4,0.9,0.8,1.4,1.2l0.4,0.3l0,0l0.1,0.1
		c0.6,0.6,1.2,1.2,1.7,1.7l0,0l0.1,0.1c0.6,0.6,1.2,1.2,1.7,1.9c0.5,0.6,1,1.2,1.5,2c0.5,0.7,1,1.4,1.4,2.1l0.1,0.1h0
		c0.5,0.8,0.9,1.4,1.2,2l0,0c0.4,0.7,0.8,1.4,1.1,2.1l0,0l0,0.1c0.4,0.8,0.7,1.5,1,2.3l0,0.1h0c0.3,0.7,0.5,1.5,0.8,2.3
		c0.3,0.8,0.5,1.7,0.7,2.4l0,0.1h0c0.2,0.7,0.3,1.5,0.5,2.3l0,0l0,0.1c0.2,0.8,0.3,1.7,0.4,2.5c0.1,0.7,0.2,1.5,0.2,2.4h0v0.1
		c0.1,0.8,0.1,1.7,0.1,2.5v0.1h0c0,0.8,0,1.6-0.1,2.4l0,0c-0.1,1-0.1,1.8-0.2,2.5l0,0.1l0,0c-0.1,0.7-0.2,1.4-0.4,2.3h0l0,0.1
		c-0.1,0.8-0.3,1.7-0.5,2.5c-0.2,0.8-0.4,1.5-0.7,2.3h0l0,0.1c-0.3,0.8-0.5,1.6-0.9,2.4l0,0.1l0,0c-0.3,0.7-0.6,1.5-1,2.2v0
		c-0.3,0.7-0.7,1.4-1.1,2.2h0l-0.1,0.1c-0.4,0.7-0.8,1.4-1.3,2.2l-0.1,0.1l0,0c-0.4,0.7-0.9,1.3-1.3,1.9l0,0l-0.1,0.1
		c-0.5,0.8-1,1.4-1.5,2l-0.1,0.1l0,0c-0.5,0.6-1,1.1-1.6,1.8l0,0c-0.5,0.6-1.1,1.1-1.7,1.7l0,0l-0.1,0.1c-0.6,0.6-1.2,1.2-1.9,1.7
		l-0.1,0.1l0,0c-0.5,0.4-1.1,0.9-1.8,1.4l0,0l-0.1,0.1c-0.7,0.5-1.4,1-2.1,1.4l-0.1,0.1v0c-0.8,0.5-1.4,0.9-2,1.2l0,0
		c-0.8,0.4-1.5,0.8-2.1,1.1l0,0l-0.1,0.1c-0.7,0.3-1.5,0.7-2.3,1l-0.1,0.1v0c-0.8,0.3-1.5,0.6-2.3,0.8h0c-0.9,0.3-1.7,0.5-2.4,0.7
		l-0.1,0v0c-0.8,0.2-1.5,0.3-2.3,0.5l-0.1,0c-0.9,0.2-1.7,0.3-2.5,0.4h0c-0.7,0.1-1.5,0.2-2.4,0.2v0h-0.1c-0.9,0.1-1.7,0.1-2.5,0.1
		h-0.1v0c-0.8,0-1.6,0-2.4-0.1l0,0c-1-0.1-1.8-0.2-2.5-0.2l-0.1,0l0,0c-0.7-0.1-1.5-0.2-2.3-0.4v0l-0.1,0c-0.9-0.2-1.7-0.3-2.5-0.5
		c-0.7-0.2-1.5-0.4-2.3-0.7v0l-0.1,0c-0.8-0.3-1.6-0.5-2.4-0.8l-0.1-0.1l0,0c-0.8-0.3-1.5-0.6-2.2-0.9l0,0c-0.6-0.3-1.4-0.7-2.2-1.1
		v0l-0.1-0.1c-0.7-0.4-1.4-0.8-2.2-1.3l0,0c-0.7-0.4-1.4-0.9-2-1.4l-0.1-0.1l0,0c-0.7-0.5-1.4-1-1.9-1.5l-0.1-0.1l0,0
		c-0.6-0.5-1.2-1-1.8-1.6l-0.1-0.1l0,0c-0.5-0.5-1.1-1.1-1.6-1.6l0,0l-0.1-0.1c-0.5-0.6-1.1-1.2-1.7-1.9l-0.1-0.1l0,0
		c-0.4-0.5-0.9-1.1-1.4-1.8l0,0l-0.1-0.1c-0.5-0.7-1-1.3-1.4-2.1l-0.1-0.1h0c-0.4-0.6-0.8-1.3-1.2-2h0l-0.1-0.1
		c-0.4-0.7-0.8-1.4-1.1-2.2l0-0.1l0,0c-0.4-0.8-0.7-1.5-1-2.2l0-0.1h0c-0.3-0.7-0.5-1.5-0.8-2.3v0c-0.3-0.9-0.5-1.7-0.7-2.4l0-0.1
		c-0.2-0.8-0.4-1.5-0.5-2.3l0,0l0-0.1c-0.2-0.9-0.3-1.8-0.4-2.5v0c-0.1-0.7-0.2-1.6-0.2-2.5v0c-0.1-0.8-0.1-1.7-0.1-2.5
		c0-0.9,0-1.7,0.1-2.5v0c0-0.9,0.1-1.8,0.2-2.5l0-0.1l0,0c0.1-0.7,0.2-1.5,0.4-2.3l0,0l0-0.1c0.1-0.9,0.3-1.7,0.5-2.5
		c0.2-0.7,0.4-1.5,0.7-2.3h0l0-0.1c0.2-0.8,0.5-1.5,0.8-2.3l0,0l0-0.1c0.4-0.9,0.7-1.6,1-2.3l0-0.1h0c0.3-0.7,0.7-1.3,1-2.1l0,0
		l0.1-0.1c0.4-0.6,0.8-1.3,1.3-2.2c0.5-0.7,0.9-1.4,1.4-2.1l0.1-0.1l0,0c0.5-0.7,1-1.3,1.5-1.9l0.1-0.1l0,0c0.5-0.6,1.1-1.2,1.6-1.8
		l0,0c0.5-0.6,1.1-1.1,1.7-1.7l0,0l0.1-0.1c0.6-0.6,1.2-1.1,1.9-1.7c0.5-0.5,1.2-0.9,1.9-1.5l0,0l0.1-0.1c0.6-0.5,1.4-1,2.1-1.4
		l0.1-0.1v0l0.4-0.2c0.5-0.3,1.1-0.7,1.6-1v0l0.1-0.1c0.7-0.4,1.4-0.8,2.3-1.2l0.1-0.1l0,0c0.7-0.3,1.4-0.7,2.2-0.9l0.1-0.1v0
		c0.7-0.3,1.5-0.6,2.3-0.8h0c0.9-0.3,1.7-0.5,2.4-0.7l0.1,0c0.7-0.2,1.5-0.3,2.3-0.5l0,0l0.1,0c0.9-0.2,1.8-0.3,2.5-0.4
		c1-0.1,1.8-0.2,2.5-0.2h0c0.8-0.1,1.7-0.1,2.5-0.1h0.1v-17.7h-0.1c-1.1,0-2.3,0-3.5,0.1l0,0h-0.1h-0.1l0,0
		c-1.1,0.1-2.2,0.2-3.4,0.3l0,0l-0.1,0l-0.1,0l0,0c-1.2,0.2-2.3,0.3-3.4,0.5l0,0l-0.1,0c-1.3,0.2-2.5,0.5-3.6,0.8l-0.1,0l0,0
		c-1,0.3-2.1,0.6-3.3,1l0,0l-0.1,0l-0.1,0l0,0c-1,0.3-2,0.7-3.3,1.2l-0.1,0.1v0c-1.1,0.5-2.2,0.9-3.3,1.4l-0.1,0v0
		c-1.2,0.6-2.1,1.1-3,1.5v0l-0.1,0.1c-0.9,0.5-1.9,1.1-3.1,1.9l-0.1,0.1l0,0c-0.9,0.6-1.8,1.2-2.8,1.9l0,0l-0.1,0.1c0,0,0,0,0,0l0,0
		l0,0c-0.8,0.6-1.8,1.3-2.7,2.1l0,0l-0.1,0.1l0,0l-0.1,0.1l0,0c-0.8,0.7-1.6,1.4-2.5,2.3l0,0l-0.1,0.1c-0.9,0.8-1.7,1.7-2.5,2.5l0,0
		l-0.1,0.1c0,0,0,0.1-0.1,0.1l0,0l0,0c-0.9,1-1.7,1.8-2.4,2.7l-0.1,0.1l0,0c-0.7,0.8-1.4,1.7-2.1,2.7l0,0l-0.1,0.1l-0.1,0.1l0,0
		c-0.7,1-1.4,1.9-1.9,2.8l0,0l-0.1,0.1l-0.1,0.1l0,0c-0.7,1.1-1.3,2.1-1.8,2.9h0l-0.1,0.1c-0.5,0.9-1,2-1.6,3.2l0,0.1h0
		c-0.5,1.1-0.9,2.1-1.4,3.1h0l0,0.1c-0.4,1.1-0.8,2.1-1.2,3.3h0l0,0.1c-0.4,1.2-0.7,2.3-1,3.4l0,0l0,0.1l0,0.1l0,0
		c-0.3,1-0.5,2.1-0.7,3.3l0,0l0,0.1c0,0,0,0.1,0,0.1v0l0,0c-0.2,1.1-0.4,2.2-0.5,3.4l0,0v0c0,0,0,0.1,0,0.1l0,0.1l0,0
		c-0.1,1.2-0.3,2.3-0.3,3.4l0,0v0.1v0.1l0,0c-0.1,1.2-0.1,2.3-0.1,3.4l0,0v0.1v0.1l0,0c0,1.1,0,2.2,0.1,3.4l0,0v0.1v0.1l0,0
		c0.1,1.1,0.2,2.2,0.3,3.4l0,0l0,0.1c0,0,0,0,0,0l0,0.1l0,0c0.1,1.2,0.3,2.3,0.5,3.4l0,0l0,0.1c0.2,1.3,0.5,2.5,0.8,3.6l0,0.1l0,0
		c0.3,1,0.6,2.1,1,3.3l0,0l0,0.1l0,0.1l0,0c0.3,1,0.7,2,1.2,3.3l0,0.1h0c0.5,1.1,0.9,2.2,1.4,3.3l0,0.1h0c0.6,1.2,1.1,2.2,1.5,3h0
		l0.1,0.1c0.5,0.9,1.1,1.9,1.9,3.1l0.1,0.1l0,0c0.6,0.9,1.2,1.8,1.9,2.8h0l0.1,0.1c0.6,0.9,1.4,1.9,2.2,2.9l0.1,0.1l0,0
		c0.7,0.8,1.4,1.6,2.3,2.6l0,0l0.1,0.1c0.8,0.9,1.7,1.8,2.6,2.6l0.1,0.1v0c1,0.9,1.8,1.7,2.6,2.3l0.1,0.1l0,0
		c0.8,0.7,1.7,1.3,2.7,2.1l0,0l0.1,0.1l0.1,0.1l0,0c1,0.7,1.9,1.3,2.8,1.9l0,0l0.1,0.1l0.1,0.1l0,0c1.1,0.7,2,1.3,2.9,1.8v0l0.1,0.1
		c0.9,0.5,1.9,1,3.1,1.6l0,0l0.1,0.1c0,0,0,0,0,0l0.1,0l0,0c1.1,0.5,2.2,1,3.3,1.4l0.1,0.1v0c1,0.4,2,0.8,3.2,1.2v0l0.1,0
		c1.2,0.4,2.3,0.7,3.4,1l0,0l0.1,0l0.1,0l0,0c1,0.3,2.1,0.5,3.3,0.7v0l0.1,0c1.1,0.2,2.2,0.4,3.5,0.5l0,0h0c0,0,0.1,0,0.1,0l0.1,0
		l0,0c1.2,0.2,2.3,0.3,3.4,0.3l0,0h0.1h0.1l0,0c1.3,0.1,2.4,0.1,3.5,0.1h0.1v0c1.1,0,2.2-0.1,3.4-0.1v0h0.1c1.1-0.1,2.3-0.2,3.5-0.3
		l0,0l0.1,0c0,0,0,0,0,0l0.1,0l0,0c1.2-0.2,2.3-0.3,3.4-0.5l0,0l0.1,0c1.3-0.2,2.5-0.5,3.6-0.8l0.1,0v0c1-0.3,2.1-0.6,3.3-1l0,0
		l0.1,0l0.1,0l0,0c1-0.3,2-0.7,3.3-1.2l0.1-0.1v0c1.1-0.5,2.2-0.9,3.1-1.3v0l0.1-0.1c1.3-0.6,2.2-1.1,3.1-1.6l0,0l0.1-0.1l0.1-0.1
		l0,0c0.9-0.5,1.9-1.1,3-1.8l0.1-0.1l0,0c0.9-0.6,1.8-1.2,2.8-1.9v0l0.1-0.1c1-0.7,1.9-1.4,2.9-2.2l0.1-0.1l0,0
		c0.8-0.7,1.6-1.4,2.5-2.3l0,0l0.1-0.1c0.9-0.8,1.7-1.6,2.5-2.5l0,0l0.1-0.1l0.1-0.1l0,0c0.9-1,1.7-1.8,2.3-2.6l0.1-0.1l0,0
		c0.7-0.8,1.4-1.7,2.1-2.7h0l0.1-0.1c0.8-1.1,1.4-2.1,2-3l0.1-0.1h0c0.7-1.1,1.3-2.1,1.8-3l0,0l0.1-0.1c0.5-0.9,1-1.9,1.6-3.2l0,0
		l0-0.1c0,0,0,0,0,0l0-0.1l0,0c0.5-1.1,1-2.2,1.4-3.3l0-0.1h0c0.4-1,0.8-2.1,1.1-3.2h0l0-0.1c0.4-1.2,0.7-2.3,1-3.4l0,0l0-0.1l0-0.1
		l0,0c0.3-1,0.5-2.1,0.7-3.3h0l0-0.1c0.2-1.1,0.4-2.2,0.5-3.5l0,0v0c0,0,0-0.1,0-0.1l0-0.1l0,0c0.1-1.2,0.3-2.3,0.3-3.4l0,0v-0.1
		v-0.1l0,0C406.8,1128.4,406.8,1127.2,406.8,1126.2L406.8,1126.2L406.8,1126.2z"/>
</g>
<g>
	<path class="st10" d="M209.4,776.6c-0.1-1.1-0.2-2.2-0.3-3.5l0,0l0-0.1l0-0.1l0,0c-0.1-1.2-0.3-2.3-0.5-3.4l0,0l0-0.1
		c-0.2-1.3-0.5-2.5-0.8-3.6l0-0.1l0,0c-0.3-1-0.6-2.2-1-3.4l0-0.1h0c-0.3-1-0.7-2-1.1-3.2l0,0l0-0.1c0,0,0,0,0,0l0-0.1l0,0
		c-0.5-1.1-0.9-2.2-1.4-3.2l0-0.1h0c-0.6-1.2-1.1-2.2-1.6-3.1l-0.1-0.1h0c-0.5-0.9-1.1-1.9-1.8-3l-0.1-0.1l0,0
		c-0.6-0.9-1.2-1.8-1.9-2.8l0,0l-0.1-0.1c-0.6-0.9-1.4-1.9-2.2-2.9l-0.1-0.1l0,0c-0.7-0.8-1.4-1.6-2.3-2.5l0,0l-0.1-0.1
		c-0.8-0.8-1.6-1.7-2.5-2.5l0,0l-0.1-0.1c-1-0.9-1.9-1.7-2.7-2.4l-0.1-0.1l0,0c-0.8-0.7-1.7-1.4-2.7-2.1v0l-0.1-0.1
		c-1.1-0.8-2.1-1.4-3-2l-0.1-0.1v0c-1.1-0.7-2.1-1.3-3-1.8v0l-0.1-0.1c-1-0.5-2-1-3.2-1.7l-0.1,0v0c-1.1-0.5-2.1-0.9-3.1-1.3l0,0
		l-0.1,0c-1.1-0.4-2.1-0.8-3.3-1.2v0l-0.1,0c-1.2-0.4-2.3-0.7-3.4-1l0,0l-0.1,0l-0.1,0l0,0c-1-0.3-2.1-0.5-3.3-0.7l0,0l-0.1,0
		c-1.1-0.2-2.3-0.4-3.6-0.5l-0.1,0l0,0c-1.2-0.2-2.3-0.3-3.4-0.3l0,0h-0.1H155l0,0c-1.2-0.1-2.4-0.1-3.5-0.1h-0.1V740h0.1
		c0.9,0,1.7,0,2.5,0.1h0c0.7,0,1.5,0.1,2.5,0.2l0.1,0l0,0c0.6,0.1,1.4,0.2,2.3,0.4l0,0l0.1,0c0.8,0.2,1.6,0.3,2.5,0.5
		c0.7,0.2,1.5,0.4,2.3,0.7v0l0.1,0c0.8,0.2,1.5,0.5,2.3,0.8l0,0l0.1,0c0.8,0.3,1.6,0.6,2.3,1l0.1,0v0c0.7,0.3,1.4,0.7,2.1,1v0
		l0.1,0.1c0.6,0.4,1.3,0.8,2.2,1.3l0.1,0.1l0,0c0.6,0.4,1.2,0.8,1.9,1.3l0,0l0.1,0.1c0.8,0.5,1.4,1,2,1.5l0.1,0.1l0,0
		c0.5,0.5,1.1,1,1.7,1.5v0l0.1,0.1c0.6,0.5,1.1,1.1,1.7,1.7l0,0l0.1,0.1c0.5,0.5,1.1,1.2,1.7,1.9l0.1,0.1l0,0c0.5,0.6,1,1.3,1.4,1.8
		l0,0l0.1,0.1c0.5,0.7,1,1.4,1.4,2.1l0.1,0.1l0,0c0.5,0.8,0.9,1.4,1.2,2.1l0.1,0.1l0,0c0.4,0.8,0.8,1.5,1.1,2.2l0,0.1l0,0
		c0.3,0.7,0.6,1.4,0.9,2.2v0c0.3,0.8,0.6,1.6,0.9,2.4l0,0.1h0l0.1,0.4c0.2,0.6,0.4,1.3,0.6,1.9l0,0.1c0.2,0.8,0.4,1.6,0.5,2.3l0,0
		l0,0.1c0.2,0.8,0.3,1.7,0.4,2.5c0.1,0.8,0.2,1.6,0.2,2.5l0,0.1l17.6-1.1h0.1L209.4,776.6z"/>
	<path class="st9" d="M209.5,780.1L209.5,780.1c0-1.1-0.1-2.3-0.1-3.5v-0.1l-17.6,1.1h-0.1v0.1c0.1,0.8,0.1,1.7,0.1,2.5v0.1h0
		c0,0.8,0,1.6-0.1,2.4l0,0c-0.1,0.9-0.1,1.8-0.2,2.5l0,0.1l0,0c-0.1,0.7-0.2,1.5-0.4,2.3l0,0.1c-0.1,0.8-0.3,1.6-0.5,2.4h0l0,0.1
		c-0.2,0.8-0.4,1.5-0.7,2.4v0c-0.3,0.8-0.5,1.5-0.8,2.3l0,0l0,0.1c-0.3,0.9-0.7,1.6-1,2.3l0,0c-0.4,0.7-0.7,1.5-1.1,2.1h0l-0.1,0.1
		c-0.4,0.8-0.8,1.5-1.3,2.2l-0.1,0.1l0,0c-0.4,0.6-0.8,1.2-1.3,1.9l0,0l-0.1,0.1c-0.6,0.8-1.1,1.4-1.5,2l-0.1,0.1l0,0
		c-0.4,0.5-1,1.2-1.6,1.8l-0.1,0.1l12.8,12.1l0.1,0.1l0.1-0.1c0.9-1,1.7-1.9,2.4-2.7l0.1-0.1l0,0c0.7-0.8,1.4-1.7,2.1-2.7l0,0
		l0.1-0.1c0.8-1.1,1.4-2,2-3l0.1-0.1l0,0c0.7-1.1,1.3-2.1,1.8-2.9l0,0l0.1-0.1c0.5-0.9,1-1.9,1.6-3.2l0,0l0-0.1c0,0,0,0,0,0l0-0.1
		l0,0c0.5-1.1,0.9-2.1,1.4-3.1l0,0l0-0.1c0.4-1,0.8-2.1,1.2-3.3l0,0l0-0.1l0-0.1l0,0c0.4-1.2,0.7-2.3,1-3.3h0l0-0.1
		c0.3-1.1,0.5-2.2,0.8-3.4l0,0l0-0.1c0,0,0-0.1,0-0.1v0l0,0c0.2-1,0.4-2.2,0.5-3.4l0,0v0c0,0,0,0,0-0.1l0-0.1l0,0
		c0.1-1.2,0.3-2.3,0.3-3.4l0,0v-0.1c0,0,0,0,0,0v-0.1l0,0c0.1-1.3,0.1-2.4,0.1-3.5L209.5,780.1L209.5,780.1L209.5,780.1z"/>
	<path class="st8" d="M181,807.8L181,807.8l-0.2,0c-0.5,0.6-1.1,1.2-1.7,1.7l0,0l-0.1,0.1c-0.6,0.5-1.2,1.1-1.9,1.7l-0.1,0.1l0,0
		c-0.6,0.5-1.3,1-1.8,1.4l0,0l-0.1,0.1c-0.6,0.5-1.3,0.9-2.1,1.4l0,0c-0.8,0.5-1.5,0.9-2.2,1.3l0,0c-0.7,0.4-1.5,0.8-2.2,1.1l-0.1,0
		l0,0c-0.8,0.3-1.5,0.7-2.2,1c-0.7,0.3-1.5,0.6-2.4,0.8l-0.1,0v0l-0.3,0.1c-0.7,0.2-1.3,0.4-2,0.6l-0.1,0c-0.8,0.2-1.5,0.3-2.3,0.5
		l-0.1,0c-0.9,0.2-1.7,0.3-2.5,0.4h0c-0.8,0.1-1.5,0.2-2.5,0.2l0,0c-0.8,0-1.7,0.1-2.5,0.1c-0.9,0-1.7,0-2.5-0.1l0,0
		c-1-0.1-1.8-0.2-2.5-0.2l-0.1,0l0,0c-0.7-0.1-1.5-0.2-2.3-0.4l-0.1,0c-0.8-0.2-1.6-0.3-2.4-0.5v0l-0.1,0c-0.8-0.2-1.5-0.4-2.3-0.7
		l0,0l0,0l0,0l-0.1,0c-0.8-0.2-1.6-0.5-2.2-0.8l0,0l-0.1,0c-0.8-0.3-1.5-0.6-2.2-1l0,0l-0.1,0c-0.7-0.3-1.4-0.7-2.2-1.2l-0.1-0.1
		l0,0c-0.6-0.3-1.3-0.7-2.1-1.2h0c-0.6-0.4-1.3-0.9-2-1.3v0l-0.1-0.1c-0.8-0.6-1.4-1-2-1.5l-0.1-0.1l0,0c-0.5-0.5-1.2-1-1.8-1.6
		l-0.1-0.1l0,0c-0.6-0.5-1.1-1.1-1.6-1.6l0,0l-0.1-0.1c-0.6-0.6-1.2-1.3-1.7-1.9l-0.1-0.1l0,0c-0.4-0.5-0.9-1.1-1.4-1.8l0,0
		l-0.1-0.1c-0.5-0.8-1-1.4-1.4-2.1l-0.1-0.1h0c-0.4-0.6-0.8-1.3-1.2-2h0l-0.1-0.1c-0.4-0.8-0.8-1.6-1.2-2.2l0-0.1l0,0
		c-0.3-0.7-0.6-1.4-0.9-2.2l0-0.1h0c-0.3-0.7-0.6-1.5-0.8-2.3v0c-0.3-0.9-0.5-1.6-0.7-2.4l0-0.1c-0.2-0.8-0.4-1.5-0.5-2.3l0,0l0-0.1
		c-0.2-0.9-0.3-1.8-0.4-2.5l0-0.1l0,0c-0.1-0.9-0.2-1.6-0.2-2.3l0,0v-0.1c-0.1-0.8-0.1-1.7-0.1-2.5s0-1.7,0.1-2.5v0
		c0-0.9,0.2-1.8,0.2-2.5l0-0.1l0,0c0.1-0.6,0.2-1.5,0.4-2.3l0,0l0-0.1c0.2-0.8,0.3-1.6,0.5-2.5c0.2-0.9,0.5-1.7,0.7-2.3h0l0-0.1
		c0.2-0.8,0.5-1.5,0.8-2.3l0,0l0-0.1c0.3-0.8,0.7-1.6,1-2.3l0-0.1l0,0c0.4-0.8,0.7-1.5,1.1-2l0,0l0.1-0.1c0.3-0.7,0.8-1.3,1.3-2.2
		l0,0c0.5-0.7,0.9-1.4,1.4-2.1l0.1-0.1c0.5-0.7,1-1.4,1.5-1.9l0.1-0.1l0,0c0.5-0.5,1-1.1,1.6-1.8l0,0c0.5-0.6,1.1-1.1,1.7-1.7l0,0
		l0.1-0.1c0.7-0.6,1.3-1.2,1.9-1.7c0.6-0.5,1.2-1,2-1.5l0,0c0.6-0.5,1.3-1,2.1-1.4l0.1-0.1l0,0c0.5-0.3,1.2-0.8,2-1.2l0,0l0.1-0.1
		c0.7-0.4,1.4-0.8,2.3-1.2l0.1,0l0,0c0.7-0.3,1.4-0.6,2.2-1l0.1,0v0c0.7-0.3,1.5-0.5,2.3-0.8l0,0c0.7-0.2,1.6-0.5,2.4-0.7l0.1,0
		c0.8-0.2,1.5-0.4,2.3-0.5l0,0l0.1,0c0.7-0.1,1.4-0.3,2.4-0.4l0.1,0c1-0.1,1.7-0.2,2.4-0.2l0,0l0.1,0c0.8-0.1,1.7-0.1,2.5-0.1h0.1
		v-17.7h-0.1c-1.1,0-2.3,0-3.5,0.1l0,0H148h-0.1l0,0c-1.1,0.1-2.2,0.2-3.4,0.3l0,0l-0.1,0h0l-0.1,0l0,0c-1.2,0.2-2.3,0.3-3.4,0.5
		l0,0l-0.1,0c-1.3,0.2-2.4,0.5-3.6,0.8l-0.1,0l0,0c-1,0.3-2.1,0.6-3.3,1l0,0l-0.1,0l-0.1,0l0,0c-1,0.3-2,0.7-3.3,1.2l-0.1,0v0
		c-1.1,0.5-2.2,0.9-3.3,1.4l-0.1,0v0c-1.2,0.5-2.1,1-3,1.5l0,0l-0.1,0.1c-0.9,0.5-1.9,1.1-3.1,1.9l-0.1,0.1l0,0
		c-0.9,0.6-1.9,1.2-2.8,1.9l0,0l-0.1,0.1c0,0,0,0,0,0l0,0l0,0c-0.8,0.6-1.8,1.3-2.7,2.1l0,0l-0.1,0.1l0,0l-0.1,0.1l0,0
		c-0.8,0.7-1.6,1.4-2.6,2.3l0,0l-0.1,0.1c-0.9,0.8-1.7,1.7-2.5,2.5l0,0l-0.1,0.1c0,0,0,0-0.1,0.1l0,0c-0.9,1-1.7,1.8-2.4,2.7
		l-0.1,0.1l0,0c-0.7,0.8-1.4,1.7-2.1,2.7l0,0l-0.1,0.1l-0.1,0.1l0,0c-0.7,1-1.3,1.9-1.9,2.8l0,0l-0.1,0.1l-0.1,0.1l0,0
		c-0.7,1.1-1.3,2.1-1.8,3l0,0l-0.1,0.1c-0.5,1-1.1,2-1.7,3.2l-0.2,0.2h0c-0.5,1.1-0.9,2.1-1.3,3.1l0,0l0,0.1c-0.4,1-0.8,2.1-1.2,3.3
		h0l0,0.1c-0.4,1.2-0.7,2.3-1,3.4l0,0l0,0.1l0,0.1l0,0c-0.3,1-0.5,2.1-0.7,3.3l0,0l0,0.1c-0.2,1.1-0.4,2.3-0.6,3.6l0,0.1l0,0
		c-0.2,1.2-0.2,2.3-0.3,3.4l0,0v0.1l0,0v0.1l0,0c-0.1,1.2-0.1,2.3-0.1,3.4l0,0v0.1v0.1l0,0c0,1.1,0,2.2,0.1,3.4l0,0v0.1l0,0v0.1l0,0
		c0.1,1.1,0.2,2.2,0.3,3.4l0,0l0,0.1l0,0.1l0,0c0.2,1.2,0.3,2.3,0.5,3.4l0,0l0,0.1c0.2,1.3,0.5,2.5,0.8,3.6l0,0.1l0,0
		c0.2,1,0.6,2.1,1,3.3l0,0l0,0.1l0,0.1l0,0c0.3,1,0.7,2,1.2,3.3l0,0.1h0c0.5,1.2,0.9,2.2,1.4,3.3l0,0.1h0c0.6,1.2,1.1,2.1,1.5,3h0
		l0.1,0.1c0.5,0.9,1.1,1.9,1.9,3.1l0.1,0.1l0,0c0.6,0.9,1.2,1.8,1.9,2.8h0l0.1,0.1c0.6,0.9,1.4,1.9,2.2,2.9l0.1,0.1l0,0
		c0.7,0.8,1.4,1.6,2.3,2.5l0,0l0.1,0.1c0.8,0.9,1.7,1.8,2.6,2.6l0.1,0.1l0,0c1,0.9,1.8,1.7,2.6,2.4l0.1,0.1l0,0
		c0.8,0.7,1.7,1.4,2.7,2.1l0,0l0.1,0.1c1,0.7,2,1.4,2.9,2l0,0l0.1,0.1l0.1,0.1l0,0c1.2,0.7,2.1,1.3,3,1.8l0.1,0.1v0
		c0.9,0.5,1.9,1,3,1.5v0l0.1,0c1.1,0.5,2.2,1,3.2,1.4l0,0l0.1,0c1,0.4,2.1,0.8,3.3,1.2l0,0l0.1,0l0.1,0l0,0c1.2,0.4,2.3,0.7,3.3,1v0
		l0.1,0c1.1,0.3,2.2,0.5,3.4,0.8l0,0l0.1,0c1.1,0.2,2.3,0.4,3.6,0.5l0.1,0l0,0c1.2,0.2,2.3,0.3,3.4,0.3l0,0h0.1h0.1l0,0
		c1.2,0.1,2.3,0.1,3.4,0.1l0,0h0.1h0.1l0,0c1.1,0,2.2,0,3.4-0.1l0,0h0.1h0.1l0,0c1.1-0.1,2.2-0.2,3.4-0.3l0,0l0.1,0h0l0.1,0l0,0
		c1.2-0.2,2.3-0.3,3.4-0.5l0,0l0.1,0c1.3-0.2,2.4-0.5,3.6-0.8l0.1,0l0,0c1.1-0.3,2.1-0.6,3.4-1l0.1,0v0c1-0.3,2-0.7,3.2-1.2l0,0
		l0.1,0c0,0,0,0,0,0l0.1,0l0,0c1.1-0.5,2.2-0.9,3.2-1.4l0.1,0v0c1.2-0.6,2.1-1.1,3-1.5l0,0l0.1-0.1l0.1-0.1l0,0
		c0.9-0.5,1.8-1,2.9-1.8l0,0l0.1-0.1l0.1-0.1l0,0c0.9-0.6,1.9-1.2,2.8-1.9v0l0.1-0.1c0.9-0.7,1.9-1.4,2.9-2.2l0.1-0.1l0,0
		c0.8-0.7,1.6-1.4,2.6-2.3l0,0l0.1-0.1c0.9-0.8,1.8-1.7,2.6-2.6l0.1-0.1L181,807.8z"/>
</g>
<g>
	<path class="st10" d="M209,1126.5L209,1126.5c0-1.1-0.1-2.2-0.1-3.4h0v-0.1c-0.1-1.1-0.2-2.2-0.3-3.5l0,0l0-0.1l0-0.1l0,0
		c-0.1-1.2-0.3-2.3-0.5-3.4l0,0l0-0.1c-0.2-1.3-0.5-2.5-0.8-3.6l0-0.1l0,0c-0.3-1.1-0.6-2.2-1-3.4l0-0.1h0c-0.3-1-0.7-2-1.1-3.2l0,0
		l0-0.1c0,0,0,0,0,0l0-0.1l0,0c-0.5-1.1-0.9-2.2-1.4-3.2l0-0.1h0c-0.6-1.2-1.1-2.2-1.6-3.1l-0.1-0.1h0c-0.5-0.9-1.1-1.9-1.8-3
		l-0.1-0.1l0,0c-0.6-0.9-1.2-1.8-1.9-2.8l0,0l-0.1-0.1c-0.6-0.9-1.4-1.9-2.2-2.9l-0.1-0.1l0,0c-0.7-0.8-1.4-1.6-2.3-2.6l0,0
		l-0.1-0.1c-0.8-0.8-1.6-1.7-2.5-2.5l0,0l-0.1-0.1c-1-0.9-1.9-1.7-2.7-2.4l-0.1-0.1l0,0c-0.8-0.7-1.7-1.4-2.7-2.1v0l-0.1-0.1
		c-1.1-0.8-2.1-1.4-3-2l-0.1-0.1v0c-1.1-0.7-2.1-1.3-2.9-1.8l0,0l-0.1-0.1l-0.1-0.1l0,0c-0.9-0.5-1.9-1-3-1.6l0,0l-0.1,0
		c0,0,0,0,0,0l-0.1,0l0,0c-1.1-0.5-2.1-0.9-3.1-1.3l0,0l-0.1,0c-1-0.4-2.1-0.8-3.3-1.2l0,0l-0.1,0l-0.1,0l0,0
		c-1.2-0.4-2.3-0.7-3.3-1v0l-0.1,0c-1.1-0.3-2.2-0.5-3.4-0.8l0,0l-0.1,0c-1.1-0.2-2.3-0.4-3.6-0.6l-0.1,0l0,0
		c-1.2-0.2-2.3-0.3-3.4-0.3l0,0h-0.1h-0.1l0,0c-1.2-0.1-2.4-0.1-3.5-0.1h-0.1v17.7h0.1c0.9,0,1.7,0,2.5,0.1h0
		c0.9,0.1,1.8,0.2,2.5,0.2l0.1,0l0,0c0.6,0.1,1.5,0.2,2.3,0.4l0,0l0.1,0c0.8,0.1,1.6,0.3,2.4,0.5v0l0.1,0c0.8,0.2,1.6,0.4,2.4,0.7
		l0,0c0.8,0.2,1.5,0.5,2.2,0.8l0,0l0.1,0c0.8,0.3,1.5,0.6,2.3,1l0,0c0.7,0.3,1.5,0.7,2.2,1.1l0.1,0.1l0,0c0.6,0.3,1.3,0.7,2.1,1.2
		l0.1,0.1l0,0c0.6,0.4,1.2,0.8,1.9,1.3l0,0l0.1,0.1c0.8,0.6,1.4,1.1,2,1.5l0.1,0.1l0,0c0.5,0.4,1.1,1,1.7,1.5v0l0.1,0.1
		c0.6,0.5,1.1,1.1,1.7,1.7h0l0.1,0.1c0.5,0.6,1.1,1.2,1.7,1.9l0.1,0.1l0,0c0.5,0.6,1,1.3,1.4,1.8l0,0l0.1,0.1
		c0.4,0.6,0.9,1.2,1.4,2.1l0.1,0.1h0c0.5,0.8,0.9,1.4,1.2,2.1l0.1,0.1l0,0c0.4,0.8,0.8,1.5,1.1,2.1l0,0.1l0,0
		c0.3,0.7,0.6,1.4,0.9,2.2l0,0c0.3,0.7,0.6,1.5,0.9,2.4l0,0.1h0l0,0.1c0.2,0.7,0.4,1.5,0.6,2.2l0,0.1c0.2,0.8,0.4,1.6,0.5,2.3l0,0
		l0,0.1c0.2,0.8,0.3,1.7,0.4,2.5v0c0.1,0.7,0.2,1.5,0.2,2.4h0v0.1c0.1,0.8,0.1,1.7,0.1,2.5v0.1h0c0,0.8,0,1.6-0.1,2.4l0,0
		c-0.1,0.9-0.1,1.8-0.2,2.5l0,0.1l0,0c-0.1,0.7-0.2,1.5-0.4,2.3l0,0.1c-0.1,0.8-0.3,1.6-0.5,2.4h0l0,0.1c-0.2,0.8-0.4,1.6-0.7,2.4
		l0,0.1l16.8,5.4l0.1,0l0-0.1c0.4-1.2,0.7-2.3,1-3.4h0l0-0.1c0.3-1.1,0.5-2.2,0.8-3.4l0,0l0-0.1c0,0,0-0.1,0-0.1v0l0,0
		c0.2-1.1,0.4-2.2,0.5-3.4l0,0v0c0,0,0-0.1,0-0.1l0-0.1l0,0c0.1-1.2,0.3-2.3,0.3-3.4l0,0v-0.1v-0.1l0,0
		C208.9,1128.8,208.9,1127.7,209,1126.5L209,1126.5L209,1126.5L209,1126.5z"/>
	<path class="st8" d="M151,1068.6c-1.1,0-2.3,0-3.5,0.1l0,0h-0.1h-0.1l0,0c-1.1,0.1-2.2,0.2-3.4,0.3l0,0l-0.1,0h0l-0.1,0l0,0
		c-1.2,0.2-2.3,0.3-3.4,0.5l0,0l-0.1,0c-1.3,0.2-2.5,0.5-3.6,0.8l-0.1,0l0,0c-1.1,0.3-2.1,0.6-3.4,1l-0.1,0v0c-1,0.3-2,0.7-3.2,1.2
		l0,0l-0.1,0.1c0,0,0,0,0,0l-0.1,0l0,0c-1.1,0.5-2.2,0.9-3.2,1.4l-0.1,0.1v0c-1.2,0.6-2.2,1.1-3.1,1.6l-0.1,0.1v0
		c-0.9,0.5-1.8,1-2.9,1.8v0l-0.1,0.1c-0.9,0.6-1.9,1.2-2.9,2l0,0l-0.1,0.1c0,0,0,0,0,0l0,0l0,0c-0.8,0.6-1.8,1.3-2.7,2.1l0,0
		l-0.1,0.1l0,0l-0.1,0.1l0,0c-0.8,0.7-1.6,1.4-2.6,2.3l0,0l-0.1,0.1c-0.9,0.8-1.7,1.7-2.5,2.5l0,0l-0.1,0.1c0,0,0,0-0.1,0.1l0,0l0,0
		c-0.9,1-1.7,1.8-2.4,2.7l-0.1,0.1l0,0c-0.7,0.8-1.4,1.7-2.1,2.7l0,0l-0.1,0.1l-0.1,0.1l0,0c-0.7,1-1.4,2-2,2.9l-0.1,0.1h0
		c-0.7,1.1-1.3,2.1-1.8,2.9h0l-0.1,0.1c-0.5,1-1.1,2-1.7,3.2l0,0.1h0c-0.5,1.1-0.9,2.1-1.3,3.1l0,0l0,0.1c-0.4,1-0.8,2.1-1.2,3.3h0
		l0,0.1c-0.4,1.2-0.7,2.3-1,3.4l0,0l0,0.1l0,0.1l0,0c-0.3,1-0.5,2.1-0.7,3.3l0,0l0,0.1c-0.2,1.1-0.4,2.3-0.6,3.6l0,0.1l0,0
		c-0.2,1.2-0.2,2.3-0.3,3.4l0,0v0.1v0.1l0,0c-0.1,1.2-0.1,2.3-0.1,3.4l0,0v0.1v0.1l0,0c0,1.1,0,2.2,0.1,3.4l0,0v0.1v0.1l0,0
		c0.1,1.1,0.2,2.2,0.3,3.4l0,0l0,0.1v0l0,0.1l0,0c0.2,1.2,0.3,2.3,0.5,3.4l0,0l0,0.1c0.2,1.3,0.5,2.5,0.8,3.6l0,0.1l0,0
		c0.2,1,0.6,2.1,1,3.3l0,0l0,0.1l0,0.1l0,0c0.3,1,0.7,2,1.2,3.3l0,0.1h0c0.5,1.1,0.9,2.2,1.4,3.3l0,0.1h0c0.6,1.2,1.1,2.1,1.5,3h0
		l0.1,0.1c0.5,0.9,1.1,1.9,1.9,3.1l0.1,0.1l0,0c0.6,0.9,1.2,1.9,1.9,2.8h0l0.1,0.1c0.6,0.8,1.4,1.8,2.2,2.8l0,0l0.1,0.1l0.1,0.1l0,0
		c0.7,0.8,1.4,1.6,2.3,2.6l0,0l0.1,0.1c0.8,0.9,1.7,1.8,2.6,2.6l0.1,0.1v0c1,0.9,1.8,1.7,2.6,2.4l0.1,0.1l0,0
		c0.8,0.7,1.7,1.3,2.7,2.1l0,0l0.1,0.1c1.1,0.8,2.1,1.4,3,2l0.1,0.1l9.4-14.9l0.1-0.1l-0.1-0.1c-0.7-0.5-1.4-0.9-2-1.4v0l-0.1-0.1
		c-0.8-0.6-1.4-1.1-2-1.5l-0.1-0.1l0,0c-0.5-0.4-1.2-1-1.8-1.6l-0.1-0.1l0,0c-0.5-0.5-1.1-1.1-1.6-1.6l0,0l-0.1-0.1
		c-0.6-0.7-1.2-1.3-1.7-1.9c-0.4-0.6-0.9-1.2-1.5-1.9l0,0l-0.1-0.1c-0.6-0.8-1-1.4-1.4-2.1l0-0.1h0c-0.4-0.6-0.8-1.3-1.2-2h0
		l-0.1-0.1c-0.4-0.7-0.8-1.4-1.2-2.2l0-0.1l0,0c-0.3-0.7-0.6-1.4-0.9-2.2l0-0.1h0c-0.3-0.7-0.6-1.5-0.8-2.3v0
		c-0.3-0.8-0.5-1.6-0.7-2.4l0-0.1c-0.2-0.8-0.4-1.5-0.5-2.3l0,0l0-0.1c-0.2-0.9-0.3-1.8-0.4-2.5c-0.1-0.7-0.2-1.6-0.2-2.5v0
		c-0.1-0.8-0.1-1.7-0.1-2.5c0-0.8,0-1.7,0.1-2.5v0c0-0.9,0.2-1.8,0.2-2.5l0-0.1l0,0c0.1-0.7,0.2-1.4,0.4-2.3l0,0l0-0.1
		c0.2-0.8,0.3-1.6,0.5-2.5c0.2-0.7,0.4-1.5,0.7-2.3h0l0-0.1c0.2-0.7,0.5-1.5,0.8-2.3l0,0l0-0.1c0.3-0.8,0.7-1.6,1-2.3l0-0.1l0,0
		c0.4-0.8,0.7-1.5,1.1-2h0l0.1-0.1c0.4-0.7,0.8-1.4,1.3-2.2l0.1-0.1l0,0c0.4-0.7,0.9-1.4,1.4-2l0.1-0.1l0,0c0.5-0.8,1-1.3,1.5-1.9
		l0.1-0.1l0,0c0.5-0.5,1-1.1,1.6-1.8l0,0c0.5-0.6,1.1-1.1,1.7-1.7l0,0l0.1-0.1c0.7-0.6,1.3-1.2,1.9-1.7c0.6-0.5,1.2-0.9,1.9-1.5l0,0
		l0.1-0.1c0.6-0.5,1.3-0.9,2-1.4l0,0l0.1-0.1c0.8-0.5,1.5-0.9,2.2-1.3l0.1-0.1l0,0c0.6-0.4,1.3-0.7,2.1-1.1l0.1,0l0,0
		c0.7-0.3,1.4-0.6,2.2-0.9c0.8-0.3,1.6-0.6,2.4-0.8l0.1,0v0c0.7-0.2,1.5-0.5,2.3-0.7l0,0c0.8-0.2,1.6-0.4,2.3-0.5l0,0l0.1,0
		c0.9-0.2,1.8-0.3,2.5-0.4h0c0.7-0.1,1.6-0.2,2.5-0.2h0c0.8-0.1,1.7-0.1,2.5-0.1h0.1v-17.7L151,1068.6L151,1068.6L151,1068.6z"/>
	<path class="st9" d="M189.4,1138.9l-0.1,0l0,0.1c-0.2,0.7-0.5,1.5-0.8,2.3l0,0l0,0.1c-0.3,0.8-0.6,1.6-1,2.3l0,0.1
		c-0.3,0.7-0.7,1.4-1.1,2.2h0l-0.1,0.1c-0.4,0.8-0.8,1.5-1.3,2.2l-0.1,0.1l0,0c-0.5,0.8-0.9,1.3-1.3,1.9h0l-0.1,0.1
		c-0.6,0.8-1.1,1.4-1.5,2l-0.1,0.1l0,0c-0.4,0.5-1,1.2-1.6,1.8l0,0c-0.5,0.6-1.1,1.1-1.7,1.7l0,0l-0.1,0.1c-0.5,0.5-1.1,1.1-1.9,1.7
		l-0.1,0.1l0,0c-0.6,0.5-1.2,0.9-1.8,1.4l0,0l-0.1,0.1c-0.6,0.4-1.3,0.9-2.1,1.4l0,0c-0.8,0.5-1.5,0.9-2.1,1.3
		c-0.7,0.4-1.5,0.8-2.3,1.2l-0.1,0l0,0c-0.8,0.3-1.5,0.7-2.2,0.9h0c-0.8,0.3-1.6,0.6-2.4,0.8l-0.1,0v0l-0.3,0.1
		c-0.7,0.2-1.3,0.4-2,0.6l-0.1,0c-0.8,0.2-1.5,0.3-2.3,0.5l-0.1,0c-0.9,0.2-1.7,0.3-2.5,0.4c-0.8,0.1-1.6,0.2-2.5,0.2l0,0
		c-0.8,0.1-1.7,0.1-2.5,0.1c-0.9,0-1.7-0.1-2.5-0.1l0,0c-0.9-0.1-1.7-0.1-2.5-0.2l-0.1,0l0,0c-0.7-0.1-1.5-0.2-2.3-0.4l-0.1,0
		c-0.8-0.2-1.6-0.3-2.4-0.5v0l-0.1,0c-0.8-0.2-1.5-0.4-2.3-0.7l-0.2-0.1c-0.8-0.2-1.5-0.5-2.2-0.8l0,0l-0.1-0.1
		c-0.8-0.3-1.5-0.6-2.2-0.9l0,0l-0.1-0.1c-0.7-0.3-1.4-0.7-2.2-1.2l-0.1-0.1l0,0c-0.6-0.3-1.3-0.7-2.1-1.2l-0.1-0.1l-9.4,14.9
		l-0.1,0.1l0.1,0.1c1.2,0.8,2.2,1.3,3.1,1.9l0.1,0.1v0c0.9,0.5,1.9,1,3,1.5v0l0.1,0.1c1.1,0.5,2.2,1,3.2,1.4l0,0l0.1,0
		c1.1,0.4,2.1,0.8,3.3,1.2l0,0l0.1,0l0.1,0l0,0c1.2,0.4,2.3,0.7,3.3,1v0l0.1,0c1.1,0.3,2.2,0.5,3.4,0.8l0,0l0.1,0c0,0,0.1,0,0.1,0h0
		l0,0c1.1,0.2,2.1,0.4,3.4,0.5l0,0h0c0,0,0.1,0,0.1,0l0.1,0l0,0c1.2,0.2,2.3,0.3,3.4,0.3l0,0h0.1h0.1l0,0c1.2,0.1,2.3,0.1,3.4,0.1
		l0,0h0.1h0.1l0,0c1.1,0,2.2,0,3.4-0.1l0,0h0.1h0.1l0,0c1.1-0.1,2.2-0.2,3.4-0.3l0,0l0.1,0l0.1,0l0,0c1.2-0.2,2.3-0.3,3.4-0.5l0,0
		l0.1,0c1.3-0.2,2.5-0.5,3.6-0.8l0.1,0l0,0c1.1-0.3,2.2-0.6,3.4-1l0.1,0v0c1-0.3,2-0.7,3.2-1.2l0,0l0.1,0c0,0,0,0,0,0l0.1-0.1l0,0
		c1.1-0.5,2.2-0.9,3.2-1.4l0.1,0v0c1.1-0.6,2.1-1.1,3-1.6l0,0l0.1-0.1l0.1-0.1l0,0c0.9-0.5,1.8-1.1,2.9-1.8l0,0l0.1-0.1l0.1-0.1l0,0
		c0.9-0.6,1.9-1.2,2.8-1.9v0l0.1-0.1c0.9-0.6,1.9-1.4,2.9-2.2l0.1-0.1l0,0c0.8-0.7,1.6-1.4,2.6-2.3l0,0l0.1-0.1
		c0.9-0.8,1.7-1.6,2.5-2.5l0,0l0.1-0.1l0.1-0.1l0,0c0.9-1,1.7-1.8,2.3-2.6l0.1-0.1l0,0c0.7-0.8,1.4-1.7,2.1-2.7l0,0l0.1-0.1
		c0.8-1.1,1.4-2.1,2-3l0.1-0.1l0,0c0.7-1.1,1.3-2.1,1.8-2.9l0,0l0.1-0.1c0.5-0.9,1-1.9,1.6-3.2l0,0l0-0.1c0,0,0,0,0,0l0-0.1l0,0
		c0.5-1.1,0.9-2.1,1.4-3.1l0,0l0-0.1c0.4-1.1,0.8-2.2,1.2-3.4l0-0.1L189.4,1138.9z"/>
</g>
<g>
	<path class="st10" d="M303.7,1490.8c-0.5-1.2-1-2.3-1.4-3.3l0-0.1h0c-0.6-1.2-1.1-2.2-1.6-3.2l0-0.1h0c-0.5-0.9-1.1-1.9-1.8-3.1
		l0-0.1l0,0c-0.6-0.9-1.2-1.9-2-2.9l0,0l0-0.1c-0.7-0.9-1.4-1.9-2.2-2.9l0-0.1l0,0c-0.7-0.8-1.4-1.7-2.3-2.6l0,0l0-0.1
		c-0.8-0.9-1.6-1.7-2.5-2.5l0,0l-0.1-0.1l0-0.1l0,0c-1-0.9-1.8-1.7-2.7-2.4l-0.1-0.1l0,0c-0.8-0.7-1.8-1.4-2.8-2.1l0,0l-0.1,0
		c-1-0.8-2-1.4-3-2l-0.1,0v0c-1.1-0.7-2.1-1.3-3-1.8l0,0l-0.1,0l-0.1,0l0,0c-0.9-0.5-1.9-1-3.1-1.6l0,0l-0.1,0c0,0,0,0,0,0l0,0l0,0
		c-1.1-0.5-2.1-1-3.2-1.4v0l-0.1,0c-1-0.4-2.1-0.8-3.4-1.2l0,0l-0.1,0l-0.1,0l0,0c-1.2-0.4-2.3-0.7-3.4-1v0l-0.1,0
		c-1.1-0.3-2.2-0.5-3.5-0.8v0l-0.1,0c-1.1-0.2-2.3-0.4-3.6-0.6l-0.1,0l0,0c-1.2-0.2-2.4-0.3-3.5-0.3l0,0h-0.1h-0.1l0,0
		c-1.3-0.1-2.4-0.1-3.6-0.1h-0.1v17.7h0.1c0.9,0,1.7,0,2.5,0.1h0.1l0,0c0.7,0,1.5,0.1,2.4,0.2l0.1,0l0,0c0.7,0.1,1.5,0.2,2.3,0.4
		l0,0l0.1,0c0.8,0.2,1.6,0.3,2.4,0.5v0l0.1,0c0.8,0.2,1.6,0.4,2.4,0.7l0,0c0.8,0.2,1.5,0.5,2.3,0.8l0,0l0.1,0c0.8,0.3,1.5,0.6,2.3,1
		l0,0c0.8,0.4,1.5,0.7,2.2,1.1c0.6,0.4,1.3,0.8,2.2,1.3l0.1,0v0c0.6,0.4,1.2,0.8,2,1.3v0l0.1,0c0.8,0.6,1.4,1.1,2,1.5l0.1,0.1l0,0
		c0.6,0.5,1.2,1,1.8,1.7l0,0c0.6,0.6,1.2,1.1,1.7,1.7l0,0l0,0.1c0.5,0.6,1.1,1.2,1.7,1.9l0,0.1l0,0c0.5,0.7,1,1.3,1.5,1.9l0,0l0,0.1
		c0.4,0.6,0.9,1.2,1.4,2.1l0,0.1l0,0c0.5,0.8,0.9,1.5,1.2,2.1l0,0.1h0c0.5,0.8,0.8,1.5,1.1,2.2l0,0.1l0,0c0.3,0.7,0.6,1.4,1,2.3
		l0,0.1L303.7,1490.8L303.7,1490.8L303.7,1490.8z"/>
	<path class="st9" d="M307.8,1512L307.8,1512c0-1.1-0.1-2.2-0.1-3.5h0v-0.1c-0.1-1.1-0.2-2.3-0.3-3.6l0,0l0-0.1
		c-0.1-1.3-0.3-2.4-0.5-3.5l0,0l0-0.1l0-0.1l0,0c-0.2-1.2-0.5-2.3-0.8-3.4l0,0l0-0.1l0-0.1l0,0c-0.3-1.1-0.6-2.2-1-3.4l0-0.1h0
		c-0.3-1-0.7-2.1-1.2-3.4l0-0.1l-16.3,6.5l-0.1,0l0,0.1c0.3,0.8,0.6,1.6,0.9,2.4l0,0.1h0l0,0c0.2,0.8,0.5,1.5,0.7,2.3l0,0
		c0.2,0.9,0.4,1.7,0.5,2.5v0c0.2,0.9,0.3,1.7,0.4,2.4l0,0l0,0.1c0.1,0.7,0.2,1.5,0.2,2.4h0v0.1c0.1,0.8,0.1,1.7,0.1,2.5v0.1h0
		c0,0.8,0,1.7-0.1,2.4l0,0c-0.1,0.9-0.1,1.8-0.2,2.5l0,0.1l0,0c-0.1,0.7-0.2,1.5-0.4,2.3l0,0l0,0.1c-0.1,0.8-0.3,1.6-0.5,2.4h0
		l0,0.1c-0.2,0.8-0.4,1.5-0.7,2.4v0c-0.3,0.8-0.5,1.6-0.9,2.4l0,0c-0.3,0.8-0.6,1.6-1,2.2l0,0l0,0.1c-0.3,0.7-0.7,1.4-1.1,2.2l0,0
		l0,0.1c-0.4,0.7-0.8,1.4-1.3,2.2l0,0.1l0,0c-0.4,0.6-0.8,1.3-1.4,2l0,0l0,0.1c-0.6,0.8-1.1,1.4-1.5,2l0,0.1l0,0
		c-0.5,0.6-1,1.2-1.6,1.8l0,0c-0.5,0.6-1.1,1.2-1.7,1.7l0,0l0,0.1c-0.6,0.6-1.3,1.2-1.9,1.7l-0.1,0.1l0,0c-0.7,0.6-1.3,1-1.9,1.4
		l0,0l-0.1,0c-0.6,0.4-1.3,0.9-2.1,1.4l0,0c-0.8,0.5-1.5,0.9-2.2,1.3c-0.8,0.4-1.5,0.8-2.3,1.2l-0.1,0l0,0c-0.8,0.3-1.5,0.7-2.2,1
		l0,0c-0.8,0.3-1.6,0.6-2.4,0.8l-0.1,0v0c-0.8,0.3-1.6,0.5-2.4,0.7l-0.1,0l0,0c-0.8,0.2-1.5,0.3-2.3,0.5l0,0l-0.1,0
		c-0.9,0.2-1.7,0.3-2.5,0.4c-0.8,0.1-1.6,0.2-2.5,0.2h0h0c-0.8,0-1.6,0.1-2.5,0.1c-0.8,0-1.7,0-2.5-0.1h-0.1h0
		c-0.9-0.1-1.8-0.1-2.5-0.2l-0.1,0l0,0c-0.7-0.1-1.5-0.2-2.3-0.4l0,0l-0.1,0c-0.9-0.2-1.6-0.3-2.4-0.5v0l-0.1,0
		c-0.8-0.2-1.5-0.4-2.4-0.7l-0.1,0l-5.4,16.7l0,0.1l0.1,0c1.2,0.4,2.4,0.7,3.4,1v0l0.1,0c1.1,0.3,2.2,0.5,3.5,0.8l0,0l0.1,0
		c1.1,0.2,2.3,0.4,3.6,0.6l0.1,0l0,0c1.2,0.2,2.4,0.3,3.5,0.3l0,0h0.1c0,0,0,0,0,0h0.1l0,0c1.2,0.1,2.4,0.1,3.5,0.1l0,0h0.1h0.1l0,0
		c1.1,0,2.2,0,3.5-0.1l0,0h0.1h0.1l0,0c1.1-0.1,2.2-0.2,3.5-0.3l0,0l0.1,0c0,0,0,0,0,0h0l0,0c1.2-0.2,2.4-0.3,3.5-0.5l0,0l0.1,0
		c1.3-0.2,2.5-0.5,3.6-0.8l0.1,0v0c1.1-0.3,2.2-0.6,3.4-1l0.1,0v0c1-0.3,2-0.7,3.3-1.2l0,0l0,0c0,0,0,0,0,0l0.1,0l0,0
		c1.2-0.5,2.3-0.9,3.3-1.4l0.1,0v0c1.2-0.6,2.2-1.1,3.1-1.6l0,0l0.1,0l0.1,0l0,0c0.9-0.5,1.9-1.1,3-1.8l0,0l0.1,0l0.1,0l0,0
		c0.9-0.6,1.9-1.2,2.9-2l0,0l0.1,0c0.9-0.6,1.9-1.4,2.9-2.2l0.1-0.1l0,0c0.8-0.7,1.7-1.4,2.6-2.3l0,0l0-0.1c0.9-0.8,1.7-1.7,2.5-2.5
		l0,0l0-0.1l0-0.1l0,0c0.9-1,1.7-1.8,2.4-2.7l0-0.1l0,0c0.7-0.9,1.4-1.8,2.1-2.8l0,0l0-0.1c0.8-1,1.4-2.1,2-3l0-0.1l0,0
		c0.7-1.2,1.3-2.1,1.8-3l0,0l0-0.1c0.5-0.9,1-1.9,1.6-3.2h0l0-0.1c0.5-1.1,1-2.2,1.4-3.3l0,0l0-0.1c0,0,0,0,0,0l0-0.1l0,0
		c0.4-1,0.8-2.1,1.2-3.3l0,0l0-0.1l0-0.1l0,0c0.4-1.2,0.7-2.3,1-3.4h0l0-0.1c0.3-1.1,0.5-2.2,0.8-3.5l0,0l0-0.1
		c0.2-1.1,0.4-2.3,0.6-3.6l0-0.1l0,0c0.1-1.2,0.3-2.4,0.3-3.5l0,0v-0.1v-0.1l0,0C307.7,1514.4,307.7,1513.2,307.8,1512L307.8,1512
		L307.8,1512L307.8,1512z"/>
	<path class="st8" d="M249.8,1454.2c-1.1,0-2.3,0-3.6,0.1l0,0h-0.1c0,0,0,0,0,0h-0.1l0,0c-1.1,0.1-2.2,0.2-3.5,0.3l0,0l-0.1,0
		l-0.1,0l0,0c-1.2,0.2-2.4,0.3-3.5,0.5v0l-0.1,0c-1.3,0.2-2.4,0.5-3.6,0.8l-0.1,0l0,0c-1.1,0.3-2.2,0.6-3.4,1l-0.1,0v0
		c-1,0.3-2,0.7-3.3,1.2l0,0l-0.1,0c0,0,0,0,0,0l-0.1,0l0,0c-1.1,0.5-2.3,0.9-3.3,1.4l-0.1,0v0c-1.2,0.6-2.2,1.1-3.2,1.6l-0.1,0v0
		c-0.9,0.5-1.9,1.1-3,1.8v0l-0.1,0c-0.9,0.6-1.9,1.3-2.9,2l0,0l-0.1,0l0,0l-0.1,0l0,0c-0.9,0.7-1.8,1.4-2.8,2.1l0,0l-0.1,0.1l0,0
		l0,0l0,0c-0.8,0.7-1.6,1.4-2.6,2.3l0,0l-0.1,0.1l-0.1,0.1l0,0c-0.8,0.8-1.7,1.6-2.5,2.5l0,0l-0.1,0.1c-0.9,1-1.7,1.9-2.4,2.7
		l-0.1,0.1l0,0c-0.7,0.8-1.4,1.8-2.1,2.8l0,0l0,0.1c0,0,0,0,0,0l0,0.1l0,0c-0.8,1-1.4,2-2,2.9l0,0.1h0c-0.7,1.2-1.3,2.1-1.8,3l0,0
		l0,0.1c-0.5,0.9-1,2-1.6,3.2l0,0.1h0c-0.5,1.1-0.9,2.1-1.4,3.2h0l0,0.1c-0.4,1.1-0.8,2.2-1.2,3.4h0l0,0.1c-0.4,1.2-0.7,2.4-1,3.4
		l0,0l0,0.1l0,0.1l0,0c-0.3,1.1-0.5,2.2-0.8,3.4l0,0l0,0.1l0,0.1l0,0c-0.2,1.1-0.4,2.2-0.5,3.4l0,0l0,0.1l0,0.1l0,0
		c-0.1,1.2-0.3,2.4-0.3,3.5l0,0v0c0,0,0,0,0,0v0.1l0,0c-0.1,1.2-0.1,2.4-0.1,3.5l0,0v0.1v0v0v0.1l0,0c0,1.1,0,2.2,0.1,3.5l0,0v0.1
		v0.1l0,0c0.1,1.1,0.2,2.2,0.3,3.5l0,0l0,0.1v0l0,0.1l0,0c0.1,1.2,0.3,2.4,0.5,3.5l0,0l0,0.1c0.2,1.3,0.5,2.4,0.8,3.6l0,0.1h0
		c0.3,1,0.6,2.1,1,3.3l0,0l0,0.1l0,0.1l0,0c0.3,1,0.7,2.1,1.2,3.3l0,0.1l0,0c0.5,1.1,0.9,2.2,1.4,3.2l0,0l0,0.1c0,0,0,0,0,0l0,0.1
		l0,0c0.6,1.2,1.1,2.2,1.6,3.1h0l0,0.1c0.5,0.9,1.1,1.9,1.9,3.1l0,0.1l0,0c0.6,0.9,1.2,1.9,2,2.9l0,0l0,0.1c0.6,0.9,1.4,1.9,2.2,2.8
		l0,0l0,0l0,0l0.1,0.1l0,0c0.7,0.8,1.4,1.6,2.3,2.6l0,0l0.1,0.1c0.8,0.9,1.7,1.7,2.6,2.6l0.1,0.1l0,0c0.9,0.9,1.8,1.6,2.6,2.3l0,0
		l0.1,0l0,0l0.1,0.1l0,0c0.9,0.7,1.8,1.4,2.8,2.1l0,0l0.1,0l0.1,0l0,0c1,0.7,2,1.4,2.9,2l0,0l0.1,0l0.1,0l0,0
		c1.2,0.7,2.1,1.3,3.1,1.8l0.1,0v0c0.9,0.5,1.9,1,3.1,1.6v0l0.1,0c1.1,0.5,2.2,1,3.3,1.4v0l0.1,0c1.1,0.4,2.2,0.8,3.4,1.2l0.1,0
		l5.4-16.7l0-0.1l-0.1,0c-0.8-0.2-1.6-0.5-2.3-0.8l0,0l-0.1,0c-0.8-0.3-1.6-0.7-2.3-1v0l-0.1,0c-0.7-0.3-1.4-0.7-2.3-1.2l-0.1,0v0
		c-0.6-0.3-1.3-0.7-2.1-1.2h0c-0.7-0.4-1.4-0.9-2.1-1.4l0,0c-0.6-0.4-1.3-0.9-2-1.5l0,0c-0.6-0.5-1.2-1.1-1.9-1.7l-0.1-0.1l0,0
		c-0.6-0.5-1.1-1.1-1.7-1.7l0,0l-0.1-0.1c-0.6-0.7-1.2-1.3-1.7-1.9l0,0c-0.5-0.6-0.9-1.2-1.5-2h0l0-0.1c-0.6-0.8-1-1.4-1.4-2.1
		l0-0.1l0,0c-0.4-0.6-0.8-1.3-1.2-2l0,0l0-0.1c-0.4-0.7-0.8-1.4-1.1-2.3c-0.3-0.7-0.7-1.5-1-2.3l0-0.1h0c-0.3-0.8-0.6-1.5-0.8-2.3v0
		c-0.3-0.9-0.5-1.7-0.7-2.4l0-0.1l0,0c-0.2-0.8-0.4-1.6-0.5-2.3l0,0l0-0.1c-0.1-0.7-0.3-1.5-0.4-2.5l0-0.1l0,0
		c-0.1-0.9-0.2-1.7-0.2-2.4l0,0l0-0.1c-0.1-0.8-0.1-1.7-0.1-2.5c0-0.9,0-1.7,0.1-2.5l0-0.1l0,0c0.1-0.9,0.1-1.8,0.2-2.5
		c0.1-1,0.2-1.7,0.4-2.4l0,0l0-0.1c0,0,0,0,0,0v0c0.1-0.8,0.3-1.6,0.5-2.5c0.2-0.7,0.4-1.5,0.7-2.4h0l0-0.1c0.2-0.8,0.5-1.5,0.8-2.3
		l0,0l0-0.1c0.3-0.9,0.7-1.6,1-2.3l0-0.1h0c0.4-0.8,0.8-1.5,1.1-2.1l0,0l0-0.1c0.4-0.7,0.8-1.4,1.3-2.2l0-0.1h0
		c0.4-0.7,0.9-1.3,1.4-2l0,0l0-0.1c0.5-0.7,1-1.3,1.5-2l0.1-0.1l0,0c0.5-0.6,1-1.1,1.6-1.8l0,0l0.1-0.1c0.6-0.6,1.1-1.2,1.8-1.8l0,0
		c0.7-0.6,1.3-1.2,1.9-1.7c0.6-0.5,1.2-1,1.9-1.5l0,0l0.1,0c0.6-0.5,1.3-0.9,2-1.4v0l0.1,0c0.8-0.5,1.5-0.9,2.2-1.3l0.1,0v0
		c0.8-0.4,1.5-0.8,2.2-1.1l0.1,0l0,0c0.7-0.3,1.4-0.6,2.3-1l0,0c0.8-0.3,1.6-0.6,2.4-0.8l0.1,0v0c0.7-0.2,1.5-0.5,2.4-0.7l0.1,0l0,0
		c0.8-0.2,1.6-0.3,2.3-0.5l0,0l0.1,0c0.9-0.2,1.7-0.3,2.5-0.4l0.1,0l0,0c0.7-0.1,1.5-0.2,2.4-0.2h0c0.9-0.1,1.7-0.1,2.5-0.1h0.1
		L249.8,1454.2L249.8,1454.2L249.8,1454.2z"/>
</g>
<circle class="st24" cx="208.8" cy="381.2" r="17.3"/>
<circle class="st24" cx="209.4" cy="727.1" r="17.3"/>
<circle class="st24" cx="212.4" cy="1075.2" r="17.3"/>
<g>
	<g>
		<path class="st24" d="M223,371.4c9.4-9.9,22.7-16,37.4-16c19.6,0,36.7,11,45.5,27.1"/>
		<g>
			<polygon points="301.9,381.8 302.1,381.1 305.7,382.2 306.5,378.6 307.2,378.8 306.2,383.2 			"/>
		</g>
	</g>
</g>
<g>
	<g>
		<path class="st24" d="M223.7,717.4c9.4-9.9,22.7-16,37.4-16c19.6,0,36.7,11,45.5,27.1"/>
		<g>
			<polygon points="302.6,727.9 302.8,727.2 306.3,728.3 307.2,724.7 307.9,724.9 306.9,729.2 			"/>
		</g>
	</g>
</g>
<g>
	<g>
		<path class="st24" d="M222.6,1061.3c9.4-10.2,22.9-16.6,37.9-16.6c19.6,0,36.7,11,45.5,27.1"/>
		<g>
			<polygon points="302.1,1071.2 302.3,1070.5 305.8,1071.6 306.7,1068 307.4,1068.2 306.4,1072.6 			"/>
		</g>
	</g>
</g>
</svg>
