<?xml version="1.0" encoding="utf-8"?>
<!-- Generator: Adobe Illustrator 27.3.1, SVG Export Plug-In . SVG Version: 6.00 Build 0)  -->
<svg version="1.1" id="Capa_1" xmlns="http://www.w3.org/2000/svg" xmlns:xlink="http://www.w3.org/1999/xlink" x="0px" y="0px"
	 viewBox="0 0 420 200" style="enable-background:new 0 0 420 200;" xml:space="preserve">
<style type="text/css">
	.st0{fill:none;}
	.st1{fill:#1E1E1C;}
	.st2{font-family:'Roboto-Light';}
	.st3{font-size:10px;}
	.st4{font-family:'Roboto-Regular';}
	.st5{font-size:12px;}
	.st6{fill:#D51317;}
	.st7{fill:#3C3C3B;}
	.st8{fill:#F5E7D3;}
	.st9{fill:#9C9B9B;}
	.st10{fill:#F96A33;}
	.st11{fill:#B4B4B3;}
	.st12{fill:#F9AE33;}
	.st13{fill:#FFFFFF;}
	.st14{fill:#7AC4EE;}
	.st15{fill:#FCC84F;stroke:#000000;stroke-width:0.0706;stroke-linecap:round;stroke-linejoin:round;}
	.st16{fill:none;stroke:#000000;stroke-width:0.0706;stroke-linecap:round;stroke-linejoin:round;}
	.st17{fill:#00528C;}
	.st18{fill:#FCC84F;}
	.st19{fill:#E40040;}
	.st20{fill:#005496;}
	.st21{fill:#009540;}
	.st22{fill:#009EE2;}
	.st23{fill:none;stroke:#1E1E1C;stroke-width:0.5;stroke-miterlimit:10;}
	.st24{fill:#1D1D1B;}
</style>
<g>
	<rect x="106.66" y="132.14" class="st0" width="26.33" height="14.31"/>
	<text transform="matrix(1 0 0 1 106.6628 139.639)" class="st1 st2 st3">70%</text>
</g>
<g>
	<rect x="257.21" y="107.19" class="st0" width="26.33" height="14.31"/>
	<text transform="matrix(1 0 0 1 257.2087 114.687)" class="st1 st2 st3">62%</text>
</g>
<g>
	<rect x="4.13" y="68.45" class="st0" width="26.33" height="14.31"/>
	<text transform="matrix(1 0 0 1 4.1257 75.9507)" class="st1 st2 st3">12%</text>
</g>
<g>
	<rect x="18.06" y="12.53" class="st0" width="26.33" height="14.31"/>
	<text transform="matrix(1 0 0 1 18.0642 20.0324)" class="st1 st2 st3">10%</text>
</g>
<g>
	<rect x="44.01" y="70.33" class="st0" width="54.28" height="10.55"/>
	<text transform="matrix(1 0 0 1 59.2044 79.3294)" class="st1 st4 st5">ORO</text>
</g>
<g>
	<rect x="148.98" y="42.44" class="st0" width="26.33" height="14.31"/>
	<text transform="matrix(1 0 0 1 148.9763 51.4354)" class="st1 st2 st5">7%</text>
</g>
<g>
	<rect x="154.62" y="123.99" class="st0" width="26.33" height="14.31"/>
	<text transform="matrix(1 0 0 1 154.6147 131.4858)" class="st1 st2 st3">14%</text>
</g>
<g>
	<rect x="182.86" y="70.33" class="st0" width="54.28" height="10.55"/>
	<text transform="matrix(1 0 0 1 191.5783 79.3294)" class="st1 st4 st5">PLATA</text>
</g>
<g>
	<path class="st6" d="M113.59,70.37c-0.11-0.89-0.25-1.78-0.41-2.66c-0.17-0.88-0.35-1.76-0.57-2.63c-0.22-0.87-0.48-1.73-0.76-2.58
		c-0.28-0.86-0.58-1.7-0.91-2.53c-0.33-0.84-0.68-1.66-1.06-2.47c-0.38-0.81-0.79-1.61-1.22-2.39c-0.43-0.79-0.9-1.55-1.38-2.31
		c-0.48-0.76-0.98-1.5-1.51-2.22c-0.53-0.73-1.07-1.44-1.64-2.13c-0.57-0.69-1.17-1.36-1.79-2.01c-0.61-0.65-1.25-1.29-1.9-1.9
		c-0.65-0.61-1.32-1.21-2.01-1.78c-0.69-0.57-1.4-1.11-2.13-1.64c-0.72-0.53-1.47-1.03-2.22-1.51c-0.76-0.48-1.52-0.94-2.31-1.38
		c-0.78-0.43-1.58-0.84-2.39-1.22c-0.81-0.38-1.63-0.73-2.47-1.06c-0.83-0.33-1.67-0.64-2.53-0.91c-0.85-0.28-1.71-0.53-2.58-0.76
		c-0.86-0.22-1.74-0.41-2.63-0.57c-0.88-0.17-1.76-0.3-2.66-0.41c-0.88-0.11-1.78-0.2-2.67-0.25c-0.89-0.06-1.78-0.09-2.69-0.09
		V45.9c0.63,0,1.25,0.06,1.87,0.09c0.63,0.04,1.25,0.09,1.87,0.16c0.62,0.08,1.24,0.17,1.85,0.28c0.62,0.12,1.22,0.27,1.82,0.42
		c0.61,0.16,1.21,0.31,1.8,0.5c0.6,0.19,1.18,0.41,1.76,0.64c0.58,0.23,1.15,0.49,1.72,0.75c0.57,0.27,1.13,0.53,1.68,0.83
		c0.55,0.3,1.07,0.64,1.6,0.97c0.53,0.34,1.04,0.69,1.55,1.06c0.51,0.37,1.02,0.73,1.5,1.13c0.48,0.4,0.93,0.83,1.39,1.26
		c0.46,0.43,0.9,0.87,1.32,1.32c0.43,0.46,0.86,0.91,1.26,1.39c0.4,0.48,0.76,0.99,1.13,1.5c0.37,0.5,0.72,1.02,1.06,1.55
		c0.33,0.53,0.67,1.05,0.97,1.6c0.3,0.55,0.56,1.11,0.83,1.68c0.27,0.56,0.52,1.13,0.75,1.72c0.23,0.58,0.45,1.16,0.64,1.76
		c0.19,0.59,0.35,1.2,0.5,1.8c0.15,0.6,0.31,1.21,0.42,1.82c0.12,0.61,0.2,1.23,0.28,1.85c0.08,0.62,0.13,1.24,0.16,1.87
		c0.04,0.62,0.09,1.24,0.09,1.87c0,0.63-0.06,1.25-0.09,1.87c-0.04,0.63-0.09,1.25-0.16,1.87c-0.08,0.62-0.17,1.24-0.28,1.85
		c-0.12,0.62-0.27,1.22-0.42,1.82c-0.16,0.61-0.31,1.21-0.5,1.8c-0.19,0.6-0.41,1.18-0.64,1.76c-0.23,0.58-0.49,1.15-0.75,1.71
		c-0.27,0.57-0.53,1.13-0.83,1.68c-0.3,0.55-0.64,1.07-0.97,1.6c-0.34,0.53-0.69,1.04-1.06,1.55c-0.37,0.51-0.73,1.02-1.13,1.5
		c-0.4,0.48-0.83,0.93-1.26,1.39c-0.43,0.46-0.87,0.9-1.32,1.32c-0.46,0.43-0.91,0.86-1.39,1.26c-0.48,0.4-0.99,0.76-1.5,1.13
		c-0.5,0.37-1.02,0.72-1.55,1.06c-0.53,0.33-1.05,0.67-1.6,0.97c-0.55,0.3-1.11,0.56-1.68,0.83c-0.56,0.27-1.13,0.52-1.72,0.75
		c-0.58,0.23-1.16,0.45-1.76,0.64c-0.59,0.19-1.2,0.35-1.8,0.5c-0.6,0.15-1.21,0.31-1.82,0.42c-0.61,0.12-1.23,0.2-1.85,0.28
		c-0.62,0.08-1.24,0.13-1.87,0.16c-0.62,0.04-1.24,0.09-1.87,0.09c-0.63,0-1.25-0.06-1.87-0.09c-0.63-0.04-1.25-0.09-1.87-0.16
		c-0.62-0.08-1.24-0.17-1.85-0.28c-0.62-0.12-1.22-0.27-1.82-0.42c-0.61-0.16-1.21-0.31-1.8-0.5c-0.6-0.19-1.18-0.41-1.76-0.64
		c-0.58-0.23-1.15-0.49-1.71-0.75c-0.57-0.27-1.13-0.53-1.68-0.83c-0.55-0.3-1.07-0.64-1.6-0.97c-0.53-0.34-1.04-0.69-1.55-1.06
		c-0.51-0.37-1.02-0.73-1.5-1.13c-0.48-0.4-0.93-0.83-1.39-1.26c-0.46-0.43-0.9-0.87-1.32-1.32c-0.43-0.46-0.86-0.9-1.26-1.39
		c-0.4-0.48-0.76-0.99-1.13-1.5c-0.37-0.5-0.72-1.02-1.06-1.55c-0.33-0.53-0.67-1.05-0.97-1.6c-0.3-0.55-0.56-1.11-0.83-1.68
		c-0.27-0.56-0.52-1.13-0.75-1.71c-0.23-0.58-0.45-1.16-0.64-1.76l-12.33,4c0.28,0.86,0.58,1.7,0.91,2.53
		c0.33,0.84,0.68,1.66,1.06,2.47c0.38,0.81,0.79,1.61,1.22,2.39c0.43,0.79,0.9,1.55,1.38,2.31c0.48,0.76,0.98,1.5,1.51,2.22
		c0.53,0.72,1.07,1.44,1.64,2.13c0.57,0.69,1.17,1.36,1.78,2.01c0.61,0.65,1.25,1.29,1.9,1.9c0.65,0.61,1.32,1.21,2.01,1.79
		c0.69,0.57,1.4,1.11,2.13,1.64c0.72,0.53,1.47,1.03,2.22,1.51c0.76,0.48,1.52,0.94,2.31,1.38c0.78,0.43,1.58,0.84,2.4,1.22
		c0.81,0.38,1.63,0.73,2.47,1.06c0.83,0.33,1.67,0.64,2.53,0.91c0.85,0.28,1.71,0.53,2.58,0.76c0.86,0.22,1.74,0.41,2.63,0.57
		c0.88,0.17,1.76,0.3,2.66,0.41c0.88,0.11,1.78,0.2,2.68,0.25c0.89,0.06,1.78,0.09,2.69,0.09c0.9,0,1.8-0.04,2.69-0.09
		c0.9-0.06,1.79-0.14,2.67-0.25c0.89-0.11,1.78-0.25,2.66-0.41c0.88-0.17,1.76-0.35,2.63-0.57c0.87-0.22,1.73-0.48,2.58-0.76
		c0.86-0.28,1.7-0.58,2.53-0.91c0.84-0.33,1.66-0.68,2.47-1.06c0.81-0.38,1.61-0.79,2.39-1.22c0.79-0.43,1.55-0.9,2.31-1.38
		c0.76-0.48,1.5-0.98,2.22-1.51c0.72-0.53,1.44-1.07,2.13-1.64c0.69-0.57,1.36-1.17,2.01-1.78c0.65-0.61,1.29-1.25,1.9-1.9
		c0.61-0.65,1.21-1.32,1.79-2.01c0.57-0.69,1.11-1.4,1.64-2.13c0.53-0.72,1.03-1.47,1.51-2.22c0.48-0.76,0.94-1.52,1.38-2.31
		c0.43-0.78,0.84-1.58,1.22-2.39c0.38-0.81,0.73-1.63,1.06-2.47c0.33-0.83,0.64-1.67,0.91-2.53c0.28-0.85,0.53-1.71,0.76-2.58
		c0.22-0.86,0.41-1.74,0.57-2.63c0.17-0.88,0.3-1.76,0.41-2.66c0.11-0.88,0.2-1.78,0.25-2.68c0.06-0.89,0.09-1.78,0.09-2.69
		c0-0.9-0.04-1.8-0.09-2.69C113.78,72.14,113.7,71.25,113.59,70.37z"/>
	<path class="st7" d="M31.37,59.98c-0.33,0.83-0.64,1.67-0.91,2.53c-0.28,0.85-0.53,1.71-0.76,2.58c-0.22,0.86-0.41,1.74-0.57,2.63
		c-0.17,0.88-0.3,1.76-0.41,2.66c-0.11,0.88-0.2,1.78-0.25,2.68c-0.05,0.89-0.09,1.78-0.09,2.69c0,0.9,0.04,1.8,0.09,2.69
		c0.06,0.9,0.14,1.79,0.25,2.68c0.11,0.89,0.25,1.78,0.41,2.66c0.17,0.88,0.35,1.76,0.57,2.63c0.22,0.87,0.48,1.73,0.76,2.58
		l12.33-4c-0.19-0.59-0.35-1.2-0.5-1.8c-0.15-0.6-0.31-1.21-0.42-1.82c-0.12-0.61-0.2-1.23-0.28-1.85
		c-0.08-0.62-0.13-1.24-0.16-1.87c-0.04-0.62-0.09-1.24-0.09-1.87c0-0.63,0.06-1.25,0.09-1.87c0.04-0.63,0.09-1.25,0.16-1.87
		c0.08-0.62,0.17-1.24,0.28-1.85c0.12-0.62,0.27-1.22,0.42-1.82c0.16-0.61,0.31-1.21,0.5-1.8c0.19-0.6,0.41-1.18,0.64-1.76
		c0.23-0.58,0.49-1.15,0.75-1.72l-11.75-5.53C32.05,58.32,31.7,59.15,31.37,59.98z"/>
	<path class="st8" d="M65.79,33.29c-0.89,0.11-1.78,0.25-2.66,0.41c-0.88,0.17-1.76,0.35-2.63,0.57c-0.87,0.22-1.73,0.48-2.58,0.76
		c-0.85,0.28-1.7,0.58-2.53,0.91c-0.84,0.33-1.66,0.68-2.47,1.06c-0.81,0.38-1.61,0.79-2.4,1.22l6.24,11.35
		c0.55-0.3,1.11-0.56,1.68-0.83c0.56-0.27,1.13-0.52,1.71-0.75c0.58-0.23,1.16-0.45,1.76-0.64c0.59-0.19,1.2-0.35,1.8-0.5
		c0.6-0.15,1.21-0.31,1.82-0.42c0.61-0.12,1.23-0.2,1.85-0.28c0.62-0.08,1.24-0.13,1.87-0.16c0.62-0.04,1.24-0.09,1.87-0.09V32.95
		c-0.9,0-1.8,0.04-2.69,0.09C67.56,33.09,66.67,33.18,65.79,33.29z"/>
	<path class="st9" d="M48.23,39.61c-0.76,0.48-1.5,0.98-2.22,1.51c-0.73,0.53-1.44,1.07-2.13,1.64c-0.69,0.57-1.36,1.17-2.01,1.79
		c-0.65,0.61-1.29,1.25-1.9,1.9c-0.61,0.65-1.21,1.32-1.78,2.01c-0.57,0.69-1.11,1.4-1.64,2.13c-0.53,0.72-1.03,1.47-1.51,2.22
		c-0.48,0.76-0.94,1.52-1.38,2.31c-0.43,0.78-0.84,1.58-1.22,2.39l11.75,5.53c0.27-0.57,0.53-1.13,0.83-1.68
		c0.3-0.55,0.64-1.07,0.97-1.6c0.34-0.53,0.69-1.04,1.06-1.55c0.37-0.51,0.73-1.02,1.13-1.5c0.4-0.48,0.83-0.93,1.26-1.39
		c0.43-0.46,0.87-0.9,1.32-1.32c0.46-0.43,0.9-0.86,1.39-1.26c0.48-0.4,0.99-0.76,1.5-1.13c0.5-0.37,1.02-0.72,1.55-1.06
		c0.53-0.33,1.05-0.67,1.6-0.97l-6.24-11.35C49.75,38.67,48.98,39.13,48.23,39.61z"/>
</g>
<g>
	<path class="st6" d="M252.22,70.27c-0.11-0.89-0.25-1.77-0.41-2.64c-0.17-0.88-0.35-1.75-0.57-2.61c-0.22-0.87-0.48-1.72-0.75-2.57
		c-0.28-0.85-0.58-1.69-0.91-2.51c-0.33-0.83-0.68-1.65-1.06-2.46c-0.38-0.81-0.78-1.6-1.21-2.38c-0.43-0.78-0.89-1.55-1.37-2.3
		c-0.48-0.75-0.98-1.49-1.5-2.21c-0.52-0.72-1.07-1.43-1.63-2.12c-0.57-0.69-1.17-1.35-1.78-2c-0.61-0.65-1.24-1.28-1.89-1.89
		c-0.65-0.61-1.31-1.21-2-1.78c-0.69-0.57-1.4-1.11-2.12-1.63c-0.72-0.52-1.46-1.02-2.21-1.5c-0.75-0.48-1.51-0.94-2.3-1.37
		c-0.78-0.43-1.57-0.83-2.38-1.21c-0.8-0.38-1.62-0.73-2.46-1.06c-0.83-0.33-1.66-0.63-2.52-0.91c-0.85-0.27-1.7-0.53-2.57-0.75
		c-0.86-0.22-1.73-0.4-2.61-0.57c-0.87-0.17-1.75-0.3-2.64-0.41c-0.88-0.11-1.77-0.2-2.66-0.25c-0.88-0.05-1.77-0.09-2.67-0.09
		v12.88c0.63,0,1.24,0.06,1.86,0.09c0.62,0.04,1.24,0.09,1.86,0.16c0.62,0.08,1.24,0.17,1.84,0.28c0.61,0.12,1.21,0.27,1.81,0.42
		c0.6,0.15,1.21,0.31,1.8,0.5c0.59,0.19,1.17,0.41,1.75,0.64c0.58,0.23,1.14,0.48,1.71,0.75c0.56,0.27,1.13,0.53,1.67,0.82
		c0.55,0.3,1.07,0.63,1.59,0.97c0.53,0.33,1.04,0.69,1.54,1.05c0.5,0.37,1.01,0.72,1.49,1.12c0.48,0.4,0.93,0.83,1.38,1.25
		c0.45,0.43,0.89,0.86,1.32,1.32c0.43,0.45,0.86,0.9,1.25,1.38c0.4,0.48,0.75,0.99,1.12,1.49c0.37,0.5,0.72,1.01,1.05,1.54
		c0.33,0.52,0.67,1.05,0.97,1.59c0.3,0.54,0.56,1.11,0.82,1.67c0.26,0.56,0.52,1.13,0.75,1.71c0.23,0.58,0.45,1.16,0.64,1.75
		c0.19,0.59,0.34,1.19,0.5,1.8c0.15,0.6,0.31,1.2,0.42,1.81c0.11,0.61,0.2,1.22,0.28,1.84c0.08,0.61,0.12,1.23,0.16,1.86
		c0.04,0.62,0.09,1.23,0.09,1.86s-0.06,1.24-0.09,1.86c-0.04,0.62-0.09,1.24-0.16,1.86c-0.08,0.62-0.17,1.24-0.28,1.84
		c-0.12,0.61-0.27,1.21-0.42,1.81c-0.15,0.6-0.31,1.21-0.5,1.8c-0.19,0.59-0.41,1.17-0.64,1.75c-0.23,0.58-0.48,1.14-0.75,1.71
		c-0.27,0.56-0.53,1.13-0.82,1.67c-0.3,0.55-0.63,1.07-0.97,1.59c-0.33,0.53-0.69,1.04-1.05,1.54c-0.37,0.5-0.72,1.01-1.12,1.49
		c-0.4,0.48-0.83,0.93-1.25,1.38c-0.43,0.45-0.86,0.89-1.32,1.32c-0.45,0.43-0.9,0.86-1.38,1.25c-0.48,0.4-0.99,0.75-1.49,1.12
		c-0.5,0.37-1.01,0.72-1.54,1.05c-0.52,0.33-1.05,0.67-1.59,0.97c-0.54,0.3-1.11,0.56-1.67,0.82c-0.56,0.26-1.13,0.52-1.71,0.75
		c-0.58,0.23-1.16,0.45-1.75,0.64c-0.59,0.19-1.19,0.34-1.8,0.5c-0.6,0.15-1.2,0.31-1.81,0.42c-0.61,0.12-1.22,0.2-1.84,0.28
		c-0.61,0.08-1.23,0.12-1.86,0.16c-0.62,0.04-1.23,0.09-1.86,0.09c-0.63,0-1.24-0.06-1.86-0.09c-0.62-0.04-1.24-0.09-1.86-0.16
		c-0.62-0.08-1.24-0.17-1.84-0.28c-0.61-0.12-1.21-0.27-1.81-0.42c-0.6-0.15-1.21-0.31-1.8-0.5c-0.59-0.19-1.17-0.41-1.75-0.64
		c-0.58-0.23-1.15-0.48-1.71-0.75c-0.56-0.27-1.13-0.53-1.67-0.82l-6.21,11.29c0.78,0.43,1.57,0.83,2.38,1.21
		c0.8,0.38,1.62,0.73,2.46,1.06c0.83,0.33,1.66,0.63,2.51,0.91c0.85,0.27,1.7,0.53,2.57,0.75c0.86,0.22,1.73,0.4,2.61,0.57
		c0.87,0.17,1.75,0.3,2.64,0.41c0.88,0.11,1.77,0.2,2.66,0.25c0.88,0.05,1.77,0.09,2.67,0.09c0.9,0,1.79-0.04,2.67-0.09
		c0.9-0.06,1.78-0.14,2.66-0.25c0.89-0.11,1.77-0.25,2.64-0.41c0.88-0.17,1.75-0.35,2.61-0.57c0.87-0.22,1.72-0.48,2.57-0.75
		c0.85-0.28,1.69-0.58,2.52-0.91c0.83-0.33,1.65-0.68,2.46-1.06c0.81-0.38,1.6-0.78,2.38-1.21c0.78-0.43,1.55-0.89,2.3-1.37
		c0.75-0.48,1.49-0.98,2.21-1.5c0.72-0.52,1.43-1.07,2.12-1.63c0.69-0.57,1.35-1.17,2-1.78c0.65-0.61,1.28-1.24,1.89-1.89
		c0.61-0.65,1.21-1.31,1.78-2c0.57-0.69,1.11-1.4,1.63-2.12c0.52-0.72,1.02-1.46,1.5-2.21c0.48-0.75,0.94-1.51,1.37-2.3
		c0.43-0.78,0.83-1.57,1.21-2.38c0.38-0.8,0.73-1.62,1.06-2.46c0.33-0.83,0.63-1.66,0.91-2.51c0.27-0.85,0.53-1.7,0.75-2.57
		c0.22-0.86,0.4-1.73,0.57-2.61c0.17-0.87,0.3-1.75,0.41-2.64c0.11-0.88,0.2-1.77,0.25-2.66c0.05-0.88,0.09-1.77,0.09-2.67
		c0-0.9-0.04-1.79-0.09-2.67C252.42,72.04,252.33,71.15,252.22,70.27z"/>
	<path class="st7" d="M192.57,99.59c-0.5-0.37-1.01-0.72-1.49-1.12c-0.48-0.4-0.93-0.83-1.38-1.25c-0.45-0.43-0.89-0.86-1.32-1.32
		c-0.43-0.45-0.86-0.9-1.25-1.38c-0.4-0.48-0.75-0.99-1.12-1.49c-0.37-0.5-0.72-1.01-1.05-1.54c-0.33-0.52-0.67-1.05-0.97-1.59
		c-0.3-0.54-0.56-1.11-0.82-1.67c-0.26-0.56-0.52-1.13-0.75-1.71c-0.23-0.58-0.45-1.16-0.64-1.75c-0.19-0.59-0.34-1.19-0.5-1.8
		c-0.15-0.6-0.31-1.2-0.42-1.81c-0.12-0.61-0.2-1.22-0.28-1.84l-12.8,1.62c0.11,0.89,0.25,1.77,0.41,2.64
		c0.17,0.88,0.35,1.75,0.57,2.61c0.22,0.87,0.48,1.72,0.75,2.57c0.28,0.85,0.58,1.69,0.91,2.51c0.33,0.83,0.68,1.65,1.06,2.46
		c0.38,0.81,0.78,1.6,1.21,2.38c0.43,0.78,0.89,1.55,1.37,2.3c0.48,0.75,0.98,1.49,1.5,2.21c0.53,0.72,1.07,1.43,1.63,2.12
		c0.57,0.69,1.17,1.35,1.78,2c0.61,0.65,1.24,1.28,1.89,1.89c0.65,0.61,1.31,1.21,2,1.78c0.69,0.57,1.4,1.11,2.12,1.63
		c0.72,0.52,1.46,1.02,2.21,1.5c0.75,0.48,1.51,0.94,2.3,1.37l6.21-11.29c-0.55-0.3-1.07-0.63-1.59-0.97
		C193.58,100.31,193.07,99.96,192.57,99.59z"/>
	<path class="st8" d="M204.67,33.38c-0.89,0.11-1.77,0.25-2.64,0.41c-0.88,0.17-1.75,0.35-2.61,0.57c-0.87,0.22-1.72,0.48-2.57,0.75
		c-0.85,0.28-1.69,0.58-2.51,0.91c-0.83,0.33-1.65,0.68-2.46,1.06c-0.81,0.38-1.6,0.78-2.38,1.21c-0.78,0.43-1.55,0.89-2.3,1.37
		c-0.75,0.48-1.49,0.98-2.21,1.5c-0.72,0.52-1.43,1.07-2.12,1.63c-0.69,0.57-1.35,1.17-2,1.78c-0.65,0.61-1.28,1.24-1.89,1.89
		c-0.61,0.65-1.21,1.31-1.78,2c-0.57,0.69-1.11,1.4-1.63,2.12c-0.52,0.72-1.02,1.46-1.5,2.21c-0.48,0.75-0.94,1.51-1.37,2.3
		c-0.43,0.78-0.83,1.57-1.21,2.38c-0.38,0.8-0.73,1.62-1.06,2.46c-0.33,0.83-0.63,1.66-0.91,2.51l12.26,3.98
		c0.19-0.59,0.41-1.17,0.64-1.75c0.23-0.58,0.48-1.15,0.75-1.71c0.27-0.56,0.52-1.13,0.82-1.67c0.3-0.55,0.63-1.07,0.97-1.59
		c0.33-0.53,0.69-1.04,1.05-1.54c0.37-0.5,0.72-1.01,1.12-1.49c0.4-0.48,0.83-0.93,1.25-1.38c0.43-0.45,0.86-0.89,1.32-1.32
		c0.45-0.43,0.9-0.86,1.38-1.25c0.48-0.4,0.99-0.75,1.49-1.12c0.5-0.37,1.01-0.72,1.54-1.05c0.52-0.33,1.05-0.67,1.59-0.97
		c0.54-0.3,1.11-0.56,1.67-0.82c0.56-0.26,1.13-0.52,1.71-0.75c0.58-0.23,1.16-0.45,1.75-0.64c0.59-0.19,1.19-0.34,1.8-0.5
		c0.6-0.15,1.2-0.31,1.81-0.42c0.61-0.12,1.22-0.2,1.84-0.28c0.61-0.08,1.23-0.12,1.86-0.16c0.62-0.04,1.23-0.09,1.86-0.09V33.04
		c-0.9,0-1.79,0.04-2.67,0.09C206.43,33.19,205.55,33.27,204.67,33.38z"/>
	<path class="st9" d="M168.76,65.02c-0.22,0.86-0.4,1.73-0.57,2.61c-0.17,0.87-0.3,1.75-0.41,2.64c-0.11,0.88-0.2,1.77-0.25,2.66
		c-0.05,0.88-0.09,1.77-0.09,2.67c0,0.9,0.04,1.79,0.09,2.67c0.06,0.9,0.14,1.78,0.25,2.66l12.8-1.62
		c-0.08-0.61-0.12-1.23-0.16-1.86c-0.04-0.62-0.09-1.23-0.09-1.86c0-0.63,0.06-1.24,0.09-1.86c0.04-0.62,0.09-1.24,0.16-1.86
		c0.08-0.62,0.17-1.24,0.28-1.84c0.12-0.61,0.27-1.21,0.42-1.81c0.15-0.6,0.31-1.21,0.5-1.8l-12.26-3.98
		C169.24,63.29,168.99,64.15,168.76,65.02z"/>
</g>
<g>
	<path class="st6" d="M391.54,72.7c-0.06-0.9-0.14-1.79-0.25-2.68c-0.11-0.89-0.25-1.78-0.41-2.66c-0.17-0.88-0.35-1.76-0.57-2.63
		c-0.22-0.87-0.48-1.73-0.76-2.58c-0.28-0.86-0.58-1.7-0.91-2.53c-0.33-0.84-0.68-1.66-1.06-2.47c-0.38-0.81-0.79-1.61-1.22-2.39
		c-0.43-0.79-0.9-1.55-1.38-2.31c-0.48-0.76-0.98-1.5-1.51-2.22c-0.53-0.72-1.07-1.44-1.64-2.13c-0.57-0.69-1.17-1.36-1.78-2.01
		c-0.61-0.65-1.25-1.29-1.9-1.9c-0.65-0.61-1.32-1.21-2.01-1.78c-0.69-0.57-1.4-1.11-2.13-1.64c-0.72-0.53-1.47-1.03-2.22-1.51
		c-0.76-0.48-1.52-0.94-2.31-1.38c-0.78-0.43-1.58-0.84-2.39-1.22c-0.81-0.38-1.63-0.73-2.47-1.06c-0.83-0.33-1.67-0.64-2.53-0.91
		c-0.85-0.28-1.71-0.53-2.58-0.76c-0.86-0.22-1.74-0.41-2.63-0.57c-0.88-0.17-1.76-0.3-2.65-0.41c-0.88-0.11-1.78-0.2-2.67-0.25
		c-0.89-0.06-1.78-0.09-2.69-0.09v12.95c0.63,0,1.25,0.06,1.87,0.09c0.63,0.04,1.25,0.09,1.87,0.16c0.62,0.08,1.24,0.17,1.85,0.28
		c0.62,0.12,1.22,0.27,1.82,0.42c0.61,0.16,1.21,0.31,1.8,0.5c0.6,0.19,1.18,0.41,1.76,0.64c0.58,0.23,1.15,0.49,1.72,0.75
		c0.57,0.27,1.13,0.53,1.68,0.83c0.55,0.3,1.07,0.64,1.6,0.97c0.53,0.34,1.04,0.69,1.55,1.06c0.51,0.37,1.02,0.73,1.5,1.13
		c0.48,0.4,0.93,0.83,1.39,1.26c0.46,0.43,0.9,0.87,1.32,1.32c0.43,0.46,0.86,0.9,1.26,1.39c0.4,0.48,0.76,0.99,1.13,1.5
		c0.37,0.5,0.72,1.02,1.06,1.55c0.33,0.53,0.67,1.05,0.97,1.6c0.3,0.55,0.56,1.11,0.83,1.68c0.27,0.56,0.52,1.13,0.75,1.71
		c0.23,0.58,0.45,1.16,0.64,1.76c0.19,0.59,0.35,1.2,0.5,1.8c0.15,0.6,0.31,1.21,0.42,1.82c0.12,0.61,0.2,1.23,0.28,1.85
		c0.08,0.62,0.13,1.24,0.16,1.87c0.04,0.62,0.09,1.24,0.09,1.87c0,0.63-0.06,1.25-0.09,1.87c-0.04,0.63-0.09,1.25-0.16,1.87
		c-0.08,0.62-0.17,1.24-0.28,1.85l12.73,2.43c0.17-0.88,0.3-1.76,0.41-2.66c0.11-0.88,0.2-1.78,0.25-2.68
		c0.06-0.89,0.09-1.78,0.09-2.69C391.64,74.48,391.6,73.59,391.54,72.7z"/>
	<path class="st7" d="M378.14,80.97c-0.12,0.62-0.27,1.22-0.42,1.82c-0.16,0.61-0.31,1.21-0.5,1.8c-0.19,0.6-0.41,1.18-0.64,1.76
		c-0.23,0.58-0.49,1.15-0.75,1.71c-0.27,0.57-0.53,1.13-0.83,1.68c-0.3,0.55-0.64,1.07-0.97,1.6c-0.34,0.53-0.69,1.04-1.06,1.55
		c-0.37,0.51-0.73,1.02-1.13,1.5c-0.4,0.48-0.83,0.93-1.26,1.39c-0.43,0.46-0.87,0.9-1.32,1.32c-0.46,0.43-0.91,0.86-1.39,1.26
		c-0.48,0.4-0.99,0.76-1.5,1.13c-0.5,0.37-1.02,0.72-1.55,1.06c-0.53,0.33-1.05,0.67-1.6,0.97c-0.55,0.3-1.11,0.56-1.68,0.83
		c-0.56,0.27-1.13,0.52-1.72,0.75c-0.58,0.23-1.16,0.45-1.76,0.64l4,12.33c0.86-0.28,1.7-0.58,2.53-0.91
		c0.84-0.33,1.66-0.68,2.47-1.06c0.81-0.38,1.61-0.79,2.39-1.22c0.79-0.43,1.55-0.9,2.31-1.38c0.76-0.48,1.5-0.98,2.22-1.51
		c0.73-0.53,1.44-1.07,2.13-1.64c0.69-0.57,1.36-1.17,2.01-1.78c0.65-0.61,1.29-1.25,1.9-1.9c0.61-0.65,1.21-1.32,1.79-2.01
		c0.57-0.69,1.11-1.4,1.64-2.13c0.53-0.72,1.03-1.47,1.51-2.22c0.48-0.76,0.94-1.52,1.38-2.31c0.43-0.78,0.84-1.58,1.22-2.39
		c0.38-0.81,0.73-1.63,1.06-2.47c0.33-0.83,0.64-1.67,0.91-2.53c0.28-0.85,0.53-1.71,0.76-2.58c0.22-0.86,0.41-1.74,0.57-2.63
		L378.14,80.97z"/>
	<path class="st8" d="M346.17,32.69c-0.9,0.06-1.79,0.14-2.68,0.25c-0.89,0.11-1.78,0.25-2.65,0.41c-0.88,0.17-1.76,0.35-2.63,0.57
		c-0.87,0.22-1.73,0.48-2.58,0.76c-0.86,0.28-1.7,0.58-2.53,0.91c-0.84,0.33-1.66,0.68-2.47,1.06c-0.81,0.38-1.61,0.79-2.4,1.22
		c-0.79,0.43-1.55,0.9-2.31,1.38c-0.76,0.48-1.5,0.98-2.22,1.51c-0.73,0.53-1.44,1.07-2.13,1.64c-0.69,0.57-1.36,1.17-2.01,1.78
		c-0.65,0.61-1.29,1.25-1.9,1.9c-0.61,0.65-1.21,1.32-1.78,2.01c-0.57,0.69-1.11,1.4-1.64,2.13c-0.53,0.72-1.03,1.47-1.51,2.22
		c-0.48,0.76-0.94,1.52-1.38,2.31c-0.43,0.78-0.84,1.58-1.22,2.39c-0.38,0.81-0.73,1.63-1.06,2.47c-0.33,0.83-0.64,1.67-0.91,2.53
		c-0.28,0.85-0.53,1.71-0.76,2.58c-0.22,0.86-0.41,1.74-0.57,2.63c-0.17,0.88-0.3,1.76-0.41,2.66c-0.11,0.88-0.2,1.78-0.25,2.68
		c-0.05,0.89-0.09,1.78-0.09,2.69c0,0.9,0.04,1.8,0.09,2.69c0.06,0.9,0.14,1.79,0.25,2.68l12.86-1.62
		c-0.08-0.62-0.12-1.24-0.16-1.87c-0.04-0.62-0.09-1.24-0.09-1.87c0-0.63,0.06-1.25,0.09-1.87c0.04-0.63,0.09-1.25,0.16-1.87
		c0.08-0.62,0.17-1.24,0.28-1.85c0.12-0.62,0.27-1.22,0.42-1.82c0.16-0.61,0.31-1.21,0.5-1.8c0.19-0.6,0.41-1.18,0.64-1.76
		c0.23-0.58,0.49-1.15,0.75-1.71c0.27-0.57,0.53-1.13,0.83-1.68c0.3-0.55,0.64-1.07,0.97-1.6c0.34-0.53,0.69-1.04,1.06-1.55
		c0.37-0.51,0.73-1.02,1.13-1.5c0.4-0.48,0.83-0.93,1.26-1.39c0.43-0.46,0.87-0.9,1.32-1.32c0.46-0.43,0.9-0.86,1.39-1.26
		c0.48-0.4,0.99-0.76,1.5-1.13c0.5-0.37,1.02-0.72,1.55-1.06c0.53-0.33,1.05-0.67,1.6-0.97c0.55-0.3,1.11-0.56,1.68-0.83
		c0.56-0.27,1.13-0.52,1.71-0.75c0.58-0.23,1.16-0.45,1.76-0.64c0.59-0.19,1.2-0.35,1.8-0.5c0.6-0.15,1.21-0.31,1.82-0.42
		c0.61-0.12,1.23-0.2,1.85-0.28c0.62-0.08,1.24-0.13,1.87-0.16c0.62-0.04,1.24-0.09,1.87-0.09V32.6
		C347.95,32.6,347.06,32.64,346.17,32.69z"/>
	<path class="st9" d="M358.07,103.75c-0.59,0.19-1.2,0.35-1.8,0.5c-0.6,0.15-1.21,0.31-1.82,0.42c-0.61,0.12-1.23,0.2-1.85,0.28
		c-0.62,0.08-1.24,0.13-1.87,0.16c-0.62,0.04-1.24,0.09-1.87,0.09c-0.63,0-1.25-0.06-1.87-0.09c-0.63-0.04-1.25-0.09-1.87-0.16
		c-0.62-0.08-1.24-0.17-1.85-0.28c-0.62-0.12-1.22-0.27-1.82-0.42c-0.61-0.16-1.21-0.31-1.8-0.5c-0.6-0.19-1.18-0.41-1.76-0.64
		c-0.58-0.23-1.15-0.49-1.71-0.75c-0.57-0.27-1.13-0.53-1.68-0.83c-0.55-0.3-1.07-0.64-1.6-0.97c-0.53-0.34-1.04-0.69-1.55-1.06
		c-0.51-0.37-1.02-0.73-1.5-1.13c-0.48-0.4-0.93-0.83-1.39-1.26c-0.46-0.43-0.9-0.87-1.32-1.32c-0.43-0.46-0.86-0.9-1.26-1.39
		c-0.4-0.48-0.76-0.99-1.13-1.5c-0.37-0.5-0.72-1.02-1.06-1.55c-0.33-0.53-0.67-1.05-0.97-1.6c-0.3-0.55-0.56-1.11-0.83-1.68
		c-0.27-0.56-0.52-1.13-0.75-1.71c-0.23-0.58-0.45-1.16-0.64-1.76c-0.19-0.59-0.35-1.2-0.5-1.8c-0.15-0.6-0.31-1.21-0.42-1.82
		c-0.12-0.61-0.2-1.23-0.28-1.85l-12.86,1.62c0.11,0.89,0.25,1.78,0.41,2.66c0.17,0.88,0.35,1.76,0.57,2.63
		c0.22,0.87,0.48,1.73,0.76,2.58c0.28,0.86,0.58,1.7,0.91,2.53c0.33,0.84,0.68,1.66,1.06,2.47c0.38,0.81,0.79,1.61,1.22,2.39
		c0.43,0.79,0.9,1.55,1.38,2.31c0.48,0.76,0.98,1.5,1.51,2.22c0.53,0.72,1.07,1.44,1.64,2.13c0.57,0.69,1.17,1.36,1.78,2.01
		c0.61,0.65,1.25,1.29,1.9,1.9c0.65,0.61,1.32,1.21,2.01,1.79c0.69,0.57,1.4,1.11,2.13,1.64c0.72,0.53,1.47,1.03,2.22,1.51
		c0.76,0.48,1.52,0.94,2.31,1.38c0.78,0.43,1.58,0.84,2.4,1.22c0.81,0.38,1.63,0.73,2.47,1.06c0.83,0.33,1.67,0.64,2.53,0.91
		c0.85,0.28,1.71,0.53,2.58,0.76c0.86,0.22,1.74,0.41,2.63,0.57c0.88,0.17,1.76,0.3,2.65,0.41c0.88,0.11,1.78,0.2,2.68,0.25
		c0.89,0.06,1.78,0.09,2.69,0.09c0.9,0,1.8-0.04,2.69-0.09c0.9-0.06,1.79-0.14,2.67-0.25c0.89-0.11,1.78-0.25,2.65-0.41
		c0.88-0.17,1.76-0.35,2.63-0.57c0.87-0.22,1.73-0.48,2.58-0.76L358.07,103.75z"/>
</g>
<g>
	<rect x="389.54" y="14.67" class="st0" width="26.33" height="14.31"/>
	<text transform="matrix(1 0 0 1 389.543 22.175)" class="st1 st2 st3">29%</text>
</g>
<g>
	<rect x="311.42" y="133.14" class="st0" width="26.33" height="14.31"/>
	<text transform="matrix(1 0 0 1 311.4195 140.6395)" class="st1 st2 st3">28%</text>
</g>
<g>
	<rect x="385.12" y="124.31" class="st0" width="26.33" height="14.31"/>
	<text transform="matrix(1 0 0 1 385.1246 131.8062)" class="st1 st2 st3">17%</text>
</g>
<g>
	<rect x="314.06" y="70.33" class="st0" width="69.58" height="10.55"/>
	<text transform="matrix(1 0 0 1 325.7054 79.3294)" class="st1 st4 st5">BRONCE</text>
</g>
<polyline class="st23" points="37.27,44.05 25.79,32.57 25.79,24.63 "/>
<polyline class="st23" points="164.14,70.34 152.66,63.67 152.66,55.74 "/>
<polyline class="st23" points="102.28,109.72 113.76,121.2 113.76,129.14 "/>
<polyline class="st23" points="252.29,90.46 263.78,95.79 263.78,103.72 "/>
<polyline class="st23" points="383.73,104.07 392.78,111.98 392.78,119.92 "/>
<polyline class="st23" points="173.18,102.28 161.7,113.76 161.7,121.7 "/>
<polyline class="st23" points="385.12,47.94 396.61,36.46 396.61,28.53 "/>
<polyline class="st23" points="324.59,114.54 318.84,123.52 318.84,131.46 "/>
<g>
	<rect x="136.92" y="180.04" class="st7" width="13.17" height="13.17"/>
	<rect x="209.96" y="180.04" class="st9" width="13.17" height="13.17"/>
	<rect x="283.01" y="180.04" class="st8" width="13.17" height="13.17"/>
	<g>
		<g>
			<g>
				<text transform="matrix(1 0 0 1 82.23 189.5436)" class="st24 st2 st3">USA</text>
			</g>
		</g>
	</g>
	<g>
		<g>
			<g>
				<text transform="matrix(1 0 0 1 155.2762 189.5436)" class="st24 st2 st3">Brasil</text>
			</g>
		</g>
	</g>
	<g>
		<g>
			<g>
				<text transform="matrix(1 0 0 1 228.3225 189.5436)" class="st24 st2 st3">Canadá</text>
			</g>
		</g>
	</g>
	<g>
		<g>
			<g>
				<text transform="matrix(1 0 0 1 301.3688 189.5436)" class="st24 st2 st3">Otros países</text>
			</g>
		</g>
	</g>
	<rect x="63.87" y="180.04" class="st6" width="13.17" height="13.17"/>
	<rect x="63.87" y="180.04" class="st6" width="13.17" height="13.17"/>
</g>
</svg>
