<?xml version="1.0" encoding="utf-8"?>
<!-- Generator: Adobe Illustrator 27.3.1, SVG Export Plug-In . SVG Version: 6.00 Build 0)  -->
<svg version="1.1" id="Capa_1" xmlns="http://www.w3.org/2000/svg" xmlns:xlink="http://www.w3.org/1999/xlink" x="0px" y="0px"
	 viewBox="0 0 580 580" style="enable-background:new 0 0 580 580;" xml:space="preserve">
<style type="text/css">
	.st0{fill:none;stroke:#1D1E1C;stroke-width:0.7727;stroke-miterlimit:10;}
	.st1{fill:#1D1E1C;}
	.st2{fill:none;stroke:#1D1E1C;stroke-width:0.7727;stroke-miterlimit:10;stroke-dasharray:2.4727,3.2969;}
	.st3{fill:none;stroke:#1D1E1C;stroke-width:0.7727;stroke-miterlimit:10;stroke-dasharray:2.4727,3.297;}
	.st4{fill:none;}
	.st5{fill:#1D1D1B;}
	.st6{font-family:'Roboto-Regular';}
	.st7{font-size:14.6293px;}
	.st8{fill:#DD6F53;}
	.st9{fill:none;stroke:#FFFFFF;stroke-width:1.6255;stroke-linecap:round;stroke-linejoin:round;stroke-miterlimit:10;}
	.st10{fill:#F2C5C1;}
	.st11{fill:#FF0000;}
	.st12{fill:#FFFFFF;}
	.st13{fill:#727272;}
	.st14{font-size:11px;}
	.st15{font-family:'Roboto-Bold';}
	.st16{font-size:14.917px;}
	.st17{fill:none;stroke:#1D1E1C;stroke-miterlimit:10;}
	.st18{fill:#4B4B4B;}
	.st19{fill:#191919;}
</style>
<g>
	<g>
		<g>
			<g>
				<g>
					<line class="st0" x1="128.45" y1="42.85" x2="451.55" y2="42.85"/>
					<g>
						<rect x="128.06" y="40.34" class="st1" width="0.77" height="5.02"/>
					</g>
					<g>
						<rect x="451.17" y="40.34" class="st1" width="0.77" height="5.02"/>
					</g>
				</g>
			</g>
			<g>
				<g>
					<line class="st0" x1="128.45" y1="88.13" x2="129.69" y2="88.13"/>
					<line class="st2" x1="132.98" y1="88.13" x2="448.66" y2="87.98"/>
					<line class="st0" x1="450.31" y1="87.98" x2="451.55" y2="87.97"/>
					<g>
						<rect x="128.06" y="85.62" class="st1" width="0.77" height="5.02"/>
					</g>
					<g>
						<rect x="451.17" y="85.46" class="st1" width="0.77" height="5.02"/>
					</g>
				</g>
			</g>
			<g>
				<g>
					<line class="st0" x1="128.45" y1="133.42" x2="129.69" y2="133.42"/>
					<line class="st2" x1="132.98" y1="133.41" x2="448.66" y2="133.1"/>
					<line class="st0" x1="450.31" y1="133.1" x2="451.55" y2="133.1"/>
					<g>
						<rect x="128.06" y="130.91" class="st1" width="0.77" height="5.02"/>
					</g>
					<g>
						<rect x="451.17" y="130.59" class="st1" width="0.77" height="5.02"/>
					</g>
				</g>
			</g>
			<g>
				<g>
					<line class="st0" x1="128.45" y1="178.7" x2="129.69" y2="178.7"/>
					<line class="st2" x1="132.98" y1="178.7" x2="448.66" y2="178.23"/>
					<line class="st0" x1="450.31" y1="178.23" x2="451.55" y2="178.23"/>
					<g>
						
							<rect x="128.06" y="176.19" transform="matrix(1 -1.481068e-03 1.481068e-03 1 -0.2645 0.1904)" class="st1" width="0.77" height="5.02"/>
					</g>
					<g>
						
							<rect x="451.17" y="175.72" transform="matrix(1 -1.461293e-03 1.461293e-03 1 -0.26 0.66)" class="st1" width="0.77" height="5.02"/>
					</g>
				</g>
			</g>
			<g>
				<g>
					<line class="st0" x1="128.45" y1="223.99" x2="129.69" y2="223.99"/>
					<line class="st2" x1="132.98" y1="223.98" x2="448.66" y2="223.36"/>
					<line class="st0" x1="450.31" y1="223.36" x2="451.55" y2="223.35"/>
					<g>
						
							<rect x="128.06" y="221.48" transform="matrix(1 -1.974755e-03 1.974755e-03 1 -0.4421 0.2541)" class="st1" width="0.77" height="5.02"/>
					</g>
					<g>
						
							<rect x="451.17" y="220.84" transform="matrix(1 -1.954969e-03 1.954969e-03 1 -0.4358 0.8832)" class="st1" width="0.77" height="5.02"/>
					</g>
				</g>
			</g>
			<g>
				<g>
					<line class="st0" x1="128.45" y1="269.27" x2="451.55" y2="268.48"/>
					<g>
						
							<rect x="128.06" y="266.76" transform="matrix(1 -2.448691e-03 2.448691e-03 1 -0.659 0.3153)" class="st1" width="0.77" height="5.02"/>
					</g>
					<g>
						
							<rect x="451.17" y="265.97" transform="matrix(1 -2.448739e-03 2.448739e-03 1 -0.6561 1.1065)" class="st1" width="0.77" height="5.02"/>
					</g>
				</g>
			</g>
			<g>
				<g>
					<line class="st0" x1="128.45" y1="314.56" x2="129.69" y2="314.55"/>
					<line class="st2" x1="132.98" y1="314.55" x2="448.66" y2="313.62"/>
					<line class="st0" x1="450.31" y1="313.61" x2="451.55" y2="313.61"/>
					<g>
						
							<rect x="128.06" y="312.05" transform="matrix(1 -2.962118e-03 2.962118e-03 1 -0.9312 0.3819)" class="st1" width="0.77" height="5.02"/>
					</g>
					<g>
						
							<rect x="451.17" y="311.1" transform="matrix(1 -2.922565e-03 2.922565e-03 1 -0.9146 1.321)" class="st1" width="0.77" height="5.02"/>
					</g>
				</g>
			</g>
			<g>
				<g>
					<line class="st0" x1="128.45" y1="359.84" x2="129.69" y2="359.84"/>
					<line class="st2" x1="132.98" y1="359.83" x2="448.66" y2="358.74"/>
					<line class="st0" x1="450.31" y1="358.74" x2="451.55" y2="358.73"/>
					<g>
						
							<rect x="128.06" y="357.33" transform="matrix(1 -3.436046e-03 3.436046e-03 1 -1.2357 0.4435)" class="st1" width="0.77" height="5.02"/>
					</g>
					<g>
						
							<rect x="451.17" y="356.22" transform="matrix(1 -3.436114e-03 3.436114e-03 1 -1.23 1.5537)" class="st1" width="0.77" height="5.02"/>
					</g>
				</g>
			</g>
			<g>
				<g>
					<line class="st0" x1="128.45" y1="405.13" x2="129.69" y2="405.12"/>
					<line class="st3" x1="132.98" y1="405.11" x2="448.66" y2="403.87"/>
					<line class="st0" x1="450.31" y1="403.87" x2="451.55" y2="403.86"/>
					<g>
						
							<rect x="128.06" y="402.62" transform="matrix(1 -3.949463e-03 3.949463e-03 1 -1.5991 0.5105)" class="st1" width="0.77" height="5.02"/>
					</g>
					<g>
						
							<rect x="451.17" y="401.35" transform="matrix(1 -3.949541e-03 3.949541e-03 1 -1.5916 1.7866)" class="st1" width="0.77" height="5.02"/>
					</g>
				</g>
			</g>
			<g>
				<g>
					<line class="st0" x1="128.45" y1="450.41" x2="129.69" y2="450.41"/>
					<line class="st3" x1="132.98" y1="450.39" x2="448.66" y2="449"/>
					<line class="st0" x1="450.31" y1="448.99" x2="451.55" y2="448.99"/>
					<g>
						
							<rect x="128.06" y="447.9" transform="matrix(1 -4.423382e-03 4.423382e-03 1 -1.9911 0.5726)" class="st1" width="0.77" height="5.02"/>
					</g>
					<g>
						
							<rect x="451.17" y="446.48" transform="matrix(1 -4.423295e-03 4.423295e-03 1 -1.9816 2.0018)" class="st1" width="0.77" height="5.02"/>
					</g>
				</g>
			</g>
			<g>
				<g>
					<line class="st0" x1="128.45" y1="495.7" x2="451.55" y2="494.11"/>
					<g>
						
							<rect x="128.06" y="493.2" transform="matrix(1 -4.897293e-03 4.897293e-03 1 -2.4261 0.635)" class="st1" width="0.77" height="5.02"/>
					</g>
					<g>
						
							<rect x="451.18" y="491.61" transform="matrix(1 -4.897390e-03 4.897390e-03 1 -2.4145 2.2174)" class="st1" width="0.77" height="5.02"/>
					</g>
				</g>
			</g>
		</g>
	</g>
	<g>
		<rect x="466.07" y="34.72" class="st4" width="29.98" height="24.43"/>
		<text transform="matrix(1 0 0 1 466.069 45.6871)" class="st5 st6 st7">2</text>
	</g>
	<g>
		<rect x="466.07" y="80" class="st4" width="37.08" height="26.17"/>
		<text transform="matrix(1 0 0 1 466.069 90.9732)" class="st5 st6 st7">1,80</text>
	</g>
	<g>
		<rect x="466.07" y="124.78" class="st4" width="37.08" height="21.68"/>
		<text transform="matrix(1 0 0 1 466.069 135.7516)" class="st5 st6 st7">1,60</text>
	</g>
	<g>
		<rect x="466.07" y="170.09" class="st4" width="37.08" height="17.72"/>
		<text transform="matrix(1 0 0 1 466.069 181.0665)" class="st5 st6 st7">1,40</text>
	</g>
	<g>
		<rect x="466.07" y="215.86" class="st4" width="37.08" height="20.04"/>
		<text transform="matrix(1 0 0 1 466.069 226.8287)" class="st5 st6 st7">1,20</text>
	</g>
	<g>
		<rect x="466.07" y="261.14" class="st4" width="37.08" height="23.8"/>
		<text transform="matrix(1 0 0 1 466.069 272.1143)" class="st5 st6 st7">1</text>
	</g>
</g>
<g>
	<g>
		<path class="st8" d="M437.47,295.1c-0.45-2.52-1.32-5.82-1.23-8.38c0.04-1.65,0.53-3.4,0.81-5.03c0.08-0.5,0.14-1.02,0.14-1.53
			c0.01-0.7-0.08-1.42-0.19-2.11c-0.32-1.86-0.72-4.15-0.81-6.02c-0.33-5.27-0.09-10.85,0.2-16.13l1.27-16.51
			c0.23-3.8,0.36-7.71,0.06-11.5c-0.3-3.82-0.97-7.63-2.06-11.3c-0.38-1.28-0.83-2.6-1.32-3.84c-0.75-1.89-2.04-4.71-2.68-6.63
			c-0.48-1.39-0.87-2.84-1.11-4.29c-0.25-1.46-0.38-3-0.46-4.48c-0.29-4.49-0.05-10.15-1.15-14.52c-0.46-1.86-1.39-3.84-2.07-5.64
			c-0.31-0.86-0.57-1.76-0.6-2.68c-0.06-1.58,0.46-3.45,0.76-5.01c0.74-3.84,0.71-7.82,0.4-11.7c-0.44-4.76-1.3-9.62-3.51-13.91
			c-1.79-3.48-4.74-6.32-8.23-8.07c-1.5-0.77-3.13-1.31-4.77-1.72c-1.48-0.38-3.65-0.79-5.05-1.38c-0.63-0.26-1.21-0.63-1.76-1.03
			c-0.97-0.73-2.03-1.53-3.12-2.07c-2.45-1.28-7.46-2.99-10.09-4.01c-1.74-0.69-3.58-1.41-5.19-2.38c-0.41-0.26-0.83-0.55-1.15-0.92
			c-0.26-0.29-0.45-0.65-0.56-1.03c-0.19-0.67-0.23-1.38-0.29-2.06c-0.07-1.07-0.08-2.32-0.09-3.39c0-3.36-0.05-9.37,0.08-12.66
			c0.12-0.09,0.27-0.13,0.43-0.15c0.47-0.03,0.96,0.12,1.43,0.11c1.01,0,1.91-0.62,2.62-1.28c1.72-1.62,2.69-3.86,3.26-6.12
			c0.35-1.42,0.55-2.9,0.51-4.37c-0.03-0.79-0.11-1.59-0.43-2.32c-0.15-0.34-0.37-0.65-0.67-0.87c-0.32-0.24-0.73-0.34-1.13-0.34
			c0.16-2.72,0.31-5.65,0.17-8.37c-0.07-1.51-0.38-3.47-0.43-4.97c-0.08-1.59,0.22-3.51,0.35-5.1c0.07-0.95,0.1-1.93-0.11-2.87
			c-0.1-0.42-0.24-0.83-0.47-1.19c-0.23-0.37-0.55-0.69-0.89-0.95c-1.38-1.03-3.53-1.56-5.13-2.15c-0.82-0.29-1.67-0.62-2.45-1.01
			c-1.14-0.55-2.68-1.46-3.79-2.1c-1.05-0.6-2.15-1.2-3.29-1.61c-0.79-0.28-1.62-0.46-2.46-0.43c-1.45,0.05-2.81,0.64-4.1,1.27
			c-1.01,0.51-2.59,1.35-3.62,1.79c-0.71,0.3-1.51,0.58-2.25,0.81c-2.18,0.68-4.69,1.23-6.71,2.31c-2.4,1.27-4.26,3.4-5.44,5.83
			c-1.11,2.26-1.75,4.74-2.1,7.23c-0.42,3.16-0.36,6.42,0.4,9.52c-0.22,0-0.45,0.03-0.67,0.13c-0.17,0.08-0.32,0.22-0.43,0.37
			c-0.2,0.28-0.3,0.62-0.39,0.96c-0.16,0.67-0.23,1.38-0.26,2.07c-0.06,1.66,0.06,3.34,0.36,4.97c0.19,0.99,0.44,1.99,0.92,2.89
			c0.34,0.65,0.81,1.24,1.42,1.66c0.56,0.39,1.21,0.63,1.87,0.78c0.7,0.18,1.54,0.28,2.13,0.72c0.22,2.98,0.15,6.09,0.01,9.07
			c-0.12,1.82-0.2,4.21-0.43,6c-0.14,1.05-0.34,2.1-0.72,3.09c-0.37,0.99-0.91,1.91-1.56,2.74c-1.26,1.62-2.95,2.85-4.8,3.71
			c-3.06,1.4-6.77,2.28-9.88,3.55c-2.8,1.11-5.58,2.86-8.3,4.17c-2.33,1.17-5.93,2.21-8.44,3.05c-1.69,0.59-3.41,1.25-4.91,2.25
			c-1.01,0.67-1.91,1.52-2.65,2.48c-0.94,1.22-1.66,2.61-2.24,4.03c-0.73,1.79-1.31,3.68-1.81,5.55c-0.76,2.92-1.36,5.99-1.74,8.98
			c-0.34,2.68-0.51,5.43-0.31,8.13c0.18,2.38,0.54,5.14,0.08,7.5c-0.7,3.75-2.4,7.69-2.94,11.48c-0.35,2.29-0.43,4.66-0.43,6.97
			c0.06,5.14,0.24,11.22-0.53,16.29c-0.16,1.13-0.38,2.29-0.65,3.4c-0.3,1.26-1.32,4.52-1.71,5.84c-0.48,1.68-0.89,3.42-1.13,5.16
			c-0.39,2.8-0.46,5.69-0.42,8.51c0.11,6.26,0.77,12.67,1.63,18.87c0.58,4.23,1.8,10.98,2.43,15.23c0.29,2.09,0.56,4.29,0.6,6.4
			c0.06,2-0.21,4.51-0.33,6.52c-0.12,1.7-0.05,3.43,0.18,5.12l0.49,3.57c0.15,1.22,0.27,2.48,0.23,3.71
			c-0.03,1.52-0.37,3.5-0.57,5.02c-0.18,1.43-0.29,2.89-0.14,4.32c0.28,2.63,1.22,5.15,2.21,7.59c0.51,1.19,1.72,4.04,2.23,5.19
			c0.51,1.12,1.06,2.25,1.84,3.21c0.52,0.64,1.16,1.19,1.87,1.6c1.74,1,3.76,1.41,5.72,1.7c1.28,0.16,2.59,0.36,3.88,0.23
			c-0.89,6.84-0.4,13.86,0.28,20.71c0.28,2.44,0.63,6.12,1.05,8.51c0.12,0.68,0.26,1.37,0.46,2.03c0.22,0.71,0.5,1.45,1.03,1.99
			c0.14,3.91,0.62,8.69,1.06,12.6c0.13,1.27,0.21,2.6,0.21,3.87c-0.02,5.25-1.1,10.49-2.46,15.54c-1.46,5.26-3.76,12.93-4.81,18.26
			c-0.84,4.09-1.41,8.37-1.72,12.53c-0.87,11.98-0.24,25.76,0.17,37.81c0.08,3.73,0.13,7.59-0.61,11.26
			c-0.46,2.21-1.92,7.77-2.51,9.97c-0.55,1.93-1.29,3.84-2.45,5.48c-1.18,1.69-2.7,3.12-4.32,4.38c-1.3,1-2.7,1.91-4.18,2.64
			c-1.17,0.58-2.42,1.05-3.67,1.44c-1.12,0.37-3.1,0.82-4.21,1.23c-0.22,0.08-0.43,0.18-0.62,0.31c-0.16,0.11-0.3,0.25-0.39,0.41
			c-0.12,0.21-0.17,0.45-0.2,0.69c-0.1,0.87-0.12,1.76,0.02,2.63c0.09,0.52,0.24,1.05,0.55,1.48c0.37,0.52,0.99,0.77,1.6,0.89
			c0.61,0.12,1.26,0.14,1.88,0.17c0.29,0.01,1.6,0.02,1.92,0.01l26.54-0.01c1.06-0.03,2.17-0.04,3.21-0.27
			c0.46-0.11,0.93-0.26,1.32-0.55c0.75-0.55,1.02-1.51,1.08-2.4c0.1-1.8-0.24-3.62-0.96-5.27c-0.44-1-1.02-2.18-1.25-3.25
			c-0.25-1.14-0.26-2.32-0.12-3.48c0.12-1.12,0.58-2.73,0.85-3.84c0.32-1.31,0.51-2.67,0.55-4.02c0.08-2.51,0.16-5.42,0.56-7.9
			c0.61-4.24,2.34-10.85,3.34-15.06c0.9-3.66,2.4-9.99,3.47-13.54c1.44-4.96,4.07-11.69,5.35-16.69c0.79-3.05,1.29-6.22,1.57-9.36
			c0.39-3.91,0.42-10.94,0.51-14.96c0.06-1.59,0.1-3.3,0.47-4.85c0.24-1.03,0.67-2.01,1.13-2.96c0.75-1.51,2.12-4.14,2.76-5.67
			c0.74-1.71,1.38-3.49,1.84-5.29c0.55-2.14,0.85-4.41,1.06-6.61c0.48-5.08,0.64-11.07,0.79-16.2c0.34-0.25,0.5-0.65,0.64-1.04
			c0.06-0.17,0.12-0.37,0.16-0.54l0.03-0.12l0.07-0.25l0.98-4.06c1.44-5.77,6.08-22.05,7.74-27.98c1.15-4.13,2.11-8.43,2.58-12.7
			c0.23-1.82,0.52-5.23,0.87-6.99c0.06-0.25,0.12-0.51,0.23-0.75c0.07-0.15,0.18-0.29,0.32-0.39c0.22-0.16,0.49-0.22,0.76-0.25
			c0.49-0.05,1.01,0.06,1.42,0.34c0.47,0.32,0.74,0.85,0.93,1.38c0.17,0.48,0.27,1,0.35,1.5c0.29,1.81,0.38,4.86,0.55,6.69
			c0.68,7.95,3.63,19.6,5.31,27.51c0.85,4.12,2.04,9.27,2.53,13.42c0.06,0.5,0.08,1.35,0.24,1.83c0.08,0.23,0.21,0.44,0.41,0.59
			l-0.05,16.87c0.03,2.15,0.09,4.38,0.45,6.51c0.28,1.71,0.77,3.4,1.42,5c1.21,3.02,3.64,6.91,5.01,9.87
			c0.25,0.54,0.48,1.11,0.63,1.68c0.31,1.12,0.24,2.31,0.16,3.46c-0.38,4.81-1.16,12.7-1.25,17.45c-0.04,1.95,0.01,3.96,0.24,5.9
			c0.17,1.53,0.46,3.09,0.87,4.58c0.46,1.7,1.1,3.41,1.76,5.05l2.69,6.43c0.78,1.93,1.49,3.96,2.01,5.98
			c0.7,2.63,1.19,5.42,1.57,8.11c0.81,6.06,1.7,13.13,2.08,19.21c0.06,1.04,0.09,2.21,0.08,3.25c0,0.84-0.09,2.53-0.07,3.37
			c0.01,0.68,0.13,1.36,0.3,2.02l0.59,2.1c0.23,0.88,0.41,1.79,0.47,2.7c0.07,1.06-0.01,2.15-0.11,3.21
			c-0.22,2.28-0.76,5.11-0.4,7.38c0.12,0.78,0.35,1.56,0.79,2.21c0.28,0.41,0.66,0.77,1.11,1c0.59,0.32,1.27,0.45,1.93,0.54
			c1.17,0.28,25.5,0.08,27.48,0.13c1.03-0.02,2.11-0.03,3.12-0.25c0.83-0.17,1.7-0.56,2.1-1.35c0.24-0.48,0.27-1.05,0.14-1.57
			c-0.1-0.39-0.28-0.76-0.52-1.09c-0.47-0.66-1.12-1.17-1.79-1.61c-2.24-1.39-5.11-2.48-7.4-3.79c-2.26-1.25-4.34-2.86-6.14-4.71
			c-2.29-2.36-4.23-5.09-5.47-8.14c-1.3-3.17-1.9-6.6-2.14-10c-0.14-2.03-0.15-4.17-0.08-6.21c0.07-2.76,1.42-19.66,1.66-22.85
			c0.34-6,0.71-12.98,0.65-18.96c-0.04-4.02-0.3-8.12-1.04-12.08c-1.03-5.61-3.35-12.53-4.86-18.06c-0.35-1.3-0.7-2.71-0.94-4.03
			c-0.34-1.81-0.51-3.67-0.4-5.51c0.12-2.38,0.71-4.98,0.75-7.37c0.01-1.33-0.01-2.92,0.2-4.22c0.18-1.32,0.74-3.28,1.07-4.59
			c0.72-2.81,1.2-5.71,1.36-8.61c0.71-0.59,1.2-1.4,1.53-2.25c0.5-1.27,0.73-2.65,0.96-3.99c1.29-7.99,2.18-16.22,2.06-24.32
			c-0.05-3.99-0.32-8.34-0.64-12.32c-0.41-5.13-5.48-51.8-6.09-57.1c-0.25-1.85-0.48-3.81-1.03-5.59c-0.3-0.96-0.78-1.88-1.26-2.76
			c0.27-0.5,0.44-1.05,0.57-1.6c0.21-0.93,0.3-1.92,0.36-2.87c0.18-3.54-0.06-7.16-0.49-10.68c-0.35-2.87-1.12-6.56-1.19-9.44
			c-0.05-1.6,0.14-3.22,0.48-4.78c0.25-1.18,0.63-2.51,0.97-3.67c1.45-4.67,3.79-12.8,5.55-17.25c0.63,2.96,1.47,6.72,2.25,9.62
			c0.78,2.94,2.12,7.69,2.67,10.63c1.02,4.76,1.33,12.3,1.73,17.22c0.31,3.83,0.86,7.75,1.7,11.5c1.53,7.01,4.29,15.12,6.29,22.03
			c0.84,2.95,1.69,6.09,2.23,9.1c0.19,1.09,0.34,2.21,0.28,3.31c-0.04,0.84-0.2,1.66-0.47,2.46c-0.53,1.6-1.66,3.6-2.4,5.14
			c-0.85,1.74-1.61,3.56-2.04,5.46c-0.96,4.3-0.64,9.09-0.65,13.49c0.03,2.14-0.27,5.07-0.47,7.22c-0.16,1.88-0.19,3.86,0.58,5.62
			c0.34,0.77,0.82,1.52,1.55,1.96c0.56,0.35,1.23,0.46,1.88,0.47c0.94,0.01,1.89-0.11,2.81-0.3c1.42-0.3,2.82-0.82,4.03-1.63
			c0.86-0.57,1.61-1.31,2.23-2.13c1.75-2.36,2.69-5.21,3.43-8.03c0.54-2.13,0.96-4.33,1.04-6.52
			C437.98,298.68,437.8,296.87,437.47,295.1z M331.76,224.16c-0.43,2.51-1.22,6.6-1.45,9.1c-0.32,3.39-0.42,6.87-0.15,10.26
			c0.04,0.39,0.07,0.81,0.18,1.2c0.04,0.14,0.1,0.28,0.18,0.41c-0.52,0.8-1.06,1.65-1.37,2.55c-0.75,2.23-0.93,4.69-1.17,7.03
			c-0.43,5.11-1.3,17.93-2,22.84c-0.51,4.18-1.85,10.05-2.73,14.23c-0.7,3.44-1.28,7.94-1.73,11.45c-0.85-4.08-1.94-8.19-3.59-12.03
			c-0.79-1.86-1.97-4.2-2.59-6.12c-0.81-2.4-1.36-4.93-1.73-7.44c-0.29-2-0.46-4.06-0.45-6.08c0-2.16,0.2-4.39,0.48-6.53
			c1.39-10.18,4.42-22.24,4.97-32.49c0.14-2.44,0.16-5.05,0.11-7.5c-0.06-2.28-0.23-6.09-0.09-8.32c0.1-2.19,0.38-4.5,0.66-6.67
			c0.74-5.53,2-12.56,2.98-18.11c0.63,1.15,1.39,2.66,1.96,3.84c0.87,1.9,5.08,10.7,5.79,12.48c0.74,1.79,1.4,3.65,1.82,5.54
			c0.29,1.3,0.46,2.63,0.49,3.96C332.37,219.9,332.1,222.06,331.76,224.16z"/>
		<g id="_x32_D_x24_AG-SPORTS_00000157274493790713260040000008097317083655320711_">
			<g id="POLYLINE_124_">
				<path class="st9" d="M319.13,320.64c-1.12,8.72-0.08,17.7,0.92,26.39c0.2,1.37,0.36,2.89,0.7,4.24
					c0.17,0.66,0.37,1.33,0.69,1.93c0.23,0.42,0.55,0.79,0.95,1.06c0.6,0.39,1.31,0.57,2,0.74c3.72,0.8,7.7,0.86,11.49,0.95
					c4.04,0.04,8.41-0.01,12.45-0.2c0.68-0.04,1.48-0.07,2.16-0.17c0.28-0.05,0.57-0.12,0.8-0.29c0.26-0.2,0.42-0.5,0.54-0.8
					c0.14-0.36,0.25-0.77,0.35-1.14c2.09-9.04,6.81-24.96,9.26-34.06c0.78-2.99,1.45-6.11,1.85-9.18c0.28-2.05,0.61-5.52,0.9-7.56
					c0.06-0.41,0.14-0.85,0.24-1.25c0.07-0.24,0.15-0.49,0.32-0.68c0.23-0.25,0.58-0.35,0.9-0.38c0.63-0.06,1.31,0.14,1.74,0.61
					c0.23,0.24,0.39,0.54,0.51,0.85c0.19,0.47,0.31,0.98,0.4,1.48c0.28,1.52,0.42,4.6,0.54,6.18c0.14,1.88,0.4,3.96,0.69,5.82
					c1.59,9.86,4.98,22.65,6.71,32.47c0.17,1.08,0.4,2.34,0.51,3.43c0.05,0.36,0.08,1.27,0.18,1.63c0.05,0.21,0.13,0.42,0.26,0.59
					c0.13,0.16,0.3,0.28,0.48,0.37c0.31,0.15,0.65,0.24,0.98,0.31c1.57,0.3,4.02,0.28,5.64,0.35c5.6,0.09,12.98,0.69,18.49-0.07
					c1.69-0.26,3.46-0.68,4.77-1.84c1.3-1.17,1.77-2.94,2.12-4.59c0.97-5.47,1.71-11.26,2.09-16.79c0.33-4.79,0.32-9.8,0.07-14.59
					c-0.22-7.73-5.3-51.65-6.12-60.18c-0.22-1.85-0.6-5.5-0.99-7.38c-0.16-0.79-0.34-1.62-0.63-2.38c-0.07-0.19-0.16-0.41-0.24-0.6
					l-0.04-0.09l-0.09-0.19l-0.09-0.18l-0.09-0.18l-0.18-0.36l-0.38-0.73"/>
			</g>
			<g id="POLYLINE_123_">
				<path class="st9" d="M330.52,245.12c-0.52,0.8-1.06,1.65-1.37,2.55c-0.75,2.23-0.93,4.69-1.17,7.03
					c-0.44,5.19-1.29,17.86-2,22.84c-0.5,4.16-1.86,10.08-2.73,14.23c-0.7,3.43-1.28,7.95-1.73,11.45"/>
			</g>
			<g id="POLYLINE_122_">
				<path class="st9" d="M347.39,85.86c-0.77-3.1-0.82-6.36-0.4-9.52c0.34-2.49,0.99-4.97,2.1-7.23c1.18-2.42,3.04-4.56,5.44-5.83
					c2.02-1.08,4.53-1.63,6.71-2.31c0.74-0.23,1.54-0.51,2.25-0.81c1.03-0.43,2.62-1.28,3.62-1.79c1.28-0.63,2.65-1.22,4.1-1.27
					c0.84-0.03,1.67,0.15,2.46,0.43c1.14,0.41,2.24,1.01,3.29,1.61c1.11,0.64,2.65,1.55,3.79,2.1c0.78,0.38,1.63,0.72,2.45,1.01
					c1.6,0.59,3.75,1.12,5.13,2.15c0.35,0.26,0.66,0.58,0.89,0.95c0.23,0.36,0.38,0.77,0.47,1.19c0.21,0.94,0.18,1.92,0.11,2.87
					c-0.13,1.59-0.43,3.51-0.35,5.1c0.05,1.51,0.36,3.47,0.43,4.97c0.14,2.72-0.02,5.65-0.17,8.37"/>
			</g>
			<g id="POLYLINE_121_">
				<path class="st9" d="M352.35,100.4c-0.59-0.44-1.43-0.54-2.13-0.72c-0.7-0.17-1.39-0.42-1.97-0.86c-1.36-1.01-1.88-2.72-2.2-4.3
					c-0.38-1.99-0.52-4.06-0.32-6.08c0.05-0.43,0.12-0.88,0.23-1.3c0.07-0.24,0.15-0.48,0.28-0.69c0.13-0.22,0.33-0.41,0.57-0.51
					c0.19-0.07,0.39-0.09,0.59-0.1c0.26,0,0.52,0.02,0.77,0.06c0.46,0.08,0.92,0.24,1.3,0.52c0.34,0.24,0.61,0.57,0.81,0.93
					c0.71,1.31,0.95,2.92,1.4,4.33c0.09,0.27,0.19,0.55,0.33,0.81c0.08,0.14,0.19,0.28,0.33,0.36c0.08,0.04,0.17,0.06,0.26,0.05
					c0.09-0.02,0.16-0.07,0.22-0.13l0.01-0.01c0.1-0.11,0.16-0.26,0.22-0.4c0.22-0.67,0.27-1.42,0.34-2.12
					c0.1-1.45,0.26-4.06,0.43-5.46c0.27-2.32,0.71-4.72,1.22-6.99c0.36-1.57,0.8-3.24,1.31-4.77c0.2-0.58,0.41-1.18,0.67-1.74
					c0.31-0.65,0.76-1.27,1.42-1.61c0.44-0.23,0.94-0.34,1.43-0.39c0.85-0.08,1.71,0.01,2.54,0.16c1.54,0.28,3.05,0.8,4.47,1.47
					c1.55,0.71,3.62,2.18,5.07,3.1c0.99,0.62,2.04,1.19,3.14,1.57c0.81,0.29,1.66,0.46,2.51,0.57c1.67,0.25,3.82,0.23,5.46,0.62
					c0.56,0.14,1.15,0.37,1.52,0.83c0.33,0.4,0.47,0.92,0.53,1.42c0.16,1.37-0.13,3.61-0.18,5c-0.09,2.08-0.22,4.25-0.01,6.32
					c0.04,0.28,0.07,0.57,0.19,0.83l0.01,0.01l0.01,0.01l0.01,0.01l0.01,0.01l0.01,0.01l0.01,0.01l0.01,0.01l0.01,0.01l0.01,0.01
					l0.01,0.01l0.01,0.01l0.01,0.01l0.01,0.01l0.01,0.01l0.01,0.01c0.06,0.05,0.14,0.04,0.21,0c0.18-0.11,0.31-0.3,0.44-0.47
					l0.68-0.96c0.56-0.76,1.21-1.53,2.12-1.87c0.53-0.2,1.13-0.26,1.68-0.09c0.34,0.1,0.64,0.31,0.86,0.59
					c0.36,0.46,0.53,1.05,0.63,1.62c0.18,1.13,0.13,2.31,0,3.44c-0.19,1.5-0.56,3-1.12,4.4c-0.5,1.23-1.17,2.41-2.07,3.4
					c-0.59,0.64-1.29,1.23-2.11,1.56c-0.25,0.09-0.51,0.16-0.77,0.18c-0.36,0.04-0.77-0.04-1.12-0.08
					c-0.32-0.04-0.67-0.07-0.94,0.13c-0.15,0.11-0.26,0.28-0.35,0.44c-0.19,0.38-0.3,0.8-0.4,1.21c-0.47,2.13-0.75,4.4-1.63,6.42
					c-1.52,3.6-4.27,6.77-7.82,8.48c-2.66,1.27-5.8,1.69-8.63,0.78c-1.92-0.61-3.59-1.84-4.93-3.32c-2.61-2.88-4.1-6.57-5.25-10.23
					c-0.47-1.48-0.91-3.27-1.32-4.76c-0.08-0.27-0.17-0.55-0.28-0.81C352.9,101.02,352.68,100.65,352.35,100.4z"/>
			</g>
			<g id="POLYLINE_120_">
				<path class="st9" d="M377.4,353.48l-0.05,16.87c0.03,2.15,0.09,4.38,0.45,6.51c0.28,1.71,0.77,3.4,1.42,5
					c1.2,3.02,3.64,6.92,5.01,9.87c0.25,0.54,0.48,1.11,0.63,1.68c0.31,1.12,0.24,2.31,0.16,3.46c-0.39,4.84-1.15,12.67-1.25,17.45
					c-0.04,1.95,0.01,3.96,0.24,5.9c0.17,1.53,0.46,3.09,0.87,4.58c0.46,1.69,1.1,3.42,1.76,5.05l2.69,6.43
					c0.78,1.94,1.49,3.96,2.01,5.98c0.7,2.63,1.19,5.42,1.57,8.11c0.81,6.07,1.7,13.12,2.08,19.21c0.07,1.21,0.1,2.54,0.08,3.75
					c-0.01,0.53-0.08,2.34-0.06,2.86c0.01,0.68,0.13,1.36,0.3,2.02l0.59,2.1c0.23,0.88,0.41,1.79,0.47,2.7
					c0.07,1.06-0.01,2.15-0.11,3.21c-0.22,2.29-0.76,5.1-0.4,7.38c0.12,0.78,0.35,1.56,0.79,2.21c0.29,0.43,0.68,0.78,1.14,1.02
					c0.59,0.31,1.25,0.44,1.9,0.52c1.1,0.28,25.6,0.08,27.48,0.13c1.05-0.02,2.16-0.03,3.19-0.26c0.82-0.18,1.68-0.59,2.05-1.38
					c0.24-0.5,0.25-1.08,0.11-1.6c-0.11-0.41-0.32-0.79-0.58-1.13c-0.49-0.63-1.13-1.13-1.8-1.56c-2.31-1.41-5.24-2.52-7.58-3.88
					c-2.16-1.23-4.14-2.78-5.87-4.56c-2.29-2.36-4.23-5.09-5.47-8.14c-1.3-3.17-1.9-6.6-2.14-10c-0.14-2.02-0.15-4.18-0.08-6.2
					c0.05-2.8,1.45-19.75,1.66-22.85c0.34-6.02,0.71-12.96,0.65-18.96c-0.04-4.02-0.3-8.12-1.04-12.08
					c-1.03-5.6-3.36-12.54-4.86-18.06c-0.35-1.3-0.7-2.71-0.94-4.03c-0.34-1.81-0.51-3.67-0.4-5.51c0.12-2.38,0.71-4.98,0.75-7.37
					c0.01-1.33-0.01-2.91,0.2-4.22c0.18-1.31,0.74-3.29,1.07-4.59c0.72-2.81,1.2-5.71,1.36-8.61"/>
			</g>
			<g id="POLYLINE_119_">
				<path class="st9" d="M321.95,353.88c0.14,3.9,0.62,8.69,1.06,12.6c0.14,1.39,0.23,2.84,0.2,4.24
					c-0.07,5.13-1.13,10.24-2.46,15.18c-1.73,6.24-4.17,14.27-5.24,20.54c-0.96,5.32-1.43,10.82-1.6,16.21
					c-0.43,10.91,0.33,24,0.53,34.96c0,1.89-0.05,3.85-0.28,5.72c-0.11,0.98-0.28,1.99-0.49,2.96c-0.16,0.88-1.83,7.22-2.07,8.24
					c-0.47,1.74-0.98,3.51-1.83,5.1c-0.86,1.66-2.08,3.12-3.44,4.39c-1.12,1.04-2.34,2-3.62,2.83c-2.14,1.42-4.55,2.41-7.02,3.11
					c-0.76,0.22-2.76,0.71-3.47,1.03c-0.19,0.09-0.38,0.19-0.54,0.32c-0.28,0.23-0.4,0.57-0.46,0.92c-0.08,0.58-0.11,1.18-0.09,1.77
					c0.03,0.61,0.1,1.23,0.32,1.8c0.13,0.35,0.33,0.69,0.62,0.94c0.33,0.29,0.75,0.44,1.17,0.54c0.8,0.18,1.65,0.19,2.46,0.2
					c3.31-0.05,27.45,0.14,30.13-0.11c0.63-0.07,1.28-0.16,1.87-0.41c0.45-0.19,0.84-0.5,1.1-0.91c0.51-0.8,0.56-1.79,0.54-2.71
					c-0.04-1.5-0.37-2.99-0.98-4.37c-0.44-1.01-1.02-2.18-1.25-3.25c-0.25-1.14-0.26-2.32-0.12-3.48c0.12-1.11,0.58-2.74,0.85-3.84
					c0.32-1.31,0.51-2.67,0.55-4.02c0.07-2.53,0.16-5.43,0.56-7.9c0.61-4.21,2.34-10.84,3.34-15.06c0.91-3.71,2.39-9.97,3.47-13.54
					c1.44-4.97,4.07-11.68,5.35-16.69c0.79-3.05,1.29-6.22,1.57-9.36c0.39-3.89,0.42-10.99,0.51-14.96c0.06-1.59,0.1-3.3,0.47-4.85
					c0.24-1.03,0.67-2.02,1.13-2.96c0.76-1.53,2.12-4.13,2.76-5.67c0.74-1.71,1.38-3.49,1.84-5.29c0.55-2.14,0.85-4.41,1.06-6.61
					c0.48-5.08,0.64-11.08,0.79-16.2"/>
			</g>
			<g id="POLYLINE_118_">
				<path class="st9" d="M322.26,191.95c0.63,1.15,1.38,2.65,1.96,3.84c0.9,1.96,5.07,10.67,5.79,12.48
					c0.74,1.79,1.4,3.65,1.82,5.54c0.29,1.3,0.46,2.63,0.49,3.96c0.05,2.13-0.22,4.29-0.56,6.39c-0.5,2.92-1.32,7.09-1.54,10
					c-0.18,2.18-0.25,4.47-0.21,6.66c0.05,1.2,0.07,2.46,0.26,3.64c0.05,0.27,0.13,0.54,0.31,0.75c0.21,0.24,0.49,0.39,0.77,0.53
					c0.92,0.44,1.92,0.71,2.9,0.96c3.13,0.78,6.46,1.24,9.67,1.62c4.8,0.54,9.9,0.85,14.73,1c10.24,0.31,20.66-0.09,30.82-1.44
					c3.38-0.47,7.2-1.01,10.53-1.77c0.67-0.17,1.35-0.38,1.93-0.78c0.41-0.28,0.76-0.67,1-1.11c0.43-0.75,0.62-1.61,0.76-2.46
					c0.3-1.96,0.3-4.01,0.26-5.99c-0.07-2.23-0.25-4.57-0.53-6.79c-0.2-1.78-0.8-5.14-1-6.93c-0.18-1.53-0.27-3.1-0.12-4.64
					c0.12-1.3,0.38-2.6,0.69-3.86c0.48-1.9,3.08-10.31,3.69-12.3c0.75-2.39,1.66-5.09,2.55-7.42"/>
			</g>
			<g id="POLYLINE_117_">
				<path class="st9" d="M383.69,103.18c-0.13,3.29-0.08,9.3-0.08,12.66c0.01,1.07,0.03,2.32,0.09,3.39c0.05,0.69,0.1,1.4,0.29,2.06
					c0.11,0.38,0.3,0.74,0.56,1.03c0.33,0.37,0.74,0.66,1.15,0.92c1.6,0.98,3.44,1.69,5.19,2.38c2.63,1.02,7.64,2.73,10.09,4.01
					c1.09,0.54,2.15,1.34,3.12,2.07c0.55,0.4,1.14,0.77,1.76,1.03c1.4,0.59,3.56,1,5.05,1.38c1.64,0.41,3.26,0.94,4.77,1.72
					c3.49,1.75,6.45,4.59,8.23,8.07c2.21,4.28,3.07,9.14,3.51,13.91c0.31,3.88,0.34,7.87-0.4,11.7c-0.3,1.56-0.82,3.43-0.76,5.01
					c0.03,0.92,0.28,1.82,0.6,2.68c0.68,1.79,1.61,3.78,2.07,5.64c1.1,4.37,0.86,10.03,1.15,14.52c0.09,1.48,0.22,3.02,0.46,4.48
					c0.24,1.45,0.63,2.9,1.11,4.29c0.65,1.92,1.94,4.74,2.68,6.63c0.49,1.24,0.94,2.56,1.32,3.84c1.09,3.67,1.76,7.48,2.06,11.3
					c0.3,3.79,0.18,7.7-0.06,11.5l-1.27,16.51c-0.3,5.27-0.53,10.86-0.2,16.13c0.1,1.87,0.49,4.16,0.81,6.02
					c0.11,0.69,0.19,1.41,0.19,2.11c0,0.51-0.06,1.03-0.14,1.53c-0.28,1.62-0.77,3.37-0.81,5.03c-0.09,2.55,0.78,5.86,1.23,8.38
					c0.33,1.76,0.52,3.58,0.44,5.37c-0.08,2.2-0.5,4.4-1.04,6.52c-0.73,2.81-1.68,5.67-3.43,8.03c-0.62,0.83-1.37,1.56-2.23,2.13
					c-1.21,0.81-2.61,1.33-4.03,1.63c-0.92,0.19-1.87,0.31-2.81,0.3c-0.65-0.01-1.32-0.12-1.88-0.47c-0.73-0.45-1.21-1.19-1.55-1.96
					c-0.77-1.76-0.74-3.74-0.58-5.62c0.2-2.16,0.5-5.08,0.47-7.22c0.01-4.39-0.31-9.18,0.65-13.49c0.43-1.89,1.19-3.72,2.04-5.46
					c0.73-1.54,1.87-3.55,2.4-5.14c0.27-0.79,0.43-1.62,0.47-2.46c0.06-1.1-0.09-2.22-0.28-3.31c-0.54-3.01-1.4-6.16-2.23-9.1
					c-2-6.91-4.77-15.02-6.29-22.03c-0.84-3.75-1.39-7.67-1.7-11.5c-0.22-2.76-0.7-10.39-1.05-13c-0.21-1.71-0.52-3.51-0.88-5.2
					c-0.71-3.37-2.15-8.3-2.99-11.65c-1.36-5.33-2.93-13.6-4.01-19.06"/>
			</g>
			<g id="POLYLINE_116_">
				<path class="st9" d="M325.07,176.97c-1.51,7.62-3.72,19.92-4.97,27.59c-0.51,3.3-1.06,6.96-1.35,10.26
					c-0.36,3.61-0.05,8.07-0.01,11.72c0.04,4.17-0.21,8.42-0.75,12.55c-0.96,7.58-3.31,18.35-4.35,25.94
					c-0.29,2.26-0.5,4.61-0.47,6.89c0.02,2.62,0.32,5.27,0.81,7.84c0.46,2.38,1.09,4.77,2.01,7.02c1.07,2.53,2.46,5.34,3.3,7.94
					c1.28,3.86,2.21,7.88,2.86,11.89c0.37,2.36,0.66,4.8,0.67,7.18c-0.01,1.35-0.07,2.74-0.44,4.04c-0.86,3.09-3.41,3.01-6.09,2.7
					c-2.34-0.29-4.78-0.68-6.85-1.89c-0.71-0.42-1.33-0.98-1.84-1.62c-0.75-0.94-1.29-2.04-1.78-3.13c-0.51-1.16-1.72-4-2.23-5.19
					c-0.99-2.43-1.93-4.96-2.21-7.59c-0.15-1.43-0.04-2.9,0.14-4.32c0.2-1.53,0.53-3.5,0.57-5.02c0.03-1.23-0.08-2.49-0.23-3.71
					l-0.49-3.57c-0.23-1.69-0.29-3.42-0.18-5.12c0.12-2.01,0.39-4.53,0.33-6.52c-0.04-2.11-0.31-4.31-0.6-6.4
					c-0.63-4.25-1.85-11-2.43-15.23c-0.86-6.2-1.52-12.61-1.63-18.87c-0.03-2.82,0.03-5.72,0.42-8.51c0.24-1.73,0.64-3.48,1.13-5.16
					c0.39-1.32,1.41-4.57,1.71-5.84c0.27-1.11,0.49-2.27,0.65-3.4c0.77-5.06,0.58-11.14,0.53-16.29c0-2.31,0.08-4.68,0.43-6.97
					c0.54-3.79,2.23-7.73,2.94-11.48c0.46-2.36,0.09-5.12-0.08-7.5c-0.2-2.7-0.03-5.44,0.31-8.13c0.38-2.99,0.98-6.06,1.74-8.98
					c0.5-1.87,1.07-3.76,1.81-5.55c0.59-1.42,1.3-2.81,2.24-4.03c0.74-0.96,1.64-1.81,2.65-2.48c1.5-1,3.22-1.66,4.91-2.25
					c2.51-0.84,6.12-1.88,8.44-3.05c2.72-1.31,5.49-3.06,8.3-4.17c3.11-1.27,6.82-2.14,9.88-3.55c1.85-0.86,3.54-2.1,4.8-3.71
					c0.65-0.83,1.19-1.76,1.56-2.74c0.38-0.99,0.59-2.04,0.72-3.09c0.24-1.79,0.32-4.18,0.43-6c0.14-2.98,0.21-6.09-0.01-9.07"/>
			</g>
			<g id="POLYLINE_105_">
				<path class="st9" d="M375.01,184.32c0.91,0.5,2,1.24,2.93,1.66c0.67,0.32,1.38,0.57,2.09,0.76c1.48,0.39,3.05,0.54,4.58,0.66
					c3.15,0.23,6.46,0.22,9.61,0.13c2.25-0.1,4.8-0.16,7.01-0.51c0.72-0.13,1.41-0.38,2.02-0.79c0.65-0.44,1.22-1,1.76-1.56
					c0.97-1.01,1.89-2.15,2.72-3.28c1.66-2.28,3.13-4.73,4.23-7.33c0.73-1.74,1.3-3.58,1.49-5.46"/>
			</g>
			<g id="POLYLINE_104_">
				<path class="st9" d="M364.82,184.97c-1.88,0.85-3.86,1.68-5.89,2.07c-1.85,0.37-3.81,0.53-5.7,0.63
					c-3.09,0.16-6.86,0.15-9.96,0.13c-3.92-0.09-8.18-0.22-11.55-2.46c-2.52-1.7-4.32-4.24-5.82-6.84
					c-1.72-2.99-3.11-6.22-3.82-9.61"/>
			</g>
		</g>
	</g>
	<g>
		<path class="st10" d="M316.47,219.47c-0.24-0.88-0.59-1.9-0.88-2.77c-1.96-5.68-4.43-11.28-7.72-16.32
			c-3.1-4.8-7.74-9.78-11.16-14.36c-1.13-1.51-2.2-3.14-3.11-4.79c-1.43-2.57-3.21-6.78-4.44-9.47c-1.9-4.11-4.23-8.09-7.22-11.52
			c-1.98-2.26-4.29-4.3-6.97-5.69c-2.94-1.52-6.22-2.25-9.48-2.7c-2.07-0.25-7.79-0.94-9.83-1.1c-0.33-0.34-0.74-0.6-1.16-0.82
			c-0.45-0.22-0.94-0.4-1.45-0.45c1.07-0.69,1.93-1.65,2.72-2.64c0.38-0.5,0.76-1.03,1-1.62c0.11-0.27,0.19-0.56,0.18-0.85
			c-0.01-0.18-0.06-0.36-0.16-0.5c-0.13-0.2-0.34-0.33-0.55-0.44c-0.23-0.12-0.48-0.21-0.73-0.28c-1.02-0.32-2.28-0.51-3.25-0.95
			c-0.39-0.18-0.78-0.42-1.04-0.77c-0.42-0.56-0.45-1.31-0.38-1.98c0.2-1.68,1.05-3.69,1.6-5.29c0.38-1.08,0.76-2.22,1.01-3.34
			c0.21-0.95,0.34-1.94,0.38-2.92c0.06-1.33-0.02-2.69-0.18-4.02c-0.2-1.86-1.02-5.9-1.35-7.78c-0.16-0.85-1.23-7.87-1.4-8.89
			c-1.14-6.78-2.68-13.88-7.1-19.35c-1.6-2-3.49-3.83-5.72-5.11c-0.69-0.39-1.43-0.73-2.2-0.93c-0.7-0.18-1.43-0.24-2.16-0.23
			l-1.45,0.04c-0.41,0.01-0.83-0.01-1.24-0.07c-0.75-0.11-1.8-0.41-2.55-0.55c-1.27-0.25-2.58-0.23-3.84,0.07
			c-1.8,0.42-3.5,1.21-5.12,2.09c-2.3,1.26-4.48,2.78-6.5,4.46c-1.81,1.52-3.53,3.2-5,5.05c-1.03,1.31-1.96,2.73-2.59,4.28
			c-0.92,2.23-1.14,4.68-1.1,7.08c0.03,2.09,0.21,4.72-0.13,6.76c-0.52,3.17-2.09,6.3-2.92,9.38c-0.59,2.08-0.87,4.26-0.71,6.42
			c0.2,3.19,1.04,6.5,1.41,9.67c0.13,1.24,0.21,2.51-0.03,3.74c-0.13,0.66-0.37,1.3-0.79,1.83c-0.34,0.44-0.79,0.78-1.26,1.06
			c-0.98,0.59-2.29,0.96-3.37,1.34c-0.34,0.12-0.7,0.26-1.02,0.44c-0.15,0.09-0.3,0.19-0.41,0.33l-0.01,0.01l-0.01,0.01l-0.01,0.01
			l-0.01,0.01l-0.01,0.01l-0.01,0.01l-0.01,0.01l-0.01,0.01l-0.01,0.01l-0.01,0.01l-0.01,0.01l-0.01,0.01l-0.01,0.01l-0.01,0.01
			v0.01v0.01v0.01v0.01v0.01v0.01v0.01v0.01v0.01v0.01v0.01v0.01v0.01v0.01v0.01v0.01v0.01v0.01v0.01v0.01v0.01
			c0.01,0.32,0.19,0.6,0.38,0.85c0.53,0.66,1.22,1.16,1.92,1.62c2.37,1.52,5.24,2.54,8.08,2.06c-0.34,0.64-0.6,1.33-0.72,2.05
			c-0.83,0.09-1.67,0.29-2.47,0.51c-0.62,0.19-2.27,0.61-2.84,0.85c-0.47,0.19-0.92,0.46-1.21,0.89c-0.19,0.01-0.57,0.04-0.75,0.06
			c-2.28,0.25-5.2,0.46-7.42,0.93c-1.86,0.38-3.71,0.93-5.43,1.75c-1.96,0.93-3.77,2.2-5.41,3.62c-2.09,1.81-3.97,3.92-5.58,6.16
			c-2.18,2.94-3.99,6.89-5.61,10.18c-0.82,1.64-1.76,3.24-2.85,4.7c-2.18,2.9-5.18,6.29-7.21,9.27
			c-4.15,5.97-7.97,12.43-11.47,18.81c-1.26,2.37-2.5,4.83-3.38,7.37c-0.44,1.29-0.8,2.62-0.87,3.98c-0.09,1.58,0.27,3.15,0.81,4.63
			c0.84,2.29,1.97,4.58,3.05,6.77c4.81,8.97,12.27,24.32,17.62,32.74c2.36,3.64,5.08,7.25,8.83,9.55c2.1,1.29,4.52,2.12,7.01,2.16
			c1.86,0.05,3.72-0.33,5.51-0.78l2.12-0.55l-5.84,20.5c-3.22,11.82-5.95,24.1-5.48,36.42c0.14,4.3,0.63,8.8,1.21,13.07
			c0.46,3.45,2.02,12.56,2.42,16c0.2,1.69,0.33,4.21,0.78,5.83c0.24,0.86,0.65,1.69,1.26,2.35c-0.7,7.55-1.32,15.77-2.79,23.19
			c-0.7,3.63-2.31,8.22-3.38,11.79c-0.79,2.71-1.42,5.53-1.8,8.33c-0.69,5.05-0.91,10.43-1.06,15.54
			c-0.16,7.46-0.15,16.37,0.01,23.82c0.04,2.89,0.66,14.14,0.38,16.81c-0.13,1.78-0.69,3.63-1.19,5.33
			c-0.21,0.74-0.38,1.5-0.46,2.27c-0.14,1.25-0.04,3.1-0.02,4.38c0.02,1.55-0.03,3.17-0.74,4.58c-0.48,0.97-1.27,1.76-2.18,2.34
			c-0.68,0.44-1.44,0.78-2.2,1.07c-1.72,0.68-3.97,1.32-5.66,2.08c-0.72,0.32-1.43,0.7-2.02,1.23c-0.73,0.65-1.27,1.63-1.13,2.63
			c0.1,0.75,0.58,1.39,1.24,1.74c0.48,0.27,1.02,0.41,1.56,0.51c1,0.18,2.06,0.21,3.08,0.22c1.37-0.04,19.44,0.1,20.35-0.07
			c0.35-0.05,0.71-0.15,0.99-0.37c0.5-0.4,0.66-1.08,0.75-1.68c0.09-0.71,0.06-1.43,0-2.14c-0.16-1.85-0.71-4.07-1.01-5.91
			c-0.2-1.26-0.14-2.55,0.19-3.79c0.52-2.05,1.33-4.16,1.59-6.27c0.21-1.69,0.31-3.74,0.52-5.44c0.26-2.29,0.71-4.63,1.23-6.87
			c1.9-8.65,6.06-19.1,9.1-27.47c0.86-2.45,1.76-5.08,2.28-7.62c0.42-2.01,0.61-4.12,0.71-6.18l0.46-12.22
			c0.25-4.96,0.71-10.03,2.26-14.77c0.42-1.32,0.95-2.7,1.49-3.97c0.68-1.56,1.48-3.36,1.97-4.98c1.49-4.93,2.22-10.24,2.96-15.33
			c0.75-0.42,1.21-1.19,1.58-1.94c0.6-1.27,1.02-2.7,1.39-4.06c0.81-3.06,2.04-8.49,2.85-11.54c1.33-4.96,4.45-16.28,5.56-21.11
			c1.36-5.59,2.65-13.61,3.66-19.32c0.2-0.99,0.37-2.11,0.74-3.06c0.08-0.18,0.17-0.36,0.3-0.5c0.31-0.35,0.82-0.46,1.27-0.39
			c0.29,0.05,0.58,0.17,0.8,0.37c0.37,0.35,0.56,0.83,0.71,1.31c0.19,0.64,0.3,1.34,0.39,2c0.63,5.74,1.59,13.43,2.49,19.13
			c1.65,11.11,4.81,25.31,6.62,36.42c0.07,0.42,0.14,0.88,0.31,1.27c0.08,0.19,0.2,0.36,0.34,0.51c0.16,0.17,0.35,0.3,0.55,0.42
			c0.2,5.23,0.54,10.58,1.88,15.66c1.39,5.17,4.01,10.43,5.11,15.68c0.91,4.3,1.05,9.92,1.36,14.33c0.28,3.94,0.68,8.02,1.53,11.88
			c1.02,4.74,2.65,9.43,4.47,13.92c1.67,4.08,5.08,11.92,6.43,15.99c1.09,3.19,2.03,6.53,2.77,9.82c0.45,2.03,0.86,4.15,1.06,6.21
			c0.15,1.37,0.12,2.95,0.18,4.33c0.06,1.55,0.67,3.67,1.01,5.2c0.23,1.04,0.42,2.12,0.48,3.19c0.07,1.41-0.06,3.07-0.1,4.49
			c-0.01,0.81,0.02,1.66,0.34,2.42c0.21,0.5,0.57,0.94,1.02,1.26c0.76,0.53,1.69,0.76,2.6,0.91c1.7,0.27,3.5,0.29,5.22,0.32
			c2.17-0.06,14.48,0.15,16.36-0.14c0.46-0.07,0.93-0.17,1.31-0.44c0.21-0.15,0.37-0.36,0.47-0.6c0.17-0.44,0.18-0.95,0.16-1.41
			c-0.04-0.61-0.19-1.25-0.58-1.73c-0.39-0.47-0.97-0.71-1.53-0.92c-3.39-1.15-7.13-2.05-9.84-4.52c-1.37-1.25-2.45-2.84-2.98-4.63
			c-0.45-1.49-0.45-3.33-0.54-4.88c-0.13-3.04-1.39-6.22-1.52-9.26c-0.04-0.79-0.02-1.64,0.01-2.43c0.24-4.7,0.44-10.64,0.4-15.32
			c-0.07-7.87-0.44-16.67-1.03-24.52c-0.55-7.41-1.57-14.94-3.4-22.15c-0.69-2.83-3.19-11.68-3.58-14.41
			c-0.11-0.71-0.18-1.46-0.22-2.18c-0.09-1.91-0.01-5.5-0.08-7.41c-0.08-3.07-0.34-6.78-0.61-9.85c0.77-1.02,1.17-2.26,1.53-3.47
			l1.08-3.95c1.72-5.85,3.83-12.59,4.99-18.53c0.78-3.87,1.28-7.88,1.48-11.83c0.53-10.52-0.59-21.19-2.01-31.6
			c-0.58-4.01-1.34-8.27-2.28-12.21c-1.09-4.68-2.9-10.57-4.27-15.21c0.87,0.05,3.7,0.44,4.61,0.55c2.11,0.22,4.32,0.4,6.36-0.27
			c1.32-0.44,2.48-1.24,3.52-2.16c0.75-0.66,1.48-1.43,2.16-2.17c5.13-5.77,11.39-12.03,16.14-18.09c3.79-4.79,7.39-10,10.59-15.21
			c1.98-3.29,3.98-6.74,5.42-10.3c0.55-1.4,1.05-2.89,1.03-4.41C316.87,221.11,316.69,220.27,316.47,219.47z M196.19,235.99
			c-0.52,7.97-2.64,15.95-4.66,23.66c-1.38,0.06-2.79,0.15-4.15,0.4c-0.91,0.17-1.82,0.43-2.7,0.73c-1.7,0.57-3.62,1.46-5.44,1.37
			c-0.39-0.03-0.79-0.11-1.15-0.28c-0.39-0.18-0.74-0.44-1.04-0.75c-0.79-0.79-1.32-1.81-1.79-2.81
			c-3.67-8.55-8.92-27.68-12.15-36.52c-0.05-0.21-0.08-0.43-0.04-0.65c0.1-0.48,0.38-0.91,0.64-1.32c1.14-1.66,2.67-3.27,4.01-4.77
			c4.92-5.32,10.31-11.1,14.5-16.99c0.75-1.06,1.5-2.21,2.14-3.34c0.36-0.61,1.05-1.98,1.43-2.57c0.09-0.14,0.19-0.29,0.31-0.41
			c0.05-0.05,0.11-0.11,0.18-0.15h0.01h0.01h0.01h0.01h0.01h0.01h0.01h0.01h0.01h0.01h0.01h0.01h0.01h0.01h0.01h0.01h0.01h0.01h0.01
			h0.01h0.01h0.01h0.01h0.01h0.01h0.01h0.01h0.01h0.01h0.01h0.01h0.01h0.01h0.01h0.01h0.01h0.01h0.01h0.01h0.01h0.01h0.01h0.01h0.01
			l0.01,0.01l0.01,0.01l0.01,0.01l0.01,0.01l0.01,0.01l0.01,0.01l0.01,0.01c0.08,0.09,0.14,0.2,0.19,0.31
			c0.22,0.54,0.34,1.15,0.46,1.72c0.23,1.1,0.58,2.93,0.87,3.99c0.32,1.24,0.74,2.6,1.15,3.81c1.53,4.43,3.49,9.16,5.42,13.43
			l0.93,6.94C196.21,226.52,196.52,231.29,196.19,235.99z M293.44,222.53c-3.92,9.29-7.96,22.27-12.55,31.2
			c-0.81,1.51-1.69,3.02-2.82,4.32c-0.75,0.86-1.64,1.66-2.74,2.02c-1.01,0.34-2.11,0.23-3.12-0.08c-1.79-0.53-3.8-1.84-5.44-2.74
			c-1.48-0.81-3.05-1.6-4.75-1.72c-1.5-6.78-2.54-13.77-2.48-20.73c0.05-8.09,1.8-17.1,2.79-25.13l1.94-3.01
			c0.89-1.42,1.69-2.92,2.34-4.47c1.05-2.45,2.27-6.84,3.08-9.43c0.3-0.92,0.61-1.92,1.04-2.78c0.09-0.16,0.18-0.32,0.3-0.46
			l0.01-0.01l0.01-0.01l0.01-0.01l0.01-0.01l0.01-0.01l0.01-0.01l0.01-0.01l0.01-0.01l0.01-0.01l0.01-0.01l0.01-0.01l0.01-0.01
			l0.01-0.01l0.01-0.01l0.01-0.01h0.01h0.01h0.01h0.01h0.01h0.01h0.01h0.01h0.01h0.01h0.01h0.01h0.01h0.01h0.01h0.01h0.01h0.01h0.01
			h0.01h0.01h0.01h0.01h0.01h0.01h0.01h0.01h0.01h0.01h0.01h0.01h0.01h0.01h0.01h0.01h0.01h0.01h0.01h0.01h0.01h0.01
			c0.12,0.07,0.2,0.19,0.27,0.31c0.22,0.36,0.5,1.13,0.67,1.53c0.25,0.6,0.55,1.21,0.87,1.77c0.59,1.06,1.32,2.12,2.02,3.1
			c1.28,1.84,16.16,20.75,17.8,22.93c0.3,0.42,0.62,0.86,0.76,1.36C294.02,221.11,293.7,221.85,293.44,222.53z"/>
		<g id="_x32_D_x24_AG-SPORTS">
			<g id="POLYLINE_468_">
				<path class="st9" d="M238.43,372.04c0.2,5.23,0.54,10.58,1.88,15.66c1.39,5.17,4.01,10.43,5.11,15.68
					c0.91,4.3,1.05,9.92,1.36,14.33c0.28,3.94,0.68,8.02,1.53,11.88c1.02,4.74,2.65,9.43,4.47,13.92
					c1.67,4.08,5.08,11.92,6.43,15.99c1.09,3.19,2.03,6.53,2.77,9.82c0.45,2.03,0.86,4.15,1.06,6.21c0.15,1.37,0.12,2.95,0.18,4.33
					c0.06,1.55,0.67,3.67,1.01,5.2c0.23,1.04,0.42,2.12,0.48,3.19c0.07,1.41-0.06,3.07-0.1,4.49c-0.01,0.81,0.02,1.66,0.34,2.42
					c0.21,0.5,0.57,0.94,1.02,1.26c0.76,0.53,1.69,0.76,2.6,0.91c1.7,0.27,3.5,0.29,5.22,0.32c2.17-0.06,14.48,0.15,16.36-0.14
					c0.46-0.07,0.93-0.17,1.31-0.44c0.21-0.15,0.37-0.36,0.47-0.6c0.17-0.44,0.18-0.95,0.16-1.41c-0.04-0.61-0.19-1.25-0.58-1.73
					c-0.39-0.47-0.97-0.71-1.53-0.92c-3.39-1.15-7.13-2.05-9.84-4.52c-1.37-1.25-2.45-2.84-2.98-4.63
					c-0.45-1.49-0.45-3.33-0.54-4.88c-0.13-3.04-1.39-6.22-1.52-9.26c-0.04-0.79-0.02-1.64,0.01-2.43c0.24-4.7,0.44-10.64,0.4-15.32
					c-0.07-7.87-0.44-16.67-1.03-24.52c-0.55-7.41-1.57-14.94-3.4-22.15c-0.69-2.83-3.19-11.68-3.58-14.41
					c-0.11-0.71-0.18-1.46-0.22-2.18c-0.09-1.91-0.01-5.5-0.08-7.41c-0.08-3.07-0.34-6.78-0.61-9.85"/>
			</g>
			<g id="POLYLINE_463_">
				<path class="st9" d="M181.39,369.76c-0.7,7.55-1.32,15.77-2.79,23.19c-0.7,3.63-2.31,8.22-3.38,11.79
					c-0.79,2.71-1.42,5.53-1.8,8.33c-0.69,5.05-0.91,10.43-1.06,15.54c-0.16,7.46-0.15,16.37,0.01,23.82
					c0.04,2.89,0.66,14.14,0.38,16.81c-0.13,1.78-0.69,3.63-1.19,5.33c-0.21,0.74-0.38,1.5-0.46,2.27c-0.14,1.25-0.04,3.1-0.02,4.38
					c0.02,1.55-0.03,3.17-0.74,4.58c-0.48,0.97-1.27,1.76-2.18,2.34c-0.68,0.44-1.44,0.78-2.2,1.07c-1.72,0.68-3.97,1.32-5.66,2.08
					c-0.72,0.32-1.43,0.7-2.02,1.23c-0.73,0.65-1.27,1.63-1.13,2.63c0.1,0.75,0.58,1.39,1.24,1.74c0.48,0.27,1.02,0.41,1.56,0.51
					c1,0.18,2.06,0.21,3.08,0.22c1.37-0.04,19.44,0.1,20.35-0.07c0.35-0.05,0.71-0.15,0.99-0.37c0.5-0.4,0.66-1.08,0.75-1.68
					c0.09-0.71,0.06-1.43,0-2.14c-0.16-1.85-0.71-4.07-1.01-5.91c-0.2-1.26-0.14-2.55,0.19-3.79c0.52-2.05,1.33-4.16,1.59-6.27
					c0.21-1.69,0.31-3.74,0.52-5.44c0.26-2.29,0.71-4.63,1.23-6.87c1.9-8.65,6.06-19.1,9.1-27.47c0.86-2.45,1.76-5.08,2.28-7.62
					c0.42-2.01,0.61-4.12,0.71-6.18l0.46-12.22c0.25-4.96,0.71-10.03,2.26-14.77c0.42-1.32,0.95-2.7,1.49-3.97
					c0.68-1.56,1.48-3.36,1.97-4.98c1.49-4.93,2.22-10.24,2.96-15.33"/>
			</g>
			<g id="POLYLINE_461_">
				<path class="st9" d="M187.04,275.6l-5.84,20.5c-3.22,11.82-5.95,24.1-5.48,36.42c0.14,4.3,0.63,8.8,1.21,13.07
					c0.46,3.45,2.02,12.56,2.42,16c0.12,1.05,0.34,3.58,0.51,4.59c0.19,1.19,0.54,2.4,1.32,3.35c0.61,0.75,1.42,1.33,2.27,1.79
					c1.34,0.72,2.82,1.17,4.3,1.5c4.26,0.9,8.7,0.84,13.03,0.67c2.1-0.13,4.55-0.24,6.63-0.5c0.32-0.05,0.65-0.11,0.95-0.22
					c0.33-0.11,0.64-0.28,0.91-0.51c0.34-0.28,0.6-0.64,0.82-1.01c0.62-1.06,1.02-2.27,1.38-3.44c0.64-2.03,1.85-7.38,2.38-9.53
					c1.63-6.51,4.89-17.92,6.4-24.4c0.67-2.81,1.37-6.28,1.89-9.13c0.35-1.87,1.71-10.26,2.14-12.01c0.11-0.44,0.22-0.95,0.42-1.36
					c0.08-0.17,0.19-0.34,0.33-0.47c0.27-0.24,0.64-0.34,1-0.32c0.36,0.01,0.72,0.15,0.99,0.39c0.2,0.19,0.35,0.42,0.47,0.67
					c0.17,0.36,0.28,0.76,0.38,1.15c0.14,0.61,0.24,1.31,0.32,1.94c0.73,6.91,1.85,15.3,2.98,22.14c1.6,9.94,4.57,23.58,6.16,33.54
					c0.06,0.29,0.14,0.57,0.28,0.83c0.11,0.19,0.25,0.37,0.42,0.51c0.24,0.2,0.52,0.35,0.8,0.47c0.49,0.21,1.02,0.36,1.53,0.49
					c1.59,0.38,3.28,0.57,4.91,0.73c2.45,0.23,5.18,0.32,7.65,0.36c2.47,0.02,5.03,0.02,7.48-0.3c1.38-0.19,2.77-0.46,4.04-1.04
					c0.75-0.35,1.45-0.83,1.98-1.47c0.84-1.02,1.27-2.3,1.63-3.55l1.1-4.04c1.72-5.85,3.83-12.59,4.99-18.53
					c0.78-3.87,1.28-7.88,1.48-11.83c0.53-10.52-0.58-21.19-2.01-31.6c-0.58-4.01-1.34-8.27-2.28-12.21
					c-1.09-4.68-2.9-10.57-4.27-15.21"/>
			</g>
			<g id="POLYLINE_443_">
				<path class="st9" d="M204.6,152.01c-0.83,0.09-1.67,0.29-2.47,0.51c-0.54,0.17-2.21,0.6-2.71,0.8c-0.44,0.17-0.88,0.39-1.2,0.75
					c-0.36,0.41-0.53,0.95-0.64,1.48c-0.13,0.61-0.19,1.26-0.24,1.88c-0.14,2-0.38,4.31-0.68,6.29l-2.24,13.87
					c-0.9,6.13-1.59,12.44-1.49,18.64c0.05,7.81,1.78,18.5,2.78,26.32c0.57,4.68,0.81,9.47,0.42,14.17
					c-0.6,7.71-2.65,15.46-4.6,22.91"/>
			</g>
			<g id="POLYLINE_442_">
				<path class="st9" d="M194.69,214.92c-1.93-4.28-3.89-9-5.43-13.43c-0.41-1.22-0.83-2.57-1.15-3.81
					c-0.28-1.06-0.64-2.9-0.87-3.99c-0.13-0.57-0.24-1.18-0.46-1.72c-0.05-0.11-0.1-0.22-0.19-0.31l-0.01-0.01l-0.01-0.01
					l-0.01-0.01l-0.01-0.01l-0.01-0.01l-0.01-0.01l-0.01-0.01h-0.01h-0.01h-0.01h-0.01h-0.01h-0.01h-0.01h-0.01h-0.01h-0.01h-0.01
					h-0.01h-0.01h-0.01h-0.01h-0.01h-0.01h-0.01h-0.01h-0.01h-0.01h-0.01h-0.01h-0.01h-0.01h-0.01h-0.01h-0.01h-0.01h-0.01h-0.01
					h-0.01h-0.01h-0.01h-0.01h-0.01h-0.01h-0.01h-0.01h-0.01h-0.01h-0.01h-0.01h-0.01c-0.07,0.04-0.14,0.1-0.19,0.16
					c-0.11,0.12-0.21,0.26-0.29,0.4c-0.5,0.79-1.16,2.14-1.65,2.94c-0.59,1-1.27,2.02-1.93,2.97c-4.18,5.89-9.58,11.67-14.5,16.99
					c-1.34,1.51-2.88,3.11-4.01,4.77c-0.27,0.41-0.55,0.84-0.64,1.33c-0.04,0.21-0.01,0.43,0.04,0.63c2,5.45,8.01,25.39,9.97,30.87
					c0.68,1.88,1.44,4.08,2.28,5.88c0.44,0.92,0.95,1.85,1.68,2.58c0.33,0.32,0.7,0.6,1.13,0.78c0.36,0.15,0.76,0.23,1.15,0.25
					c1.8,0.06,3.68-0.81,5.35-1.38c1.1-0.38,2.23-0.68,3.38-0.85c2.22-0.31,4.54-0.35,6.78-0.32c1.88,0.05,3.81,0.16,5.66,0.54
					c0.7,0.15,1.41,0.35,2.02,0.72c0.5,0.3,0.89,0.75,1.1,1.29c0.27,0.66,0.34,1.38,0.37,2.08c0.05,1.58-0.16,3.2-0.38,4.76
					c-0.12,0.74-0.22,1.64-0.4,2.36c-0.08,0.33-0.19,0.66-0.36,0.95c-0.14,0.24-0.32,0.46-0.55,0.63c-0.25,0.19-0.54,0.33-0.84,0.43
					c-0.4,0.13-0.82,0.21-1.24,0.28c-1.14,0.17-3.65,0.26-4.83,0.34c-1.18,0.08-2.39,0.23-3.55,0.45c-2.18,0.39-5.33,1.32-7.5,1.84
					c-2.09,0.5-4.28,0.83-6.42,0.52c-2.84-0.39-5.48-1.77-7.67-3.6c-2.09-1.73-3.83-3.87-5.39-6.09c-1.68-2.4-3.28-5.11-4.72-7.67
					c-3.08-5.57-11.8-22.3-14.71-28.04c-0.73-1.51-1.53-3.17-2.15-4.73c-0.38-0.96-0.75-1.97-0.96-2.99
					c-0.19-0.89-0.27-1.81-0.21-2.72c0.07-1.18,0.36-2.34,0.72-3.46c1.01-3.05,2.53-5.96,4.05-8.77c3.16-5.67,6.61-11.5,10.27-16.87
					c0.95-1.36,2.04-2.9,3.07-4.21c0.88-1.12,3.55-4.36,4.4-5.48c1.25-1.62,2.34-3.4,3.25-5.23c1.62-3.31,3.42-7.24,5.61-10.18
					c1.62-2.24,3.49-4.35,5.58-6.16c1.64-1.42,3.45-2.68,5.41-3.62c1.72-0.82,3.57-1.37,5.43-1.75c2.21-0.46,5.16-0.68,7.42-0.93
					c0.19-0.02,0.57-0.05,0.75-0.06"/>
			</g>
			<g id="POLYLINE_441_">
				<path class="st9" d="M262.02,255.52c-1.19-5.35-2.09-10.88-2.38-16.36c-0.2-3.54-0.09-7.18,0.23-10.71
					c0.91-10.18,3.54-21.64,3.28-31.88c-0.06-4.62-0.83-9.25-1.92-13.74c-0.83-3.38-2.81-10.72-3.38-14.03
					c-0.49-2.67-0.83-5.47-1.05-8.18c-0.17-2-0.28-4.96-0.39-6.97c-0.03-0.43-0.06-0.89-0.12-1.32c-0.05-0.35-0.11-0.71-0.26-1.04
					c-0.18-0.41-0.53-0.73-0.89-0.98c-0.62-0.42-1.33-0.74-2.08-0.82"/>
			</g>
			<g id="POLYLINE_440_">
				<path class="st9" d="M262.33,209.65l1.94-3.01c0.89-1.42,1.69-2.92,2.34-4.47c1.05-2.45,2.27-6.84,3.08-9.43
					c0.3-0.92,0.61-1.92,1.04-2.78c0.09-0.16,0.18-0.32,0.3-0.46l0.01-0.01l0.01-0.01l0.01-0.01l0.01-0.01l0.01-0.01l0.01-0.01
					l0.01-0.01l0.01-0.01l0.01-0.01l0.01-0.01l0.01-0.01l0.01-0.01l0.01-0.01l0.01-0.01l0.01-0.01h0.01h0.01h0.01h0.01h0.01h0.01
					h0.01h0.01h0.01h0.01h0.01h0.01h0.01h0.01h0.01h0.01h0.01h0.01h0.01h0.01h0.01h0.01h0.01h0.01h0.01h0.01h0.01h0.01h0.01h0.01
					h0.01h0.01h0.01h0.01h0.01h0.01h0.01h0.01h0.01h0.01h0.01c0.12,0.07,0.2,0.19,0.27,0.31c0.22,0.36,0.5,1.13,0.67,1.53
					c0.25,0.6,0.55,1.21,0.87,1.77c0.59,1.06,1.32,2.12,2.02,3.1c1.28,1.84,16.16,20.75,17.8,22.93c0.3,0.42,0.62,0.86,0.76,1.36
					c0.2,0.73-0.11,1.47-0.37,2.14c-3.92,9.29-7.96,22.27-12.55,31.2c-0.81,1.51-1.69,3.02-2.82,4.32
					c-0.75,0.86-1.64,1.66-2.74,2.02c-1.01,0.34-2.11,0.23-3.12-0.08c-1.79-0.53-3.8-1.84-5.44-2.74c-1.47-0.81-3.04-1.6-4.75-1.72
					c-1.73-0.11-3.41,0.52-4.95,1.24c-0.53,0.25-1.45,0.71-1.98,0.97c-0.39,0.2-0.79,0.41-1.15,0.67c-0.29,0.21-0.56,0.47-0.76,0.77
					c-0.28,0.41-0.42,0.9-0.46,1.39c-0.08,1.18,0.19,2.35,0.51,3.48c0.6,2.02,1.48,3.98,2.58,5.78c0.91,1.48,2.06,2.94,3.71,3.61
					c0.87,0.36,1.82,0.48,2.75,0.51c1.37,0.03,2.97-0.04,4.34,0.05c1.19,0.06,3.86,0.43,5.06,0.58c2.11,0.22,4.32,0.4,6.36-0.27
					c1.32-0.44,2.48-1.24,3.52-2.16c0.75-0.66,1.48-1.43,2.16-2.17c5.13-5.77,11.39-12.03,16.14-18.09
					c3.79-4.79,7.39-10,10.59-15.21c1.98-3.29,3.98-6.74,5.42-10.3c0.55-1.41,1.05-2.89,1.03-4.41c-0.01-0.84-0.18-1.67-0.41-2.47
					c-0.24-0.88-0.59-1.9-0.88-2.77c-1.96-5.68-4.43-11.28-7.72-16.32c-3.1-4.8-7.74-9.78-11.16-14.36
					c-1.13-1.51-2.2-3.14-3.11-4.79c-1.43-2.57-3.21-6.78-4.44-9.47c-1.9-4.11-4.23-8.09-7.22-11.52c-1.98-2.26-4.29-4.3-6.97-5.69
					c-2.94-1.52-6.22-2.25-9.48-2.7c-2.07-0.25-7.79-0.94-9.83-1.1"/>
			</g>
			<g id="POLYLINE_439_">
				<path class="st9" d="M205.32,149.97c-0.54,1.02-0.89,2.19-0.76,3.36c0.11,1.03,0.52,2.22,0.81,3.22
					c0.48,1.57,1.11,3.12,2.06,4.48c0.86,1.26,1.99,2.33,3.22,3.22c1.37,1,2.88,1.84,4.43,2.54c2.83,1.28,5.87,2.19,8.95,2.66
					c4.04,0.62,8.28,0.42,12.11-1.11c1.49-0.59,2.92-1.39,4.2-2.36c2.06-1.56,3.82-3.53,5.33-5.62c1.36-1.9,2.58-3.94,3.52-6.08
					c0.53-1.2,0.92-2.5,1.26-3.76"/>
			</g>
			<g id="POLYLINE_438_">
				<path class="st9" d="M213.03,131.16c0.94,2.76,1.2,5.75,0.86,8.64c-0.3,2.47-1.11,4.95-2.76,6.85
					c-1.72,2.01-4.28,3.34-6.94,3.43c-2.17,0.09-4.29-0.64-6.16-1.69c-0.96-0.56-1.98-1.21-2.69-2.07c-0.2-0.25-0.39-0.55-0.4-0.88
					v-0.01v-0.01v-0.01v-0.01v-0.01v-0.01v-0.01v-0.01v-0.01v-0.01v-0.01v-0.01v-0.01v-0.01v-0.01v-0.01v-0.01v-0.01v-0.01v-0.01
					v-0.01l0.01-0.01l0.01-0.01l0.01-0.01l0.01-0.01l0.01-0.01l0.01-0.01l0.01-0.01l0.01-0.01l0.01-0.01l0.01-0.01l0.01-0.01
					l0.01-0.01l0.01-0.01l0.01-0.01c0.11-0.14,0.26-0.24,0.41-0.33c0.32-0.18,0.67-0.31,1.02-0.44c1.06-0.38,2.35-0.74,3.32-1.31
					c0.5-0.28,0.96-0.64,1.32-1.09c0.42-0.53,0.66-1.18,0.79-1.83c0.24-1.23,0.16-2.5,0.03-3.74c-0.37-3.17-1.21-6.48-1.41-9.67
					c-0.16-2.16,0.13-4.34,0.71-6.42c0.83-3.09,2.4-6.22,2.92-9.38c0.34-2.04,0.16-4.69,0.13-6.76c-0.04-2.39,0.18-4.85,1.1-7.08
					c0.63-1.55,1.56-2.97,2.59-4.28c1.47-1.86,3.19-3.53,5-5.05c2.02-1.68,4.2-3.2,6.5-4.46c1.62-0.87,3.32-1.67,5.12-2.09
					c1.26-0.29,2.57-0.31,3.84-0.07c0.75,0.13,1.8,0.44,2.55,0.55c0.41,0.06,0.83,0.08,1.24,0.07l1.45-0.04
					c0.64-0.01,1.28,0.03,1.9,0.17c0.56,0.12,1.11,0.32,1.63,0.56c1.18,0.55,2.27,1.31,3.27,2.14c1.21,1.01,2.3,2.17,3.28,3.4
					c1.24,1.57,2.32,3.28,3.18,5.09c1.32,2.79,2.2,5.8,2.88,8.81c0.78,3.31,1.67,9.51,2.21,12.95c0.32,2.1,1.16,6.18,1.46,8.27
					c0.4,2.67,0.51,5.43-0.13,8.07c-0.58,2.51-1.83,5.07-2.42,7.57c-0.14,0.67-0.25,1.38-0.1,2.06c0.07,0.29,0.19,0.58,0.39,0.81
					c0.22,0.26,0.51,0.46,0.81,0.62c1.11,0.56,2.52,0.72,3.69,1.13c0.37,0.14,0.78,0.3,1.02,0.64c0.13,0.18,0.17,0.41,0.16,0.63
					c-0.03,0.45-0.23,0.88-0.45,1.27c-0.47,0.81-1.08,1.53-1.71,2.22c-0.71,0.76-1.52,1.44-2.46,1.89c-1.2,0.58-2.56,0.79-3.89,0.82
					c-1.51,0.02-3.04-0.17-4.47-0.68c-0.9-0.33-1.77-0.79-2.44-1.49c-0.96-1-1.39-2.4-1.5-3.76c-0.09-1.04-0.01-2.11,0.16-3.14
					c0.2-1.2,0.64-2.67,0.88-3.87c0.42-2.14,0.31-4.36,0.06-6.51"/>
			</g>
			<g id="POLYLINE_437_">
				<path class="st9" d="M234.67,94.63c-0.11,0.21-0.17,0.45-0.2,0.68c-0.06,0.43-0.05,0.87-0.03,1.31c0.08,1.55,0.26,3.31-0.1,4.83
					c-0.19,0.84-0.55,1.63-1.02,2.35c-0.8,1.2-1.88,2.19-3.06,3c-1.42,0.96-3.02,1.69-4.71,2.03c-1.75,0.38-3.59,0.09-5.35-0.12
					c-1.14-0.12-2.33-0.12-3.41,0.32c-0.95,0.39-1.78,1.02-2.52,1.73c-1.11,1.08-2.02,2.37-2.75,3.73c-0.8,1.52-1.38,3.19-1.51,4.91
					c-0.16,1.93,0.22,3.86,0.77,5.71c0.76,2.43,1.47,4.97,2.89,7.11c1.45,2.22,3.65,3.85,5.97,5.1c3.16,1.65,6.81,2.78,10.39,2.1
					c1.78-0.33,3.47-1.09,4.99-2.07c2.04-1.3,3.84-2.99,5.3-4.92c1.91-2.55,3.26-5.55,3.79-8.69c0.3-1.79,0.3-3.68-0.35-5.39
					c-0.43-1.19-1.13-2.43-1.52-3.63c-0.19-0.58-0.32-1.18-0.36-1.78c-0.08-1.07,0.05-2.15,0.2-3.2c0.37-2.52,1.04-5.42,0.71-7.96
					c-0.15-1.17-0.53-2.3-1.08-3.34c-0.79-1.48-1.9-2.81-3.31-3.73c-0.64-0.41-1.36-0.73-2.13-0.79c-0.33-0.02-0.66,0.01-0.96,0.14
					C235.02,94.17,234.8,94.37,234.67,94.63z"/>
			</g>
		</g>
	</g>
</g>
<g>
	<polygon class="st11" points="334.75,56.07 294.64,56.07 294.64,39.31 334.75,39.31 360.05,56.07 	"/>
	<rect x="294.64" y="41.88" class="st4" width="33.1" height="14.19"/>
	<text transform="matrix(1 0 0 1 300.23 52.8546)" class="st12 st6 st7">1,93</text>
</g>
<g>
	<polygon class="st11" points="187.58,80.85 147.47,80.85 147.47,64.1 187.58,64.1 212.88,80.85 	"/>
	<rect x="147.47" y="66.66" class="st4" width="33.1" height="14.19"/>
	<text transform="matrix(1 0 0 1 153.0601 77.6349)" class="st12 st6 st7">1,83</text>
</g>
<g>
	<polygon class="st13" points="97.64,110.75 57.53,110.75 57.53,93.99 97.64,93.99 122.94,102.37 	"/>
	<rect x="57.53" y="96.56" class="st4" width="33.1" height="14.19"/>
	<text transform="matrix(1 0 0 1 63.1228 107.5333)" class="st12 st6 st7">1,73</text>
</g>
<g>
	<polygon class="st13" points="97.64,134.5 57.53,134.5 57.53,117.74 97.64,117.74 122.94,126.12 	"/>
	<rect x="57.53" y="120.31" class="st4" width="33.1" height="14.19"/>
	<text transform="matrix(1 0 0 1 63.1228 131.2838)" class="st12 st6 st7">1,63</text>
</g>
<rect x="47.59" y="23.48" class="st4" width="80.47" height="37.91"/>
<text transform="matrix(1 0 0 1 47.5862 31.7254)" class="st6 st14">Promedio </text>
<text transform="matrix(1 0 0 1 47.5862 44.7254)" class="st6 st14">hombres en </text>
<text transform="matrix(1 0 0 1 47.5862 57.7254)" class="st6 st14">América</text>
<rect x="169.68" y="521.51" class="st4" width="100.03" height="23.83"/>
<text transform="matrix(1 0 0 1 169.6831 532.6992)" class="st15 st16">Katie Ledecky</text>
<rect x="47.59" y="168.63" class="st4" width="80.47" height="37.91"/>
<text transform="matrix(1 0 0 1 47.5862 176.8839)" class="st6 st14">Promedio </text>
<text transform="matrix(1 0 0 1 47.5862 189.8839)" class="st6 st14">mujeres en </text>
<text transform="matrix(1 0 0 1 47.5862 202.8839)" class="st6 st14">América</text>
<g>
	<g>
		<path class="st17" d="M42.95,173.47c-12.27-0.51-22.06-10.62-22.06-23.02c0-12.72,10.31-23.04,23.04-23.04h8.84"/>
		<g>
			<polygon class="st1" points="40.27,169.51 39.61,170.12 42.61,173.39 39.13,176.14 39.69,176.85 43.93,173.49 			"/>
		</g>
	</g>
</g>
<g>
	<g>
		<path class="st17" d="M52.41,103.9c-21.46,0-38.85-17.4-38.85-38.85c0-18.04,12.29-33.21,28.96-37.58"/>
		<g>
			<polygon class="st1" points="40.47,32.35 39.61,31.83 42.16,27.61 37.76,25.38 38.21,24.49 43.57,27.2 			"/>
		</g>
	</g>
</g>
<g>
	<g>
		<g>
			<rect x="123.34" y="521.51" class="st12" width="37.29" height="23.82"/>
		</g>
		<g>
			<g>
				<rect x="138.24" y="521.51" class="st18" width="22.38" height="1.84"/>
			</g>
			<g>
				<rect x="138.24" y="525.18" class="st18" width="22.38" height="1.84"/>
			</g>
			<g>
				<rect x="138.24" y="528.85" class="st18" width="22.38" height="1.84"/>
			</g>
			<g>
				<rect x="138.24" y="532.5" class="st18" width="22.38" height="1.84"/>
			</g>
			<g>
				<rect x="123.34" y="536.17" class="st18" width="37.29" height="1.84"/>
			</g>
			<g>
				<rect x="123.34" y="539.84" class="st18" width="37.29" height="1.84"/>
			</g>
			<g>
				<rect x="123.34" y="543.5" class="st18" width="37.29" height="1.84"/>
			</g>
		</g>
		<g>
			<rect x="123.33" y="521.51" class="st19" width="14.92" height="12.83"/>
		</g>
		<g>
			<g>
				<polygon class="st12" points="124.55,522.01 124.41,522.51 123.97,522.51 124.32,522.82 124.19,523.33 124.53,523.02 
					124.89,523.33 124.76,522.82 125.11,522.51 124.67,522.51 				"/>
			</g>
			<g>
				<polygon class="st12" points="127.04,522.01 126.91,522.51 126.47,522.51 126.82,522.82 126.68,523.33 127.04,523.02 
					127.39,523.33 127.26,522.82 127.62,522.51 127.18,522.51 				"/>
			</g>
			<g>
				<polygon class="st12" points="129.54,522.01 129.41,522.51 128.97,522.51 129.33,522.82 129.2,523.33 129.54,523.02 
					129.89,523.33 129.77,522.82 130.11,522.51 129.68,522.51 				"/>
			</g>
			<g>
				<polygon class="st12" points="132.04,522.01 131.9,522.51 131.47,522.51 131.83,522.82 131.69,523.33 132.04,523.02 
					132.4,523.33 132.27,522.82 132.61,522.51 132.18,522.51 				"/>
			</g>
			<g>
				<polygon class="st12" points="134.54,522.01 134.42,522.51 133.97,522.51 134.33,522.82 134.19,523.33 134.54,523.02 
					134.9,523.33 134.76,522.82 135.11,522.51 134.68,522.51 				"/>
			</g>
			<g>
				<polygon class="st12" points="137.05,522.01 136.91,522.51 136.48,522.51 136.83,522.82 136.69,523.33 137.04,523.02 
					137.4,523.33 137.26,522.82 137.62,522.51 137.18,522.51 				"/>
			</g>
			<g>
				<polygon class="st12" points="125.79,523.33 125.65,523.83 125.22,523.83 125.58,524.14 125.44,524.65 125.79,524.34 
					126.15,524.65 126.01,524.14 126.36,523.83 125.93,523.83 				"/>
			</g>
			<g>
				<polygon class="st12" points="128.29,523.33 128.15,523.83 127.72,523.83 128.08,524.14 127.94,524.65 128.29,524.34 
					128.65,524.65 128.51,524.14 128.86,523.83 128.42,523.83 				"/>
			</g>
			<g>
				<polygon class="st12" points="130.8,523.33 130.66,523.83 130.23,523.83 130.57,524.14 130.44,524.65 130.79,524.34 
					131.15,524.65 131.01,524.14 131.36,523.83 130.92,523.83 				"/>
			</g>
			<g>
				<polygon class="st12" points="133.3,523.33 133.16,523.83 132.73,523.83 133.07,524.14 132.94,524.65 133.3,524.34 
					133.65,524.65 133.51,524.14 133.87,523.83 133.43,523.83 				"/>
			</g>
			<g>
				<polygon class="st12" points="135.8,523.33 135.66,523.83 135.22,523.83 135.57,524.14 135.45,524.65 135.8,524.34 
					136.14,524.65 136.02,524.14 136.37,523.83 135.93,523.83 				"/>
			</g>
			<g>
				<polygon class="st12" points="124.55,524.63 124.41,525.14 123.97,525.14 124.32,525.45 124.19,525.95 124.53,525.64 
					124.89,525.95 124.76,525.45 125.11,525.14 124.67,525.14 				"/>
			</g>
			<g>
				<polygon class="st12" points="129.54,524.63 129.41,525.14 128.97,525.14 129.33,525.45 129.2,525.95 129.54,525.64 
					129.89,525.95 129.77,525.45 130.11,525.14 129.68,525.14 				"/>
			</g>
			<g>
				<polygon class="st12" points="132.04,524.63 131.9,525.14 131.47,525.14 131.83,525.45 131.69,525.95 132.04,525.64 
					132.4,525.95 132.27,525.45 132.61,525.14 132.18,525.14 				"/>
			</g>
			<g>
				<polygon class="st12" points="134.54,524.63 134.42,525.14 133.97,525.14 134.33,525.45 134.19,525.95 134.54,525.64 
					134.9,525.95 134.76,525.45 135.11,525.14 134.68,525.14 				"/>
			</g>
			<g>
				<polygon class="st12" points="137.05,524.63 136.91,525.14 136.48,525.14 136.83,525.45 136.69,525.95 137.04,525.64 
					137.4,525.95 137.26,525.45 137.62,525.14 137.18,525.14 				"/>
			</g>
			<g>
				<polygon class="st12" points="125.79,525.95 125.65,526.46 125.22,526.46 125.58,526.77 125.44,527.27 125.79,526.96 
					126.15,527.27 126.01,526.77 126.36,526.46 125.93,526.46 				"/>
			</g>
			<g>
				<polygon class="st12" points="128.29,525.95 128.15,526.46 127.72,526.46 128.08,526.77 127.94,527.27 128.29,526.96 
					128.65,527.27 128.51,526.77 128.86,526.46 128.42,526.46 				"/>
			</g>
			<g>
				<polygon class="st12" points="130.8,525.95 130.66,526.46 130.23,526.46 130.57,526.77 130.44,527.27 130.79,526.96 
					131.15,527.27 131.01,526.77 131.36,526.46 130.92,526.46 				"/>
			</g>
			<g>
				<polygon class="st12" points="133.3,525.95 133.16,526.46 132.73,526.46 133.07,526.77 132.94,527.27 133.3,526.96 
					133.65,527.27 133.51,526.77 133.87,526.46 133.43,526.46 				"/>
			</g>
			<g>
				<polygon class="st12" points="135.8,525.95 135.66,526.46 135.22,526.46 135.57,526.77 135.45,527.27 135.8,526.96 
					136.14,527.27 136.02,526.77 136.37,526.46 135.93,526.46 				"/>
			</g>
			<g>
				<polygon class="st12" points="124.55,527.27 124.41,527.77 123.97,527.77 124.32,528.08 124.19,528.59 124.53,528.28 
					124.89,528.59 124.76,528.08 125.11,527.77 124.67,527.77 				"/>
			</g>
			<g>
				<polygon class="st12" points="127.04,527.27 126.91,527.77 126.47,527.77 126.82,528.08 126.68,528.59 127.04,528.28 
					127.39,528.59 127.26,528.08 127.62,527.77 127.18,527.77 				"/>
			</g>
			<g>
				<polygon class="st12" points="129.54,527.27 129.41,527.77 128.97,527.77 129.33,528.08 129.2,528.59 129.54,528.28 
					129.89,528.59 129.77,528.08 130.11,527.77 129.68,527.77 				"/>
			</g>
			<g>
				<polygon class="st12" points="132.04,527.27 131.9,527.77 131.47,527.77 131.83,528.08 131.69,528.59 132.04,528.28 
					132.4,528.59 132.27,528.08 132.61,527.77 132.18,527.77 				"/>
			</g>
			<g>
				<polygon class="st12" points="134.54,527.27 134.42,527.77 133.97,527.77 134.33,528.08 134.19,528.59 134.54,528.28 
					134.9,528.59 134.76,528.08 135.11,527.77 134.68,527.77 				"/>
			</g>
			<g>
				<polygon class="st12" points="137.05,527.27 136.91,527.77 136.48,527.77 136.83,528.08 136.69,528.59 137.04,528.28 
					137.4,528.59 137.26,528.08 137.62,527.77 137.18,527.77 				"/>
			</g>
			<g>
				<polygon class="st12" points="125.79,528.59 125.65,529.08 125.22,529.08 125.58,529.4 125.44,529.89 125.79,529.59 
					126.15,529.9 126.01,529.4 126.36,529.08 125.93,529.08 				"/>
			</g>
			<g>
				<polygon class="st12" points="128.29,528.59 128.15,529.08 127.72,529.08 128.08,529.4 127.94,529.89 128.29,529.59 
					128.65,529.9 128.51,529.4 128.86,529.08 128.42,529.08 				"/>
			</g>
			<g>
				<polygon class="st12" points="130.8,528.59 130.66,529.08 130.23,529.08 130.57,529.4 130.44,529.89 130.79,529.59 
					131.15,529.9 131.01,529.4 131.36,529.08 130.92,529.08 				"/>
			</g>
			<g>
				<polygon class="st12" points="133.3,528.59 133.16,529.08 132.73,529.08 133.07,529.4 132.94,529.89 133.3,529.59 133.65,529.9 
					133.51,529.4 133.87,529.08 133.43,529.08 				"/>
			</g>
			<g>
				<polygon class="st12" points="124.55,529.89 124.41,530.4 123.97,530.4 124.32,530.71 124.19,531.21 124.53,530.9 
					124.89,531.21 124.76,530.71 125.11,530.4 124.67,530.4 				"/>
			</g>
			<g>
				<polygon class="st12" points="127.04,529.89 126.91,530.4 126.47,530.4 126.82,530.71 126.68,531.21 127.04,530.9 
					127.39,531.21 127.26,530.71 127.62,530.4 127.18,530.4 				"/>
			</g>
			<g>
				<polygon class="st12" points="129.54,529.89 129.41,530.4 128.97,530.4 129.33,530.71 129.2,531.21 129.54,530.9 129.89,531.21 
					129.77,530.71 130.11,530.4 129.68,530.4 				"/>
			</g>
			<g>
				<polygon class="st12" points="132.04,529.89 131.9,530.4 131.47,530.4 131.83,530.71 131.69,531.21 132.04,530.9 132.4,531.21 
					132.27,530.71 132.61,530.4 132.18,530.4 				"/>
			</g>
			<g>
				<polygon class="st12" points="134.54,529.89 134.42,530.4 133.97,530.4 134.33,530.71 134.19,531.21 134.54,530.9 134.9,531.21 
					134.76,530.71 135.11,530.4 134.68,530.4 				"/>
			</g>
			<g>
				<polygon class="st12" points="137.05,529.89 136.91,530.4 136.48,530.4 136.83,530.71 136.69,531.21 137.04,530.9 137.4,531.21 
					137.26,530.71 137.62,530.4 137.18,530.4 				"/>
			</g>
			<g>
				<polygon class="st12" points="125.79,531.21 125.65,531.72 125.22,531.72 125.58,532.03 125.44,532.53 125.79,532.22 
					126.15,532.53 126.01,532.03 126.36,531.72 125.93,531.72 				"/>
			</g>
			<g>
				<polygon class="st12" points="128.29,531.21 128.15,531.72 127.72,531.72 128.08,532.03 127.94,532.53 128.29,532.22 
					128.65,532.53 128.51,532.03 128.86,531.72 128.42,531.72 				"/>
			</g>
			<g>
				<polygon class="st12" points="130.8,531.21 130.66,531.72 130.23,531.72 130.57,532.03 130.44,532.53 130.79,532.22 
					131.15,532.53 131.01,532.03 131.36,531.72 130.92,531.72 				"/>
			</g>
			<g>
				<polygon class="st12" points="133.3,531.21 133.16,531.72 132.73,531.72 133.07,532.03 132.94,532.53 133.3,532.22 
					133.65,532.53 133.51,532.03 133.87,531.72 133.43,531.72 				"/>
			</g>
			<g>
				<polygon class="st12" points="135.8,531.21 135.66,531.72 135.22,531.72 135.57,532.03 135.45,532.53 135.8,532.22 
					136.14,532.53 136.02,532.03 136.37,531.72 135.93,531.72 				"/>
			</g>
			<g>
				<polygon class="st12" points="124.55,532.53 124.41,533.03 123.97,533.03 124.32,533.34 124.19,533.85 124.53,533.53 
					124.89,533.85 124.76,533.34 125.11,533.03 124.67,533.03 				"/>
			</g>
			<g>
				<polygon class="st12" points="127.04,532.53 126.91,533.03 126.47,533.03 126.82,533.34 126.68,533.85 127.04,533.53 
					127.39,533.85 127.26,533.34 127.62,533.03 127.18,533.03 				"/>
			</g>
			<g>
				<polygon class="st12" points="129.54,532.53 129.41,533.03 128.97,533.03 129.33,533.34 129.2,533.85 129.54,533.53 
					129.89,533.85 129.77,533.34 130.11,533.03 129.68,533.03 				"/>
			</g>
			<g>
				<polygon class="st12" points="132.04,532.53 131.9,533.03 131.47,533.03 131.83,533.34 131.69,533.85 132.04,533.53 
					132.4,533.85 132.27,533.34 132.61,533.03 132.18,533.03 				"/>
			</g>
			<g>
				<polygon class="st12" points="134.54,532.53 134.42,533.03 133.97,533.03 134.33,533.34 134.19,533.85 134.54,533.53 
					134.9,533.85 134.76,533.34 135.11,533.03 134.68,533.03 				"/>
			</g>
			<g>
				<polygon class="st12" points="137.05,532.53 136.91,533.03 136.48,533.03 136.83,533.34 136.69,533.85 137.04,533.53 
					137.4,533.85 137.26,533.34 137.62,533.03 137.18,533.03 				"/>
			</g>
			<g>
				<polygon class="st12" points="127.04,524.62 126.91,525.13 126.47,525.13 126.82,525.44 126.68,525.94 127.04,525.64 
					127.39,525.94 127.26,525.44 127.62,525.13 127.18,525.13 				"/>
			</g>
			<g>
				<polygon class="st12" points="135.8,528.59 135.66,529.08 135.22,529.08 135.57,529.4 135.45,529.89 135.8,529.59 136.14,529.9 
					136.01,529.4 136.37,529.08 135.93,529.08 				"/>
			</g>
		</g>
	</g>
</g>
<g>
	<rect x="353.56" y="521.51" class="st4" width="133.99" height="23.83"/>
	<text transform="matrix(1 0 0 1 353.5625 532.6992)" class="st15 st16">Michael Phelps</text>
</g>
<g>
	<g>
		<g>
			<rect x="307.22" y="521.51" class="st12" width="37.29" height="23.82"/>
		</g>
		<g>
			<g>
				<rect x="322.12" y="521.51" class="st18" width="22.38" height="1.84"/>
			</g>
			<g>
				<rect x="322.12" y="525.18" class="st18" width="22.38" height="1.84"/>
			</g>
			<g>
				<rect x="322.12" y="528.85" class="st18" width="22.38" height="1.84"/>
			</g>
			<g>
				<rect x="322.12" y="532.5" class="st18" width="22.38" height="1.84"/>
			</g>
			<g>
				<rect x="307.22" y="536.17" class="st18" width="37.29" height="1.84"/>
			</g>
			<g>
				<rect x="307.22" y="539.84" class="st18" width="37.29" height="1.84"/>
			</g>
			<g>
				<rect x="307.22" y="543.5" class="st18" width="37.29" height="1.84"/>
			</g>
		</g>
		<g>
			<rect x="307.22" y="521.51" class="st19" width="14.92" height="12.83"/>
		</g>
		<g>
			<g>
				<polygon class="st12" points="308.42,522.01 308.29,522.51 307.85,522.51 308.2,522.82 308.06,523.33 308.42,523.02 
					308.77,523.33 308.63,522.82 309,522.51 308.55,522.51 				"/>
			</g>
			<g>
				<polygon class="st12" points="310.92,522.01 310.79,522.51 310.35,522.51 310.7,522.82 310.57,523.33 310.92,523.02 
					311.27,523.33 311.15,522.82 311.49,522.51 311.06,522.51 				"/>
			</g>
			<g>
				<polygon class="st12" points="313.42,522.01 313.28,522.51 312.85,522.51 313.21,522.82 313.07,523.33 313.42,523.02 
					313.77,523.33 313.64,522.82 313.99,522.51 313.56,522.51 				"/>
			</g>
			<g>
				<polygon class="st12" points="315.92,522.01 315.79,522.51 315.35,522.51 315.71,522.82 315.57,523.33 315.92,523.02 
					316.28,523.33 316.14,522.82 316.49,522.51 316.06,522.51 				"/>
			</g>
			<g>
				<polygon class="st12" points="318.43,522.01 318.29,522.51 317.86,522.51 318.21,522.82 318.07,523.33 318.42,523.02 
					318.78,523.33 318.64,522.82 319,522.51 318.55,522.51 				"/>
			</g>
			<g>
				<polygon class="st12" points="320.93,522.01 320.79,522.51 320.36,522.51 320.71,522.82 320.57,523.33 320.93,523.02 
					321.28,523.33 321.14,522.82 321.5,522.51 321.07,522.51 				"/>
			</g>
			<g>
				<polygon class="st12" points="309.67,523.33 309.53,523.83 309.09,523.83 309.46,524.14 309.32,524.65 309.67,524.34 
					310.03,524.65 309.89,524.14 310.24,523.83 309.8,523.83 				"/>
			</g>
			<g>
				<polygon class="st12" points="312.18,523.33 312.04,523.83 311.61,523.83 311.95,524.14 311.82,524.65 312.17,524.34 
					312.53,524.65 312.39,524.14 312.74,523.83 312.3,523.83 				"/>
			</g>
			<g>
				<polygon class="st12" points="314.68,523.33 314.54,523.83 314.1,523.83 314.45,524.14 314.32,524.65 314.68,524.34 
					315.02,524.65 314.89,524.14 315.25,523.83 314.81,523.83 				"/>
			</g>
			<g>
				<polygon class="st12" points="317.17,523.33 317.04,523.83 316.6,523.83 316.95,524.14 316.83,524.65 317.17,524.34 
					317.52,524.65 317.39,524.14 317.75,523.83 317.31,523.83 				"/>
			</g>
			<g>
				<polygon class="st12" points="319.67,523.33 319.54,523.83 319.1,523.83 319.46,524.14 319.33,524.65 319.67,524.34 
					320.03,524.65 319.9,524.14 320.25,523.83 319.81,523.83 				"/>
			</g>
			<g>
				<polygon class="st12" points="308.42,524.63 308.29,525.14 307.85,525.14 308.2,525.45 308.06,525.95 308.42,525.64 
					308.77,525.95 308.63,525.45 309,525.14 308.55,525.14 				"/>
			</g>
			<g>
				<polygon class="st12" points="313.42,524.63 313.28,525.14 312.85,525.14 313.21,525.45 313.07,525.95 313.42,525.64 
					313.77,525.95 313.64,525.45 313.99,525.14 313.56,525.14 				"/>
			</g>
			<g>
				<polygon class="st12" points="315.92,524.63 315.79,525.14 315.35,525.14 315.71,525.45 315.57,525.95 315.92,525.64 
					316.28,525.95 316.14,525.45 316.49,525.14 316.06,525.14 				"/>
			</g>
			<g>
				<polygon class="st12" points="318.43,524.63 318.29,525.14 317.86,525.14 318.21,525.45 318.07,525.95 318.42,525.64 
					318.78,525.95 318.64,525.45 319,525.14 318.55,525.14 				"/>
			</g>
			<g>
				<polygon class="st12" points="320.93,524.63 320.79,525.14 320.36,525.14 320.71,525.45 320.57,525.95 320.93,525.64 
					321.28,525.95 321.14,525.45 321.5,525.14 321.07,525.14 				"/>
			</g>
			<g>
				<polygon class="st12" points="309.67,525.95 309.53,526.46 309.09,526.46 309.46,526.77 309.32,527.27 309.67,526.96 
					310.03,527.27 309.89,526.77 310.24,526.46 309.8,526.46 				"/>
			</g>
			<g>
				<polygon class="st12" points="312.18,525.95 312.04,526.46 311.61,526.46 311.95,526.77 311.82,527.27 312.17,526.96 
					312.53,527.27 312.39,526.77 312.74,526.46 312.3,526.46 				"/>
			</g>
			<g>
				<polygon class="st12" points="314.68,525.95 314.54,526.46 314.1,526.46 314.45,526.77 314.32,527.27 314.68,526.96 
					315.02,527.27 314.89,526.77 315.25,526.46 314.81,526.46 				"/>
			</g>
			<g>
				<polygon class="st12" points="317.17,525.95 317.04,526.46 316.6,526.46 316.95,526.77 316.83,527.27 317.17,526.96 
					317.52,527.27 317.39,526.77 317.75,526.46 317.31,526.46 				"/>
			</g>
			<g>
				<polygon class="st12" points="319.67,525.95 319.54,526.46 319.1,526.46 319.46,526.77 319.33,527.27 319.67,526.96 
					320.03,527.27 319.9,526.77 320.25,526.46 319.81,526.46 				"/>
			</g>
			<g>
				<polygon class="st12" points="308.42,527.27 308.29,527.77 307.85,527.77 308.2,528.08 308.06,528.59 308.42,528.28 
					308.77,528.59 308.63,528.08 309,527.77 308.55,527.77 				"/>
			</g>
			<g>
				<polygon class="st12" points="310.92,527.27 310.79,527.77 310.35,527.77 310.7,528.08 310.57,528.59 310.92,528.28 
					311.27,528.59 311.15,528.08 311.49,527.77 311.06,527.77 				"/>
			</g>
			<g>
				<polygon class="st12" points="313.42,527.27 313.28,527.77 312.85,527.77 313.21,528.08 313.07,528.59 313.42,528.28 
					313.77,528.59 313.64,528.08 313.99,527.77 313.56,527.77 				"/>
			</g>
			<g>
				<polygon class="st12" points="315.92,527.27 315.79,527.77 315.35,527.77 315.71,528.08 315.57,528.59 315.92,528.28 
					316.28,528.59 316.14,528.08 316.49,527.77 316.06,527.77 				"/>
			</g>
			<g>
				<polygon class="st12" points="318.43,527.27 318.29,527.77 317.86,527.77 318.21,528.08 318.07,528.59 318.42,528.28 
					318.78,528.59 318.64,528.08 319,527.77 318.55,527.77 				"/>
			</g>
			<g>
				<polygon class="st12" points="320.93,527.27 320.79,527.77 320.36,527.77 320.71,528.08 320.57,528.59 320.93,528.28 
					321.28,528.59 321.14,528.08 321.5,527.77 321.07,527.77 				"/>
			</g>
			<g>
				<polygon class="st12" points="309.67,528.59 309.53,529.08 309.09,529.08 309.46,529.4 309.32,529.89 309.67,529.59 
					310.03,529.9 309.89,529.4 310.24,529.08 309.8,529.08 				"/>
			</g>
			<g>
				<polygon class="st12" points="312.18,528.59 312.04,529.08 311.61,529.08 311.95,529.4 311.82,529.89 312.17,529.59 
					312.53,529.9 312.39,529.4 312.74,529.08 312.3,529.08 				"/>
			</g>
			<g>
				<polygon class="st12" points="314.68,528.59 314.54,529.08 314.1,529.08 314.45,529.4 314.32,529.89 314.68,529.59 
					315.02,529.9 314.89,529.4 315.25,529.08 314.81,529.08 				"/>
			</g>
			<g>
				<polygon class="st12" points="317.17,528.59 317.04,529.08 316.6,529.08 316.95,529.4 316.83,529.89 317.17,529.59 
					317.52,529.9 317.39,529.4 317.75,529.08 317.31,529.08 				"/>
			</g>
			<g>
				<polygon class="st12" points="308.42,529.89 308.29,530.4 307.85,530.4 308.2,530.71 308.06,531.21 308.42,530.9 308.77,531.21 
					308.63,530.71 309,530.4 308.55,530.4 				"/>
			</g>
			<g>
				<polygon class="st12" points="310.92,529.89 310.79,530.4 310.35,530.4 310.7,530.71 310.57,531.21 310.92,530.9 311.27,531.21 
					311.15,530.71 311.49,530.4 311.06,530.4 				"/>
			</g>
			<g>
				<polygon class="st12" points="313.42,529.89 313.28,530.4 312.85,530.4 313.21,530.71 313.07,531.21 313.42,530.9 
					313.77,531.21 313.64,530.71 313.99,530.4 313.56,530.4 				"/>
			</g>
			<g>
				<polygon class="st12" points="315.92,529.89 315.79,530.4 315.35,530.4 315.71,530.71 315.57,531.21 315.92,530.9 
					316.28,531.21 316.14,530.71 316.49,530.4 316.06,530.4 				"/>
			</g>
			<g>
				<polygon class="st12" points="318.43,529.89 318.29,530.4 317.86,530.4 318.21,530.71 318.07,531.21 318.42,530.9 
					318.78,531.21 318.64,530.71 319,530.4 318.55,530.4 				"/>
			</g>
			<g>
				<polygon class="st12" points="320.93,529.89 320.79,530.4 320.36,530.4 320.71,530.71 320.57,531.21 320.93,530.9 
					321.28,531.21 321.14,530.71 321.5,530.4 321.07,530.4 				"/>
			</g>
			<g>
				<polygon class="st12" points="309.67,531.21 309.53,531.72 309.09,531.72 309.46,532.03 309.32,532.53 309.67,532.22 
					310.03,532.53 309.89,532.03 310.24,531.72 309.8,531.72 				"/>
			</g>
			<g>
				<polygon class="st12" points="312.18,531.21 312.04,531.72 311.61,531.72 311.95,532.03 311.82,532.53 312.17,532.22 
					312.53,532.53 312.39,532.03 312.74,531.72 312.3,531.72 				"/>
			</g>
			<g>
				<polygon class="st12" points="314.68,531.21 314.54,531.72 314.1,531.72 314.45,532.03 314.32,532.53 314.68,532.22 
					315.02,532.53 314.89,532.03 315.25,531.72 314.81,531.72 				"/>
			</g>
			<g>
				<polygon class="st12" points="317.17,531.21 317.04,531.72 316.6,531.72 316.95,532.03 316.83,532.53 317.17,532.22 
					317.52,532.53 317.39,532.03 317.75,531.72 317.31,531.72 				"/>
			</g>
			<g>
				<polygon class="st12" points="319.67,531.21 319.54,531.72 319.1,531.72 319.46,532.03 319.33,532.53 319.67,532.22 
					320.03,532.53 319.9,532.03 320.25,531.72 319.81,531.72 				"/>
			</g>
			<g>
				<polygon class="st12" points="308.42,532.53 308.29,533.03 307.85,533.03 308.2,533.34 308.06,533.85 308.42,533.53 
					308.77,533.85 308.63,533.34 309,533.03 308.55,533.03 				"/>
			</g>
			<g>
				<polygon class="st12" points="310.92,532.53 310.79,533.03 310.35,533.03 310.7,533.34 310.57,533.85 310.92,533.53 
					311.27,533.85 311.15,533.34 311.49,533.03 311.06,533.03 				"/>
			</g>
			<g>
				<polygon class="st12" points="313.42,532.53 313.28,533.03 312.85,533.03 313.21,533.34 313.07,533.85 313.42,533.53 
					313.77,533.85 313.64,533.34 313.99,533.03 313.56,533.03 				"/>
			</g>
			<g>
				<polygon class="st12" points="315.92,532.53 315.79,533.03 315.35,533.03 315.71,533.34 315.57,533.85 315.92,533.53 
					316.28,533.85 316.14,533.34 316.49,533.03 316.06,533.03 				"/>
			</g>
			<g>
				<polygon class="st12" points="318.43,532.53 318.29,533.03 317.86,533.03 318.21,533.34 318.07,533.85 318.42,533.53 
					318.78,533.85 318.64,533.34 319,533.03 318.55,533.03 				"/>
			</g>
			<g>
				<polygon class="st12" points="320.93,532.53 320.79,533.03 320.36,533.03 320.71,533.34 320.57,533.85 320.93,533.53 
					321.28,533.85 321.14,533.34 321.5,533.03 321.07,533.03 				"/>
			</g>
			<g>
				<polygon class="st12" points="310.92,524.62 310.79,525.13 310.35,525.13 310.7,525.44 310.57,525.94 310.92,525.64 
					311.27,525.94 311.15,525.44 311.49,525.13 311.06,525.13 				"/>
			</g>
			<g>
				<polygon class="st12" points="319.67,528.59 319.54,529.08 319.1,529.08 319.46,529.4 319.33,529.89 319.67,529.59 
					320.02,529.9 319.9,529.4 320.25,529.08 319.81,529.08 				"/>
			</g>
		</g>
	</g>
</g>
</svg>
