<?xml version="1.0" encoding="utf-8"?>
<!-- Generator: Adobe Illustrator 27.3.1, SVG Export Plug-In . SVG Version: 6.00 Build 0)  -->
<svg version="1.1" id="Capa_1" xmlns="http://www.w3.org/2000/svg" xmlns:xlink="http://www.w3.org/1999/xlink" x="0px" y="0px"
	 viewBox="0 0 500 500" style="enable-background:new 0 0 500 500;" xml:space="preserve">
<style type="text/css">
	.st0{fill:none;stroke:#1D1E1C;stroke-width:0.7727;stroke-miterlimit:10;}
	.st1{fill:#1D1E1C;}
	.st2{fill:none;stroke:#1D1E1C;stroke-width:0.7727;stroke-miterlimit:10;stroke-dasharray:2.4727,3.2969;}
	.st3{fill:none;stroke:#1D1E1C;stroke-width:0.7727;stroke-miterlimit:10;stroke-dasharray:2.4727,3.297;}
	.st4{fill:none;}
	.st5{fill:#1D1D1B;}
	.st6{font-family:'Roboto-Regular';}
	.st7{font-size:16px;}
	.st8{fill:#DD6F53;}
	.st9{fill:none;stroke:#FFFFFF;stroke-width:1.6255;stroke-linecap:round;stroke-linejoin:round;stroke-miterlimit:10;}
	.st10{fill:#F2C5C1;}
	.st11{fill:#FF0000;}
	.st12{fill:#FFFFFF;}
	.st13{fill:#727272;}
	.st14{font-family:'Roboto-Bold';}
	.st15{fill:none;stroke:#1D1E1C;stroke-miterlimit:10;}
	.st16{fill:#4B4B4B;}
	.st17{fill:#191919;}
</style>
<g>
	<g>
		<g>
			<g>
				<g>
					<line class="st0" x1="107.1" y1="40.5" x2="392.9" y2="40.5"/>
					<g>
						<rect x="106.7" y="38.3" class="st1" width="0.7" height="4.4"/>
					</g>
					<g>
						<rect x="392.6" y="38.3" class="st1" width="0.7" height="4.4"/>
					</g>
				</g>
			</g>
			<g>
				<g>
					<line class="st0" x1="107.1" y1="80.5" x2="108.2" y2="80.5"/>
					<line class="st2" x1="111.1" y1="80.5" x2="390.4" y2="80.4"/>
					<line class="st0" x1="391.8" y1="80.4" x2="392.9" y2="80.4"/>
					<g>
						<rect x="106.7" y="78.3" class="st1" width="0.7" height="4.4"/>
					</g>
					<g>
						<rect x="392.6" y="78.2" class="st1" width="0.7" height="4.4"/>
					</g>
				</g>
			</g>
			<g>
				<g>
					<line class="st0" x1="107.1" y1="120.6" x2="108.2" y2="120.6"/>
					<line class="st2" x1="111.1" y1="120.6" x2="390.4" y2="120.3"/>
					<line class="st0" x1="391.8" y1="120.3" x2="392.9" y2="120.3"/>
					<g>
						<rect x="106.7" y="118.4" class="st1" width="0.7" height="4.4"/>
					</g>
					<g>
						<rect x="392.6" y="118.1" class="st1" width="0.7" height="4.4"/>
					</g>
				</g>
			</g>
			<g>
				<g>
					<line class="st0" x1="107.1" y1="160.7" x2="108.2" y2="160.7"/>
					<line class="st2" x1="111.1" y1="160.7" x2="390.4" y2="160.3"/>
					<line class="st0" x1="391.8" y1="160.3" x2="392.9" y2="160.3"/>
					<g>
						
							<rect x="106.7" y="158.5" transform="matrix(1 -1.481066e-03 1.481066e-03 1 -0.2379 0.1587)" class="st1" width="0.7" height="4.4"/>
					</g>
					<g>
						
							<rect x="392.6" y="158" transform="matrix(1 -1.461291e-03 1.461291e-03 1 -0.2338 0.5744)" class="st1" width="0.7" height="4.4"/>
					</g>
				</g>
			</g>
			<g>
				<g>
					<line class="st0" x1="107.1" y1="200.7" x2="108.2" y2="200.7"/>
					<line class="st2" x1="111.1" y1="200.7" x2="390.4" y2="200.2"/>
					<line class="st0" x1="391.8" y1="200.2" x2="392.9" y2="200.2"/>
					<g>
						
							<rect x="106.7" y="198.5" transform="matrix(1 -1.974751e-03 1.974751e-03 1 -0.3962 0.2118)" class="st1" width="0.7" height="4.4"/>
					</g>
					<g>
						
							<rect x="392.6" y="198" transform="matrix(1 -1.954965e-03 1.954965e-03 1 -0.3906 0.7685)" class="st1" width="0.7" height="4.4"/>
					</g>
				</g>
			</g>
			<g>
				<g>
					<line class="st0" x1="107.1" y1="240.8" x2="392.9" y2="240.1"/>
					<g>
						
							<rect x="106.7" y="238.6" transform="matrix(1 -2.448684e-03 2.448684e-03 1 -0.5893 0.2629)" class="st1" width="0.7" height="4.4"/>
					</g>
					<g>
						
							<rect x="392.6" y="237.9" transform="matrix(1 -2.448732e-03 2.448732e-03 1 -0.5868 0.9629)" class="st1" width="0.7" height="4.4"/>
					</g>
				</g>
			</g>
			<g>
				<g>
					<line class="st0" x1="107.1" y1="280.9" x2="108.2" y2="280.9"/>
					<line class="st2" x1="111.1" y1="280.9" x2="390.4" y2="280"/>
					<line class="st0" x1="391.8" y1="280" x2="392.9" y2="280"/>
					<g>
						
							<rect x="106.7" y="278.7" transform="matrix(1 -2.962105e-03 2.962105e-03 1 -0.8315 0.3183)" class="st1" width="0.7" height="4.4"/>
					</g>
					<g>
						
							<rect x="392.6" y="277.8" transform="matrix(1 -2.922552e-03 2.922552e-03 1 -0.8167 1.1496)" class="st1" width="0.7" height="4.4"/>
					</g>
				</g>
			</g>
			<g>
				<g>
					<line class="st0" x1="107.1" y1="320.9" x2="108.2" y2="320.9"/>
					<line class="st2" x1="111.1" y1="320.9" x2="390.4" y2="320"/>
					<line class="st0" x1="391.8" y1="320" x2="392.9" y2="320"/>
					<g>
						
							<rect x="106.7" y="318.7" transform="matrix(1 -3.436026e-03 3.436026e-03 1 -1.1021 0.3697)" class="st1" width="0.7" height="4.4"/>
					</g>
					<g>
						
							<rect x="392.6" y="317.7" transform="matrix(1 -3.436094e-03 3.436094e-03 1 -1.0971 1.352)" class="st1" width="0.7" height="4.4"/>
					</g>
				</g>
			</g>
			<g>
				<g>
					<line class="st0" x1="107.1" y1="361" x2="108.2" y2="361"/>
					<line class="st3" x1="111.1" y1="361" x2="390.4" y2="359.9"/>
					<line class="st0" x1="391.8" y1="359.9" x2="392.9" y2="359.9"/>
					<g>
						
							<rect x="106.7" y="358.8" transform="matrix(1 -3.949432e-03 3.949432e-03 1 -1.425 0.4256)" class="st1" width="0.7" height="4.4"/>
					</g>
					<g>
						
							<rect x="392.6" y="357.7" transform="matrix(1 -3.949510e-03 3.949510e-03 1 -1.4183 1.5547)" class="st1" width="0.7" height="4.4"/>
					</g>
				</g>
			</g>
			<g>
				<g>
					<line class="st0" x1="107.1" y1="401.1" x2="108.2" y2="401.1"/>
					<line class="st3" x1="111.1" y1="401.1" x2="390.4" y2="399.8"/>
					<line class="st0" x1="391.8" y1="399.8" x2="392.9" y2="399.8"/>
					<g>
						
							<rect x="106.7" y="398.9" transform="matrix(1 -4.423339e-03 4.423339e-03 1 -1.773 0.4775)" class="st1" width="0.7" height="4.4"/>
					</g>
					<g>
						
							<rect x="392.6" y="397.6" transform="matrix(1 -4.423252e-03 4.423252e-03 1 -1.7647 1.7419)" class="st1" width="0.7" height="4.4"/>
					</g>
				</g>
			</g>
			<g>
				<g>
					<line class="st0" x1="107.1" y1="441.1" x2="392.9" y2="439.7"/>
					<g>
						
							<rect x="106.7" y="438.9" transform="matrix(1 -4.897234e-03 4.897234e-03 1 -2.1592 0.5296)" class="st1" width="0.7" height="4.4"/>
					</g>
					<g>
						
							<rect x="392.6" y="437.5" transform="matrix(1 -4.897331e-03 4.897331e-03 1 -2.1489 1.9296)" class="st1" width="0.7" height="4.4"/>
					</g>
				</g>
			</g>
		</g>
	</g>
	<g>
		<rect x="402.1" y="33.3" class="st4" width="26.5" height="21.6"/>
		<text transform="matrix(1 0 0 1 402.1289 42.9932)" class="st5 st6 st7">2</text>
	</g>
	<g>
		<rect x="402.1" y="73.4" class="st4" width="32.8" height="23.2"/>
		<text transform="matrix(1 0 0 1 402.1289 83.0601)" class="st5 st6 st7">1,80</text>
	</g>
	<g>
		<rect x="402.1" y="113" class="st4" width="32.8" height="19.2"/>
		<text transform="matrix(1 0 0 1 402.1289 122.6778)" class="st5 st6 st7">1,60</text>
	</g>
	<g>
		<rect x="402.1" y="153.1" class="st4" width="32.8" height="15.7"/>
		<text transform="matrix(1 0 0 1 402.1289 162.7701)" class="st5 st6 st7">1,40</text>
	</g>
	<g>
		<rect x="402.1" y="193.6" class="st4" width="32.8" height="17.7"/>
		<text transform="matrix(1 0 0 1 402.1289 203.2579)" class="st5 st6 st7">1,20</text>
	</g>
	<g>
		<rect x="402.1" y="233.6" class="st4" width="32.8" height="21.1"/>
		<text transform="matrix(1 0 0 1 402.1289 243.3243)" class="st5 st6 st7">1</text>
	</g>
</g>
<g>
	<g>
		<path class="st8" d="M380.6,263.7c-0.4-2.2-1.2-5.1-1.1-7.4c0-1.5,0.5-3,0.7-4.5c0.1-0.4,0.1-0.9,0.1-1.4c0-0.6-0.1-1.3-0.2-1.9
			c-0.3-1.6-0.6-3.7-0.7-5.3c-0.3-4.7-0.1-9.6,0.2-14.3l1.1-14.6c0.2-3.4,0.3-6.8,0.1-10.2c-0.3-3.4-0.9-6.8-1.8-10
			c-0.3-1.1-0.7-2.3-1.2-3.4c-0.7-1.7-1.8-4.2-2.4-5.9c-0.4-1.2-0.8-2.5-1-3.8c-0.2-1.3-0.3-2.7-0.4-4c-0.3-4,0-9-1-12.8
			c-0.4-1.6-1.2-3.4-1.8-5c-0.3-0.8-0.5-1.6-0.5-2.4c-0.1-1.4,0.4-3.1,0.7-4.4c0.7-3.4,0.6-6.9,0.4-10.4c-0.4-4.2-1.2-8.5-3.1-12.3
			c-1.6-3.1-4.2-5.6-7.3-7.1c-1.3-0.7-2.8-1.2-4.2-1.5c-1.3-0.3-3.2-0.7-4.5-1.2c-0.6-0.2-1.1-0.6-1.6-0.9c-0.9-0.6-1.8-1.4-2.8-1.8
			c-2.2-1.1-6.6-2.6-8.9-3.5c-1.5-0.6-3.2-1.2-4.6-2.1c-0.4-0.2-0.7-0.5-1-0.8c-0.2-0.3-0.4-0.6-0.5-0.9c-0.2-0.6-0.2-1.2-0.3-1.8
			c-0.1-0.9-0.1-2.1-0.1-3c0-3,0-8.3,0.1-11.2c0.1-0.1,0.2-0.1,0.4-0.1c0.4,0,0.8,0.1,1.3,0.1c0.9,0,1.7-0.5,2.3-1.1
			c1.5-1.4,2.4-3.4,2.9-5.4c0.3-1.3,0.5-2.6,0.5-3.9c0-0.7-0.1-1.4-0.4-2.1c-0.1-0.3-0.3-0.6-0.6-0.8c-0.3-0.2-0.6-0.3-1-0.3
			c0.1-2.4,0.3-5,0.2-7.4c-0.1-1.3-0.3-3.1-0.4-4.4c-0.1-1.4,0.2-3.1,0.3-4.5c0.1-0.8,0.1-1.7-0.1-2.5c-0.1-0.4-0.2-0.7-0.4-1.1
			c-0.2-0.3-0.5-0.6-0.8-0.8c-1.2-0.9-3.1-1.4-4.5-1.9c-0.7-0.3-1.5-0.5-2.2-0.9c-1-0.5-2.4-1.3-3.4-1.9c-0.9-0.5-1.9-1.1-2.9-1.4
			c-0.7-0.2-1.4-0.4-2.2-0.4c-1.3,0-2.5,0.6-3.6,1.1c-0.9,0.5-2.3,1.2-3.2,1.6c-0.6,0.3-1.3,0.5-2,0.7c-1.9,0.6-4.1,1.1-5.9,2
			c-2.1,1.1-3.8,3-4.8,5.2c-1,2-1.5,4.2-1.9,6.4c-0.4,2.8-0.3,5.7,0.4,8.4c-0.2,0-0.4,0-0.6,0.1c-0.2,0.1-0.3,0.2-0.4,0.3
			c-0.2,0.2-0.3,0.5-0.3,0.8c-0.1,0.6-0.2,1.2-0.2,1.8c-0.1,1.5,0.1,3,0.3,4.4c0.2,0.9,0.4,1.8,0.8,2.6c0.3,0.6,0.7,1.1,1.3,1.5
			c0.5,0.3,1.1,0.6,1.7,0.7c0.6,0.2,1.4,0.2,1.9,0.6c0.2,2.6,0.1,5.4,0,8c-0.1,1.6-0.2,3.7-0.4,5.3c-0.1,0.9-0.3,1.9-0.6,2.7
			c-0.3,0.9-0.8,1.7-1.4,2.4c-1.1,1.4-2.6,2.5-4.2,3.3c-2.7,1.2-6,2-8.7,3.1c-2.5,1-4.9,2.5-7.3,3.7c-2.1,1-5.2,2-7.5,2.7
			c-1.5,0.5-3,1.1-4.3,2c-0.9,0.6-1.7,1.3-2.3,2.2c-0.8,1.1-1.5,2.3-2,3.6c-0.6,1.6-1.2,3.3-1.6,4.9c-0.7,2.6-1.2,5.3-1.5,7.9
			c-0.3,2.4-0.5,4.8-0.3,7.2c0.2,2.1,0.5,4.5,0.1,6.6c-0.6,3.3-2.1,6.8-2.6,10.2c-0.3,2-0.4,4.1-0.4,6.2c0.1,4.5,0.2,9.9-0.5,14.4
			c-0.1,1-0.3,2-0.6,3c-0.3,1.1-1.2,4-1.5,5.2c-0.4,1.5-0.8,3-1,4.6c-0.3,2.5-0.4,5-0.4,7.5c0.1,5.5,0.7,11.2,1.4,16.7
			c0.5,3.7,1.6,9.7,2.1,13.5c0.3,1.8,0.5,3.8,0.5,5.7c0.1,1.8-0.2,4-0.3,5.8c-0.1,1.5,0,3,0.2,4.5l0.4,3.2c0.1,1.1,0.2,2.2,0.2,3.3
			c0,1.3-0.3,3.1-0.5,4.4c-0.2,1.3-0.3,2.6-0.1,3.8c0.2,2.3,1.1,4.6,2,6.7c0.5,1.1,1.5,3.6,2,4.6c0.5,1,0.9,2,1.6,2.8
			c0.5,0.6,1,1.1,1.7,1.4c1.5,0.9,3.3,1.2,5.1,1.5c1.1,0.1,2.3,0.3,3.4,0.2c-0.8,6.1-0.4,12.3,0.2,18.3c0.2,2.2,0.6,5.4,0.9,7.5
			c0.1,0.6,0.2,1.2,0.4,1.8c0.2,0.6,0.4,1.3,0.9,1.8c0.1,3.5,0.5,7.7,0.9,11.1c0.1,1.1,0.2,2.3,0.2,3.4c0,4.6-1,9.3-2.2,13.7
			c-1.3,4.7-3.3,11.4-4.3,16.2c-0.7,3.6-1.2,7.4-1.5,11.1c-0.8,10.6-0.2,22.8,0.2,33.5c0.1,3.3,0.1,6.7-0.5,10
			c-0.4,2-1.7,6.9-2.2,8.8c-0.5,1.7-1.1,3.4-2.2,4.8c-1,1.5-2.4,2.8-3.8,3.9c-1.2,0.9-2.4,1.7-3.7,2.3c-1,0.5-2.1,0.9-3.2,1.3
			c-1,0.3-2.7,0.7-3.7,1.1c-0.2,0.1-0.4,0.2-0.5,0.3c-0.1,0.1-0.3,0.2-0.3,0.4c-0.1,0.2-0.2,0.4-0.2,0.6c-0.1,0.8-0.1,1.6,0,2.3
			c0.1,0.5,0.2,0.9,0.5,1.3c0.3,0.5,0.9,0.7,1.4,0.8c0.5,0.1,1.1,0.1,1.7,0.2c0.3,0,1.4,0,1.7,0l23.5,0c0.9,0,1.9,0,2.8-0.2
			c0.4-0.1,0.8-0.2,1.2-0.5c0.7-0.5,0.9-1.3,1-2.1c0.1-1.6-0.2-3.2-0.8-4.7c-0.4-0.9-0.9-1.9-1.1-2.9c-0.2-1-0.2-2.1-0.1-3.1
			c0.1-1,0.5-2.4,0.8-3.4c0.3-1.2,0.5-2.4,0.5-3.6c0.1-2.2,0.1-4.8,0.5-7c0.5-3.8,2.1-9.6,3-13.3c0.8-3.2,2.1-8.8,3.1-12
			c1.3-4.4,3.6-10.3,4.7-14.8c0.7-2.7,1.1-5.5,1.4-8.3c0.3-3.5,0.4-9.7,0.5-13.2c0.1-1.4,0.1-2.9,0.4-4.3c0.2-0.9,0.6-1.8,1-2.6
			c0.7-1.3,1.9-3.7,2.4-5c0.7-1.5,1.2-3.1,1.6-4.7c0.5-1.9,0.8-3.9,0.9-5.8c0.4-4.5,0.6-9.8,0.7-14.3c0.3-0.2,0.4-0.6,0.6-0.9
			c0.1-0.2,0.1-0.3,0.1-0.5l0-0.1l0.1-0.2l0.9-3.6c1.3-5.1,5.4-19.5,6.8-24.8c1-3.7,1.9-7.5,2.3-11.2c0.2-1.6,0.5-4.6,0.8-6.2
			c0.1-0.2,0.1-0.5,0.2-0.7c0.1-0.1,0.2-0.3,0.3-0.3c0.2-0.1,0.4-0.2,0.7-0.2c0.4,0,0.9,0.1,1.3,0.3c0.4,0.3,0.7,0.8,0.8,1.2
			c0.2,0.4,0.2,0.9,0.3,1.3c0.3,1.6,0.3,4.3,0.5,5.9c0.6,7,3.2,17.3,4.7,24.3c0.8,3.6,1.8,8.2,2.2,11.9c0.1,0.4,0.1,1.2,0.2,1.6
			c0.1,0.2,0.2,0.4,0.4,0.5l0,14.9c0,1.9,0.1,3.9,0.4,5.8c0.2,1.5,0.7,3,1.3,4.4c1.1,2.7,3.2,6.1,4.4,8.7c0.2,0.5,0.4,1,0.6,1.5
			c0.3,1,0.2,2,0.1,3.1c-0.3,4.3-1,11.2-1.1,15.4c0,1.7,0,3.5,0.2,5.2c0.2,1.4,0.4,2.7,0.8,4.1c0.4,1.5,1,3,1.6,4.5l2.4,5.7
			c0.7,1.7,1.3,3.5,1.8,5.3c0.6,2.3,1.1,4.8,1.4,7.2c0.7,5.4,1.5,11.6,1.8,17c0.1,0.9,0.1,2,0.1,2.9c0,0.7-0.1,2.2-0.1,3
			c0,0.6,0.1,1.2,0.3,1.8l0.5,1.9c0.2,0.8,0.4,1.6,0.4,2.4c0.1,0.9,0,1.9-0.1,2.8c-0.2,2-0.7,4.5-0.4,6.5c0.1,0.7,0.3,1.4,0.7,2
			c0.2,0.4,0.6,0.7,1,0.9c0.5,0.3,1.1,0.4,1.7,0.5c1,0.2,22.6,0.1,24.3,0.1c0.9,0,1.9,0,2.8-0.2c0.7-0.2,1.5-0.5,1.9-1.2
			c0.2-0.4,0.2-0.9,0.1-1.4c-0.1-0.3-0.2-0.7-0.5-1c-0.4-0.6-1-1-1.6-1.4c-2-1.2-4.5-2.2-6.5-3.4c-2-1.1-3.8-2.5-5.4-4.2
			c-2-2.1-3.7-4.5-4.8-7.2c-1.2-2.8-1.7-5.8-1.9-8.8c-0.1-1.8-0.1-3.7-0.1-5.5c0.1-2.4,1.3-17.4,1.5-20.2c0.3-5.3,0.6-11.5,0.6-16.8
			c0-3.6-0.3-7.2-0.9-10.7c-0.9-5-3-11.1-4.3-16c-0.3-1.2-0.6-2.4-0.8-3.6c-0.3-1.6-0.5-3.2-0.4-4.9c0.1-2.1,0.6-4.4,0.7-6.5
			c0-1.2,0-2.6,0.2-3.7c0.2-1.2,0.7-2.9,0.9-4.1c0.6-2.5,1.1-5.1,1.2-7.6c0.6-0.5,1.1-1.2,1.4-2c0.4-1.1,0.6-2.3,0.8-3.5
			c1.1-7.1,1.9-14.4,1.8-21.5c0-3.5-0.3-7.4-0.6-10.9c-0.4-4.5-4.8-45.8-5.4-50.5c-0.2-1.6-0.4-3.4-0.9-4.9
			c-0.3-0.8-0.7-1.7-1.1-2.4c0.2-0.4,0.4-0.9,0.5-1.4c0.2-0.8,0.3-1.7,0.3-2.5c0.2-3.1-0.1-6.3-0.4-9.4c-0.3-2.5-1-5.8-1.1-8.4
			c0-1.4,0.1-2.8,0.4-4.2c0.2-1,0.6-2.2,0.9-3.2c1.3-4.1,3.4-11.3,4.9-15.3c0.6,2.6,1.3,5.9,2,8.5c0.7,2.6,1.9,6.8,2.4,9.4
			c0.9,4.2,1.2,10.9,1.5,15.2c0.3,3.4,0.8,6.9,1.5,10.2c1.4,6.2,3.8,13.4,5.6,19.5c0.7,2.6,1.5,5.4,2,8.1c0.2,1,0.3,2,0.2,2.9
			c0,0.7-0.2,1.5-0.4,2.2c-0.5,1.4-1.5,3.2-2.1,4.5c-0.8,1.5-1.4,3.1-1.8,4.8c-0.8,3.8-0.6,8-0.6,11.9c0,1.9-0.2,4.5-0.4,6.4
			c-0.1,1.7-0.2,3.4,0.5,5c0.3,0.7,0.7,1.3,1.4,1.7c0.5,0.3,1.1,0.4,1.7,0.4c0.8,0,1.7-0.1,2.5-0.3c1.3-0.3,2.5-0.7,3.6-1.4
			c0.8-0.5,1.4-1.2,2-1.9c1.5-2.1,2.4-4.6,3-7.1c0.5-1.9,0.8-3.8,0.9-5.8C381,266.8,380.9,265.2,380.6,263.7z M287,200.9
			c-0.4,2.2-1.1,5.8-1.3,8.1c-0.3,3-0.4,6.1-0.1,9.1c0,0.3,0.1,0.7,0.2,1.1c0,0.1,0.1,0.2,0.2,0.4c-0.5,0.7-0.9,1.5-1.2,2.3
			c-0.7,2-0.8,4.1-1,6.2c-0.4,4.5-1.2,15.9-1.8,20.2c-0.5,3.7-1.6,8.9-2.4,12.6c-0.6,3-1.1,7-1.5,10.1c-0.8-3.6-1.7-7.2-3.2-10.6
			c-0.7-1.6-1.7-3.7-2.3-5.4c-0.7-2.1-1.2-4.4-1.5-6.6c-0.3-1.8-0.4-3.6-0.4-5.4c0-1.9,0.2-3.9,0.4-5.8c1.2-9,3.9-19.7,4.4-28.7
			c0.1-2.2,0.1-4.5,0.1-6.6c-0.1-2-0.2-5.4-0.1-7.4c0.1-1.9,0.3-4,0.6-5.9c0.7-4.9,1.8-11.1,2.6-16c0.6,1,1.2,2.4,1.7,3.4
			c0.8,1.7,4.5,9.5,5.1,11c0.7,1.6,1.2,3.2,1.6,4.9c0.3,1.2,0.4,2.3,0.4,3.5C287.6,197.1,287.3,199,287,200.9z"/>
		<g id="_x32_D_x24_AG-SPORTS_00000157274493790713260040000008097317083655320711_">
			<g id="POLYLINE_124_">
				<path class="st9" d="M275.9,286.3c-1,7.7-0.1,15.7,0.8,23.3c0.2,1.2,0.3,2.6,0.6,3.8c0.2,0.6,0.3,1.2,0.6,1.7
					c0.2,0.4,0.5,0.7,0.8,0.9c0.5,0.3,1.2,0.5,1.8,0.7c3.3,0.7,6.8,0.8,10.2,0.8c3.6,0,7.4,0,11-0.2c0.6,0,1.3-0.1,1.9-0.2
					c0.2,0,0.5-0.1,0.7-0.3c0.2-0.2,0.4-0.4,0.5-0.7c0.1-0.3,0.2-0.7,0.3-1c1.8-8,6-22.1,8.2-30.1c0.7-2.6,1.3-5.4,1.6-8.1
					c0.2-1.8,0.5-4.9,0.8-6.7c0.1-0.4,0.1-0.8,0.2-1.1c0.1-0.2,0.1-0.4,0.3-0.6c0.2-0.2,0.5-0.3,0.8-0.3c0.6-0.1,1.2,0.1,1.5,0.5
					c0.2,0.2,0.3,0.5,0.5,0.8c0.2,0.4,0.3,0.9,0.4,1.3c0.2,1.3,0.4,4.1,0.5,5.5c0.1,1.7,0.4,3.5,0.6,5.1c1.4,8.7,4.4,20,5.9,28.7
					c0.2,1,0.4,2.1,0.5,3c0,0.3,0.1,1.1,0.2,1.4c0,0.2,0.1,0.4,0.2,0.5c0.1,0.1,0.3,0.2,0.4,0.3c0.3,0.1,0.6,0.2,0.9,0.3
					c1.4,0.3,3.6,0.2,5,0.3c5,0.1,11.5,0.6,16.4-0.1c1.5-0.2,3.1-0.6,4.2-1.6c1.2-1,1.6-2.6,1.9-4.1c0.9-4.8,1.5-10,1.8-14.9
					c0.3-4.2,0.3-8.7,0.1-12.9c-0.2-6.8-4.7-45.7-5.4-53.2c-0.2-1.6-0.5-4.9-0.9-6.5c-0.1-0.7-0.3-1.4-0.6-2.1
					c-0.1-0.2-0.1-0.4-0.2-0.5l0-0.1l-0.1-0.2l-0.1-0.2l-0.1-0.2l-0.2-0.3l-0.3-0.6"/>
			</g>
			<g id="POLYLINE_123_">
				<path class="st9" d="M285.9,219.4c-0.5,0.7-0.9,1.5-1.2,2.3c-0.7,2-0.8,4.1-1,6.2c-0.4,4.6-1.1,15.8-1.8,20.2
					c-0.4,3.7-1.6,8.9-2.4,12.6c-0.6,3-1.1,7-1.5,10.1"/>
			</g>
			<g id="POLYLINE_122_">
				<path class="st9" d="M300.9,78.5c-0.7-2.7-0.7-5.6-0.4-8.4c0.3-2.2,0.9-4.4,1.9-6.4c1-2.1,2.7-4,4.8-5.2c1.8-1,4-1.4,5.9-2
					c0.7-0.2,1.4-0.5,2-0.7c0.9-0.4,2.3-1.1,3.2-1.6c1.1-0.6,2.3-1.1,3.6-1.1c0.7,0,1.5,0.1,2.2,0.4c1,0.4,2,0.9,2.9,1.4
					c1,0.6,2.3,1.4,3.4,1.9c0.7,0.3,1.4,0.6,2.2,0.9c1.4,0.5,3.3,1,4.5,1.9c0.3,0.2,0.6,0.5,0.8,0.8c0.2,0.3,0.3,0.7,0.4,1.1
					c0.2,0.8,0.2,1.7,0.1,2.5c-0.1,1.4-0.4,3.1-0.3,4.5c0,1.3,0.3,3.1,0.4,4.4c0.1,2.4,0,5-0.2,7.4"/>
			</g>
			<g id="POLYLINE_121_">
				<path class="st9" d="M305.3,91.4c-0.5-0.4-1.3-0.5-1.9-0.6c-0.6-0.2-1.2-0.4-1.7-0.8c-1.2-0.9-1.7-2.4-1.9-3.8
					c-0.3-1.8-0.5-3.6-0.3-5.4c0-0.4,0.1-0.8,0.2-1.2c0.1-0.2,0.1-0.4,0.2-0.6c0.1-0.2,0.3-0.4,0.5-0.5c0.2-0.1,0.3-0.1,0.5-0.1
					c0.2,0,0.5,0,0.7,0.1c0.4,0.1,0.8,0.2,1.2,0.5c0.3,0.2,0.5,0.5,0.7,0.8c0.6,1.2,0.8,2.6,1.2,3.8c0.1,0.2,0.2,0.5,0.3,0.7
					c0.1,0.1,0.2,0.2,0.3,0.3c0.1,0,0.2,0.1,0.2,0c0.1,0,0.1-0.1,0.2-0.1l0,0c0.1-0.1,0.1-0.2,0.2-0.4c0.2-0.6,0.2-1.3,0.3-1.9
					c0.1-1.3,0.2-3.6,0.4-4.8c0.2-2.1,0.6-4.2,1.1-6.2c0.3-1.4,0.7-2.9,1.2-4.2c0.2-0.5,0.4-1,0.6-1.5c0.3-0.6,0.7-1.1,1.3-1.4
					c0.4-0.2,0.8-0.3,1.3-0.3c0.8-0.1,1.5,0,2.2,0.1c1.4,0.2,2.7,0.7,4,1.3c1.4,0.6,3.2,1.9,4.5,2.7c0.9,0.5,1.8,1.1,2.8,1.4
					c0.7,0.3,1.5,0.4,2.2,0.5c1.5,0.2,3.4,0.2,4.8,0.5c0.5,0.1,1,0.3,1.3,0.7c0.3,0.4,0.4,0.8,0.5,1.3c0.1,1.2-0.1,3.2-0.2,4.4
					c-0.1,1.8-0.2,3.8,0,5.6c0,0.2,0.1,0.5,0.2,0.7l0,0l0,0l0,0l0,0l0,0l0,0l0,0l0,0l0,0l0,0l0,0l0,0l0,0l0,0l0,0c0.1,0,0.1,0,0.2,0
					c0.2-0.1,0.3-0.3,0.4-0.4l0.6-0.8c0.5-0.7,1.1-1.4,1.9-1.7c0.5-0.2,1-0.2,1.5-0.1c0.3,0.1,0.6,0.3,0.8,0.5
					c0.3,0.4,0.5,0.9,0.6,1.4c0.2,1,0.1,2,0,3c-0.2,1.3-0.5,2.7-1,3.9c-0.4,1.1-1,2.1-1.8,3c-0.5,0.6-1.1,1.1-1.9,1.4
					c-0.2,0.1-0.5,0.1-0.7,0.2c-0.3,0-0.7,0-1-0.1c-0.3,0-0.6-0.1-0.8,0.1c-0.1,0.1-0.2,0.2-0.3,0.4c-0.2,0.3-0.3,0.7-0.4,1.1
					c-0.4,1.9-0.7,3.9-1.4,5.7c-1.3,3.2-3.8,6-6.9,7.5c-2.4,1.1-5.1,1.5-7.6,0.7c-1.7-0.5-3.2-1.6-4.4-2.9c-2.3-2.5-3.6-5.8-4.6-9.1
					c-0.4-1.3-0.8-2.9-1.2-4.2c-0.1-0.2-0.2-0.5-0.2-0.7C305.7,91.9,305.5,91.6,305.3,91.4z"/>
			</g>
			<g id="POLYLINE_120_">
				<path class="st9" d="M327.4,315.3l0,14.9c0,1.9,0.1,3.9,0.4,5.8c0.2,1.5,0.7,3,1.3,4.4c1.1,2.7,3.2,6.1,4.4,8.7
					c0.2,0.5,0.4,1,0.6,1.5c0.3,1,0.2,2,0.1,3.1c-0.3,4.3-1,11.2-1.1,15.4c0,1.7,0,3.5,0.2,5.2c0.2,1.4,0.4,2.7,0.8,4.1
					c0.4,1.5,1,3,1.6,4.5l2.4,5.7c0.7,1.7,1.3,3.5,1.8,5.3c0.6,2.3,1.1,4.8,1.4,7.2c0.7,5.4,1.5,11.6,1.8,17
					c0.1,1.1,0.1,2.2,0.1,3.3c0,0.5-0.1,2.1-0.1,2.5c0,0.6,0.1,1.2,0.3,1.8l0.5,1.9c0.2,0.8,0.4,1.6,0.4,2.4c0.1,0.9,0,1.9-0.1,2.8
					c-0.2,2-0.7,4.5-0.4,6.5c0.1,0.7,0.3,1.4,0.7,2c0.3,0.4,0.6,0.7,1,0.9c0.5,0.3,1.1,0.4,1.7,0.5c1,0.2,22.6,0.1,24.3,0.1
					c0.9,0,1.9,0,2.8-0.2c0.7-0.2,1.5-0.5,1.8-1.2c0.2-0.4,0.2-1,0.1-1.4c-0.1-0.4-0.3-0.7-0.5-1c-0.4-0.6-1-1-1.6-1.4
					c-2-1.2-4.6-2.2-6.7-3.4c-1.9-1.1-3.7-2.5-5.2-4c-2-2.1-3.7-4.5-4.8-7.2c-1.2-2.8-1.7-5.8-1.9-8.8c-0.1-1.8-0.1-3.7-0.1-5.5
					c0-2.5,1.3-17.5,1.5-20.2c0.3-5.3,0.6-11.5,0.6-16.8c0-3.6-0.3-7.2-0.9-10.7c-0.9-5-3-11.1-4.3-16c-0.3-1.2-0.6-2.4-0.8-3.6
					c-0.3-1.6-0.5-3.2-0.4-4.9c0.1-2.1,0.6-4.4,0.7-6.5c0-1.2,0-2.6,0.2-3.7c0.2-1.2,0.7-2.9,0.9-4.1c0.6-2.5,1.1-5.1,1.2-7.6"/>
			</g>
			<g id="POLYLINE_119_">
				<path class="st9" d="M278.4,315.7c0.1,3.5,0.5,7.7,0.9,11.1c0.1,1.2,0.2,2.5,0.2,3.8c-0.1,4.5-1,9.1-2.2,13.4
					c-1.5,5.5-3.7,12.6-4.6,18.2c-0.8,4.7-1.3,9.6-1.4,14.3c-0.4,9.7,0.3,21.2,0.5,30.9c0,1.7,0,3.4-0.2,5.1
					c-0.1,0.9-0.2,1.8-0.4,2.6c-0.1,0.8-1.6,6.4-1.8,7.3c-0.4,1.5-0.9,3.1-1.6,4.5c-0.8,1.5-1.8,2.8-3,3.9c-1,0.9-2.1,1.8-3.2,2.5
					c-1.9,1.3-4,2.1-6.2,2.8c-0.7,0.2-2.4,0.6-3.1,0.9c-0.2,0.1-0.3,0.2-0.5,0.3c-0.2,0.2-0.4,0.5-0.4,0.8c-0.1,0.5-0.1,1-0.1,1.6
					c0,0.5,0.1,1.1,0.3,1.6c0.1,0.3,0.3,0.6,0.5,0.8c0.3,0.3,0.7,0.4,1,0.5c0.7,0.2,1.5,0.2,2.2,0.2c2.9,0,24.3,0.1,26.7-0.1
					c0.6-0.1,1.1-0.1,1.7-0.4c0.4-0.2,0.7-0.4,1-0.8c0.5-0.7,0.5-1.6,0.5-2.4c0-1.3-0.3-2.6-0.9-3.9c-0.4-0.9-0.9-1.9-1.1-2.9
					c-0.2-1-0.2-2.1-0.1-3.1c0.1-1,0.5-2.4,0.8-3.4c0.3-1.2,0.5-2.4,0.5-3.6c0.1-2.2,0.1-4.8,0.5-7c0.5-3.7,2.1-9.6,3-13.3
					c0.8-3.3,2.1-8.8,3.1-12c1.3-4.4,3.6-10.3,4.7-14.8c0.7-2.7,1.1-5.5,1.4-8.3c0.3-3.4,0.4-9.7,0.5-13.2c0.1-1.4,0.1-2.9,0.4-4.3
					c0.2-0.9,0.6-1.8,1-2.6c0.7-1.4,1.9-3.7,2.4-5c0.7-1.5,1.2-3.1,1.6-4.7c0.5-1.9,0.8-3.9,0.9-5.8c0.4-4.5,0.6-9.8,0.7-14.3"/>
			</g>
			<g id="POLYLINE_118_">
				<path class="st9" d="M278.6,172.4c0.6,1,1.2,2.3,1.7,3.4c0.8,1.7,4.5,9.4,5.1,11c0.7,1.6,1.2,3.2,1.6,4.9
					c0.3,1.2,0.4,2.3,0.4,3.5c0,1.9-0.2,3.8-0.5,5.7c-0.4,2.6-1.2,6.3-1.4,8.8c-0.2,1.9-0.2,4-0.2,5.9c0,1.1,0.1,2.2,0.2,3.2
					c0,0.2,0.1,0.5,0.3,0.7c0.2,0.2,0.4,0.3,0.7,0.5c0.8,0.4,1.7,0.6,2.6,0.8c2.8,0.7,5.7,1.1,8.6,1.4c4.2,0.5,8.8,0.8,13,0.9
					c9.1,0.3,18.3-0.1,27.3-1.3c3-0.4,6.4-0.9,9.3-1.6c0.6-0.2,1.2-0.3,1.7-0.7c0.4-0.2,0.7-0.6,0.9-1c0.4-0.7,0.5-1.4,0.7-2.2
					c0.3-1.7,0.3-3.5,0.2-5.3c-0.1-2-0.2-4-0.5-6c-0.2-1.6-0.7-4.5-0.9-6.1c-0.2-1.4-0.2-2.7-0.1-4.1c0.1-1.2,0.3-2.3,0.6-3.4
					c0.4-1.7,2.7-9.1,3.3-10.9c0.7-2.1,1.5-4.5,2.3-6.6"/>
			</g>
			<g id="POLYLINE_117_">
				<path class="st9" d="M333,93.9c-0.1,2.9-0.1,8.2-0.1,11.2c0,0.9,0,2.1,0.1,3c0,0.6,0.1,1.2,0.3,1.8c0.1,0.3,0.3,0.7,0.5,0.9
					c0.3,0.3,0.7,0.6,1,0.8c1.4,0.9,3,1.5,4.6,2.1c2.3,0.9,6.8,2.4,8.9,3.5c1,0.5,1.9,1.2,2.8,1.8c0.5,0.4,1,0.7,1.6,0.9
					c1.2,0.5,3.1,0.9,4.5,1.2c1.5,0.4,2.9,0.8,4.2,1.5c3.1,1.5,5.7,4.1,7.3,7.1c2,3.8,2.7,8.1,3.1,12.3c0.3,3.4,0.3,7-0.4,10.4
					c-0.3,1.4-0.7,3-0.7,4.4c0,0.8,0.2,1.6,0.5,2.4c0.6,1.6,1.4,3.3,1.8,5c1,3.9,0.8,8.9,1,12.8c0.1,1.3,0.2,2.7,0.4,4
					c0.2,1.3,0.6,2.6,1,3.8c0.6,1.7,1.7,4.2,2.4,5.9c0.4,1.1,0.8,2.3,1.2,3.4c1,3.2,1.6,6.6,1.8,10c0.3,3.4,0.2,6.8-0.1,10.2
					l-1.1,14.6c-0.3,4.7-0.5,9.6-0.2,14.3c0.1,1.7,0.4,3.7,0.7,5.3c0.1,0.6,0.2,1.2,0.2,1.9c0,0.5-0.1,0.9-0.1,1.4
					c-0.2,1.4-0.7,3-0.7,4.5c-0.1,2.3,0.7,5.2,1.1,7.4c0.3,1.6,0.5,3.2,0.4,4.8c-0.1,1.9-0.4,3.9-0.9,5.8c-0.6,2.5-1.5,5-3,7.1
					c-0.5,0.7-1.2,1.4-2,1.9c-1.1,0.7-2.3,1.2-3.6,1.4c-0.8,0.2-1.7,0.3-2.5,0.3c-0.6,0-1.2-0.1-1.7-0.4c-0.6-0.4-1.1-1.1-1.4-1.7
					c-0.7-1.6-0.7-3.3-0.5-5c0.2-1.9,0.4-4.5,0.4-6.4c0-3.9-0.3-8.1,0.6-11.9c0.4-1.7,1.1-3.3,1.8-4.8c0.6-1.4,1.7-3.1,2.1-4.5
					c0.2-0.7,0.4-1.4,0.4-2.2c0.1-1-0.1-2-0.2-2.9c-0.5-2.7-1.2-5.5-2-8.1c-1.8-6.1-4.2-13.3-5.6-19.5c-0.7-3.3-1.2-6.8-1.5-10.2
					c-0.2-2.4-0.6-9.2-0.9-11.5c-0.2-1.5-0.5-3.1-0.8-4.6c-0.6-3-1.9-7.3-2.6-10.3c-1.2-4.7-2.6-12-3.5-16.9"/>
			</g>
			<g id="POLYLINE_116_">
				<path class="st9" d="M281.1,159.1c-1.3,6.7-3.3,17.6-4.4,24.4c-0.5,2.9-0.9,6.2-1.2,9.1c-0.3,3.2,0,7.1,0,10.4
					c0,3.7-0.2,7.4-0.7,11.1c-0.8,6.7-2.9,16.2-3.8,23c-0.3,2-0.4,4.1-0.4,6.1c0,2.3,0.3,4.7,0.7,6.9c0.4,2.1,1,4.2,1.8,6.2
					c0.9,2.2,2.2,4.7,2.9,7c1.1,3.4,2,7,2.5,10.5c0.3,2.1,0.6,4.2,0.6,6.4c0,1.2-0.1,2.4-0.4,3.6c-0.8,2.7-3,2.7-5.4,2.4
					c-2.1-0.3-4.2-0.6-6.1-1.7c-0.6-0.4-1.2-0.9-1.6-1.4c-0.7-0.8-1.1-1.8-1.6-2.8c-0.5-1-1.5-3.5-2-4.6c-0.9-2.1-1.7-4.4-2-6.7
					c-0.1-1.3,0-2.6,0.1-3.8c0.2-1.4,0.5-3.1,0.5-4.4c0-1.1-0.1-2.2-0.2-3.3l-0.4-3.2c-0.2-1.5-0.3-3-0.2-4.5c0.1-1.8,0.3-4,0.3-5.8
					c0-1.9-0.3-3.8-0.5-5.7c-0.6-3.8-1.6-9.7-2.1-13.5c-0.8-5.5-1.3-11.2-1.4-16.7c0-2.5,0-5.1,0.4-7.5c0.2-1.5,0.6-3.1,1-4.6
					c0.3-1.2,1.2-4,1.5-5.2c0.2-1,0.4-2,0.6-3c0.7-4.5,0.5-9.9,0.5-14.4c0-2,0.1-4.1,0.4-6.2c0.5-3.4,2-6.8,2.6-10.2
					c0.4-2.1,0.1-4.5-0.1-6.6c-0.2-2.4,0-4.8,0.3-7.2c0.3-2.6,0.9-5.4,1.5-7.9c0.4-1.7,0.9-3.3,1.6-4.9c0.5-1.3,1.2-2.5,2-3.6
					c0.7-0.8,1.5-1.6,2.3-2.2c1.3-0.9,2.8-1.5,4.3-2c2.2-0.7,5.4-1.7,7.5-2.7c2.4-1.2,4.9-2.7,7.3-3.7c2.8-1.1,6-1.9,8.7-3.1
					c1.6-0.8,3.1-1.9,4.2-3.3c0.6-0.7,1.1-1.6,1.4-2.4c0.3-0.9,0.5-1.8,0.6-2.7c0.2-1.6,0.3-3.7,0.4-5.3c0.1-2.6,0.2-5.4,0-8"/>
			</g>
			<g id="POLYLINE_105_">
				<path class="st9" d="M325.3,165.6c0.8,0.4,1.8,1.1,2.6,1.5c0.6,0.3,1.2,0.5,1.8,0.7c1.3,0.3,2.7,0.5,4.1,0.6
					c2.8,0.2,5.7,0.2,8.5,0.1c2-0.1,4.2-0.1,6.2-0.5c0.6-0.1,1.2-0.3,1.8-0.7c0.6-0.4,1.1-0.9,1.6-1.4c0.9-0.9,1.7-1.9,2.4-2.9
					c1.5-2,2.8-4.2,3.7-6.5c0.6-1.5,1.2-3.2,1.3-4.8"/>
			</g>
			<g id="POLYLINE_104_">
				<path class="st9" d="M316.3,166.2c-1.7,0.8-3.4,1.5-5.2,1.8c-1.6,0.3-3.4,0.5-5,0.6c-2.7,0.1-6.1,0.1-8.8,0.1
					c-3.5-0.1-7.2-0.2-10.2-2.2c-2.2-1.5-3.8-3.8-5.1-6.1c-1.5-2.6-2.8-5.5-3.4-8.5"/>
			</g>
		</g>
	</g>
	<g>
		<path class="st10" d="M273.5,196.7c-0.2-0.8-0.5-1.7-0.8-2.5c-1.7-5-3.9-10-6.8-14.4c-2.7-4.2-6.8-8.7-9.9-12.7
			c-1-1.3-1.9-2.8-2.8-4.2c-1.3-2.3-2.8-6-3.9-8.4c-1.7-3.6-3.7-7.2-6.4-10.2c-1.8-2-3.8-3.8-6.2-5c-2.6-1.3-5.5-2-8.4-2.4
			c-1.8-0.2-6.9-0.8-8.7-1c-0.3-0.3-0.7-0.5-1-0.7c-0.4-0.2-0.8-0.4-1.3-0.4c0.9-0.6,1.7-1.5,2.4-2.3c0.3-0.4,0.7-0.9,0.9-1.4
			c0.1-0.2,0.2-0.5,0.2-0.8c0-0.2-0.1-0.3-0.1-0.4c-0.1-0.2-0.3-0.3-0.5-0.4c-0.2-0.1-0.4-0.2-0.6-0.2c-0.9-0.3-2-0.5-2.9-0.8
			c-0.3-0.2-0.7-0.4-0.9-0.7c-0.4-0.5-0.4-1.2-0.3-1.8c0.2-1.5,0.9-3.3,1.4-4.7c0.3-1,0.7-2,0.9-3c0.2-0.8,0.3-1.7,0.3-2.6
			c0.1-1.2,0-2.4-0.2-3.6c-0.2-1.6-0.9-5.2-1.2-6.9c-0.1-0.8-1.1-7-1.2-7.9c-1-6-2.4-12.3-6.3-17.1c-1.4-1.8-3.1-3.4-5.1-4.5
			c-0.6-0.3-1.3-0.6-1.9-0.8c-0.6-0.2-1.3-0.2-1.9-0.2l-1.3,0c-0.4,0-0.7,0-1.1-0.1c-0.7-0.1-1.6-0.4-2.3-0.5
			c-1.1-0.2-2.3-0.2-3.4,0.1c-1.6,0.4-3.1,1.1-4.5,1.8c-2,1.1-4,2.5-5.8,3.9c-1.6,1.3-3.1,2.8-4.4,4.5c-0.9,1.2-1.7,2.4-2.3,3.8
			c-0.8,2-1,4.1-1,6.3c0,1.8,0.2,4.2-0.1,6c-0.5,2.8-1.8,5.6-2.6,8.3c-0.5,1.8-0.8,3.8-0.6,5.7c0.2,2.8,0.9,5.8,1.2,8.6
			c0.1,1.1,0.2,2.2,0,3.3c-0.1,0.6-0.3,1.2-0.7,1.6c-0.3,0.4-0.7,0.7-1.1,0.9c-0.9,0.5-2,0.8-3,1.2c-0.3,0.1-0.6,0.2-0.9,0.4
			c-0.1,0.1-0.3,0.2-0.4,0.3l0,0l0,0l0,0l0,0l0,0l0,0l0,0l0,0l0,0l0,0l0,0l0,0l0,0l0,0v0v0v0v0v0v0v0v0v0v0v0v0v0v0v0v0v0v0v0v0v0
			c0,0.3,0.2,0.5,0.3,0.8c0.5,0.6,1.1,1,1.7,1.4c2.1,1.3,4.6,2.2,7.1,1.8c-0.3,0.6-0.5,1.2-0.6,1.8c-0.7,0.1-1.5,0.3-2.2,0.5
			c-0.5,0.2-2,0.5-2.5,0.8c-0.4,0.2-0.8,0.4-1.1,0.8c-0.2,0-0.5,0-0.7,0.1c-2,0.2-4.6,0.4-6.6,0.8c-1.6,0.3-3.3,0.8-4.8,1.5
			c-1.7,0.8-3.3,1.9-4.8,3.2c-1.8,1.6-3.5,3.5-4.9,5.5c-1.9,2.6-3.5,6.1-5,9c-0.7,1.5-1.6,2.9-2.5,4.2c-1.9,2.6-4.6,5.6-6.4,8.2
			c-3.7,5.3-7.1,11-10.1,16.6c-1.1,2.1-2.2,4.3-3,6.5c-0.4,1.1-0.7,2.3-0.8,3.5c-0.1,1.4,0.2,2.8,0.7,4.1c0.7,2,1.7,4.1,2.7,6
			c4.3,7.9,10.9,21.5,15.6,29c2.1,3.2,4.5,6.4,7.8,8.4c1.9,1.1,4,1.9,6.2,1.9c1.6,0,3.3-0.3,4.9-0.7l1.9-0.5l-5.2,18.1
			c-2.8,10.5-5.3,21.3-4.8,32.2c0.1,3.8,0.6,7.8,1.1,11.6c0.4,3.1,1.8,11.1,2.1,14.2c0.2,1.5,0.3,3.7,0.7,5.2
			c0.2,0.8,0.6,1.5,1.1,2.1c-0.6,6.7-1.2,14-2.5,20.5c-0.6,3.2-2,7.3-3,10.4c-0.7,2.4-1.3,4.9-1.6,7.4c-0.6,4.5-0.8,9.2-0.9,13.7
			c-0.1,6.6-0.1,14.5,0,21.1c0,2.6,0.6,12.5,0.3,14.9c-0.1,1.6-0.6,3.2-1.1,4.7c-0.2,0.7-0.3,1.3-0.4,2c-0.1,1.1,0,2.7,0,3.9
			c0,1.4,0,2.8-0.7,4.1c-0.4,0.9-1.1,1.6-1.9,2.1c-0.6,0.4-1.3,0.7-1.9,0.9c-1.5,0.6-3.5,1.2-5,1.8c-0.6,0.3-1.3,0.6-1.8,1.1
			c-0.6,0.6-1.1,1.4-1,2.3c0.1,0.7,0.5,1.2,1.1,1.5c0.4,0.2,0.9,0.4,1.4,0.5c0.9,0.2,1.8,0.2,2.7,0.2c1.2,0,17.2,0.1,18-0.1
			c0.3,0,0.6-0.1,0.9-0.3c0.4-0.4,0.6-1,0.7-1.5c0.1-0.6,0.1-1.3,0-1.9c-0.1-1.6-0.6-3.6-0.9-5.2c-0.2-1.1-0.1-2.3,0.2-3.4
			c0.5-1.8,1.2-3.7,1.4-5.5c0.2-1.5,0.3-3.3,0.5-4.8c0.2-2,0.6-4.1,1.1-6.1c1.7-7.7,5.4-16.9,8.1-24.3c0.8-2.2,1.6-4.5,2-6.7
			c0.4-1.8,0.5-3.6,0.6-5.5l0.4-10.8c0.2-4.4,0.6-8.9,2-13.1c0.4-1.2,0.8-2.4,1.3-3.5c0.6-1.4,1.3-3,1.7-4.4c1.3-4.4,2-9.1,2.6-13.6
			c0.7-0.4,1.1-1.1,1.4-1.7c0.5-1.1,0.9-2.4,1.2-3.6c0.7-2.7,1.8-7.5,2.5-10.2c1.2-4.4,3.9-14.4,4.9-18.7c1.2-4.9,2.3-12,3.2-17.1
			c0.2-0.9,0.3-1.9,0.7-2.7c0.1-0.2,0.2-0.3,0.3-0.4c0.3-0.3,0.7-0.4,1.1-0.3c0.3,0,0.5,0.2,0.7,0.3c0.3,0.3,0.5,0.7,0.6,1.2
			c0.2,0.6,0.3,1.2,0.3,1.8c0.6,5.1,1.4,11.9,2.2,16.9c1.5,9.8,4.3,22.4,5.9,32.2c0.1,0.4,0.1,0.8,0.3,1.1c0.1,0.2,0.2,0.3,0.3,0.5
			c0.1,0.2,0.3,0.3,0.5,0.4c0.2,4.6,0.5,9.4,1.7,13.9c1.2,4.6,3.5,9.2,4.5,13.9c0.8,3.8,0.9,8.8,1.2,12.7c0.2,3.5,0.6,7.1,1.4,10.5
			c0.9,4.2,2.3,8.3,4,12.3c1.5,3.6,4.5,10.5,5.7,14.1c1,2.8,1.8,5.8,2.5,8.7c0.4,1.8,0.8,3.7,0.9,5.5c0.1,1.2,0.1,2.6,0.2,3.8
			c0.1,1.4,0.6,3.2,0.9,4.6c0.2,0.9,0.4,1.9,0.4,2.8c0.1,1.2-0.1,2.7-0.1,4c0,0.7,0,1.5,0.3,2.1c0.2,0.4,0.5,0.8,0.9,1.1
			c0.7,0.5,1.5,0.7,2.3,0.8c1.5,0.2,3.1,0.3,4.6,0.3c1.9-0.1,12.8,0.1,14.5-0.1c0.4-0.1,0.8-0.2,1.2-0.4c0.2-0.1,0.3-0.3,0.4-0.5
			c0.2-0.4,0.2-0.8,0.1-1.2c0-0.5-0.2-1.1-0.5-1.5c-0.3-0.4-0.9-0.6-1.4-0.8c-3-1-6.3-1.8-8.7-4c-1.2-1.1-2.2-2.5-2.6-4.1
			c-0.4-1.3-0.4-2.9-0.5-4.3c-0.1-2.7-1.2-5.5-1.3-8.2c0-0.7,0-1.5,0-2.1c0.2-4.2,0.4-9.4,0.4-13.6c-0.1-7-0.4-14.7-0.9-21.7
			c-0.5-6.6-1.4-13.2-3-19.6c-0.6-2.5-2.8-10.3-3.2-12.7c-0.1-0.6-0.2-1.3-0.2-1.9c-0.1-1.7,0-4.9-0.1-6.6c-0.1-2.7-0.3-6-0.5-8.7
			c0.7-0.9,1-2,1.4-3.1l1-3.5c1.5-5.2,3.4-11.1,4.4-16.4c0.7-3.4,1.1-7,1.3-10.5c0.5-9.3-0.5-18.7-1.8-28c-0.5-3.5-1.2-7.3-2-10.8
			c-1-4.1-2.6-9.4-3.8-13.5c0.8,0,3.3,0.4,4.1,0.5c1.9,0.2,3.8,0.4,5.6-0.2c1.2-0.4,2.2-1.1,3.1-1.9c0.7-0.6,1.3-1.3,1.9-1.9
			c4.5-5.1,10.1-10.6,14.3-16c3.4-4.2,6.5-8.8,9.4-13.5c1.8-2.9,3.5-6,4.8-9.1c0.5-1.2,0.9-2.6,0.9-3.9
			C273.9,198.2,273.7,197.5,273.5,196.7z M167.1,211.4c-0.5,7.1-2.3,14.1-4.1,20.9c-1.2,0.1-2.5,0.1-3.7,0.4
			c-0.8,0.2-1.6,0.4-2.4,0.6c-1.5,0.5-3.2,1.3-4.8,1.2c-0.3,0-0.7-0.1-1-0.2c-0.3-0.2-0.7-0.4-0.9-0.7c-0.7-0.7-1.2-1.6-1.6-2.5
			c-3.2-7.6-7.9-24.5-10.7-32.3c0-0.2-0.1-0.4,0-0.6c0.1-0.4,0.3-0.8,0.6-1.2c1-1.5,2.4-2.9,3.5-4.2c4.4-4.7,9.1-9.8,12.8-15
			c0.7-0.9,1.3-2,1.9-3c0.3-0.5,0.9-1.8,1.3-2.3c0.1-0.1,0.2-0.3,0.3-0.4c0,0,0.1-0.1,0.2-0.1h0h0h0h0h0h0h0h0h0h0h0h0h0h0h0h0h0h0
			h0h0h0h0h0h0h0h0h0h0h0h0h0h0h0h0h0h0h0h0h0h0h0h0h0h0l0,0l0,0l0,0l0,0l0,0l0,0l0,0c0.1,0.1,0.1,0.2,0.2,0.3
			c0.2,0.5,0.3,1,0.4,1.5c0.2,1,0.5,2.6,0.8,3.5c0.3,1.1,0.7,2.3,1,3.4c1.4,3.9,3.1,8.1,4.8,11.9l0.8,6.1
			C167.1,203,167.4,207.2,167.1,211.4z M253.1,199.5c-3.5,8.2-7,19.7-11.1,27.6c-0.7,1.3-1.5,2.7-2.5,3.8c-0.7,0.8-1.5,1.5-2.4,1.8
			c-0.9,0.3-1.9,0.2-2.8-0.1c-1.6-0.5-3.4-1.6-4.8-2.4c-1.3-0.7-2.7-1.4-4.2-1.5c-1.3-6-2.2-12.2-2.2-18.3c0-7.2,1.6-15.1,2.5-22.2
			l1.7-2.7c0.8-1.3,1.5-2.6,2.1-4c0.9-2.2,2-6.1,2.7-8.3c0.3-0.8,0.5-1.7,0.9-2.5c0.1-0.1,0.2-0.3,0.3-0.4l0,0l0,0l0,0l0,0l0,0l0,0
			l0,0l0,0l0,0l0,0l0,0l0,0l0,0l0,0l0,0h0h0h0h0h0h0h0h0h0h0h0h0h0h0h0h0h0h0h0h0h0h0h0h0h0h0h0h0h0h0h0h0h0h0h0h0h0h0h0h0h0
			c0.1,0.1,0.2,0.2,0.2,0.3c0.2,0.3,0.4,1,0.6,1.4c0.2,0.5,0.5,1.1,0.8,1.6c0.5,0.9,1.2,1.9,1.8,2.7c1.1,1.6,14.3,18.4,15.7,20.3
			c0.3,0.4,0.5,0.8,0.7,1.2C253.6,198.2,253.4,198.9,253.1,199.5z"/>
		<g id="_x32_D_x24_AG-SPORTS">
			<g id="POLYLINE_468_">
				<path class="st9" d="M204.5,331.7c0.2,4.6,0.5,9.4,1.7,13.9c1.2,4.6,3.5,9.2,4.5,13.9c0.8,3.8,0.9,8.8,1.2,12.7
					c0.2,3.5,0.6,7.1,1.4,10.5c0.9,4.2,2.3,8.3,4,12.3c1.5,3.6,4.5,10.5,5.7,14.1c1,2.8,1.8,5.8,2.5,8.7c0.4,1.8,0.8,3.7,0.9,5.5
					c0.1,1.2,0.1,2.6,0.2,3.8c0.1,1.4,0.6,3.2,0.9,4.6c0.2,0.9,0.4,1.9,0.4,2.8c0.1,1.2-0.1,2.7-0.1,4c0,0.7,0,1.5,0.3,2.1
					c0.2,0.4,0.5,0.8,0.9,1.1c0.7,0.5,1.5,0.7,2.3,0.8c1.5,0.2,3.1,0.3,4.6,0.3c1.9-0.1,12.8,0.1,14.5-0.1c0.4-0.1,0.8-0.2,1.2-0.4
					c0.2-0.1,0.3-0.3,0.4-0.5c0.2-0.4,0.2-0.8,0.1-1.2c0-0.5-0.2-1.1-0.5-1.5c-0.3-0.4-0.9-0.6-1.4-0.8c-3-1-6.3-1.8-8.7-4
					c-1.2-1.1-2.2-2.5-2.6-4.1c-0.4-1.3-0.4-2.9-0.5-4.3c-0.1-2.7-1.2-5.5-1.3-8.2c0-0.7,0-1.5,0-2.1c0.2-4.2,0.4-9.4,0.4-13.6
					c-0.1-7-0.4-14.7-0.9-21.7c-0.5-6.6-1.4-13.2-3-19.6c-0.6-2.5-2.8-10.3-3.2-12.7c-0.1-0.6-0.2-1.3-0.2-1.9
					c-0.1-1.7,0-4.9-0.1-6.6c-0.1-2.7-0.3-6-0.5-8.7"/>
			</g>
			<g id="POLYLINE_463_">
				<path class="st9" d="M154,329.7c-0.6,6.7-1.2,14-2.5,20.5c-0.6,3.2-2,7.3-3,10.4c-0.7,2.4-1.3,4.9-1.6,7.4
					c-0.6,4.5-0.8,9.2-0.9,13.7c-0.1,6.6-0.1,14.5,0,21.1c0,2.6,0.6,12.5,0.3,14.9c-0.1,1.6-0.6,3.2-1.1,4.7c-0.2,0.7-0.3,1.3-0.4,2
					c-0.1,1.1,0,2.7,0,3.9c0,1.4,0,2.8-0.7,4.1c-0.4,0.9-1.1,1.6-1.9,2.1c-0.6,0.4-1.3,0.7-1.9,0.9c-1.5,0.6-3.5,1.2-5,1.8
					c-0.6,0.3-1.3,0.6-1.8,1.1c-0.6,0.6-1.1,1.4-1,2.3c0.1,0.7,0.5,1.2,1.1,1.5c0.4,0.2,0.9,0.4,1.4,0.5c0.9,0.2,1.8,0.2,2.7,0.2
					c1.2,0,17.2,0.1,18-0.1c0.3,0,0.6-0.1,0.9-0.3c0.4-0.4,0.6-1,0.7-1.5c0.1-0.6,0.1-1.3,0-1.9c-0.1-1.6-0.6-3.6-0.9-5.2
					c-0.2-1.1-0.1-2.3,0.2-3.4c0.5-1.8,1.2-3.7,1.4-5.5c0.2-1.5,0.3-3.3,0.5-4.8c0.2-2,0.6-4.1,1.1-6.1c1.7-7.7,5.4-16.9,8.1-24.3
					c0.8-2.2,1.6-4.5,2-6.7c0.4-1.8,0.5-3.6,0.6-5.5l0.4-10.8c0.2-4.4,0.6-8.9,2-13.1c0.4-1.2,0.8-2.4,1.3-3.5
					c0.6-1.4,1.3-3,1.7-4.4c1.3-4.4,2-9.1,2.6-13.6"/>
			</g>
			<g id="POLYLINE_461_">
				<path class="st9" d="M159,246.4l-5.2,18.1c-2.8,10.5-5.3,21.3-4.8,32.2c0.1,3.8,0.6,7.8,1.1,11.6c0.4,3.1,1.8,11.1,2.1,14.2
					c0.1,0.9,0.3,3.2,0.5,4.1c0.2,1.1,0.5,2.1,1.2,3c0.5,0.7,1.3,1.2,2,1.6c1.2,0.6,2.5,1,3.8,1.3c3.8,0.8,7.7,0.7,11.5,0.6
					c1.9-0.1,4-0.2,5.9-0.4c0.3,0,0.6-0.1,0.8-0.2c0.3-0.1,0.6-0.2,0.8-0.5c0.3-0.2,0.5-0.6,0.7-0.9c0.5-0.9,0.9-2,1.2-3
					c0.6-1.8,1.6-6.5,2.1-8.4c1.4-5.8,4.3-15.9,5.7-21.6c0.6-2.5,1.2-5.6,1.7-8.1c0.3-1.7,1.5-9.1,1.9-10.6c0.1-0.4,0.2-0.8,0.4-1.2
					c0.1-0.2,0.2-0.3,0.3-0.4c0.2-0.2,0.6-0.3,0.9-0.3c0.3,0,0.6,0.1,0.9,0.3c0.2,0.2,0.3,0.4,0.4,0.6c0.2,0.3,0.2,0.7,0.3,1
					c0.1,0.5,0.2,1.2,0.3,1.7c0.6,6.1,1.6,13.5,2.6,19.6c1.4,8.8,4,20.9,5.5,29.7c0.1,0.3,0.1,0.5,0.2,0.7c0.1,0.2,0.2,0.3,0.4,0.5
					c0.2,0.2,0.5,0.3,0.7,0.4c0.4,0.2,0.9,0.3,1.4,0.4c1.4,0.3,2.9,0.5,4.3,0.6c2.2,0.2,4.6,0.3,6.8,0.3c2.2,0,4.5,0,6.6-0.3
					c1.2-0.2,2.5-0.4,3.6-0.9c0.7-0.3,1.3-0.7,1.8-1.3c0.7-0.9,1.1-2,1.4-3.1l1-3.6c1.5-5.2,3.4-11.1,4.4-16.4
					c0.7-3.4,1.1-7,1.3-10.5c0.5-9.3-0.5-18.7-1.8-28c-0.5-3.5-1.2-7.3-2-10.8c-1-4.1-2.6-9.4-3.8-13.5"/>
			</g>
			<g id="POLYLINE_443_">
				<path class="st9" d="M174.5,137.1c-0.7,0.1-1.5,0.3-2.2,0.5c-0.5,0.2-2,0.5-2.4,0.7c-0.4,0.2-0.8,0.3-1.1,0.7
					c-0.3,0.4-0.5,0.8-0.6,1.3c-0.1,0.5-0.2,1.1-0.2,1.7c-0.1,1.8-0.3,3.8-0.6,5.6l-2,12.3c-0.8,5.4-1.4,11-1.3,16.5
					c0,6.9,1.6,16.4,2.5,23.3c0.5,4.1,0.7,8.4,0.4,12.5c-0.5,6.8-2.3,13.7-4.1,20.3"/>
			</g>
			<g id="POLYLINE_442_">
				<path class="st9" d="M165.8,192.7c-1.7-3.8-3.4-8-4.8-11.9c-0.4-1.1-0.7-2.3-1-3.4c-0.2-0.9-0.6-2.6-0.8-3.5
					c-0.1-0.5-0.2-1-0.4-1.5c0-0.1-0.1-0.2-0.2-0.3l0,0l0,0l0,0l0,0l0,0l0,0l0,0h0h0h0h0h0h0h0h0h0h0h0h0h0h0h0h0h0h0h0h0h0h0h0h0h0
					h0h0h0h0h0h0h0h0h0h0h0h0h0h0h0h0h0h0h0c-0.1,0-0.1,0.1-0.2,0.1c-0.1,0.1-0.2,0.2-0.3,0.4c-0.4,0.7-1,1.9-1.5,2.6
					c-0.5,0.9-1.1,1.8-1.7,2.6c-3.7,5.2-8.5,10.3-12.8,15c-1.2,1.3-2.5,2.8-3.5,4.2c-0.2,0.4-0.5,0.7-0.6,1.2c0,0.2,0,0.4,0,0.6
					c1.8,4.8,7.1,22.5,8.8,27.3c0.6,1.7,1.3,3.6,2,5.2c0.4,0.8,0.8,1.6,1.5,2.3c0.3,0.3,0.6,0.5,1,0.7c0.3,0.1,0.7,0.2,1,0.2
					c1.6,0.1,3.3-0.7,4.7-1.2c1-0.3,2-0.6,3-0.8c2-0.3,4-0.3,6-0.3c1.7,0,3.4,0.1,5,0.5c0.6,0.1,1.2,0.3,1.8,0.6
					c0.4,0.3,0.8,0.7,1,1.1c0.2,0.6,0.3,1.2,0.3,1.8c0,1.4-0.1,2.8-0.3,4.2c-0.1,0.7-0.2,1.5-0.4,2.1c-0.1,0.3-0.2,0.6-0.3,0.8
					c-0.1,0.2-0.3,0.4-0.5,0.6c-0.2,0.2-0.5,0.3-0.7,0.4c-0.4,0.1-0.7,0.2-1.1,0.2c-1,0.2-3.2,0.2-4.3,0.3c-1,0.1-2.1,0.2-3.1,0.4
					c-1.9,0.3-4.7,1.2-6.6,1.6c-1.8,0.4-3.8,0.7-5.7,0.5c-2.5-0.3-4.8-1.6-6.8-3.2c-1.8-1.5-3.4-3.4-4.8-5.4
					c-1.5-2.1-2.9-4.5-4.2-6.8c-2.7-4.9-10.4-19.7-13-24.8c-0.6-1.3-1.4-2.8-1.9-4.2c-0.3-0.8-0.7-1.7-0.8-2.6
					c-0.2-0.8-0.2-1.6-0.2-2.4c0.1-1,0.3-2.1,0.6-3.1c0.9-2.7,2.2-5.3,3.6-7.8c2.8-5,5.8-10.2,9.1-14.9c0.8-1.2,1.8-2.6,2.7-3.7
					c0.8-1,3.1-3.9,3.9-4.8c1.1-1.4,2.1-3,2.9-4.6c1.4-2.9,3-6.4,5-9c1.4-2,3.1-3.8,4.9-5.5c1.5-1.3,3.1-2.4,4.8-3.2
					c1.5-0.7,3.2-1.2,4.8-1.5c2-0.4,4.6-0.6,6.6-0.8c0.2,0,0.5,0,0.7-0.1"/>
			</g>
			<g id="POLYLINE_441_">
				<path class="st9" d="M225.3,228.6c-1.1-4.7-1.8-9.6-2.1-14.5c-0.2-3.1-0.1-6.4,0.2-9.5c0.8-9,3.1-19.1,2.9-28.2
					c-0.1-4.1-0.7-8.2-1.7-12.2c-0.7-3-2.5-9.5-3-12.4c-0.4-2.4-0.7-4.8-0.9-7.2c-0.2-1.8-0.2-4.4-0.3-6.2c0-0.4-0.1-0.8-0.1-1.2
					c0-0.3-0.1-0.6-0.2-0.9c-0.2-0.4-0.5-0.6-0.8-0.9c-0.5-0.4-1.2-0.7-1.8-0.7"/>
			</g>
			<g id="POLYLINE_440_">
				<path class="st9" d="M225.6,188.1l1.7-2.7c0.8-1.3,1.5-2.6,2.1-4c0.9-2.2,2-6.1,2.7-8.3c0.3-0.8,0.5-1.7,0.9-2.5
					c0.1-0.1,0.2-0.3,0.3-0.4l0,0l0,0l0,0l0,0l0,0l0,0l0,0l0,0l0,0l0,0l0,0l0,0l0,0l0,0l0,0h0h0h0h0h0h0h0h0h0h0h0h0h0h0h0h0h0h0h0
					h0h0h0h0h0h0h0h0h0h0h0h0h0h0h0h0h0h0h0h0h0h0c0.1,0.1,0.2,0.2,0.2,0.3c0.2,0.3,0.4,1,0.6,1.4c0.2,0.5,0.5,1.1,0.8,1.6
					c0.5,0.9,1.2,1.9,1.8,2.7c1.1,1.6,14.3,18.4,15.7,20.3c0.3,0.4,0.5,0.8,0.7,1.2c0.2,0.6-0.1,1.3-0.3,1.9
					c-3.5,8.2-7,19.7-11.1,27.6c-0.7,1.3-1.5,2.7-2.5,3.8c-0.7,0.8-1.5,1.5-2.4,1.8c-0.9,0.3-1.9,0.2-2.8-0.1
					c-1.6-0.5-3.4-1.6-4.8-2.4c-1.3-0.7-2.7-1.4-4.2-1.5c-1.5-0.1-3,0.5-4.4,1.1c-0.5,0.2-1.3,0.6-1.8,0.9c-0.3,0.2-0.7,0.4-1,0.6
					c-0.3,0.2-0.5,0.4-0.7,0.7c-0.2,0.4-0.4,0.8-0.4,1.2c-0.1,1,0.2,2.1,0.5,3.1c0.5,1.8,1.3,3.5,2.3,5.1c0.8,1.3,1.8,2.6,3.3,3.2
					c0.8,0.3,1.6,0.4,2.4,0.5c1.2,0,2.6,0,3.8,0c1.1,0.1,3.4,0.4,4.5,0.5c1.9,0.2,3.8,0.4,5.6-0.2c1.2-0.4,2.2-1.1,3.1-1.9
					c0.7-0.6,1.3-1.3,1.9-1.9c4.5-5.1,10.1-10.6,14.3-16c3.4-4.2,6.5-8.8,9.4-13.5c1.8-2.9,3.5-6,4.8-9.1c0.5-1.2,0.9-2.6,0.9-3.9
					c0-0.7-0.2-1.5-0.4-2.2c-0.2-0.8-0.5-1.7-0.8-2.5c-1.7-5-3.9-10-6.8-14.4c-2.7-4.2-6.8-8.7-9.9-12.7c-1-1.3-1.9-2.8-2.8-4.2
					c-1.3-2.3-2.8-6-3.9-8.4c-1.7-3.6-3.7-7.2-6.4-10.2c-1.8-2-3.8-3.8-6.2-5c-2.6-1.3-5.5-2-8.4-2.4c-1.8-0.2-6.9-0.8-8.7-1"/>
			</g>
			<g id="POLYLINE_439_">
				<path class="st9" d="M175.2,135.3c-0.5,0.9-0.8,1.9-0.7,3c0.1,0.9,0.5,2,0.7,2.8c0.4,1.4,1,2.8,1.8,4c0.8,1.1,1.8,2.1,2.8,2.8
					c1.2,0.9,2.5,1.6,3.9,2.2c2.5,1.1,5.2,1.9,7.9,2.4c3.6,0.5,7.3,0.4,10.7-1c1.3-0.5,2.6-1.2,3.7-2.1c1.8-1.4,3.4-3.1,4.7-5
					c1.2-1.7,2.3-3.5,3.1-5.4c0.5-1.1,0.8-2.2,1.1-3.3"/>
			</g>
			<g id="POLYLINE_438_">
				<path class="st9" d="M182,118.6c0.8,2.4,1.1,5.1,0.8,7.6c-0.3,2.2-1,4.4-2.4,6.1c-1.5,1.8-3.8,3-6.1,3c-1.9,0.1-3.8-0.6-5.5-1.5
					c-0.8-0.5-1.8-1.1-2.4-1.8c-0.2-0.2-0.3-0.5-0.4-0.8v0v0v0v0v0v0v0v0v0v0v0v0v0v0v0v0v0v0v0v0v0l0,0l0,0l0,0l0,0l0,0l0,0l0,0
					l0,0l0,0l0,0l0,0l0,0l0,0l0,0c0.1-0.1,0.2-0.2,0.4-0.3c0.3-0.2,0.6-0.3,0.9-0.4c0.9-0.3,2.1-0.7,2.9-1.2c0.4-0.2,0.8-0.6,1.2-1
					c0.4-0.5,0.6-1,0.7-1.6c0.2-1.1,0.1-2.2,0-3.3c-0.3-2.8-1.1-5.7-1.2-8.6c-0.1-1.9,0.1-3.8,0.6-5.7c0.7-2.7,2.1-5.5,2.6-8.3
					c0.3-1.8,0.1-4.1,0.1-6c0-2.1,0.2-4.3,1-6.3c0.6-1.4,1.4-2.6,2.3-3.8c1.3-1.6,2.8-3.1,4.4-4.5c1.8-1.5,3.7-2.8,5.8-3.9
					c1.4-0.8,2.9-1.5,4.5-1.8c1.1-0.3,2.3-0.3,3.4-0.1c0.7,0.1,1.6,0.4,2.3,0.5c0.4,0.1,0.7,0.1,1.1,0.1l1.3,0c0.6,0,1.1,0,1.7,0.2
					c0.5,0.1,1,0.3,1.4,0.5c1,0.5,2,1.2,2.9,1.9c1.1,0.9,2,1.9,2.9,3c1.1,1.4,2.1,2.9,2.8,4.5c1.2,2.5,1.9,5.1,2.5,7.8
					c0.7,2.9,1.5,8.4,2,11.5c0.3,1.9,1,5.5,1.3,7.3c0.4,2.4,0.5,4.8-0.1,7.1c-0.5,2.2-1.6,4.5-2.1,6.7c-0.1,0.6-0.2,1.2-0.1,1.8
					c0.1,0.3,0.2,0.5,0.3,0.7c0.2,0.2,0.5,0.4,0.7,0.5c1,0.5,2.2,0.6,3.3,1c0.3,0.1,0.7,0.3,0.9,0.6c0.1,0.2,0.2,0.4,0.1,0.6
					c0,0.4-0.2,0.8-0.4,1.1c-0.4,0.7-1,1.4-1.5,2c-0.6,0.7-1.3,1.3-2.2,1.7c-1.1,0.5-2.3,0.7-3.4,0.7c-1.3,0-2.7-0.2-4-0.6
					c-0.8-0.3-1.6-0.7-2.2-1.3c-0.8-0.9-1.2-2.1-1.3-3.3c-0.1-0.9,0-1.9,0.1-2.8c0.2-1.1,0.6-2.4,0.8-3.4c0.4-1.9,0.3-3.9,0.1-5.8"
					/>
			</g>
			<g id="POLYLINE_437_">
				<path class="st9" d="M201.1,86.3c-0.1,0.2-0.2,0.4-0.2,0.6c-0.1,0.4,0,0.8,0,1.2c0.1,1.4,0.2,2.9-0.1,4.3
					c-0.2,0.7-0.5,1.4-0.9,2.1c-0.7,1.1-1.7,1.9-2.7,2.7c-1.3,0.8-2.7,1.5-4.2,1.8c-1.5,0.3-3.2,0.1-4.7-0.1c-1-0.1-2.1-0.1-3,0.3
					c-0.8,0.3-1.6,0.9-2.2,1.5c-1,1-1.8,2.1-2.4,3.3c-0.7,1.3-1.2,2.8-1.3,4.3c-0.1,1.7,0.2,3.4,0.7,5.1c0.7,2.1,1.3,4.4,2.6,6.3
					c1.3,2,3.2,3.4,5.3,4.5c2.8,1.5,6,2.5,9.2,1.9c1.6-0.3,3.1-1,4.4-1.8c1.8-1.2,3.4-2.6,4.7-4.4c1.7-2.3,2.9-4.9,3.4-7.7
					c0.3-1.6,0.3-3.3-0.3-4.8c-0.4-1.1-1-2.1-1.3-3.2c-0.2-0.5-0.3-1-0.3-1.6c-0.1-0.9,0-1.9,0.2-2.8c0.3-2.2,0.9-4.8,0.6-7
					c-0.1-1-0.5-2-1-3c-0.7-1.3-1.7-2.5-2.9-3.3c-0.6-0.4-1.2-0.6-1.9-0.7c-0.3,0-0.6,0-0.8,0.1C201.4,85.9,201.3,86.1,201.1,86.3z"
					/>
			</g>
		</g>
	</g>
</g>
<g>
	<polygon class="st11" points="288.9,52.2 253.5,52.2 253.5,37.4 288.9,37.4 311.3,52.2 	"/>
	<rect x="253.5" y="39.6" class="st4" width="29.3" height="12.6"/>
	<text transform="matrix(1 0 0 1 256.404 50.3352)" class="st12 st6 st7">1,93</text>
</g>
<g>
	<polygon class="st11" points="158.7,74.1 123.3,74.1 123.3,59.3 158.7,59.3 181.1,74.1 	"/>
	<rect x="123.3" y="61.5" class="st4" width="29.3" height="12.6"/>
	<text transform="matrix(1 0 0 1 126.1959 72.2595)" class="st12 st6 st7">1,83</text>
</g>
<g>
	<polygon class="st13" points="76.2,100.6 40.7,100.6 40.7,85.7 76.2,85.7 98.5,93.1 	"/>
	<rect x="40.7" y="88" class="st4" width="29.3" height="12.6"/>
	<text transform="matrix(1 0 0 1 43.6223 98.7121)" class="st12 st6 st7">1,73</text>
</g>
<g>
	<polygon class="st13" points="76.2,121.6 40.7,121.6 40.7,106.7 76.2,106.7 98.5,114.2 	"/>
	<rect x="40.7" y="109" class="st4" width="29.3" height="12.6"/>
	<text transform="matrix(1 0 0 1 43.6223 119.7253)" class="st12 st6 st7">1,63</text>
</g>
<rect x="8" y="23.3" class="st4" width="71.2" height="33.5"/>
<text transform="matrix(1 0 0 1 8.0229 24.6369)" class="st6 st7">Promedio </text>
<text transform="matrix(1 0 0 1 8.0229 41.142)" class="st6 st7">hombres en </text>
<text transform="matrix(1 0 0 1 8.0229 57.6466)" class="st6 st7">América</text>
<rect x="139.9" y="464" class="st4" width="88.5" height="21.1"/>
<text transform="matrix(1 0 0 1 139.9023 473.8755)" class="st14 st7">Katie Ledecky</text>
<rect x="8" y="171.8" class="st4" width="71.2" height="33.5"/>
<text transform="matrix(1 0 0 1 8.0228 169.0956)" class="st6 st7">Promedio </text>
<text transform="matrix(1 0 0 1 8.0228 185.6002)" class="st6 st7">mujeres en </text>
<text transform="matrix(1 0 0 1 8.0228 202.1053)" class="st6 st7">América</text>
<g>
	<g>
		<g>
			<g>
				<path class="st15" d="M15,150.7v-19.9c0-8.5,6.9-15.5,15.5-15.5h5.9"/>
				<g>
					<polygon class="st1" points="19.1,147.3 18.4,146.7 15,150.3 11.7,146.7 11,147.3 15,151.7 					"/>
				</g>
			</g>
		</g>
	</g>
</g>
<g>
	<g>
		<g>
			<g>
				<path class="st15" d="M36.5,93.1h-5.9C22,93.1,15,86.2,15,77.7v-15"/>
				<g>
					<polygon class="st1" points="19.1,65.9 18.4,66.6 15,63 11.7,66.6 11,65.9 15,61.5 					"/>
				</g>
			</g>
		</g>
	</g>
</g>
<g>
	<g>
		<g>
			<rect x="98.9" y="464" class="st12" width="33" height="21.1"/>
		</g>
		<g>
			<g>
				<rect x="112.1" y="464" class="st16" width="19.8" height="1.6"/>
			</g>
			<g>
				<rect x="112.1" y="467.2" class="st16" width="19.8" height="1.6"/>
			</g>
			<g>
				<rect x="112.1" y="470.5" class="st16" width="19.8" height="1.6"/>
			</g>
			<g>
				<rect x="112.1" y="473.7" class="st16" width="19.8" height="1.6"/>
			</g>
			<g>
				<rect x="98.9" y="476.9" class="st16" width="33" height="1.6"/>
			</g>
			<g>
				<rect x="98.9" y="480.2" class="st16" width="33" height="1.6"/>
			</g>
			<g>
				<rect x="98.9" y="483.4" class="st16" width="33" height="1.6"/>
			</g>
		</g>
		<g>
			<rect x="98.9" y="464" class="st17" width="13.2" height="11.4"/>
		</g>
		<g>
			<g>
				<polygon class="st12" points="100,464.4 99.8,464.9 99.5,464.9 99.8,465.1 99.7,465.6 100,465.3 100.3,465.6 100.2,465.1 
					100.5,464.9 100.1,464.9 				"/>
			</g>
			<g>
				<polygon class="st12" points="102.2,464.4 102.1,464.9 101.7,464.9 102,465.1 101.9,465.6 102.2,465.3 102.5,465.6 102.4,465.1 
					102.7,464.9 102.3,464.9 				"/>
			</g>
			<g>
				<polygon class="st12" points="104.4,464.4 104.3,464.9 103.9,464.9 104.2,465.1 104.1,465.6 104.4,465.3 104.7,465.6 
					104.6,465.1 104.9,464.9 104.5,464.9 				"/>
			</g>
			<g>
				<polygon class="st12" points="106.6,464.4 106.5,464.9 106.1,464.9 106.4,465.1 106.3,465.6 106.6,465.3 106.9,465.6 
					106.8,465.1 107.1,464.9 106.7,464.9 				"/>
			</g>
			<g>
				<polygon class="st12" points="108.8,464.4 108.7,464.9 108.3,464.9 108.6,465.1 108.5,465.6 108.8,465.3 109.1,465.6 109,465.1 
					109.3,464.9 108.9,464.9 				"/>
			</g>
			<g>
				<polygon class="st12" points="111,464.4 110.9,464.9 110.5,464.9 110.8,465.1 110.7,465.6 111,465.3 111.3,465.6 111.2,465.1 
					111.5,464.9 111.1,464.9 				"/>
			</g>
			<g>
				<polygon class="st12" points="101.1,465.6 100.9,466 100.6,466 100.9,466.3 100.8,466.8 101.1,466.5 101.4,466.8 101.3,466.3 
					101.6,466 101.2,466 				"/>
			</g>
			<g>
				<polygon class="st12" points="103.3,465.6 103.2,466 102.8,466 103.1,466.3 103,466.8 103.3,466.5 103.6,466.8 103.5,466.3 
					103.8,466 103.4,466 				"/>
			</g>
			<g>
				<polygon class="st12" points="105.5,465.6 105.4,466 105,466 105.3,466.3 105.2,466.8 105.5,466.5 105.8,466.8 105.7,466.3 
					106,466 105.6,466 				"/>
			</g>
			<g>
				<polygon class="st12" points="107.7,465.6 107.6,466 107.2,466 107.5,466.3 107.4,466.8 107.7,466.5 108,466.8 107.9,466.3 
					108.2,466 107.8,466 				"/>
			</g>
			<g>
				<polygon class="st12" points="109.9,465.6 109.8,466 109.4,466 109.7,466.3 109.6,466.8 109.9,466.5 110.2,466.8 110.1,466.3 
					110.4,466 110,466 				"/>
			</g>
			<g>
				<polygon class="st12" points="100,466.7 99.8,467.2 99.5,467.2 99.8,467.5 99.7,467.9 100,467.6 100.3,467.9 100.2,467.5 
					100.5,467.2 100.1,467.2 				"/>
			</g>
			<g>
				<polygon class="st12" points="104.4,466.7 104.3,467.2 103.9,467.2 104.2,467.5 104.1,467.9 104.4,467.6 104.7,467.9 
					104.6,467.5 104.9,467.2 104.5,467.2 				"/>
			</g>
			<g>
				<polygon class="st12" points="106.6,466.7 106.5,467.2 106.1,467.2 106.4,467.5 106.3,467.9 106.6,467.6 106.9,467.9 
					106.8,467.5 107.1,467.2 106.7,467.2 				"/>
			</g>
			<g>
				<polygon class="st12" points="108.8,466.7 108.7,467.2 108.3,467.2 108.6,467.5 108.5,467.9 108.8,467.6 109.1,467.9 109,467.5 
					109.3,467.2 108.9,467.2 				"/>
			</g>
			<g>
				<polygon class="st12" points="111,466.7 110.9,467.2 110.5,467.2 110.8,467.5 110.7,467.9 111,467.6 111.3,467.9 111.2,467.5 
					111.5,467.2 111.1,467.2 				"/>
			</g>
			<g>
				<polygon class="st12" points="101.1,467.9 100.9,468.4 100.6,468.4 100.9,468.6 100.8,469.1 101.1,468.8 101.4,469.1 
					101.3,468.6 101.6,468.4 101.2,468.4 				"/>
			</g>
			<g>
				<polygon class="st12" points="103.3,467.9 103.2,468.4 102.8,468.4 103.1,468.6 103,469.1 103.3,468.8 103.6,469.1 103.5,468.6 
					103.8,468.4 103.4,468.4 				"/>
			</g>
			<g>
				<polygon class="st12" points="105.5,467.9 105.4,468.4 105,468.4 105.3,468.6 105.2,469.1 105.5,468.8 105.8,469.1 105.7,468.6 
					106,468.4 105.6,468.4 				"/>
			</g>
			<g>
				<polygon class="st12" points="107.7,467.9 107.6,468.4 107.2,468.4 107.5,468.6 107.4,469.1 107.7,468.8 108,469.1 107.9,468.6 
					108.2,468.4 107.8,468.4 				"/>
			</g>
			<g>
				<polygon class="st12" points="109.9,467.9 109.8,468.4 109.4,468.4 109.7,468.6 109.6,469.1 109.9,468.8 110.2,469.1 
					110.1,468.6 110.4,468.4 110,468.4 				"/>
			</g>
			<g>
				<polygon class="st12" points="100,469.1 99.8,469.5 99.5,469.5 99.8,469.8 99.7,470.2 100,470 100.3,470.2 100.2,469.8 
					100.5,469.5 100.1,469.5 				"/>
			</g>
			<g>
				<polygon class="st12" points="102.2,469.1 102.1,469.5 101.7,469.5 102,469.8 101.9,470.2 102.2,470 102.5,470.2 102.4,469.8 
					102.7,469.5 102.3,469.5 				"/>
			</g>
			<g>
				<polygon class="st12" points="104.4,469.1 104.3,469.5 103.9,469.5 104.2,469.8 104.1,470.2 104.4,470 104.7,470.2 104.6,469.8 
					104.9,469.5 104.5,469.5 				"/>
			</g>
			<g>
				<polygon class="st12" points="106.6,469.1 106.5,469.5 106.1,469.5 106.4,469.8 106.3,470.2 106.6,470 106.9,470.2 106.8,469.8 
					107.1,469.5 106.7,469.5 				"/>
			</g>
			<g>
				<polygon class="st12" points="108.8,469.1 108.7,469.5 108.3,469.5 108.6,469.8 108.5,470.2 108.8,470 109.1,470.2 109,469.8 
					109.3,469.5 108.9,469.5 				"/>
			</g>
			<g>
				<polygon class="st12" points="111,469.1 110.9,469.5 110.5,469.5 110.8,469.8 110.7,470.2 111,470 111.3,470.2 111.2,469.8 
					111.5,469.5 111.1,469.5 				"/>
			</g>
			<g>
				<polygon class="st12" points="101.1,470.2 100.9,470.7 100.6,470.7 100.9,471 100.8,471.4 101.1,471.1 101.4,471.4 101.3,471 
					101.6,470.7 101.2,470.7 				"/>
			</g>
			<g>
				<polygon class="st12" points="103.3,470.2 103.2,470.7 102.8,470.7 103.1,471 103,471.4 103.3,471.1 103.6,471.4 103.5,471 
					103.8,470.7 103.4,470.7 				"/>
			</g>
			<g>
				<polygon class="st12" points="105.5,470.2 105.4,470.7 105,470.7 105.3,471 105.2,471.4 105.5,471.1 105.8,471.4 105.7,471 
					106,470.7 105.6,470.7 				"/>
			</g>
			<g>
				<polygon class="st12" points="107.7,470.2 107.6,470.7 107.2,470.7 107.5,471 107.4,471.4 107.7,471.1 108,471.4 107.9,471 
					108.2,470.7 107.8,470.7 				"/>
			</g>
			<g>
				<polygon class="st12" points="100,471.4 99.8,471.8 99.5,471.8 99.8,472.1 99.7,472.6 100,472.3 100.3,472.6 100.2,472.1 
					100.5,471.8 100.1,471.8 				"/>
			</g>
			<g>
				<polygon class="st12" points="102.2,471.4 102.1,471.8 101.7,471.8 102,472.1 101.9,472.6 102.2,472.3 102.5,472.6 102.4,472.1 
					102.7,471.8 102.3,471.8 				"/>
			</g>
			<g>
				<polygon class="st12" points="104.4,471.4 104.3,471.8 103.9,471.8 104.2,472.1 104.1,472.6 104.4,472.3 104.7,472.6 
					104.6,472.1 104.9,471.8 104.5,471.8 				"/>
			</g>
			<g>
				<polygon class="st12" points="106.6,471.4 106.5,471.8 106.1,471.8 106.4,472.1 106.3,472.6 106.6,472.3 106.9,472.6 
					106.8,472.1 107.1,471.8 106.7,471.8 				"/>
			</g>
			<g>
				<polygon class="st12" points="108.8,471.4 108.7,471.8 108.3,471.8 108.6,472.1 108.5,472.6 108.8,472.3 109.1,472.6 109,472.1 
					109.3,471.8 108.9,471.8 				"/>
			</g>
			<g>
				<polygon class="st12" points="111,471.4 110.9,471.8 110.5,471.8 110.8,472.1 110.7,472.6 111,472.3 111.3,472.6 111.2,472.1 
					111.5,471.8 111.1,471.8 				"/>
			</g>
			<g>
				<polygon class="st12" points="101.1,472.6 100.9,473 100.6,473 100.9,473.3 100.8,473.7 101.1,473.5 101.4,473.7 101.3,473.3 
					101.6,473 101.2,473 				"/>
			</g>
			<g>
				<polygon class="st12" points="103.3,472.6 103.2,473 102.8,473 103.1,473.3 103,473.7 103.3,473.5 103.6,473.7 103.5,473.3 
					103.8,473 103.4,473 				"/>
			</g>
			<g>
				<polygon class="st12" points="105.5,472.6 105.4,473 105,473 105.3,473.3 105.2,473.7 105.5,473.5 105.8,473.7 105.7,473.3 
					106,473 105.6,473 				"/>
			</g>
			<g>
				<polygon class="st12" points="107.7,472.6 107.6,473 107.2,473 107.5,473.3 107.4,473.7 107.7,473.5 108,473.7 107.9,473.3 
					108.2,473 107.8,473 				"/>
			</g>
			<g>
				<polygon class="st12" points="109.9,472.6 109.8,473 109.4,473 109.7,473.3 109.6,473.7 109.9,473.5 110.2,473.7 110.1,473.3 
					110.4,473 110,473 				"/>
			</g>
			<g>
				<polygon class="st12" points="100,473.7 99.8,474.2 99.5,474.2 99.8,474.4 99.7,474.9 100,474.6 100.3,474.9 100.2,474.4 
					100.5,474.2 100.1,474.2 				"/>
			</g>
			<g>
				<polygon class="st12" points="102.2,473.7 102.1,474.2 101.7,474.2 102,474.4 101.9,474.9 102.2,474.6 102.5,474.9 102.4,474.4 
					102.7,474.2 102.3,474.2 				"/>
			</g>
			<g>
				<polygon class="st12" points="104.4,473.7 104.3,474.2 103.9,474.2 104.2,474.4 104.1,474.9 104.4,474.6 104.7,474.9 
					104.6,474.4 104.9,474.2 104.5,474.2 				"/>
			</g>
			<g>
				<polygon class="st12" points="106.6,473.7 106.5,474.2 106.1,474.2 106.4,474.4 106.3,474.9 106.6,474.6 106.9,474.9 
					106.8,474.4 107.1,474.2 106.7,474.2 				"/>
			</g>
			<g>
				<polygon class="st12" points="108.8,473.7 108.7,474.2 108.3,474.2 108.6,474.4 108.5,474.9 108.8,474.6 109.1,474.9 109,474.4 
					109.3,474.2 108.9,474.2 				"/>
			</g>
			<g>
				<polygon class="st12" points="111,473.7 110.9,474.2 110.5,474.2 110.8,474.4 110.7,474.9 111,474.6 111.3,474.9 111.2,474.4 
					111.5,474.2 111.1,474.2 				"/>
			</g>
			<g>
				<polygon class="st12" points="102.2,466.7 102.1,467.2 101.7,467.2 102,467.5 101.9,467.9 102.2,467.6 102.5,467.9 102.4,467.5 
					102.7,467.2 102.3,467.2 				"/>
			</g>
			<g>
				<polygon class="st12" points="109.9,470.2 109.8,470.7 109.4,470.7 109.7,471 109.6,471.4 109.9,471.1 110.2,471.4 110.1,471 
					110.4,470.7 110,470.7 				"/>
			</g>
		</g>
	</g>
</g>
<g>
	<rect x="302.6" y="464" class="st4" width="118.5" height="21.1"/>
	<text transform="matrix(1 0 0 1 302.5898 473.8755)" class="st14 st7">Michael Phelps</text>
</g>
<g>
	<g>
		<g>
			<rect x="261.6" y="464" class="st12" width="33" height="21.1"/>
		</g>
		<g>
			<g>
				<rect x="274.8" y="464" class="st16" width="19.8" height="1.6"/>
			</g>
			<g>
				<rect x="274.8" y="467.2" class="st16" width="19.8" height="1.6"/>
			</g>
			<g>
				<rect x="274.8" y="470.5" class="st16" width="19.8" height="1.6"/>
			</g>
			<g>
				<rect x="274.8" y="473.7" class="st16" width="19.8" height="1.6"/>
			</g>
			<g>
				<rect x="261.6" y="476.9" class="st16" width="33" height="1.6"/>
			</g>
			<g>
				<rect x="261.6" y="480.2" class="st16" width="33" height="1.6"/>
			</g>
			<g>
				<rect x="261.6" y="483.4" class="st16" width="33" height="1.6"/>
			</g>
		</g>
		<g>
			<rect x="261.6" y="464" class="st17" width="13.2" height="11.4"/>
		</g>
		<g>
			<g>
				<polygon class="st12" points="262.6,464.4 262.5,464.9 262.1,464.9 262.5,465.1 262.3,465.6 262.6,465.3 263,465.6 262.8,465.1 
					263.2,464.9 262.8,464.9 				"/>
			</g>
			<g>
				<polygon class="st12" points="264.9,464.4 264.7,464.9 264.4,464.9 264.7,465.1 264.6,465.6 264.9,465.3 265.2,465.6 
					265.1,465.1 265.4,464.9 265,464.9 				"/>
			</g>
			<g>
				<polygon class="st12" points="267.1,464.4 266.9,464.9 266.6,464.9 266.9,465.1 266.8,465.6 267.1,465.3 267.4,465.6 
					267.3,465.1 267.6,464.9 267.2,464.9 				"/>
			</g>
			<g>
				<polygon class="st12" points="269.3,464.4 269.2,464.9 268.8,464.9 269.1,465.1 269,465.6 269.3,465.3 269.6,465.6 269.5,465.1 
					269.8,464.9 269.4,464.9 				"/>
			</g>
			<g>
				<polygon class="st12" points="271.5,464.4 271.4,464.9 271,464.9 271.3,465.1 271.2,465.6 271.5,465.3 271.8,465.6 271.7,465.1 
					272,464.9 271.6,464.9 				"/>
			</g>
			<g>
				<polygon class="st12" points="273.7,464.4 273.6,464.9 273.2,464.9 273.5,465.1 273.4,465.6 273.7,465.3 274,465.6 273.9,465.1 
					274.2,464.9 273.8,464.9 				"/>
			</g>
			<g>
				<polygon class="st12" points="263.8,465.6 263.6,466 263.2,466 263.6,466.3 263.4,466.8 263.8,466.5 264.1,466.8 264,466.3 
					264.3,466 263.9,466 				"/>
			</g>
			<g>
				<polygon class="st12" points="266,465.6 265.9,466 265.5,466 265.8,466.3 265.7,466.8 266,466.5 266.3,466.8 266.2,466.3 
					266.5,466 266.1,466 				"/>
			</g>
			<g>
				<polygon class="st12" points="268.2,465.6 268.1,466 267.7,466 268,466.3 267.9,466.8 268.2,466.5 268.5,466.8 268.4,466.3 
					268.7,466 268.3,466 				"/>
			</g>
			<g>
				<polygon class="st12" points="270.4,465.6 270.3,466 269.9,466 270.2,466.3 270.1,466.8 270.4,466.5 270.7,466.8 270.6,466.3 
					270.9,466 270.5,466 				"/>
			</g>
			<g>
				<polygon class="st12" points="272.6,465.6 272.5,466 272.1,466 272.4,466.3 272.3,466.8 272.6,466.5 272.9,466.8 272.8,466.3 
					273.1,466 272.7,466 				"/>
			</g>
			<g>
				<polygon class="st12" points="262.6,466.7 262.5,467.2 262.1,467.2 262.5,467.5 262.3,467.9 262.6,467.6 263,467.9 262.8,467.5 
					263.2,467.2 262.8,467.2 				"/>
			</g>
			<g>
				<polygon class="st12" points="267.1,466.7 266.9,467.2 266.6,467.2 266.9,467.5 266.8,467.9 267.1,467.6 267.4,467.9 
					267.3,467.5 267.6,467.2 267.2,467.2 				"/>
			</g>
			<g>
				<polygon class="st12" points="269.3,466.7 269.2,467.2 268.8,467.2 269.1,467.5 269,467.9 269.3,467.6 269.6,467.9 269.5,467.5 
					269.8,467.2 269.4,467.2 				"/>
			</g>
			<g>
				<polygon class="st12" points="271.5,466.7 271.4,467.2 271,467.2 271.3,467.5 271.2,467.9 271.5,467.6 271.8,467.9 271.7,467.5 
					272,467.2 271.6,467.2 				"/>
			</g>
			<g>
				<polygon class="st12" points="273.7,466.7 273.6,467.2 273.2,467.2 273.5,467.5 273.4,467.9 273.7,467.6 274,467.9 273.9,467.5 
					274.2,467.2 273.8,467.2 				"/>
			</g>
			<g>
				<polygon class="st12" points="263.8,467.9 263.6,468.4 263.2,468.4 263.6,468.6 263.4,469.1 263.8,468.8 264.1,469.1 264,468.6 
					264.3,468.4 263.9,468.4 				"/>
			</g>
			<g>
				<polygon class="st12" points="266,467.9 265.9,468.4 265.5,468.4 265.8,468.6 265.7,469.1 266,468.8 266.3,469.1 266.2,468.6 
					266.5,468.4 266.1,468.4 				"/>
			</g>
			<g>
				<polygon class="st12" points="268.2,467.9 268.1,468.4 267.7,468.4 268,468.6 267.9,469.1 268.2,468.8 268.5,469.1 268.4,468.6 
					268.7,468.4 268.3,468.4 				"/>
			</g>
			<g>
				<polygon class="st12" points="270.4,467.9 270.3,468.4 269.9,468.4 270.2,468.6 270.1,469.1 270.4,468.8 270.7,469.1 
					270.6,468.6 270.9,468.4 270.5,468.4 				"/>
			</g>
			<g>
				<polygon class="st12" points="272.6,467.9 272.5,468.4 272.1,468.4 272.4,468.6 272.3,469.1 272.6,468.8 272.9,469.1 
					272.8,468.6 273.1,468.4 272.7,468.4 				"/>
			</g>
			<g>
				<polygon class="st12" points="262.6,469.1 262.5,469.5 262.1,469.5 262.5,469.8 262.3,470.2 262.6,470 263,470.2 262.8,469.8 
					263.2,469.5 262.8,469.5 				"/>
			</g>
			<g>
				<polygon class="st12" points="264.9,469.1 264.7,469.5 264.4,469.5 264.7,469.8 264.6,470.2 264.9,470 265.2,470.2 265.1,469.8 
					265.4,469.5 265,469.5 				"/>
			</g>
			<g>
				<polygon class="st12" points="267.1,469.1 266.9,469.5 266.6,469.5 266.9,469.8 266.8,470.2 267.1,470 267.4,470.2 267.3,469.8 
					267.6,469.5 267.2,469.5 				"/>
			</g>
			<g>
				<polygon class="st12" points="269.3,469.1 269.2,469.5 268.8,469.5 269.1,469.8 269,470.2 269.3,470 269.6,470.2 269.5,469.8 
					269.8,469.5 269.4,469.5 				"/>
			</g>
			<g>
				<polygon class="st12" points="271.5,469.1 271.4,469.5 271,469.5 271.3,469.8 271.2,470.2 271.5,470 271.8,470.2 271.7,469.8 
					272,469.5 271.6,469.5 				"/>
			</g>
			<g>
				<polygon class="st12" points="273.7,469.1 273.6,469.5 273.2,469.5 273.5,469.8 273.4,470.2 273.7,470 274,470.2 273.9,469.8 
					274.2,469.5 273.8,469.5 				"/>
			</g>
			<g>
				<polygon class="st12" points="263.8,470.2 263.6,470.7 263.2,470.7 263.6,471 263.4,471.4 263.8,471.1 264.1,471.4 264,471 
					264.3,470.7 263.9,470.7 				"/>
			</g>
			<g>
				<polygon class="st12" points="266,470.2 265.9,470.7 265.5,470.7 265.8,471 265.7,471.4 266,471.1 266.3,471.4 266.2,471 
					266.5,470.7 266.1,470.7 				"/>
			</g>
			<g>
				<polygon class="st12" points="268.2,470.2 268.1,470.7 267.7,470.7 268,471 267.9,471.4 268.2,471.1 268.5,471.4 268.4,471 
					268.7,470.7 268.3,470.7 				"/>
			</g>
			<g>
				<polygon class="st12" points="270.4,470.2 270.3,470.7 269.9,470.7 270.2,471 270.1,471.4 270.4,471.1 270.7,471.4 270.6,471 
					270.9,470.7 270.5,470.7 				"/>
			</g>
			<g>
				<polygon class="st12" points="262.6,471.4 262.5,471.8 262.1,471.8 262.5,472.1 262.3,472.6 262.6,472.3 263,472.6 262.8,472.1 
					263.2,471.8 262.8,471.8 				"/>
			</g>
			<g>
				<polygon class="st12" points="264.9,471.4 264.7,471.8 264.4,471.8 264.7,472.1 264.6,472.6 264.9,472.3 265.2,472.6 
					265.1,472.1 265.4,471.8 265,471.8 				"/>
			</g>
			<g>
				<polygon class="st12" points="267.1,471.4 266.9,471.8 266.6,471.8 266.9,472.1 266.8,472.6 267.1,472.3 267.4,472.6 
					267.3,472.1 267.6,471.8 267.2,471.8 				"/>
			</g>
			<g>
				<polygon class="st12" points="269.3,471.4 269.2,471.8 268.8,471.8 269.1,472.1 269,472.6 269.3,472.3 269.6,472.6 269.5,472.1 
					269.8,471.8 269.4,471.8 				"/>
			</g>
			<g>
				<polygon class="st12" points="271.5,471.4 271.4,471.8 271,471.8 271.3,472.1 271.2,472.6 271.5,472.3 271.8,472.6 271.7,472.1 
					272,471.8 271.6,471.8 				"/>
			</g>
			<g>
				<polygon class="st12" points="273.7,471.4 273.6,471.8 273.2,471.8 273.5,472.1 273.4,472.6 273.7,472.3 274,472.6 273.9,472.1 
					274.2,471.8 273.8,471.8 				"/>
			</g>
			<g>
				<polygon class="st12" points="263.8,472.6 263.6,473 263.2,473 263.6,473.3 263.4,473.7 263.8,473.5 264.1,473.7 264,473.3 
					264.3,473 263.9,473 				"/>
			</g>
			<g>
				<polygon class="st12" points="266,472.6 265.9,473 265.5,473 265.8,473.3 265.7,473.7 266,473.5 266.3,473.7 266.2,473.3 
					266.5,473 266.1,473 				"/>
			</g>
			<g>
				<polygon class="st12" points="268.2,472.6 268.1,473 267.7,473 268,473.3 267.9,473.7 268.2,473.5 268.5,473.7 268.4,473.3 
					268.7,473 268.3,473 				"/>
			</g>
			<g>
				<polygon class="st12" points="270.4,472.6 270.3,473 269.9,473 270.2,473.3 270.1,473.7 270.4,473.5 270.7,473.7 270.6,473.3 
					270.9,473 270.5,473 				"/>
			</g>
			<g>
				<polygon class="st12" points="272.6,472.6 272.5,473 272.1,473 272.4,473.3 272.3,473.7 272.6,473.5 272.9,473.7 272.8,473.3 
					273.1,473 272.7,473 				"/>
			</g>
			<g>
				<polygon class="st12" points="262.6,473.7 262.5,474.2 262.1,474.2 262.5,474.4 262.3,474.9 262.6,474.6 263,474.9 262.8,474.4 
					263.2,474.2 262.8,474.2 				"/>
			</g>
			<g>
				<polygon class="st12" points="264.9,473.7 264.7,474.2 264.4,474.2 264.7,474.4 264.6,474.9 264.9,474.6 265.2,474.9 
					265.1,474.4 265.4,474.2 265,474.2 				"/>
			</g>
			<g>
				<polygon class="st12" points="267.1,473.7 266.9,474.2 266.6,474.2 266.9,474.4 266.8,474.9 267.1,474.6 267.4,474.9 
					267.3,474.4 267.6,474.2 267.2,474.2 				"/>
			</g>
			<g>
				<polygon class="st12" points="269.3,473.7 269.2,474.2 268.8,474.2 269.1,474.4 269,474.9 269.3,474.6 269.6,474.9 269.5,474.4 
					269.8,474.2 269.4,474.2 				"/>
			</g>
			<g>
				<polygon class="st12" points="271.5,473.7 271.4,474.2 271,474.2 271.3,474.4 271.2,474.9 271.5,474.6 271.8,474.9 271.7,474.4 
					272,474.2 271.6,474.2 				"/>
			</g>
			<g>
				<polygon class="st12" points="273.7,473.7 273.6,474.2 273.2,474.2 273.5,474.4 273.4,474.9 273.7,474.6 274,474.9 273.9,474.4 
					274.2,474.2 273.8,474.2 				"/>
			</g>
			<g>
				<polygon class="st12" points="264.9,466.7 264.7,467.2 264.4,467.2 264.7,467.5 264.6,467.9 264.9,467.6 265.2,467.9 
					265.1,467.5 265.4,467.2 265,467.2 				"/>
			</g>
			<g>
				<polygon class="st12" points="272.6,470.2 272.5,470.7 272.1,470.7 272.4,471 272.3,471.4 272.6,471.1 272.9,471.4 272.8,471 
					273.1,470.7 272.7,470.7 				"/>
			</g>
		</g>
	</g>
</g>
</svg>
