<?xml version="1.0" encoding="UTF-8"?>
<svg id="Capa_1" data-name="Capa 1" xmlns="http://www.w3.org/2000/svg" viewBox="0 0 580 580">
  <defs>
    <style>
      .cls-1 {
        stroke-dasharray: 0 0 2.47 3.3;
      }

      .cls-1, .cls-2, .cls-3, .cls-4, .cls-5, .cls-6, .cls-7, .cls-8, .cls-9, .cls-10, .cls-11 {
        fill: none;
      }

      .cls-1, .cls-2, .cls-3, .cls-4, .cls-5, .cls-6, .cls-7, .cls-9, .cls-10, .cls-11 {
        stroke: #1d1e1c;
        stroke-miterlimit: 10;
      }

      .cls-1, .cls-2, .cls-3, .cls-4, .cls-5, .cls-6, .cls-9, .cls-10, .cls-11 {
        stroke-width: .77px;
      }

      .cls-2 {
        stroke-dasharray: 0 0 2.47 3.3;
      }

      .cls-3 {
        stroke-dasharray: 0 0 2.47 3.3;
      }

      .cls-4 {
        stroke-dasharray: 0 0 2.47 3.3;
      }

      .cls-12 {
        fill: #f2c5c1;
      }

      .cls-13 {
        fill: red;
      }

      .cls-14 {
        fill: #dd6f53;
      }

      .cls-15 {
        fill: #1d1e1c;
      }

      .cls-16 {
        fill: #727272;
      }

      .cls-5 {
        stroke-dasharray: 0 0 2.47 3.3;
      }

      .cls-17 {
        fill: #1d1d1b;
      }

      .cls-17, .cls-18 {
        font-size: 14.63px;
      }

      .cls-17, .cls-18, .cls-19 {
        font-family: Roboto-Regular, Roboto;
      }

      .cls-18 {
        fill: #fff;
      }

      .cls-19 {
        font-size: 11px;
      }

      .cls-8 {
        stroke: #fff;
        stroke-linecap: round;
        stroke-linejoin: round;
        stroke-width: 1.63px;
      }

      .cls-20 {
        letter-spacing: 0em;
      }

      .cls-9 {
        stroke-dasharray: 0 0 2.47 3.3;
      }

      .cls-10 {
        stroke-dasharray: 0 0 2.47 3.3;
      }

      .cls-11 {
        stroke-dasharray: 0 0 2.47 3.3;
      }
    </style>
  </defs>
  <g>
    <g>
      <g>
        <line class="cls-6" x1="128.45" y1="62.86" x2="451.55" y2="62.86"/>
        <rect class="cls-15" x="128.06" y="60.35" width=".77" height="5.02"/>
        <rect class="cls-15" x="451.17" y="60.35" width=".77" height="5.02"/>
      </g>
      <g>
        <line class="cls-6" x1="128.45" y1="108.15" x2="129.69" y2="108.14"/>
        <line class="cls-1" x1="132.98" y1="108.14" x2="448.66" y2="107.99"/>
        <line class="cls-6" x1="450.31" y1="107.99" x2="451.55" y2="107.99"/>
        <rect class="cls-15" x="128.06" y="105.63" width=".77" height="5.02"/>
        <rect class="cls-15" x="451.17" y="105.48" width=".77" height="5.02"/>
      </g>
      <g>
        <line class="cls-6" x1="128.45" y1="153.43" x2="129.69" y2="153.43"/>
        <line class="cls-10" x1="132.98" y1="153.43" x2="448.66" y2="153.12"/>
        <line class="cls-6" x1="450.31" y1="153.11" x2="451.55" y2="153.11"/>
        <rect class="cls-15" x="128.06" y="150.92" width=".77" height="5.02"/>
        <rect class="cls-15" x="451.17" y="150.6" width=".77" height="5.02"/>
      </g>
      <g>
        <line class="cls-6" x1="128.45" y1="198.72" x2="129.69" y2="198.71"/>
        <line class="cls-3" x1="132.98" y1="198.71" x2="448.66" y2="198.24"/>
        <line class="cls-6" x1="450.31" y1="198.24" x2="451.55" y2="198.24"/>
        <rect class="cls-15" x="128.06" y="196.2" width=".77" height="5.02" transform="translate(-.29 .19) rotate(-.08)"/>
        <rect class="cls-15" x="451.17" y="195.73" width=".77" height="5.02" transform="translate(-.29 .66) rotate(-.08)"/>
      </g>
      <g>
        <line class="cls-6" x1="128.45" y1="244" x2="129.69" y2="244"/>
        <line class="cls-5" x1="132.98" y1="243.99" x2="448.66" y2="243.37"/>
        <line class="cls-6" x1="450.31" y1="243.37" x2="451.55" y2="243.37"/>
        <rect class="cls-15" x="128.06" y="241.49" width=".77" height="5.02" transform="translate(-.48 .25) rotate(-.11)"/>
        <rect class="cls-15" x="451.17" y="240.86" width=".77" height="5.02" transform="translate(-.47 .88) rotate(-.11)"/>
      </g>
      <g>
        <line class="cls-6" x1="128.45" y1="289.29" x2="451.55" y2="288.49"/>
        <rect class="cls-15" x="128.06" y="286.77" width=".77" height="5.02" transform="translate(-.71 .32) rotate(-.14)"/>
        <rect class="cls-15" x="451.17" y="285.98" width=".77" height="5.02" transform="translate(-.71 1.11) rotate(-.14)"/>
      </g>
      <g>
        <line class="cls-6" x1="128.45" y1="334.57" x2="129.69" y2="334.57"/>
        <line class="cls-9" x1="132.98" y1="334.56" x2="448.66" y2="333.63"/>
        <line class="cls-6" x1="450.31" y1="333.62" x2="451.55" y2="333.62"/>
        <rect class="cls-15" x="128.06" y="332.06" width=".77" height="5.02" transform="translate(-.99 .38) rotate(-.17)"/>
        <rect class="cls-15" x="451.17" y="331.11" width=".77" height="5.02" transform="translate(-.97 1.32) rotate(-.17)"/>
      </g>
      <g>
        <line class="cls-6" x1="128.45" y1="379.86" x2="129.69" y2="379.85"/>
        <line class="cls-11" x1="132.98" y1="379.84" x2="448.66" y2="378.76"/>
        <line class="cls-6" x1="450.31" y1="378.75" x2="451.55" y2="378.75"/>
        <rect class="cls-15" x="128.06" y="377.35" width=".77" height="5.02" transform="translate(-1.3 .44) rotate(-.2)"/>
        <rect class="cls-15" x="451.17" y="376.24" width=".77" height="5.02" transform="translate(-1.3 1.55) rotate(-.2)"/>
      </g>
      <g>
        <line class="cls-6" x1="128.45" y1="425.14" x2="129.69" y2="425.14"/>
        <line class="cls-2" x1="132.98" y1="425.12" x2="448.66" y2="423.88"/>
        <line class="cls-6" x1="450.31" y1="423.88" x2="451.55" y2="423.87"/>
        <rect class="cls-15" x="128.06" y="422.63" width=".77" height="5.02" transform="translate(-1.68 .51) rotate(-.23)"/>
        <rect class="cls-15" x="451.17" y="421.36" width=".77" height="5.02" transform="translate(-1.67 1.79) rotate(-.23)"/>
      </g>
      <g>
        <line class="cls-6" x1="128.45" y1="470.43" x2="129.69" y2="470.42"/>
        <line class="cls-4" x1="132.98" y1="470.41" x2="448.66" y2="469.01"/>
        <line class="cls-6" x1="450.31" y1="469.01" x2="451.55" y2="469"/>
        <rect class="cls-15" x="128.06" y="467.92" width=".77" height="5.02" transform="translate(-2.08 .57) rotate(-.25)"/>
        <rect class="cls-15" x="451.17" y="466.49" width=".77" height="5.02" transform="translate(-2.07 2) rotate(-.25)"/>
      </g>
      <g>
        <line class="cls-6" x1="128.45" y1="515.71" x2="451.55" y2="514.13"/>
        <rect class="cls-15" x="128.06" y="513.2" width=".77" height="5.02" transform="translate(-2.52 .64) rotate(-.28)"/>
        <rect class="cls-15" x="451.17" y="511.62" width=".77" height="5.02" transform="translate(-2.51 2.22) rotate(-.28)"/>
      </g>
    </g>
    <text class="cls-17" transform="translate(466.07 65.7)"><tspan x="0" y="0">2</tspan></text>
    <text class="cls-17" transform="translate(466.07 110.99)"><tspan x="0" y="0">1,80</tspan></text>
    <text class="cls-17" transform="translate(466.07 155.76)"><tspan x="0" y="0">1,60</tspan></text>
    <text class="cls-17" transform="translate(466.07 201.08)"><tspan x="0" y="0">1,40</tspan></text>
    <text class="cls-17" transform="translate(466.07 246.84)"><tspan x="0" y="0">1,20</tspan></text>
    <text class="cls-17" transform="translate(466.07 292.13)"><tspan x="0" y="0">1</tspan></text>
  </g>
  <g>
    <g>
      <path class="cls-14" d="m437.47,315.12c-.45-2.52-1.32-5.82-1.23-8.38.04-1.65.53-3.4.81-5.03.08-.5.14-1.02.14-1.53,0-.7-.08-1.42-.19-2.11-.32-1.86-.72-4.15-.81-6.02-.33-5.27-.09-10.85.2-16.13l1.27-16.51c.23-3.8.36-7.71.06-11.5-.3-3.82-.97-7.63-2.06-11.3-.38-1.28-.83-2.6-1.32-3.84-.75-1.89-2.04-4.71-2.68-6.63-.48-1.39-.87-2.84-1.11-4.29-.25-1.46-.38-3-.46-4.48-.29-4.49-.05-10.15-1.15-14.52-.46-1.86-1.39-3.84-2.07-5.64-.31-.86-.57-1.76-.6-2.68-.06-1.58.46-3.45.76-5.01.74-3.84.71-7.82.4-11.7-.44-4.76-1.3-9.62-3.51-13.91-1.79-3.48-4.74-6.32-8.23-8.07-1.5-.77-3.13-1.31-4.77-1.72-1.48-.38-3.65-.79-5.05-1.38-.63-.26-1.21-.63-1.76-1.03-.97-.73-2.03-1.53-3.12-2.07-2.45-1.28-7.46-2.99-10.09-4.01-1.74-.69-3.58-1.41-5.19-2.38-.41-.26-.83-.55-1.15-.92-.26-.29-.45-.65-.56-1.03-.19-.67-.23-1.38-.29-2.06-.07-1.07-.08-2.32-.09-3.39,0-3.36-.05-9.37.08-12.66.12-.09.27-.13.43-.15.47-.03.96.12,1.43.11,1.01,0,1.91-.62,2.62-1.28,1.72-1.62,2.69-3.86,3.26-6.12.35-1.42.55-2.9.51-4.37-.03-.79-.11-1.59-.43-2.32-.15-.34-.37-.65-.67-.87-.32-.24-.73-.34-1.13-.34.16-2.72.31-5.65.17-8.37-.07-1.51-.38-3.47-.43-4.97-.08-1.59.22-3.51.35-5.1.07-.95.1-1.93-.11-2.87-.1-.42-.24-.83-.47-1.19-.23-.37-.55-.69-.89-.95-1.38-1.03-3.53-1.56-5.13-2.15-.82-.29-1.67-.62-2.45-1.01-1.14-.55-2.68-1.46-3.79-2.1-1.05-.6-2.15-1.2-3.29-1.61-.79-.28-1.62-.46-2.46-.43-1.45.05-2.81.64-4.1,1.27-1.01.51-2.59,1.35-3.62,1.79-.71.3-1.51.58-2.25.81-2.18.68-4.69,1.23-6.71,2.31-2.4,1.27-4.26,3.4-5.44,5.83-1.11,2.26-1.75,4.74-2.1,7.23-.42,3.16-.36,6.42.4,9.52-.22,0-.46.03-.67.13-.17.08-.32.22-.43.37-.2.28-.3.62-.39.96-.16.67-.23,1.38-.26,2.07-.06,1.66.06,3.34.36,4.97.19.99.44,1.99.92,2.89.34.65.81,1.24,1.42,1.66.56.39,1.21.63,1.87.78.7.18,1.54.28,2.13.72.22,2.98.15,6.09.01,9.07-.12,1.82-.2,4.21-.43,6-.14,1.05-.34,2.1-.72,3.09-.37.99-.91,1.91-1.56,2.74-1.26,1.62-2.95,2.85-4.8,3.71-3.06,1.4-6.77,2.28-9.88,3.55-2.8,1.11-5.58,2.86-8.3,4.17-2.33,1.17-5.93,2.21-8.44,3.05-1.69.59-3.41,1.25-4.91,2.25-1.01.67-1.91,1.52-2.65,2.48-.94,1.22-1.66,2.61-2.24,4.03-.73,1.79-1.31,3.68-1.81,5.55-.76,2.92-1.36,5.99-1.74,8.98-.34,2.68-.51,5.43-.31,8.13.18,2.38.54,5.14.08,7.5-.7,3.75-2.4,7.69-2.94,11.48-.35,2.29-.43,4.66-.43,6.97.06,5.14.24,11.22-.53,16.29-.16,1.13-.38,2.29-.65,3.4-.3,1.26-1.32,4.52-1.71,5.84-.48,1.68-.89,3.42-1.13,5.16-.39,2.8-.46,5.69-.42,8.51.11,6.26.77,12.67,1.63,18.87.58,4.23,1.8,10.98,2.43,15.23.29,2.09.56,4.29.6,6.4.06,2-.21,4.51-.33,6.52-.12,1.7-.05,3.43.18,5.12l.49,3.57c.15,1.22.27,2.48.23,3.71-.03,1.52-.37,3.5-.57,5.02-.18,1.43-.29,2.89-.14,4.32.28,2.63,1.22,5.15,2.21,7.59.51,1.19,1.72,4.04,2.23,5.19.51,1.12,1.06,2.25,1.84,3.21.52.64,1.16,1.19,1.87,1.6,1.74,1,3.76,1.41,5.72,1.7,1.28.16,2.59.36,3.88.23-.89,6.84-.4,13.86.28,20.71.28,2.44.63,6.12,1.05,8.51.12.68.26,1.37.46,2.03.22.71.5,1.45,1.03,1.99.14,3.91.62,8.69,1.06,12.6.13,1.27.21,2.6.21,3.87-.02,5.25-1.1,10.49-2.46,15.54-1.46,5.26-3.76,12.93-4.81,18.26-.84,4.09-1.41,8.37-1.72,12.53-.87,11.98-.24,25.76.17,37.81.08,3.73.13,7.59-.61,11.26-.46,2.21-1.92,7.77-2.51,9.97-.55,1.93-1.29,3.84-2.45,5.48-1.18,1.69-2.7,3.12-4.32,4.38-1.3,1-2.7,1.91-4.18,2.64-1.17.58-2.42,1.05-3.67,1.44-1.12.37-3.1.82-4.21,1.23-.22.08-.43.18-.62.31-.16.11-.3.25-.39.41-.12.21-.17.45-.2.69-.1.87-.12,1.76.02,2.63.09.52.24,1.05.55,1.48.37.52.99.77,1.6.89.61.12,1.26.14,1.88.17.29,0,1.6.02,1.92.01h26.54c1.06-.04,2.17-.06,3.21-.28.46-.11.93-.26,1.32-.55.75-.55,1.02-1.51,1.08-2.4.1-1.8-.24-3.62-.96-5.27-.44-1-1.02-2.18-1.25-3.25-.25-1.14-.26-2.32-.12-3.48.12-1.12.58-2.73.85-3.84.32-1.31.51-2.67.55-4.02.08-2.51.16-5.42.56-7.9.61-4.24,2.34-10.85,3.34-15.06.9-3.66,2.4-9.99,3.47-13.54,1.44-4.96,4.07-11.69,5.35-16.69.79-3.05,1.29-6.22,1.57-9.36.39-3.91.42-10.94.51-14.96.06-1.59.1-3.3.47-4.85.24-1.03.67-2.01,1.13-2.96.75-1.51,2.12-4.14,2.76-5.67.74-1.71,1.38-3.49,1.84-5.29.55-2.14.85-4.41,1.06-6.61.48-5.08.64-11.07.79-16.2.34-.25.5-.65.64-1.04.06-.17.12-.37.16-.54l.03-.12.07-.25.98-4.06c1.44-5.77,6.08-22.05,7.74-27.98,1.15-4.13,2.11-8.43,2.58-12.7.23-1.82.52-5.23.87-6.99.06-.25.12-.51.23-.75.07-.15.18-.29.32-.39.22-.16.49-.22.76-.25.49-.05,1.01.06,1.42.34.47.32.74.85.93,1.38.17.48.27,1,.35,1.5.29,1.81.38,4.86.55,6.69.68,7.95,3.63,19.6,5.31,27.51.85,4.12,2.04,9.27,2.53,13.42.06.5.08,1.35.24,1.83.08.23.21.44.41.59l-.05,16.87c.03,2.15.09,4.38.45,6.51.28,1.71.77,3.4,1.42,5,1.21,3.02,3.64,6.91,5.01,9.87.25.54.48,1.11.63,1.68.31,1.12.24,2.31.16,3.46-.38,4.81-1.16,12.7-1.25,17.45-.04,1.95.01,3.96.24,5.9.17,1.53.46,3.09.87,4.58.46,1.7,1.1,3.41,1.76,5.05l2.69,6.43c.78,1.93,1.49,3.96,2.01,5.98.7,2.63,1.19,5.42,1.57,8.11.81,6.06,1.7,13.13,2.08,19.21.06,1.04.09,2.21.08,3.25,0,.84-.09,2.53-.07,3.37.01.68.13,1.36.3,2.02l.59,2.1c.23.88.41,1.79.47,2.7.07,1.06,0,2.15-.11,3.21-.22,2.28-.76,5.11-.4,7.38.12.78.35,1.56.79,2.21.28.41.66.77,1.11,1,.59.32,1.27.45,1.93.54,1.17.28,25.5.08,27.48.13,1.03-.02,2.11-.03,3.12-.25.83-.17,1.7-.56,2.1-1.35.24-.48.27-1.05.14-1.57-.1-.39-.28-.76-.52-1.09-.47-.66-1.12-1.17-1.79-1.61-2.24-1.39-5.11-2.48-7.4-3.79-2.26-1.25-4.34-2.86-6.14-4.71-2.29-2.36-4.23-5.09-5.47-8.14-1.3-3.17-1.9-6.6-2.14-10-.14-2.03-.15-4.17-.08-6.21.07-2.76,1.42-19.66,1.66-22.85.34-6,.71-12.98.65-18.96-.04-4.02-.3-8.12-1.04-12.08-1.03-5.61-3.35-12.53-4.86-18.06-.35-1.3-.7-2.71-.94-4.03-.34-1.81-.51-3.67-.4-5.51.12-2.38.71-4.98.75-7.37,0-1.33-.01-2.92.2-4.22.18-1.32.74-3.28,1.07-4.59.72-2.81,1.2-5.71,1.36-8.61.71-.59,1.2-1.4,1.53-2.25.5-1.27.73-2.65.96-3.99,1.29-7.99,2.18-16.22,2.06-24.32-.05-3.99-.32-8.34-.64-12.32-.41-5.13-5.48-51.8-6.09-57.1-.25-1.85-.48-3.81-1.03-5.59-.3-.96-.78-1.88-1.26-2.76.27-.5.44-1.05.57-1.6.21-.93.3-1.92.36-2.87.18-3.54-.06-7.16-.49-10.68-.35-2.87-1.12-6.56-1.19-9.44-.05-1.6.14-3.22.48-4.78.25-1.18.63-2.51.97-3.67,1.45-4.67,3.79-12.8,5.55-17.25.63,2.96,1.47,6.72,2.25,9.62.78,2.94,2.12,7.69,2.67,10.63,1.02,4.76,1.33,12.3,1.73,17.22.31,3.83.86,7.75,1.7,11.5,1.53,7.01,4.29,15.12,6.29,22.03.84,2.95,1.69,6.09,2.23,9.1.19,1.09.34,2.21.28,3.31-.04.84-.2,1.66-.47,2.46-.53,1.6-1.66,3.6-2.4,5.14-.85,1.74-1.61,3.56-2.04,5.46-.96,4.3-.64,9.09-.65,13.49.03,2.14-.27,5.07-.47,7.22-.16,1.88-.19,3.86.58,5.62.34.77.82,1.52,1.55,1.96.56.35,1.23.46,1.88.47.94,0,1.89-.11,2.81-.3,1.42-.3,2.82-.82,4.03-1.63.86-.57,1.61-1.31,2.23-2.13,1.75-2.36,2.69-5.21,3.43-8.03.54-2.13.96-4.33,1.04-6.52.08-1.8-.11-3.61-.44-5.37Zm-105.7-70.94c-.43,2.51-1.22,6.6-1.45,9.1-.32,3.39-.42,6.87-.15,10.26.04.39.07.81.18,1.2.04.14.1.28.18.41-.52.8-1.06,1.65-1.37,2.55-.75,2.23-.93,4.69-1.17,7.03-.43,5.11-1.3,17.93-2,22.84-.51,4.18-1.85,10.05-2.73,14.23-.7,3.44-1.28,7.94-1.73,11.45-.85-4.08-1.94-8.19-3.59-12.03-.79-1.86-1.97-4.2-2.59-6.12-.81-2.4-1.36-4.93-1.73-7.44-.29-2-.46-4.06-.45-6.08,0-2.16.2-4.39.48-6.53,1.39-10.18,4.42-22.24,4.97-32.49.14-2.44.16-5.05.11-7.5-.06-2.28-.23-6.09-.09-8.32.1-2.19.38-4.5.66-6.67.74-5.53,2-12.56,2.98-18.11.63,1.15,1.39,2.66,1.96,3.84.87,1.9,5.08,10.7,5.79,12.48.74,1.79,1.4,3.65,1.82,5.54.29,1.3.46,2.63.49,3.96.05,2.13-.22,4.29-.56,6.39Z"/>
      <g id="_2D_AG-SPORTS" data-name="2D$AG-SPORTS">
        <g id="POLYLINE">
          <path class="cls-8" d="m319.13,340.65c-1.12,8.72-.08,17.7.92,26.39.2,1.37.36,2.89.7,4.24.17.66.37,1.33.69,1.93.23.42.55.79.95,1.06.6.39,1.31.57,2,.74,3.72.8,7.7.86,11.49.95,4.04.04,8.41,0,12.45-.2.68-.04,1.48-.07,2.16-.17.28-.05.57-.12.8-.29.26-.2.42-.5.54-.8.14-.36.25-.77.35-1.14,2.09-9.04,6.81-24.96,9.26-34.06.78-2.99,1.45-6.11,1.85-9.18.28-2.05.61-5.52.9-7.56.06-.41.14-.85.24-1.25.07-.24.15-.49.32-.68.23-.25.58-.35.9-.38.63-.06,1.31.14,1.74.61.23.24.39.54.51.85.19.47.31.98.4,1.48.28,1.52.42,4.59.54,6.18.14,1.88.4,3.96.69,5.82,1.59,9.86,4.98,22.65,6.71,32.47.17,1.08.4,2.34.51,3.43.05.36.08,1.27.18,1.63.05.21.13.42.26.59.13.16.3.28.48.37.31.15.65.24.98.31,1.57.3,4.02.28,5.64.35,5.6.09,12.98.69,18.49-.07,1.69-.26,3.46-.68,4.77-1.84,1.3-1.17,1.77-2.94,2.12-4.59.97-5.47,1.71-11.26,2.09-16.79.33-4.79.32-9.8.07-14.59-.22-7.73-5.3-51.65-6.12-60.18-.22-1.85-.6-5.5-.99-7.38-.16-.79-.34-1.62-.63-2.38-.07-.19-.16-.41-.24-.6l-.04-.09-.09-.19-.09-.18-.09-.18-.18-.36-.38-.73"/>
        </g>
        <g id="POLYLINE-2" data-name="POLYLINE">
          <path class="cls-8" d="m330.52,265.14c-.52.8-1.06,1.65-1.37,2.55-.75,2.23-.93,4.69-1.17,7.03-.44,5.19-1.29,17.86-2,22.84-.5,4.16-1.86,10.08-2.73,14.23-.7,3.43-1.28,7.95-1.73,11.45"/>
        </g>
        <g id="POLYLINE-3" data-name="POLYLINE">
          <path class="cls-8" d="m347.39,105.87c-.77-3.1-.82-6.36-.4-9.52.34-2.49.99-4.97,2.1-7.23,1.18-2.42,3.04-4.56,5.44-5.83,2.02-1.08,4.53-1.63,6.71-2.31.74-.23,1.54-.51,2.25-.81,1.03-.43,2.62-1.28,3.62-1.79,1.28-.63,2.65-1.22,4.1-1.27.84-.03,1.67.15,2.46.43,1.14.41,2.24,1.01,3.29,1.61,1.11.64,2.65,1.55,3.79,2.1.78.38,1.63.72,2.45,1.01,1.6.59,3.75,1.12,5.13,2.15.35.26.66.58.89.95.23.36.38.77.47,1.19.21.94.18,1.92.11,2.87-.13,1.59-.43,3.51-.35,5.1.05,1.51.36,3.47.43,4.97.14,2.72-.02,5.65-.17,8.37"/>
        </g>
        <g id="POLYLINE-4" data-name="POLYLINE">
          <path class="cls-8" d="m352.35,120.42c-.59-.44-1.43-.54-2.13-.72-.7-.17-1.39-.42-1.97-.86-1.36-1.01-1.88-2.72-2.2-4.3-.38-1.99-.52-4.06-.32-6.08.05-.43.12-.88.23-1.3.07-.24.15-.48.28-.69.13-.22.33-.41.57-.51.19-.07.39-.09.59-.1.26,0,.52.02.77.06.46.08.92.24,1.3.52.34.24.61.57.81.93.71,1.31.95,2.92,1.4,4.33.09.27.19.55.33.81.08.14.19.28.33.36.08.04.17.06.26.05.09-.02.16-.07.22-.13h0c.1-.12.16-.26.22-.41.22-.67.27-1.42.34-2.12.1-1.45.26-4.06.43-5.46.27-2.32.71-4.72,1.22-6.99.36-1.57.8-3.24,1.31-4.77.2-.58.41-1.18.67-1.74.31-.65.76-1.27,1.42-1.61.44-.23.94-.34,1.43-.39.85-.08,1.71,0,2.54.16,1.54.28,3.05.8,4.47,1.47,1.55.71,3.62,2.18,5.07,3.1.99.62,2.04,1.19,3.14,1.57.81.29,1.66.46,2.51.57,1.67.25,3.82.23,5.46.62.56.14,1.15.37,1.52.83.33.4.47.92.53,1.42.16,1.37-.13,3.61-.18,5-.09,2.08-.22,4.25-.01,6.32.04.28.07.57.19.83h0s0,.02,0,.02h0s0,.02,0,.02h0s0,.02,0,.02h0s0,.02,0,.02h0s0,.01,0,.01h0s0,.01,0,.01h0s0,.01,0,.01h0c.06.06.14.05.21,0,.18-.11.31-.3.44-.47l.68-.96c.56-.76,1.21-1.53,2.12-1.87.53-.2,1.13-.26,1.68-.09.34.1.64.31.86.59.36.46.53,1.05.63,1.62.18,1.13.13,2.31,0,3.44-.19,1.5-.56,3-1.12,4.4-.5,1.23-1.17,2.41-2.07,3.4-.59.64-1.29,1.23-2.11,1.56-.25.09-.51.16-.77.18-.36.04-.77-.04-1.12-.08-.32-.04-.67-.07-.94.13-.15.11-.26.28-.35.44-.19.38-.3.8-.4,1.21-.47,2.13-.75,4.4-1.63,6.42-1.52,3.6-4.27,6.77-7.82,8.48-2.66,1.27-5.8,1.69-8.63.78-1.92-.61-3.59-1.84-4.93-3.32-2.61-2.88-4.1-6.57-5.25-10.23-.47-1.48-.91-3.27-1.32-4.76-.08-.27-.17-.55-.28-.81-.16-.37-.38-.74-.71-.99Z"/>
        </g>
        <g id="POLYLINE-5" data-name="POLYLINE">
          <path class="cls-8" d="m377.4,373.49l-.05,16.87c.03,2.15.09,4.38.45,6.51.28,1.71.77,3.4,1.42,5,1.2,3.02,3.64,6.92,5.01,9.87.25.54.48,1.11.63,1.68.31,1.12.24,2.31.16,3.46-.39,4.84-1.15,12.67-1.25,17.45-.04,1.95.01,3.96.24,5.9.17,1.53.46,3.09.87,4.58.46,1.69,1.1,3.42,1.76,5.05l2.69,6.43c.78,1.94,1.49,3.96,2.01,5.98.7,2.63,1.19,5.42,1.57,8.11.81,6.07,1.7,13.12,2.08,19.21.07,1.21.1,2.54.08,3.75-.01.53-.08,2.34-.06,2.86.01.68.13,1.36.3,2.02l.59,2.1c.23.88.41,1.79.47,2.7.07,1.06,0,2.15-.11,3.21-.22,2.29-.76,5.1-.4,7.38.12.78.35,1.56.79,2.21.29.43.68.78,1.14,1.02.59.31,1.25.44,1.9.52,1.1.28,25.6.08,27.48.13,1.05-.02,2.16-.03,3.19-.26.82-.18,1.68-.59,2.05-1.38.24-.5.25-1.08.11-1.6-.11-.41-.32-.79-.58-1.13-.49-.63-1.13-1.13-1.8-1.56-2.31-1.41-5.24-2.52-7.58-3.88-2.16-1.23-4.14-2.78-5.87-4.56-2.29-2.36-4.23-5.09-5.47-8.14-1.3-3.17-1.9-6.6-2.14-10-.14-2.02-.15-4.18-.08-6.2.05-2.8,1.45-19.75,1.66-22.85.34-6.02.71-12.96.65-18.96-.04-4.02-.3-8.12-1.04-12.08-1.03-5.6-3.36-12.54-4.86-18.06-.35-1.3-.7-2.71-.94-4.03-.34-1.81-.51-3.67-.4-5.51.12-2.38.71-4.98.75-7.37,0-1.33-.01-2.91.2-4.22.18-1.31.74-3.29,1.07-4.59.72-2.81,1.2-5.71,1.36-8.61"/>
        </g>
        <g id="POLYLINE-6" data-name="POLYLINE">
          <path class="cls-8" d="m321.95,373.89c.14,3.9.62,8.69,1.06,12.6.14,1.39.23,2.84.2,4.24-.07,5.13-1.13,10.24-2.46,15.18-1.73,6.24-4.17,14.27-5.24,20.54-.96,5.32-1.43,10.82-1.6,16.21-.43,10.91.33,24,.53,34.96,0,1.89-.05,3.85-.28,5.72-.11.98-.28,1.99-.49,2.96-.16.88-1.83,7.22-2.07,8.24-.47,1.74-.98,3.51-1.83,5.1-.86,1.66-2.08,3.12-3.44,4.39-1.12,1.04-2.34,2-3.62,2.83-2.14,1.42-4.55,2.41-7.02,3.11-.76.22-2.76.71-3.47,1.03-.19.09-.38.19-.54.32-.28.23-.4.57-.46.92-.08.58-.11,1.18-.09,1.77.03.61.1,1.23.32,1.8.13.35.33.69.62.94.33.29.75.44,1.17.54.8.18,1.65.19,2.46.2,3.31-.05,27.45.14,30.13-.11.63-.07,1.28-.16,1.87-.41.45-.19.84-.5,1.1-.91.51-.8.56-1.79.54-2.71-.04-1.5-.37-2.99-.98-4.37-.44-1.01-1.02-2.18-1.25-3.25-.25-1.14-.26-2.32-.12-3.48.12-1.11.58-2.74.85-3.84.32-1.31.51-2.67.55-4.02.07-2.53.16-5.43.56-7.9.61-4.21,2.34-10.84,3.34-15.06.91-3.71,2.39-9.97,3.47-13.54,1.44-4.97,4.07-11.68,5.35-16.69.79-3.05,1.29-6.22,1.57-9.36.39-3.89.42-10.99.51-14.96.06-1.59.1-3.3.47-4.85.24-1.03.67-2.02,1.13-2.96.76-1.53,2.12-4.13,2.76-5.67.74-1.71,1.38-3.49,1.84-5.29.55-2.14.85-4.41,1.06-6.61.48-5.08.64-11.08.79-16.2"/>
        </g>
        <g id="POLYLINE-7" data-name="POLYLINE">
          <path class="cls-8" d="m322.26,211.96c.63,1.15,1.38,2.65,1.96,3.84.9,1.96,5.07,10.67,5.79,12.48.74,1.79,1.4,3.65,1.82,5.54.29,1.3.46,2.63.49,3.96.05,2.13-.22,4.29-.56,6.39-.5,2.92-1.32,7.09-1.54,10-.18,2.18-.25,4.47-.21,6.66.05,1.2.07,2.46.26,3.64.05.27.13.54.31.75.21.24.49.39.77.53.92.44,1.92.71,2.9.96,3.13.78,6.46,1.24,9.67,1.62,4.8.54,9.9.85,14.73,1,10.24.31,20.66-.09,30.82-1.44,3.38-.47,7.2-1.01,10.53-1.77.67-.17,1.35-.38,1.93-.78.41-.28.76-.67,1-1.11.43-.75.62-1.61.76-2.46.3-1.96.3-4.01.26-5.99-.07-2.23-.25-4.57-.53-6.79-.2-1.78-.8-5.14-1-6.93-.18-1.53-.27-3.1-.12-4.64.12-1.3.38-2.6.69-3.86.48-1.9,3.08-10.31,3.69-12.3.75-2.39,1.66-5.09,2.55-7.42"/>
        </g>
        <g id="POLYLINE-8" data-name="POLYLINE">
          <path class="cls-8" d="m383.69,123.19c-.13,3.29-.08,9.3-.08,12.66,0,1.07.03,2.32.09,3.39.05.69.1,1.4.29,2.06.11.38.3.74.56,1.03.33.37.74.66,1.15.92,1.6.98,3.44,1.69,5.19,2.38,2.63,1.02,7.64,2.73,10.09,4.01,1.09.54,2.15,1.34,3.12,2.07.55.4,1.14.77,1.76,1.03,1.4.59,3.56,1,5.05,1.38,1.64.41,3.26.94,4.77,1.72,3.49,1.75,6.45,4.59,8.23,8.07,2.21,4.28,3.07,9.14,3.51,13.91.31,3.88.34,7.87-.4,11.7-.3,1.56-.82,3.43-.76,5.01.03.92.28,1.82.6,2.68.68,1.79,1.61,3.78,2.07,5.64,1.1,4.37.86,10.03,1.15,14.52.09,1.48.22,3.02.46,4.48.24,1.45.63,2.9,1.11,4.29.65,1.92,1.94,4.74,2.68,6.63.49,1.24.94,2.56,1.32,3.84,1.09,3.67,1.76,7.48,2.06,11.3.3,3.79.18,7.7-.06,11.5l-1.27,16.51c-.3,5.27-.53,10.86-.2,16.13.1,1.87.49,4.16.81,6.02.11.69.19,1.41.19,2.11,0,.51-.06,1.03-.14,1.53-.28,1.62-.77,3.37-.81,5.03-.09,2.55.78,5.86,1.23,8.38.33,1.76.52,3.58.44,5.37-.08,2.2-.5,4.4-1.04,6.52-.73,2.81-1.68,5.67-3.43,8.03-.62.83-1.37,1.56-2.23,2.13-1.21.81-2.61,1.33-4.03,1.63-.92.19-1.87.31-2.81.3-.65-.01-1.32-.12-1.88-.47-.73-.45-1.21-1.19-1.55-1.96-.77-1.76-.74-3.74-.58-5.62.2-2.16.5-5.08.47-7.22,0-4.39-.31-9.18.65-13.49.43-1.89,1.19-3.72,2.04-5.46.73-1.54,1.87-3.55,2.4-5.14.27-.79.43-1.62.47-2.46.06-1.1-.09-2.22-.28-3.31-.54-3.01-1.4-6.16-2.23-9.1-2-6.91-4.77-15.02-6.29-22.03-.84-3.75-1.39-7.67-1.7-11.5-.22-2.76-.7-10.39-1.05-13-.21-1.71-.52-3.51-.88-5.2-.71-3.37-2.15-8.3-2.99-11.65-1.36-5.33-2.93-13.6-4.01-19.06"/>
        </g>
        <g id="POLYLINE-9" data-name="POLYLINE">
          <path class="cls-8" d="m325.07,196.98c-1.51,7.62-3.72,19.92-4.97,27.59-.51,3.3-1.06,6.96-1.35,10.26-.36,3.61-.05,8.07-.01,11.72.04,4.17-.21,8.42-.75,12.55-.96,7.58-3.31,18.35-4.35,25.94-.29,2.26-.5,4.61-.47,6.89.02,2.62.32,5.27.81,7.84.46,2.38,1.09,4.77,2.01,7.02,1.07,2.53,2.46,5.34,3.3,7.94,1.28,3.86,2.21,7.88,2.86,11.89.37,2.36.66,4.8.67,7.18,0,1.35-.07,2.74-.44,4.04-.86,3.09-3.41,3.01-6.09,2.7-2.34-.29-4.78-.68-6.85-1.89-.71-.42-1.33-.98-1.84-1.62-.75-.94-1.29-2.04-1.78-3.13-.51-1.16-1.72-4-2.23-5.19-.99-2.43-1.93-4.96-2.21-7.59-.15-1.43-.04-2.9.14-4.32.2-1.53.53-3.5.57-5.02.03-1.23-.08-2.49-.23-3.71l-.49-3.57c-.23-1.69-.29-3.42-.18-5.12.12-2.01.39-4.53.33-6.52-.04-2.11-.31-4.31-.6-6.4-.63-4.25-1.85-11-2.43-15.23-.86-6.2-1.52-12.61-1.63-18.87-.03-2.82.03-5.72.42-8.51.24-1.73.64-3.48,1.13-5.16.39-1.32,1.41-4.57,1.71-5.84.27-1.11.49-2.27.65-3.4.77-5.06.58-11.14.53-16.29,0-2.31.08-4.68.43-6.97.54-3.79,2.23-7.73,2.94-11.48.46-2.36.09-5.12-.08-7.5-.2-2.7-.03-5.44.31-8.13.38-2.99.98-6.06,1.74-8.98.5-1.87,1.07-3.76,1.81-5.55.59-1.42,1.3-2.81,2.24-4.03.74-.96,1.64-1.81,2.65-2.48,1.5-1,3.22-1.66,4.91-2.25,2.51-.84,6.12-1.88,8.44-3.05,2.72-1.31,5.49-3.06,8.3-4.17,3.11-1.27,6.82-2.14,9.88-3.55,1.85-.86,3.54-2.1,4.8-3.71.65-.83,1.19-1.76,1.56-2.74.38-.99.59-2.04.72-3.09.24-1.79.32-4.18.43-6,.14-2.98.21-6.09-.01-9.07"/>
        </g>
        <g id="POLYLINE-10" data-name="POLYLINE">
          <path class="cls-8" d="m375.01,204.33c.91.5,2,1.24,2.93,1.66.67.32,1.38.57,2.09.76,1.48.39,3.05.54,4.58.66,3.15.23,6.46.22,9.61.13,2.25-.1,4.8-.16,7.01-.51.72-.13,1.41-.38,2.02-.79.65-.44,1.22-1,1.76-1.56.97-1.01,1.89-2.15,2.72-3.28,1.66-2.28,3.13-4.73,4.23-7.33.73-1.74,1.3-3.58,1.49-5.46"/>
        </g>
        <g id="POLYLINE-11" data-name="POLYLINE">
          <path class="cls-8" d="m364.82,204.98c-1.88.85-3.86,1.68-5.89,2.07-1.85.37-3.81.53-5.7.63-3.09.16-6.86.15-9.96.13-3.92-.09-8.18-.22-11.55-2.46-2.52-1.7-4.32-4.24-5.82-6.84-1.72-2.99-3.11-6.22-3.82-9.61"/>
        </g>
      </g>
    </g>
    <g>
      <path class="cls-12" d="m316.47,239.48c-.24-.88-.59-1.9-.88-2.77-1.96-5.68-4.43-11.28-7.72-16.32-3.1-4.8-7.74-9.78-11.16-14.36-1.13-1.51-2.2-3.14-3.11-4.79-1.43-2.57-3.21-6.78-4.44-9.47-1.9-4.11-4.23-8.09-7.22-11.52-1.98-2.26-4.29-4.3-6.97-5.69-2.94-1.52-6.22-2.25-9.48-2.7-2.07-.25-7.79-.94-9.83-1.1-.33-.34-.74-.6-1.16-.82-.45-.22-.94-.4-1.45-.45,1.07-.69,1.93-1.65,2.72-2.64.38-.5.76-1.03,1-1.62.11-.27.19-.56.18-.85,0-.18-.06-.36-.16-.5-.13-.2-.34-.33-.55-.44-.23-.12-.48-.21-.73-.28-1.02-.32-2.28-.51-3.25-.95-.39-.18-.78-.42-1.04-.77-.42-.56-.45-1.31-.38-1.98.2-1.68,1.05-3.69,1.6-5.29.38-1.08.76-2.22,1.01-3.34.21-.95.34-1.94.38-2.92.06-1.33-.02-2.69-.18-4.02-.2-1.86-1.02-5.9-1.35-7.78-.16-.85-1.23-7.87-1.4-8.89-1.14-6.78-2.68-13.88-7.1-19.35-1.6-2-3.49-3.83-5.72-5.11-.69-.39-1.43-.73-2.2-.93-.7-.18-1.43-.24-2.16-.23l-1.45.04c-.41,0-.83-.01-1.24-.07-.75-.11-1.8-.41-2.55-.55-1.27-.25-2.58-.23-3.84.07-1.8.42-3.5,1.21-5.12,2.09-2.3,1.26-4.48,2.78-6.5,4.46-1.81,1.52-3.53,3.2-5,5.05-1.03,1.31-1.96,2.73-2.59,4.28-.92,2.23-1.14,4.68-1.1,7.08.03,2.09.21,4.72-.13,6.76-.52,3.17-2.09,6.3-2.92,9.38-.59,2.08-.87,4.26-.71,6.42.2,3.19,1.04,6.5,1.41,9.67.13,1.24.21,2.51-.03,3.74-.13.66-.37,1.3-.79,1.83-.34.44-.79.78-1.26,1.06-.98.59-2.29.96-3.37,1.34-.34.12-.7.26-1.02.44-.15.09-.3.19-.41.33h0s0,.02,0,.02h0s0,.02,0,.02h0s0,.02,0,.02h0s0,.02,0,.02h0s0,.03,0,.03h0s0,.03,0,.03h0s0,.02,0,.02h0s0,.02,0,.02h0s0,.02,0,.02h0s0,.02,0,.02h0s0,.02,0,.02h0s0,.02,0,.02h0s0,.02,0,.02h0s0,.02,0,.02h0s0,.03,0,.03h0s0,.03,0,.03h0v.03h0c0,.33.19.61.38.86.53.66,1.22,1.16,1.92,1.62,2.37,1.52,5.24,2.54,8.08,2.06-.34.64-.6,1.33-.72,2.05-.83.09-1.67.29-2.47.51-.62.19-2.27.61-2.84.85-.47.19-.92.46-1.21.89-.19.01-.57.04-.75.06-2.28.25-5.2.46-7.42.93-1.86.38-3.71.93-5.43,1.75-1.96.93-3.77,2.2-5.41,3.62-2.09,1.81-3.97,3.92-5.58,6.16-2.18,2.94-3.99,6.89-5.61,10.18-.82,1.64-1.76,3.24-2.85,4.7-2.18,2.9-5.18,6.29-7.21,9.27-4.15,5.97-7.97,12.43-11.47,18.81-1.26,2.37-2.5,4.83-3.38,7.37-.44,1.29-.8,2.62-.87,3.98-.09,1.58.27,3.15.81,4.63.84,2.29,1.97,4.58,3.05,6.77,4.81,8.97,12.27,24.32,17.62,32.74,2.36,3.64,5.08,7.25,8.83,9.55,2.1,1.29,4.52,2.12,7.01,2.16,1.86.05,3.72-.33,5.51-.78l2.12-.55-5.84,20.5c-3.22,11.82-5.95,24.1-5.48,36.42.14,4.3.63,8.8,1.21,13.07.46,3.45,2.02,12.56,2.42,16,.2,1.69.33,4.21.78,5.83.24.86.65,1.69,1.26,2.35-.7,7.55-1.32,15.77-2.79,23.19-.7,3.63-2.31,8.22-3.38,11.79-.79,2.71-1.42,5.53-1.8,8.33-.69,5.05-.91,10.43-1.06,15.54-.16,7.46-.15,16.37,0,23.82.04,2.89.66,14.14.38,16.81-.13,1.78-.69,3.63-1.19,5.33-.21.74-.38,1.5-.46,2.27-.14,1.25-.04,3.1-.02,4.38.02,1.55-.03,3.17-.74,4.58-.48.97-1.27,1.76-2.18,2.34-.68.44-1.44.78-2.2,1.07-1.72.68-3.97,1.32-5.66,2.08-.72.32-1.43.7-2.02,1.23-.73.65-1.27,1.63-1.13,2.63.1.75.58,1.39,1.24,1.74.48.27,1.02.41,1.56.51,1,.18,2.06.21,3.08.22,1.37-.04,19.44.1,20.35-.07.35-.05.71-.15.99-.37.5-.4.66-1.08.75-1.68.09-.71.06-1.43,0-2.14-.16-1.85-.71-4.07-1.01-5.91-.2-1.26-.14-2.55.19-3.79.52-2.05,1.33-4.16,1.59-6.27.21-1.69.31-3.74.52-5.44.26-2.29.71-4.63,1.23-6.87,1.9-8.65,6.06-19.1,9.1-27.47.86-2.45,1.76-5.08,2.28-7.62.42-2.01.61-4.12.71-6.18l.46-12.22c.25-4.96.71-10.03,2.26-14.77.42-1.32.95-2.7,1.49-3.97.68-1.56,1.48-3.36,1.97-4.98,1.49-4.93,2.22-10.24,2.96-15.33.75-.42,1.21-1.19,1.58-1.94.6-1.27,1.02-2.7,1.39-4.06.81-3.06,2.04-8.49,2.85-11.54,1.33-4.96,4.45-16.28,5.56-21.11,1.36-5.59,2.65-13.61,3.66-19.32.2-.99.37-2.11.74-3.06.08-.18.17-.36.3-.5.31-.35.82-.46,1.27-.39.29.05.58.17.8.37.37.35.56.83.71,1.31.19.64.3,1.34.39,2,.63,5.74,1.59,13.43,2.49,19.13,1.65,11.11,4.81,25.31,6.62,36.42.07.42.14.88.31,1.27.08.19.2.36.34.51.16.17.35.3.55.42.2,5.23.54,10.58,1.88,15.66,1.39,5.17,4.01,10.43,5.11,15.68.91,4.3,1.05,9.92,1.36,14.33.28,3.94.68,8.02,1.53,11.88,1.02,4.74,2.65,9.43,4.47,13.92,1.67,4.08,5.08,11.92,6.43,15.99,1.09,3.19,2.03,6.53,2.77,9.82.45,2.03.86,4.15,1.06,6.21.15,1.37.12,2.95.18,4.33.06,1.55.67,3.67,1.01,5.2.23,1.04.42,2.12.48,3.19.07,1.41-.06,3.07-.1,4.49,0,.81.02,1.66.34,2.42.21.5.57.94,1.02,1.26.76.53,1.69.76,2.6.91,1.7.27,3.5.29,5.22.32,2.17-.06,14.48.15,16.36-.14.46-.07.93-.17,1.31-.44.21-.15.37-.36.47-.6.17-.44.18-.95.16-1.41-.04-.61-.19-1.25-.58-1.73-.39-.47-.97-.71-1.53-.92-3.39-1.15-7.13-2.05-9.84-4.52-1.37-1.25-2.45-2.84-2.98-4.63-.45-1.49-.45-3.33-.54-4.88-.13-3.04-1.39-6.22-1.52-9.26-.04-.79-.02-1.64,0-2.43.24-4.7.44-10.64.4-15.32-.07-7.87-.44-16.67-1.03-24.52-.55-7.41-1.57-14.94-3.4-22.15-.69-2.83-3.19-11.68-3.58-14.41-.11-.71-.18-1.46-.22-2.18-.09-1.91,0-5.5-.08-7.41-.08-3.07-.34-6.78-.61-9.85.77-1.02,1.17-2.26,1.53-3.47l1.08-3.95c1.72-5.85,3.83-12.59,4.99-18.53.78-3.87,1.28-7.88,1.48-11.83.53-10.52-.59-21.19-2.01-31.6-.58-4.01-1.34-8.27-2.28-12.21-1.09-4.68-2.9-10.57-4.27-15.21.87.05,3.7.44,4.61.55,2.11.22,4.32.4,6.36-.27,1.32-.44,2.48-1.24,3.52-2.16.75-.66,1.48-1.43,2.16-2.17,5.13-5.77,11.39-12.03,16.14-18.09,3.79-4.79,7.39-10,10.59-15.21,1.98-3.29,3.98-6.74,5.42-10.3.55-1.41,1.05-2.89,1.03-4.41,0-.84-.18-1.67-.41-2.47Zm-120.28,16.52c-.52,7.97-2.64,15.95-4.66,23.66-1.38.06-2.79.15-4.15.4-.91.17-1.82.43-2.7.73-1.7.57-3.62,1.46-5.44,1.37-.39-.03-.79-.11-1.15-.28-.39-.18-.74-.44-1.04-.75-.79-.79-1.32-1.81-1.79-2.81-3.67-8.55-8.92-27.68-12.15-36.52-.05-.21-.08-.43-.04-.65.1-.48.38-.91.64-1.32,1.14-1.66,2.67-3.27,4.01-4.77,4.92-5.32,10.31-11.1,14.5-16.99.75-1.06,1.5-2.21,2.14-3.34.36-.61,1.05-1.98,1.43-2.57.09-.14.19-.29.31-.41.05-.05.11-.11.18-.15h0s0,0,0,0h0s0,0,0,0h0s0,0,0,0h0s0,0,0,0h0s0,0,0,0h0s0,0,0,0h0s0,0,0,0h0s0,0,0,0h0s0,0,0,0h.04s0,0,0,0h0s0,0,0,0h0s0,0,0,0h0s0,0,0,0h0s0,0,0,0h0s0,0,0,0h0s0,0,0,0h0s0,0,0,0h0s0,0,0,0h0s0,0,0,0h0s0,0,0,0h0s0,.01,0,.01h0s0,.01,0,.01h0s0,.01,0,.01c.08.09.14.2.19.31.22.54.34,1.15.46,1.72.23,1.1.58,2.93.87,3.99.32,1.24.74,2.6,1.15,3.81,1.53,4.43,3.49,9.16,5.42,13.43l.93,6.94c.58,4.66.9,9.44.56,14.13Zm97.25-13.46c-3.92,9.29-7.96,22.27-12.55,31.2-.81,1.51-1.69,3.02-2.82,4.32-.75.86-1.64,1.66-2.74,2.02-1.01.34-2.11.23-3.12-.08-1.79-.53-3.8-1.84-5.44-2.74-1.48-.81-3.05-1.6-4.75-1.72-1.5-6.78-2.54-13.77-2.48-20.73.05-8.09,1.8-17.1,2.79-25.13l1.94-3.01c.89-1.42,1.69-2.92,2.34-4.47,1.05-2.45,2.27-6.84,3.08-9.43.3-.92.61-1.92,1.04-2.78.09-.16.18-.32.3-.46h.01s.01-.03.01-.03h.01s.01-.02.01-.02h.01s.01-.02.01-.02h.01s.01-.02.01-.02h.01s.01-.02.01-.02h.01s.01-.01.01-.01h.01s.01-.01.01-.01h.01s.01,0,.01,0h0s0,0,0,0h0s0,0,0,0h0s0,0,0,0h0s0,0,0,0h0s0,0,0,0h0s0,0,0,0h0s0,0,0,0h.04s0,0,0,0h0s0,0,0,0h0s0,0,0,0h0s0,0,0,0h0s0,0,0,0h0s0,0,0,0h0s0,0,0,0h0s0,0,0,0h0s0,0,0,0h0s0,0,0,0c.12.07.2.19.27.31.22.36.5,1.13.67,1.53.25.6.55,1.21.87,1.77.59,1.06,1.32,2.12,2.02,3.1,1.28,1.84,16.16,20.75,17.8,22.93.3.42.62.86.76,1.36.2.73-.11,1.47-.37,2.14Z"/>
      <g id="_2D_AG-SPORTS-2" data-name="2D$AG-SPORTS">
        <g id="POLYLINE-12" data-name="POLYLINE">
          <path class="cls-8" d="m238.43,392.05c.2,5.23.54,10.58,1.88,15.66,1.39,5.17,4.01,10.43,5.11,15.68.91,4.3,1.05,9.92,1.36,14.33.28,3.94.68,8.02,1.53,11.88,1.02,4.74,2.65,9.43,4.47,13.92,1.67,4.08,5.08,11.92,6.43,15.99,1.09,3.19,2.03,6.53,2.77,9.82.45,2.03.86,4.15,1.06,6.21.15,1.37.12,2.95.18,4.33.06,1.55.67,3.67,1.01,5.2.23,1.04.42,2.12.48,3.19.07,1.41-.06,3.07-.1,4.49,0,.81.02,1.66.34,2.42.21.5.57.94,1.02,1.26.76.53,1.69.76,2.6.91,1.7.27,3.5.29,5.22.32,2.17-.06,14.48.15,16.36-.14.46-.07.93-.17,1.31-.44.21-.15.37-.36.47-.6.17-.44.18-.95.16-1.41-.04-.61-.19-1.25-.58-1.73-.39-.47-.97-.71-1.53-.92-3.39-1.15-7.13-2.05-9.84-4.52-1.37-1.25-2.45-2.84-2.98-4.63-.45-1.49-.45-3.33-.54-4.88-.13-3.04-1.39-6.22-1.52-9.26-.04-.79-.02-1.64,0-2.43.24-4.7.44-10.64.4-15.32-.07-7.87-.44-16.67-1.03-24.52-.55-7.41-1.57-14.94-3.4-22.15-.69-2.83-3.19-11.68-3.58-14.41-.11-.71-.18-1.46-.22-2.18-.09-1.91,0-5.5-.08-7.41-.08-3.07-.34-6.78-.61-9.85"/>
        </g>
        <g id="POLYLINE-13" data-name="POLYLINE">
          <path class="cls-8" d="m181.39,389.77c-.7,7.55-1.32,15.77-2.79,23.19-.7,3.63-2.31,8.22-3.38,11.79-.79,2.71-1.42,5.53-1.8,8.33-.69,5.05-.91,10.43-1.06,15.54-.16,7.46-.15,16.37,0,23.82.04,2.89.66,14.14.38,16.81-.13,1.78-.69,3.63-1.19,5.33-.21.74-.38,1.5-.46,2.27-.14,1.25-.04,3.1-.02,4.38.02,1.55-.03,3.17-.74,4.58-.48.97-1.27,1.76-2.18,2.34-.68.44-1.44.78-2.2,1.07-1.72.68-3.97,1.32-5.66,2.08-.72.32-1.43.7-2.02,1.23-.73.65-1.27,1.63-1.13,2.63.1.75.58,1.39,1.24,1.74.48.27,1.02.41,1.56.51,1,.18,2.06.21,3.08.22,1.37-.04,19.44.1,20.35-.07.35-.05.71-.15.99-.37.5-.4.66-1.08.75-1.68.09-.71.06-1.43,0-2.14-.16-1.85-.71-4.07-1.01-5.91-.2-1.26-.14-2.55.19-3.79.52-2.05,1.33-4.16,1.59-6.27.21-1.69.31-3.74.52-5.44.26-2.29.71-4.63,1.23-6.87,1.9-8.65,6.06-19.1,9.1-27.47.86-2.45,1.76-5.08,2.28-7.62.42-2.01.61-4.12.71-6.18l.46-12.22c.25-4.96.71-10.03,2.26-14.77.42-1.32.95-2.7,1.49-3.97.68-1.56,1.48-3.36,1.97-4.98,1.49-4.93,2.22-10.24,2.96-15.33"/>
        </g>
        <g id="POLYLINE-14" data-name="POLYLINE">
          <path class="cls-8" d="m187.04,295.61l-5.84,20.5c-3.22,11.82-5.95,24.1-5.48,36.42.14,4.3.63,8.8,1.21,13.07.46,3.45,2.02,12.56,2.42,16,.12,1.05.34,3.58.51,4.59.19,1.19.54,2.4,1.32,3.35.61.75,1.42,1.33,2.27,1.79,1.34.72,2.82,1.17,4.3,1.5,4.26.9,8.7.84,13.03.67,2.1-.13,4.55-.24,6.63-.5.32-.05.65-.11.95-.22.33-.11.64-.28.91-.51.34-.28.6-.64.82-1.01.62-1.06,1.02-2.27,1.38-3.44.64-2.03,1.85-7.38,2.38-9.53,1.63-6.51,4.89-17.92,6.4-24.4.67-2.81,1.37-6.28,1.89-9.13.35-1.87,1.71-10.26,2.14-12.01.11-.44.22-.95.42-1.36.08-.17.19-.34.33-.47.27-.24.64-.34,1-.32.36.01.72.15.99.39.2.19.35.42.47.67.17.36.28.76.38,1.15.14.61.24,1.31.32,1.94.73,6.91,1.85,15.3,2.98,22.14,1.6,9.94,4.57,23.58,6.16,33.54.06.29.14.57.28.83.11.19.25.37.42.51.24.2.52.35.8.47.49.21,1.02.36,1.53.49,1.59.38,3.28.57,4.91.73,2.45.23,5.18.32,7.65.36,2.47.02,5.03.02,7.48-.3,1.38-.19,2.77-.46,4.04-1.04.75-.35,1.45-.83,1.98-1.47.84-1.02,1.27-2.3,1.63-3.55l1.1-4.04c1.72-5.85,3.83-12.59,4.99-18.53.78-3.87,1.28-7.88,1.48-11.83.53-10.52-.58-21.19-2.01-31.6-.58-4.01-1.34-8.27-2.28-12.21-1.09-4.68-2.9-10.57-4.27-15.21"/>
        </g>
        <g id="POLYLINE-15" data-name="POLYLINE">
          <path class="cls-8" d="m204.6,172.03c-.83.09-1.67.29-2.47.51-.54.17-2.21.6-2.71.8-.44.17-.88.39-1.2.75-.36.41-.53.95-.64,1.48-.13.61-.19,1.26-.24,1.88-.14,2-.38,4.31-.68,6.29l-2.24,13.87c-.9,6.13-1.59,12.44-1.49,18.64.05,7.81,1.78,18.5,2.78,26.32.57,4.68.81,9.47.42,14.17-.6,7.71-2.65,15.46-4.6,22.91"/>
        </g>
        <g id="POLYLINE-16" data-name="POLYLINE">
          <path class="cls-8" d="m194.69,234.93c-1.93-4.28-3.89-9-5.43-13.43-.41-1.22-.83-2.57-1.15-3.81-.28-1.06-.64-2.9-.87-3.99-.13-.57-.24-1.18-.46-1.72-.05-.11-.1-.22-.19-.31h0s0-.01,0-.01h0s0-.01,0-.01h0s0-.01,0-.01h0s0,0,0,0h0s0,0,0,0h0s0,0,0,0h0s0,0,0,0h0s0,0,0,0h0s0,0,0,0h0s0,0,0,0h0s0,0,0,0h0s0,0,0,0h0s0,0,0,0h0s0,0,0,0h-.04s0,0,0,0h0s0,0,0,0h0s0,0,0,0h0s0,0,0,0h0s0,0,0,0h0s0,0,0,0h0s0,0,0,0h0s0,0,0,0h0s0,0,0,0c-.07.04-.14.1-.19.16-.11.12-.21.26-.29.4-.5.79-1.16,2.14-1.65,2.94-.59,1-1.27,2.02-1.93,2.97-4.18,5.89-9.58,11.67-14.5,16.99-1.34,1.51-2.88,3.11-4.01,4.77-.27.41-.55.84-.64,1.33-.04.21-.01.43.04.63,2,5.45,8.01,25.39,9.97,30.87.68,1.88,1.44,4.08,2.28,5.88.44.92.95,1.85,1.68,2.58.33.32.7.6,1.13.78.36.15.76.23,1.15.25,1.8.06,3.68-.81,5.35-1.38,1.1-.38,2.23-.68,3.38-.85,2.22-.31,4.54-.35,6.78-.32,1.88.05,3.81.16,5.66.54.7.15,1.41.35,2.02.72.5.3.89.75,1.1,1.29.27.66.34,1.38.37,2.08.05,1.58-.16,3.2-.38,4.76-.12.74-.22,1.64-.4,2.36-.08.33-.19.66-.36.95-.14.24-.32.46-.55.63-.25.19-.54.33-.84.43-.4.13-.82.21-1.24.28-1.14.17-3.65.26-4.83.34-1.18.08-2.39.23-3.55.45-2.18.39-5.33,1.32-7.5,1.84-2.09.5-4.28.83-6.42.52-2.84-.39-5.48-1.77-7.67-3.6-2.09-1.73-3.83-3.87-5.39-6.09-1.68-2.4-3.28-5.11-4.72-7.67-3.08-5.57-11.8-22.3-14.71-28.04-.73-1.51-1.53-3.17-2.15-4.73-.38-.96-.75-1.97-.96-2.99-.19-.89-.27-1.81-.21-2.72.07-1.18.36-2.34.72-3.46,1.01-3.05,2.53-5.96,4.05-8.77,3.16-5.67,6.61-11.5,10.27-16.87.95-1.36,2.04-2.9,3.07-4.21.88-1.12,3.55-4.36,4.4-5.48,1.25-1.62,2.34-3.4,3.25-5.23,1.62-3.31,3.42-7.24,5.61-10.18,1.62-2.24,3.49-4.35,5.58-6.16,1.64-1.42,3.45-2.68,5.41-3.62,1.72-.82,3.57-1.37,5.43-1.75,2.21-.46,5.16-.68,7.42-.93.19-.02.57-.05.75-.06"/>
        </g>
        <g id="POLYLINE-17" data-name="POLYLINE">
          <path class="cls-8" d="m262.02,275.53c-1.19-5.35-2.09-10.88-2.38-16.36-.2-3.54-.09-7.18.23-10.71.91-10.18,3.54-21.64,3.28-31.88-.06-4.62-.83-9.25-1.92-13.74-.83-3.38-2.81-10.72-3.38-14.03-.49-2.67-.83-5.47-1.05-8.18-.17-2-.28-4.96-.39-6.97-.03-.43-.06-.89-.12-1.32-.05-.35-.11-.71-.26-1.04-.18-.41-.53-.73-.89-.98-.62-.42-1.33-.74-2.08-.82"/>
        </g>
        <g id="POLYLINE-18" data-name="POLYLINE">
          <path class="cls-8" d="m262.33,229.66l1.94-3.01c.89-1.42,1.69-2.92,2.34-4.47,1.05-2.45,2.27-6.84,3.08-9.43.3-.92.61-1.92,1.04-2.78.09-.16.18-.32.3-.46h.01s.01-.03.01-.03h.01s.01-.02.01-.02h.01s.01-.02.01-.02h.01s.01-.02.01-.02h.01s.01-.02.01-.02h.01s.01-.01.01-.01h.01s.01-.01.01-.01h.01s.01,0,.01,0h0s0,0,0,0h0s0,0,0,0h0s0,0,0,0h0s0,0,0,0h0s0,0,0,0h0s0,0,0,0h0s0,0,0,0h.04s0,0,0,0h0s0,0,0,0h0s0,0,0,0h0s0,0,0,0h0s0,0,0,0h0s0,0,0,0h0s0,0,0,0h0s0,0,0,0h0s0,0,0,0h0s0,0,0,0c.12.07.2.19.27.31.22.36.5,1.13.67,1.53.25.6.55,1.21.87,1.77.59,1.06,1.32,2.12,2.02,3.1,1.28,1.84,16.16,20.75,17.8,22.93.3.42.62.86.76,1.36.2.73-.11,1.47-.37,2.14-3.92,9.29-7.96,22.27-12.55,31.2-.81,1.51-1.69,3.02-2.82,4.32-.75.86-1.64,1.66-2.74,2.02-1.01.34-2.11.23-3.12-.08-1.79-.53-3.8-1.84-5.44-2.74-1.47-.81-3.04-1.6-4.75-1.72-1.73-.11-3.41.52-4.95,1.24-.53.25-1.45.71-1.98.97-.39.2-.79.41-1.15.67-.29.21-.56.47-.76.77-.28.41-.42.9-.46,1.39-.08,1.18.19,2.35.51,3.48.6,2.02,1.48,3.98,2.58,5.78.91,1.48,2.06,2.94,3.71,3.61.87.36,1.82.48,2.75.51,1.37.03,2.97-.04,4.34.05,1.19.06,3.86.43,5.06.58,2.11.22,4.32.4,6.36-.27,1.32-.44,2.48-1.24,3.52-2.16.75-.66,1.48-1.43,2.16-2.17,5.13-5.77,11.39-12.03,16.14-18.09,3.79-4.79,7.39-10,10.59-15.21,1.98-3.29,3.98-6.74,5.42-10.3.55-1.41,1.05-2.89,1.03-4.41,0-.84-.18-1.67-.41-2.47-.24-.88-.59-1.9-.88-2.77-1.96-5.68-4.43-11.28-7.72-16.32-3.1-4.8-7.74-9.78-11.16-14.36-1.13-1.51-2.2-3.14-3.11-4.79-1.43-2.57-3.21-6.78-4.44-9.47-1.9-4.11-4.23-8.09-7.22-11.52-1.98-2.26-4.29-4.3-6.97-5.69-2.94-1.52-6.22-2.25-9.48-2.7-2.07-.25-7.79-.94-9.83-1.1"/>
        </g>
        <g id="POLYLINE-19" data-name="POLYLINE">
          <path class="cls-8" d="m205.32,169.98c-.54,1.02-.89,2.19-.76,3.36.11,1.03.52,2.22.81,3.22.48,1.57,1.11,3.12,2.06,4.48.86,1.26,1.99,2.33,3.22,3.22,1.37,1,2.88,1.84,4.43,2.54,2.83,1.28,5.87,2.19,8.95,2.66,4.04.62,8.28.42,12.11-1.11,1.49-.59,2.92-1.39,4.2-2.36,2.06-1.56,3.82-3.53,5.33-5.62,1.36-1.9,2.58-3.94,3.52-6.08.53-1.2.92-2.5,1.26-3.76"/>
        </g>
        <g id="POLYLINE-20" data-name="POLYLINE">
          <path class="cls-8" d="m213.03,151.17c.94,2.76,1.2,5.75.86,8.64-.3,2.47-1.11,4.95-2.76,6.85-1.72,2.01-4.28,3.34-6.94,3.43-2.17.09-4.29-.64-6.16-1.69-.96-.56-1.98-1.21-2.69-2.07-.2-.25-.39-.55-.4-.88h0v-.03h0s0-.03,0-.03h0s0-.03,0-.03h0s0-.02,0-.02h0s0-.02,0-.02h0s0-.02,0-.02h0s0-.02,0-.02h0s0-.02,0-.02h0s0-.02,0-.02h0s0-.02,0-.02h0s0-.02,0-.02h0s0-.02,0-.02h0s0-.03,0-.03h0s0-.03,0-.03h0s0-.02,0-.02h0s0-.02,0-.02h0s0-.02,0-.02h0c.11-.15.26-.25.41-.34.32-.18.67-.31,1.02-.44,1.06-.38,2.35-.74,3.32-1.31.5-.28.96-.64,1.32-1.09.42-.53.66-1.18.79-1.83.24-1.23.16-2.5.03-3.74-.37-3.17-1.21-6.48-1.41-9.67-.16-2.16.13-4.34.71-6.42.83-3.09,2.4-6.22,2.92-9.38.34-2.04.16-4.69.13-6.76-.04-2.39.18-4.85,1.1-7.08.63-1.55,1.56-2.97,2.59-4.28,1.47-1.86,3.19-3.53,5-5.05,2.02-1.68,4.2-3.2,6.5-4.46,1.62-.87,3.32-1.67,5.12-2.09,1.26-.29,2.57-.31,3.84-.07.75.13,1.8.44,2.55.55.41.06.83.08,1.24.07l1.45-.04c.64,0,1.28.03,1.9.17.56.12,1.11.32,1.63.56,1.18.55,2.27,1.31,3.27,2.14,1.21,1.01,2.3,2.17,3.28,3.4,1.24,1.57,2.32,3.28,3.18,5.09,1.32,2.79,2.2,5.8,2.88,8.81.78,3.31,1.67,9.51,2.21,12.95.32,2.1,1.16,6.18,1.46,8.27.4,2.67.51,5.43-.13,8.07-.58,2.51-1.83,5.07-2.42,7.57-.14.67-.25,1.38-.1,2.06.07.29.19.58.39.81.22.26.51.46.81.62,1.11.56,2.52.72,3.69,1.13.37.14.78.3,1.02.64.13.18.17.41.16.63-.03.45-.23.88-.45,1.27-.47.81-1.08,1.53-1.71,2.22-.71.76-1.52,1.44-2.46,1.89-1.2.58-2.56.79-3.89.82-1.51.02-3.04-.17-4.47-.68-.9-.33-1.77-.79-2.44-1.49-.96-1-1.39-2.4-1.5-3.76-.09-1.04-.01-2.11.16-3.14.2-1.2.64-2.67.88-3.87.42-2.14.31-4.36.06-6.51"/>
        </g>
        <g id="POLYLINE-21" data-name="POLYLINE">
          <path class="cls-8" d="m234.67,114.64c-.11.21-.17.45-.2.68-.06.43-.05.87-.03,1.31.08,1.55.26,3.31-.1,4.83-.19.84-.55,1.63-1.02,2.35-.8,1.2-1.88,2.19-3.06,3-1.42.96-3.02,1.69-4.71,2.03-1.75.38-3.59.09-5.35-.12-1.14-.12-2.33-.12-3.41.32-.95.39-1.78,1.02-2.52,1.73-1.11,1.08-2.02,2.37-2.75,3.73-.8,1.52-1.38,3.19-1.51,4.91-.16,1.93.22,3.86.77,5.71.76,2.43,1.47,4.97,2.89,7.11,1.45,2.22,3.65,3.85,5.97,5.1,3.16,1.65,6.81,2.78,10.39,2.1,1.78-.33,3.47-1.09,4.99-2.07,2.04-1.3,3.84-2.99,5.3-4.92,1.91-2.55,3.26-5.55,3.79-8.69.3-1.79.3-3.68-.35-5.39-.43-1.19-1.13-2.43-1.52-3.63-.19-.58-.32-1.18-.36-1.78-.08-1.07.05-2.15.2-3.2.37-2.52,1.04-5.42.71-7.96-.15-1.17-.53-2.3-1.08-3.34-.79-1.48-1.9-2.81-3.31-3.73-.64-.41-1.36-.73-2.13-.79-.33-.02-.66,0-.96.14-.26.12-.49.32-.62.58Z"/>
        </g>
      </g>
    </g>
  </g>
  <g>
    <polygon class="cls-13" points="334.75 76.08 294.64 76.08 294.64 59.33 334.75 59.33 360.05 76.08 334.75 76.08"/>
    <text class="cls-18" transform="translate(300.23 72.87)"><tspan x="0" y="0">1,93</tspan></text>
  </g>
  <g>
    <polygon class="cls-13" points="187.58 100.86 147.47 100.86 147.47 84.11 187.58 84.11 212.88 100.86 187.58 100.86"/>
    <text class="cls-18" transform="translate(153.06 97.65)"><tspan x="0" y="0">1,83</tspan></text>
  </g>
  <g>
    <polygon class="cls-16" points="97.64 130.76 57.53 130.76 57.53 114.01 97.64 114.01 122.94 122.38 97.64 130.76"/>
    <text class="cls-18" transform="translate(63.12 127.55)"><tspan x="0" y="0">1,73</tspan></text>
  </g>
  <g>
    <polygon class="cls-16" points="97.64 154.51 57.53 154.51 57.53 137.76 97.64 137.76 122.94 146.14 97.64 154.51"/>
    <text class="cls-18" transform="translate(63.12 151.3)"><tspan x="0" y="0">1,63</tspan></text>
  </g>
  <text class="cls-19" transform="translate(47.59 51.74)"><tspan x="0" y="0">P</tspan><tspan class="cls-20" x="6.94" y="0">r</tspan><tspan x="10.55" y="0">omedio </tspan><tspan x="0" y="13">hombres en </tspan><tspan x="0" y="26">América</tspan></text>
  <text class="cls-19" transform="translate(47.59 196.9)"><tspan x="0" y="0">P</tspan><tspan class="cls-20" x="6.94" y="0">r</tspan><tspan x="10.55" y="0">omedio </tspan><tspan x="0" y="13">mujeres en </tspan><tspan x="0" y="26">América</tspan></text>
  <g>
    <path class="cls-7" d="m42.95,193.48c-12.27-.51-22.06-10.62-22.06-23.02s10.31-23.04,23.04-23.04h8.84"/>
    <polygon class="cls-15" points="40.27 189.52 39.61 190.13 42.61 193.4 39.13 196.15 39.69 196.86 43.93 193.5 40.27 189.52"/>
  </g>
  <g>
    <path class="cls-7" d="m52.41,123.91c-21.46,0-38.85-17.4-38.85-38.85,0-18.04,12.29-33.21,28.96-37.58"/>
    <polygon class="cls-15" points="40.47 52.36 39.61 51.84 42.16 47.62 37.76 45.39 38.21 44.5 43.57 47.21 40.47 52.36"/>
  </g>
</svg>