<?xml version="1.0" encoding="utf-8"?>
<!-- Generator: Adobe Illustrator 27.3.1, SVG Export Plug-In . SVG Version: 6.00 Build 0)  -->
<svg version="1.1" id="Capa_1" xmlns="http://www.w3.org/2000/svg" xmlns:xlink="http://www.w3.org/1999/xlink" x="0px" y="0px"
	 viewBox="0 0 500 540" style="enable-background:new 0 0 500 540;" xml:space="preserve">
<style type="text/css">
	.st0{fill:none;stroke:#ECECEC;stroke-width:7.3943;stroke-miterlimit:10;}
	.st1{fill:none;}
	.st2{fill:#F2C5C1;}
	.st3{fill:#5D5C5B;}
	.st4{fill:none;stroke:#CD1719;stroke-width:1.8485;stroke-miterlimit:10;}
	.st5{fill:#CD1719;}
	.st6{enable-background:new    ;}
	.st7{fill:none;stroke:#000000;stroke-width:0.7472;stroke-miterlimit:10;}
</style>
<g id="agua">
	<g>
		<g>
			<path class="st0" d="M712.1,49.3c-42,0-42-7.4-84-7.4s-42,7.4-84,7.4s-42-7.4-84-7.4s-42,7.4-84,7.4s-42-7.4-84-7.4
				s-42,7.4-84,7.4s-42-7.4-84-7.4s-42,7.4-84,7.4s-42-7.4-84-7.4s-42,7.4-84,7.4s-42-7.4-84-7.4"/>
		</g>
		<g>
			<path class="st0" d="M712.1,64.4c-42,0-42-7.4-84-7.4s-42,7.4-84,7.4s-42-7.4-84-7.4s-42,7.4-84,7.4s-42-7.4-84-7.4
				s-42,7.4-84,7.4s-42-7.4-84-7.4s-42,7.4-84,7.4s-42-7.4-84-7.4s-42,7.4-84,7.4s-42-7.4-84-7.4"/>
		</g>
		<g>
			<path class="st0" d="M712.1,79.5c-42,0-42-7.4-84-7.4s-42,7.4-84,7.4s-42-7.4-84-7.4s-42,7.4-84,7.4s-42-7.4-84-7.4
				s-42,7.4-84,7.4s-42-7.4-84-7.4s-42,7.4-84,7.4s-42-7.4-84-7.4s-42,7.4-84,7.4s-42-7.4-84-7.4"/>
		</g>
		<g>
			<path class="st0" d="M712.1,94.7c-42,0-42-7.4-84-7.4s-42,7.4-84,7.4s-42-7.4-84-7.4s-42,7.4-84,7.4s-42-7.4-84-7.4
				s-42,7.4-84,7.4s-42-7.4-84-7.4s-42,7.4-84,7.4s-42-7.4-84-7.4s-42,7.4-84,7.4s-42-7.4-84-7.4"/>
		</g>
		<g>
			<path class="st0" d="M712.1,109.8c-42,0-42-7.4-84-7.4s-42,7.4-84,7.4s-42-7.4-84-7.4s-42,7.4-84,7.4s-42-7.4-84-7.4
				s-42,7.4-84,7.4s-42-7.4-84-7.4s-42,7.4-84,7.4s-42-7.4-84-7.4s-42,7.4-84,7.4s-42-7.4-84-7.4"/>
		</g>
	</g>
</g>
<g id="agua_00000021100680276302078550000012812856652892117934_">
	<g>
		<g>
			<path class="st0" d="M712.1,182.3c-42,0-42-7.4-84-7.4s-42,7.4-84,7.4s-42-7.4-84-7.4s-42,7.4-84,7.4s-42-7.4-84-7.4
				s-42,7.4-84,7.4s-42-7.4-84-7.4s-42,7.4-84,7.4s-42-7.4-84-7.4s-42,7.4-84,7.4s-42-7.4-84-7.4"/>
		</g>
		<g>
			<path class="st0" d="M712.1,197.4c-42,0-42-7.4-84-7.4s-42,7.4-84,7.4s-42-7.4-84-7.4s-42,7.4-84,7.4s-42-7.4-84-7.4
				s-42,7.4-84,7.4s-42-7.4-84-7.4s-42,7.4-84,7.4s-42-7.4-84-7.4s-42,7.4-84,7.4s-42-7.4-84-7.4"/>
		</g>
		<g>
			<path class="st0" d="M712.1,212.5c-42,0-42-7.4-84-7.4s-42,7.4-84,7.4s-42-7.4-84-7.4s-42,7.4-84,7.4s-42-7.4-84-7.4
				s-42,7.4-84,7.4s-42-7.4-84-7.4s-42,7.4-84,7.4s-42-7.4-84-7.4s-42,7.4-84,7.4s-42-7.4-84-7.4"/>
		</g>
		<g>
			<path class="st0" d="M712.1,227.7c-42,0-42-7.4-84-7.4s-42,7.4-84,7.4s-42-7.4-84-7.4s-42,7.4-84,7.4s-42-7.4-84-7.4
				s-42,7.4-84,7.4s-42-7.4-84-7.4s-42,7.4-84,7.4s-42-7.4-84-7.4s-42,7.4-84,7.4s-42-7.4-84-7.4"/>
		</g>
		<g>
			<path class="st0" d="M712.1,242.8c-42,0-42-7.4-84-7.4s-42,7.4-84,7.4s-42-7.4-84-7.4s-42,7.4-84,7.4s-42-7.4-84-7.4
				s-42,7.4-84,7.4s-42-7.4-84-7.4s-42,7.4-84,7.4s-42-7.4-84-7.4s-42,7.4-84,7.4s-42-7.4-84-7.4"/>
		</g>
	</g>
</g>
<g id="agua_00000170962564589192699840000003779727756496242070_">
	<g>
		<g>
			<path class="st0" d="M712.1,315.3c-42,0-42-7.4-84-7.4s-42,7.4-84,7.4s-42-7.4-84-7.4s-42,7.4-84,7.4s-42-7.4-84-7.4
				s-42,7.4-84,7.4s-42-7.4-84-7.4s-42,7.4-84,7.4s-42-7.4-84-7.4s-42,7.4-84,7.4s-42-7.4-84-7.4"/>
		</g>
		<g>
			<path class="st0" d="M712.1,330.4c-42,0-42-7.4-84-7.4s-42,7.4-84,7.4s-42-7.4-84-7.4s-42,7.4-84,7.4s-42-7.4-84-7.4
				s-42,7.4-84,7.4s-42-7.4-84-7.4s-42,7.4-84,7.4s-42-7.4-84-7.4s-42,7.4-84,7.4s-42-7.4-84-7.4"/>
		</g>
		<g>
			<path class="st0" d="M712.1,345.5c-42,0-42-7.4-84-7.4s-42,7.4-84,7.4s-42-7.4-84-7.4s-42,7.4-84,7.4s-42-7.4-84-7.4
				s-42,7.4-84,7.4s-42-7.4-84-7.4s-42,7.4-84,7.4s-42-7.4-84-7.4s-42,7.4-84,7.4s-42-7.4-84-7.4"/>
		</g>
		<g>
			<path class="st0" d="M712.1,360.7c-42,0-42-7.4-84-7.4s-42,7.4-84,7.4s-42-7.4-84-7.4s-42,7.4-84,7.4s-42-7.4-84-7.4
				s-42,7.4-84,7.4s-42-7.4-84-7.4s-42,7.4-84,7.4s-42-7.4-84-7.4s-42,7.4-84,7.4s-42-7.4-84-7.4"/>
		</g>
		<g>
			<path class="st0" d="M712.1,375.8c-42,0-42-7.4-84-7.4s-42,7.4-84,7.4s-42-7.4-84-7.4s-42,7.4-84,7.4s-42-7.4-84-7.4
				s-42,7.4-84,7.4s-42-7.4-84-7.4s-42,7.4-84,7.4s-42-7.4-84-7.4s-42,7.4-84,7.4s-42-7.4-84-7.4"/>
		</g>
	</g>
</g>
<g id="agua_00000162321352446162168990000012949264204339966876_">
	<g>
		<g>
			<path class="st0" d="M712.1,448.3c-42,0-42-7.4-84-7.4s-42,7.4-84,7.4s-42-7.4-84-7.4s-42,7.4-84,7.4s-42-7.4-84-7.4
				s-42,7.4-84,7.4s-42-7.4-84-7.4s-42,7.4-84,7.4s-42-7.4-84-7.4s-42,7.4-84,7.4s-42-7.4-84-7.4"/>
		</g>
		<g>
			<path class="st0" d="M712.1,463.4c-42,0-42-7.4-84-7.4s-42,7.4-84,7.4s-42-7.4-84-7.4s-42,7.4-84,7.4s-42-7.4-84-7.4
				s-42,7.4-84,7.4s-42-7.4-84-7.4s-42,7.4-84,7.4s-42-7.4-84-7.4s-42,7.4-84,7.4s-42-7.4-84-7.4"/>
		</g>
		<g>
			<path class="st0" d="M712.1,478.6c-42,0-42-7.4-84-7.4s-42,7.4-84,7.4s-42-7.4-84-7.4s-42,7.4-84,7.4s-42-7.4-84-7.4
				s-42,7.4-84,7.4s-42-7.4-84-7.4s-42,7.4-84,7.4s-42-7.4-84-7.4s-42,7.4-84,7.4s-42-7.4-84-7.4"/>
		</g>
		<g>
			<path class="st0" d="M712.1,493.7c-42,0-42-7.4-84-7.4s-42,7.4-84,7.4s-42-7.4-84-7.4s-42,7.4-84,7.4s-42-7.4-84-7.4
				s-42,7.4-84,7.4s-42-7.4-84-7.4s-42,7.4-84,7.4s-42-7.4-84-7.4s-42,7.4-84,7.4s-42-7.4-84-7.4"/>
		</g>
		<g>
			<path class="st0" d="M712.1,508.8c-42,0-42-7.4-84-7.4s-42,7.4-84,7.4s-42-7.4-84-7.4s-42,7.4-84,7.4s-42-7.4-84-7.4
				s-42,7.4-84,7.4s-42-7.4-84-7.4s-42,7.4-84,7.4s-42-7.4-84-7.4s-42,7.4-84,7.4s-42-7.4-84-7.4"/>
		</g>
	</g>
</g>
<rect x="37.3" y="64.6" class="st1" width="47.9" height="22.6"/>
<rect x="37.3" y="197.6" class="st1" width="47.9" height="22.6"/>
<rect x="37.3" y="330.6" class="st1" width="47.9" height="22.6"/>
<rect x="37.3" y="463.6" class="st1" width="47.9" height="22.6"/>
<g id="nadadora-cuatro_00000128469977824650317990000017734782235417748642_">
	<g>
		<g>
			<path class="st2" d="M431.4,451c0,0-0.6-5.7,7.1-10.4c7.7-4.7-10.3-7.8-10.3-7.8l-3.5,8.6L431.4,451z"/>
			<g>
				<path class="st3" d="M437.6,429.3c7.2-7.1,14-1.1,14-1c0.3-1.4,0.4-2.7,0.1-3.8c-1.2-6.3-8.6-10.1-15.2-8.9s-11.7,8.5-10.6,14.8
					c0.2,1.2,0.8,2.2,1.6,3.1C428.9,434.1,432.1,434.7,437.6,429.3z"/>
				<path class="st2" d="M451.6,428.3c-0.1,0-6.8-6.1-14,1c-5.4,5.4-8.7,4.8-10,4.2c1.5,1.8,3.8,3.2,6,4.9c2.7,2.1,5,5.9,8.5,6.6
					c2.5,0.6,3.9-5,8.2-6.3c1.5-0.4-1.2-2-0.7-3.5C450.4,432.8,451.2,430.4,451.6,428.3z"/>
			</g>
			<path class="st3" d="M365.1,463.9c-2-3.4-1.7-9.3,5.1-14.8c6.8-5.4,28.2-0.4,35.1-5.9c7-5.5,19.1-13.4,22.9-8.7
				s10.9,14.6,0.7,22.7c-16.9,13.4-27.2-1.6-39,7.8C378.1,474.5,368.2,469.3,365.1,463.9z"/>
			<path class="st2" d="M304.1,457.4c-0.5,4.8,13.8,3.3,22,2.9c8.2-0.4,16.8,8.9,21.3,6.5c3.4-1.8,14.2-16.3,25.7-16.5
				c9.8-0.1,15.3,15.4-0.4,20.4c0,0-23,8-32.5,8.6c-9.5,0.5-30.1-11.1-38.9-14.1c-2.6-0.9-8.9-1.1-12.1-2.6
				c-5.1-2.5-7.9,2.2-11.6-1.3c-4.1-3.9,10.3-3,14-6.9C295.3,450.6,305.2,447.1,304.1,457.4z"/>
			<g>
				<path class="st2" d="M305.1,458.6c2.1,2.2,11.6,1.6,17.9,1.2c0.9-0.1,1.8-0.1,2.6-0.1c-5.7-5.2-17.5-5.3-21.4-7.1
					c0.5,1.1,0.8,2.7,0.6,5C304.7,457.9,304.8,458.3,305.1,458.6z"/>
				<path class="st2" d="M287.5,453.9c0.6,0.4,1.3,0.8,2.2,1.1c0.6-0.3,1-0.6,1.4-1c2.3-2.5,7.6-5.2,11-3.6c0.3,0.1,0.6,0.3,0.8,0.5
					c0-0.1,0-0.1,0-0.2c2.5-10.1-7.8-7.9-12-4.6c-4.2,3.3-18.3,0.5-14.8,4.9C279.3,455,282.8,450.8,287.5,453.9z"/>
			</g>
			<path class="st2" d="M441.5,501.1c0,0,6,9.4,0.4,20.2c-1.4,2.7-0.8-8.9-2.7-10.6c-1.4-1.2-1.8,0.8-2.1,1.3
				c-0.5,0.7-1.7-0.1-1.6-0.9l1.5-10.4c0,0-15.3-23.1-19-51.3c-1.6-12.1,11.9-10.6,11.8-4.5C429.2,478,442.1,482.8,441.5,501.1z"/>
			<path class="st2" d="M454.3,481.7c-5.1-13.9-12.7-12.3-21.7-27.2c-0.5,0.6-1,1.3-1.7,1.9c0.4,4.5,1.1,8.4,2,11.7
				c9.3,10.2,17.1,15,17.1,15l2.5,10.2c0.2,0.9,1.6,1.1,1.8,0.3c0.1-0.6-0.3-2.6,1.4-2.1c2.5,0.8,6.2,11.7,6.5,8.7
				C463.4,488.1,454.3,481.7,454.3,481.7z"/>
		</g>
		<g>
			<g>
				<path class="st4" d="M425.7,491.4c-24.8,8.5-51.9-4.2-61.1-28.6"/>
				<g>
					<polygon class="st5" points="372.1,465 371.5,466.4 364.9,463.3 362.3,470.2 360.9,469.6 364.1,461.3 					"/>
				</g>
			</g>
		</g>
	</g>
</g>
<g id="nadadora-tres_00000098915984541019133890000008224014501143119797_">
	<path class="st2" d="M360,317.3c-3.2,1.2-5.6,1.5-7.2,1.3c-1.6-1.2-2.8-2-2.8-2l-0.6,0.6c-0.1-0.1-0.1-0.1-0.2-0.2
		c0,0.1,0.1,0.2,0.1,0.3l-4.2,3.9c1.9-0.1,3.8-0.3,5.8-0.5l0,0c0.9-0.1,1.9-0.2,2.9-0.3c5.7-0.5,11.5-1,17.5-1.1
		C369.2,317.3,365.7,315.2,360,317.3z"/>
	<path class="st3" d="M277.7,332.8c-1.3-3.7,0.2-9.5,7.9-13.4c7.8-4,27.7,5.3,35.6,1.3c7.9-4,21.4-9.3,24.2-3.9
		c2.7,5.4,7.8,16.5-3.8,22.3c-19.2,9.8-26.3-7-39.8-0.1C288.3,345.7,279.8,338.6,277.7,332.8z"/>
	<path class="st2" d="M404.1,319.4c0,0,10.1-4.8,20.1,2.2c2.5,1.7-8.9-0.4-10.8,1.4c-1.3,1.2,0.6,1.8,1.1,2.3
		c0.7,0.6-0.3,1.7-1.1,1.4l-10.1-2.8c0,0-23.3,6.3-38.6,6.1c-9.2-0.1-17.8,3-24.6,3.3c-12.2,0.6-14.6-11.1-2.3-11.1
		c10.5,0,22.8-2.1,35.4-2.1C383.5,320,394.2,320,404.1,319.4z"/>
	<path class="st3" d="M360,317.3c5.7-2.1,9.2,0,11.2,2.1c0.7,0,1.3,0,2,0c0.5,0,1,0,1.5,0c0.1-0.2,0.1-0.4,0.2-0.6
		c1.5-6.2-3.7-12.8-10.2-14.3c-6.5-1.6-14.2,2.9-15.7,9.1c-0.3,1.2-0.2,2.3,0.1,3.5C350.1,318.1,352.8,319.9,360,317.3z"/>
	<path class="st2" d="M364.6,330.6c-3,0-5.9,0.3-8.8,0.7c0.5,0.8,1.1,1.6,1.8,2.1c2,1.5,5.7-3,10-2.4c0.5,0.1,0.6-0.1,0.6-0.5
		C367.1,330.6,365.8,330.6,364.6,330.6z"/>
	<path class="st2" d="M220.5,332.7c0.9,4.8,13.8,0.1,21.9,0.5c8.2,0.4,11,2.3,15.7,0.4c3.6-1.5,19.9-12.7,31.4-11.6
		c9.7,0.9,13.6,16.9-2.5,20.2c0,0-20.6,4.1-30.1,3.7s-27.8-4.6-37.1-4.9c-2.8-0.1-8.8,1.4-12.3,0.9c-5.6-0.9-7,4.4-11.6,2
		c-5-2.6,9.1-5.7,11.5-10.5C210.1,328.6,218.7,322.4,220.5,332.7z"/>
	<path class="st2" d="M207.4,332.3L207.4,332.3c1.9-2.9,5.8-6.3,9.2-5.8c1.6,0.2,3.7,1.5,4.6,6.1c0.4,2.4,5.9,1.6,11.1,0.8
		c3.5-0.5,7.1-1,10.2-0.9c3,0.1,5.2,0.5,7.1,0.8c0.6,0.1,1.1,0.2,1.7,0.2c-16.4-8.7-29.5-1.6-28.9-6c1.4-10.3-8.6-7.1-12.4-3.3
		c-3.8,3.8-18.1,2.5-14.2,6.5C199.4,334.3,202.3,329.7,207.4,332.3z"/>
	<g>
		<g>
			<line class="st4" x1="332.3" y1="361.6" x2="410.5" y2="361.6"/>
			<g>
				<polygon class="st5" points="405.6,367.7 404.6,366.6 409.9,361.6 404.6,356.7 405.6,355.6 412.1,361.6 				"/>
			</g>
		</g>
	</g>
</g>
<g id="nadadora-dos_00000083053876415886534480000014926365567797932222_">
	<path class="st2" d="M297.7,179.3c-3.2,1.2-5.6,1.5-7.2,1.3c-1.6-1.2-2.8-2-2.8-2l-0.6,0.6c-0.1-0.1-0.1-0.1-0.2-0.2
		c0,0.1,0.1,0.2,0.1,0.3l-4.2,3.9c1.9-0.1,3.8-0.3,5.8-0.5l0,0c0.9-0.1,1.9-0.2,2.9-0.3c5.7-0.5,11.5-1,17.5-1.1
		C307,179.3,303.4,177.2,297.7,179.3z"/>
	<path class="st3" d="M215.5,194.8c-1.3-3.7,0.2-9.5,7.9-13.4c7.8-4,27.7,5.3,35.6,1.3c7.9-4,21.4-9.3,24.2-3.9
		c2.7,5.4,7.8,16.5-3.8,22.3c-19.2,9.8-26.3-7-39.8-0.1C226,207.7,217.5,200.6,215.5,194.8z"/>
	<path class="st2" d="M341.8,181.4c0,0,10.1-4.8,20.1,2.2c2.5,1.7-8.9-0.4-10.8,1.4c-1.3,1.2,0.6,1.8,1.1,2.3
		c0.7,0.6-0.3,1.7-1.1,1.4l-10.1-2.8c0,0-23.3,6.3-38.6,6.1c-9.2-0.1-17.8,3-24.6,3.3c-12.2,0.6-14.6-11.1-2.3-11.1
		c10.5,0,22.8-2.1,35.4-2.1C321.2,182,331.9,182,341.8,181.4z"/>
	<path class="st3" d="M297.7,179.3c5.7-2.1,9.2,0,11.2,2.1c0.7,0,1.3,0,2,0c0.5,0,1,0,1.5,0c0.1-0.2,0.1-0.4,0.2-0.6
		c1.5-6.2-3.7-12.8-10.2-14.3c-6.5-1.6-14.2,2.9-15.7,9.1c-0.3,1.2-0.2,2.3,0.1,3.5C287.8,180.1,290.6,181.9,297.7,179.3z"/>
	<path class="st2" d="M302.3,192.6c-3,0-5.9,0.3-8.8,0.7c0.5,0.8,1.1,1.6,1.8,2.1c2,1.5,5.7-3,10-2.4c0.5,0.1,0.6-0.1,0.6-0.5
		C304.8,192.6,303.5,192.6,302.3,192.6z"/>
	<path class="st2" d="M163.8,207.8c1,4.8,12.9,2,16.8,4.7c6.1,4.2,10.4,11,13.3,6.8c2.2-3.2,16.1-25.7,26.4-31.1
		c8.6-4.5,20.6,6.8,8.9,18.4c0,0-25.3,23.5-33.6,28.3c-8.2,4.8-25.9-17-32.1-18.8c-2.7-0.7-7.6,0.2-12.3,1.3
		c-5.5,1.3-6.9,4.6-11.5,2.4c-5.1-2.4,8.9-6,11.2-10.8C153.3,204,161.6,197.6,163.8,207.8z"/>
	<path class="st2" d="M168.2,198.3c4.5,2.3,6.8,1,11.5-2.1c6.6-4.4,13.3,9.7,17.3,17.2c2-3,4.6-6.7,7.4-10.4
		c-1.1-2.8-2.6-5.2-4.4-6.5c-3.8-2.7-8.1-3.9-9-8.7c-2-10.2-9.1-4.9-11.5-0.1C177.2,192.5,163.2,195.8,168.2,198.3z"/>
	<g>
		<g>
			<path class="st4" d="M250.9,166.3c11.5-23.6,39.6-33.7,63.4-23"/>
			<g>
				<polygon class="st5" points="307.5,147.1 307,145.7 313.8,143.1 310.8,136.5 312.1,135.9 315.8,144 				"/>
			</g>
		</g>
	</g>
</g>
<g id="nadadora-uno">
	<path class="st2" d="M246,47.4c0,0-2.1-5.4,4.2-11.9c6.3-6.5-12-4.9-12-4.9l-1.3,9.2L246,47.4z"/>
	<g>
		<path class="st3" d="M246.5,24.9c5.2-8.7,13.3-4.5,13.3-4.5c-0.1-1.4-0.4-2.7-0.8-3.7c-2.7-5.8-10.9-7.6-16.9-4.8
			c-6,2.9-9.2,11.2-6.5,16.9c0.5,1.1,1.3,1.9,2.3,2.6C239.2,31.7,242.6,31.5,246.5,24.9z"/>
		<path class="st2" d="M259.8,20.4c-0.1,0-8.1-4.2-13.3,4.5c-3.9,6.6-7.2,6.8-8.6,6.5c1.9,1.3,4.4,2.1,7.1,3.2
			c3.2,1.3,6.4,4.4,9.9,4.3c2.6-0.1,2.5-5.9,6.3-8.2c1.3-0.8-1.7-1.6-1.5-3.2C259.8,25.1,259.9,22.6,259.8,20.4z"/>
	</g>
	<path class="st3" d="M181.6,67.5c-2.2-3.3-2.2-9.2,4.3-15s28.1-1.8,34.8-7.8c6.7-5.9,18.4-14.4,22.4-9.9s11.7,14,1.9,22.6
		c-16.1,14.3-27.2-0.1-38.6,9.9C195.1,77.4,185.1,72.7,181.6,67.5z"/>
	<path class="st2" d="M268.7,42.5c0,0,12.9-2.7,13.8,2.3c0.2,1.4-6.2-2.1-8.8,0.9c-1.2,1.4,2.1,1.2,2.4,1.8c0.3,0.8-3.1,2.1-3.7,1.5
		l-4.4,0.5c-4.7,0-31,39.9-34.5,0c-1.1-12.1,11.8-8.7,11.5-4.5C243,71.1,249.1,51.9,268.7,42.5z"/>
	<path class="st2" d="M126.9,56.3c-0.5,4.8,7.7,4.1,15.9,3.7c8.2-0.4,16.3,12.3,20.9,9.9c3.4-1.8,14.2-16.3,25.7-16.5
		c9.8-0.1,15.3,15.4-0.4,20.4c0,0-19.6,8-29.1,8.5S133,67,124.2,64.1c-2.6-0.9-8.9-1.1-12.1-2.6c-5.1-2.5-7.9,2.2-11.6-1.3
		c-4.1-3.9,10.3-3,14-6.9S128,46,126.9,56.3z"/>
	<g>
		<g>
			<path class="st4" d="M271.5,66.2c-11.5,23.6-39.7,33.7-63.4,23"/>
			<g>
				<polygon class="st5" points="214.9,85.4 215.5,86.8 208.6,89.3 211.6,95.9 210.3,96.6 206.6,88.5 				"/>
			</g>
		</g>
	</g>
</g>
<g class="st6">
	<path class="st5" d="M51.3,64.6c5.5,0,9.4,4.2,9.4,9.4c0,5.2-4,9.4-9.4,9.4s-9.4-4.2-9.4-9.4C41.9,68.7,45.8,64.6,51.3,64.6z
		 M54.5,76.5h-1.9v-7.1H51l-2.5,1.1l0.2,1.6l2.1-0.9v5.3h-2.4v1.7h6.4L54.5,76.5z"/>
</g>
<g class="st6">
	<path class="st5" d="M51.3,197.6c5.5,0,9.4,4.2,9.4,9.4s-4,9.4-9.4,9.4s-9.4-4.2-9.4-9.4C41.9,201.7,45.8,197.6,51.3,197.6z
		 M54.4,209.6h-4l2.3-1.7c1.2-0.9,1.9-1.8,1.9-3c0-1.5-1.4-2.6-3.2-2.6c-1.3,0-2.3,0.4-3.1,1l0.2,1.6c0.8-0.5,1.7-0.9,2.5-0.9
		s1.5,0.5,1.5,1.2c0,0.6-0.4,1.1-1.2,1.8l-3.3,2.8v1.5h6.6L54.4,209.6z"/>
</g>
<g class="st6">
	<path class="st5" d="M51.3,330.6c5.5,0,9.4,4.2,9.4,9.4c0,5.2-4,9.4-9.4,9.4s-9.4-4.2-9.4-9.4C41.9,334.7,45.8,330.6,51.3,330.6z
		 M52.8,339.7L52.8,339.7c1.1-0.4,1.8-1,1.8-2c0-1.4-1.2-2.3-3.3-2.3c-1.1,0-2.2,0.4-2.9,0.8l0.2,1.5c0.7-0.5,1.6-0.8,2.5-0.8
		c1,0,1.6,0.4,1.6,1S52,339,50.6,339h-1l0.2,1.4h0.7c1.6,0,2.4,0.4,2.4,1.2c0,0.7-0.7,1.2-1.8,1.2c-0.9,0-1.8-0.2-2.5-0.7l-0.3,1.5
		c0.8,0.4,1.9,0.7,3,0.7c2.1,0,3.6-0.9,3.6-2.6C54.7,340.7,54,339.9,52.8,339.7z"/>
</g>
<g class="st6">
	<path class="st5" d="M51.3,463.6c5.5,0,9.4,4.2,9.4,9.4c0,5.2-4,9.4-9.4,9.4s-9.4-4.2-9.4-9.4C41.9,467.7,45.8,463.6,51.3,463.6z
		 M54.8,474h-1.4v-5.5h-2.2l-4,5.5v1.3h4.5v1.8h1.8v-1.8h1.4L54.8,474L54.8,474z M50.1,474l-1.3,0.1l1-1.4l0.9-1.2l1.1-1.6l-0.1,1.8
		v2.3L50.1,474L50.1,474z"/>
</g>
<line class="st7" x1="191.1" y1="-60" x2="191.1" y2="-165"/>
<line class="st7" x1="250.4" y1="-60" x2="250.4" y2="-165"/>
<line class="st7" x1="309.7" y1="-60" x2="309.7" y2="-165"/>
<line class="st7" x1="369" y1="-60" x2="369" y2="-165"/>
</svg>
