<?xml version="1.0" encoding="utf-8"?>
<!-- Generator: Adobe Illustrator 27.3.1, SVG Export Plug-In . SVG Version: 6.00 Build 0)  -->
<svg version="1.1" id="Capa_1" xmlns="http://www.w3.org/2000/svg" xmlns:xlink="http://www.w3.org/1999/xlink" x="0px" y="0px"
	 viewBox="0 0 500 540" style="enable-background:new 0 0 500 540;" xml:space="preserve">
<style type="text/css">
	.st0{fill:none;stroke:#ECECEC;stroke-width:7.3943;stroke-miterlimit:10;}
	.st1{fill:none;}
	.st2{enable-background:new    ;}
	.st3{fill:#CD1719;}
	.st4{fill:#F2C5C1;}
	.st5{fill:#5D5C5B;}
	.st6{fill:none;stroke:#CD1719;stroke-width:1.8485;stroke-miterlimit:10;}
</style>
<g id="agua">
	<g>
		<g>
			<path class="st0" d="M712.1,49.3c-42,0-42-7.4-84-7.4s-42,7.4-84,7.4s-42-7.4-84-7.4s-42,7.4-84,7.4s-42-7.4-84-7.4
				s-42,7.4-84,7.4s-42-7.4-84-7.4s-42,7.4-84,7.4s-42-7.4-84-7.4s-42,7.4-84,7.4s-42-7.4-84-7.4"/>
		</g>
		<g>
			<path class="st0" d="M712.1,64.4c-42,0-42-7.4-84-7.4s-42,7.4-84,7.4s-42-7.4-84-7.4s-42,7.4-84,7.4s-42-7.4-84-7.4
				s-42,7.4-84,7.4s-42-7.4-84-7.4s-42,7.4-84,7.4s-42-7.4-84-7.4s-42,7.4-84,7.4s-42-7.4-84-7.4"/>
		</g>
		<g>
			<path class="st0" d="M712.1,79.5c-42,0-42-7.4-84-7.4s-42,7.4-84,7.4s-42-7.4-84-7.4s-42,7.4-84,7.4s-42-7.4-84-7.4
				s-42,7.4-84,7.4s-42-7.4-84-7.4s-42,7.4-84,7.4s-42-7.4-84-7.4s-42,7.4-84,7.4s-42-7.4-84-7.4"/>
		</g>
		<g>
			<path class="st0" d="M712.1,94.7c-42,0-42-7.4-84-7.4s-42,7.4-84,7.4s-42-7.4-84-7.4s-42,7.4-84,7.4s-42-7.4-84-7.4
				s-42,7.4-84,7.4s-42-7.4-84-7.4s-42,7.4-84,7.4s-42-7.4-84-7.4s-42,7.4-84,7.4s-42-7.4-84-7.4"/>
		</g>
		<g>
			<path class="st0" d="M712.1,109.8c-42,0-42-7.4-84-7.4s-42,7.4-84,7.4s-42-7.4-84-7.4s-42,7.4-84,7.4s-42-7.4-84-7.4
				s-42,7.4-84,7.4s-42-7.4-84-7.4s-42,7.4-84,7.4s-42-7.4-84-7.4s-42,7.4-84,7.4s-42-7.4-84-7.4"/>
		</g>
	</g>
</g>
<g id="agua_00000021100680276302078550000012812856652892117934_">
	<g>
		<g>
			<path class="st0" d="M712.1,182.3c-42,0-42-7.4-84-7.4s-42,7.4-84,7.4s-42-7.4-84-7.4s-42,7.4-84,7.4s-42-7.4-84-7.4
				s-42,7.4-84,7.4s-42-7.4-84-7.4s-42,7.4-84,7.4s-42-7.4-84-7.4s-42,7.4-84,7.4s-42-7.4-84-7.4"/>
		</g>
		<g>
			<path class="st0" d="M712.1,197.4c-42,0-42-7.4-84-7.4s-42,7.4-84,7.4s-42-7.4-84-7.4s-42,7.4-84,7.4s-42-7.4-84-7.4
				s-42,7.4-84,7.4s-42-7.4-84-7.4s-42,7.4-84,7.4s-42-7.4-84-7.4s-42,7.4-84,7.4s-42-7.4-84-7.4"/>
		</g>
		<g>
			<path class="st0" d="M712.1,212.5c-42,0-42-7.4-84-7.4s-42,7.4-84,7.4s-42-7.4-84-7.4s-42,7.4-84,7.4s-42-7.4-84-7.4
				s-42,7.4-84,7.4s-42-7.4-84-7.4s-42,7.4-84,7.4s-42-7.4-84-7.4s-42,7.4-84,7.4s-42-7.4-84-7.4"/>
		</g>
		<g>
			<path class="st0" d="M712.1,227.7c-42,0-42-7.4-84-7.4s-42,7.4-84,7.4s-42-7.4-84-7.4s-42,7.4-84,7.4s-42-7.4-84-7.4
				s-42,7.4-84,7.4s-42-7.4-84-7.4s-42,7.4-84,7.4s-42-7.4-84-7.4s-42,7.4-84,7.4s-42-7.4-84-7.4"/>
		</g>
		<g>
			<path class="st0" d="M712.1,242.8c-42,0-42-7.4-84-7.4s-42,7.4-84,7.4s-42-7.4-84-7.4s-42,7.4-84,7.4s-42-7.4-84-7.4
				s-42,7.4-84,7.4s-42-7.4-84-7.4s-42,7.4-84,7.4s-42-7.4-84-7.4s-42,7.4-84,7.4s-42-7.4-84-7.4"/>
		</g>
	</g>
</g>
<g id="agua_00000170962564589192699840000003779727756496242070_">
	<g>
		<g>
			<path class="st0" d="M712.1,315.3c-42,0-42-7.4-84-7.4s-42,7.4-84,7.4s-42-7.4-84-7.4s-42,7.4-84,7.4s-42-7.4-84-7.4
				s-42,7.4-84,7.4s-42-7.4-84-7.4s-42,7.4-84,7.4s-42-7.4-84-7.4s-42,7.4-84,7.4s-42-7.4-84-7.4"/>
		</g>
		<g>
			<path class="st0" d="M712.1,330.4c-42,0-42-7.4-84-7.4s-42,7.4-84,7.4s-42-7.4-84-7.4s-42,7.4-84,7.4s-42-7.4-84-7.4
				s-42,7.4-84,7.4s-42-7.4-84-7.4s-42,7.4-84,7.4s-42-7.4-84-7.4s-42,7.4-84,7.4s-42-7.4-84-7.4"/>
		</g>
		<g>
			<path class="st0" d="M712.1,345.5c-42,0-42-7.4-84-7.4s-42,7.4-84,7.4s-42-7.4-84-7.4s-42,7.4-84,7.4s-42-7.4-84-7.4
				s-42,7.4-84,7.4s-42-7.4-84-7.4s-42,7.4-84,7.4s-42-7.4-84-7.4s-42,7.4-84,7.4s-42-7.4-84-7.4"/>
		</g>
		<g>
			<path class="st0" d="M712.1,360.7c-42,0-42-7.4-84-7.4s-42,7.4-84,7.4s-42-7.4-84-7.4s-42,7.4-84,7.4s-42-7.4-84-7.4
				s-42,7.4-84,7.4s-42-7.4-84-7.4s-42,7.4-84,7.4s-42-7.4-84-7.4s-42,7.4-84,7.4s-42-7.4-84-7.4"/>
		</g>
		<g>
			<path class="st0" d="M712.1,375.8c-42,0-42-7.4-84-7.4s-42,7.4-84,7.4s-42-7.4-84-7.4s-42,7.4-84,7.4s-42-7.4-84-7.4
				s-42,7.4-84,7.4s-42-7.4-84-7.4s-42,7.4-84,7.4s-42-7.4-84-7.4s-42,7.4-84,7.4s-42-7.4-84-7.4"/>
		</g>
	</g>
</g>
<g id="agua_00000162321352446162168990000012949264204339966876_">
	<g>
		<g>
			<path class="st0" d="M712.1,448.3c-42,0-42-7.4-84-7.4s-42,7.4-84,7.4s-42-7.4-84-7.4s-42,7.4-84,7.4s-42-7.4-84-7.4
				s-42,7.4-84,7.4s-42-7.4-84-7.4s-42,7.4-84,7.4s-42-7.4-84-7.4s-42,7.4-84,7.4s-42-7.4-84-7.4"/>
		</g>
		<g>
			<path class="st0" d="M712.1,463.4c-42,0-42-7.4-84-7.4s-42,7.4-84,7.4s-42-7.4-84-7.4s-42,7.4-84,7.4s-42-7.4-84-7.4
				s-42,7.4-84,7.4s-42-7.4-84-7.4s-42,7.4-84,7.4s-42-7.4-84-7.4s-42,7.4-84,7.4s-42-7.4-84-7.4"/>
		</g>
		<g>
			<path class="st0" d="M712.1,478.6c-42,0-42-7.4-84-7.4s-42,7.4-84,7.4s-42-7.4-84-7.4s-42,7.4-84,7.4s-42-7.4-84-7.4
				s-42,7.4-84,7.4s-42-7.4-84-7.4s-42,7.4-84,7.4s-42-7.4-84-7.4s-42,7.4-84,7.4s-42-7.4-84-7.4"/>
		</g>
		<g>
			<path class="st0" d="M712.1,493.7c-42,0-42-7.4-84-7.4s-42,7.4-84,7.4s-42-7.4-84-7.4s-42,7.4-84,7.4s-42-7.4-84-7.4
				s-42,7.4-84,7.4s-42-7.4-84-7.4s-42,7.4-84,7.4s-42-7.4-84-7.4s-42,7.4-84,7.4s-42-7.4-84-7.4"/>
		</g>
		<g>
			<path class="st0" d="M712.1,508.8c-42,0-42-7.4-84-7.4s-42,7.4-84,7.4s-42-7.4-84-7.4s-42,7.4-84,7.4s-42-7.4-84-7.4
				s-42,7.4-84,7.4s-42-7.4-84-7.4s-42,7.4-84,7.4s-42-7.4-84-7.4s-42,7.4-84,7.4s-42-7.4-84-7.4"/>
		</g>
	</g>
</g>
<rect x="37.3" y="64.6" class="st1" width="47.9" height="22.6"/>
<g class="st2">
	<path class="st3" d="M61.3,64.5c5.5,0,9.4,4.2,9.4,9.4c0,5.2-4,9.4-9.4,9.4c-5.4,0-9.4-4.2-9.4-9.4C51.9,68.7,55.8,64.5,61.3,64.5z
		 M64.5,76.5h-1.9v-7.1h-1.6l-2.5,1.1l0.2,1.6l2.1-0.9v5.3h-2.4v1.7h6.4L64.5,76.5z"/>
</g>
<rect x="37.3" y="197.6" class="st1" width="47.9" height="22.6"/>
<g class="st2">
	<path class="st3" d="M61.3,197.6c5.5,0,9.4,4.2,9.4,9.4c0,5.2-4,9.4-9.4,9.4c-5.4,0-9.4-4.2-9.4-9.4
		C51.9,201.7,55.8,197.6,61.3,197.6z M64.4,209.6h-4l2.3-1.7c1.2-0.9,1.9-1.8,1.9-3c0-1.5-1.4-2.6-3.2-2.6c-1.3,0-2.3,0.4-3.1,1
		l0.2,1.6c0.8-0.5,1.7-0.9,2.5-0.9c0.8,0,1.5,0.5,1.5,1.2c0,0.6-0.4,1.1-1.2,1.8l-3.3,2.8v1.5h6.6L64.4,209.6z"/>
</g>
<rect x="37.3" y="330.6" class="st1" width="47.9" height="22.6"/>
<g class="st2">
	<path class="st3" d="M61.3,330.6c5.5,0,9.4,4.2,9.4,9.4c0,5.2-4,9.4-9.4,9.4c-5.4,0-9.4-4.2-9.4-9.4
		C51.9,334.7,55.8,330.6,61.3,330.6z M62.8,339.6L62.8,339.6c1.1-0.4,1.8-1,1.8-2c0-1.4-1.2-2.3-3.3-2.3c-1.1,0-2.2,0.4-2.9,0.8
		l0.2,1.5c0.7-0.5,1.6-0.8,2.5-0.8c1,0,1.6,0.4,1.6,1c0,0.6-0.7,1.1-2.1,1.1h-1l0.2,1.4h0.7c1.6,0,2.4,0.4,2.4,1.2
		c0,0.7-0.7,1.2-1.8,1.2c-0.9,0-1.8-0.2-2.5-0.7l-0.3,1.5c0.8,0.4,1.9,0.7,3,0.7c2.1,0,3.6-0.9,3.6-2.6
		C64.7,340.6,64,339.9,62.8,339.6z"/>
</g>
<rect x="37.3" y="463.6" class="st1" width="47.9" height="22.6"/>
<g class="st2">
	<path class="st3" d="M61.3,463.6c5.5,0,9.4,4.2,9.4,9.4s-4,9.4-9.4,9.4c-5.4,0-9.4-4.2-9.4-9.4S55.8,463.6,61.3,463.6z M64.8,474
		h-1.4v-5.5h-2.2l-4,5.5v1.3h4.5v1.8h1.8v-1.8h1.4V474z M60.1,474l-1.3,0.1l1-1.4l0.9-1.2l1.1-1.6l-0.1,1.8v2.3H60.1z"/>
</g>
<g>
	<g id="nadadora-cuatro_00000128469977824650317990000017734782235417748642_">
		<g>
			<g>
				<path class="st4" d="M312.4,451c0,0-0.6-5.7,7.1-10.4c7.7-4.7-10.3-7.8-10.3-7.8l-3.5,8.6L312.4,451z"/>
				<g>
					<path class="st5" d="M318.6,429.3c7.2-7.1,14-1.1,14-1c0.3-1.4,0.4-2.7,0.1-3.8c-1.2-6.3-8.6-10.1-15.2-8.9
						s-11.7,8.5-10.6,14.8c0.2,1.2,0.8,2.2,1.6,3.1C309.9,434.1,313.1,434.7,318.6,429.3z"/>
					<path class="st4" d="M332.6,428.3c-0.1,0-6.8-6.1-14,1c-5.4,5.4-8.7,4.8-10,4.2c1.5,1.8,3.8,3.2,6,4.9c2.7,2.1,5,5.9,8.5,6.6
						c2.5,0.6,3.9-5,8.2-6.3c1.5-0.4-1.2-2-0.7-3.5C331.4,432.8,332.2,430.4,332.6,428.3z"/>
				</g>
				<path class="st5" d="M246.1,463.9c-2-3.4-1.7-9.3,5.1-14.8c6.8-5.4,28.2-0.4,35.1-5.9c7-5.5,19.1-13.4,22.9-8.7
					s10.9,14.6,0.7,22.7c-16.9,13.4-27.2-1.6-39,7.8C259.1,474.5,249.2,469.3,246.1,463.9z"/>
				<path class="st4" d="M185.1,457.4c-0.5,4.8,13.8,3.3,22,2.9s16.8,8.9,21.3,6.5c3.4-1.8,14.2-16.3,25.7-16.5
					c9.8-0.1,15.3,15.4-0.4,20.4c0,0-23,8-32.5,8.6c-9.5,0.5-30.1-11.1-38.9-14.1c-2.6-0.9-8.9-1.1-12.1-2.6
					c-5.1-2.5-7.9,2.2-11.6-1.3c-4.1-3.9,10.3-3,14-6.9C176.3,450.6,186.2,447.1,185.1,457.4z"/>
				<g>
					<path class="st4" d="M186.1,458.6c2.1,2.2,11.6,1.6,17.9,1.2c0.9-0.1,1.8-0.1,2.6-0.1c-5.7-5.2-17.5-5.3-21.4-7.1
						c0.5,1.1,0.8,2.7,0.6,5C185.7,457.9,185.8,458.3,186.1,458.6z"/>
					<path class="st4" d="M168.5,453.9c0.6,0.4,1.3,0.8,2.2,1.1c0.6-0.3,1-0.6,1.4-1c2.3-2.5,7.6-5.2,11-3.6
						c0.3,0.1,0.6,0.3,0.8,0.5c0-0.1,0-0.1,0-0.2c2.5-10.1-7.8-7.9-12-4.6s-18.3,0.5-14.8,4.9C160.3,455,163.8,450.8,168.5,453.9z"
						/>
				</g>
				<path class="st4" d="M322.5,501.1c0,0,6,9.4,0.4,20.2c-1.4,2.7-0.8-8.9-2.7-10.6c-1.4-1.2-1.8,0.8-2.1,1.3
					c-0.5,0.7-1.7-0.1-1.6-0.9l1.5-10.4c0,0-15.3-23.1-19-51.3c-1.6-12.1,11.9-10.6,11.8-4.5C310.2,478,323.1,482.8,322.5,501.1z"/>
				<path class="st4" d="M335.3,481.7c-5.1-13.9-12.7-12.3-21.7-27.2c-0.5,0.6-1,1.3-1.7,1.9c0.4,4.5,1.1,8.4,2,11.7
					c9.3,10.2,17.1,15,17.1,15l2.5,10.2c0.2,0.9,1.6,1.1,1.8,0.3c0.1-0.6-0.3-2.6,1.4-2.1c2.5,0.8,6.2,11.7,6.5,8.7
					C344.4,488.1,335.3,481.7,335.3,481.7z"/>
			</g>
			<g>
				<g>
					<path class="st6" d="M306.7,491.4c-24.8,8.5-51.9-4.2-61.1-28.6"/>
					<g>
						<polygon class="st3" points="253.1,465 252.5,466.4 245.9,463.3 243.3,470.2 241.9,469.6 245.1,461.3 						"/>
					</g>
				</g>
			</g>
		</g>
	</g>
	<g id="nadadora-tres_00000098915984541019133890000008224014501143119797_">
		<path class="st4" d="M300.2,317.3c-3.2,1.2-5.6,1.5-7.2,1.3c-1.6-1.2-2.8-2-2.8-2l-0.6,0.6c-0.1-0.1-0.1-0.1-0.2-0.2
			c0,0.1,0.1,0.2,0.1,0.3l-4.2,3.9c1.9-0.1,3.8-0.3,5.8-0.5l0,0c0.9-0.1,1.9-0.2,2.9-0.3c5.7-0.5,11.5-1,17.5-1.1
			C309.4,317.3,305.9,315.2,300.2,317.3z"/>
		<path class="st5" d="M217.9,332.8c-1.3-3.7,0.2-9.5,7.9-13.4c7.8-4,27.7,5.3,35.6,1.3c7.9-4,21.4-9.3,24.2-3.9
			c2.7,5.4,7.8,16.5-3.8,22.3c-19.2,9.8-26.3-7-39.8-0.1C228.5,345.7,220,338.6,217.9,332.8z"/>
		<path class="st4" d="M344.3,319.4c0,0,10.1-4.8,20.1,2.2c2.5,1.7-8.9-0.4-10.8,1.4c-1.3,1.2,0.6,1.8,1.1,2.3
			c0.7,0.6-0.3,1.7-1.1,1.4l-10.1-2.8c0,0-23.3,6.3-38.6,6.1c-9.2-0.1-17.8,3-24.6,3.3c-12.2,0.6-14.6-11.1-2.3-11.1
			c10.5,0,22.8-2.1,35.4-2.1C323.7,320,334.4,320,344.3,319.4z"/>
		<path class="st5" d="M300.2,317.3c5.7-2.1,9.2,0,11.2,2.1c0.7,0,1.3,0,2,0c0.5,0,1,0,1.5,0c0.1-0.2,0.1-0.4,0.2-0.6
			c1.5-6.2-3.7-12.8-10.2-14.3c-6.5-1.6-14.2,2.9-15.7,9.1c-0.3,1.2-0.2,2.3,0.1,3.5C290.3,318.1,293,319.9,300.2,317.3z"/>
		<path class="st4" d="M304.8,330.6c-3,0-5.9,0.3-8.8,0.7c0.5,0.8,1.1,1.6,1.8,2.1c2,1.5,5.7-3,10-2.4c0.5,0.1,0.6-0.1,0.6-0.5
			C307.3,330.6,306,330.6,304.8,330.6z"/>
		<path class="st4" d="M160.7,332.7c0.9,4.8,13.8,0.1,21.9,0.5c8.2,0.4,11,2.3,15.7,0.4c3.6-1.5,19.9-12.7,31.4-11.6
			c9.7,0.9,13.6,16.9-2.5,20.2c0,0-20.6,4.1-30.1,3.7s-27.8-4.6-37.1-4.9c-2.8-0.1-8.8,1.4-12.3,0.9c-5.6-0.9-7,4.4-11.6,2
			c-5-2.6,9.1-5.7,11.5-10.5C150.3,328.6,158.9,322.4,160.7,332.7z"/>
		<path class="st4" d="M147.6,332.3L147.6,332.3c1.9-2.9,5.8-6.3,9.2-5.8c1.6,0.2,3.7,1.5,4.6,6.1c0.4,2.4,5.9,1.6,11.1,0.8
			c3.5-0.5,7.1-1,10.2-0.9c3,0.1,5.2,0.5,7.1,0.8c0.6,0.1,1.1,0.2,1.7,0.2c-16.4-8.7-29.5-1.6-28.9-6c1.4-10.3-8.6-7.1-12.4-3.3
			c-3.8,3.8-18.1,2.5-14.2,6.5C139.6,334.3,142.5,329.7,147.6,332.3z"/>
		<g>
			<g>
				<line class="st6" x1="272.5" y1="361.6" x2="350.7" y2="361.6"/>
				<g>
					<polygon class="st3" points="345.8,367.7 344.8,366.6 350.1,361.6 344.8,356.7 345.8,355.6 352.3,361.6 					"/>
				</g>
			</g>
		</g>
	</g>
	<g id="nadadora-dos_00000083053876415886534480000014926365567797932222_">
		<path class="st4" d="M297.2,179.3c-3.2,1.2-5.6,1.5-7.2,1.3c-1.6-1.2-2.8-2-2.8-2l-0.6,0.6c-0.1-0.1-0.1-0.1-0.2-0.2
			c0,0.1,0.1,0.2,0.1,0.3l-4.2,3.9c1.9-0.1,3.8-0.3,5.8-0.5l0,0c0.9-0.1,1.9-0.2,2.9-0.3c5.7-0.5,11.5-1,17.5-1.1
			C306.5,179.3,302.9,177.2,297.2,179.3z"/>
		<path class="st5" d="M215,194.8c-1.3-3.7,0.2-9.5,7.9-13.4c7.8-4,27.7,5.3,35.6,1.3c7.9-4,21.4-9.3,24.2-3.9
			c2.7,5.4,7.8,16.5-3.8,22.3c-19.2,9.8-26.3-7-39.8-0.1C225.5,207.7,217,200.6,215,194.8z"/>
		<path class="st4" d="M341.3,181.4c0,0,10.1-4.8,20.1,2.2c2.5,1.7-8.9-0.4-10.8,1.4c-1.3,1.2,0.6,1.8,1.1,2.3
			c0.7,0.6-0.3,1.7-1.1,1.4l-10.1-2.8c0,0-23.3,6.3-38.6,6.1c-9.2-0.1-17.8,3-24.6,3.3c-12.2,0.6-14.6-11.1-2.3-11.1
			c10.5,0,22.8-2.1,35.4-2.1C320.7,182,331.4,182,341.3,181.4z"/>
		<path class="st5" d="M297.2,179.3c5.7-2.1,9.2,0,11.2,2.1c0.7,0,1.3,0,2,0c0.5,0,1,0,1.5,0c0.1-0.2,0.1-0.4,0.2-0.6
			c1.5-6.2-3.7-12.8-10.2-14.3c-6.5-1.6-14.2,2.9-15.7,9.1c-0.3,1.2-0.2,2.3,0.1,3.5C287.3,180.1,290.1,181.9,297.2,179.3z"/>
		<path class="st4" d="M301.8,192.6c-3,0-5.9,0.3-8.8,0.7c0.5,0.8,1.1,1.6,1.8,2.1c2,1.5,5.7-3,10-2.4c0.5,0.1,0.6-0.1,0.6-0.5
			C304.3,192.6,303,192.6,301.8,192.6z"/>
		<path class="st4" d="M163.3,207.8c1,4.8,12.9,2,16.8,4.7c6.1,4.2,10.4,11,13.3,6.8c2.2-3.2,16.1-25.7,26.4-31.1
			c8.6-4.5,20.6,6.8,8.9,18.4c0,0-25.3,23.5-33.6,28.3c-8.2,4.8-25.9-17-32.1-18.8c-2.7-0.7-7.6,0.2-12.3,1.3
			c-5.5,1.3-6.9,4.6-11.5,2.4c-5.1-2.4,8.9-6,11.2-10.8C152.8,204,161.1,197.6,163.3,207.8z"/>
		<path class="st4" d="M167.7,198.3c4.5,2.3,6.8,1,11.5-2.1c6.6-4.4,13.3,9.7,17.3,17.2c2-3,4.6-6.7,7.4-10.4
			c-1.1-2.8-2.6-5.2-4.4-6.5c-3.8-2.7-8.1-3.9-9-8.7c-2-10.2-9.1-4.9-11.5-0.1C176.7,192.5,162.7,195.8,167.7,198.3z"/>
		<g>
			<g>
				<path class="st6" d="M250.4,166.3c11.5-23.6,39.6-33.7,63.4-23"/>
				<g>
					<polygon class="st3" points="307,147.1 306.5,145.7 313.3,143.1 310.3,136.5 311.6,135.9 315.3,144 					"/>
				</g>
			</g>
		</g>
	</g>
	<g id="nadadora-uno">
		<path class="st4" d="M304.9,47.4c0,0-2.1-5.4,4.2-11.9s-12-4.9-12-4.9l-1.3,9.2L304.9,47.4z"/>
		<g>
			<path class="st5" d="M305.4,24.9c5.2-8.7,13.3-4.5,13.3-4.5c-0.1-1.4-0.4-2.7-0.8-3.7c-2.7-5.8-10.9-7.6-16.9-4.8
				c-6,2.9-9.2,11.2-6.5,16.9c0.5,1.1,1.3,1.9,2.3,2.6C298.1,31.7,301.5,31.5,305.4,24.9z"/>
			<path class="st4" d="M318.7,20.4c-0.1,0-8.1-4.2-13.3,4.5c-3.9,6.6-7.2,6.8-8.6,6.5c1.9,1.3,4.4,2.1,7.1,3.2
				c3.2,1.3,6.4,4.4,9.9,4.3c2.6-0.1,2.5-5.9,6.3-8.2c1.3-0.8-1.7-1.6-1.5-3.2C318.7,25.1,318.8,22.6,318.7,20.4z"/>
		</g>
		<path class="st5" d="M240.5,67.5c-2.2-3.3-2.2-9.2,4.3-15s28.1-1.8,34.8-7.8c6.7-5.9,18.4-14.4,22.4-9.9s11.7,14,1.9,22.6
			c-16.1,14.3-27.2-0.1-38.6,9.9C254,77.4,244,72.7,240.5,67.5z"/>
		<path class="st4" d="M327.6,42.5c0,0,12.9-2.7,13.8,2.3c0.2,1.4-6.2-2.1-8.8,0.9c-1.2,1.4,2.1,1.2,2.4,1.8
			c0.3,0.8-3.1,2.1-3.7,1.5l-4.4,0.5c-4.7,0-31,39.9-34.5,0c-1.1-12.1,11.8-8.7,11.5-4.5C301.9,71.1,308,51.9,327.6,42.5z"/>
		<path class="st4" d="M185.8,56.3c-0.5,4.8,7.7,4.1,15.9,3.7c8.2-0.4,16.3,12.3,20.9,9.9c3.4-1.8,14.2-16.3,25.7-16.5
			c9.8-0.1,15.3,15.4-0.4,20.4c0,0-19.6,8-29.1,8.5S191.9,67,183.1,64.1c-2.6-0.9-8.9-1.1-12.1-2.6c-5.1-2.5-7.9,2.2-11.6-1.3
			c-4.1-3.9,10.3-3,14-6.9S186.9,46,185.8,56.3z"/>
		<g>
			<g>
				<path class="st6" d="M330.4,66.2c-11.5,23.6-39.7,33.7-63.4,23"/>
				<g>
					<polygon class="st3" points="273.8,85.4 274.4,86.8 267.5,89.3 270.5,95.9 269.2,96.6 265.5,88.5 					"/>
				</g>
			</g>
		</g>
	</g>
</g>
</svg>
