<?xml version="1.0" encoding="utf-8"?>
<!-- Generator: Adobe Illustrator 27.3.1, SVG Export Plug-In . SVG Version: 6.00 Build 0)  -->
<svg version="1.1" xmlns="http://www.w3.org/2000/svg" xmlns:xlink="http://www.w3.org/1999/xlink" x="0px" y="0px"
	 viewBox="0 0 500 1000" style="enable-background:new 0 0 500 1000;" xml:space="preserve">
<style type="text/css">
	.st0{fill:#C6C6C6;}
	.st1{fill:#EDEDED;}
	.st2{fill:#9D9D9C;}
	.st3{fill:none;stroke:#646363;stroke-width:2;stroke-linecap:round;stroke-linejoin:round;stroke-miterlimit:10;}
	.st4{fill:none;stroke:#000000;stroke-width:2;stroke-linecap:round;stroke-linejoin:round;stroke-miterlimit:10;}
	.st5{fill:none;stroke:#ECECEC;stroke-width:2.5639;stroke-miterlimit:10;}
	.st6{fill:#3C3C3B;}
	.st7{fill:#878787;}
	.st8{fill:#F5E9D7;}
	.st9{fill:#575756;}
	.st10{fill:none;stroke:#D7533B;stroke-width:3;stroke-linecap:round;stroke-miterlimit:10;}
	.st11{fill:#F4E6D2;}
	.st12{fill:#F7ECDC;}
	.st13{fill:#F8EEE0;}
	.st14{fill:#F9F1E6;}
	.st15{fill:#FAF4EB;}
	.st16{fill:#FBF7F0;}
	.st17{fill:#FDFAF5;}
	.st18{fill:#FDFCFA;}
	.st19{fill:#FFFFFF;}
	.st20{fill:#CC1719;}
	.st21{fill:#D13829;}
	.st22{fill:#D7533B;}
	.st23{fill:#DD6F53;}
	.st24{fill:#E3876D;}
	.st25{fill:#E8A188;}
	.st26{fill:#EFBAA5;}
	.st27{fill:#F4D2C4;}
	.st28{fill:#F9E8E1;}
	.st29{fill:none;stroke:#000000;stroke-width:2;stroke-linecap:round;stroke-linejoin:round;}
	.st30{fill:none;stroke:#000000;stroke-width:2;stroke-linecap:round;stroke-linejoin:round;stroke-dasharray:2.0206,3.0309;}
	.st31{fill:none;}
	.st32{font-family:'Roboto-Bold';}
	.st33{font-size:14px;}
	.st34{font-family:'Roboto-Regular';}
	.st35{font-size:16px;}
	.st36{fill:none;stroke:#000000;stroke-width:2;stroke-linejoin:round;stroke-miterlimit:10;}
	.st37{fill:none;stroke:#E30613;stroke-width:2;stroke-linecap:round;stroke-miterlimit:10;}
	.st38{fill:#E30613;}
	.st39{fill:none;stroke:#D7533B;stroke-width:2.986;stroke-linecap:round;stroke-miterlimit:10;}
	
		.st40{fill:none;stroke:#000000;stroke-width:2;stroke-linecap:round;stroke-linejoin:round;stroke-miterlimit:10;stroke-dasharray:2,3;}
	.st41{clip-path:url(#SVGID_00000027590886366069847540000007609745114801279112_);}
	.st42{fill:none;stroke:#ECECEC;stroke-width:4.1569;stroke-miterlimit:10;}
	.st43{fill:none;stroke:#DADADA;stroke-width:2;stroke-linecap:round;stroke-linejoin:round;stroke-miterlimit:10;}
	.st44{display:none;}
	.st45{display:inline;}
	.st46{fill:none;stroke:#D7533B;stroke-width:2.716;stroke-linecap:round;stroke-miterlimit:10;}
	.st47{fill:none;stroke:#D7533B;stroke-width:3.5268;stroke-linecap:round;stroke-miterlimit:10;}
</style>
<g id="Capa_1">
	<rect x="138.9" y="167.6" class="st31" width="22.2" height="22.2"/>
	<text transform="matrix(1 0 0 1 145.9667 178.108)" class="st32 st33">0</text>
	<rect x="161.1" y="167.6" class="st31" width="22.2" height="22.2"/>
	<text transform="matrix(1 0 0 1 168.1927 178.108)" class="st32 st33">1</text>
	<rect x="183.3" y="167.6" class="st31" width="22.2" height="22.2"/>
	<text transform="matrix(1 0 0 1 190.4186 178.108)" class="st32 st33">2</text>
	<rect x="205.5" y="167.6" class="st31" width="22.2" height="22.2"/>
	<text transform="matrix(1 0 0 1 212.6446 178.108)" class="st32 st33">3</text>
	<rect x="227.8" y="167.6" class="st31" width="22.2" height="22.2"/>
	<text transform="matrix(1 0 0 1 234.8705 178.108)" class="st32 st33">4</text>
	<rect x="250" y="167.6" class="st31" width="22.2" height="22.2"/>
	<text transform="matrix(1 0 0 1 257.0965 178.108)" class="st32 st33">5</text>
	<rect x="272.2" y="167.6" class="st31" width="22.2" height="22.2"/>
	<text transform="matrix(1 0 0 1 279.3224 178.108)" class="st32 st33">6</text>
	<rect x="294.5" y="167.6" class="st31" width="22.2" height="22.2"/>
	<text transform="matrix(1 0 0 1 301.5484 178.108)" class="st32 st33">7</text>
	<rect x="316.7" y="167.6" class="st31" width="22.2" height="22.2"/>
	<text transform="matrix(1 0 0 1 323.7744 178.108)" class="st32 st33">8</text>
	<rect x="338.9" y="167.6" class="st31" width="22.2" height="22.2"/>
	<text transform="matrix(1 0 0 1 346.0003 178.108)" class="st32 st33">9</text>
	<g>
		<g>
			<rect x="207.5" y="974.8" class="st31" width="85" height="22.2"/>
			<text transform="matrix(1 0 0 1 232.0229 986.8409)" class="st34 st35">50 m</text>
		</g>
		<g>
			<g>
				<line class="st29" x1="279.8" y1="981.3" x2="316.5" y2="981.3"/>
				<g>
					<rect x="315.5" y="974.8" width="2" height="13"/>
				</g>
			</g>
		</g>
		<g>
			<g>
				<line class="st29" x1="220.2" y1="981.3" x2="183.5" y2="981.3"/>
				<g>
					<rect x="182.5" y="974.8" width="2" height="13"/>
				</g>
			</g>
		</g>
	</g>
	<g>
		<line class="st4" x1="81.2" y1="880.5" x2="101.2" y2="852.3"/>
		<line class="st4" x1="66" y1="902.3" x2="44.1" y2="933.1"/>
		<rect x="21.4" y="882.5" class="st31" width="59.8" height="16.4"/>
		<text transform="matrix(1 0 0 1 45.2318 894.5353)" class="st34 st35">21 m</text>
		<line class="st36" x1="101.2" y1="844.9" x2="101.2" y2="861.8"/>
		<line class="st36" x1="44.1" y1="923.8" x2="44.1" y2="940.8"/>
	</g>
	<g>
		<g>
			<rect x="462.4" y="947.9" class="st31" width="53.6" height="13.1"/>
			<text transform="matrix(1 0 0 1 462.4422 959.9436)" class="st34 st35">2 m</text>
		</g>
		<g>
			<g>
				<line class="st29" x1="452.8" y1="966.6" x2="452.8" y2="938.7"/>
				<g>
					<rect x="446.3" y="965.6" width="13" height="2"/>
				</g>
				<g>
					<rect x="446.3" y="937.7" width="13" height="2"/>
				</g>
			</g>
		</g>
	</g>
	<rect x="44.1" y="83" class="st31" width="148.6" height="72.1"/>
	<text transform="matrix(1 0 0 1 44.1506 93.5103)"><tspan x="0" y="0" class="st34 st33">Banderines a 5 metros </tspan><tspan x="0" y="16.8" class="st34 st33">que indican el viraje en </tspan><tspan x="0" y="33.6" class="st34 st33">estilo Espalda.</tspan></text>
	<g>
		<rect x="212.1" y="21.3" class="st31" width="115.1" height="66"/>
		<text transform="matrix(1 0 0 1 212.0501 31.7669)"><tspan x="0" y="0" class="st34 st33">Poyete de salida </tspan><tspan x="0" y="16.8" class="st34 st33">desde donde los </tspan><tspan x="0" y="33.6" class="st34 st33">nadadores saltan </tspan><tspan x="0" y="50.4" class="st34 st33">al agua.</tspan></text>
	</g>
	<g>
		<rect x="356.8" y="83" class="st31" width="132" height="80.7"/>
		<text transform="matrix(1 0 0 1 356.7551 93.5105)"><tspan x="0" y="0" class="st34 st33">Cuerda de partida </tspan><tspan x="0" y="16.8" class="st34 st33">falsa a 15 metros de </tspan><tspan x="0" y="33.6" class="st34 st33">la salida. Se deja </tspan><tspan x="0" y="50.4" class="st34 st33">caer sobre el agua.</tspan></text>
	</g>
	<g>
		<rect x="44.1" y="730.6" class="st31" width="206.9" height="69.1"/>
		<text transform="matrix(1 0 0 1 44.1497 741.0868)"><tspan x="0" y="0" class="st34 st33">Calle o carril, tiene 2.5 metros de </tspan><tspan x="0" y="16.8" class="st34 st33">ancho. En finales y semifinales </tspan><tspan x="0" y="33.6" class="st34 st33">se utilizan del 1 al 8.</tspan></text>
	</g>
	<g>
		<rect x="296.5" y="730.6" class="st31" width="152.4" height="69.1"/>
		<text transform="matrix(1 0 0 1 296.4655 741.0864)"><tspan x="0" y="0" class="st34 st33">Almoadillas de presión </tspan><tspan x="0" y="16.8" class="st34 st33">que registran el tiempo </tspan><tspan x="0" y="33.6" class="st34 st33">en la llegada o en cada </tspan><tspan x="0" y="50.4" class="st34 st33">viraje.</tspan></text>
	</g>
	<g id="POLYLINE_00000057839304683525030550000013064415296024890548_">
		<polygon class="st9" points="470.9,744.8 470.9,730.6 461.3,730.6 461.3,744.8 451.6,744.8 451.6,754.4 461.3,754.4 461.3,798.1 
			470.9,798.1 470.9,754.4 480.6,754.4 480.6,744.8 		"/>
	</g>
	<g>
		<path class="st0" d="M451.9,675.4H48.1c-5.2,0-9.2-4.7-8.2-9.8l85.7-474.1c0.7-4,4.2-6.9,8.2-6.9h232.4c4,0,7.5,2.9,8.2,6.9
			l85.7,474.1C461.1,670.7,457.1,675.4,451.9,675.4z"/>
		<polygon class="st1" points="435.8,651.1 64.2,651.1 138.9,231.9 361.1,231.9 		"/>
		<polygon class="st0" points="435.8,651.1 361.1,231.9 361.1,201.9 441.2,651.1 		"/>
		<polygon class="st0" points="64.2,651.1 138.9,231.9 138.9,201.9 58.8,651.1 		"/>
		<rect x="138.9" y="201.9" class="st2" width="222.3" height="30"/>
		<polyline class="st3" points="64.2,651.1 138.9,231.9 361.1,231.9 435.8,651.1 		"/>
		<line class="st3" x1="138.9" y1="201.9" x2="138.9" y2="231.9"/>
		<line class="st3" x1="361.1" y1="201.9" x2="361.1" y2="231.9"/>
		<polygon class="st4" points="441.2,651.1 58.8,651.1 138.9,201.9 361.1,201.9 		"/>
	</g>
	<g>
		<line class="st39" x1="161.1" y1="203.2" x2="97.1" y2="649.1"/>
		<line class="st39" x1="183.3" y1="203.2" x2="135.3" y2="649.1"/>
		<line class="st39" x1="205.5" y1="203.2" x2="173.5" y2="649.1"/>
		<line class="st39" x1="227.8" y1="203.2" x2="211.8" y2="649.1"/>
		<line class="st39" x1="250" y1="203.2" x2="250" y2="649.1"/>
		<line class="st39" x1="272.2" y1="203.2" x2="288.2" y2="649.1"/>
		<line class="st39" x1="294.5" y1="203.2" x2="326.5" y2="649.1"/>
		<line class="st39" x1="316.7" y1="203.2" x2="364.7" y2="649.1"/>
		<line class="st39" x1="338.9" y1="203.2" x2="402.9" y2="649.1"/>
	</g>
	<g>
		<g>
			<g>
				<rect x="144.8" y="196.8" class="st6" width="11.7" height="1.6"/>
				<polygon points="158.3,190.2 156.4,198.4 156.4,196.8 158.3,188.6 				"/>
				<polygon class="st7" points="158,194.9 142.4,194.9 144.4,186.7 160,186.7 				"/>
				<path class="st8" d="M156.1,194.2h-11c-0.6,0-1.1-0.6-0.9-1.2l1.1-4.5c0.2-0.6,0.7-1.1,1.4-1.1h10.1c0.9,0,1.6,0.8,1.4,1.7
					l-1.1,4.3C156.9,193.9,156.5,194.2,156.1,194.2z"/>
				<rect x="142.4" y="194.9" class="st9" width="15.6" height="1.9"/>
				<polygon class="st6" points="160,188.6 158,196.8 158,194.9 160,186.7 				"/>
			</g>
		</g>
		<g>
			<g>
				<rect x="167.1" y="196.8" class="st6" width="11.7" height="1.6"/>
				<polygon points="180.6,190.2 178.7,198.4 178.7,196.8 180.6,188.6 				"/>
				<polygon class="st7" points="180.3,194.9 164.7,194.9 166.7,186.7 182.3,186.7 				"/>
				<path class="st8" d="M178.4,194.2h-10.9c-0.6,0-1.1-0.6-1-1.2l1.1-4.5c0.2-0.6,0.7-1.1,1.4-1.1H179c0.9,0,1.6,0.8,1.4,1.7
					l-1.1,4.3C179.2,193.9,178.8,194.2,178.4,194.2z"/>
				<rect x="164.7" y="194.9" class="st9" width="15.6" height="1.9"/>
				<polygon class="st6" points="182.3,188.6 180.3,196.8 180.3,194.9 182.3,186.7 				"/>
			</g>
		</g>
		<g>
			<g>
				<rect x="189.3" y="196.8" class="st6" width="11.7" height="1.6"/>
				<polygon points="201.9,190.2 201,198.4 201,196.8 201.9,188.6 				"/>
				<polygon class="st7" points="202.6,194.9 187,194.9 189,186.7 203.6,186.7 				"/>
				<path class="st8" d="M200.3,194.2h-10.5c-0.7,0-1.2-0.6-1-1.3l1.1-4.7c0.1-0.5,0.5-0.8,1-0.8l10.2,0c0.6,0,1,0.5,1,1.1l-0.5,4.6
					C201.5,193.7,201,194.2,200.3,194.2z"/>
				<rect x="187" y="194.9" class="st9" width="15.6" height="1.9"/>
				<polygon class="st6" points="203.6,188.6 202.6,196.8 202.6,194.9 203.6,186.7 				"/>
			</g>
		</g>
		<g>
			<g>
				
					<rect x="299.1" y="196.8" transform="matrix(-1 -4.486423e-11 4.486423e-11 -1 609.8248 395.1274)" class="st6" width="11.7" height="1.6"/>
				<polygon points="298.2,190.2 299.1,198.4 299.1,196.8 298.2,188.6 				"/>
				<polygon class="st7" points="297.5,194.9 313.1,194.9 311.1,186.7 296.5,186.7 				"/>
				<path class="st8" d="M299.8,194.2h10.7c0.6,0,1.1-0.6,0.9-1.2l-1.1-4.5c-0.2-0.6-0.7-1.1-1.4-1.1l-10,0c-0.6,0-1,0.5-1,1.1
					l0.5,4.6C298.6,193.7,299.1,194.2,299.8,194.2z"/>
				
					<rect x="297.5" y="194.9" transform="matrix(-1 -4.485935e-11 4.485935e-11 -1 610.5433 391.6609)" class="st9" width="15.6" height="1.9"/>
				<polygon class="st6" points="296.5,188.6 297.5,196.8 297.5,194.9 296.5,186.7 				"/>
			</g>
		</g>
		<g>
			<g>
				
					<rect x="321.1" y="196.8" transform="matrix(-1 -4.494239e-11 4.494239e-11 -1 653.9145 395.1274)" class="st6" width="11.7" height="1.6"/>
				<polygon points="319.2,190.2 321.1,198.4 321.1,196.8 319.2,188.6 				"/>
				<polygon class="st7" points="319.5,194.9 335.1,194.9 333.1,186.7 317.5,186.7 				"/>
				<path class="st8" d="M321.4,194.2h11.1c0.6,0,1-0.5,0.9-1.1l-1.1-4.6c-0.2-0.6-0.7-1.1-1.4-1.1h-10.1c-0.9,0-1.6,0.8-1.4,1.7
					l1.1,4.3C320.7,193.9,321,194.2,321.4,194.2z"/>
				
					<rect x="319.5" y="194.9" transform="matrix(-1 -4.491752e-11 4.491752e-11 -1 654.633 391.6609)" class="st9" width="15.6" height="1.9"/>
				<polygon class="st6" points="317.5,188.6 319.5,196.8 319.5,194.9 317.5,186.7 				"/>
			</g>
		</g>
		<g>
			<g>
				
					<rect x="343.6" y="196.8" transform="matrix(-1 -4.486423e-11 4.486423e-11 -1 698.7979 395.1274)" class="st6" width="11.7" height="1.6"/>
				<polygon points="341.7,190.2 343.6,198.4 343.6,196.8 341.7,188.6 				"/>
				<polygon class="st7" points="342,194.9 357.6,194.9 355.6,186.7 340,186.7 				"/>
				<path class="st8" d="M344.3,194.2h10.7c0.6,0,1-0.6,0.9-1.1l-1.1-4.6c-0.2-0.6-0.7-1.1-1.4-1.1h-10.1c-0.9,0-1.6,0.8-1.4,1.7
					l1,4C343.1,193.7,343.6,194.2,344.3,194.2z"/>
				
					<rect x="342" y="194.9" transform="matrix(-1 -4.485935e-11 4.485935e-11 -1 699.5164 391.6609)" class="st9" width="15.6" height="1.9"/>
				<polygon class="st6" points="340,188.6 342,196.8 342,194.9 340,186.7 				"/>
			</g>
		</g>
		<g>
			<g>
				<g>
					<rect x="232.6" y="196.8" class="st6" width="11.7" height="1.6"/>
					<rect x="230.6" y="194.9" class="st9" width="15.6" height="1.9"/>
				</g>
			</g>
			<polygon class="st7" points="246.2,194.9 230.6,194.9 231.6,186.7 245.2,186.7 			"/>
			<path class="st8" d="M244.2,194.2h-11.5c-0.4,0-0.7-0.4-0.6-0.7l0.4-5.6c0.1-0.3,0.3-0.5,0.6-0.5h10.8c0.3,0,0.5,0.2,0.6,0.5
				l0.4,5.6C244.8,193.9,244.5,194.2,244.2,194.2z"/>
		</g>
		<g>
			<g>
				<g>
					<rect x="210.8" y="196.8" class="st6" width="11.7" height="1.6"/>
					<rect x="208.9" y="194.9" class="st9" width="15.6" height="1.9"/>
				</g>
			</g>
			<polygon class="st7" points="224.5,194.9 208.9,194.9 210.9,186.7 223.5,186.7 			"/>
			<path class="st8" d="M222.4,194.2h-11.5c-0.4,0-0.7-0.4-0.6-0.7l1.4-5.6c0.1-0.3,0.3-0.5,0.6-0.5h9.8c0.3,0,0.5,0.2,0.6,0.5
				l0.4,5.6C223.1,193.9,222.8,194.2,222.4,194.2z"/>
		</g>
		<g>
			<g>
				<g>
					<rect x="255.3" y="196.8" class="st6" width="11.7" height="1.6"/>
					<rect x="253.3" y="194.9" class="st9" width="15.6" height="1.9"/>
				</g>
			</g>
			<polygon class="st7" points="268.9,194.9 253.3,194.9 254.3,186.7 267.9,186.7 			"/>
			<path class="st8" d="M266.9,194.2h-11.5c-0.4,0-0.7-0.4-0.6-0.7l0.4-5.6c0.1-0.3,0.3-0.5,0.6-0.5h10.8c0.3,0,0.5,0.2,0.6,0.5
				l0.4,5.6C267.6,193.9,267.3,194.2,266.9,194.2z"/>
		</g>
		<g>
			<g>
				<g>
					<rect x="277.5" y="196.8" class="st6" width="11.7" height="1.6"/>
					<rect x="275.5" y="194.9" class="st9" width="15.6" height="1.9"/>
				</g>
			</g>
			<polygon class="st7" points="291.1,194.9 275.5,194.9 276.5,186.7 289.2,186.7 			"/>
			<path class="st8" d="M289.1,194.2h-11.5c-0.4,0-0.7-0.4-0.6-0.7l0.4-5.6c0.1-0.3,0.3-0.5,0.6-0.5h9.8c0.3,0,0.5,0.2,0.6,0.5
				l1.4,5.6C289.8,193.9,289.5,194.2,289.1,194.2z"/>
		</g>
	</g>
	<g>
		<polyline class="st4" points="130.8,247.5 130.8,222.3 369.2,222.3 369.2,247.5 		"/>
		<g>
			<polygon points="153,222.3 146.2,229 139.5,222.3 			"/>
			<polygon points="179,222.3 172.3,229 165.5,222.3 			"/>
			<polygon points="205,222.3 198.3,229 191.6,222.3 			"/>
			<polygon points="231,222.3 224.3,229 217.6,222.3 			"/>
			<polygon points="257,222.3 250.3,229 243.6,222.3 			"/>
			<polygon points="283.1,222.3 276.3,229 269.6,222.3 			"/>
			<polygon points="309.1,222.3 302.4,229 295.6,222.3 			"/>
			<polygon points="335.1,222.3 328.4,229 321.7,222.3 			"/>
			<polygon points="361.1,222.3 354.4,229 347.7,222.3 			"/>
		</g>
	</g>
	<g>
		<line class="st4" x1="385.5" y1="310.1" x2="385.5" y2="338.7"/>
		<line class="st4" x1="114.5" y1="338.7" x2="114.5" y2="310.1"/>
	</g>
	<g>
		<polyline class="st4" points="67,605.2 67,566.5 433,566.5 433,605.2 		"/>
		<g>
			<polygon points="101.1,566.5 90.8,576.9 80.5,566.5 			"/>
			<polygon points="141,566.5 130.7,576.9 120.4,566.5 			"/>
			<polygon points="181,566.5 170.7,576.9 160.3,566.5 			"/>
			<polygon points="220.9,566.5 210.6,576.9 200.3,566.5 			"/>
			<polygon points="260.8,566.5 250.5,576.9 240.2,566.5 			"/>
			<polygon points="300.8,566.5 290.5,576.9 280.1,566.5 			"/>
			<polygon points="340.7,566.5 330.4,576.9 320.1,566.5 			"/>
			<polygon points="380.6,566.5 370.3,576.9 360,566.5 			"/>
			<polygon points="420.6,566.5 410.2,576.9 399.9,566.5 			"/>
		</g>
	</g>
	<line class="st40" x1="114.5" y1="310.1" x2="385.5" y2="310.1"/>
	<g>
		<polygon class="st38" points="102.7,639.6 106.4,614.3 134.1,614.3 131.4,639.6 		"/>
		<polygon class="st38" points="140.8,639.6 143.5,614.3 171.3,614.3 169.5,639.6 		"/>
		<polygon class="st38" points="178.8,639.6 180.6,614.3 208.4,614.3 207.5,639.6 		"/>
		<polygon class="st38" points="216.8,639.6 217.7,614.3 245.5,614.3 245.5,639.6 		"/>
		<polygon class="st38" points="254.4,639.6 254.4,614.3 282.2,614.3 283.1,639.6 		"/>
		<polygon class="st38" points="292.4,639.6 291.5,614.3 319.3,614.3 321.1,639.6 		"/>
		<polygon class="st38" points="330.5,639.6 328.6,614.3 356.4,614.3 359.1,639.6 		"/>
		<polygon class="st38" points="368.5,639.6 365.8,614.3 393.6,614.3 397.2,639.6 		"/>
	</g>
	<g>
		<g>
			<path class="st37" d="M123.9,231.5c-14.8,0-26.8-12-26.8-26.8v-58.1"/>
			<g>
				<polygon class="st38" points="103.6,151.9 102.4,153 97.1,147.2 91.7,153 90.5,151.9 97.1,144.9 				"/>
			</g>
		</g>
	</g>
	<g>
		<g>
			<line class="st37" x1="261.1" y1="164" x2="261.1" y2="94.7"/>
			<g>
				<polygon class="st38" points="267.7,100 266.5,101.1 261.1,95.3 255.7,101.1 254.6,100 261.1,93 				"/>
			</g>
		</g>
	</g>
	<g>
		<g>
			<line class="st37" x1="114.5" y1="644.6" x2="114.5" y2="713.9"/>
			<g>
				<polygon class="st38" points="108,708.6 109.1,707.5 114.5,713.3 119.9,707.5 121.1,708.6 114.5,715.6 				"/>
			</g>
		</g>
	</g>
	<g>
		<g>
			<path class="st37" d="M396.8,327.6c14.8,0,26.8-12,26.8-26.8V160.7"/>
			<g>
				<polygon class="st38" points="430.2,166 429,167.1 423.7,161.3 418.3,167.1 417.1,166 423.7,159 				"/>
			</g>
		</g>
	</g>
	<g>
		<g>
			<path class="st37" d="M423.7,647.2c0-11.7,9.5-21.2,21.2-21.2s21.2,9.5,21.2,21.2v66.6"/>
			<g>
				<polygon class="st38" points="459.5,708.6 460.7,707.5 466.1,713.3 471.5,707.5 472.6,708.6 466.1,715.6 				"/>
			</g>
		</g>
	</g>
	<g>
		<g>
			<defs>
				<polygon id="SVGID_1_" points="439.7,939.3 60.3,939.3 113.2,858.5 387.3,858.5 				"/>
			</defs>
			<clipPath id="SVGID_00000072257589636326423880000011002051099799390359_">
				<use xlink:href="#SVGID_1_"  style="overflow:visible;"/>
			</clipPath>
			<g style="clip-path:url(#SVGID_00000072257589636326423880000011002051099799390359_);">
				<g id="agua_00000118395217773352547050000009275670156287521679_">
					<g>
						<g>
							<path class="st42" d="M509.8,905.3c-23.6,0-23.6-4.2-47.2-4.2c-23.6,0-23.6,4.2-47.2,4.2c-23.6,0-23.6-4.2-47.2-4.2
								c-23.6,0-23.6,4.2-47.2,4.2c-23.6,0-23.6-4.2-47.2-4.2c-23.6,0-23.6,4.2-47.2,4.2c-23.6,0-23.6-4.2-47.2-4.2
								c-23.6,0-23.6,4.2-47.2,4.2s-23.6-4.2-47.2-4.2c-23.6,0-23.6,4.2-47.2,4.2s-23.6-4.2-47.2-4.2"/>
						</g>
						<g>
							<path class="st42" d="M509.8,913.8c-23.6,0-23.6-4.2-47.2-4.2c-23.6,0-23.6,4.2-47.2,4.2c-23.6,0-23.6-4.2-47.2-4.2
								c-23.6,0-23.6,4.2-47.2,4.2c-23.6,0-23.6-4.2-47.2-4.2c-23.6,0-23.6,4.2-47.2,4.2c-23.6,0-23.6-4.2-47.2-4.2
								c-23.6,0-23.6,4.2-47.2,4.2s-23.6-4.2-47.2-4.2c-23.6,0-23.6,4.2-47.2,4.2s-23.6-4.2-47.2-4.2"/>
						</g>
						<g>
							<path class="st42" d="M509.8,922.3c-23.6,0-23.6-4.2-47.2-4.2c-23.6,0-23.6,4.2-47.2,4.2c-23.6,0-23.6-4.2-47.2-4.2
								c-23.6,0-23.6,4.2-47.2,4.2c-23.6,0-23.6-4.2-47.2-4.2c-23.6,0-23.6,4.2-47.2,4.2c-23.6,0-23.6-4.2-47.2-4.2
								c-23.6,0-23.6,4.2-47.2,4.2s-23.6-4.2-47.2-4.2c-23.6,0-23.6,4.2-47.2,4.2s-23.6-4.2-47.2-4.2"/>
						</g>
						<g>
							<path class="st42" d="M509.8,930.8c-23.6,0-23.6-4.2-47.2-4.2c-23.6,0-23.6,4.2-47.2,4.2c-23.6,0-23.6-4.2-47.2-4.2
								c-23.6,0-23.6,4.2-47.2,4.2c-23.6,0-23.6-4.2-47.2-4.2c-23.6,0-23.6,4.2-47.2,4.2c-23.6,0-23.6-4.2-47.2-4.2
								c-23.6,0-23.6,4.2-47.2,4.2s-23.6-4.2-47.2-4.2c-23.6,0-23.6,4.2-47.2,4.2s-23.6-4.2-47.2-4.2"/>
						</g>
						<g>
							<path class="st42" d="M509.8,939.3c-23.6,0-23.6-4.2-47.2-4.2c-23.6,0-23.6,4.2-47.2,4.2c-23.6,0-23.6-4.2-47.2-4.2
								c-23.6,0-23.6,4.2-47.2,4.2c-23.6,0-23.6-4.2-47.2-4.2c-23.6,0-23.6,4.2-47.2,4.2c-23.6,0-23.6-4.2-47.2-4.2
								c-23.6,0-23.6,4.2-47.2,4.2s-23.6-4.2-47.2-4.2c-23.6,0-23.6,4.2-47.2,4.2s-23.6-4.2-47.2-4.2"/>
						</g>
					</g>
				</g>
				<g id="agua_00000152948492749674385750000017156198728285571763_">
					<g>
						<g>
							<path class="st42" d="M-9.8,858.5c23.6,0,23.6,4.2,47.2,4.2s23.6-4.2,47.2-4.2c23.6,0,23.6,4.2,47.2,4.2s23.6-4.2,47.2-4.2
								c23.6,0,23.6,4.2,47.2,4.2c23.6,0,23.6-4.2,47.2-4.2c23.6,0,23.6,4.2,47.2,4.2c23.6,0,23.6-4.2,47.2-4.2
								c23.6,0,23.6,4.2,47.2,4.2c23.6,0,23.6-4.2,47.2-4.2c23.6,0,23.6,4.2,47.2,4.2"/>
						</g>
						<g>
							<path class="st42" d="M-9.8,867c23.6,0,23.6,4.2,47.2,4.2s23.6-4.2,47.2-4.2c23.6,0,23.6,4.2,47.2,4.2s23.6-4.2,47.2-4.2
								c23.6,0,23.6,4.2,47.2,4.2c23.6,0,23.6-4.2,47.2-4.2c23.6,0,23.6,4.2,47.2,4.2c23.6,0,23.6-4.2,47.2-4.2
								c23.6,0,23.6,4.2,47.2,4.2c23.6,0,23.6-4.2,47.2-4.2c23.6,0,23.6,4.2,47.2,4.2"/>
						</g>
						<g>
							<path class="st42" d="M-9.8,875.5c23.6,0,23.6,4.2,47.2,4.2s23.6-4.2,47.2-4.2c23.6,0,23.6,4.2,47.2,4.2s23.6-4.2,47.2-4.2
								c23.6,0,23.6,4.2,47.2,4.2c23.6,0,23.6-4.2,47.2-4.2c23.6,0,23.6,4.2,47.2,4.2c23.6,0,23.6-4.2,47.2-4.2
								c23.6,0,23.6,4.2,47.2,4.2c23.6,0,23.6-4.2,47.2-4.2c23.6,0,23.6,4.2,47.2,4.2"/>
						</g>
						<g>
							<path class="st42" d="M-9.8,884c23.6,0,23.6,4.2,47.2,4.2s23.6-4.2,47.2-4.2c23.6,0,23.6,4.2,47.2,4.2s23.6-4.2,47.2-4.2
								c23.6,0,23.6,4.2,47.2,4.2c23.6,0,23.6-4.2,47.2-4.2c23.6,0,23.6,4.2,47.2,4.2c23.6,0,23.6-4.2,47.2-4.2
								c23.6,0,23.6,4.2,47.2,4.2c23.6,0,23.6-4.2,47.2-4.2c23.6,0,23.6,4.2,47.2,4.2"/>
						</g>
						<g>
							<path class="st42" d="M-9.8,892.6c23.6,0,23.6,4.2,47.2,4.2s23.6-4.2,47.2-4.2c23.6,0,23.6,4.2,47.2,4.2s23.6-4.2,47.2-4.2
								c23.6,0,23.6,4.2,47.2,4.2c23.6,0,23.6-4.2,47.2-4.2c23.6,0,23.6,4.2,47.2,4.2c23.6,0,23.6-4.2,47.2-4.2
								c23.6,0,23.6,4.2,47.2,4.2c23.6,0,23.6-4.2,47.2-4.2c23.6,0,23.6,4.2,47.2,4.2"/>
						</g>
					</g>
				</g>
			</g>
		</g>
		<g>
			<polyline class="st43" points="77.3,939.3 113.2,875.1 387.4,875.1 422.7,939.3 			"/>
			<line class="st43" x1="113.2" y1="858.5" x2="113.2" y2="875.1"/>
			<line class="st43" x1="387.4" y1="858.5" x2="387.4" y2="875.1"/>
		</g>
		<polygon class="st4" points="439.7,939.3 60.3,939.3 113.2,858.5 387.3,858.5 		"/>
		<polyline class="st4" points="60.3,939.3 60.3,966 439.7,966 439.7,939.3 		"/>
	</g>
	<g>
		<g>
			<line class="st4" x1="129.4" y1="852.3" x2="129.4" y2="883.9"/>
			<line class="st4" x1="140" y1="852.3" x2="140" y2="883.9"/>
			<line class="st4" x1="129.4" y1="858.7" x2="140" y2="858.7"/>
			<line class="st4" x1="129.4" y1="864.2" x2="140" y2="864.2"/>
			<line class="st4" x1="129.4" y1="869.6" x2="140" y2="869.6"/>
			<line class="st4" x1="129.4" y1="875.1" x2="140" y2="875.1"/>
			<line class="st4" x1="129.4" y1="880.5" x2="140" y2="880.5"/>
		</g>
		<g>
			<line class="st4" x1="360" y1="852.3" x2="360" y2="883.9"/>
			<line class="st4" x1="370.6" y1="852.3" x2="370.6" y2="883.9"/>
			<line class="st4" x1="360" y1="858.7" x2="370.6" y2="858.7"/>
			<line class="st4" x1="360" y1="864.2" x2="370.6" y2="864.2"/>
			<line class="st4" x1="360" y1="869.6" x2="370.6" y2="869.6"/>
			<line class="st4" x1="360" y1="875.1" x2="370.6" y2="875.1"/>
			<line class="st4" x1="360" y1="880.5" x2="370.6" y2="880.5"/>
		</g>
	</g>
</g>
<g id="Capa_2" class="st44">
	<g class="st45">
		<line class="st46" x1="138.9" y1="220.9" x2="138.9" y2="181.7"/>
		<line class="st46" x1="161.1" y1="220.9" x2="161.1" y2="181.7"/>
		<line class="st46" x1="183.3" y1="220.9" x2="183.3" y2="181.7"/>
		<line class="st46" x1="205.5" y1="220.9" x2="205.5" y2="181.7"/>
		<line class="st46" x1="227.8" y1="220.9" x2="227.8" y2="181.7"/>
		<line class="st46" x1="250" y1="220.9" x2="250" y2="181.7"/>
		<line class="st46" x1="272.2" y1="220.9" x2="272.2" y2="181.7"/>
		<line class="st46" x1="294.5" y1="220.9" x2="294.5" y2="181.7"/>
		<line class="st46" x1="316.7" y1="220.9" x2="316.7" y2="181.7"/>
		<line class="st46" x1="338.9" y1="220.9" x2="338.9" y2="181.7"/>
		<line class="st46" x1="361.1" y1="220.9" x2="361.1" y2="181.7"/>
	</g>
	<g class="st45">
		<line class="st46" x1="58.8" y1="710.3" x2="58.8" y2="671.1"/>
		<line class="st46" x1="97.1" y1="710.3" x2="97.1" y2="671.1"/>
		<line class="st46" x1="135.3" y1="710.3" x2="135.3" y2="671.1"/>
		<line class="st46" x1="173.5" y1="710.3" x2="173.5" y2="671.1"/>
		<line class="st46" x1="211.8" y1="710.3" x2="211.8" y2="671.1"/>
		<line class="st46" x1="250" y1="710.3" x2="250" y2="671.1"/>
		<line class="st46" x1="288.2" y1="710.3" x2="288.2" y2="671.1"/>
		<line class="st46" x1="326.5" y1="710.3" x2="326.5" y2="671.1"/>
		<line class="st46" x1="364.7" y1="710.3" x2="364.7" y2="671.1"/>
		<line class="st46" x1="402.9" y1="710.3" x2="402.9" y2="671.1"/>
		<line class="st46" x1="441.2" y1="710.3" x2="441.2" y2="671.1"/>
	</g>
	<g class="st45">
		<line class="st46" x1="467.8" y1="221.6" x2="507.1" y2="221.6"/>
		<line class="st46" x1="467.8" y1="230.8" x2="507.1" y2="230.8"/>
		<line class="st46" x1="467.8" y1="240" x2="507.1" y2="240"/>
		<line class="st46" x1="467.8" y1="249.1" x2="507.1" y2="249.1"/>
		<line class="st46" x1="467.8" y1="258.3" x2="507.1" y2="258.3"/>
		<line class="st46" x1="467.8" y1="267.5" x2="507.1" y2="267.5"/>
		<line class="st46" x1="467.8" y1="276.6" x2="507.1" y2="276.6"/>
		<line class="st46" x1="467.8" y1="285.8" x2="507.1" y2="285.8"/>
		<line class="st46" x1="467.8" y1="295" x2="507.1" y2="295"/>
		<line class="st46" x1="467.8" y1="304.2" x2="507.1" y2="304.2"/>
		<line class="st46" x1="467.8" y1="313.3" x2="507.1" y2="313.3"/>
		<line class="st46" x1="467.8" y1="322.5" x2="507.1" y2="322.5"/>
		<line class="st46" x1="467.8" y1="331.7" x2="507.1" y2="331.7"/>
		<line class="st46" x1="467.8" y1="340.9" x2="507.1" y2="340.9"/>
		<line class="st46" x1="467.8" y1="350" x2="507.1" y2="350"/>
		<line class="st46" x1="467.8" y1="359.2" x2="507.1" y2="359.2"/>
		<line class="st46" x1="467.8" y1="368.4" x2="507.1" y2="368.4"/>
		<line class="st46" x1="467.8" y1="377.5" x2="507.1" y2="377.5"/>
		<line class="st46" x1="467.8" y1="386.7" x2="507.1" y2="386.7"/>
		<line class="st46" x1="467.8" y1="395.9" x2="507.1" y2="395.9"/>
		<line class="st46" x1="467.8" y1="405.1" x2="507.1" y2="405.1"/>
		<line class="st46" x1="467.8" y1="414.2" x2="507.1" y2="414.2"/>
		<line class="st46" x1="467.8" y1="423.4" x2="507.1" y2="423.4"/>
		<line class="st46" x1="467.8" y1="432.6" x2="507.1" y2="432.6"/>
		<line class="st46" x1="467.8" y1="441.8" x2="507.1" y2="441.8"/>
		<line class="st46" x1="467.8" y1="450.9" x2="507.1" y2="450.9"/>
		<line class="st46" x1="467.8" y1="460.1" x2="507.1" y2="460.1"/>
		<line class="st46" x1="467.8" y1="469.3" x2="507.1" y2="469.3"/>
		<line class="st46" x1="467.8" y1="478.4" x2="507.1" y2="478.4"/>
		<line class="st46" x1="467.8" y1="487.6" x2="507.1" y2="487.6"/>
		<line class="st46" x1="467.8" y1="496.8" x2="507.1" y2="496.8"/>
		<line class="st46" x1="467.8" y1="506" x2="507.1" y2="506"/>
		<line class="st46" x1="467.8" y1="515.1" x2="507.1" y2="515.1"/>
		<line class="st46" x1="467.8" y1="524.3" x2="507.1" y2="524.3"/>
		<line class="st46" x1="467.8" y1="533.5" x2="507.1" y2="533.5"/>
		<line class="st46" x1="467.8" y1="542.6" x2="507.1" y2="542.6"/>
		<line class="st46" x1="467.8" y1="551.8" x2="507.1" y2="551.8"/>
		<line class="st46" x1="467.8" y1="561" x2="507.1" y2="561"/>
		<line class="st46" x1="467.8" y1="570.2" x2="507.1" y2="570.2"/>
		<line class="st46" x1="467.8" y1="579.3" x2="507.1" y2="579.3"/>
		<line class="st46" x1="467.8" y1="588.5" x2="507.1" y2="588.5"/>
		<line class="st46" x1="467.8" y1="597.7" x2="507.1" y2="597.7"/>
		<line class="st46" x1="467.8" y1="606.9" x2="507.1" y2="606.9"/>
		<line class="st46" x1="467.8" y1="616" x2="507.1" y2="616"/>
		<line class="st46" x1="467.8" y1="625.2" x2="507.1" y2="625.2"/>
		<line class="st46" x1="467.8" y1="634.4" x2="507.1" y2="634.4"/>
		<line class="st46" x1="467.8" y1="643.5" x2="507.1" y2="643.5"/>
		<line class="st46" x1="467.8" y1="652.7" x2="507.1" y2="652.7"/>
		<line class="st46" x1="467.8" y1="661.9" x2="507.1" y2="661.9"/>
		<line class="st46" x1="467.8" y1="671.1" x2="507.1" y2="671.1"/>
	</g>
	<g class="st45">
		<line class="st46" x1="-7.1" y1="221.6" x2="32.2" y2="221.6"/>
		<line class="st46" x1="-7.1" y1="230.8" x2="32.2" y2="230.8"/>
		<line class="st46" x1="-7.1" y1="240" x2="32.2" y2="240"/>
		<line class="st46" x1="-7.1" y1="249.1" x2="32.2" y2="249.1"/>
		<line class="st46" x1="-7.1" y1="258.3" x2="32.2" y2="258.3"/>
		<line class="st46" x1="-7.1" y1="267.5" x2="32.2" y2="267.5"/>
		<line class="st46" x1="-7.1" y1="276.6" x2="32.2" y2="276.6"/>
		<line class="st46" x1="-7.1" y1="285.8" x2="32.2" y2="285.8"/>
		<line class="st46" x1="-7.1" y1="295" x2="32.2" y2="295"/>
		<line class="st46" x1="-7.1" y1="304.2" x2="32.2" y2="304.2"/>
		<line class="st46" x1="-7.1" y1="313.3" x2="32.2" y2="313.3"/>
		<line class="st46" x1="-7.1" y1="322.5" x2="32.2" y2="322.5"/>
		<line class="st46" x1="-7.1" y1="331.7" x2="32.2" y2="331.7"/>
		<line class="st46" x1="-7.1" y1="340.9" x2="32.2" y2="340.9"/>
		<line class="st46" x1="-7.1" y1="350" x2="32.2" y2="350"/>
		<line class="st46" x1="-7.1" y1="359.2" x2="32.2" y2="359.2"/>
		<line class="st46" x1="-7.1" y1="368.4" x2="32.2" y2="368.4"/>
		<line class="st46" x1="-7.1" y1="377.5" x2="32.2" y2="377.5"/>
		<line class="st46" x1="-7.1" y1="386.7" x2="32.2" y2="386.7"/>
		<line class="st46" x1="-7.1" y1="395.9" x2="32.2" y2="395.9"/>
		<line class="st46" x1="-7.1" y1="405.1" x2="32.2" y2="405.1"/>
		<line class="st46" x1="-7.1" y1="414.2" x2="32.2" y2="414.2"/>
		<line class="st46" x1="-7.1" y1="423.4" x2="32.2" y2="423.4"/>
		<line class="st46" x1="-7.1" y1="432.6" x2="32.2" y2="432.6"/>
		<line class="st46" x1="-7.1" y1="441.8" x2="32.2" y2="441.8"/>
		<line class="st46" x1="-7.1" y1="450.9" x2="32.2" y2="450.9"/>
		<line class="st46" x1="-7.1" y1="460.1" x2="32.2" y2="460.1"/>
		<line class="st46" x1="-7.1" y1="469.3" x2="32.2" y2="469.3"/>
		<line class="st46" x1="-7.1" y1="478.4" x2="32.2" y2="478.4"/>
		<line class="st46" x1="-7.1" y1="487.6" x2="32.2" y2="487.6"/>
		<line class="st46" x1="-7.1" y1="496.8" x2="32.2" y2="496.8"/>
		<line class="st46" x1="-7.1" y1="506" x2="32.2" y2="506"/>
		<line class="st46" x1="-7.1" y1="515.1" x2="32.2" y2="515.1"/>
		<line class="st46" x1="-7.1" y1="524.3" x2="32.2" y2="524.3"/>
		<line class="st46" x1="-7.1" y1="533.5" x2="32.2" y2="533.5"/>
		<line class="st46" x1="-7.1" y1="542.6" x2="32.2" y2="542.6"/>
		<line class="st46" x1="-7.1" y1="551.8" x2="32.2" y2="551.8"/>
		<line class="st46" x1="-7.1" y1="561" x2="32.2" y2="561"/>
		<line class="st46" x1="-7.1" y1="570.2" x2="32.2" y2="570.2"/>
		<line class="st46" x1="-7.1" y1="579.3" x2="32.2" y2="579.3"/>
		<line class="st46" x1="-7.1" y1="588.5" x2="32.2" y2="588.5"/>
		<line class="st46" x1="-7.1" y1="597.7" x2="32.2" y2="597.7"/>
		<line class="st46" x1="-7.1" y1="606.9" x2="32.2" y2="606.9"/>
		<line class="st46" x1="-7.1" y1="616" x2="32.2" y2="616"/>
		<line class="st46" x1="-7.1" y1="625.2" x2="32.2" y2="625.2"/>
		<line class="st46" x1="-7.1" y1="634.4" x2="32.2" y2="634.4"/>
		<line class="st46" x1="-7.1" y1="643.5" x2="32.2" y2="643.5"/>
		<line class="st46" x1="-7.1" y1="652.7" x2="32.2" y2="652.7"/>
		<line class="st46" x1="-7.1" y1="661.9" x2="32.2" y2="661.9"/>
		<line class="st46" x1="-7.1" y1="671.1" x2="32.2" y2="671.1"/>
	</g>
</g>
</svg>
