<?xml version="1.0" encoding="utf-8"?>
<!-- Generator: Adobe Illustrator 27.3.1, SVG Export Plug-In . SVG Version: 6.00 Build 0)  -->
<svg version="1.1" id="Capa_1" xmlns="http://www.w3.org/2000/svg" xmlns:xlink="http://www.w3.org/1999/xlink" x="0px" y="0px"
	 viewBox="0 0 900 450" style="enable-background:new 0 0 900 450;" xml:space="preserve">
<style type="text/css">
	.st0{fill:#C6C6C6;}
	.st1{fill:#EDEDED;}
	.st2{fill:#9D9D9C;}
	.st3{opacity:0.4;fill:#C8F6FF;enable-background:new    ;}
	.st4{fill:none;stroke:#646363;stroke-linecap:round;stroke-linejoin:round;stroke-miterlimit:10;}
	.st5{fill:none;stroke:#000000;stroke-linecap:round;stroke-linejoin:round;stroke-miterlimit:10;}
	.st6{fill:none;stroke:#ECECEC;stroke-width:2.5639;stroke-miterlimit:10;}
	.st7{fill:none;stroke:#ECECEC;stroke-width:2.5698;stroke-miterlimit:10;}
	.st8{fill:none;stroke:#000000;stroke-width:2;stroke-linecap:round;stroke-linejoin:round;stroke-miterlimit:10;}
	.st9{fill:#3C3C3B;}
	.st10{fill:#878787;}
	.st11{fill:#F5E9D7;}
	.st12{fill:#575756;}
	.st13{fill:none;stroke:#D7533B;stroke-width:1.5;stroke-linecap:round;stroke-miterlimit:10;}
	.st14{fill:none;stroke:#000000;stroke-width:1.5;stroke-linecap:round;stroke-linejoin:round;stroke-miterlimit:10;}
	.st15{fill:none;stroke:#000000;stroke-width:1.5;stroke-linecap:round;stroke-linejoin:round;stroke-dasharray:2.0206,3.0309;}
	.st16{fill:none;}
	.st17{font-family:'Roboto-Bold';}
	.st18{font-size:12.2591px;}
	.st19{font-family:'Roboto-Regular';}
	.st20{font-size:12px;}
	.st21{fill:none;stroke:#000000;stroke-linecap:round;stroke-linejoin:round;}
	.st22{fill:none;stroke:#E30613;stroke-width:2;stroke-linecap:round;stroke-miterlimit:10;}
	.st23{fill:#E30613;}
	.st24{font-size:10px;}
	.st25{opacity:0.5;}
</style>
<g>
	<path class="st0" d="M793.7,282.9H100.6c-9.5,0-15.2-10.5-10.1-18.5l95.1-146.1c2.2-3.4,6-5.4,10.1-5.4h497.8
		c3.9,0,7.6,1.9,9.9,5.2l100.3,146.1C809,272.1,803.3,282.9,793.7,282.9z"/>
	<polygon class="st1" points="756.3,261.6 146.9,261.6 211.1,152.5 691.3,152.5 	"/>
	<polygon class="st2" points="756.3,261.6 691.7,152.5 691.7,120.1 783.4,261.6 	"/>
	<polygon class="st2" points="146.9,261.6 211.5,152.5 211.5,120.1 119.7,261.6 	"/>
	<rect x="211.5" y="120.1" class="st0" width="480.2" height="32.3"/>
	<polygon class="st3" points="778.5,261.5 124.5,261.6 211.5,124.7 691.7,124.7 	"/>
	<g>
		<line class="st4" x1="146.9" y1="261.6" x2="211.5" y2="152.5"/>
		<polyline class="st4" points="211.5,120.1 211.5,152.5 691.7,152.5 691.7,120.1 		"/>
	</g>
	<line class="st4" x1="691.7" y1="152.5" x2="756.3" y2="261.6"/>
	<polygon class="st5" points="783.4,261.6 118.9,261.6 211.5,120.1 691.7,120.1 	"/>
</g>
<g>
	<g>
		<g id="agua">
			<g>
				<g>
					<path class="st6" d="M393.9,387.1c-12.8,0-12.8-2.3-25.5-2.3c-12.8,0-12.8,2.3-25.5,2.3c-12.8,0-12.8-2.3-25.5-2.3
						c-12.8,0-12.8,2.3-25.5,2.3c-12.8,0-12.8-2.3-25.5-2.3c-12.8,0-12.8,2.3-25.5,2.3c-12.8,0-12.8-2.3-25.5-2.3
						c-12.8,0-12.8,2.3-25.5,2.3c-12.8,0-12.8-2.3-25.5-2.3c-12.8,0-12.8,2.3-25.5,2.3c-12.7,0-12.8-2.3-25.5-2.3"/>
				</g>
				<g>
					<path class="st6" d="M393.9,391.7c-12.8,0-12.8-2.3-25.5-2.3c-12.8,0-12.8,2.3-25.5,2.3c-12.8,0-12.8-2.3-25.5-2.3
						c-12.8,0-12.8,2.3-25.5,2.3c-12.8,0-12.8-2.3-25.5-2.3c-12.8,0-12.8,2.3-25.5,2.3c-12.8,0-12.8-2.3-25.5-2.3
						c-12.8,0-12.8,2.3-25.5,2.3c-12.8,0-12.8-2.3-25.5-2.3c-12.8,0-12.8,2.3-25.5,2.3c-12.7,0-12.8-2.3-25.5-2.3"/>
				</g>
				<g>
					<path class="st6" d="M393.9,396.3c-12.8,0-12.8-2.3-25.5-2.3c-12.8,0-12.8,2.3-25.5,2.3c-12.8,0-12.8-2.3-25.5-2.3
						c-12.8,0-12.8,2.3-25.5,2.3c-12.8,0-12.8-2.3-25.5-2.3c-12.8,0-12.8,2.3-25.5,2.3c-12.8,0-12.8-2.3-25.5-2.3
						c-12.8,0-12.8,2.3-25.5,2.3c-12.8,0-12.8-2.3-25.5-2.3c-12.8,0-12.8,2.3-25.5,2.3c-12.7,0-12.8-2.3-25.5-2.3"/>
				</g>
				<g>
					<path class="st6" d="M393.9,400.9c-12.8,0-12.8-2.3-25.5-2.3c-12.8,0-12.8,2.3-25.5,2.3c-12.8,0-12.8-2.3-25.5-2.3
						c-12.8,0-12.8,2.3-25.5,2.3c-12.8,0-12.8-2.3-25.5-2.3c-12.8,0-12.8,2.3-25.5,2.3c-12.8,0-12.8-2.3-25.5-2.3
						c-12.8,0-12.8,2.3-25.5,2.3c-12.8,0-12.8-2.3-25.5-2.3c-12.8,0-12.8,2.3-25.5,2.3c-12.7,0-13-2.2-25.8-2.2"/>
				</g>
				<g>
					<path class="st6" d="M393.9,405.5c-12.8,0-12.8-2.3-25.5-2.3c-12.8,0-12.8,2.3-25.5,2.3c-12.8,0-12.8-2.3-25.5-2.3
						c-12.8,0-12.8,2.3-25.5,2.3c-12.8,0-12.8-2.3-25.5-2.3c-12.8,0-12.8,2.3-25.5,2.3c-12.8,0-12.8-2.3-25.5-2.3
						c-12.8,0-12.8,2.3-25.5,2.3c-12.8,0-12.8-2.3-25.5-2.3c-12.8,0-12.8,2.3-25.5,2.3c-12.7,0-12.8-2.3-25.5-2.3"/>
				</g>
			</g>
		</g>
		<g id="agua_00000068675148500447189990000017343774128653391806_">
			<g>
				<g>
					<path class="st7" d="M789.1,386c-3.1-0.5-6.3-1.1-12.5-1.1c-12.9,0-12.9,2.3-25.6,2.3s-12.9-2.3-25.6-2.3
						c-12.9,0-12.9,2.3-25.6,2.3s-12.9-2.4-25.6-2.4"/>
				</g>
				<g>
					<path class="st7" d="M789.1,390.5c-3.1-0.5-6.3-1.1-12.5-1.1c-12.9,0-12.9,2.3-25.6,2.3s-12.9-2.3-25.6-2.3
						c-12.9,0-12.9,2.3-25.6,2.3s-12.9-2.3-25.6-2.3"/>
				</g>
				<g>
					<path class="st7" d="M789.1,395.2c-3.1-0.5-6.3-1.1-12.5-1.1c-12.9,0-12.9,2.3-25.6,2.3s-12.9-2.3-25.6-2.3
						c-12.9,0-12.9,2.3-25.6,2.3S687,394,674.3,394"/>
				</g>
				<g>
					<path class="st7" d="M789.1,399.7c-3.1-0.5-6.3-1.1-12.5-1.1c-12.9,0-12.9,2.3-25.6,2.3s-12.9-2.3-25.6-2.3
						c-12.9,0-12.9,2.3-25.6,2.3s-12.9-2.3-25.6-2.3"/>
				</g>
				<g>
					<path class="st7" d="M789.1,404.4c-3.1-0.5-6.3-1.1-12.5-1.1c-12.9,0-12.9,2.3-25.6,2.3s-12.9-2.3-25.6-2.3
						c-12.9,0-12.9,2.3-25.6,2.3s-12.9-2.4-25.6-2.4"/>
				</g>
			</g>
		</g>
		<g id="agua_00000182513575929982785560000000542388952339151244_">
			<g>
				<g>
					<path class="st6" d="M674.2,384.9c-12.8,0-12.8,2.3-25.5,2.3c-12.8,0-12.8-2.3-25.5-2.3c-12.8,0-12.8,2.3-25.5,2.3
						s-12.8-2.3-25.5-2.3c-12.8,0-12.8,2.3-25.5,2.3c-12.8,0-12.8-2.3-25.5-2.3c-12.8,0-12.8,2.3-25.5,2.3
						c-12.8,0-12.8-2.3-25.5-2.3c-12.8,0-12.8,2.3-25.5,2.3c-12.8,0-12.8-2.3-25.5-2.3c-12.8,0-12.8,2.3-25.5,2.3"/>
				</g>
				<g>
					<path class="st6" d="M674.2,389.5c-12.8,0-12.8,2.3-25.5,2.3c-12.8,0-12.8-2.3-25.5-2.3c-12.8,0-12.8,2.3-25.5,2.3
						s-12.8-2.3-25.5-2.3c-12.8,0-12.8,2.3-25.5,2.3c-12.8,0-12.8-2.3-25.5-2.3c-12.8,0-12.8,2.3-25.5,2.3
						c-12.8,0-12.8-2.3-25.5-2.3c-12.8,0-12.8,2.3-25.5,2.3c-12.8,0-12.8-2.3-25.5-2.3c-12.8,0-12.8,2.2-25.5,2.2"/>
				</g>
				<g>
					<path class="st6" d="M674.2,394c-12.8,0-12.8,2.3-25.5,2.3c-12.8,0-12.8-2.3-25.5-2.3c-12.8,0-12.8,2.3-25.5,2.3
						S585,394,572.3,394c-12.8,0-12.8,2.3-25.5,2.3c-12.8,0-12.8-2.3-25.5-2.3c-12.8,0-12.8,2.3-25.5,2.3c-12.8,0-12.8-2.3-25.5-2.3
						c-12.8,0-12.8,2.3-25.5,2.3c-12.8,0-12.8-2.3-25.5-2.3c-12.8,0-12.8,2.3-25.5,2.3"/>
				</g>
				<g>
					<path class="st6" d="M674.2,398.7c-12.8,0-12.8,2.3-25.5,2.3c-12.8,0-12.8-2.3-25.5-2.3c-12.8,0-12.8,2.3-25.5,2.3
						s-12.8-2.3-25.5-2.3c-12.8,0-12.8,2.3-25.5,2.3c-12.8,0-12.8-2.3-25.5-2.3c-12.8,0-12.8,2.3-25.5,2.3
						c-12.8,0-12.8-2.3-25.5-2.3c-12.8,0-12.8,2.3-25.5,2.3c-12.8,0-12.8-2.3-25.5-2.3c-12.8,0-12.8,2.2-25.5,2.2"/>
				</g>
				<g>
					<path class="st6" d="M674.2,403.2c-12.8,0-12.8,2.3-25.5,2.3c-12.8,0-12.8-2.3-25.5-2.3c-12.8,0-12.8,2.3-25.5,2.3
						s-12.8-2.3-25.5-2.3c-12.8,0-12.8,2.3-25.5,2.3c-12.8,0-12.8-2.3-25.5-2.3c-12.8,0-12.8,2.3-25.5,2.3
						c-12.8,0-12.8-2.3-25.5-2.3c-12.8,0-12.8,2.3-25.5,2.3c-12.8,0-12.8-2.3-25.5-2.3c-12.8,0-12.8,2.3-25.5,2.3"/>
				</g>
			</g>
		</g>
	</g>
	<g>
		<g id="POLYLINE_408_">
			<polyline class="st8" points="91,380.6 113.2,380.6 113.2,408.3 451.2,408.3 789.1,408.3 789.1,380.6 802.6,380.6 			"/>
		</g>
	</g>
	<g>
		<line class="st5" x1="139.6" y1="375" x2="139.6" y2="402.6"/>
		<line class="st5" x1="148.8" y1="375" x2="148.8" y2="402.6"/>
		<line class="st5" x1="139.6" y1="380.6" x2="148.8" y2="380.6"/>
		<line class="st5" x1="139.6" y1="385.4" x2="148.8" y2="385.4"/>
		<line class="st5" x1="139.6" y1="390.1" x2="148.8" y2="390.1"/>
		<line class="st5" x1="139.6" y1="394.8" x2="148.8" y2="394.8"/>
		<line class="st5" x1="139.6" y1="399.7" x2="148.8" y2="399.7"/>
	</g>
	<g>
		<line class="st5" x1="753.5" y1="375" x2="753.5" y2="402.6"/>
		<line class="st5" x1="762.7" y1="375" x2="762.7" y2="402.6"/>
		<line class="st5" x1="753.5" y1="380.6" x2="762.7" y2="380.6"/>
		<line class="st5" x1="753.5" y1="385.4" x2="762.7" y2="385.4"/>
		<line class="st5" x1="753.5" y1="390.1" x2="762.7" y2="390.1"/>
		<line class="st5" x1="753.5" y1="394.8" x2="762.7" y2="394.8"/>
		<line class="st5" x1="753.5" y1="399.7" x2="762.7" y2="399.7"/>
	</g>
	<g>
		<path d="M113,373.6c0-0.1-0.1-0.1-0.1-0.2c-0.1-0.1-0.2-0.2-0.3-0.2l0,0c-0.1,0-0.2-0.1-0.3-0.1c-6.7-1.1-6.7-1.1-6.7-1.1h-0.1
			c-0.1,0-0.2,0-0.2,0c-0.1,0-0.1,0-0.1,0.1c-0.1,0-0.2,0.1-0.2,0.1c-0.1,0-0.1,0.1-0.2,0.2c-0.1,0.1-0.1,0.1-0.1,0.2
			c0,0.1-0.1,0.1-0.1,0.2c0,0,0,0,0,0.1c0,0.1,0,0.2,0,0.2v0.6v1.1c0,0.1,0,0.1,0,0.2c0,0.1,0.1,0.2,0.1,0.3s0.1,0.1,0.1,0.2
			l0.1,0.1l0.1,0.1c0.1,0.1,0.1,0.1,0.2,0.1s0.1,0.1,0.2,0.1c0.1,0,0.1,0,0.2,0h0.1c0.5,0,1.1,0,1.5,0l-0.2,2.6h-1
			c-0.5,0-0.9,0.4-0.9,0.9v0.9c0,0.5,0.4,0.9,0.9,0.9h3.8c0.5,0,0.9-0.4,0.9-0.9v-0.9c0-0.5-0.4-0.9-0.9-0.9h-0.4l0.2-2.6
			c1.8,0,2.3,0,2.5,0l0,0h0.1l0,0l0,0h0.1l0,0c0.1,0,0.2-0.1,0.2-0.1l0,0c0.1,0,0.1-0.1,0.2-0.1l0,0c0.1-0.1,0.1-0.1,0.2-0.2
			c0,0,0.1-0.1,0.1-0.2c0-0.1,0.1-0.2,0.1-0.2c0-0.1,0-0.2,0-0.3V373.6z"/>
	</g>
</g>
<g>
	<g>
		<g>
			<polygon points="199.1,125.7 194.5,132.7 194.5,129.3 199.1,122.3 			"/>
			<rect x="189.3" y="129.3" class="st9" width="5.3" height="3.3"/>
		</g>
		<g>
			<polygon class="st10" points="195.9,128.2 187.7,128.2 193.1,120 201.3,120 			"/>
			<path class="st11" d="M194.9,127.6h-5.3c-0.3,0-0.4-0.4-0.3-0.5l4.1-6.2c0.1-0.2,0.4-0.3,0.5-0.3h5.3c0.3,0,0.4,0.4,0.3,0.5
				l-4,6.2C195.4,127.5,195.2,127.6,194.9,127.6z"/>
			<rect x="187.7" y="128.2" class="st12" width="8.2" height="1.3"/>
			<polygon class="st12" points="201.3,121.3 195.9,129.5 195.9,128.2 201.3,120 			"/>
		</g>
	</g>
	<g>
		<g>
			<polygon points="190.3,139 185.8,146 185.8,142.6 190.3,135.6 			"/>
			<rect x="180.5" y="142.6" class="st9" width="5.3" height="3.3"/>
		</g>
		<g>
			<polygon class="st10" points="187.2,141.5 178.9,141.5 184.4,133.3 192.6,133.3 			"/>
			<path class="st11" d="M186.2,141h-5.3c-0.3,0-0.4-0.4-0.3-0.5l4.1-6.2c0.1-0.2,0.4-0.3,0.5-0.3h5.3c0.3,0,0.4,0.4,0.3,0.5l-4,6.2
				C186.6,140.8,186.5,141,186.2,141z"/>
			<rect x="178.9" y="141.5" class="st12" width="8.2" height="1.3"/>
			<polygon class="st12" points="192.6,134.7 187.2,142.9 187.2,141.5 192.6,133.3 			"/>
		</g>
	</g>
	<g>
		<g>
			<polygon points="181.5,152.4 177,159.4 177,156 181.5,149 			"/>
			<rect x="171.7" y="156" class="st9" width="5.3" height="3.3"/>
		</g>
		<g>
			<polygon class="st10" points="178.4,154.9 170.2,154.9 175.6,146.7 183.8,146.7 			"/>
			<path class="st11" d="M177.4,154.3h-5.3c-0.3,0-0.4-0.4-0.3-0.5l4.1-6.2c0.1-0.2,0.4-0.3,0.5-0.3h5.3c0.3,0,0.4,0.4,0.3,0.5
				l-4,6.2C177.9,154.2,177.7,154.3,177.4,154.3z"/>
			<rect x="170.2" y="154.9" class="st12" width="8.2" height="1.3"/>
			<polygon class="st12" points="183.8,148 178.4,156.2 178.4,154.9 183.8,146.7 			"/>
		</g>
	</g>
	<g>
		<g>
			<polygon points="172.8,165.8 168.2,172.8 168.2,169.4 172.8,162.4 			"/>
			<rect x="163" y="169.4" class="st9" width="5.3" height="3.3"/>
		</g>
		<g>
			<polygon class="st10" points="169.6,168.3 161.4,168.3 166.8,160.1 175.1,160.1 			"/>
			<path class="st11" d="M168.7,167.7h-5.3c-0.3,0-0.4-0.4-0.3-0.5l4.1-6.2c0.1-0.2,0.4-0.3,0.5-0.3h5.3c0.3,0,0.4,0.4,0.3,0.5
				l-4,6.2C169.2,167.6,168.9,167.7,168.7,167.7z"/>
			<rect x="161.4" y="168.3" class="st12" width="8.2" height="1.3"/>
			<polygon class="st12" points="175.1,161.4 169.6,169.6 169.6,168.3 175.1,160.1 			"/>
		</g>
	</g>
	<g>
		<g>
			<polygon points="164,179.1 159.5,186.1 159.5,182.8 164,175.7 			"/>
			<rect x="154.2" y="182.8" class="st9" width="5.3" height="3.3"/>
		</g>
		<g>
			<polygon class="st10" points="160.9,181.6 152.7,181.6 158.1,173.4 166.3,173.4 			"/>
			<path class="st11" d="M159.9,181.1h-5.3c-0.3,0-0.4-0.4-0.3-0.5l4.1-6.2c0.1-0.2,0.4-0.3,0.5-0.3h5.3c0.3,0,0.4,0.4,0.3,0.5
				l-4,6.2C160.4,180.9,160.2,181.1,159.9,181.1z"/>
			<rect x="152.7" y="181.6" class="st12" width="8.2" height="1.3"/>
			<polygon class="st12" points="166.3,174.8 160.9,183 160.9,181.6 166.3,173.4 			"/>
		</g>
	</g>
	<g>
		<g>
			<polygon points="155.3,192.5 150.7,199.5 150.7,196.2 155.3,189.1 			"/>
			<rect x="145.5" y="196.2" class="st9" width="5.3" height="3.3"/>
		</g>
		<g>
			<polygon class="st10" points="152.1,195 143.9,195 149.3,186.8 157.6,186.8 			"/>
			<path class="st11" d="M151.3,194.4H146c-0.3,0-0.4-0.4-0.3-0.5l4.1-6.2c0.1-0.2,0.4-0.3,0.5-0.3h5.3c0.3,0,0.4,0.4,0.3,0.5
				l-4,6.2C151.7,194.3,151.4,194.4,151.3,194.4z"/>
			<rect x="143.9" y="195" class="st12" width="8.2" height="1.3"/>
			<polygon class="st12" points="157.6,188.1 152.1,196.3 152.1,195 157.6,186.8 			"/>
		</g>
	</g>
	<g>
		<g>
			<polygon points="146.5,205.9 142,212.9 142,209.5 146.5,202.5 			"/>
			<rect x="136.7" y="209.5" class="st9" width="5.3" height="3.3"/>
		</g>
		<g>
			<polygon class="st10" points="143.4,208.4 135.1,208.4 140.6,200.2 148.8,200.2 			"/>
			<path class="st11" d="M142.5,207.8h-5.3c-0.3,0-0.4-0.4-0.3-0.5l4.1-6.2c0.1-0.2,0.4-0.3,0.5-0.3h5.3c0.3,0,0.4,0.4,0.3,0.5
				l-4,6.2C142.9,207.7,142.7,207.8,142.5,207.8z"/>
			<rect x="135.1" y="208.4" class="st12" width="8.2" height="1.3"/>
			<polygon class="st12" points="148.8,201.5 143.4,209.7 143.4,208.4 148.8,200.2 			"/>
		</g>
	</g>
	<g>
		<g>
			<polygon points="137.8,219.2 133.2,226.2 133.2,222.9 137.8,215.9 			"/>
			<rect x="128" y="222.9" class="st9" width="5.3" height="3.3"/>
		</g>
		<g>
			<polygon class="st10" points="134.6,221.7 126.4,221.7 131.8,213.5 140,213.5 			"/>
			<path class="st11" d="M133.7,221.2h-5.3c-0.3,0-0.4-0.4-0.3-0.5l4.1-6.2c0.1-0.2,0.4-0.3,0.5-0.3h5.3c0.3,0,0.4,0.4,0.3,0.5
				l-4,6.2C134.2,221,133.9,221.2,133.7,221.2z"/>
			<rect x="126.4" y="221.7" class="st12" width="8.2" height="1.3"/>
			<polygon class="st12" points="140,214.9 134.6,223.1 134.6,221.7 140,213.5 			"/>
		</g>
	</g>
	<g>
		<g>
			<polygon points="129,232.6 124.5,239.6 124.5,236.3 129,229.3 			"/>
			<rect x="119.2" y="236.3" class="st9" width="5.3" height="3.3"/>
		</g>
		<g>
			<polygon class="st10" points="125.9,235.1 117.6,235.1 123.1,226.9 131.3,226.9 			"/>
			<path class="st11" d="M125,234.5h-5.3c-0.3,0-0.4-0.4-0.3-0.5l4.1-6.2c0.1-0.2,0.4-0.3,0.5-0.3h5.3c0.3,0,0.4,0.4,0.3,0.5l-4,6.2
				C125.4,234.4,125.2,234.5,125,234.5z"/>
			<rect x="117.6" y="235.1" class="st12" width="8.2" height="1.3"/>
			<polygon class="st12" points="131.3,228.2 125.9,236.4 125.9,235.1 131.3,226.9 			"/>
		</g>
	</g>
	<g>
		<g>
			<polygon points="120.3,246 115.7,253 115.7,249.7 120.3,242.6 			"/>
			<rect x="110.4" y="249.7" class="st9" width="5.3" height="3.3"/>
		</g>
		<g>
			<polygon class="st10" points="117.2,248.5 108.9,248.5 114.3,240.3 122.5,240.3 			"/>
			<path class="st11" d="M116.2,247.9H111c-0.3,0-0.4-0.4-0.3-0.5l4.1-6.2c0.1-0.2,0.4-0.3,0.5-0.3h5.3c0.3,0,0.4,0.4,0.3,0.5
				l-4,6.2C116.7,247.8,116.4,247.9,116.2,247.9z"/>
			<rect x="108.9" y="248.5" class="st12" width="8.2" height="1.3"/>
			<polygon class="st12" points="122.5,241.6 117.2,249.8 117.2,248.5 122.5,240.3 			"/>
		</g>
	</g>
</g>
<g>
	<line class="st13" x1="203.4" y1="135.5" x2="699.8" y2="135.5"/>
	<line class="st13" x1="194.8" y1="148.9" x2="708.4" y2="148.9"/>
	<line class="st13" x1="186.1" y1="162.2" x2="717.1" y2="162.2"/>
	<line class="st13" x1="177.4" y1="175.6" x2="725.8" y2="175.6"/>
	<line class="st13" x1="168.3" y1="189" x2="733.8" y2="189"/>
	<line class="st13" x1="160.1" y1="202.3" x2="743.1" y2="202.3"/>
	<line class="st13" x1="150.8" y1="215.7" x2="751.8" y2="215.7"/>
	<line class="st13" x1="142.8" y1="229.1" x2="760.4" y2="229.1"/>
	<line class="st13" x1="133.4" y1="242.4" x2="768.9" y2="242.4"/>
</g>
<g>
	<line class="st14" x1="323" y1="244" x2="322.9" y2="261.5"/>
	<line class="st14" x1="358.5" y1="120" x2="358.5" y2="102.4"/>
	<g>
		<g>
			<line class="st15" x1="358.5" y1="102.4" x2="323" y2="244"/>
		</g>
	</g>
</g>
<g>
	<polyline class="st14" points="642.7,120 642.7,102.4 715.7,244 715.7,261.5 	"/>
	<polygon points="647.3,123.7 651.8,121.3 646.5,111.2 	"/>
	<polygon points="656.5,141.7 661,139.1 655.7,129.1 	"/>
	<polygon points="663.8,155.5 668.2,153.1 663,143 	"/>
	<polygon points="671,169.4 675.5,167 670.3,156.8 	"/>
	<polygon points="678.4,183.4 682.9,180.8 677.5,170.8 	"/>
	<polygon points="685.7,197.2 690.1,194.7 684.9,184.7 	"/>
	<polygon points="692.9,211.1 697.4,208.6 692.1,198.5 	"/>
	<polygon points="700.2,225 704.7,222.5 699.4,212.4 	"/>
	<polygon points="707.6,238.9 712,236.4 706.7,226.3 	"/>
</g>
<g>
	<polyline class="st14" points="260.5,120 260.5,102.4 187.5,244 187.5,261.5 	"/>
	<polygon points="255.9,123.7 251.4,121.3 256.7,111.2 	"/>
	<polygon points="246.7,141.7 242.2,139.1 247.5,129.1 	"/>
	<polygon points="239.4,155.5 235,153.1 240.2,143 	"/>
	<polygon points="232.2,169.4 227.6,167 233,156.8 	"/>
	<polygon points="224.8,183.4 220.3,180.8 225.6,170.8 	"/>
	<polygon points="217.5,197.2 213.1,194.7 218.3,184.7 	"/>
	<polygon points="210.3,211.1 205.8,208.6 211.1,198.5 	"/>
	<polygon points="203,225 198.4,222.5 203.8,212.4 	"/>
	<polygon points="195.6,238.9 191.2,236.4 196.4,226.3 	"/>
</g>
<rect x="84.1" y="233.5" class="st16" width="31.6" height="19.4"/>
<text transform="matrix(1 0 0 1 96.396 242.7183)" class="st17 st18">0</text>
<rect x="92.8" y="220.1" class="st16" width="31.6" height="19.4"/>
<text transform="matrix(1 0 0 1 105.1357 229.3497)" class="st17 st18">1</text>
<rect x="101.6" y="206.7" class="st16" width="31.6" height="19.4"/>
<text transform="matrix(1 0 0 1 113.8755 215.981)" class="st17 st18">2</text>
<rect x="110.3" y="193.4" class="st16" width="31.6" height="19.4"/>
<text transform="matrix(1 0 0 1 122.6152 202.6134)" class="st17 st18">3</text>
<rect x="119" y="180" class="st16" width="31.6" height="19.4"/>
<text transform="matrix(1 0 0 1 131.355 189.2447)" class="st17 st18">4</text>
<rect x="127.8" y="166.6" class="st16" width="31.6" height="19.4"/>
<text transform="matrix(1 0 0 1 140.0942 175.8765)" class="st17 st18">5</text>
<rect x="136.5" y="153.3" class="st16" width="31.6" height="19.4"/>
<text transform="matrix(1 0 0 1 148.834 162.5084)" class="st17 st18">6</text>
<rect x="145.3" y="139.9" class="st16" width="31.6" height="19.4"/>
<text transform="matrix(1 0 0 1 157.5737 149.1402)" class="st17 st18">7</text>
<rect x="154.1" y="126.5" class="st16" width="31.6" height="19.4"/>
<text transform="matrix(1 0 0 1 166.3135 135.7716)" class="st17 st18">8</text>
<rect x="162.7" y="113.2" class="st16" width="31.6" height="19.4"/>
<text transform="matrix(1 0 0 1 175.0527 122.4034)" class="st17 st18">9</text>
<g>
	<rect x="413.9" y="422.2" class="st16" width="74.4" height="19.4"/>
	<text transform="matrix(1 0 0 1 437.3552 431.0676)" class="st19 st20">50 m</text>
	<g>
		<g>
			<g>
				<g>
					<line class="st21" x1="468.5" y1="427.8" x2="500.2" y2="427.8"/>
					<g>
						<rect x="499.8" y="425" width="0.9" height="5.7"/>
					</g>
				</g>
			</g>
		</g>
	</g>
	<g>
		<g>
			<g>
				<g>
					<line class="st21" x1="433.8" y1="427.8" x2="402.1" y2="427.8"/>
					<g>
						<rect x="401.7" y="425" width="0.9" height="5.7"/>
					</g>
				</g>
			</g>
		</g>
	</g>
</g>
<g>
	<g>
		<rect x="443.8" y="388.3" class="st16" width="23.2" height="11.5"/>
		<text transform="matrix(1 0 0 1 446.5195 396.1646)" class="st19 st20">2 m</text>
	</g>
	<g>
		<g>
			<g>
				<g>
					<line class="st21" x1="435.3" y1="404.2" x2="435.3" y2="380.7"/>
					<g>
						<rect x="432.4" y="403.8" width="5.7" height="0.9"/>
					</g>
					<g>
						<rect x="432.4" y="380.2" width="5.7" height="0.9"/>
					</g>
				</g>
			</g>
		</g>
	</g>
</g>
<g>
	<g>
		<g>
			<g>
				<path class="st22" d="M240.5,42.4c11.4,1.6,20.3,11.4,20.3,23.3v26.1"/>
				<g>
					<polygon class="st23" points="244.4,50 245.7,49 241,42.7 247.7,38.5 246.9,37.1 238.7,42.2 					"/>
				</g>
			</g>
		</g>
	</g>
</g>
<g>
	<g>
		<g>
			<g>
				<path class="st22" d="M133,312c-11.4-1.6-20.3-11.4-20.3-23.3v-26.1"/>
				<g>
					<polygon class="st23" points="129,304.4 127.8,305.3 132.4,311.7 125.7,315.9 126.5,317.2 134.7,312.2 					"/>
				</g>
			</g>
		</g>
	</g>
</g>
<g>
	<g>
		<g>
			<g>
				<line class="st22" x1="358.5" y1="70.4" x2="358.5" y2="91.8"/>
				<g>
					<polygon class="st23" points="352,75.7 353.1,76.8 358.5,71 363.9,76.8 365.1,75.7 358.5,68.7 					"/>
				</g>
			</g>
		</g>
	</g>
</g>
<rect x="113.4" y="31.3" class="st16" width="102.2" height="33.3"/>
<text transform="matrix(1 0 0 1 113.3463 37.8101)" class="st19 st24">Banderines a 5 metros </text>
<text transform="matrix(1 0 0 1 113.3463 50.3192)" class="st19 st24">que indican el viraje en </text>
<text transform="matrix(1 0 0 1 113.3463 62.8283)" class="st19 st24">estilo Espalda.</text>
<rect x="144.9" y="308.4" class="st16" width="102.2" height="33.3"/>
<text transform="matrix(1 0 0 1 144.8472 314.9341)" class="st19 st24">Poyete de salida desde </text>
<text transform="matrix(1 0 0 1 144.8472 327.4432)" class="st19 st24">donde los nadadores </text>
<text transform="matrix(1 0 0 1 144.8472 339.9523)" class="st19 st24">saltan al agua.</text>
<rect x="355.4" y="31.3" class="st16" width="102.2" height="33.3"/>
<text transform="matrix(1 0 0 1 355.3777 37.8101)" class="st19 st24">Cuerda de partida falsa a </text>
<text transform="matrix(1 0 0 1 355.3777 50.3192)" class="st19 st24">15 metros de la salida. Se </text>
<text transform="matrix(1 0 0 1 355.3777 62.8283)" class="st19 st24">deja caer sobre el agua.</text>
<g>
	<g>
		<g>
			<g>
				<path class="st22" d="M522.6,42.4c-11.4,1.6-20.3,11.4-20.3,23.3v62.5"/>
				<g>
					<polygon class="st23" points="516.1,37.1 515.3,38.5 522,42.7 517.3,49 518.6,50 524.3,42.2 					"/>
				</g>
			</g>
		</g>
	</g>
</g>
<rect x="531.9" y="31.3" class="st16" width="129.1" height="60.5"/>
<text transform="matrix(1 0 0 1 531.9131 37.8101)" class="st19 st24">Calle o carril, tiene 2.5 metros de </text>
<text transform="matrix(1 0 0 1 531.9131 50.3192)" class="st19 st24">ancho. En finales y semifinales </text>
<text transform="matrix(1 0 0 1 531.9131 62.8283)" class="st19 st24">se utilizan del 1 al 8.</text>
<g>
	<g>
		<g>
			<g>
				<path class="st22" d="M717.8,42.4c-11.4,1.6-20.3,11.4-20.3,23.3v76.2"/>
				<g>
					<polygon class="st23" points="711.4,37.1 710.5,38.5 717.2,42.7 712.6,49 713.9,50 719.5,42.2 					"/>
				</g>
			</g>
		</g>
	</g>
</g>
<rect x="743.1" y="31.3" class="st16" width="91.2" height="60.5"/>
<text transform="matrix(1 0 0 1 743.125 37.8101)" class="st19 st24">Almoadillas de presión </text>
<text transform="matrix(1 0 0 1 743.125 50.3192)" class="st19 st24">que registran el tiempo </text>
<text transform="matrix(1 0 0 1 743.125 62.8283)" class="st19 st24">en la llegada o en cada </text>
<text transform="matrix(1 0 0 1 743.125 75.3373)" class="st19 st24">viraje.</text>
<g class="st25">
	<polygon class="st23" points="509.2,145.8 498.8,145.8 497.8,138 508.1,138 	"/>
	<polygon class="st23" points="511.2,159.3 500.4,159.3 499.4,151.3 510,151.3 	"/>
	<polygon class="st23" points="513.2,172.7 502,172.7 501,164.6 511.9,164.6 	"/>
	<polygon class="st23" points="515.1,186.2 503.6,186.2 502.7,177.9 513.9,177.9 	"/>
	<polygon class="st23" points="517.1,199.6 505.2,199.6 504.2,191.2 515.9,191.2 	"/>
	<polygon class="st23" points="519,213.1 506.9,213.1 505.8,204.5 517.8,204.5 	"/>
	<polygon class="st23" points="521,226.5 508.4,226.5 507.4,217.8 519.7,217.8 	"/>
	<polygon class="st23" points="523,239.9 510.1,239.9 509,231.1 521.7,231.1 	"/>
</g>
<g id="POLYLINE_414_">
	<polygon class="st12" points="732.8,36.3 732.8,31.3 729.3,31.3 729.3,36.3 725.8,36.3 725.8,39.8 729.3,39.8 729.3,44.9 
		732.8,44.9 732.8,39.8 736.3,39.8 736.3,36.3 	"/>
</g>
</svg>
