<?xml version="1.0" encoding="utf-8"?>
<!-- Generator: Adobe Illustrator 27.3.1, SVG Export Plug-In . SVG Version: 6.00 Build 0)  -->
<svg version="1.1" id="Capa_1" xmlns="http://www.w3.org/2000/svg" xmlns:xlink="http://www.w3.org/1999/xlink" x="0px" y="0px"
	 viewBox="0 0 400 490" style="enable-background:new 0 0 400 490;" xml:space="preserve">
<style type="text/css">
	.st0{fill:#F4E6D2;stroke:#CC1719;stroke-width:2.6606;stroke-linecap:round;stroke-miterlimit:10;}
	.st1{fill:none;stroke:#DDDBDC;stroke-width:7.095;stroke-miterlimit:10;}
	.st2{fill:#1E1E1C;}
	.st3{font-family:'Roboto-Regular';}
	.st4{font-size:10px;}
	.st5{font-family:'Roboto-ThinItalic';}
	.st6{font-size:12px;}
	.st7{fill:none;stroke:#1D1D1B;stroke-width:2;stroke-linecap:round;stroke-linejoin:round;}
	.st8{fill:#F4E6D2;stroke:#CC1719;stroke-width:2.6606;stroke-miterlimit:10;}
	.st9{fill:#CC1719;}
	.st10{fill:none;stroke:#1E1E1C;stroke-width:2;stroke-miterlimit:10;}
</style>
<g>
	<line class="st0" x1="204.72" y1="25.6" x2="221.59" y2="25.6"/>
	<line class="st1" x1="199.71" y1="25.75" x2="199.71" y2="453.95"/>
	<g>
		<text transform="matrix(1 0 0 1 230.9785 22.8924)"><tspan x="0" y="0" class="st2 st3 st4">JJ.OO.</tspan><tspan x="0" y="12" class="st2 st3 st4">Atenas, Grecia</tspan></text>
	</g>
	<g>
		<text transform="matrix(1 0 0 1 230.9788 200.933)"><tspan x="0" y="0" class="st2 st3 st4">1º Panamericanos</tspan><tspan x="0" y="12" class="st2 st3 st4">Buenos Aires, Argentina</tspan></text>
	</g>
	<g>
		<text transform="matrix(1 0 0 1 255.4888 62.6901)"><tspan x="0" y="0" class="st2 st3 st4">FINA</tspan><tspan x="0" y="12" class="st2 st5 st4">Fédération </tspan><tspan x="0" y="24" class="st2 st5 st4">Internationale </tspan><tspan x="0" y="36" class="st2 st5 st4">de Natation</tspan></text>
	</g>
	<g>
		<text transform="matrix(1 0 0 1 230.9785 453.948)"><tspan x="0" y="0" class="st2 st3 st4">19 º Panamericanos</tspan><tspan x="0" y="12" class="st2 st3 st4">Santiago, Chile</tspan></text>
	</g>
	<g>
		<text transform="matrix(1 0 0 1 158.0749 41.2053)" class="st2 st3 st6">1896</text>
	</g>
	<g>
		<text transform="matrix(1 0 0 1 158.0747 65.3104)" class="st2 st3 st6">1908</text>
	</g>
	<g>
		<text transform="matrix(1 0 0 1 158.0748 119.9869)" class="st2 st3 st6">1925</text>
	</g>
	<g>
		<text transform="matrix(1 0 0 1 158.0748 205.9741)" class="st2 st3 st6">1951</text>
	</g>
	<g>
		<text transform="matrix(1 0 0 1 158.0748 291.9606)" class="st2 st3 st6">1975</text>
	</g>
	<g>
		<text transform="matrix(1 0 0 1 158.0748 377.9475)" class="st2 st3 st6">2000</text>
	</g>
	<g>
		<text transform="matrix(1 0 0 1 158.0747 456.5681)" class="st2 st3 st6">2023</text>
	</g>
	<line class="st7" x1="203.71" y1="38.45" x2="195.72" y2="38.45"/>
	<line class="st7" x1="203.71" y1="117.37" x2="195.72" y2="117.37"/>
	<line class="st7" x1="203.71" y1="289.34" x2="195.72" y2="289.34"/>
	<line class="st7" x1="203.71" y1="375.33" x2="195.72" y2="375.33"/>
	<g>
		<line class="st0" x1="204.72" y1="203.35" x2="221.59" y2="203.35"/>
		<ellipse class="st8" cx="199.71" cy="203.35" rx="5.49" ry="5.56"/>
	</g>
	<g>
		<line class="st0" x1="204.72" y1="453.95" x2="221.59" y2="453.95"/>
		<ellipse class="st8" cx="199.71" cy="453.95" rx="5.49" ry="5.56"/>
	</g>
	<ellipse class="st9" cx="199.72" cy="25.6" rx="5.49" ry="5.56"/>
	<g>
		<circle class="st10" cx="199.71" cy="62.69" r="5.01"/>
		<line class="st7" x1="204.72" y1="62.69" x2="248.5" y2="62.69"/>
	</g>
	<g>
		<text transform="matrix(1 0 0 1 131.9149 439.8564)" class="st2 st3 st6">2022</text>
	</g>
	<g>
		<text transform="matrix(1 0 0 1 52.0702 434.0125)"><tspan x="0" y="0" class="st2 st3 st4">World Aquatics</tspan><tspan x="-11.16" y="12" class="st2 st3 st4">reemplaza a FINA</tspan></text>
	</g>
	<g>
		<circle class="st10" cx="199.71" cy="436.77" r="5.01"/>
		<line class="st7" x1="194.7" y1="436.77" x2="168.87" y2="436.77"/>
	</g>
</g>
</svg>
