<?xml version="1.0" encoding="utf-8"?>
<!-- Generator: Adobe Illustrator 27.3.1, SVG Export Plug-In . SVG Version: 6.00 Build 0)  -->
<svg version="1.1" id="Capa_1" xmlns="http://www.w3.org/2000/svg" xmlns:xlink="http://www.w3.org/1999/xlink" x="0px" y="0px"
	 viewBox="0 0 800 180" style="enable-background:new 0 0 800 180;" xml:space="preserve">
<style type="text/css">
	.st0{fill:#F4E6D2;stroke:#CC1719;stroke-width:2.6606;stroke-linecap:round;stroke-miterlimit:10;}
	.st1{fill:none;stroke:#DDDBDC;stroke-width:7.095;stroke-miterlimit:10;}
	.st2{fill:#1E1E1C;}
	.st3{font-family:'Roboto-Regular';}
	.st4{font-size:8.9667px;}
	.st5{font-family:'Roboto-ThinItalic';}
	.st6{font-size:7.1734px;}
	.st7{fill:none;stroke:#1D1D1B;stroke-width:0.8967;stroke-linecap:round;stroke-linejoin:round;}
	.st8{fill:none;stroke:#1D1D1B;stroke-width:0.6208;stroke-linecap:round;stroke-linejoin:round;}
	.st9{fill:#F4E6D2;stroke:#CC1719;stroke-width:2.6606;stroke-miterlimit:10;}
	.st10{fill:#CC1719;}
	.st11{fill:none;stroke:#1D1D1B;stroke-width:0.6924;stroke-linecap:round;stroke-linejoin:round;}
	.st12{fill:none;stroke:#1E1E1C;stroke-width:0.8967;stroke-miterlimit:10;}
	.st13{fill:#DDDBDC;}
	.st14{fill:#F2C5C1;}
	.st15{fill:#DD6F53;}
	.st16{fill:#FFFFFF;}
	.st17{fill:#C62119;}
	.st18{fill:none;}
	.st19{fill:#716C68;}
	.st20{fill:none;stroke:#1D1E1C;stroke-width:0.4618;stroke-miterlimit:10;stroke-dasharray:1.5393,1.5393;}
</style>
<line class="st0" x1="343.46" y1="93.23" x2="343.46" y2="76.37"/>
<line class="st0" x1="51.33" y1="93.23" x2="51.33" y2="76.37"/>
<line class="st0" x1="750.41" y1="93.23" x2="750.41" y2="76.37"/>
<line class="st1" x1="51.48" y1="98.25" x2="750.41" y2="98.25"/>
<g>
	<text transform="matrix(1 0 0 1 27.4331 58.9957)"><tspan x="0" y="0" class="st2 st3 st4">JJ.OO.</tspan><tspan x="0" y="10.76" class="st2 st3 st4">Atenas, Grecia</tspan></text>
</g>
<g>
	<text transform="matrix(1 0 0 1 295.8892 58.9957)"><tspan x="0" y="0" class="st2 st3 st4">1º Panamericanos</tspan><tspan x="0" y="10.76" class="st2 st3 st4">Buenos Aires, Argentina</tspan></text>
</g>
<g>
	<text transform="matrix(1 0 0 1 93.418 17.5005)"><tspan x="0" y="0" class="st2 st3 st4">FINA</tspan><tspan x="0" y="8.61" class="st2 st5 st6">Fédération </tspan><tspan x="0" y="17.22" class="st2 st5 st6">Internationale </tspan><tspan x="0" y="25.82" class="st2 st5 st6">de Natation</tspan></text>
</g>
<g>
	<text transform="matrix(1 0 0 1 709.9287 58.9957)"><tspan x="0" y="0" class="st2 st3 st4">19 º Panamericanos</tspan><tspan x="0" y="10.76" class="st2 st3 st4">Santiago, Chile</tspan></text>
</g>
<g>
	<text transform="matrix(1 0 0 1 41.2627 121.9351)" class="st2 st3 st4">1896</text>
</g>
<g>
	<text transform="matrix(1 0 0 1 104.9546 121.9351)" class="st2 st3 st4">1908</text>
</g>
<g>
	<text transform="matrix(1 0 0 1 193.7476 121.9351)" class="st2 st3 st4">1925</text>
</g>
<g>
	<text transform="matrix(1 0 0 1 333.3872 121.9351)" class="st2 st3 st4">1951</text>
</g>
<g>
	<text transform="matrix(1 0 0 1 473.0264 121.9351)" class="st2 st3 st4">1975</text>
</g>
<g>
	<text transform="matrix(1 0 0 1 612.666 121.9351)" class="st2 st3 st4">2000</text>
</g>
<g>
	<text transform="matrix(1 0 0 1 740.3447 121.9351)" class="st2 st3 st4">2023</text>
</g>
<line class="st7" x1="64.18" y1="94.25" x2="64.18" y2="102.24"/>
<line class="st7" x1="203.82" y1="94.25" x2="203.82" y2="102.24"/>
<line class="st8" x1="343.46" y1="94.25" x2="343.46" y2="102.24"/>
<line class="st7" x1="483.1" y1="94.25" x2="483.1" y2="102.24"/>
<line class="st7" x1="622.74" y1="94.25" x2="622.74" y2="102.24"/>
<line class="st7" x1="734.45" y1="94.25" x2="734.45" y2="102.24"/>
<ellipse class="st9" cx="343.46" cy="98.24" rx="5.56" ry="5.49"/>
<ellipse class="st9" cx="750.41" cy="98.24" rx="5.56" ry="5.49"/>
<ellipse class="st10" cx="51.33" cy="98.24" rx="5.56" ry="5.49"/>
<circle class="st12" cx="115.02" cy="98.24" r="5.01"/>
<line class="st7" x1="115.02" y1="93.23" x2="115.02" y2="49.45"/>
<g>
	<text transform="matrix(1 0 0 1 699.8584 121.9351)" class="st2 st3 st4">2022</text>
</g>
<g>
	<text transform="matrix(1 0 0 1 687.1445 143.5806)"><tspan x="0" y="0" class="st2 st3 st4">World Aquatics</tspan><tspan x="0" y="10.76" class="st2 st3 st4">reemplaza a FINA</tspan></text>
</g>
<circle class="st12" cx="722.52" cy="98.24" r="5.01"/>
<line class="st7" x1="722.52" y1="103.25" x2="722.52" y2="129.09"/>
</svg>
