<?xml version="1.0" encoding="utf-8"?>
<!-- Generator: Adobe Illustrator 27.3.1, SVG Export Plug-In . SVG Version: 6.00 Build 0)  -->
<svg version="1.1" id="Capa_1" xmlns="http://www.w3.org/2000/svg" xmlns:xlink="http://www.w3.org/1999/xlink" x="0px" y="0px"
	 viewBox="0 0 500 590" style="enable-background:new 0 0 500 590;" xml:space="preserve">
<style type="text/css">
	.st0{fill:none;stroke:#CC1719;stroke-width:2.6606;stroke-linecap:round;stroke-miterlimit:10;}
	.st1{fill:none;stroke:#DDDBDC;stroke-width:7.095;stroke-miterlimit:10;}
	.st2{fill:#1E1E1C;}
	.st3{font-family:'Roboto-Regular';}
	.st4{font-size:16px;}
	.st5{font-family:'Roboto-ThinItalic';}
	.st6{fill:none;stroke:#1D1D1B;stroke-width:2;stroke-linecap:round;stroke-linejoin:round;}
	.st7{fill:#F4E6D2;stroke:#CC1719;stroke-width:2.6606;stroke-miterlimit:10;}
	.st8{fill:#CC1719;}
	.st9{fill:none;stroke:#1E1E1C;stroke-width:2;stroke-miterlimit:10;}
</style>
<g>
	<line class="st0" x1="243.5" y1="28.8" x2="210.1" y2="28.8"/>
	<line class="st1" x1="249.6" y1="28.5" x2="249.6" y2="559"/>
	<g>
		<text transform="matrix(1 0 0 1 151.0291 24.9356)" class="st2 st3 st4">JJ.OO.</text>
		<text transform="matrix(1 0 0 1 96.3338 41.8036)" class="st2 st3 st4">Atenas, Grecia</text>
	</g>
	<g>
		<text transform="matrix(1 0 0 1 302.0342 245.5113)" class="st2 st3 st4">1º Panamericanos</text>
		<text transform="matrix(1 0 0 1 302.0342 262.3788)" class="st2 st3 st4">Buenos Aires, Argentina</text>
	</g>
	<g>
		<text transform="matrix(1 0 0 1 145.6484 77.4879)" class="st2 st3 st4">FINA</text>
		<text transform="matrix(1 0 0 1 108.3672 93.3552)" class="st2 st5 st4">Fédération</text>
		<text transform="matrix(1 0 0 1 88.0938 109.2225)" class="st2 st5 st4">Internationale</text>
		<text transform="matrix(1 0 0 1 102.375 125.0903)" class="st2 st5 st4">de Natation</text>
	</g>
	<g>
		<text transform="matrix(1 0 0 1 302.0342 558.9722)" class="st2 st3 st4">19 º Panamericanos</text>
		<text transform="matrix(1 0 0 1 302.0342 574.8401)" class="st2 st3 st4">Santiago, Chile</text>
	</g>
	<g>
		<text transform="matrix(1 0 0 1 267.8207 32.6348)" class="st2 st3 st4">1896</text>
	</g>
	<g>
		<text transform="matrix(1 0 0 1 267.8197 77.4879)" class="st2 st3 st4">1908</text>
	</g>
	<g>
		<text transform="matrix(1 0 0 1 194.0746 145.2266)" class="st2 st3 st4">1925</text>
	</g>
	<g>
		<text transform="matrix(1 0 0 1 194.0746 251.7564)" class="st2 st3 st4">1951</text>
	</g>
	<g>
		<text transform="matrix(1 0 0 1 267.8197 344.5914)" class="st2 st3 st4">1973</text>
	</g>
	<g>
		<text transform="matrix(1 0 0 1 194.0746 464.815)" class="st2 st3 st4">2000</text>
	</g>
	<g>
		<text transform="matrix(1 0 0 1 194.0746 562.2183)" class="st2 st3 st4">2023</text>
	</g>
	<line class="st6" x1="254.6" y1="44.3" x2="244.7" y2="44.3"/>
	<line class="st6" x1="254.6" y1="142" x2="244.7" y2="142"/>
	<line class="st6" x1="254.6" y1="355" x2="244.7" y2="355"/>
	<line class="st6" x1="254.6" y1="461.5" x2="244.7" y2="461.5"/>
	<g>
		<line class="st0" x1="255.8" y1="248.6" x2="289.2" y2="248.6"/>
		<ellipse class="st7" cx="249.6" cy="248.6" rx="6.8" ry="6.9"/>
	</g>
	<g>
		<line class="st0" x1="255.8" y1="559" x2="289.2" y2="559"/>
		<ellipse class="st7" cx="249.6" cy="559" rx="6.8" ry="6.9"/>
	</g>
	<ellipse class="st8" cx="249.6" cy="28.8" rx="6.8" ry="6.9"/>
	<line class="st0" x1="243.5" y1="340.2" x2="210.1" y2="340.2"/>
	<ellipse class="st8" cx="249.6" cy="340.2" rx="6.8" ry="6.9"/>
	<g>
		<circle class="st9" cx="249.6" cy="73.1" r="6.2"/>
		<line class="st6" x1="243.5" y1="73.1" x2="189.2" y2="73.1"/>
	</g>
	<g>
		<text transform="matrix(1 0 0 1 267.8197 541.5142)" class="st2 st3 st4">2022</text>
	</g>
	<g>
		<text transform="matrix(1 0 0 1 72.2969 534.274)" class="st2 st3 st4">World Aquatics</text>
		<text transform="matrix(1 0 0 1 54.4375 551.1425)" class="st2 st3 st4">reemplaza a FINA</text>
	</g>
	<g>
		<circle class="st9" cx="249.6" cy="537.7" r="6.2"/>
		<line class="st6" x1="243.5" y1="537.7" x2="189.2" y2="537.7"/>
	</g>
	<g>
		<text transform="matrix(1 0 0 1 27.3219 337.2017)" class="st2 st3 st4"> 1</text>
		<text transform="matrix(0.583 0 0 0.583 40.2672 331.8736)" class="st2 st3 st4">er</text>
		<text transform="matrix(1 0 0 1 48.3653 337.2017)" class="st2 st3 st4"> Mundial de Natación</text>
		<text transform="matrix(1 0 0 1 69.3575 352.5341)" class="st2 st3 st4">Serbia, Yugoslavia</text>
	</g>
</g>
</svg>
