<?xml version="1.0" encoding="utf-8"?>
<!-- Generator: Adobe Illustrator 27.3.1, SVG Export Plug-In . SVG Version: 6.00 Build 0)  -->
<svg version="1.1" id="Capa_1" xmlns="http://www.w3.org/2000/svg" xmlns:xlink="http://www.w3.org/1999/xlink" x="0px" y="0px"
	 viewBox="0 0 800 210" style="enable-background:new 0 0 800 210;" xml:space="preserve">
<style type="text/css">
	.st0{fill:#1E1E1C;}
	.st1{font-family:'Roboto-Bold';}
	.st2{font-size:14px;}
	.st3{font-family:'Roboto-Regular';}
	.st4{font-family:'Roboto-ThinItalic';}
	.st5{font-size:12px;}
	.st6{fill:none;stroke:#CC1719;stroke-width:2.6606;stroke-linecap:round;stroke-miterlimit:10;}
	.st7{fill:none;stroke:#DDDBDC;stroke-width:7.095;stroke-miterlimit:10;}
	.st8{fill:none;stroke:#1D1D1B;stroke-width:0.8967;stroke-linecap:round;stroke-linejoin:round;}
	.st9{fill:none;stroke:#1D1D1B;stroke-width:0.6208;stroke-linecap:round;stroke-linejoin:round;}
	.st10{fill:#F4E6D2;stroke:#CC1719;stroke-width:2.6606;stroke-miterlimit:10;}
	.st11{fill:#CC1719;}
	.st12{fill:none;stroke:#1E1E1C;stroke-width:0.8967;stroke-miterlimit:10;}
</style>
<g>
	<text transform="matrix(1 0 0 1 11.0371 131.0129)" class="st0 st1 st2">JJ.OO.</text>
	<text transform="matrix(1 0 0 1 11.0371 145.0129)" class="st0 st3 st2">Atenas, Grecia</text>
</g>
<g>
	<text transform="matrix(1 0 0 1 271.9221 23.0122)" class="st0 st3 st2">1º Panamericanos</text>
	<text transform="matrix(1 0 0 1 271.9221 37.0122)" class="st0 st3 st2">Buenos Aires, Argentina</text>
</g>
<g>
	<text transform="matrix(1 0 0 1 113.9546 148.5814)" class="st0 st3 st2">FINA</text>
	<text transform="matrix(1 0 0 1 113.9546 162.5814)" class="st0 st4 st2">Fédération</text>
	<text transform="matrix(1 0 0 1 113.9546 176.5814)" class="st0 st4 st2">Internationale</text>
	<text transform="matrix(1 0 0 1 113.9546 190.5814)" class="st0 st4 st2">de Natation </text>
</g>
<g>
	<text transform="matrix(1 0 0 1 672.9052 23.0124)" class="st0 st3 st2">19 º Panamericanos</text>
	<text transform="matrix(1 0 0 1 672.9052 37.0124)" class="st0 st3 st2">Santiago, Chile</text>
</g>
<g>
	<text transform="matrix(1 0 0 1 36.7918 69.2585)" class="st0 st3 st5">1896</text>
</g>
<g>
	<text transform="matrix(1 0 0 1 100.4837 69.2588)" class="st0 st3 st5">1908</text>
</g>
<g>
	<text transform="matrix(1 0 0 1 189.2767 105.925)" class="st0 st3 st5">1925</text>
</g>
<g>
	<text transform="matrix(1 0 0 1 328.9163 105.925)" class="st0 st3 st5">1951</text>
</g>
<g>
	<text transform="matrix(1 0 0 1 455.259 69.2583)" class="st0 st3 st5">1973</text>
</g>
<g>
	<text transform="matrix(1 0 0 1 608.1951 105.925)" class="st0 st3 st5">2000</text>
</g>
<g>
	<text transform="matrix(1 0 0 1 735.8738 105.925)" class="st0 st3 st5">2023</text>
</g>
<g>
	<g>
		<text transform="matrix(1 0 0 1 396.2874 121.0069)" class="st0 st3 st2">1º Mundial de Natación</text>
		<text transform="matrix(1 0 0 1 396.2874 135.0069)" class="st0 st3 st2">Serbia, Yugoslavia</text>
	</g>
</g>
<g>
	<text transform="matrix(1 0 0 1 708.1739 69.2584)" class="st0 st3 st5">2022</text>
</g>
<g>
	<text transform="matrix(1 0 0 1 661.8474 148.5812)" class="st0 st3 st2">World Aquatics</text>
	<text transform="matrix(1 0 0 1 661.8474 164.5812)" class="st0 st3 st2">(reemplaza a FINA)</text>
</g>
<g>
	<line class="st6" x1="342.6" y1="77.2" x2="342.6" y2="50.4"/>
	<line class="st6" x1="50.8" y1="87.2" x2="50.8" y2="114"/>
	<line class="st6" x1="749.6" y1="77.2" x2="749.6" y2="50.4"/>
	<line class="st7" x1="50.7" y1="82.2" x2="749.6" y2="82.2"/>
	<line class="st8" x1="63.3" y1="78.2" x2="63.3" y2="86.2"/>
	<line class="st8" x1="202.9" y1="78.2" x2="202.9" y2="86.2"/>
	<line class="st9" x1="342.6" y1="78.2" x2="342.6" y2="86.2"/>
	<line class="st8" x1="482.2" y1="78.2" x2="482.2" y2="86.2"/>
	<line class="st8" x1="621.9" y1="78.2" x2="621.9" y2="86.2"/>
	<line class="st8" x1="733.7" y1="78.2" x2="733.7" y2="86.2"/>
	<ellipse class="st10" cx="342.6" cy="82.2" rx="5.6" ry="5.5"/>
	<ellipse class="st10" cx="749.6" cy="82.2" rx="5.6" ry="5.5"/>
	<ellipse class="st11" cx="50.8" cy="82.2" rx="5.6" ry="5.5"/>
	<line class="st6" x1="468.7" y1="87.2" x2="468.7" y2="104"/>
	<ellipse class="st11" cx="468.7" cy="82.2" rx="5.6" ry="5.5"/>
	<circle class="st12" cx="114" cy="82.2" r="5"/>
	<line class="st8" x1="114" y1="87.2" x2="114" y2="130.9"/>
	<circle class="st12" cx="721.7" cy="82.2" r="5"/>
	<line class="st8" x1="721.7" y1="87.2" x2="721.7" y2="130.9"/>
</g>
</svg>
