<?xml version="1.0" encoding="utf-8"?>
<!-- Generator: Adobe Illustrator 27.3.1, SVG Export Plug-In . SVG Version: 6.00 Build 0)  -->
<svg version="1.1" id="Capa_1" xmlns="http://www.w3.org/2000/svg" xmlns:xlink="http://www.w3.org/1999/xlink" x="0px" y="0px"
	 viewBox="0 0 400 490" style="enable-background:new 0 0 400 490;" xml:space="preserve">
<style type="text/css">
	.st0{fill:none;stroke:#CC1719;stroke-width:2.6606;stroke-linecap:round;stroke-miterlimit:10;}
	.st1{fill:none;stroke:#DDDBDC;stroke-width:7.095;stroke-miterlimit:10;}
	.st2{fill:#1E1E1C;}
	.st3{font-family:'Roboto-Regular';}
	.st4{font-size:10px;}
	.st5{font-family:'Roboto-ThinItalic';}
	.st6{font-size:12px;}
	.st7{fill:none;stroke:#1D1D1B;stroke-width:2;stroke-linecap:round;stroke-linejoin:round;}
	.st8{fill:#F4E6D2;stroke:#CC1719;stroke-width:2.6606;stroke-miterlimit:10;}
	.st9{fill:#CC1719;}
	.st10{fill:none;stroke:#1E1E1C;stroke-width:2;stroke-miterlimit:10;}
	.st11{font-size:5.83px;}
</style>
<g>
	<line class="st0" x1="194.7" y1="26" x2="167.8" y2="26"/>
	<line class="st1" x1="199.7" y1="25.8" x2="199.7" y2="454"/>
	<g>
		<text transform="matrix(1 0 0 1 126.5993 22.8924)" class="st2 st3 st4">JJ.OO.</text>
		<text transform="matrix(1 0 0 1 92.4147 34.8924)" class="st2 st3 st4">Atenas, Grecia</text>
	</g>
	<g>
		<text transform="matrix(1 0 0 1 241.9857 200.933)" class="st2 st3 st4">1º Panamericanos</text>
		<text transform="matrix(1 0 0 1 241.9857 212.933)" class="st2 st3 st4">Buenos Aires, Argentina</text>
	</g>
	<g>
		<text transform="matrix(1 0 0 1 119.0007 65.3105)" class="st2 st3 st4">FINA</text>
		<text transform="matrix(1 0 0 1 95.6999 77.3105)" class="st2 st5 st4">Fédération</text>
		<text transform="matrix(1 0 0 1 83.029 89.3105)" class="st2 st5 st4">Internationale</text>
		<text transform="matrix(1 0 0 1 91.9548 101.3105)" class="st2 st5 st4">de Natation</text>
	</g>
	<g>
		<text transform="matrix(1 0 0 1 241.9854 453.948)" class="st2 st3 st4">19 º Panamericanos</text>
		<text transform="matrix(1 0 0 1 241.9854 465.948)" class="st2 st3 st4">Santiago, Chile</text>
	</g>
	<g>
		<text transform="matrix(1 0 0 1 217.6 29.1068)" class="st2 st3 st6">1896</text>
	</g>
	<g>
		<text transform="matrix(1 0 0 1 217.5996 65.3104)" class="st2 st3 st6">1908</text>
	</g>
	<g>
		<text transform="matrix(1 0 0 1 158.0748 119.9869)" class="st2 st3 st6">1925</text>
	</g>
	<g>
		<text transform="matrix(1 0 0 1 158.0748 205.9741)" class="st2 st3 st6">1951</text>
	</g>
	<g>
		<text transform="matrix(1 0 0 1 217.5997 280.9074)" class="st2 st3 st6">1973</text>
	</g>
	<g>
		<text transform="matrix(1 0 0 1 158.0748 377.9475)" class="st2 st3 st6">2000</text>
	</g>
	<g>
		<text transform="matrix(1 0 0 1 158.0747 456.5681)" class="st2 st3 st6">2023</text>
	</g>
	<line class="st7" x1="203.7" y1="38.5" x2="195.7" y2="38.5"/>
	<line class="st7" x1="203.7" y1="117.4" x2="195.7" y2="117.4"/>
	<line class="st7" x1="203.7" y1="289.3" x2="195.7" y2="289.3"/>
	<line class="st7" x1="203.7" y1="375.3" x2="195.7" y2="375.3"/>
	<g>
		<line class="st0" x1="204.7" y1="203.4" x2="231.6" y2="203.4"/>
		<ellipse class="st8" cx="199.7" cy="203.4" rx="5.5" ry="5.6"/>
	</g>
	<g>
		<line class="st0" x1="204.7" y1="454" x2="231.6" y2="454"/>
		<ellipse class="st8" cx="199.7" cy="454" rx="5.5" ry="5.6"/>
	</g>
	<ellipse class="st9" cx="199.7" cy="26" rx="5.5" ry="5.6"/>
	<line class="st0" x1="194.7" y1="277.4" x2="167.8" y2="277.4"/>
	<ellipse class="st9" cx="199.7" cy="277.4" rx="5.5" ry="5.6"/>
	<g>
		<circle class="st10" cx="199.7" cy="61.8" r="5"/>
		<line class="st7" x1="194.7" y1="61.8" x2="150.9" y2="61.8"/>
	</g>
	<g>
		<text transform="matrix(1 0 0 1 217.5995 439.8564)" class="st2 st3 st6">2022</text>
	</g>
	<g>
		<text transform="matrix(1 0 0 1 73.1537 434.0125)" class="st2 st3 st4">World Aquatics</text>
		<text transform="matrix(1 0 0 1 61.9937 446.0125)" class="st2 st3 st4">reemplaza a FINA</text>
	</g>
	<g>
		<circle class="st10" cx="199.7" cy="436.8" r="5"/>
		<line class="st7" x1="194.7" y1="436.8" x2="150.9" y2="436.8"/>
	</g>
	<g>
		<text transform="matrix(1 0 0 1 51.7575 274.9428)" class="st2 st3 st4">1</text>
		<text transform="matrix(1 0 0 1 57.3726 271.6128)" class="st2 st3 st11">er</text>
		<text transform="matrix(1 0 0 1 62.4342 274.9428)" class="st2 st3 st4"> Mundial de Natación</text>
		<text transform="matrix(1 0 0 1 75.8181 285.7028)" class="st2 st3 st4">Serbia, Yugoslavia</text>
	</g>
</g>
</svg>
