<?xml version="1.0" encoding="utf-8"?>
<!-- Generator: Adobe Illustrator 27.3.1, SVG Export Plug-In . SVG Version: 6.00 Build 0)  -->
<svg version="1.1" id="Capa_1" xmlns="http://www.w3.org/2000/svg" xmlns:xlink="http://www.w3.org/1999/xlink" x="0px" y="0px"
	 viewBox="0 0 800 180" style="enable-background:new 0 0 800 180;" xml:space="preserve">
<style type="text/css">
	.st0{fill:none;stroke:#CC1719;stroke-width:2.6606;stroke-linecap:round;stroke-miterlimit:10;}
	.st1{fill:none;stroke:#DDDBDC;stroke-width:7.095;stroke-miterlimit:10;}
	.st2{fill:#1E1E1C;}
	.st3{font-family:'Roboto-Regular';}
	.st4{font-size:8.9667px;}
	.st5{font-family:'Roboto-ThinItalic';}
	.st6{font-size:7.1734px;}
	.st7{fill:none;stroke:#1D1D1B;stroke-width:0.8967;stroke-linecap:round;stroke-linejoin:round;}
	.st8{fill:none;stroke:#1D1D1B;stroke-width:0.6208;stroke-linecap:round;stroke-linejoin:round;}
	.st9{fill:#F4E6D2;stroke:#CC1719;stroke-width:2.6606;stroke-miterlimit:10;}
	.st10{fill:#CC1719;}
	.st11{font-size:5.2276px;}
	.st12{fill:none;stroke:#1E1E1C;stroke-width:0.8967;stroke-miterlimit:10;}
</style>
<line class="st0" x1="343.5" y1="93.2" x2="343.5" y2="76.4"/>
<line class="st0" x1="51.3" y1="93.2" x2="51.3" y2="76.4"/>
<line class="st0" x1="750.4" y1="93.2" x2="750.4" y2="76.4"/>
<line class="st1" x1="51.5" y1="98.2" x2="750.4" y2="98.2"/>
<g>
	<text transform="matrix(1 0 0 1 27.4331 58.9957)" class="st2 st3 st4">JJ.OO.</text>
	<text transform="matrix(1 0 0 1 27.4331 69.7557)" class="st2 st3 st4">Atenas, Grecia</text>
</g>
<g>
	<text transform="matrix(1 0 0 1 295.8892 58.9957)" class="st2 st3 st4">1º Panamericanos</text>
	<text transform="matrix(1 0 0 1 295.8892 69.7557)" class="st2 st3 st4">Buenos Aires, Argentina</text>
</g>
<g>
	<text transform="matrix(1 0 0 1 93.418 17.5005)" class="st2 st3 st4">FINA</text>
	<text transform="matrix(1 0 0 1 93.418 26.1105)" class="st2 st5 st6">Fédération </text>
	<text transform="matrix(1 0 0 1 93.418 34.7205)" class="st2 st5 st6">Internationale </text>
	<text transform="matrix(1 0 0 1 93.418 43.3205)" class="st2 st5 st6">de Natation</text>
</g>
<g>
	<text transform="matrix(1 0 0 1 709.9287 58.9957)" class="st2 st3 st4">19 º Panamericanos</text>
	<text transform="matrix(1 0 0 1 709.9287 69.7557)" class="st2 st3 st4">Santiago, Chile</text>
</g>
<g>
	<text transform="matrix(1 0 0 1 41.2627 121.9351)" class="st2 st3 st4">1896</text>
</g>
<g>
	<text transform="matrix(1 0 0 1 104.9546 121.9351)" class="st2 st3 st4">1908</text>
</g>
<g>
	<text transform="matrix(1 0 0 1 193.7476 121.9351)" class="st2 st3 st4">1925</text>
</g>
<g>
	<text transform="matrix(1 0 0 1 333.3872 121.9351)" class="st2 st3 st4">1951</text>
</g>
<g>
	<text transform="matrix(1 0 0 1 459.7299 121.9351)" class="st2 st3 st4">1973</text>
</g>
<g>
	<text transform="matrix(1 0 0 1 612.666 121.9351)" class="st2 st3 st4">2000</text>
</g>
<g>
	<text transform="matrix(1 0 0 1 740.3447 121.9351)" class="st2 st3 st4">2023</text>
</g>
<line class="st7" x1="64.2" y1="94.2" x2="64.2" y2="102.2"/>
<line class="st7" x1="203.8" y1="94.2" x2="203.8" y2="102.2"/>
<line class="st8" x1="343.5" y1="94.2" x2="343.5" y2="102.2"/>
<line class="st7" x1="483.1" y1="94.2" x2="483.1" y2="102.2"/>
<line class="st7" x1="622.7" y1="94.2" x2="622.7" y2="102.2"/>
<line class="st7" x1="734.5" y1="94.2" x2="734.5" y2="102.2"/>
<ellipse class="st9" cx="343.5" cy="98.2" rx="5.6" ry="5.5"/>
<ellipse class="st9" cx="750.4" cy="98.2" rx="5.6" ry="5.5"/>
<ellipse class="st10" cx="51.3" cy="98.2" rx="5.6" ry="5.5"/>
<line class="st0" x1="469.8" y1="93.2" x2="469.8" y2="76.4"/>
<g>
	<text transform="matrix(1 0 0 1 445.9366 58.9957)" class="st2 st3 st4">1</text>
	<text transform="matrix(1 0 0 1 450.9717 56.0098)" class="st2 st3 st11">er</text>
	<text transform="matrix(1 0 0 1 455.5098 58.9957)" class="st2 st3 st4"> Mundial de Natación</text>
	<text transform="matrix(1 0 0 1 445.9366 69.7557)" class="st2 st3 st4">Serbia, Yugoslavia</text>
</g>
<ellipse class="st10" cx="469.8" cy="98.2" rx="5.6" ry="5.5"/>
<circle class="st12" cx="115" cy="98.2" r="5"/>
<line class="st7" x1="115" y1="93.2" x2="115" y2="49.5"/>
<g>
	<text transform="matrix(1 0 0 1 699.8584 121.9351)" class="st2 st3 st4">2022</text>
</g>
<g>
	<text transform="matrix(1 0 0 1 687.1445 143.5806)" class="st2 st3 st4">World Aquatics</text>
	<text transform="matrix(1 0 0 1 687.1445 154.3406)" class="st2 st3 st4">reemplaza a FINA</text>
</g>
<circle class="st12" cx="722.5" cy="98.2" r="5"/>
<line class="st7" x1="722.5" y1="103.2" x2="722.5" y2="129.1"/>
</svg>
