<?xml version="1.0" encoding="utf-8"?>
<!-- Generator: Adobe Illustrator 27.3.1, SVG Export Plug-In . SVG Version: 6.00 Build 0)  -->
<svg version="1.1" id="Capa_1" xmlns="http://www.w3.org/2000/svg" xmlns:xlink="http://www.w3.org/1999/xlink" x="0px" y="0px"
	 viewBox="0 0 400 490" style="enable-background:new 0 0 400 490;" xml:space="preserve">
<style type="text/css">
	.st0{fill:none;stroke:#CC1719;stroke-width:2.6606;stroke-linecap:round;stroke-miterlimit:10;}
	.st1{fill:none;stroke:#DDDBDC;stroke-width:7.095;stroke-miterlimit:10;}
	.st2{fill:#1E1E1C;}
	.st3{font-family:'Roboto-Regular';}
	.st4{font-size:10px;}
	.st5{font-family:'Roboto-ThinItalic';}
	.st6{font-size:12px;}
	.st7{fill:none;stroke:#1D1D1B;stroke-width:2;stroke-linecap:round;stroke-linejoin:round;}
	.st8{fill:#F4E6D2;stroke:#CC1719;stroke-width:2.6606;stroke-miterlimit:10;}
	.st9{fill:#CC1719;}
	.st10{fill:none;stroke:#1E1E1C;stroke-width:2;stroke-miterlimit:10;}
</style>
<g>
	<line class="st0" x1="204.7" y1="25.6" x2="221.6" y2="25.6"/>
	<line class="st1" x1="199.7" y1="25.8" x2="199.7" y2="454"/>
	<g>
		<text transform="matrix(1 0 0 1 230.9785 22.8924)" class="st2 st3 st4">JJ.OO.</text>
		<text transform="matrix(1 0 0 1 230.9785 34.8924)" class="st2 st3 st4">Atenas, Grecia</text>
	</g>
	<g>
		<text transform="matrix(1 0 0 1 230.9788 200.933)" class="st2 st3 st4">1º Panamericanos</text>
		<text transform="matrix(1 0 0 1 230.9788 212.933)" class="st2 st3 st4">Buenos Aires, Argentina</text>
	</g>
	<g>
		<text transform="matrix(1 0 0 1 255.4888 62.6901)" class="st2 st3 st4">FINA</text>
		<text transform="matrix(1 0 0 1 255.4888 74.6901)" class="st2 st5 st4">Fédération </text>
		<text transform="matrix(1 0 0 1 255.4888 86.6901)" class="st2 st5 st4">Internationale </text>
		<text transform="matrix(1 0 0 1 255.4888 98.6901)" class="st2 st5 st4">de Natation</text>
	</g>
	<g>
		<text transform="matrix(1 0 0 1 230.9785 453.948)" class="st2 st3 st4">19 º Panamericanos</text>
		<text transform="matrix(1 0 0 1 230.9785 465.948)" class="st2 st3 st4">Santiago, Chile</text>
	</g>
	<g>
		<text transform="matrix(1 0 0 1 158.0749 29.1068)" class="st2 st3 st6">1896</text>
	</g>
	<g>
		<text transform="matrix(1 0 0 1 158.0747 65.3104)" class="st2 st3 st6">1908</text>
	</g>
	<g>
		<text transform="matrix(1 0 0 1 158.0748 119.9869)" class="st2 st3 st6">1925</text>
	</g>
	<g>
		<text transform="matrix(1 0 0 1 158.0748 205.9741)" class="st2 st3 st6">1951</text>
	</g>
	<g>
		<text transform="matrix(1 0 0 1 158.0748 291.9606)" class="st2 st3 st6">1975</text>
	</g>
	<g>
		<text transform="matrix(1 0 0 1 158.0748 377.9475)" class="st2 st3 st6">2000</text>
	</g>
	<g>
		<text transform="matrix(1 0 0 1 158.0747 456.5681)" class="st2 st3 st6">2023</text>
	</g>
	<line class="st7" x1="203.7" y1="38.5" x2="195.7" y2="38.5"/>
	<line class="st7" x1="203.7" y1="117.4" x2="195.7" y2="117.4"/>
	<line class="st7" x1="203.7" y1="289.3" x2="195.7" y2="289.3"/>
	<line class="st7" x1="203.7" y1="375.3" x2="195.7" y2="375.3"/>
	<g>
		<line class="st0" x1="204.7" y1="203.4" x2="221.6" y2="203.4"/>
		<ellipse class="st8" cx="199.7" cy="203.4" rx="5.5" ry="5.6"/>
	</g>
	<g>
		<line class="st0" x1="204.7" y1="454" x2="221.6" y2="454"/>
		<ellipse class="st8" cx="199.7" cy="454" rx="5.5" ry="5.6"/>
	</g>
	<ellipse class="st9" cx="199.7" cy="25.6" rx="5.5" ry="5.6"/>
	<g>
		<circle class="st10" cx="199.7" cy="62.7" r="5"/>
		<line class="st7" x1="204.7" y1="62.7" x2="248.5" y2="62.7"/>
	</g>
	<g>
		<text transform="matrix(1 0 0 1 131.9149 439.8564)" class="st2 st3 st6">2022</text>
	</g>
	<g>
		<text transform="matrix(1 0 0 1 52.0702 434.0125)" class="st2 st3 st4">World Aquatics</text>
		<text transform="matrix(1 0 0 1 40.9102 446.0125)" class="st2 st3 st4">reemplaza a FINA</text>
	</g>
	<g>
		<circle class="st10" cx="199.7" cy="436.8" r="5"/>
		<line class="st7" x1="194.7" y1="436.8" x2="168.9" y2="436.8"/>
	</g>
</g>
</svg>
