<?xml version="1.0" encoding="utf-8"?>
<!-- Generator: Adobe Illustrator 27.3.1, SVG Export Plug-In . SVG Version: 6.00 Build 0)  -->
<svg version="1.1" id="Capa_1" xmlns="http://www.w3.org/2000/svg" xmlns:xlink="http://www.w3.org/1999/xlink" x="0px" y="0px"
	 viewBox="0 0 960 190" style="enable-background:new 0 0 960 190;" xml:space="preserve">
<style type="text/css">
	.st0{fill:#F4E6D2;stroke:#CC1719;stroke-width:2.9672;stroke-linecap:round;stroke-miterlimit:10;}
	.st1{fill:none;stroke:#DDDBDC;stroke-width:7.9126;stroke-miterlimit:10;}
	.st2{fill:#1E1E1C;}
	.st3{font-family:'Roboto-Regular';}
	.st4{font-size:10px;}
	.st5{font-family:'Roboto-ThinItalic';}
	.st6{font-size:8px;}
	.st7{fill:none;stroke:#1D1D1B;stroke-linecap:round;stroke-linejoin:round;}
	.st8{fill:none;stroke:#1D1D1B;stroke-width:0.6924;stroke-linecap:round;stroke-linejoin:round;}
	.st9{fill:#F4E6D2;stroke:#CC1719;stroke-width:2.9672;stroke-miterlimit:10;}
	.st10{fill:#CC1719;}
	.st11{fill:none;stroke:#1E1E1C;stroke-miterlimit:10;}
	.st12{fill:#DDDBDC;}
	.st13{fill:#F2C5C1;}
	.st14{fill:#DD6F53;}
	.st15{fill:#FFFFFF;}
	.st16{fill:#C62119;}
	.st17{fill:none;}
	.st18{fill:#716C68;}
	.st19{fill:none;stroke:#1D1E1C;stroke-width:0.4618;stroke-miterlimit:10;stroke-dasharray:1.5393,1.5393;}
</style>
<line class="st0" x1="415.89" y1="104.39" x2="415.89" y2="85.58"/>
<line class="st0" x1="90.1" y1="104.39" x2="90.1" y2="85.58"/>
<line class="st0" x1="869.74" y1="104.39" x2="869.74" y2="85.58"/>
<line class="st1" x1="90.26" y1="109.97" x2="869.74" y2="109.97"/>
<g>
	<text transform="matrix(1 0 0 1 63.4448 66.2015)"><tspan x="0" y="0" class="st2 st3 st4">JJ.OO.</tspan><tspan x="0" y="12" class="st2 st3 st4">Atenas, Grecia</tspan></text>
</g>
<g>
	<text transform="matrix(1 0 0 1 362.8361 66.2016)"><tspan x="0" y="0" class="st2 st3 st4">1º Panamericanos</tspan><tspan x="0" y="12" class="st2 st3 st4">Buenos Aires, Argentina</tspan></text>
</g>
<g>
	<text transform="matrix(1 0 0 1 137.0337 19.925)"><tspan x="0" y="0" class="st2 st3 st4">FINA</tspan><tspan x="0" y="9.6" class="st2 st5 st6">Fédération </tspan><tspan x="0" y="19.2" class="st2 st5 st6">Internationale </tspan><tspan x="0" y="28.8" class="st2 st5 st6">de Natation</tspan></text>
</g>
<g>
	<text transform="matrix(1 0 0 1 824.5864 66.2016)"><tspan x="0" y="0" class="st2 st3 st4">19 º Panamericanos</tspan><tspan x="0" y="12" class="st2 st3 st4">Santiago, Chile</tspan></text>
</g>
<g>
	<text transform="matrix(1 0 0 1 78.8676 136.3933)" class="st2 st3 st4">1896</text>
</g>
<g>
	<text transform="matrix(1 0 0 1 149.8989 136.3933)" class="st2 st3 st4">1908</text>
</g>
<g>
	<text transform="matrix(1 0 0 1 248.9242 136.3933)" class="st2 st3 st4">1925</text>
</g>
<g>
	<text transform="matrix(1 0 0 1 404.655 136.3933)" class="st2 st3 st4">1951</text>
</g>
<g>
	<text transform="matrix(1 0 0 1 560.3857 136.3933)" class="st2 st3 st4">1975</text>
</g>
<g>
	<text transform="matrix(1 0 0 1 716.1166 136.3933)" class="st2 st3 st4">2000</text>
</g>
<g>
	<text transform="matrix(1 0 0 1 858.5076 136.3933)" class="st2 st3 st4">2023</text>
</g>
<line class="st7" x1="104.42" y1="105.51" x2="104.42" y2="114.43"/>
<line class="st7" x1="260.15" y1="105.51" x2="260.15" y2="114.43"/>
<line class="st8" x1="415.89" y1="105.51" x2="415.89" y2="114.43"/>
<line class="st7" x1="571.62" y1="105.51" x2="571.62" y2="114.43"/>
<line class="st7" x1="727.35" y1="105.51" x2="727.35" y2="114.43"/>
<line class="st7" x1="851.93" y1="105.51" x2="851.93" y2="114.43"/>
<ellipse class="st9" cx="415.89" cy="109.97" rx="6.2" ry="6.12"/>
<ellipse class="st9" cx="869.74" cy="109.97" rx="6.2" ry="6.12"/>
<ellipse class="st10" cx="90.1" cy="109.97" rx="6.2" ry="6.12"/>
<circle class="st11" cx="161.13" cy="109.97" r="5.59"/>
<line class="st7" x1="161.13" y1="104.39" x2="161.13" y2="55.56"/>
<g>
	<text transform="matrix(1 0 0 1 813.3562 136.3937)" class="st2 st3 st4">2022</text>
</g>
<g>
	<text transform="matrix(1 0 0 1 799.177 160.5338)"><tspan x="0" y="0" class="st2 st3 st4">World Aquatics</tspan><tspan x="0" y="12" class="st2 st3 st4">reemplaza a FINA</tspan></text>
</g>
<circle class="st11" cx="838.63" cy="109.97" r="5.59"/>
<line class="st7" x1="838.63" y1="115.56" x2="838.63" y2="144.37"/>
</svg>
