<?xml version="1.0" encoding="utf-8"?>
<!-- Generator: Adobe Illustrator 27.3.1, SVG Export Plug-In . SVG Version: 6.00 Build 0)  -->
<svg version="1.1" id="Capa_1" xmlns="http://www.w3.org/2000/svg" xmlns:xlink="http://www.w3.org/1999/xlink" x="0px" y="0px"
	 viewBox="0 0 500 210.9" style="enable-background:new 0 0 500 210.9;" xml:space="preserve">
<style type="text/css">
	.st0{clip-path:url(#SVGID_00000028313040530075321250000001149614523624332193_);}
	.st1{fill:none;stroke:#ECECEC;stroke-width:5.275;stroke-miterlimit:10;}
	.st2{fill:none;stroke:#000000;stroke-width:1.3187;stroke-miterlimit:10;}
	.st3{fill:none;stroke:#CD1719;stroke-width:1.3187;stroke-miterlimit:10;}
	.st4{fill:#CD1719;}
	.st5{fill:#F2C5C1;}
	.st6{fill:#5D5C5B;}
</style>
<g>
	<g>
		<g>
			<defs>
				<rect id="SVGID_1_" y="30.2" width="454.7" height="180.7"/>
			</defs>
			<clipPath id="SVGID_00000001655189003515922830000003227341574049381260_">
				<use xlink:href="#SVGID_1_"  style="overflow:visible;"/>
			</clipPath>
			<g id="agua" style="clip-path:url(#SVGID_00000001655189003515922830000003227341574049381260_);">
				<g>
					<g>
						<path class="st1" d="M671.3,51.9c-39,0-39-6.9-77.9-6.9c-39,0-39,6.9-77.9,6.9c-39,0-39-6.9-77.9-6.9c-39,0-39,6.9-77.9,6.9
							c-39,0-39-6.9-77.9-6.9c-39,0-39,6.9-77.9,6.9c-39,0-39-6.9-77.9-6.9c-39,0-39,6.9-77.9,6.9S8.7,45-30.2,45
							c-39,0-39,6.9-77.9,6.9s-39-6.9-77.9-6.9"/>
					</g>
					<g>
						<path class="st1" d="M671.3,66c-39,0-39-6.9-77.9-6.9c-39,0-39,6.9-77.9,6.9c-39,0-39-6.9-77.9-6.9c-39,0-39,6.9-77.9,6.9
							c-39,0-39-6.9-77.9-6.9c-39,0-39,6.9-77.9,6.9c-39,0-39-6.9-77.9-6.9c-39,0-39,6.9-77.9,6.9s-39-6.9-77.9-6.9
							c-39,0-39,6.9-77.9,6.9s-39-6.9-77.9-6.9"/>
					</g>
					<g>
						<path class="st1" d="M671.3,80c-39,0-39-6.9-77.9-6.9c-39,0-39,6.9-77.9,6.9c-39,0-39-6.9-77.9-6.9c-39,0-39,6.9-77.9,6.9
							c-39,0-39-6.9-77.9-6.9c-39,0-39,6.9-77.9,6.9c-39,0-39-6.9-77.9-6.9c-39,0-39,6.9-77.9,6.9s-39-6.9-77.9-6.9
							c-39,0-39,6.9-77.9,6.9s-39-6.9-77.9-6.9"/>
					</g>
					<g>
						<path class="st1" d="M671.3,94.1c-39,0-39-6.9-77.9-6.9c-39,0-39,6.9-77.9,6.9c-39,0-39-6.9-77.9-6.9c-39,0-39,6.9-77.9,6.9
							c-39,0-39-6.9-77.9-6.9c-39,0-39,6.9-77.9,6.9c-39,0-39-6.9-77.9-6.9c-39,0-39,6.9-77.9,6.9s-39-6.9-77.9-6.9
							c-39,0-39,6.9-77.9,6.9s-39-6.9-77.9-6.9"/>
					</g>
					<g>
						<path class="st1" d="M671.3,108.1c-39,0-39-6.9-77.9-6.9c-39,0-39,6.9-77.9,6.9c-39,0-39-6.9-77.9-6.9c-39,0-39,6.9-77.9,6.9
							c-39,0-39-6.9-77.9-6.9c-39,0-39,6.9-77.9,6.9c-39,0-39-6.9-77.9-6.9c-39,0-39,6.9-77.9,6.9s-39-6.9-77.9-6.9
							c-39,0-39,6.9-77.9,6.9s-39-6.9-77.9-6.9"/>
					</g>
				</g>
				<g>
					<g>
						<path class="st1" d="M671.3,122.2c-39,0-39-6.9-77.9-6.9c-39,0-39,6.9-77.9,6.9c-39,0-39-6.9-77.9-6.9c-39,0-39,6.9-77.9,6.9
							c-39,0-39-6.9-77.9-6.9c-39,0-39,6.9-77.9,6.9c-39,0-39-6.9-77.9-6.9c-39,0-39,6.9-77.9,6.9s-39-6.9-77.9-6.9
							c-39,0-39,6.9-77.9,6.9s-39-6.9-77.9-6.9"/>
					</g>
					<g>
						<path class="st1" d="M671.3,136.2c-39,0-39-6.9-77.9-6.9c-39,0-39,6.9-77.9,6.9c-39,0-39-6.9-77.9-6.9c-39,0-39,6.9-77.9,6.9
							c-39,0-39-6.9-77.9-6.9c-39,0-39,6.9-77.9,6.9c-39,0-39-6.9-77.9-6.9c-39,0-39,6.9-77.9,6.9s-39-6.9-77.9-6.9
							c-39,0-39,6.9-77.9,6.9s-39-6.9-77.9-6.9"/>
					</g>
					<g>
						<path class="st1" d="M671.3,150.3c-39,0-39-6.9-77.9-6.9c-39,0-39,6.9-77.9,6.9c-39,0-39-6.9-77.9-6.9c-39,0-39,6.9-77.9,6.9
							c-39,0-39-6.9-77.9-6.9c-39,0-39,6.9-77.9,6.9c-39,0-39-6.9-77.9-6.9c-39,0-39,6.9-77.9,6.9s-39-6.9-77.9-6.9
							c-39,0-39,6.9-77.9,6.9s-39-6.9-77.9-6.9"/>
					</g>
					<g>
						<path class="st1" d="M671.3,164.3c-39,0-39-6.9-77.9-6.9c-39,0-39,6.9-77.9,6.9c-39,0-39-6.9-77.9-6.9c-39,0-39,6.9-77.9,6.9
							c-39,0-39-6.9-77.9-6.9c-39,0-39,6.9-77.9,6.9c-39,0-39-6.9-77.9-6.9c-39,0-39,6.9-77.9,6.9s-39-6.9-77.9-6.9
							c-39,0-39,6.9-77.9,6.9s-39-6.9-77.9-6.9"/>
					</g>
				</g>
				<g>
					<g>
						<path class="st1" d="M671.3,178.4c-39,0-39-6.9-77.9-6.9c-39,0-39,6.9-77.9,6.9c-39,0-39-6.9-77.9-6.9c-39,0-39,6.9-77.9,6.9
							c-39,0-39-6.9-77.9-6.9c-39,0-39,6.9-77.9,6.9c-39,0-39-6.9-77.9-6.9c-39,0-39,6.9-77.9,6.9s-39-6.9-77.9-6.9
							c-39,0-39,6.9-77.9,6.9s-39-6.9-77.9-6.9"/>
					</g>
					<g>
						<path class="st1" d="M671.3,192.4c-39,0-39-6.9-77.9-6.9c-39,0-39,6.9-77.9,6.9c-39,0-39-6.9-77.9-6.9c-39,0-39,6.9-77.9,6.9
							c-39,0-39-6.9-77.9-6.9c-39,0-39,6.9-77.9,6.9c-39,0-39-6.9-77.9-6.9c-39,0-39,6.9-77.9,6.9s-39-6.9-77.9-6.9
							c-39,0-39,6.9-77.9,6.9s-39-6.9-77.9-6.9"/>
					</g>
					<g>
						<path class="st1" d="M671.3,206.5c-39,0-39-6.9-77.9-6.9c-39,0-39,6.9-77.9,6.9c-39,0-39-6.9-77.9-6.9c-39,0-39,6.9-77.9,6.9
							c-39,0-39-6.9-77.9-6.9c-39,0-39,6.9-77.9,6.9c-39,0-39-6.9-77.9-6.9c-39,0-39,6.9-77.9,6.9s-39-6.9-77.9-6.9
							c-39,0-39,6.9-77.9,6.9s-39-6.9-77.9-6.9"/>
					</g>
				</g>
			</g>
		</g>
	</g>
</g>
<polyline class="st2" points="454.7,210.9 454.7,10.3 495.9,10.3 "/>
<g>
	<g>
		<path class="st3" d="M332.7,168.7c0.2-23.9,19.4-43.3,43.2-43.7"/>
		<g>
			<polygon class="st4" points="372.8,129.3 372.1,128.6 375.5,125.1 371.8,122 372.4,121.2 376.9,125.1 			"/>
		</g>
	</g>
</g>
<g>
	<g>
		<line class="st3" x1="159.7" y1="18.4" x2="235.1" y2="18.4"/>
		<g>
			<polygon class="st4" points="231.8,22.5 231.1,21.8 234.7,18.4 231.1,15.1 231.8,14.4 236.2,18.4 			"/>
		</g>
	</g>
</g>
<g>
	<g>
		<line class="st3" x1="137.4" y1="146.9" x2="62.9" y2="135.1"/>
		<g>
			<polygon class="st4" points="66.8,131.6 67.3,132.4 63.3,135.2 66.3,139 65.5,139.6 61.9,134.9 			"/>
		</g>
	</g>
</g>
<g>
	<path class="st5" d="M185.1,53.9c0,0,4.2-2.2,13.1-2.5c9-0.3-5.1-11.8-5.1-11.8l-8,0.3V53.9z"/>
	<g>
		<path class="st6" d="M203,41.2c9.8-2.6,12.6,6,12.6,6c0.9-1.1,1.6-2.2,2-3.2c2.1-6-2.4-13-8.8-15.2s-14.3,1.6-16.4,7.6
			c-0.4,1.2-0.4,2.3-0.2,3.5C193.1,41,195.6,43.2,203,41.2z"/>
		<path class="st5" d="M215.6,47.2c0-0.1-2.8-8.7-12.6-6c-7.4,2-9.9-0.1-10.7-1.3c0.4,2.3,1.7,4.6,2.8,7.2c1.4,3.1,1.5,7.6,4.1,9.9
			c1.9,1.7,5.9-2.4,10.2-1.5c1.5,0.3-0.1-2.3,1.2-3.4C212.3,50.6,214.2,48.9,215.6,47.2z"/>
	</g>
	<g>
		<path class="st5" d="M260.4,44.7c-9.8-7.3-20-2.8-20-2.8c-8.7,0.4-15.8,0.7-21.8,0.8c-0.1,0.5-0.2,1-0.4,1.5
			c-0.4,1-1.1,2.2-2.1,3.5c-1,1.2-2.2,2.3-3.4,3.4c14-1.4,26.7-4.8,26.7-4.8l10,3.1c0.8,0.3,1.8-0.8,1.2-1.4c-0.5-0.4-2.4-1.1-1-2.3
			C251.6,44.1,262.8,46.5,260.4,44.7z"/>
	</g>
	<path class="st6" d="M120.4,46.7c-0.8-3.8,1.3-9.4,9.4-12.4c8.1-3,26.8,8.4,35.1,5.4c8.3-3.1,22.3-6.7,24.4-1.1s5.8,17.2-6.4,21.7
		c-20.1,7.4-25.2-10-39.4-4.7S121.7,52.8,120.4,46.7z"/>
	<path class="st5" d="M70.1,45.1c0,4.8,3.6,2.9,11.8,2.5c8.2-0.4,12.9,6.5,17.5,4.1c3.4-1.8,16.5-12.5,28-12.7
		c9.7-0.1,15.2,15.3-0.4,20.3c0,0-17.9,2.4-27.4,2.9c-9.4,0.5-27.2-4-34.7-9.6c-2.2-1.7-7.7-1.1-11.3-2.4c-5.3-2-8.2-0.4-10.6-4.9
		c-2.6-5,10.7,0.4,15.4-2.1S70.1,39.5,70.1,45.1z"/>
	<path class="st5" d="M73.5,57.8c-2.4,1.7-4.1,2.7-4.6,1.2c-1.5-5.6-8.6-4-11.5,0.4c-2.9,4.4-17.2,6.1-12.5,9.2
		c4.2,2.8,6.2-2.3,11.6-0.8c3.4,0.9,9.8-1.2,12.6-1.3c8.6-0.3,14-2.2,22.4-4C85.8,61.6,79.2,60,73.5,57.8z"/>
	<path class="st5" d="M146.3,44c0,0-12.5-2.4-14.1-14.5c-0.4-3,5.7,6.8,8.3,7c1.8,0.2,1-1.7,0.9-2.3c0-0.9,1.4-0.9,1.8-0.1l5.3,2.5
		c0,0,22-25.1,37,4c5.6,10.8-4,14.9-7.2,10.4c-4.7-6.4-6-8.8-7.6-14.8C168.8,28.8,153.4,43.4,146.3,44z"/>
</g>
<g>
	<path class="st5" d="M76.5,107.8c3.2,1.4,5.5,1.8,7.1,1.7c1.6-1.1,2.9-1.9,2.9-1.9l0.6,0.6c0.1-0.1,0.1-0.1,0.2-0.2
		c0,0.1-0.1,0.2-0.1,0.3l4,4.1c-1.9-0.2-3.8-0.5-5.7-0.8c0,0,0,0,0,0c-0.9-0.1-1.9-0.3-2.8-0.4c-5.6-0.8-11.4-1.6-17.3-2
		C67.4,107.3,71,105.4,76.5,107.8z"/>
	<path class="st6" d="M157.5,127.4c1.5-3.6,0.3-9.4-7.2-13.8c-7.5-4.3-27.8,3.9-35.5-0.6c-7.7-4.4-20.8-10.4-23.8-5.1
		c-3,5.2-8.6,16,2.7,22.4c18.6,10.7,26.5-5.6,39.6,1.9C146.3,139.8,155.2,133.1,157.5,127.4z"/>
	<path class="st5" d="M32.6,107.6c0,0-9.7-5.3-20.1,1.2c-2.5,1.6,8.9,0.1,10.7,1.9c1.3,1.3-0.7,1.8-1.2,2.2
		c-0.7,0.6,0.2,1.7,1.1,1.5l10.2-2.3c0,0,22.9,7.4,38,8c9.2,0.3,17.5,3.9,24.3,4.5c12.1,1.2,15.1-10.2,2.8-10.9
		c-10.4-0.5-22.5-3.3-35.1-4C53,109.3,42.4,108.7,32.6,107.6z"/>
	<path class="st6" d="M76.5,107.8c-5.5-2.4-9.2-0.5-11.3,1.5c-0.7,0-1.3-0.1-2-0.1c-0.5,0-1-0.1-1.5-0.1c-0.1-0.2-0.1-0.4-0.2-0.6
		c-1.2-6.2,4.3-12.5,10.9-13.7c6.6-1.2,13.9,3.6,15.1,9.9c0.2,1.2,0.1,2.3-0.3,3.5C86.3,109.1,83.5,110.8,76.5,107.8z"/>
	<path class="st5" d="M71.3,120.8c3,0.1,5.9,0.6,8.7,1.2c-0.5,0.8-1.2,1.5-1.9,2c-2.1,1.4-5.5-3.3-9.9-2.9c-0.5,0-0.6-0.2-0.6-0.5
		C68.8,120.7,70.1,120.8,71.3,120.8z"/>
	<path class="st5" d="M214.5,130.3c-1.1,4.7-13.7-0.6-21.8-0.6c-8.2,0-11,1.7-15.7-0.4c-3.5-1.6-19.2-13.6-30.7-13.2
		c-9.7,0.4-14.4,16.1,1.4,20.2c0,0,20.2,5.2,29.7,5.2c9.5,0,27.8-3.1,37.2-3c2.8,0,8.7,1.9,12.2,1.5c5.6-0.6,6.8,4.7,11.4,2.6
		c5.1-2.3-8.7-6.2-10.9-11S216.8,120.2,214.5,130.3z"/>
	<path class="st5" d="M227.5,130.6C227.5,130.6,227.5,130.6,227.5,130.6c-1.7-3-5.5-6.6-8.9-6.3c-1.6,0.2-3.8,1.3-4.9,5.8
		c-0.5,2.3-5.9,1.3-11.1,0.2c-3.4-0.7-7-1.4-10.1-1.4c-2.9,0-5.3,0.2-7.1,0.4c-0.6,0.1-1.1,0.1-1.7,0.2c16.8-7.8,29.4-0.1,29-4.5
		c-0.8-10.3,8.9-6.6,12.5-2.6c3.6,3.9,17.9,3.4,13.7,7.2C235.4,133,232.7,128.3,227.5,130.6z"/>
</g>
<g>
	<g>
		<path class="st5" d="M385.6,90.2c0.1,0,0.2,0,0.3,0c0,0,0,0,0-0.1c0.1-0.4,0.3-1,1.1-1.5c5.6-3.5,9-2,10.5-0.9
			c1.4,1.1,2.3,2.7,2.6,4.5c3.8-4.2-10.4-8.6-11.7-8.5c-3.1,0.3-9.1,0.3-15.6,0.2C377.4,86.9,382.1,89.6,385.6,90.2z"/>
		<path class="st5" d="M356.2,87.2c-0.5,0-12,0.6-18,4.3c11.8-0.6,20.4-0.1,27.2,0.8C361.9,89.4,358.8,87.2,356.2,87.2z"/>
		<path class="st5" d="M328.7,91.4c2.3-1.9,4.4-3.5,6.5-4.9c-0.1,0-0.2,0-0.3,0c-2.9-0.4-12.4-5-11.6-2.7s4.1,3.6,4.1,3.6
			c-2.3-0.6-8.1-0.5-8.1-0.5C318.6,89.8,324.1,90.9,328.7,91.4z"/>
	</g>
	<path class="st5" d="M387.3,89.2c0,0-4.6,0.9-13.3-1.5c-8.7-2.4,1.3,12.8,1.3,12.8l11.8,3.7L387.3,89.2z"/>
	<g>
		<path class="st6" d="M366.5,96c-10.1-0.4-10.2-9.5-10.2-9.5c-1.2,0.8-2.2,1.6-2.9,2.5c-3.8,5.1-1.5,13.1,3.8,17.1
			c5.4,3.9,14.1,2.8,17.9-2.3c0.7-1,1.1-2.1,1.2-3.3C375.9,99.1,374.1,96.3,366.5,96z"/>
		<path class="st5" d="M356.2,86.5c0,0.1,0.1,9.1,10.2,9.5c7.6,0.3,9.4,3.1,9.8,4.5c0.3-2.3-0.2-4.9-0.5-7.7
			c-0.4-3.4,0.8-7.7-0.9-10.7c-1.3-2.2-6.3,0.6-10.2-1.6c-1.3-0.8-0.6,2.2-2.1,2.9C360.4,84.3,358.1,85.3,356.2,86.5z"/>
	</g>
	<path class="st6" d="M423.7,53.9c3.6,1.4,12.9,9.6,10.9,18c-2,8.4-12.8,16.4-18.9,22.8c-9,9.5-22.6,11-28.5,9.6
		c-5.9-1.4-7-5.7-5.7-11.6c4.7-20.9,24.4-6.6,27.9-21.3S418,51.6,423.7,53.9z"/>
	<path class="st5" d="M361.9,47.9c-0.8,4.8,3.1,3.5,11.2,4.5c8.1,1,11.6,8.7,16.5,7.1c3.7-1.2,18.4-9.5,29.7-7.7
		c9.6,1.5,12.3,17.7-3.9,19.9c0,0-18.1-0.7-27.4-1.8c-9.4-1.1-26.1-8.6-32.5-15.4c-1.9-2-7.4-2.4-10.7-4.3c-4.9-2.9-8-1.8-9.6-6.6
		c-1.7-5.3,10.4,2.3,15.5,0.6C355.6,42.4,362.8,42.4,361.9,47.9z"/>
	<path class="st5" d="M363.1,61.1c-3.7,1.1-5.4,1.4-6.1-1.9c-1.1-5.5-7.8-2.8-11.9,0.5c-4.1,3.4-18.2,0.7-14.7,5.1
		c3.2,3.9,5.8,1.8,11.4,2.7c3.8,0.6,9.1-1.1,11.6,0.1c8,3.8,24.8,4.8,34.4,2.9C381.3,69.8,371,65.9,363.1,61.1z"/>
	<path class="st5" d="M356.2,86.5c7.6,0,18.6,17.7,33.8,16.7c14.5-1,11.3-22.6-2.7-13.9c-1.3,0.8-0.3,1.8-1.9,1.6
		c-8.1-1.2-22.2-13.8-27.6-12.8c0,0-13-1.6-36.8,21c0,0-6.8,7.8,6.4-0.5c0,0-0.7,0.2-1.1,3.2s4.4-1.7,8.6-8.1
		C339,87.2,356.2,86.5,356.2,86.5z"/>
</g>
<g>
	<g>
		<path class="st6" d="M304.9,145c-10,1.4-9.2,10.4-9.2,10.5c-1.3-0.6-2.4-1.4-3.1-2.2c-4.3-4.7-2.9-12.9,2.1-17.4s13.8-4.2,18,0.5
			c0.8,0.9,1.3,2,1.5,3.1C313.9,141,312.4,143.9,304.9,145z"/>
		<path class="st5" d="M319.3,149.2c-1.3,1.3-2.5,2.4-3.6,3.4c0.2,2,0.3,3.9-0.5,5.7c-0.7,1.5-2.6,1.6-4.5,1.6c-1.9,0-4,0.1-5.7,1.3
			c-0.3,0.2-0.5,0.3-0.8,0.3c-0.1,0-0.2,0-0.3,0c-0.6-0.2-0.8-0.8-1-1.5c-0.2-0.6-0.4-1.2-0.8-1.3c-1.8-0.6-3.8-1.3-5.6-2.1l0,0
			l-1.1-0.6l-0.3-0.2l0,0c-1.3-0.7-2.3-1.4-3-2.2c-1.6-1.8-2.5-4-2.7-6.6c-5.5-3.5-8.9-5.1-8.9-5.1c-3.6-5.9-10.3-9.2-9-7.6
			c2.4,2.9,2.9,4.4,2.9,4.4c-3.7-3.7-7.5-3.9-7.5-3.9c-3.8,2.4,4.5,7.2,11.6,11.4c7.1,4.2,14.3,13.9,20.8,18.5
			c9.4,6.7,19.6-0.3,29.6-6C338.8,153.3,326.8,142,319.3,149.2z"/>
		<path class="st5" d="M295.6,155.5c0-0.1-0.8-9.1,9.2-10.5c7.5-1.1,9-4,9.3-5.4c0.5,2.2,0.3,4.9,0.2,7.8c0,3.4,1.6,7.5,0.2,10.7
			c-1.1,2.3-6.4,0.1-9.9,2.6c-1.2,0.9-0.9-2.1-2.4-2.6C300,157.3,297.6,156.5,295.6,155.5z"/>
	</g>
	<path class="st5" d="M326.9,152.9c0,0-5.3-3.7-13.7-0.4c-8.4,3.3,0.1-12.9,0.1-12.9l10.6-2.8L326.9,152.9z"/>
	<path class="st6" d="M382.8,149.6c1.3-3.7-0.1-9.4-7.8-13.5s-27.6,5-35.5,0.8c-7.9-4.1-12.1-1.9-18.5-0.2
		c-5.7,1.5-12.1,10.9,0.9,18.8c18.4,11.1,23.4-7.1,36.7-0.1C372.1,162.4,380.7,155.4,382.8,149.6z"/>
	<path class="st5" d="M433.7,175.1c9.1-2.5,9.4,0.9,11.2,3.2c1.4,1.9,12.3,10.3,8.7,3.7c-2.9-5.3-5.3-13-5.3-13
		c-2.1-9.1-7.6-1.5-9.8-0.5c-3.1,1.4-10.9,0.1-13.5-0.2c-24-2.7-23.4,8.5-25.8,4c-1.8-3.4-8.7-24.3-18.1-31
		c-7.9-5.6-21.2,3.9-11.3,16.9c0,0,14.6,24.3,23.8,26.3C403.7,186.6,433.7,175.1,433.7,175.1z"/>
	<path class="st5" d="M454.4,189.7c-0.9-1.6-1.7-3.4-2.4-5.1c-3-1.4-7.2-5.2-7.7-5.9c-0.3-0.4-0.5-0.7-0.8-1.1c-0.6-1-1.2-2-2.7-2.4
		c-0.6,0.5-1.1,0.9-1.5,1.1c-1.7,0.8-5,0.7-7.9,0.4c-6.6,2.4-24.8,8.8-34.7,8.8c-1.2,0-2.3-0.1-3.2-0.3c-5-1.1-11.5-8.4-16.5-15.1
		c4.5,8.8,11.7,20.9,17.5,22.1c10,2.2,40-9.4,40-9.4c9.1-2.5,9.4,0.9,11.2,3.2C447.2,187.9,458.1,196.3,454.4,189.7z"/>
	<path class="st5" d="M320.9,139.6c3.3,9.8,17.4,5.3,11.2-4.2c-10.3-15.7-13.9-16.7-25.3-15c-7.9,1.1-15.5,6.1-23.8,6.6
		s-17.8,0.8-15.5,4.8c0,0,3.4,1.6,8.4,0c0,0-1.2,1.1-4.6,2.6c-1.9,0.8,5.5,1,11.5-2.6c0,0,7,0.2,18.7-1.5
		C316.1,128,315.1,122.6,320.9,139.6z"/>
</g>
<g>
	<g>
		<path class="st3" d="M424,26c20.7,12.1,27.8,38.4,16.3,59.2"/>
		<g>
			<polygon class="st4" points="438.1,80.4 439.1,80.1 440.4,84.8 445,83.2 445.3,84.1 439.7,86.1 			"/>
		</g>
	</g>
</g>
<g>
	<g>
		<path class="st3" d="M403.1,143.2c-0.2,23.9-19.4,43.3-43.2,43.7"/>
		<g>
			<polygon class="st4" points="363,182.6 363.7,183.3 360.3,186.8 364,189.9 363.3,190.7 358.8,186.8 			"/>
		</g>
	</g>
</g>
</svg>
