<?xml version="1.0" encoding="utf-8"?>
<!-- Generator: Adobe Illustrator 27.3.1, SVG Export Plug-In . SVG Version: 6.00 Build 0)  -->
<svg version="1.1" id="Capa_1" xmlns="http://www.w3.org/2000/svg" xmlns:xlink="http://www.w3.org/1999/xlink" x="0px" y="0px"
	 viewBox="0 0 500 180" style="enable-background:new 0 0 500 180;" xml:space="preserve">
<style type="text/css">
	.st0{clip-path:url(#SVGID_00000107566877187615701480000010275838240924961982_);}
	.st1{fill:none;stroke:#ECECEC;stroke-width:5.275;stroke-miterlimit:10;}
	.st2{fill:none;stroke:#CD1719;stroke-width:1.3187;stroke-miterlimit:10;}
	.st3{fill:#CD1719;}
	.st4{fill:none;stroke:#000000;stroke-width:1.3187;stroke-miterlimit:10;}
	.st5{fill:#F2C5C1;}
	.st6{fill:#5D5C5B;}
</style>
<g>
	<defs>
		<rect id="SVGID_1_" y="25.3" width="413.3" height="143.9"/>
	</defs>
	<clipPath id="SVGID_00000137840408727173334120000011055308801861406340_">
		<use xlink:href="#SVGID_1_"  style="overflow:visible;"/>
	</clipPath>
	<g id="agua" style="clip-path:url(#SVGID_00000137840408727173334120000011055308801861406340_);">
		<g>
			<g>
				<path class="st1" d="M579.7,42c-30,0-30-5.3-59.9-5.3c-30,0-30,5.3-59.9,5.3c-30,0-30-5.3-59.9-5.3c-30,0-30,5.3-59.9,5.3
					c-30,0-30-5.3-59.9-5.3c-30,0-30,5.3-59.9,5.3c-30,0-30-5.3-59.9-5.3c-30,0-30,5.3-59.9,5.3s-30-5.3-59.9-5.3
					c-30,0-30,5.3-59.9,5.3s-30-5.3-59.9-5.3"/>
			</g>
			<g>
				<path class="st1" d="M579.7,52.8c-30,0-30-5.3-59.9-5.3c-30,0-30,5.3-59.9,5.3c-30,0-30-5.3-59.9-5.3c-30,0-30,5.3-59.9,5.3
					c-30,0-30-5.3-59.9-5.3c-30,0-30,5.3-59.9,5.3c-30,0-30-5.3-59.9-5.3c-30,0-30,5.3-59.9,5.3s-30-5.3-59.9-5.3
					c-30,0-30,5.3-59.9,5.3s-30-5.3-59.9-5.3"/>
			</g>
			<g>
				<path class="st1" d="M579.7,63.6c-30,0-30-5.3-59.9-5.3c-30,0-30,5.3-59.9,5.3c-30,0-30-5.3-59.9-5.3c-30,0-30,5.3-59.9,5.3
					c-30,0-30-5.3-59.9-5.3c-30,0-30,5.3-59.9,5.3c-30,0-30-5.3-59.9-5.3c-30,0-30,5.3-59.9,5.3s-30-5.3-59.9-5.3
					c-30,0-30,5.3-59.9,5.3s-30-5.3-59.9-5.3"/>
			</g>
			<g>
				<path class="st1" d="M579.7,74.4c-30,0-30-5.3-59.9-5.3c-30,0-30,5.3-59.9,5.3c-30,0-30-5.3-59.9-5.3c-30,0-30,5.3-59.9,5.3
					c-30,0-30-5.3-59.9-5.3c-30,0-30,5.3-59.9,5.3c-30,0-30-5.3-59.9-5.3c-30,0-30,5.3-59.9,5.3s-30-5.3-59.9-5.3
					c-30,0-30,5.3-59.9,5.3s-30-5.3-59.9-5.3"/>
			</g>
			<g>
				<path class="st1" d="M579.7,85.2c-30,0-30-5.3-59.9-5.3c-30,0-30,5.3-59.9,5.3c-30,0-30-5.3-59.9-5.3c-30,0-30,5.3-59.9,5.3
					c-30,0-30-5.3-59.9-5.3c-30,0-30,5.3-59.9,5.3c-30,0-30-5.3-59.9-5.3c-30,0-30,5.3-59.9,5.3s-30-5.3-59.9-5.3
					c-30,0-30,5.3-59.9,5.3s-30-5.3-59.9-5.3"/>
			</g>
		</g>
		<g>
			<g>
				<path class="st1" d="M579.7,96c-30,0-30-5.3-59.9-5.3c-30,0-30,5.3-59.9,5.3c-30,0-30-5.3-59.9-5.3c-30,0-30,5.3-59.9,5.3
					c-30,0-30-5.3-59.9-5.3c-30,0-30,5.3-59.9,5.3c-30,0-30-5.3-59.9-5.3c-30,0-30,5.3-59.9,5.3s-30-5.3-59.9-5.3
					c-30,0-30,5.3-59.9,5.3s-30-5.3-59.9-5.3"/>
			</g>
			<g>
				<path class="st1" d="M579.7,106.8c-30,0-30-5.3-59.9-5.3c-30,0-30,5.3-59.9,5.3c-30,0-30-5.3-59.9-5.3c-30,0-30,5.3-59.9,5.3
					c-30,0-30-5.3-59.9-5.3c-30,0-30,5.3-59.9,5.3c-30,0-30-5.3-59.9-5.3c-30,0-30,5.3-59.9,5.3s-30-5.3-59.9-5.3
					c-30,0-30,5.3-59.9,5.3s-30-5.3-59.9-5.3"/>
			</g>
			<g>
				<path class="st1" d="M579.7,117.6c-30,0-30-5.3-59.9-5.3c-30,0-30,5.3-59.9,5.3c-30,0-30-5.3-59.9-5.3c-30,0-30,5.3-59.9,5.3
					c-30,0-30-5.3-59.9-5.3c-30,0-30,5.3-59.9,5.3c-30,0-30-5.3-59.9-5.3c-30,0-30,5.3-59.9,5.3s-30-5.3-59.9-5.3
					c-30,0-30,5.3-59.9,5.3s-30-5.3-59.9-5.3"/>
			</g>
			<g>
				<path class="st1" d="M579.7,128.4c-30,0-30-5.3-59.9-5.3c-30,0-30,5.3-59.9,5.3c-30,0-30-5.3-59.9-5.3c-30,0-30,5.3-59.9,5.3
					c-30,0-30-5.3-59.9-5.3c-30,0-30,5.3-59.9,5.3c-30,0-30-5.3-59.9-5.3c-30,0-30,5.3-59.9,5.3s-30-5.3-59.9-5.3
					c-30,0-30,5.3-59.9,5.3s-30-5.3-59.9-5.3"/>
			</g>
		</g>
		<g>
			<g>
				<path class="st1" d="M579.7,139.2c-30,0-30-5.3-59.9-5.3c-30,0-30,5.3-59.9,5.3c-30,0-30-5.3-59.9-5.3c-30,0-30,5.3-59.9,5.3
					c-30,0-30-5.3-59.9-5.3c-30,0-30,5.3-59.9,5.3c-30,0-30-5.3-59.9-5.3c-30,0-30,5.3-59.9,5.3s-30-5.3-59.9-5.3
					c-30,0-30,5.3-59.9,5.3s-30-5.3-59.9-5.3"/>
			</g>
			<g>
				<path class="st1" d="M579.7,150c-30,0-30-5.3-59.9-5.3c-30,0-30,5.3-59.9,5.3c-30,0-30-5.3-59.9-5.3c-30,0-30,5.3-59.9,5.3
					c-30,0-30-5.3-59.9-5.3c-30,0-30,5.3-59.9,5.3c-30,0-30-5.3-59.9-5.3c-30,0-30,5.3-59.9,5.3s-30-5.3-59.9-5.3
					c-30,0-30,5.3-59.9,5.3s-30-5.3-59.9-5.3"/>
			</g>
			<g>
				<path class="st1" d="M579.7,160.8c-30,0-30-5.3-59.9-5.3c-30,0-30,5.3-59.9,5.3c-30,0-30-5.3-59.9-5.3c-30,0-30,5.3-59.9,5.3
					c-30,0-30-5.3-59.9-5.3c-30,0-30,5.3-59.9,5.3c-30,0-30-5.3-59.9-5.3c-30,0-30,5.3-59.9,5.3s-30-5.3-59.9-5.3
					c-30,0-30,5.3-59.9,5.3s-30-5.3-59.9-5.3"/>
			</g>
		</g>
	</g>
</g>
<g>
	<g>
		<path class="st2" d="M318.3,131.7c0.1-18.4,14.8-33.2,33-33.6"/>
		<g>
			<polygon class="st3" points="348.2,102.3 347.5,101.6 350.9,98.1 347.2,95 347.8,94.2 352.4,98 			"/>
		</g>
	</g>
</g>
<g>
	<g>
		<line class="st2" x1="185" y1="15.9" x2="242.8" y2="15.9"/>
		<g>
			<polygon class="st3" points="239.6,19.9 238.9,19.2 242.5,15.9 238.9,12.6 239.6,11.8 243.9,15.9 			"/>
		</g>
	</g>
</g>
<g>
	<g>
		<line class="st2" x1="167.8" y1="114.9" x2="110.7" y2="105.8"/>
		<g>
			<polygon class="st3" points="114.5,102.3 115.1,103.1 111,105.9 114,109.7 113.3,110.3 109.6,105.6 			"/>
		</g>
	</g>
</g>
<polyline class="st4" points="413.3,164.2 413.3,10 444.9,10 "/>
<g>
	<path class="st5" d="M204.6,43.2c0,0,3.2-1.7,10.1-1.9c6.9-0.2-3.9-9.1-3.9-9.1l-6.2,0.3V43.2z"/>
	<g>
		<path class="st6" d="M218.3,33.4c7.5-2,9.7,4.6,9.7,4.7c0.7-0.8,1.3-1.7,1.5-2.5c1.6-4.6-1.9-10-6.7-11.7
			c-4.9-1.7-11,1.2-12.6,5.8c-0.3,0.9-0.3,1.8-0.1,2.7C210.7,33.3,212.7,34.9,218.3,33.4z"/>
		<path class="st5" d="M228.1,38.1c0,0-2.2-6.7-9.7-4.7c-5.7,1.5-7.6-0.1-8.2-1c0.3,1.7,1.3,3.5,2.2,5.6c1,2.4,1.1,5.8,3.1,7.6
			c1.4,1.3,4.5-1.9,7.8-1.1c1.2,0.3,0-1.8,0.9-2.6C225.5,40.6,227,39.4,228.1,38.1z"/>
	</g>
	<g>
		<path class="st5" d="M262.6,36.1c-7.6-5.6-15.4-2.1-15.4-2.1c-6.7,0.3-12.2,0.5-16.8,0.6c-0.1,0.4-0.2,0.8-0.3,1.1
			c-0.3,0.8-0.8,1.7-1.6,2.7c-0.8,0.9-1.7,1.8-2.6,2.7c10.8-1,20.6-3.7,20.6-3.7l7.7,2.4c0.6,0.2,1.4-0.6,0.9-1.1
			c-0.3-0.3-1.8-0.8-0.8-1.8C255.8,35.6,264.5,37.5,262.6,36.1z"/>
	</g>
	<path class="st6" d="M154.7,37.7c-0.6-2.9,1-7.2,7.3-9.5c6.3-2.3,20.6,6.5,27,4.1c6.4-2.4,17.2-5.2,18.8-0.8s4.5,13.2-4.9,16.7
		c-15.5,5.7-19.4-7.7-30.3-3.6C161.6,48.5,155.7,42.3,154.7,37.7z"/>
	<path class="st5" d="M116,36.4c0,3.7,2.8,2.3,9.1,1.9s10,5,13.5,3.2c2.6-1.4,12.7-9.7,21.6-9.8c7.5-0.1,11.7,11.8-0.3,15.6
		c0,0-13.8,1.8-21.1,2.2c-7.3,0.4-21-3.1-26.7-7.4c-1.7-1.3-5.9-0.8-8.7-1.9c-4.1-1.5-6.3-0.3-8.2-3.8c-2-3.8,8.2,0.3,11.8-1.6
		C110.5,33.1,116,32.1,116,36.4z"/>
	<path class="st5" d="M118.6,46.2c-1.8,1.3-3.2,2.1-3.5,0.9c-1.1-4.3-6.6-3.1-8.8,0.3c-2.3,3.4-13.2,4.7-9.6,7.1
		c3.3,2.2,4.8-1.8,9-0.6c2.6,0.7,7.6-0.9,9.7-1c6.6-0.2,10.8-1.7,17.2-3.1C128.1,49.2,123,47.9,118.6,46.2z"/>
	<path class="st5" d="M174.7,35.6c0,0-9.6-1.8-10.9-11.2c-0.3-2.3,4.4,5.2,6.4,5.4c1.4,0.1,0.7-1.3,0.7-1.8c0-0.7,1.1-0.7,1.4-0.1
		l4.1,1.9c0,0,16.9-19.3,28.5,3.1c4.3,8.3-3.1,11.5-5.6,8c-3.6-4.9-4.6-6.8-5.8-11.4C192,23.9,180.2,35.1,174.7,35.6z"/>
</g>
<g>
	<path class="st5" d="M120.9,84.7c2.4,1,4.2,1.4,5.5,1.3c1.2-0.9,2.2-1.5,2.2-1.5l0.5,0.5c0,0,0.1-0.1,0.1-0.1
		c0,0.1-0.1,0.1-0.1,0.2l3,3.2c-1.4-0.2-2.9-0.4-4.4-0.6c0,0,0,0,0,0c-0.7-0.1-1.4-0.2-2.2-0.3c-4.3-0.6-8.8-1.2-13.4-1.5
		C113.8,84.4,116.7,82.9,120.9,84.7z"/>
	<path class="st6" d="M183.3,99.8c1.1-2.8,0.2-7.3-5.6-10.6c-5.8-3.3-21.4,3-27.3-0.4s-16.1-8-18.4-3.9c-2.3,4-6.6,12.3,2,17.3
		c14.3,8.2,20.5-4.3,30.5,1.5S181.5,104.3,183.3,99.8z"/>
	<path class="st5" d="M87.1,84.6c0,0-7.5-4.1-15.5,0.9c-1.9,1.2,6.8,0.1,8.2,1.5c1,1-0.5,1.4-0.9,1.7c-0.5,0.4,0.2,1.3,0.8,1.1
		l7.9-1.8c0,0,17.6,5.7,29.3,6.2c7.1,0.3,13.5,3,18.7,3.5c9.3,0.9,11.6-7.9,2.2-8.4c-8-0.4-17.4-2.5-27.1-3.1
		C102.8,85.9,94.6,85.4,87.1,84.6z"/>
	<path class="st6" d="M120.9,84.7c-4.3-1.8-7.1-0.4-8.7,1.1c-0.5,0-1-0.1-1.5-0.1c-0.4,0-0.8,0-1.2-0.1c0-0.2-0.1-0.3-0.1-0.5
		c-0.9-4.8,3.3-9.6,8.4-10.6c5-0.9,10.7,2.8,11.6,7.6c0.2,0.9,0,1.8-0.3,2.7C128.5,85.7,126.3,87.1,120.9,84.7z"/>
	<path class="st5" d="M116.9,94.8c2.3,0.1,4.5,0.4,6.7,0.9c-0.4,0.6-0.9,1.2-1.5,1.6c-1.6,1.1-4.2-2.5-7.6-2.3
		c-0.4,0-0.5-0.1-0.5-0.4C115,94.7,115.9,94.7,116.9,94.8z"/>
	<path class="st5" d="M227.2,102.1c-0.8,3.6-10.5-0.5-16.8-0.5s-8.5,1.3-12.1-0.3c-2.7-1.3-14.8-10.5-23.6-10.2
		c-7.5,0.3-11.1,12.4,1.1,15.6c0,0,15.6,4,22.9,4s21.4-2.4,28.6-2.3c2.1,0,6.7,1.5,9.4,1.1c4.3-0.5,5.2,3.6,8.8,2
		c3.9-1.8-6.7-4.7-8.4-8.5C235.3,99.3,229,94.3,227.2,102.1z"/>
	<path class="st5" d="M237.3,102.3C237.2,102.3,237.2,102.3,237.3,102.3c-1.3-2.3-4.2-5.1-6.8-4.8c-1.3,0.1-2.9,1-3.7,4.5
		c-0.4,1.8-4.6,1-8.6,0.2c-2.7-0.5-5.4-1.1-7.7-1.1c-2.3,0-4,0.2-5.5,0.3c-0.5,0-0.9,0.1-1.3,0.1c12.9-6,22.6,0,22.4-3.5
		c-0.6-8,6.9-5.1,9.6-2c2.8,3,13.8,2.6,10.6,5.5C243.3,104.1,241.2,100.5,237.3,102.3z"/>
</g>
<g>
	<g>
		<path class="st5" d="M359,71.1c0.1,0,0.2,0,0.2,0c0,0,0,0,0-0.1c0.1-0.3,0.2-0.7,0.8-1.1c4.3-2.7,6.9-1.6,8.1-0.7
			c1.1,0.8,1.7,2.1,2,3.5c3-3.2-8-6.7-9-6.5c-2.4,0.2-7,0.2-12,0.1C352.7,68.6,356.3,70.7,359,71.1z"/>
		<path class="st5" d="M336.4,68.8c-0.4,0-9.2,0.5-13.8,3.3c9.1-0.5,15.7-0.1,20.9,0.6C340.8,70.6,338.4,68.8,336.4,68.8z"/>
		<path class="st5" d="M315.2,72.1c1.8-1.4,3.4-2.7,5-3.8c-0.1,0-0.2,0-0.2,0c-2.3-0.3-9.5-3.8-8.9-2c0.6,1.8,3.2,2.8,3.2,2.8
			c-1.7-0.5-6.3-0.4-6.3-0.4C307.4,70.9,311.6,71.7,315.2,72.1z"/>
	</g>
	<path class="st5" d="M360.4,70.4c0,0-3.6,0.7-10.2-1.2c-6.7-1.9,1,9.9,1,9.9l9.1,2.9L360.4,70.4z"/>
	<g>
		<path class="st6" d="M344.3,75.6c-7.8-0.3-7.9-7.3-7.9-7.3c-0.9,0.6-1.7,1.2-2.2,1.9c-2.9,3.9-1.2,10.1,2.9,13.2
			c4.1,3,10.9,2.2,13.8-1.8c0.6-0.8,0.8-1.6,0.9-2.5C351.5,78,350.2,75.9,344.3,75.6z"/>
		<path class="st5" d="M336.4,68.3c0,0.1,0.1,7,7.9,7.3c5.9,0.2,7.2,2.4,7.6,3.4c0.2-1.8-0.2-3.8-0.4-6c-0.3-2.6,0.7-5.9-0.7-8.2
			c-1-1.7-4.9,0.4-7.8-1.3c-1-0.6-0.5,1.7-1.6,2.2C339.6,66.6,337.8,67.4,336.4,68.3z"/>
	</g>
	<path class="st6" d="M388.4,43.2c2.8,1.1,9.9,7.4,8.4,13.9c-1.6,6.5-9.9,12.6-14.6,17.6c-6.9,7.3-17.4,8.5-22,7.4
		c-4.5-1.1-5.4-4.4-4.4-8.9c3.6-16.1,18.8-5.1,21.5-16.4C380.1,45.5,384,41.4,388.4,43.2z"/>
	<path class="st5" d="M340.8,38.6c-0.6,3.7,2.4,2.7,8.6,3.5c6.3,0.8,8.9,6.7,12.7,5.4c2.8-0.9,14.2-7.3,22.9-5.9
		c7.4,1.2,9.5,13.7-3,15.4c0,0-13.9-0.6-21.1-1.4c-7.2-0.8-20.1-6.7-25.1-11.9c-1.5-1.5-5.7-1.8-8.3-3.3c-3.8-2.2-6.2-1.4-7.4-5.1
		c-1.3-4.1,8,1.7,11.9,0.5C336,34.4,341.5,34.4,340.8,38.6z"/>
	<path class="st5" d="M341.7,48.8c-2.8,0.9-4.2,1.1-4.7-1.5c-0.8-4.2-6-2.2-9.2,0.4c-3.2,2.6-14,0.6-11.3,3.9c2.5,3,4.4,1.4,8.7,2.1
		c2.9,0.5,7-0.8,8.9,0.1c6.1,2.9,19.1,3.7,26.5,2.2C355.8,55.4,347.8,52.4,341.7,48.8z"/>
	<path class="st5" d="M336.4,68.3c5.9,0,14.4,13.7,26.1,12.8c11.2-0.8,8.7-17.4-2.1-10.7c-1,0.6-0.2,1.4-1.4,1.2
		c-6.2-1-17.1-10.7-21.3-9.9c0,0-10-1.2-28.3,16.2c0,0-5.3,6,4.9-0.4c0,0-0.5,0.2-0.9,2.5s3.4-1.3,6.6-6.3
		C323.2,68.9,336.4,68.3,336.4,68.3z"/>
</g>
<g>
	<g>
		<path class="st6" d="M296.9,113.4c-7.7,1.1-7.1,8-7.1,8.1c-1-0.5-1.8-1.1-2.4-1.7c-3.3-3.6-2.2-10,1.6-13.4
			c3.8-3.4,10.6-3.2,13.9,0.4c0.6,0.7,1,1.5,1.2,2.4C303.8,110.3,302.7,112.6,296.9,113.4z"/>
		<path class="st5" d="M307.9,116.6c-1,1-1.9,1.9-2.7,2.6c0.2,1.5,0.2,3-0.4,4.4c-0.5,1.2-2,1.2-3.5,1.3c-1.4,0-3.1,0.1-4.4,1
			c-0.2,0.2-0.4,0.2-0.6,0.2c-0.1,0-0.2,0-0.2,0c-0.5-0.1-0.6-0.6-0.8-1.1c-0.2-0.4-0.3-0.9-0.6-1c-1.4-0.5-2.9-1-4.3-1.6l0,0
			l-0.8-0.4l-0.3-0.1l0,0c-1-0.5-1.8-1.1-2.3-1.7c-1.2-1.4-1.9-3.1-2.1-5.1c-4.3-2.7-6.8-3.9-6.8-3.9c-2.8-4.6-8-7.1-6.9-5.8
			c1.8,2.2,2.2,3.4,2.2,3.4c-2.9-2.8-5.8-3-5.8-3c-2.9,1.9,3.5,5.5,8.9,8.7c5.5,3.2,11,10.7,16,14.2c7.2,5.1,15.1-0.3,22.8-4.6
			C323,119.8,313.7,111.1,307.9,116.6z"/>
		<path class="st5" d="M289.7,121.5c0-0.1-0.6-7,7.1-8.1c5.8-0.8,7-3.1,7.2-4.2c0.4,1.7,0.2,3.8,0.2,6c0,2.6,1.2,5.8,0.1,8.3
			c-0.8,1.8-4.9,0.1-7.7,2c-1,0.7-0.7-1.7-1.8-2C293.1,122.9,291.2,122.2,289.7,121.5z"/>
	</g>
	<path class="st5" d="M313.8,119.5c0,0-4.1-2.9-10.5-0.3c-6.4,2.5,0-9.9,0-9.9l8.2-2.2L313.8,119.5z"/>
	<path class="st6" d="M356.9,116.9c1-2.8,0-7.3-6-10.4c-5.9-3.1-21.3,3.8-27.3,0.6s-9.3-1.5-14.2-0.2c-4.4,1.2-9.3,8.4,0.7,14.5
		c14.2,8.5,18-5.5,28.3-0.1C348.6,126.8,355.3,121.4,356.9,116.9z"/>
	<path class="st5" d="M396.1,136.6c7-1.9,7.2,0.7,8.6,2.5c1.1,1.4,9.5,7.9,6.7,2.8c-2.2-4.1-4-10-4-10c-1.6-7-5.8-1.1-7.6-0.4
		c-2.4,1.1-8.4,0-10.4-0.2c-18.5-2-18.1,6.6-19.9,3.1c-1.4-2.6-6.7-18.7-13.9-23.9c-6.1-4.4-16.4,3-8.7,13c0,0,11.3,18.7,18.4,20.3
		C373,145.5,396.1,136.6,396.1,136.6z"/>
	<path class="st5" d="M412.1,147.8c-0.7-1.2-1.3-2.6-1.8-3.9c-2.3-1.1-5.5-4-6-4.5c-0.2-0.3-0.4-0.6-0.6-0.9c-0.5-0.8-1-1.5-2-1.9
		c-0.5,0.4-0.9,0.7-1.2,0.8c-1.3,0.6-3.8,0.5-6.1,0.3c-5.1,1.9-19.1,6.7-26.7,6.7c-0.9,0-1.7-0.1-2.4-0.2
		c-3.9-0.9-8.8-6.5-12.7-11.6c3.5,6.8,9,16.1,13.5,17.1c7.7,1.7,30.8-7.2,30.8-7.2c7-1.9,7.2,0.7,8.6,2.5
		C406.5,146.4,414.9,153,412.1,147.8z"/>
	<path class="st5" d="M309.2,109.2c2.6,7.6,13.4,4.1,8.6-3.3c-7.9-12.1-10.7-12.8-19.5-11.6c-6.1,0.9-12,4.7-18.3,5.1
		s-13.7,0.6-12,3.7c0,0,2.6,1.2,6.5,0c0,0-0.9,0.8-3.6,2c-1.5,0.7,4.3,0.8,8.8-2c0,0,5.4,0.2,14.4-1.2
		C305.5,100.3,304.7,96.1,309.2,109.2z"/>
</g>
<g>
	<g>
		<path class="st2" d="M388.6,21.7c15.8,9.3,21.4,29.4,12.7,45.4"/>
		<g>
			<polygon class="st3" points="399.1,62.3 400.1,62.1 401.4,66.7 406,65.1 406.3,66 400.8,68 			"/>
		</g>
	</g>
</g>
<g>
	<g>
		<path class="st2" d="M372.5,112c-0.1,18.4-14.8,33.2-33,33.6"/>
		<g>
			<polygon class="st3" points="342.6,141.4 343.3,142.1 339.9,145.6 343.6,148.7 343,149.5 338.4,145.6 			"/>
		</g>
	</g>
</g>
</svg>
