<?xml version="1.0" encoding="utf-8"?>
<!-- Generator: Adobe Illustrator 27.3.1, SVG Export Plug-In . SVG Version: 6.00 Build 0)  -->
<svg version="1.1" id="Capa_1" xmlns="http://www.w3.org/2000/svg" xmlns:xlink="http://www.w3.org/1999/xlink" x="0px" y="0px"
	 viewBox="0 0 500 210.9" style="enable-background:new 0 0 500 210.9;" xml:space="preserve">
<style type="text/css">
	.st0{clip-path:url(#SVGID_00000085960097939000827400000004596208722249076129_);}
	.st1{fill:none;stroke:#ECECEC;stroke-width:5.275;stroke-miterlimit:10;}
	.st2{fill:#F2C5C1;}
	.st3{fill:#5D5C5B;}
	.st4{fill:none;stroke:#CD1719;stroke-width:1.3187;stroke-miterlimit:10;}
	.st5{fill:#CD1719;}
	.st6{fill:none;stroke:#000000;stroke-width:1.3187;stroke-miterlimit:10;}
</style>
<g>
	<g>
		<defs>
			<rect id="SVGID_1_" y="30.2" width="454.7" height="180.7"/>
		</defs>
		<clipPath id="SVGID_00000086651057038024310690000012922766471929144239_">
			<use xlink:href="#SVGID_1_"  style="overflow:visible;"/>
		</clipPath>
		<g id="agua" style="clip-path:url(#SVGID_00000086651057038024310690000012922766471929144239_);">
			<g>
				<g>
					<path class="st1" d="M671.3,51.9c-39,0-39-6.9-77.9-6.9c-39,0-39,6.9-77.9,6.9c-39,0-39-6.9-77.9-6.9c-39,0-39,6.9-77.9,6.9
						c-39,0-39-6.9-77.9-6.9c-39,0-39,6.9-77.9,6.9c-39,0-39-6.9-77.9-6.9c-39,0-39,6.9-77.9,6.9S8.7,45-30.2,45
						c-39,0-39,6.9-77.9,6.9s-39-6.9-77.9-6.9"/>
				</g>
				<g>
					<path class="st1" d="M671.3,66c-39,0-39-6.9-77.9-6.9c-39,0-39,6.9-77.9,6.9c-39,0-39-6.9-77.9-6.9c-39,0-39,6.9-77.9,6.9
						c-39,0-39-6.9-77.9-6.9c-39,0-39,6.9-77.9,6.9c-39,0-39-6.9-77.9-6.9c-39,0-39,6.9-77.9,6.9s-39-6.9-77.9-6.9
						c-39,0-39,6.9-77.9,6.9s-39-6.9-77.9-6.9"/>
				</g>
				<g>
					<path class="st1" d="M671.3,80c-39,0-39-6.9-77.9-6.9c-39,0-39,6.9-77.9,6.9c-39,0-39-6.9-77.9-6.9c-39,0-39,6.9-77.9,6.9
						c-39,0-39-6.9-77.9-6.9c-39,0-39,6.9-77.9,6.9c-39,0-39-6.9-77.9-6.9c-39,0-39,6.9-77.9,6.9s-39-6.9-77.9-6.9
						c-39,0-39,6.9-77.9,6.9s-39-6.9-77.9-6.9"/>
				</g>
				<g>
					<path class="st1" d="M671.3,94.1c-39,0-39-6.9-77.9-6.9c-39,0-39,6.9-77.9,6.9c-39,0-39-6.9-77.9-6.9c-39,0-39,6.9-77.9,6.9
						c-39,0-39-6.9-77.9-6.9c-39,0-39,6.9-77.9,6.9c-39,0-39-6.9-77.9-6.9c-39,0-39,6.9-77.9,6.9s-39-6.9-77.9-6.9
						c-39,0-39,6.9-77.9,6.9s-39-6.9-77.9-6.9"/>
				</g>
				<g>
					<path class="st1" d="M671.3,108.1c-39,0-39-6.9-77.9-6.9c-39,0-39,6.9-77.9,6.9c-39,0-39-6.9-77.9-6.9c-39,0-39,6.9-77.9,6.9
						c-39,0-39-6.9-77.9-6.9c-39,0-39,6.9-77.9,6.9c-39,0-39-6.9-77.9-6.9c-39,0-39,6.9-77.9,6.9s-39-6.9-77.9-6.9
						c-39,0-39,6.9-77.9,6.9s-39-6.9-77.9-6.9"/>
				</g>
			</g>
			<g>
				<g>
					<path class="st1" d="M671.3,122.2c-39,0-39-6.9-77.9-6.9c-39,0-39,6.9-77.9,6.9c-39,0-39-6.9-77.9-6.9c-39,0-39,6.9-77.9,6.9
						c-39,0-39-6.9-77.9-6.9c-39,0-39,6.9-77.9,6.9c-39,0-39-6.9-77.9-6.9c-39,0-39,6.9-77.9,6.9s-39-6.9-77.9-6.9
						c-39,0-39,6.9-77.9,6.9s-39-6.9-77.9-6.9"/>
				</g>
				<g>
					<path class="st1" d="M671.3,136.2c-39,0-39-6.9-77.9-6.9c-39,0-39,6.9-77.9,6.9c-39,0-39-6.9-77.9-6.9c-39,0-39,6.9-77.9,6.9
						c-39,0-39-6.9-77.9-6.9c-39,0-39,6.9-77.9,6.9c-39,0-39-6.9-77.9-6.9c-39,0-39,6.9-77.9,6.9s-39-6.9-77.9-6.9
						c-39,0-39,6.9-77.9,6.9s-39-6.9-77.9-6.9"/>
				</g>
				<g>
					<path class="st1" d="M671.3,150.3c-39,0-39-6.9-77.9-6.9c-39,0-39,6.9-77.9,6.9c-39,0-39-6.9-77.9-6.9c-39,0-39,6.9-77.9,6.9
						c-39,0-39-6.9-77.9-6.9c-39,0-39,6.9-77.9,6.9c-39,0-39-6.9-77.9-6.9c-39,0-39,6.9-77.9,6.9s-39-6.9-77.9-6.9
						c-39,0-39,6.9-77.9,6.9s-39-6.9-77.9-6.9"/>
				</g>
				<g>
					<path class="st1" d="M671.3,164.3c-39,0-39-6.9-77.9-6.9c-39,0-39,6.9-77.9,6.9c-39,0-39-6.9-77.9-6.9c-39,0-39,6.9-77.9,6.9
						c-39,0-39-6.9-77.9-6.9c-39,0-39,6.9-77.9,6.9c-39,0-39-6.9-77.9-6.9c-39,0-39,6.9-77.9,6.9s-39-6.9-77.9-6.9
						c-39,0-39,6.9-77.9,6.9s-39-6.9-77.9-6.9"/>
				</g>
			</g>
			<g>
				<g>
					<path class="st1" d="M671.3,178.4c-39,0-39-6.9-77.9-6.9c-39,0-39,6.9-77.9,6.9c-39,0-39-6.9-77.9-6.9c-39,0-39,6.9-77.9,6.9
						c-39,0-39-6.9-77.9-6.9c-39,0-39,6.9-77.9,6.9c-39,0-39-6.9-77.9-6.9c-39,0-39,6.9-77.9,6.9s-39-6.9-77.9-6.9
						c-39,0-39,6.9-77.9,6.9s-39-6.9-77.9-6.9"/>
				</g>
				<g>
					<path class="st1" d="M671.3,192.4c-39,0-39-6.9-77.9-6.9c-39,0-39,6.9-77.9,6.9c-39,0-39-6.9-77.9-6.9c-39,0-39,6.9-77.9,6.9
						c-39,0-39-6.9-77.9-6.9c-39,0-39,6.9-77.9,6.9c-39,0-39-6.9-77.9-6.9c-39,0-39,6.9-77.9,6.9s-39-6.9-77.9-6.9
						c-39,0-39,6.9-77.9,6.9s-39-6.9-77.9-6.9"/>
				</g>
				<g>
					<path class="st1" d="M671.3,206.5c-39,0-39-6.9-77.9-6.9c-39,0-39,6.9-77.9,6.9c-39,0-39-6.9-77.9-6.9c-39,0-39,6.9-77.9,6.9
						c-39,0-39-6.9-77.9-6.9c-39,0-39,6.9-77.9,6.9c-39,0-39-6.9-77.9-6.9c-39,0-39,6.9-77.9,6.9s-39-6.9-77.9-6.9
						c-39,0-39,6.9-77.9,6.9s-39-6.9-77.9-6.9"/>
				</g>
			</g>
		</g>
	</g>
</g>
<g>
	<g>
		<path class="st2" d="M96.5,115.5c0,0-1.4-5.3-9.8-6.8c-8.3-1.4,6.5-10.3,6.5-10.3l6,6.4L96.5,115.5z"/>
		<g>
			<path class="st3" d="M83.8,98.5c-8.7-3.9-12.6,3.8-12.8,3.8c-0.7-1.2-1.2-2.3-1.4-3.4c-1-6,4.2-11.8,10.4-12.9
				c6.2-1.2,13.1,3.5,14.3,9.5c0.3,1.2,0,2.2-0.4,3.3C93,99.8,90.3,101.5,83.8,98.5z"/>
			<path class="st2" d="M71,102.4c0,0,3.9-7.7,12.8-3.8c6.6,2.9,9.2,1.3,10.1,0.3c-0.7,2.1-2.2,4-3.6,6.4c-1.7,2.7-2.5,6.9-5.2,8.7
				c-2,1.3-5.2-3.1-9.4-2.9c-1.4,0.1,0.4-2.2-0.7-3.4C73.6,106,72.1,104.1,71,102.4z"/>
		</g>
		<path class="st3" d="M158.2,129.5c2-3.1,1.7-8.8-4.7-13.9c-6.4-5.2-26.5-0.4-33.2-5.7c-6.6-5.3-18-12.8-21.6-8.3
			s-10.4,13.7-0.8,21.3c15.9,12.8,25.6-1.4,36.8,7.5C145.8,139.4,155.1,134.4,158.2,129.5z"/>
		<path class="st2" d="M49,93.4c0,0-9.5-4.4-19,2.3c-2.3,1.7,8.5-0.5,10.3,1.2c1.3,1.2-0.5,1.7-1,2.2c-0.7,0.5,0.3,1.6,1,1.3
			l9.5-2.7c0,0,27.5,18,49.3,18c13.7,0,10.7-8.6,3.9-8.6C77.6,107,83.8,98.5,49,93.4z"/>
		<g>
			<path class="st2" d="M220.3,136.6c-1.8,2.7-16.7-3.1-23.2-3.8c-6.4-0.7-11.8,4.2-20-0.1c-6.1-3.3-16.7-14.7-28-13.5
				c-9.5,0.9-12.4,14.4,1.4,18.9c6.4,2.1,19,7.2,28.9,8.2c9.9,1,24.5-2.6,35.5-1.3c3.3,0.4,8.3-2.6,17.3,0.8
				c3.8,1.4,11.8,2.5,11.2,0c-0.9-4-9.5-5.5-12.4-8.2C228.1,134.7,224.6,130,220.3,136.6z"/>
		</g>
	</g>
	<g>
		<path class="st2" d="M278.9,51.4c0,0,2.3-4.9,10.8-4.9s-4.6-11.3-4.6-11.3l-7,5.2L278.9,51.4z"/>
		<g>
			<path class="st3" d="M294.6,36.9c9.4-2.2,11.8,6,11.8,6c0.9-1,1.6-2.1,2-3c2.1-5.6-2-12.4-7.9-14.6c-5.9-2.2-13.7,1-15.7,6.8
				c-0.4,1-0.4,2.2-0.3,3.3C285.2,36.6,287.5,38.5,294.6,36.9z"/>
			<path class="st2" d="M306.4,42.9c0,0-2.5-8.3-11.8-6c-7,1.7-9.4-0.4-10.1-1.6c0.4,2.2,1.4,4.4,2.5,6.9c1.2,3,1.2,7.2,3.6,9.5
				c1.7,1.7,5.6-2.2,9.6-1.2c1.4,0.4,0-2.2,1.2-3.1C303.1,46.1,305,44.5,306.4,42.9z"/>
		</g>
		<path class="st3" d="M215.8,53.9c-1.3-3.4,0-9,7.2-12.9c7.2-3.9,26.3,4.3,33.6,0.4c7.4-4,20-9.2,22.8-4.3
			c2.7,5.1,7.7,15.4-3.1,21.2c-17.8,9.6-25-6-37.6,0.8C226.1,65.8,217.9,59.3,215.8,53.9z"/>
		<path class="st2" d="M330,41.6c0,0,10.3-2,17.8,6.9c1.8,2.2-8.1-2.5-10.1-1.3c-1.6,0.8,0.1,1.8,0.4,2.3c0.5,0.7-0.7,1.4-1.4,1
			l-8.6-5.1c0,0-31.1,10.8-52.2,5.6c-13.3-3.3-8.3-10.9-1.7-9.2C298.7,47.9,294.9,38.2,330,41.6z"/>
		<g>
			<path class="st2" d="M153.4,49.8c1.2,3,17-0.1,23.4,0.5c6.4,0.5,10.9,6.2,19.8,3.4c6.6-2.1,19-11.5,29.9-8.3
				c9.2,2.6,9.6,16.4-4.8,18.3c-6.6,0.9-20,3.6-29.9,2.9c-9.9-0.7-23.6-7-34.7-7.7c-3.3-0.1-7.7-4-17-2.3
				c-3.9,0.8-12.1,0.4-11.1-2.1c1.7-3.9,10.4-3.6,13.7-5.7C146.1,46.4,150.4,42.5,153.4,49.8z"/>
		</g>
		<path class="st2" d="M139.8,48.1c0.9-0.1,1.8-0.1,2.6-0.1c0.3-0.1,0.5-0.3,0.7-0.5c2.2-1.4,4.6-3.1,6.9-2.5c1.6,0.5,2.9,2,3.9,4.4
			c0.7,1.4,8.1,0.9,13,0.5c3.8-0.3,7.4-0.7,9.9-0.4c2.5,0.3,4.7,1.2,6.8,2.1c3.6,1.6,7.3,3.1,12.8,1.4c1.8-0.5,4-1.7,6.5-2.9
			c2.9-1.4,6-3,9.4-4.2c-6.1,1.7-11.8,4.4-15.6,5.2c-9.1,1.8-12.9-4.3-19.3-5.5c-6.4-1.2-22.4,0.3-23.3-3c-2.2-7.5-6.9-4-10.8-2.1
			c-3.5,1.8-12.1,0.7-14.2,4.3C127.9,47.2,135.9,48.4,139.8,48.1z"/>
	</g>
	<g>
		<path class="st2" d="M350.9,60.6c-1.7-5.2,16.5-19,23.8-22.3c12.5-5.3,13.7,7.7,7.2,9.6c-12.9,3.9-16.7,7.4-22.1,12.2l12.4,11.2
			l-2.2,5.1C369.9,76.5,353.6,69,350.9,60.6z"/>
		<path class="st2" d="M388.4,45c0,0-2.1-5.1,3.8-11.3s-11.5-4.4-11.5-4.4l-1,8.7L388.4,45z"/>
		<g>
			<path class="st3" d="M388.4,23.8c4.7-8.3,12.4-4.6,12.5-4.6c-0.1-1.3-0.4-2.6-0.9-3.5c-2.7-5.3-10.4-6.9-16.1-4.2
				s-8.5,10.7-5.7,16.1c0.5,1,1.3,1.8,2.2,2.5C381.7,30.4,384.9,30,388.4,23.8z"/>
			<path class="st2" d="M400.9,19.2c0,0-7.8-3.8-12.5,4.6c-3.5,6.2-6.6,6.6-7.9,6.4c1.8,1.2,4.3,2,6.8,2.9c3,1.2,6.1,4,9.4,3.8
				c2.3-0.1,2.2-5.6,5.7-7.8c1.2-0.8-1.6-1.4-1.6-3C401,23.7,401,21.3,400.9,19.2z"/>
		</g>
		<path class="st3" d="M373.4,102.5c-3.6,0.1-8.6-2.6-10.1-10.7c-1.6-8.1,10.8-24.5,9.4-32.8c-1.8-10.4,0.1-21.2,5.7-22.3
			c5.6-1,15.1-2.6,17.4,9.4c3.8,19.9-13.3,22-10.5,36S379.3,102.3,373.4,102.5z"/>
		<path class="st2" d="M436.9,41.8c0,0,10.4-1.7,17.7,7.3c1.8,2.2-7.9-2.7-10.1-1.6c-1.6,0.8,0.1,1.8,0.4,2.3c0.4,0.7-0.7,1.4-1.4,1
			l-8.5-5.2c0,0-31.7,10.1-52.8,6.9c-13.5-2.1-7.5-13.8-0.9-12C405.6,47.2,402,37.6,436.9,41.8z"/>
		<g>
			<path class="st2" d="M419.3,86c-9.2-3.8-35.3-1.4-41.9-1.3c-14.6,0.3-15.7,14.1-6.8,17.7c10.5,4.3,36.2-4.4,42.9-6.5
				c0,0-4.7-1-4.7,15.6c0,0,0.5,13.5-2.7,19.5c0,0-4.9,6,1.7,7.5c6.2,1.4,5.6,3.4,7.2,6.1c0.8,1.3,8.7,9.8,7.3,1.2
				c0,0-2.1-4.9-6.6-10.7c0,0-4.8-4-1.3-11.1C418.7,114.9,426.5,88.9,419.3,86z"/>
		</g>
		<g>
			<path class="st2" d="M403.9,136.4c-0.8-2.5,1.3-5.2,1.7-5.7c3-5.9,2.6-19,2.6-19.1c0-6.6,0.8-11.3,2.2-13.9
				c-1.6,0.5-3.4,1-5.3,1.7c-0.5,2.3-0.9,5.5-0.9,10.1c0,0,0.5,13.5-2.7,19.5c0,0-4.9,6,1.7,7.5c0.3,0.1,0.5,0.1,0.8,0.3
				C404,136.4,403.9,136.4,403.9,136.4z"/>
			<path class="st2" d="M414.4,144.8c-0.4-0.7-0.5-1.2-0.8-1.7c-0.7-1.7-1.2-2.9-4.8-3.8c0.5,0.9,0.8,1.8,1.4,2.9
				c0.5,0.9,4.3,5.1,6.2,4.9C415.4,146.2,414.5,145.1,414.4,144.8z"/>
		</g>
	</g>
	<g>
		<path class="st2" d="M320.1,152c0,0-4.7,2.9-11.7-1.8c-7.2-4.7-2.5,12-2.5,12l8.7-0.4L320.1,152z"/>
		<g>
			<path class="st3" d="M299,155.5c-9-3.3-6.5-11.5-6.5-11.6c-1.3,0.4-2.5,0.8-3.4,1.4c-4.8,3.5-5.2,11.5-1.4,16.5
				c3.6,5.1,12,6.6,16.8,3.1c0.9-0.7,1.6-1.6,2.1-2.6C306.7,161,305.7,158,299,155.5z"/>
			<path class="st2" d="M292.5,143.9c0,0-2.5,8.2,6.5,11.6c6.8,2.5,7.5,5.5,7.5,6.9c0.9-2,1.2-4.4,1.7-7.2c0.7-3.1,3-6.6,2.2-9.9
				c-0.5-2.3-5.9-1.3-8.7-4.4c-1-1-1.2,1.8-2.7,2C296.9,143.1,294.6,143.4,292.5,143.9z"/>
			<path class="st2" d="M303.4,130.5c0,0-20.9,6.4-27.6,7.7c0,0-11.8,0-15.6,3.3c0,0-3.5,4,3.4,4.6l6.5-1.6c0,0-3,2.1-5.3,2.9
				c-2.3,0.9,6.9,1.7,11.7-3.4c0,0,24.1-3.6,26.9-4.8c0.9-0.4,2.3,1.3,3.8,3.5c0.1,0,0.1,0,0.3,0c1.8,0.4,3.5,0.9,3.9,2.3
				s0.1,3-0.4,4.4c1.6,3.3,2.7,6.1,2.7,6.1l12.4-6.2C325.8,149,310.2,128.9,303.4,130.5z"/>
		</g>
		<path class="st3" d="M378.5,172c0.1,3.6-2.7,8.6-10.8,10c-8.1,1.4-24.5-10.9-32.7-9.5c-10.4,1.8-21.2-0.1-22.3-5.9
			c-1-5.6-2.6-15.1,9.5-17.4c20-3.8,22,13.3,36,10.7C372.2,157.4,378.2,166.2,378.5,172z"/>
		<path class="st2" d="M256.8,160.8c0,0-11.3,2.7-16-3.3c-1.6-2,5.7-2.2,11.1-2.2c2.3,0-7.9-2-5.7-2.3c5.9-1,12.2,3.3,12.2,3.3
			s9.2-1.3,25,0.8c11.3,1.4,22,0.1,36.8,3.6c13.3,3.1,6.2,13.3-0.5,12c-18-3.8-22.4-6.9-32.8-7.7
			C279.2,164.2,271.3,164.3,256.8,160.8z"/>
		<g>
			<path class="st2" d="M430.9,170.3c-7.7-6.4-22.5-2.7-34.6-16.5c-5.3,2.6-13.7,22.5-24.5,26.2c-9.1,3.1-17.2-8.1-6.5-17.8
				c4.9-4.6,18.6-16.9,28-20c7.3-2.5,30.1,15.4,40.6,22.3c0,0,2.3,2,6.9-1.7c4.4-3.6,11.2-8.1,11.1-3.9c-0.1,4.2-5.6,4.6-8.1,9.5
				C440.9,174.4,438.9,176.8,430.9,170.3z"/>
		</g>
		<path class="st2" d="M443.2,155.9c-4.4,3.6-6.9,1.7-6.9,1.7c-10.5-6.9-33.3-24.7-40.6-22.3c-9.2,3.1-23,16.8-27.2,23.2
			c6.2-5.5,16.8-14.3,24.7-16.9c6.1-2.1,21.3,8.6,33.6,17.2c2.9,2,5.5,3.9,7.5,5.2c0.1,0.1,2.2,1.6,6.1-1.7c2.9-2.3,7.9-6,10.5-5.7
			c1.7-1.3,3.3-2.3,3.3-4.6C454.5,147.8,447.7,152.2,443.2,155.9z"/>
	</g>
</g>
<g>
	<g>
		<line class="st4" x1="226.8" y1="14.3" x2="302" y2="14.3"/>
		<g>
			<polygon class="st5" points="297.7,19.6 296.9,18.6 301.5,14.3 296.9,10 297.7,9.1 303.4,14.3 			"/>
		</g>
	</g>
</g>
<g>
	<g>
		<line class="st4" x1="303.3" y1="174.1" x2="228.2" y2="168.9"/>
		<g>
			<polygon class="st5" points="232.9,163.9 233.7,165 228.7,169 233,173.6 232.1,174.5 226.9,168.9 			"/>
		</g>
	</g>
</g>
<g>
	<g>
		<path class="st4" d="M393.1,72.1c12.5,20.3,6.5,46.8-13.4,59.9"/>
		<g>
			<polygon class="st5" points="380.2,125.2 381.4,125.4 380,131.7 386.3,132.6 386.2,133.8 378.5,132.7 			"/>
		</g>
	</g>
</g>
<polyline class="st6" points="454.7,210.9 454.7,10.3 495.9,10.3 "/>
</svg>
