<?xml version="1.0" encoding="utf-8"?>
<!-- Generator: Adobe Illustrator 27.3.1, SVG Export Plug-In . SVG Version: 6.00 Build 0)  -->
<svg version="1.1" id="Capa_1" xmlns="http://www.w3.org/2000/svg" xmlns:xlink="http://www.w3.org/1999/xlink" x="0px" y="0px"
	 viewBox="0 0 500 180" style="enable-background:new 0 0 500 180;" xml:space="preserve">
<style type="text/css">
	.st0{clip-path:url(#SVGID_00000007423566814881622450000006864055546418041775_);}
	.st1{fill:none;stroke:#ECECEC;stroke-width:5.275;stroke-miterlimit:10;}
	.st2{fill:#F2C5C1;}
	.st3{fill:#5D5C5B;}
	.st4{fill:none;stroke:#CD1719;stroke-width:1.3187;stroke-miterlimit:10;}
	.st5{fill:#CD1719;}
	.st6{fill:none;stroke:#000000;stroke-width:1.3187;stroke-miterlimit:10;}
</style>
<g>
	<defs>
		<rect id="SVGID_1_" y="25.3" width="413.3" height="143.9"/>
	</defs>
	<clipPath id="SVGID_00000114763917278938646260000016072639987141390241_">
		<use xlink:href="#SVGID_1_"  style="overflow:visible;"/>
	</clipPath>
	<g id="agua" style="clip-path:url(#SVGID_00000114763917278938646260000016072639987141390241_);">
		<g>
			<g>
				<path class="st1" d="M579.7,42c-30,0-30-5.3-59.9-5.3c-30,0-30,5.3-59.9,5.3c-30,0-30-5.3-59.9-5.3c-30,0-30,5.3-59.9,5.3
					c-30,0-30-5.3-59.9-5.3c-30,0-30,5.3-59.9,5.3c-30,0-30-5.3-59.9-5.3c-30,0-30,5.3-59.9,5.3s-30-5.3-59.9-5.3
					c-30,0-30,5.3-59.9,5.3s-30-5.3-59.9-5.3"/>
			</g>
			<g>
				<path class="st1" d="M579.7,52.8c-30,0-30-5.3-59.9-5.3c-30,0-30,5.3-59.9,5.3c-30,0-30-5.3-59.9-5.3c-30,0-30,5.3-59.9,5.3
					c-30,0-30-5.3-59.9-5.3c-30,0-30,5.3-59.9,5.3c-30,0-30-5.3-59.9-5.3c-30,0-30,5.3-59.9,5.3s-30-5.3-59.9-5.3
					c-30,0-30,5.3-59.9,5.3s-30-5.3-59.9-5.3"/>
			</g>
			<g>
				<path class="st1" d="M579.7,63.6c-30,0-30-5.3-59.9-5.3c-30,0-30,5.3-59.9,5.3c-30,0-30-5.3-59.9-5.3c-30,0-30,5.3-59.9,5.3
					c-30,0-30-5.3-59.9-5.3c-30,0-30,5.3-59.9,5.3c-30,0-30-5.3-59.9-5.3c-30,0-30,5.3-59.9,5.3s-30-5.3-59.9-5.3
					c-30,0-30,5.3-59.9,5.3s-30-5.3-59.9-5.3"/>
			</g>
			<g>
				<path class="st1" d="M579.7,74.4c-30,0-30-5.3-59.9-5.3c-30,0-30,5.3-59.9,5.3c-30,0-30-5.3-59.9-5.3c-30,0-30,5.3-59.9,5.3
					c-30,0-30-5.3-59.9-5.3c-30,0-30,5.3-59.9,5.3c-30,0-30-5.3-59.9-5.3c-30,0-30,5.3-59.9,5.3s-30-5.3-59.9-5.3
					c-30,0-30,5.3-59.9,5.3s-30-5.3-59.9-5.3"/>
			</g>
			<g>
				<path class="st1" d="M579.7,85.2c-30,0-30-5.3-59.9-5.3c-30,0-30,5.3-59.9,5.3c-30,0-30-5.3-59.9-5.3c-30,0-30,5.3-59.9,5.3
					c-30,0-30-5.3-59.9-5.3c-30,0-30,5.3-59.9,5.3c-30,0-30-5.3-59.9-5.3c-30,0-30,5.3-59.9,5.3s-30-5.3-59.9-5.3
					c-30,0-30,5.3-59.9,5.3s-30-5.3-59.9-5.3"/>
			</g>
		</g>
		<g>
			<g>
				<path class="st1" d="M579.7,96c-30,0-30-5.3-59.9-5.3c-30,0-30,5.3-59.9,5.3c-30,0-30-5.3-59.9-5.3c-30,0-30,5.3-59.9,5.3
					c-30,0-30-5.3-59.9-5.3c-30,0-30,5.3-59.9,5.3c-30,0-30-5.3-59.9-5.3c-30,0-30,5.3-59.9,5.3s-30-5.3-59.9-5.3
					c-30,0-30,5.3-59.9,5.3s-30-5.3-59.9-5.3"/>
			</g>
			<g>
				<path class="st1" d="M579.7,106.8c-30,0-30-5.3-59.9-5.3c-30,0-30,5.3-59.9,5.3c-30,0-30-5.3-59.9-5.3c-30,0-30,5.3-59.9,5.3
					c-30,0-30-5.3-59.9-5.3c-30,0-30,5.3-59.9,5.3c-30,0-30-5.3-59.9-5.3c-30,0-30,5.3-59.9,5.3s-30-5.3-59.9-5.3
					c-30,0-30,5.3-59.9,5.3s-30-5.3-59.9-5.3"/>
			</g>
			<g>
				<path class="st1" d="M579.7,117.6c-30,0-30-5.3-59.9-5.3c-30,0-30,5.3-59.9,5.3c-30,0-30-5.3-59.9-5.3c-30,0-30,5.3-59.9,5.3
					c-30,0-30-5.3-59.9-5.3c-30,0-30,5.3-59.9,5.3c-30,0-30-5.3-59.9-5.3c-30,0-30,5.3-59.9,5.3s-30-5.3-59.9-5.3
					c-30,0-30,5.3-59.9,5.3s-30-5.3-59.9-5.3"/>
			</g>
			<g>
				<path class="st1" d="M579.7,128.4c-30,0-30-5.3-59.9-5.3c-30,0-30,5.3-59.9,5.3c-30,0-30-5.3-59.9-5.3c-30,0-30,5.3-59.9,5.3
					c-30,0-30-5.3-59.9-5.3c-30,0-30,5.3-59.9,5.3c-30,0-30-5.3-59.9-5.3c-30,0-30,5.3-59.9,5.3s-30-5.3-59.9-5.3
					c-30,0-30,5.3-59.9,5.3s-30-5.3-59.9-5.3"/>
			</g>
		</g>
		<g>
			<g>
				<path class="st1" d="M579.7,139.2c-30,0-30-5.3-59.9-5.3c-30,0-30,5.3-59.9,5.3c-30,0-30-5.3-59.9-5.3c-30,0-30,5.3-59.9,5.3
					c-30,0-30-5.3-59.9-5.3c-30,0-30,5.3-59.9,5.3c-30,0-30-5.3-59.9-5.3c-30,0-30,5.3-59.9,5.3s-30-5.3-59.9-5.3
					c-30,0-30,5.3-59.9,5.3s-30-5.3-59.9-5.3"/>
			</g>
			<g>
				<path class="st1" d="M579.7,150c-30,0-30-5.3-59.9-5.3c-30,0-30,5.3-59.9,5.3c-30,0-30-5.3-59.9-5.3c-30,0-30,5.3-59.9,5.3
					c-30,0-30-5.3-59.9-5.3c-30,0-30,5.3-59.9,5.3c-30,0-30-5.3-59.9-5.3c-30,0-30,5.3-59.9,5.3s-30-5.3-59.9-5.3
					c-30,0-30,5.3-59.9,5.3s-30-5.3-59.9-5.3"/>
			</g>
			<g>
				<path class="st1" d="M579.7,160.8c-30,0-30-5.3-59.9-5.3c-30,0-30,5.3-59.9,5.3c-30,0-30-5.3-59.9-5.3c-30,0-30,5.3-59.9,5.3
					c-30,0-30-5.3-59.9-5.3c-30,0-30,5.3-59.9,5.3c-30,0-30-5.3-59.9-5.3c-30,0-30,5.3-59.9,5.3s-30-5.3-59.9-5.3
					c-30,0-30,5.3-59.9,5.3s-30-5.3-59.9-5.3"/>
			</g>
		</g>
	</g>
</g>
<g>
	<g>
		<path class="st2" d="M138,90.9c0,0-1.1-4.1-7.5-5.2s5-7.9,5-7.9l4.6,4.9L138,90.9z"/>
		<g>
			<path class="st3" d="M128.2,77.8c-6.7-3-9.7,2.9-9.8,2.9c-0.5-0.9-0.9-1.8-1.1-2.6c-0.8-4.6,3.2-9.1,8-9.9
				c4.8-0.9,10.1,2.7,11,7.3c0.2,0.9,0,1.7-0.3,2.5C135.3,78.8,133.2,80.1,128.2,77.8z"/>
			<path class="st2" d="M118.4,80.8c0,0,3-5.9,9.8-2.9c5.1,2.2,7.1,1,7.8,0.2c-0.5,1.6-1.7,3.1-2.8,4.9c-1.3,2.1-1.9,5.3-4,6.7
				c-1.5,1-4-2.4-7.2-2.2c-1.1,0.1,0.3-1.7-0.5-2.6C120.4,83.6,119.2,82.1,118.4,80.8z"/>
		</g>
		<path class="st3" d="M185.4,101.6c1.5-2.4,1.3-6.8-3.6-10.7c-4.9-4-20.4-0.3-25.5-4.4s-13.8-9.8-16.6-6.4
			c-2.8,3.4-8,10.5-0.6,16.4c12.2,9.8,19.7-1.1,28.3,5.8C175.9,109.2,183,105.4,185.4,101.6z"/>
		<path class="st2" d="M101.5,73.9c0,0-7.3-3.4-14.6,1.8c-1.8,1.3,6.5-0.4,7.9,0.9c1,0.9-0.4,1.3-0.8,1.7c-0.5,0.4,0.2,1.2,0.8,1
			l7.3-2.1c0,0,21.1,13.8,37.9,13.8c10.5,0,8.2-6.6,3-6.6C123.5,84.3,128.2,77.8,101.5,73.9z"/>
		<g>
			<path class="st2" d="M233.1,107.1c-1.4,2.1-12.8-2.4-17.8-2.9c-4.9-0.5-9.1,3.2-15.4-0.1c-4.7-2.5-12.8-11.3-21.5-10.4
				c-7.3,0.7-9.5,11.1,1.1,14.5c4.9,1.6,14.6,5.5,22.2,6.3c7.6,0.8,18.8-2,27.3-1c2.5,0.3,6.4-2,13.3,0.6c2.9,1.1,9.1,1.9,8.6,0
				c-0.7-3.1-7.3-4.2-9.5-6.3C239.1,105.6,236.4,102,233.1,107.1z"/>
		</g>
	</g>
	<g>
		<path class="st2" d="M278.2,41.6c0,0,1.8-3.8,8.3-3.8c6.5,0-3.5-8.7-3.5-8.7l-5.4,4L278.2,41.6z"/>
		<g>
			<path class="st3" d="M290.2,30.5c7.2-1.7,9.1,4.6,9.1,4.6c0.7-0.8,1.2-1.6,1.5-2.3c1.6-4.3-1.5-9.5-6.1-11.2
				c-4.5-1.7-10.5,0.8-12.1,5.2c-0.3,0.8-0.3,1.7-0.2,2.5C283,30.2,284.8,31.7,290.2,30.5z"/>
			<path class="st2" d="M299.3,35.1c0,0-1.9-6.4-9.1-4.6c-5.4,1.3-7.2-0.3-7.8-1.2c0.3,1.7,1.1,3.4,1.9,5.3c0.9,2.3,0.9,5.5,2.8,7.3
				c1.3,1.3,4.3-1.7,7.4-0.9c1.1,0.3,0-1.7,0.9-2.4C296.8,37.5,298.2,36.3,299.3,35.1z"/>
		</g>
		<path class="st3" d="M229.7,43.5c-1-2.6,0-6.9,5.5-9.9s20.2,3.3,25.8,0.3c5.7-3.1,15.4-7.1,17.5-3.3c2.1,3.9,5.9,11.8-2.4,16.3
			c-13.7,7.4-19.2-4.6-28.9,0.6C237.6,52.7,231.3,47.7,229.7,43.5z"/>
		<path class="st2" d="M317.4,34.1c0,0,7.9-1.5,13.7,5.3c1.4,1.7-6.2-1.9-7.8-1c-1.2,0.6,0.1,1.4,0.3,1.8c0.4,0.5-0.5,1.1-1.1,0.8
			l-6.6-3.9c0,0-23.9,8.3-40.1,4.3c-10.2-2.5-6.4-8.4-1.3-7.1C293.4,38.9,290.5,31.5,317.4,34.1z"/>
		<g>
			<path class="st2" d="M181.7,40.4c0.9,2.3,13.1-0.1,18,0.4c4.9,0.4,8.4,4.8,15.2,2.6c5.1-1.6,14.6-8.8,23-6.4
				c7.1,2,7.4,12.6-3.7,14.1c-5.1,0.7-15.4,2.8-23,2.2c-7.6-0.5-18.1-5.4-26.7-5.9c-2.5-0.1-5.9-3.1-13.1-1.8
				c-3,0.6-9.3,0.3-8.5-1.6c1.3-3,8-2.8,10.5-4.4C176.1,37.8,179.4,34.8,181.7,40.4z"/>
		</g>
		<path class="st2" d="M171.3,39.1c0.7-0.1,1.4-0.1,2-0.1c0.2-0.1,0.4-0.2,0.5-0.4c1.7-1.1,3.5-2.4,5.3-1.9c1.2,0.4,2.2,1.5,3,3.4
			c0.5,1.1,6.2,0.7,10,0.4c2.9-0.2,5.7-0.5,7.6-0.3c1.9,0.2,3.6,0.9,5.2,1.6c2.8,1.2,5.6,2.4,9.8,1.1c1.4-0.4,3.1-1.3,5-2.2
			c2.2-1.1,4.6-2.3,7.2-3.2c-4.7,1.3-9.1,3.4-12,4c-7,1.4-9.9-3.3-14.8-4.2c-4.9-0.9-17.2,0.2-17.9-2.3c-1.7-5.8-5.3-3.1-8.3-1.6
			c-2.7,1.4-9.3,0.5-10.9,3.3C162.1,38.4,168.3,39.3,171.3,39.1z"/>
	</g>
	<g>
		<path class="st2" d="M333.5,48.7c-1.3-4,12.7-14.6,18.3-17.1c9.6-4.1,10.5,5.9,5.5,7.4c-9.9,3-12.8,5.7-17,9.4l9.5,8.6l-1.7,3.9
			C348.1,60.9,335.6,55.1,333.5,48.7z"/>
		<path class="st2" d="M362.3,36.7c0,0-1.6-3.9,2.9-8.7s-8.8-3.4-8.8-3.4l-0.8,6.7L362.3,36.7z"/>
		<g>
			<path class="st3" d="M362.3,20.4c3.6-6.4,9.5-3.5,9.6-3.5c-0.1-1-0.3-2-0.7-2.7c-2.1-4.1-8-5.3-12.4-3.2s-6.5,8.2-4.4,12.4
				c0.4,0.8,1,1.4,1.7,1.9C357.2,25.5,359.6,25.2,362.3,20.4z"/>
			<path class="st2" d="M371.9,16.9c0,0-6-2.9-9.6,3.5c-2.7,4.8-5.1,5.1-6.1,4.9c1.4,0.9,3.3,1.5,5.2,2.2c2.3,0.9,4.7,3.1,7.2,2.9
				c1.8-0.1,1.7-4.3,4.4-6c0.9-0.6-1.2-1.1-1.2-2.3C372,20.3,372,18.5,371.9,16.9z"/>
		</g>
		<path class="st3" d="M350.8,80.9c-2.8,0.1-6.6-2-7.8-8.2c-1.2-6.2,8.3-18.8,7.2-25.2c-1.4-8,0.1-16.3,4.4-17.1
			c4.3-0.8,11.6-2,13.4,7.2c2.9,15.3-10.2,16.9-8.1,27.7S355.3,80.7,350.8,80.9z"/>
		<path class="st2" d="M399.6,34.2c0,0,8-1.3,13.6,5.6c1.4,1.7-6.1-2.1-7.8-1.2c-1.2,0.6,0.1,1.4,0.3,1.8c0.3,0.5-0.5,1.1-1.1,0.8
			l-6.5-4c0,0-24.4,7.8-40.6,5.3c-10.4-1.6-5.8-10.6-0.7-9.2C375.5,38.4,372.8,31,399.6,34.2z"/>
		<g>
			<path class="st2" d="M386.1,68.2c-7.1-2.9-27.1-1.1-32.2-1c-11.2,0.2-12.1,10.8-5.2,13.6c8.1,3.3,27.8-3.4,33-5
				c0,0-3.6-0.8-3.6,12c0,0,0.4,10.4-2.1,15c0,0-3.8,4.6,1.3,5.8c4.8,1.1,4.3,2.6,5.5,4.7c0.6,1,6.7,7.5,5.6,0.9
				c0,0-1.6-3.8-5.1-8.2c0,0-3.7-3.1-1-8.5C385.6,90.4,391.6,70.4,386.1,68.2z"/>
		</g>
		<g>
			<path class="st2" d="M374.2,106.9c-0.6-1.9,1-4,1.3-4.4c2.3-4.5,2-14.6,2-14.7c0-5.1,0.6-8.7,1.7-10.7c-1.2,0.4-2.6,0.8-4.1,1.3
				c-0.4,1.8-0.7,4.2-0.7,7.8c0,0,0.4,10.4-2.1,15c0,0-3.8,4.6,1.3,5.8c0.2,0.1,0.4,0.1,0.6,0.2
				C374.3,106.9,374.2,106.9,374.2,106.9z"/>
			<path class="st2" d="M382.3,113.4c-0.3-0.5-0.4-0.9-0.6-1.3c-0.5-1.3-0.9-2.2-3.7-2.9c0.4,0.7,0.6,1.4,1.1,2.2
				c0.4,0.7,3.3,3.9,4.8,3.8C383.1,114.5,382.4,113.6,382.3,113.4z"/>
		</g>
	</g>
	<g>
		<path class="st2" d="M309.8,118.9c0,0-3.6,2.2-9-1.4c-5.5-3.6-1.9,9.2-1.9,9.2l6.7-0.3L309.8,118.9z"/>
		<g>
			<path class="st3" d="M293.6,121.6c-6.9-2.5-5-8.8-5-8.9c-1,0.3-1.9,0.6-2.6,1.1c-3.7,2.7-4,8.8-1.1,12.7
				c2.8,3.9,9.2,5.1,12.9,2.4c0.7-0.5,1.2-1.2,1.6-2C299.5,125.8,298.8,123.5,293.6,121.6z"/>
			<path class="st2" d="M288.6,112.7c0,0-1.9,6.3,5,8.9c5.2,1.9,5.8,4.2,5.8,5.3c0.7-1.5,0.9-3.4,1.3-5.5c0.5-2.4,2.3-5.1,1.7-7.6
				c-0.4-1.8-4.5-1-6.7-3.4c-0.8-0.8-0.9,1.4-2.1,1.5C292,112.1,290.2,112.3,288.6,112.7z"/>
			<path class="st2" d="M297,102.4c0,0-16.1,4.9-21.2,5.9c0,0-9.1,0-12,2.5c0,0-2.7,3.1,2.6,3.5l5-1.2c0,0-2.3,1.6-4.1,2.2
				c-1.8,0.7,5.3,1.3,9-2.6c0,0,18.5-2.8,20.7-3.7c0.7-0.3,1.8,1,2.9,2.7c0.1,0,0.1,0,0.2,0c1.4,0.3,2.7,0.7,3,1.8
				c0.3,1.1,0.1,2.3-0.3,3.4c1.2,2.5,2.1,4.7,2.1,4.7l9.5-4.8C314.2,116.6,302.2,101.2,297,102.4z"/>
		</g>
		<path class="st3" d="M354.7,134.3c0.1,2.8-2.1,6.6-8.3,7.7s-18.8-8.4-25.1-7.3c-8,1.4-16.3-0.1-17.1-4.5c-0.8-4.3-2-11.6,7.3-13.4
			c15.4-2.9,16.9,10.2,27.7,8.2C349.9,123.1,354.5,129.8,354.7,134.3z"/>
		<path class="st2" d="M261.2,125.7c0,0-8.7,2.1-12.3-2.5c-1.2-1.5,4.4-1.7,8.5-1.7c1.8,0-6.1-1.5-4.4-1.8c4.5-0.8,9.4,2.5,9.4,2.5
			s7.1-1,19.2,0.6c8.7,1.1,16.9,0.1,28.3,2.8c10.2,2.4,4.8,10.2-0.4,9.2c-13.8-2.9-17.2-5.3-25.2-5.9
			C278.4,128.3,272.3,128.4,261.2,125.7z"/>
		<g>
			<path class="st2" d="M395,133c-5.9-4.9-17.3-2.1-26.6-12.7c-4.1,2-10.5,17.3-18.8,20.1c-7,2.4-13.2-6.2-5-13.7
				c3.8-3.5,14.3-13,21.5-15.4c5.6-1.9,23.1,11.8,31.2,17.1c0,0,1.8,1.5,5.3-1.3c3.4-2.8,8.6-6.2,8.5-3c-0.1,3.2-4.3,3.5-6.2,7.3
				C402.7,136.1,401.1,138,395,133z"/>
		</g>
		<path class="st2" d="M404.4,121.9c-3.4,2.8-5.3,1.3-5.3,1.3c-8.1-5.3-25.6-19-31.2-17.1c-7.1,2.4-17.7,12.9-20.9,17.8
			c4.8-4.2,12.9-11,19-13c4.7-1.6,16.4,6.6,25.8,13.2c2.2,1.5,4.2,3,5.8,4c0.1,0.1,1.7,1.2,4.7-1.3c2.2-1.8,6.1-4.6,8.1-4.4
			c1.3-1,2.5-1.8,2.5-3.5C413.1,115.7,407.9,119.1,404.4,121.9z"/>
	</g>
</g>
<g>
	<g>
		<line class="st4" x1="238.1" y1="13.1" x2="295.9" y2="13.1"/>
		<g>
			<polygon class="st5" points="292.6,17.2 292,16.4 295.5,13.1 292,9.8 292.6,9.1 297,13.1 			"/>
		</g>
	</g>
</g>
<g>
	<g>
		<line class="st4" x1="296.9" y1="135.9" x2="239.2" y2="131.9"/>
		<g>
			<polygon class="st5" points="242.8,128.1 243.4,128.9 239.6,132 242.9,135.5 242.2,136.2 238.2,131.9 			"/>
		</g>
	</g>
</g>
<g>
	<g>
		<path class="st4" d="M365.9,57.5c9.6,15.6,5,36-10.3,46"/>
		<g>
			<polygon class="st5" points="356,98.3 356.9,98.5 355.9,103.3 360.7,104 360.6,104.9 354.7,104.1 			"/>
		</g>
	</g>
</g>
<polyline class="st6" points="413.3,164.2 413.3,10 444.9,10 "/>
</svg>
